<svg width="217" height="207" viewBox="0 0 217 207" fill="none" xmlns="http://www.w3.org/2000/svg">
<g clip-path="url(#clip0_662_5159)">
<g opacity="0.55">
<path d="M124.888 170.207C100.342 170.207 76.1533 158.853 60.6966 137.488L52.603 126.306C27.0564 90.9967 35.058 41.7225 70.4727 16.2521C105.893 -9.22377 155.309 -1.24605 180.855 34.063L188.949 45.2448C214.496 80.5539 206.494 129.828 171.079 155.298C157.089 165.358 140.912 170.202 124.888 170.202V170.207Z" fill="#FFEA4B"/>
</g>
<g opacity="0.55">
<path d="M127.636 187.662C126.126 187.662 124.611 187.619 123.08 187.533C79.4802 185.063 46.143 147.828 48.6209 104.358L49.032 97.1566C51.5045 53.6864 88.8559 20.4486 132.456 22.9191C176.056 25.3895 209.393 62.6243 206.916 106.094L206.504 113.295C204.119 155.239 169.25 187.662 127.636 187.662Z" fill="#FFEA4B"/>
</g>
<g opacity="0.55">
<path d="M107.104 167.662C106.098 167.662 104.902 167.656 103.36 167.64H103.29C94.6336 167.575 86.1018 166.087 77.781 163.19C74.3456 162.181 70.8344 160.898 67.3125 159.279C66.6903 158.993 66.0681 158.697 65.4568 158.395C36.0528 146.382 17.5285 116.845 19.9901 85.0256C20.8774 73.5471 24.4264 62.7753 30.0475 53.3466C31.4271 50.0779 32.9744 46.8846 34.6083 43.9665C34.7273 43.7507 34.8517 43.5349 34.9762 43.3192C39.288 35.7945 49.0641 21.754 66.0681 12.239C66.1222 12.2066 66.1817 12.1742 66.2358 12.1473C69.1952 10.5021 71.8299 9.28845 75.1247 7.86444C90.8303 1.07879 107.618 0.21575 122.972 4.28822C131.033 5.70684 139.191 8.42002 147.317 12.3846C147.858 12.6489 148.399 12.924 148.94 13.1991C149.2 13.3339 149.584 13.5281 150.022 13.7439C154.643 15.1841 161.07 17.6923 167.989 22.1639C168.428 22.4498 168.866 22.7357 169.299 23.027C185.908 34.2734 197.318 52.079 200.596 71.8804C203.918 91.9245 198.757 112.756 186.433 129.03C185.967 129.639 185.497 130.249 185.015 130.842C177.717 139.877 168.038 147.256 167.627 147.569C167.497 147.666 167.373 147.763 167.243 147.86C158.673 154.274 149.692 158.298 146.23 159.732C146.187 159.749 146.143 159.77 146.1 159.786C134.863 164.409 122.296 167.187 110.712 167.608C110.55 167.613 110.382 167.618 110.22 167.624C109.273 167.651 108.332 167.662 107.109 167.662H107.104Z" fill="#FFEA4B"/>
</g>
<g opacity="0.55">
<path d="M107.467 167.899C103.561 167.899 99.6599 167.613 95.8187 167.03C95.3048 166.955 94.7908 166.869 94.2823 166.782C84.5332 165.094 65.8683 159.975 50.4116 144.705C50.0383 144.338 49.6704 143.96 49.3025 143.588C44.0817 138.2 34.6248 126.721 29.983 110.345C29.918 110.113 29.8531 109.876 29.7882 109.638C24.7351 91.11 27.7594 71.7887 32.2769 59.8841C32.4229 59.4904 32.5798 59.102 32.7313 58.7136C42.5074 34.2357 62.7196 21.5814 68.6816 18.2856C69.0278 18.0914 69.3741 17.9026 69.7257 17.7193C86.5025 8.79758 103.582 7.95612 112.271 8.25818C112.433 8.26358 112.601 8.26897 112.763 8.27437C114.062 8.32831 115.338 8.39303 116.583 8.47934C118.33 8.58182 120.153 8.73286 121.998 8.95401C124.666 9.25068 127.176 9.62287 129.502 10.076C129.713 10.1191 129.93 10.1569 130.141 10.2C137.996 11.7913 157.938 17.2716 173.362 33.7718C173.703 34.1386 174.044 34.5108 174.379 34.8829C186.065 47.9148 193.141 65.4345 193.791 82.9542C193.818 83.6878 193.834 84.4214 193.839 85.155C193.931 98.7371 190.198 112.724 183.333 124.537C183.089 124.957 182.841 125.378 182.586 125.793C171.49 144.036 154.151 153.982 145.911 157.909C144.012 158.988 142.07 159.981 140.074 160.897C139.538 161.14 139.002 161.383 138.461 161.615C128.82 165.757 118.13 167.899 107.472 167.899H107.467Z" fill="#FFEA4B"/>
</g>
<g opacity="0.55">
<path d="M126.495 182.473C116.053 182.473 98.1672 182.128 96.0843 182.031C96.0356 182.031 95.9923 182.031 95.9436 182.026C85.6968 181.535 70.7811 179.69 57.9375 173.708C57.6021 173.552 57.2666 173.395 56.9366 173.234C48.8052 169.291 33.619 160.034 23.3127 142.299C22.9827 141.733 22.6635 141.166 22.3497 140.594C12.0001 121.629 10.0309 97.3023 17.2209 77.1018C17.4211 76.5462 17.6267 75.9906 17.8377 75.4351C21.7816 65.1541 27.7111 56.1947 38.1905 44.7432C38.5097 44.3387 39.0291 43.6644 39.6026 42.8769C40.0029 42.2674 40.5548 41.4097 41.0038 40.7085C48.6375 26.258 60.8049 14.7526 75.8937 7.88064C87.9366 2.38416 101.31 0.172622 114.56 1.47797C115.366 1.55888 116.167 1.65058 116.967 1.75306C131.25 3.63557 144.029 9.34241 155.844 19.1379C156.25 19.3806 156.732 19.6665 157.294 19.9902C157.835 20.303 158.376 20.6267 158.907 20.9557C165.269 24.8771 171.458 29.7533 176.462 34.7751C194.754 48.3572 205.585 69.6257 205.904 92.2266C206.115 93.3107 206.305 94.3895 206.467 95.4684C209.756 116.953 203.778 138.647 190.063 154.986C189.485 155.676 188.889 156.361 188.284 157.03C174.601 172.155 155.103 181.147 133.382 182.36C133.209 182.371 133.035 182.376 132.862 182.387C131.585 182.452 129.302 182.473 126.484 182.473H126.495Z" fill="#FFEA4B"/>
</g>
<g opacity="0.55">
<path d="M123.811 192.825C119.153 192.825 113.396 192.668 108.473 192.053C108.251 192.026 108.035 191.999 107.813 191.967C106.239 191.757 104.107 191.557 101.629 191.33C96.5061 190.85 90.133 190.257 82.6778 189.022C82.4506 188.984 82.218 188.946 81.9907 188.903C79.6265 188.488 77.4246 188.062 75.4066 187.636C74.6762 187.544 73.8052 187.42 72.8368 187.263C72.5338 187.215 72.2309 187.161 71.9225 187.107C61.5892 185.289 50.6878 180.92 42.0207 175.116C41.3932 174.695 40.7764 174.269 40.1651 173.832C32.3583 168.25 25.7579 161.248 20.5913 153.195C12.1406 140.934 7.56909 126.268 7.6827 111.24C7.2553 101.984 8.13174 90.878 12.2705 79.6477C12.4003 79.3025 12.5302 78.9573 12.66 78.6121C19.5741 60.6825 31.3628 50.1803 39.6728 43.8262C46.1216 38.8853 53.4307 34.8452 63.223 30.8051C64.7216 29.106 66.3176 27.4608 68.0002 25.8804C96.268 -0.67965 140.431 -0.577162 168.58 26.1123C168.628 26.1609 173.671 30.9454 175.618 32.898C175.662 32.9411 175.705 32.9843 175.748 33.0274C181.039 38.3513 190.842 49.3335 197.059 63.0936C197.167 63.3309 197.27 63.5682 197.372 63.8056C199.612 68.9083 201.376 74.4156 202.609 80.0631C204.508 86.9944 205.314 93.424 205.596 98.667C206.083 101.429 206.445 104.368 206.629 107.475C206.64 107.67 206.651 107.869 206.662 108.063C206.835 111.542 206.878 116.073 206.878 116.268C206.878 116.467 206.878 116.672 206.878 116.872C206.878 141.894 194.657 165.078 174.185 178.892C173.579 179.302 172.967 179.701 172.345 180.089C166.865 183.552 152.025 191.708 132.613 192.647C132.337 192.663 128.664 192.835 123.8 192.835L123.811 192.825Z" fill="#FFEA4B"/>
</g>
<g opacity="0.55">
<path d="M123.021 205.614C110.875 205.614 98.7347 202.717 87.8766 197.226C87.0218 196.795 86.1778 196.347 85.3393 195.878C77.0023 191.244 65.2731 182.786 56.7359 168.816C56.5304 168.481 56.3248 168.142 56.1246 167.802C53.6792 163.648 51.7803 159.495 50.3087 155.503C48.9832 153.103 47.7876 150.649 46.738 148.157C46.6461 147.941 46.5595 147.725 46.4675 147.51C45.2502 144.537 44.2818 141.614 43.5136 138.809C43.1457 137.617 42.8157 136.414 42.5073 135.206C42.3883 134.737 42.2747 134.262 42.1665 133.787C41.2738 129.92 40.6895 125.966 40.4136 121.974C38.0115 108.274 39.0394 93.958 43.7625 81.2012C43.8112 81.0717 43.8598 80.9477 43.9031 80.8182C49.8705 64.9653 59.8522 54.393 67.1721 48.3086C90.349 29.0574 121.933 26.5169 147.215 39.3438C154.064 41.6254 163.207 45.6224 172.107 52.4566C174.828 54.3283 177.447 56.3996 179.941 58.6651C180.373 59.0588 180.801 59.4526 181.223 59.8571C187.693 66.0171 193.736 74.367 198.146 83.0136C205.044 94.1414 209.02 107.26 209.02 121.3C209.02 143.372 199.184 163.158 183.647 176.535C178.934 182.344 172.826 188.267 165.02 193.278C164.652 193.515 164.289 193.742 163.916 193.973C152.403 201.077 138.629 205.204 125.125 205.587C124.568 205.603 124.011 205.614 123.454 205.614C123.307 205.614 123.156 205.614 123.01 205.614H123.021Z" fill="#FFEA4B"/>
</g>
<g opacity="0.55">
<path d="M89.4509 203.672C71.2783 203.672 53.5818 197.242 39.6399 185.322C39.2179 184.96 38.7959 184.593 38.3793 184.221C29.3174 176.109 22.7062 165.768 18.2699 155.833C16.4629 153.254 14.8074 150.568 13.3305 147.779C13.0221 147.202 12.7245 146.62 12.4324 146.037C4.43083 129.941 3.65718 114.034 4.4146 103.522C4.43083 103.317 4.44706 103.112 4.46329 102.907C5.36678 91.6818 8.85631 75.6508 20.0336 60.8065C24.8378 53.3251 31.4706 45.7681 40.6191 39.4625C41.0952 39.1335 41.5767 38.8098 42.0582 38.497C55.4916 29.6994 71.8788 25.2817 88.2066 26.0638C88.7043 26.0854 89.2074 26.1177 89.7052 26.1501C95.1856 26.5223 106.076 27.9139 117.416 32.9897C117.719 33.1245 118.022 33.2648 118.325 33.405C126.9 37.3858 135.231 43.3731 142.01 50.326C158.165 58.39 171.057 72.2904 177.679 89.7184C178.907 92.944 179.897 96.2289 180.66 99.5408C180.969 100.366 181.266 101.202 181.547 102.044C185.93 115.097 186.4 128.512 183.598 141.031C178.913 165.936 161.676 186.087 138.997 195.198C129.08 200.133 117.968 202.863 106.412 202.863C104.945 202.863 103.474 202.82 101.997 202.728C101.245 202.82 100.547 202.901 99.8978 202.971L99.7031 202.992C96.2839 203.451 92.8593 203.677 89.4509 203.677V203.672ZM101.24 202.76C100.996 202.798 100.753 202.836 100.509 202.868C100.374 202.89 100.244 202.906 100.114 202.922C100.563 202.863 100.942 202.803 101.245 202.755L101.24 202.76Z" fill="#FFEA4B"/>
</g>
<g opacity="0.55">
<path d="M111.714 187.22C105.065 187.22 98.4049 186.319 91.9452 184.518C90.1598 184.696 88.407 184.809 86.6919 184.863C86.4431 184.868 86.1942 184.879 85.9508 184.885C76.2071 185.084 65.7818 183.558 56.59 180.564C56.1951 180.435 55.7947 180.3 55.3998 180.165C44.4173 176.378 33.8134 169.781 25.5467 161.593C25.3141 161.367 25.0869 161.135 24.8597 160.903C11.7618 147.574 4.00364 129.952 3.01359 111.273C2.97572 110.572 2.94867 109.87 2.93244 109.174C2.77014 102.394 3.53837 95.2579 5.12354 88.4939C6.76281 79.4751 9.78706 71.0875 14.126 63.5089C14.3207 63.1691 14.5155 62.8346 14.7157 62.4948C25.3303 44.6407 41.6689 35.0879 48.1989 31.8084C48.4803 31.6681 48.7616 31.5279 49.0429 31.393C53.0031 29.4674 57.1743 27.8869 61.5457 26.6517C64.3427 24.9364 67.2696 23.3074 70.1911 21.9535C70.3696 21.8726 70.5427 21.7917 70.7213 21.7108C82.8237 16.2089 97.4689 13.5227 110.918 14.3426C111.422 14.375 111.925 14.4073 112.428 14.4505C113.505 14.5368 114.576 14.6501 115.642 14.7795C123.805 15.5724 131.596 17.6977 138.775 20.9503C138.813 20.961 138.851 20.9718 138.889 20.9826C160.362 27.0239 178.026 42.3051 187.347 62.9155C187.574 63.4172 187.796 63.9188 188.007 64.4205C191.54 72.7218 193.45 81.0987 194.391 92.4261C195.295 103.252 194.889 111.44 193.05 119.795C193.012 119.973 192.974 120.146 192.93 120.318C190.361 131.581 185.762 139.354 183.549 143.092C181.851 145.967 180.844 147.558 179.622 149.322C172.215 159.991 162.883 167.381 157.965 170.844C157.911 170.882 157.857 170.92 157.797 170.963C157.765 170.984 157.732 171.006 157.7 171.033C144.358 181.805 128.047 187.231 111.708 187.231L111.714 187.22ZM164.646 164.636C164.646 164.636 164.625 164.657 164.614 164.668C164.625 164.657 164.636 164.646 164.646 164.636Z" fill="#FFEA4B"/>
</g>
<g opacity="0.55">
<path d="M119.65 198.887C110.291 198.887 101.121 197.102 92.5889 193.715C84.7658 194.799 76.7643 194.621 68.9142 193.137C64.5103 192.684 60.1119 191.827 55.7676 190.548C36.4697 184.879 19.7416 171.243 9.87352 153.13C9.71122 152.828 9.54891 152.526 9.38661 152.224C3.94944 141.9 2.05589 132.336 1.01715 125.162C0.6168 122.411 0.335474 119.752 0.16776 117.26C-0.346201 109.439 0.303013 102.362 1.66095 96.0562C2.26148 91.4498 3.31645 86.5197 5.1072 81.3037C5.2154 80.9908 5.32361 80.678 5.43722 80.3651C12.7896 59.8895 27.3103 47.1974 35.3065 41.4582C53.0625 28.7122 75.2819 24.7476 95.8836 29.9097C106.59 29.8234 116.875 32.0888 126.218 36.2638C132.683 34.8398 139.435 34.2788 146.317 34.6887C156.185 35.2713 165.539 37.8011 173.995 41.9005C175.932 42.7797 177.842 43.7507 179.724 44.8133C206.791 60.0891 221.209 90.7593 215.675 121.273L215.631 121.516C214.95 125.276 214.446 127.892 213.824 130.443C211.26 142.159 206.315 151.161 201.895 157.726C200.542 159.824 199.125 161.825 197.664 163.692C197.572 163.81 197.475 163.929 197.383 164.053C196.214 165.531 195.03 166.912 193.709 168.374C191.14 171.319 188.483 174.026 185.778 176.47C179.059 182.522 171.517 187.107 163.548 190.235C155.747 193.817 147.442 195.969 139.029 196.67C136.622 197.258 134.187 197.728 131.726 198.078C131.396 198.127 131.066 198.17 130.741 198.213C127.381 198.645 123.913 198.866 120.126 198.893C119.97 198.893 119.807 198.893 119.65 198.893V198.887Z" fill="#FFEA4B"/>
</g>
<g opacity="0.55">
<path d="M108.776 175.623C100.022 175.623 91.1498 174.048 82.5531 170.747C67.8484 169.657 53.8741 164.155 42.4425 155.083C27.8243 146.458 16.2358 132.789 10.4416 115.82C-0.346186 84.2488 11.74 49.5546 39.4777 31.3715C45.4126 24.7045 51.0446 19.9038 53.9119 17.6114L55.562 16.2952C64.0938 9.49342 73.7022 4.89234 83.6947 2.43807C86.2482 1.78 88.9262 1.22981 91.7341 0.809082C99.3461 -0.329052 106.942 -0.248142 114.283 0.933144C118.525 1.31072 122.756 2.06049 126.927 3.19323C146.858 8.59262 163.575 22.1423 172.945 40.4927C178.626 51.6151 181.239 63.6707 180.909 75.5914C182.581 81.1203 183.609 86.8487 183.955 92.685C184.004 93.5103 184.036 94.3302 184.058 95.1555C184.496 112.546 178.74 125.427 175.645 132.347C163.516 159.5 136.784 175.623 108.776 175.623Z" fill="#FFEA4B"/>
</g>
<g opacity="0.55">
<path d="M112.872 207C109.782 207 106.763 206.968 103.772 206.833C95.1155 207.329 86.3619 206.363 77.9492 203.871C77.5326 203.747 77.1214 203.623 76.7103 203.494C72.8042 202.264 69.9801 201.018 68.2975 200.274C68.1947 200.23 68.0865 200.182 67.9729 200.128C66.6258 199.589 65.2354 199.017 63.8234 198.397C58.6296 196.611 53.582 194.222 48.7724 191.212C43.0593 187.641 37.8602 183.525 32.8666 178.638C32.6773 178.455 32.4879 178.266 32.2986 178.077C21.1483 166.923 16.6742 160.579 13.071 153.966C-4.05743 122.562 4.28498 83.8281 31.8063 62.0525C32.423 61.0169 33.0668 59.9866 33.7431 58.9617C37.2434 52.5267 40.8033 47.7746 42.7239 45.3959C42.8375 45.2556 42.9511 45.1154 43.0647 44.9751C50.2494 36.1883 58.5377 29.9906 61.7675 27.7359C61.919 27.628 62.0759 27.5201 62.2274 27.4177C68.2434 23.2805 75.6661 19.3968 82.5965 16.7645C82.7155 16.7214 82.8345 16.6728 82.9536 16.6297C85.7019 15.5994 95.5375 12.158 106.569 11.0523C106.78 11.0307 106.985 11.0091 107.196 10.9929C113.743 10.3888 121.587 10.6585 125.261 10.9822C125.423 10.9983 125.58 11.0091 125.742 11.0253C136.103 12.0124 150.629 15.1517 164.343 24.1759C173.481 29.0952 190.512 40.552 200.056 61.3027C200.153 61.5131 200.25 61.7235 200.342 61.9338C204.963 72.231 206.515 81.9671 207.008 88.3213C207.04 88.769 207.073 89.2167 207.1 89.6644C207.121 90.0527 207.143 90.4573 207.159 90.8672C212.672 104.902 213.846 120.669 209.772 136.069C208.236 141.878 206.088 147.121 203.599 151.814C203.134 152.904 202.582 154.128 201.928 155.455C201.83 155.655 201.727 155.854 201.63 156.054C193.271 172.662 180.325 182.905 175.147 186.535C175.034 186.616 174.92 186.692 174.807 186.772C166.843 192.296 154.865 197.868 152.322 198.952C152.219 198.995 152.117 199.038 152.014 199.082C149.363 200.198 146.62 201.191 143.812 202.048C138.754 203.925 132.646 205.603 125.612 206.417C125.423 206.439 125.239 206.461 125.05 206.482C121.755 206.838 119.104 206.903 116.54 206.968H116.302C115.766 206.989 115.23 206.995 114.7 206.995C114.089 206.995 113.483 206.995 112.877 206.995L112.872 207ZM68.3516 200.279C68.3841 200.295 68.4165 200.306 68.449 200.317C68.4165 200.306 68.3841 200.29 68.3516 200.279ZM68.1406 200.193C68.1406 200.193 68.1785 200.209 68.2001 200.214C68.1569 200.198 68.119 200.182 68.0757 200.166C68.0974 200.177 68.119 200.182 68.1406 200.193ZM67.6862 200.009C67.7295 200.026 67.7728 200.047 67.8214 200.063C67.7782 200.047 67.7349 200.026 67.6916 200.009H67.6862Z" fill="#FFEA4B"/>
</g>
<g opacity="0.55">
<path d="M99.4603 201.067C90.9989 201.067 81.6285 199.734 73.6378 197.393C73.5675 197.372 73.4917 197.35 73.4214 197.329C71.6036 196.789 69.6343 196.12 67.665 195.387C62.4496 194.006 56.9746 192.086 51.6727 189.437C51.5483 189.378 51.4292 189.313 51.3048 189.254C43.6387 185.37 35.3936 179.469 29.2477 173.476C28.9989 173.234 28.75 172.985 28.5065 172.743C17.9027 162.095 10.6477 148.534 7.5315 133.534C7.45575 133.172 7.38542 132.816 7.31509 132.455C4.56675 118.15 6.63883 102.076 6.7308 101.396C6.74703 101.256 6.76867 101.116 6.79031 100.976C7.41788 96.4285 8.45663 91.9083 9.86326 87.5014C10.242 85.1928 10.6315 83.2293 10.9832 81.7352C11.0102 81.6165 11.0373 81.4979 11.0697 81.3792C13.6666 70.5804 18.9144 58.1365 24.779 48.8966C24.8763 48.7455 24.9737 48.5945 25.0711 48.4435C29.5777 41.4582 36.243 33.761 42.4755 28.3562C42.5945 28.2537 42.7135 28.1513 42.8325 28.0488C51.9486 20.2437 63.9158 13.8949 75.6612 10.637C75.9479 10.556 76.2346 10.4805 76.516 10.405C91.5669 6.42425 105.411 7.74578 110.665 8.50094C110.93 8.53869 111.2 8.57645 111.465 8.6196C123.048 10.4104 132.841 14.6771 138.332 17.4819C138.873 17.606 139.409 17.7355 139.939 17.8703L140.117 17.9135C144.792 19.1001 156.905 22.7141 168.407 30.5732C168.521 30.6541 168.64 30.735 168.753 30.8105C173.53 34.1116 185.546 43.3246 193.943 57.4622C194.154 57.8182 194.365 58.1796 194.57 58.541C202.204 71.9074 205.969 88.4507 204.904 103.926C204.882 104.223 204.86 104.514 204.839 104.811C204.281 111.699 202.648 122.152 198.044 132.865C197.946 133.097 197.843 133.329 197.741 133.561C194.354 141.22 188.581 150.395 182.619 157.823C179.26 162.909 175.197 167.656 170.447 171.923C170.208 172.139 169.776 172.522 169.337 172.91L168.775 173.412C164.674 177.074 160.919 180.111 157.614 182.441C157.554 182.484 157.5 182.522 157.441 182.565C150.397 187.501 143.331 190.856 138.64 192.808C138.532 192.852 138.419 192.9 138.31 192.943C133.804 194.793 117.757 200.84 100.477 201.067C100.364 201.067 100.25 201.067 100.131 201.067C99.9093 201.067 99.6929 201.067 99.4711 201.067H99.4603Z" fill="#FFEA4B"/>
</g>
<g opacity="0.55">
<path d="M133.923 194.513C129.265 194.513 123.508 194.356 118.585 193.742C118.363 193.715 118.147 193.688 117.925 193.655C116.351 193.445 114.219 193.245 111.741 193.019C106.618 192.539 100.245 191.945 92.7896 190.71C92.5624 190.672 92.3297 190.635 92.1025 190.591C89.7383 190.176 87.5364 189.75 85.5184 189.324C84.788 189.232 83.917 189.108 82.9486 188.952C82.6456 188.903 82.3427 188.849 82.0343 188.795C71.7009 186.977 60.7995 182.608 52.1325 176.804C51.5049 176.384 50.8882 175.958 50.2769 175.521C42.47 169.938 35.8751 162.942 30.7084 154.889C22.2524 142.623 17.6809 127.956 17.7999 112.923C17.3725 103.667 18.2489 92.561 22.3877 81.3307C22.5175 80.9855 22.6474 80.6402 22.7772 80.295C29.6913 62.3654 41.48 51.8633 49.7899 45.5091C56.2388 40.5682 63.5479 36.5281 73.3402 32.488C74.8388 30.7889 76.4348 29.1438 78.1173 27.5633C106.385 1.00327 150.548 1.10576 178.697 27.7953C178.746 27.8438 183.788 32.6283 185.736 34.5809C185.779 34.6241 185.822 34.6672 185.865 34.7104C191.156 40.0342 200.96 51.0164 207.176 64.7765C207.284 65.0138 207.387 65.2512 207.49 65.4885C209.729 70.5912 211.493 76.0985 212.727 81.746C214.626 88.6773 215.432 95.1069 215.713 100.35C216.2 103.112 216.562 106.051 216.746 109.158C216.757 109.352 216.768 109.547 216.779 109.741C216.952 113.22 216.995 117.751 216.995 117.945C216.995 118.145 216.995 118.35 216.995 118.549C216.995 143.572 204.774 166.755 184.302 180.569C183.696 180.979 183.085 181.379 182.462 181.767C176.982 185.23 162.142 193.386 142.73 194.324C142.455 194.34 138.781 194.513 133.917 194.513H133.923Z" fill="#FFEA4B"/>
</g>
<g opacity="0.55">
<path d="M128.533 169.835C103.988 169.835 79.799 158.481 64.3423 137.115L58.7212 129.348C33.1746 94.0389 41.1762 44.7648 76.5908 19.2943C112.011 -6.17613 161.432 1.7962 186.979 37.1107L192.6 44.878C218.147 80.1871 210.145 129.461 174.73 154.932C160.74 164.992 144.564 169.835 128.539 169.835H128.533Z" fill="#FFEA4B"/>
</g>
<g opacity="0.55">
<path d="M130.444 181.956C128.934 181.956 127.419 181.913 125.894 181.826C82.2937 179.361 48.9565 142.121 51.4289 98.6562L51.7156 93.6559C54.1881 50.1857 91.5341 16.9371 135.134 19.413C178.734 21.878 212.072 59.1182 209.599 102.583L209.312 107.583C206.927 149.532 172.058 181.956 130.444 181.956Z" fill="#FFEA4B"/>
</g>
<g opacity="0.55">
<path d="M116.193 166.265C115.436 166.265 114.559 166.265 113.461 166.248H113.315C105.319 166.184 97.274 164.824 89.4996 162.251C86.1075 161.259 82.6288 159.991 79.1338 158.378C78.7659 158.211 78.4035 158.039 78.041 157.866C49.1131 145.697 30.9405 116.413 33.375 84.8853C34.219 73.9517 37.4759 63.6599 42.6371 54.5656C43.7625 52.0197 44.996 49.5384 46.3052 47.2028C46.4242 46.9925 46.5433 46.7767 46.6677 46.5663C51.7262 37.7472 61.0424 25.3949 76.6993 16.6243C76.748 16.5973 76.7967 16.5703 76.8453 16.5434C80.0265 14.7741 82.7424 13.5659 85.0363 12.5734C100.444 5.91179 116.896 4.94626 132.012 8.75443C139.354 10.1407 146.69 12.6057 153.907 16.1334C154.134 16.2467 154.362 16.3546 154.589 16.4678C158.944 17.9674 164.587 20.3623 170.538 24.2028C171.014 24.5103 171.485 24.8231 171.95 25.136C188.51 36.3663 199.877 54.1233 203.145 73.8546C206.439 93.7584 201.316 114.434 189.095 130.578C188.629 131.193 188.153 131.802 187.666 132.401C181.174 140.433 173.27 146.593 171.755 147.742C171.614 147.849 171.479 147.952 171.339 148.054C163.645 153.81 155.86 157.413 151.905 159.053C151.857 159.074 151.813 159.09 151.765 159.112C141.572 163.303 130.103 165.828 119.472 166.211C119.309 166.216 119.147 166.221 118.985 166.227C118.087 166.254 117.254 166.265 116.193 166.265ZM189.587 66.4702C189.587 66.4702 189.592 66.5026 189.598 66.5187C189.598 66.5026 189.592 66.4864 189.587 66.4702Z" fill="#FFEA4B"/>
</g>
<g opacity="0.55">
<path d="M116.356 166.421C112.536 166.421 108.733 166.141 104.978 165.574C104.459 165.493 103.934 165.412 103.415 165.321C94.0604 163.697 76.1151 158.745 61.0425 143.853C60.68 143.491 60.3175 143.13 59.9605 142.763C54.8749 137.52 45.6615 126.327 41.1008 110.264C41.0304 110.011 40.9601 109.762 40.8898 109.509C36.724 94.2169 37.6221 76.174 43.2919 61.2381C43.4433 60.8443 43.5948 60.4505 43.7517 60.0568C50.1844 43.9665 63.2228 29.2732 78.6362 20.7561C78.977 20.5673 79.3179 20.3839 79.6587 20.2005C95.11 11.9747 110.404 10.6586 120.521 11.0092C120.678 11.0092 120.835 11.02 120.997 11.0253C122.188 11.0739 123.313 11.1386 124.368 11.2087C125.683 11.2897 127.046 11.4029 128.436 11.5594C132.364 11.9693 134.912 12.4655 136.005 12.6759C136.2 12.7137 136.389 12.7514 136.584 12.7892C145.987 14.6879 163.943 20.2059 178.523 35.8054C178.875 36.1775 179.221 36.5551 179.562 36.9381C191.259 49.9862 198.054 66.8262 198.698 84.3513C198.725 85.0849 198.741 85.8185 198.746 86.5521C198.833 99.8914 195.17 113.619 188.435 125.2C188.186 125.632 187.931 126.058 187.672 126.484C177.333 143.459 162.076 152.785 153.355 157.019C151.732 157.92 150.077 158.751 148.389 159.527C147.864 159.77 147.334 160.002 146.804 160.234C137.325 164.312 126.813 166.421 116.356 166.421Z" fill="#FFEA4B"/>
</g>
<g opacity="0.55">
<path d="M129.258 176.551C121.084 176.551 108.797 176.281 107.466 176.216C107.429 176.216 107.391 176.216 107.353 176.216C94.0763 175.58 82.3688 172.942 72.5549 168.368C72.2194 168.212 71.884 168.055 71.554 167.894C63.6119 164.042 48.772 154.98 38.6334 137.536C38.3088 136.975 37.9896 136.414 37.6812 135.848C27.3858 116.99 25.5193 93.7206 32.6985 73.601C32.8933 73.0563 33.0934 72.5169 33.299 71.9775C36.9454 62.4678 42.2852 54.1503 50.9901 44.495C58.6076 30.5516 70.5153 19.4453 85.2037 12.7568C97.1493 7.31423 110.399 5.11887 123.524 6.40264C124.314 6.47816 125.098 6.56986 125.882 6.67234C139.343 8.43618 151.716 13.7439 162.779 22.4768C163.158 22.6979 163.531 22.9245 163.905 23.1564C167.833 25.5783 173.464 29.4836 179.031 34.8506C196.041 48.0982 206.266 68.1369 207.094 89.5187C210.648 111.111 205.016 132.687 190.966 149.446C190.377 150.147 189.776 150.838 189.159 151.523C175.683 166.421 156.688 175.272 135.669 176.448C135.496 176.459 135.318 176.47 135.145 176.475C133.841 176.54 131.742 176.562 129.264 176.562L129.258 176.551ZM169.553 28.4101C169.553 28.4101 169.575 28.4317 169.591 28.4425C169.58 28.4317 169.569 28.4209 169.553 28.4101Z" fill="#FFEA4B"/>
</g>
<g opacity="0.55">
<path d="M127.824 183.741C123.859 183.741 118.876 183.595 114.342 183.029C114.126 183.002 113.91 182.975 113.693 182.943C113.038 182.856 111.572 182.722 110.279 182.598C106.573 182.252 101.499 181.778 95.5313 180.791C95.3041 180.753 95.0823 180.715 94.8551 180.677C93.2807 180.402 91.7821 180.116 90.3593 179.825C89.8994 179.76 89.4071 179.685 88.8823 179.604C88.5577 179.55 88.2385 179.496 87.9139 179.442C77.6347 177.646 67.2202 173.476 58.5748 167.71C57.9202 167.273 57.271 166.826 56.6326 166.367C48.8907 160.827 42.3661 153.923 37.2752 145.999C29.1492 133.971 24.7237 119.682 24.7561 105.032C24.4369 96.3314 25.3675 85.9048 29.3115 75.1869C29.4413 74.8309 29.5766 74.4803 29.7118 74.1297C37.3076 54.4362 51.071 43.8478 55.7399 40.2878C60.7226 36.4742 66.0786 33.2971 72.6303 30.3035C72.982 29.9636 73.3336 29.6238 73.6907 29.2894C101.975 2.73475 146.148 2.85342 174.286 29.5591C174.671 29.9205 178.057 33.1407 179.594 34.6834C179.632 34.7211 179.67 34.7589 179.707 34.7967C184.447 39.5596 193.254 49.4629 199.011 62.2143C199.114 62.4463 199.222 62.6836 199.325 62.9156C201.364 67.5598 202.987 72.5546 204.156 77.6735C205.725 83.5206 206.482 88.9578 206.801 93.5373C207.185 95.9646 207.451 98.4027 207.597 100.862C207.607 101.062 207.618 101.267 207.629 101.466C207.77 104.304 207.802 107.723 207.808 108.106C207.808 108.306 207.808 108.5 207.808 108.7C207.808 133.464 195.662 156.458 175.314 170.202C174.692 170.623 174.065 171.033 173.426 171.437C168.124 174.787 153.76 182.673 134.971 183.585C134.062 183.628 131.341 183.746 127.824 183.746V183.741Z" fill="#FFEA4B"/>
</g>
<g opacity="0.55">
<path d="M127.218 192.62C115.295 192.62 103.376 189.782 92.7181 184.394C91.912 183.989 91.1167 183.563 90.3268 183.132C82.1413 178.606 70.5961 170.288 62.086 156.367C61.8912 156.043 61.691 155.719 61.5017 155.39C59.4242 151.863 57.747 148.346 56.3999 144.926C55.3936 143.006 54.4631 141.042 53.6245 139.041C53.5326 138.82 53.4352 138.593 53.3486 138.367C52.153 135.443 51.2008 132.574 50.438 129.817C50.1512 128.846 49.8807 127.875 49.6373 126.899C49.5128 126.414 49.3992 125.928 49.2856 125.437C48.4957 122.018 47.9601 118.533 47.6626 115.016C47.5922 114.568 47.5219 114.121 47.457 113.673C45.5743 100.641 46.8348 88.0462 51.2062 76.2333C51.2603 76.0931 51.309 75.9529 51.3631 75.8126C57.2331 60.2509 66.9929 49.9052 74.1505 43.9611C96.846 25.1252 127.592 22.2988 152.592 34.2303C159.052 36.512 166.869 40.1691 174.573 46.0216C177.067 47.7746 179.475 49.7003 181.779 51.7878C182.229 52.1977 182.678 52.613 183.116 53.0338C189.164 58.7999 194.683 66.276 198.832 74.1621C205.476 85.1442 209.301 98.0197 209.301 111.785C209.301 133.162 200.077 152.391 185.377 165.736C180.984 170.882 175.433 176.049 168.492 180.51C168.135 180.742 167.773 180.969 167.41 181.19C155.952 188.267 142.783 192.21 129.328 192.598C128.777 192.614 128.219 192.625 127.667 192.625C127.521 192.625 127.37 192.625 127.218 192.625V192.62ZM167.827 156.021C167.827 156.021 167.827 156.021 167.821 156.027C167.821 156.027 167.827 156.027 167.827 156.021Z" fill="#FFEA4B"/>
</g>
<g opacity="0.55">
<path d="M103.907 191.271C85.9882 191.271 68.5297 184.928 54.7718 173.169C54.339 172.797 53.9116 172.425 53.4842 172.042C45.2878 164.7 39.2123 155.692 34.9815 146.808C33.6561 144.802 32.4226 142.731 31.2918 140.6C30.9835 140.017 30.6805 139.435 30.3884 138.847C22.6032 123.177 21.8295 107.896 22.5545 97.8363C22.5707 97.6367 22.5815 97.4372 22.5978 97.2322C23.458 86.5251 26.796 71.2331 37.4756 56.8473C42.15 49.7704 48.5447 42.6396 57.2713 36.6252C57.7528 36.2908 58.2397 35.9672 58.732 35.6435C71.9814 26.97 88.0927 22.617 104.112 23.383C104.599 23.4046 105.091 23.4369 105.578 23.4693C110.869 23.8307 121.397 25.1684 132.439 30.1039C132.775 30.2549 133.11 30.406 133.446 30.5624C140.787 33.9822 147.761 38.7343 153.782 44.3602C168.346 52.6077 179.913 65.7528 186.065 81.9348C187.103 84.6642 187.969 87.4367 188.672 90.2308C188.797 90.5868 188.921 90.9482 189.046 91.3096C193.33 104.066 193.882 117.174 191.291 129.451C186.703 154.155 169.759 174.199 147.398 183.466C137.709 188.132 126.91 190.699 115.695 190.699C114.949 190.699 114.197 190.689 113.445 190.667C110.263 191.072 107.071 191.271 103.901 191.271H103.907Z" fill="#FFEA4B"/>
</g>
<g opacity="0.55">
<path d="M119.363 179.841C114.11 179.841 108.851 179.28 103.69 178.158C103.36 178.174 103.03 178.185 102.7 178.196C102.462 178.201 102.218 178.212 101.98 178.218C92.7561 178.423 82.8772 176.961 74.1615 174.124C73.7558 173.994 73.3554 173.859 72.9551 173.719C62.0699 169.965 51.9854 163.697 43.7945 155.59C43.5511 155.347 43.3076 155.104 43.0696 154.862C30.1718 141.727 22.5327 124.375 21.5589 105.987C21.521 105.285 21.494 104.579 21.4778 103.878C21.3263 97.5828 22.008 90.9643 23.42 84.6534C24.9998 76.2064 27.9375 68.0183 32.1952 60.5907C32.3792 60.2671 32.5685 59.9489 32.7579 59.6306C42.7612 42.7744 57.3847 33.6639 65.2078 29.7371C65.4891 29.5968 65.7704 29.4566 66.0572 29.3164C69.0868 27.8438 72.2193 26.5762 75.4492 25.519C77.2832 24.4725 79.1821 23.4747 81.1027 22.5846C81.2867 22.4983 81.4706 22.4174 81.6546 22.3311C93.4486 16.9749 107.136 14.4667 120.191 15.2596C120.689 15.292 121.186 15.3243 121.684 15.3675C122.652 15.4484 123.615 15.5455 124.573 15.6588C132.044 16.4139 139.197 18.291 145.851 21.1175C166.437 27.3853 183.295 42.235 192.27 62.0687C192.497 62.5703 192.719 63.0774 192.935 63.5844C199.319 78.5959 201.229 99.4707 197.685 115.529C197.648 115.696 197.61 115.863 197.572 116.03C195.37 125.696 191.053 135.163 184.739 144.176C177.874 153.977 169.488 160.757 164.808 164.096C151.57 174.577 135.48 179.852 119.369 179.852L119.363 179.841ZM172.296 157.262C172.296 157.262 172.274 157.284 172.263 157.3C172.274 157.289 172.285 157.278 172.296 157.262Z" fill="#FFEA4B"/>
</g>
<g opacity="0.55">
<path d="M124.876 187.948C117.508 187.948 110.253 186.843 103.339 184.717C97.7013 185.046 92.0207 184.717 86.4049 183.736C82.2824 183.256 78.1707 182.425 74.1077 181.222C55.0912 175.612 38.6552 162.235 29.0035 144.527C28.8412 144.23 28.6789 143.928 28.522 143.626C23.1011 133.34 21.2779 123.873 20.3744 117.654C18.9624 107.907 19.1734 98.6184 20.9966 89.837C21.6079 85.7915 22.6034 81.417 24.1885 76.7943C24.2967 76.4761 24.4103 76.1578 24.524 75.8396C31.6707 55.9358 45.6018 43.7399 53.2679 38.2381C70.2287 26.0692 91.2578 21.9104 111.064 26.0692C118.238 26.2957 125.206 27.5687 131.801 29.7641C136.032 29.2678 140.349 29.1384 144.726 29.3919C154.475 29.9691 163.726 32.4449 172.096 36.458C173.957 37.3103 175.796 38.2488 177.603 39.2683C204.67 54.5387 219.094 85.2036 213.564 115.717L213.537 115.863C213.061 118.485 212.612 120.901 211.968 123.506C209.101 136.01 203.594 145.109 200.201 150.034C199.071 151.733 197.897 153.373 196.674 154.932C196.587 155.04 196.501 155.148 196.414 155.261C195.3 156.674 194.196 157.963 193.011 159.274C190.685 161.928 188.267 164.387 185.778 166.631C179.194 172.565 171.815 177.085 164.019 180.208C156.948 183.369 149.482 185.359 141.907 186.168C140.106 186.568 138.288 186.897 136.459 187.156C136.081 187.209 135.702 187.263 135.323 187.312C132.12 187.716 128.864 187.927 125.363 187.954C125.201 187.954 125.033 187.954 124.871 187.954L124.876 187.948Z" fill="#FFEA4B"/>
</g>
<g opacity="0.55">
<path d="M117.313 171.799C109.599 171.799 101.792 170.574 94.1635 168.023C81.1846 166.469 68.8874 161.469 58.5595 153.621C44.5581 144.958 33.4944 131.608 27.8733 115.146C17.4209 84.5293 28.4792 50.9732 54.4586 32.3963C57.867 28.7662 61.5459 25.341 65.3059 22.3419L66.3447 21.5112C74.8818 14.6878 84.5119 10.076 94.5152 7.6109C97.0255 6.96902 99.5791 6.45659 102.176 6.06822C109.523 4.96784 116.859 5.0056 123.962 6.07361C127.934 6.47277 131.888 7.20096 135.794 8.25818C155.731 13.6576 172.448 27.2127 181.813 45.5685C186.925 55.5905 189.555 66.3623 189.787 77.1071C190.88 81.4979 191.573 85.9965 191.849 90.5652C191.897 91.4066 191.935 92.2427 191.957 93.0842C192.384 110.178 186.644 123.026 184.193 128.512C172.064 155.671 145.332 171.799 117.324 171.799H117.313Z" fill="#FFEA4B"/>
</g>
<g opacity="0.55">
<path d="M120.159 193.58C118.017 193.58 115.874 193.558 113.705 193.477C105.579 193.796 97.3879 192.808 89.5 190.467C89.0347 190.333 88.5749 190.187 88.115 190.041C84.4415 188.871 81.6824 187.668 80.2974 187.053C79.54 186.746 78.7555 186.427 77.9548 186.082C73.064 184.334 68.3085 182.042 63.764 179.199C58.4134 175.85 53.5606 172.02 48.9295 167.484C48.7456 167.306 48.5616 167.122 48.3777 166.939C40.0461 158.605 35.2365 152.477 31.2113 145.093C14.8241 115.011 21.7815 78.2076 46.5869 56.0221C49.3461 51.2214 52.0944 47.4995 54.0312 45.0938C54.1449 44.9536 54.2585 44.8133 54.3667 44.6785C61.1131 36.4311 68.8171 30.6595 71.8197 28.5612C71.9766 28.448 72.1389 28.3401 72.2958 28.2268C77.9602 24.3323 84.6633 20.8208 91.1717 18.3504C91.2853 18.3072 91.4044 18.2641 91.518 18.2209C94.7803 17.0019 103.464 14.0514 113.526 13.0373C113.743 13.0157 113.954 12.9942 114.17 12.9726C120.679 12.3738 127.685 12.6867 130.795 12.9618C130.931 12.9726 131.066 12.9834 131.201 12.9995C140.831 13.9165 154.286 16.8239 167.319 25.1306C176.895 30.406 192.054 41.3234 201.013 60.785C201.122 61.0169 201.224 61.2488 201.327 61.4808C205.558 70.9257 207.148 79.8365 207.722 85.9911C212.12 99.1093 212.807 113.538 209.08 127.654C207.635 133.124 205.655 138.07 203.367 142.52C202.988 143.372 202.561 144.306 202.068 145.309C201.971 145.508 201.874 145.703 201.776 145.902C193.98 161.394 182.43 170.984 176.24 175.321C176.148 175.386 176.051 175.456 175.959 175.521C167.601 181.319 156.488 186.131 156.375 186.179C156.272 186.222 156.164 186.271 156.061 186.314C153.751 187.29 151.354 188.164 148.909 188.936C144.077 190.683 138.251 192.253 131.569 193.024C131.38 193.046 131.185 193.067 130.99 193.089C127.771 193.434 125.212 193.499 123.156 193.547H123.059C122.545 193.564 122.031 193.569 121.512 193.569C121.057 193.569 120.603 193.569 120.148 193.569L120.159 193.58ZM80.7518 187.242C80.7518 187.242 80.7789 187.253 80.7951 187.258C80.6869 187.215 80.5787 187.172 80.4705 187.123C80.5679 187.161 80.6653 187.204 80.7518 187.236V187.242Z" fill="#FFEA4B"/>
</g>
<g opacity="0.55">
<path d="M110.88 189.459C102.943 189.459 94.1519 188.207 86.6319 186.007C86.5507 185.985 86.475 185.958 86.3938 185.936C84.9439 185.505 83.4507 185.009 81.9683 184.48C77.321 183.186 72.4519 181.422 67.6477 179.021C67.5233 178.957 67.3935 178.892 67.269 178.833C59.9329 175.116 52.3533 169.69 46.4725 163.956C46.2237 163.713 45.9748 163.465 45.7259 163.217C35.2952 152.747 28.1701 139.467 25.1242 124.806C25.0484 124.439 24.9727 124.067 24.9024 123.695C22.4245 110.782 23.961 97.572 24.291 95.053C24.3127 94.9074 24.3289 94.7617 24.3505 94.6161C24.8861 90.7594 25.7193 86.9189 26.8392 83.1539C27.1097 81.6435 27.3856 80.3166 27.6453 79.2108C27.6724 79.0976 27.6994 78.9843 27.7265 78.871C30.0961 69.0054 34.7163 58.061 40.0886 49.5924C40.186 49.4414 40.2833 49.2903 40.3807 49.1393C44.698 42.4454 50.6059 35.6273 56.5895 30.4329C56.7139 30.325 56.8383 30.2172 56.9628 30.1093C65.8191 22.5253 76.9586 16.6135 88.3252 13.458C88.6066 13.3825 88.8879 13.3016 89.1692 13.2315C103.089 9.54738 115.603 10.4967 121.825 11.3867C122.084 11.4245 122.344 11.4622 122.604 11.5C131.98 12.951 139.981 15.9932 145.591 18.6417C151.31 20.1789 161.432 23.5987 171.381 30.4006C171.479 30.4653 171.576 30.5354 171.679 30.6055C176.207 33.7341 187.612 42.4777 195.695 56.0922C195.911 56.459 196.127 56.8258 196.333 57.1925C203.853 70.3755 207.424 86.0181 206.374 101.235C206.352 101.531 206.331 101.828 206.309 102.125C205.784 108.57 204.243 118.404 199.844 128.62C199.747 128.841 199.649 129.062 199.552 129.283C196.533 136.107 191.815 143.739 186.708 150.244C183.462 155.013 179.589 159.468 175.104 163.497C174.909 163.675 174.536 164.004 174.178 164.323L173.859 164.609C168.628 169.274 165.252 171.653 164.143 172.435C164.078 172.478 164.018 172.522 163.953 172.57C157.412 177.15 150.942 180.23 146.663 182.01C146.554 182.053 146.441 182.101 146.333 182.144C141.133 184.275 127.359 189.259 111.827 189.459C111.735 189.459 111.648 189.459 111.562 189.459C111.334 189.459 111.107 189.459 110.88 189.459Z" fill="#FFEA4B"/>
</g>
<g opacity="0.55">
<path d="M134.847 184.917C130.881 184.917 125.898 184.771 121.365 184.205C121.148 184.178 120.932 184.151 120.716 184.119C120.061 184.032 118.595 183.892 117.302 183.773C113.596 183.428 108.527 182.954 102.565 181.966C102.337 181.929 102.11 181.891 101.883 181.853C100.309 181.578 98.8045 181.292 97.3871 181.001C96.9272 180.936 96.4349 180.861 95.9101 180.78C95.526 180.715 95.1419 180.65 94.7578 180.586C88.8012 179.528 77.0775 176.589 65.4403 168.773C64.8614 168.384 64.2825 167.985 63.7145 167.575C55.9509 162.03 49.4047 155.11 44.303 147.17C36.1769 135.141 31.7569 120.852 31.7893 106.202C31.4701 97.5072 32.4007 87.0806 36.3447 76.3628C36.4745 76.0068 36.6098 75.6562 36.745 75.3055C44.3354 55.6336 58.0825 45.0398 62.7461 41.4798C67.7342 37.6555 73.101 34.473 79.6635 31.4739C80.0098 31.1395 80.356 30.8051 80.7077 30.4707C108.976 3.91062 153.138 4.0131 181.287 30.6972C181.325 30.7296 184.993 34.2141 186.605 35.8269C186.649 35.87 186.692 35.9132 186.735 35.9617C191.475 40.7246 200.282 50.628 206.044 63.3848C206.152 63.6222 206.26 63.8649 206.363 64.1022C208.397 68.7411 210.02 73.7305 211.184 78.844C212.753 84.6965 213.51 90.1336 213.829 94.7131C214.213 97.1404 214.478 99.5785 214.619 102.038C214.63 102.238 214.641 102.443 214.651 102.642C214.792 105.48 214.825 108.899 214.83 109.282C214.83 109.482 214.83 109.676 214.83 109.876C214.83 134.656 202.673 157.656 182.304 171.4C181.709 171.799 181.109 172.192 180.503 172.581C175.195 175.941 160.821 183.849 141.994 184.76C141.085 184.804 138.363 184.922 134.847 184.922V184.917Z" fill="#FFEA4B"/>
</g>
<g opacity="0.55">
<path d="M83.37 170.137C56.195 170.137 29.7449 156.162 15.0402 131.085C-7.00608 93.4995 5.68607 45.2179 43.3838 23.2373L51.6775 18.4043C89.3753 -3.57084 137.801 9.07809 159.848 46.6635C181.894 84.2488 169.202 132.53 131.504 154.511L123.21 159.344C110.664 166.658 96.9278 170.137 83.37 170.137Z" fill="#FFEA4B"/>
</g>
<g opacity="0.55">
<path d="M103.972 164.571C99.9795 164.571 95.9327 164.269 91.8643 163.643L86.8978 162.882C43.7358 156.269 14.1208 116.025 20.7537 72.9915C27.3919 29.9582 67.7568 0.431487 110.919 7.04453L115.885 7.80508C159.047 14.4181 188.662 54.6627 182.029 97.696C176.024 136.673 142.341 164.565 103.978 164.565L103.972 164.571Z" fill="#FFEA4B"/>
</g>
<g opacity="0.55">
<path d="M89.0072 181.335C84.8469 181.335 80.6432 180.979 76.4287 180.251C65.5814 178.369 55.6051 174.156 47.0085 168.152C44.5847 166.798 42.2313 165.342 40.0294 163.826C39.8184 163.681 39.602 163.53 39.391 163.384C31.0757 157.521 19.6387 147.1 12.3837 130.723C12.3512 130.653 12.3242 130.589 12.2917 130.518C10.8418 127.217 9.90044 124.429 9.1322 122.066C3.9493 106.138 4.56065 89.7183 9.80846 75.0844C11.8914 67.9265 15.0617 60.8712 19.2762 54.0424C19.406 53.832 19.5359 53.6217 19.6711 53.4113C21.6079 49.1824 24.5889 43.7345 29.0847 38.1193C29.3877 37.7417 29.6907 37.3696 30.0044 36.9974C42.8048 21.6407 61.6212 12.0609 81.6386 10.7124C101.835 9.35315 121.977 16.4193 136.919 30.0931C137.487 30.6109 138.045 31.1395 138.591 31.6735C145.997 38.8961 151.391 47.3377 152.398 48.9559C152.484 49.0907 152.565 49.231 152.652 49.3658C157.662 57.5485 160.518 65.6233 161.779 69.7066C161.795 69.7551 161.806 69.8037 161.822 69.8522C165.036 80.3705 166.459 91.9945 165.826 102.583C165.815 102.745 165.804 102.907 165.793 103.068C165.69 104.595 165.56 105.922 165.295 108.5L165.274 108.684C164.446 116.618 162.32 124.477 159.009 131.948C157.694 135.217 156.098 138.539 154.156 141.851C153.95 142.207 153.739 142.558 153.523 142.908C140.62 166.728 115.712 181.341 89.0072 181.341V181.335Z" fill="#FFEA4B"/>
</g>
<g opacity="0.55">
<path d="M89.2125 176.168C77.0127 176.168 64.3963 173.379 53.7383 168.147C53.365 167.964 52.9917 167.775 52.6238 167.586C37.1617 159.668 23.7338 145.32 16.6952 129.197C16.5383 128.841 16.3868 128.485 16.2354 128.124C9.50517 112.006 9.65125 96.7036 10.9605 86.7031C10.9821 86.5359 11.0038 86.3687 11.0308 86.2015C11.1985 84.9878 11.3717 83.8443 11.5502 82.7763C11.7504 81.541 11.983 80.2627 12.2535 78.9627C13.0434 75.079 13.7792 72.5816 14.0984 71.519C14.1579 71.3086 14.2228 71.1037 14.2877 70.8933C17.0848 61.7613 24.2964 44.5059 41.2193 31.5333C41.6359 31.2151 42.0633 30.8968 42.4853 30.584C56.6219 20.2275 74.0696 15.0924 91.6146 16.1119C92.3612 16.155 93.1132 16.209 93.8598 16.2791C107.196 17.4712 120.559 22.4174 131.493 30.2172C131.882 30.4977 132.272 30.7781 132.656 31.064C148.637 42.947 156.493 58.9941 159.89 68.0614C160.637 69.7659 161.313 71.4974 161.925 73.2505C162.114 73.7899 162.292 74.3293 162.471 74.8687C166.794 88.2404 167.264 103.16 163.802 116.883C163.672 117.395 163.537 117.913 163.396 118.42C160.88 127.541 154.231 144.861 137.936 158.395C137.541 158.724 137.141 159.047 136.735 159.371C131.006 163.929 118.93 172.02 102.429 175.003C102.213 175.041 101.997 175.078 101.775 175.116C97.7064 175.812 93.4865 176.157 89.2125 176.157V176.168Z" fill="#FFEA4B"/>
</g>
<g opacity="0.55">
<path d="M97.4907 186.902C86.3188 186.902 75.1577 184.55 65.0841 179.857C64.5485 179.609 64.0129 179.35 63.4881 179.091C54.345 174.56 46.5544 168.471 37.7521 158.913C24.5514 150.018 14.6022 137.132 9.32736 121.915C5.04255 109.552 4.11201 96.2019 6.64394 83.3157C6.80084 82.5066 6.97396 81.7028 7.15791 80.9045C10.2092 67.754 16.6797 56.0059 26.4396 45.8759C26.6993 45.5199 26.9644 45.1693 27.2295 44.8187C30.0211 41.1508 34.4628 35.9294 40.3598 30.913C55.216 15.2974 76.1911 7.06073 97.6206 8.29595C119.515 6.82878 140.523 14.4883 155.909 30.0338C156.564 30.6972 157.208 31.3715 157.835 32.0565C171.404 46.8522 178.415 66.5403 177.577 87.4852C177.571 87.6524 177.561 87.8196 177.555 87.9922C177.295 93.5481 174.915 113.722 174.666 115.442C174.661 115.485 174.655 115.529 174.644 115.577C172.74 128.685 168.985 140.044 163.489 149.344C163.305 149.656 163.115 149.964 162.932 150.271C158.333 157.791 147.875 171.653 129.492 180.057C128.88 180.337 128.269 180.607 127.652 180.866C118.147 184.901 107.813 186.907 97.4907 186.907V186.902ZM32.9912 39.7322C32.9912 39.7322 32.9642 39.7537 32.9534 39.7645C32.9642 39.7537 32.9804 39.743 32.9912 39.7322ZM33.0507 39.6836C33.0507 39.6836 33.0129 39.716 32.9966 39.7268C33.0129 39.7106 33.0345 39.6944 33.0507 39.6836Z" fill="#FFEA4B"/>
</g>
<g opacity="0.55">
<path d="M102.803 191.066C100.433 191.066 98.0584 190.953 95.6834 190.721C86.9677 190.208 76.6451 188.283 66.3226 183.347C65.9872 183.186 65.6518 183.024 65.3218 182.856C46.3917 173.444 37.1296 158.778 34.0188 153.799C30.6807 148.481 28.0135 142.855 25.6547 136.064C25.3518 135.691 25.0542 135.314 24.7567 134.936C0.941295 104.336 5.25857 60.5206 34.5977 35.1311C34.6355 35.0987 38.4551 31.7976 40.235 30.3358C40.2837 30.2981 40.327 30.2603 40.3757 30.2225C45.5856 25.9775 56.3085 18.1831 69.5957 13.6846C69.8446 13.5983 70.0935 13.5173 70.3423 13.4364C75.1682 11.8614 80.3078 10.7233 85.5231 10.0598C91.5122 9.0619 97.0143 8.83535 101.618 8.95402C104.064 8.80299 106.509 8.77602 108.96 8.86772C109.176 8.87311 109.393 8.8839 109.609 8.89469C112.439 9.02414 115.863 9.32081 116.242 9.35318C116.453 9.36936 116.658 9.39093 116.869 9.41251C141.594 11.7859 163.38 26.0476 175.158 47.5535C175.51 48.1953 175.851 48.8426 176.186 49.5007C179.026 55.0889 185.545 70.1112 184.653 88.8661C184.561 90.7863 184.009 100.889 182.132 109.272C182.083 109.482 182.034 109.698 181.986 109.908C181.834 110.55 181.558 111.99 181.315 113.263C180.617 116.909 179.659 121.899 178.101 127.724C178.042 127.946 177.982 128.167 177.923 128.388C177.495 129.92 177.068 131.382 176.64 132.768C176.532 133.221 176.413 133.701 176.278 134.219C176.186 134.564 176.094 134.915 175.997 135.26C174.379 141.075 170.327 152.445 161.411 163.271C160.946 163.837 160.47 164.393 159.988 164.943C153.718 172.106 146.187 177.926 137.785 182.225C127.073 188.013 115.03 191.077 102.808 191.077L102.803 191.066Z" fill="#FFEA4B"/>
</g>
<g opacity="0.55">
<path d="M102.489 169.118C90.7869 169.118 79.7016 166.642 69.4873 161.734C69.3466 161.669 69.2114 161.599 69.0707 161.534C54.1063 154.23 44.7089 143.567 39.4611 135.907C22.7979 111.58 22.9115 80.7751 37.2159 57.09C40.1103 50.8977 44.5142 43.4864 51.0983 36.3986C53.0784 34.1008 55.21 31.9108 57.5039 29.8342C57.9637 29.4188 58.429 29.0089 58.8997 28.6043C65.2403 23.1456 73.2365 18.3827 81.5194 15.0115C93.1241 9.46642 106.341 6.90428 120.077 8.22041C141.42 10.2647 159.734 21.2577 171.647 37.1214C176.364 41.976 181.001 47.9796 184.788 55.2992C184.988 55.6822 185.183 56.0706 185.372 56.4535C191.329 68.4821 194.001 81.9078 193.109 95.2795C193.071 95.8405 193.027 96.4069 192.973 96.9678C191.891 108.943 187.904 120.653 181.439 130.831C180.914 131.662 180.368 132.482 179.811 133.286C174.514 140.924 165.133 151.512 150.504 158.578C150.141 158.751 149.779 158.923 149.416 159.09C145.721 160.8 142.064 162.117 138.547 163.125C136.54 163.94 134.501 164.668 132.429 165.31C132.18 165.385 131.936 165.461 131.687 165.536C128.658 166.443 125.709 167.111 122.885 167.602C121.895 167.796 120.9 167.964 119.899 168.12C119.401 168.196 118.903 168.266 118.4 168.33C114.911 168.783 111.378 168.983 107.84 168.945C107.391 168.972 106.936 168.999 106.482 169.021C105.14 169.086 103.809 169.118 102.484 169.118H102.489ZM160.247 53.5839C160.247 53.5839 160.275 53.6217 160.285 53.6433C160.275 53.6217 160.258 53.6055 160.247 53.5839Z" fill="#FFEA4B"/>
</g>
<g opacity="0.55">
<path d="M102.209 193.386C96.912 193.386 92.1782 192.878 88.2666 192.215C88.0773 192.183 87.8825 192.15 87.6932 192.118C77.0893 190.241 62.1412 185.467 48.7998 173.498C42.1778 168.179 35.6694 161.151 30.4974 151.916C30.2106 151.404 29.9293 150.892 29.6588 150.374C22.2686 136.398 19.4607 119.984 21.76 104.163C21.8303 103.667 21.9115 103.171 21.9926 102.675C22.8583 97.4587 25.2117 87.14 31.2007 76.6594C31.3684 76.3682 31.5361 76.0769 31.7038 75.791C35.8209 68.8112 41.2419 62.3276 47.4527 56.8743C57.0989 43.1843 71.36 32.9519 88.1422 28.4048C90.9392 27.6496 93.7579 27.0563 96.5874 26.6301C96.9715 26.5384 97.3502 26.4467 97.7343 26.355C111.081 23.2805 124.417 24.0626 136.568 27.9625C160.492 35.007 178.648 53.5947 185.714 76.4653C189.701 87.2101 191.189 98.9798 189.669 110.89C190.318 132.164 181.943 152.72 166.562 167.473C166.172 167.845 165.783 168.217 165.383 168.579C157.262 176.028 147.67 181.211 138.375 184.572C136.249 185.694 134.063 186.724 131.829 187.641C131.223 187.889 130.617 188.132 130.006 188.364C120.024 192.161 110.437 193.386 102.209 193.386Z" fill="#FFEA4B"/>
</g>
<g opacity="0.55">
<path d="M99.6108 194.065C98.5288 194.065 97.4468 194.044 96.3593 193.995C95.629 193.963 94.904 193.925 94.179 193.871C87.8925 193.418 81.3679 192.113 75.2112 190.106C66.9283 187.733 59.0349 184.032 52.0234 179.097C51.7096 178.876 51.3958 178.655 51.0874 178.428C35.2412 166.896 27.5534 151.533 24.3776 143.405C24.2586 143.097 24.1396 142.795 24.026 142.488C22.852 139.348 21.889 136.123 21.1424 132.822C20.2714 130.901 19.4598 128.922 18.7565 126.931C18.6916 126.743 18.6213 126.554 18.5563 126.365C14.331 114.148 13.1354 100.323 15.175 87.4367C15.2508 86.9566 15.3319 86.4819 15.4185 86.0072C15.5916 85.0363 15.781 84.0762 15.992 83.1215C17.4635 75.7802 20.0171 68.8651 23.4742 62.5326C31.6975 42.715 48.1227 27.4015 68.7677 20.3893C69.2979 20.2113 69.8281 20.0333 70.3583 19.8661C85.9611 14.9629 106.99 15.06 122.69 20.1142C122.847 20.1627 122.999 20.2167 123.156 20.2652C132.488 23.3398 141.447 28.4587 149.795 35.4871C159.063 43.2814 165.111 52.3703 168.027 57.3813C180.227 76.1308 182.808 98.9852 176.24 119.38C176.224 119.709 176.207 120.033 176.186 120.356C176.169 120.604 176.153 120.852 176.132 121.101C175.444 130.265 173.053 139.926 169.385 148.303C169.217 148.685 169.05 149.063 168.877 149.446C164.083 159.916 156.839 169.344 147.934 176.707C147.696 176.901 147.458 177.096 147.22 177.29C133.722 188.17 116.923 194.065 99.6054 194.065H99.6108ZM161.93 49.2849C161.93 49.2849 161.952 49.3065 161.962 49.3227C161.952 49.3119 161.941 49.2957 161.93 49.2849Z" fill="#FFEA4B"/>
</g>
<g opacity="0.55">
<path d="M103.474 196.39C95.2397 196.39 87.4545 195.257 80.1454 193.008C76.1582 192.01 71.8842 190.608 67.4208 188.585C67.1233 188.45 66.8257 188.315 66.5336 188.175C47.3493 179.183 36.502 164.199 31.7411 156.064C21.2076 138.065 19.0652 116.791 25.1083 97.5234C26.0172 90.4303 27.9594 83.6339 30.7781 77.3013C30.6861 73.0509 30.9674 68.7465 31.6437 64.4259C33.1531 54.8192 36.502 45.8813 41.3008 37.9629C42.3287 36.1937 43.4432 34.4622 44.6334 32.7631C62.4597 7.36279 94.4444 -4.02933 124.373 4.35834L124.498 4.3907C127.084 5.1135 129.475 5.79853 132.028 6.68854C144.234 10.7286 152.793 17.0612 157.38 20.8963C158.976 22.1801 160.497 23.507 161.941 24.8663C162.049 24.9688 162.152 25.0713 162.26 25.1684C163.564 26.4144 164.743 27.628 165.939 28.928C168.357 31.4847 170.576 34.1116 172.572 36.787C177.868 43.8909 181.677 51.6529 184.052 59.69C186.53 67.0096 187.801 74.6097 187.888 82.2045C188.115 84.0492 188.272 85.894 188.359 87.7495C188.375 88.1001 188.391 88.4561 188.402 88.8067C188.505 92.027 188.402 95.2849 188.094 98.7695C187.423 106.262 185.605 113.533 182.759 120.351C182.548 125.977 181.683 131.587 180.162 137.061C179.297 141.064 178.09 145.023 176.532 148.901C169.126 167.295 154.183 182.376 135.529 190.279C135.21 190.413 134.885 190.548 134.56 190.678C123.778 195.063 114.17 195.969 107.872 196.271C106.395 196.341 104.929 196.379 103.474 196.379V196.39Z" fill="#FFEA4B"/>
</g>
<g opacity="0.55">
<path d="M89.2238 190.57C63.477 190.57 39.2126 176.955 26.0119 154.311C22.7388 150.617 19.6983 146.668 17.0744 142.687L17.0636 142.677L17.0311 142.628L16.2683 141.468C10.1765 132.201 6.47057 122.034 5.01525 111.704C4.65277 109.304 4.40931 106.871 4.27947 104.422C3.88453 97.0326 4.62572 89.7669 6.36778 82.8248C7.14683 78.9249 8.24509 75.0682 9.67336 71.2978C16.9662 52.0305 32.0875 36.7385 51.3042 29.1869C61.8053 25.0659 72.8203 23.48 83.5756 24.2783C88.0985 23.6041 92.6917 23.3506 97.3173 23.5232C98.1126 23.5502 98.9025 23.5933 99.6978 23.6526C116.826 24.8555 129.118 31.7868 134.371 34.7481C167.47 53.4113 180.39 93.9256 165.209 127.859C162.417 140.594 156.25 152.321 147.426 161.825C137.444 174.884 123.064 184.588 106.093 188.596C100.461 189.923 94.8016 190.564 89.213 190.564L89.2238 190.57Z" fill="#FFEA4B"/>
</g>
<g opacity="0.55">
<path d="M107.726 193.973C84.8522 193.973 62.7952 183.229 48.8479 164.371C44.325 161.173 40.8734 158.098 38.6552 155.946C38.52 155.816 38.3847 155.681 38.2549 155.552C30.6699 148.065 25.6493 139.872 23.8423 136.695C23.7449 136.527 23.6529 136.36 23.5556 136.188C20.2067 130.195 17.3501 123.21 15.5053 116.521C15.4728 116.392 15.435 116.268 15.4025 116.138C14.499 112.788 12.3891 103.905 12.335 93.8393C12.335 93.6128 12.335 93.3862 12.335 93.1597C12.362 86.6707 13.3358 79.7718 13.9093 76.7188C13.9364 76.5623 13.9688 76.4113 13.9959 76.2549C15.8299 66.7884 20.0227 53.7242 29.5554 41.5985C35.7337 32.6013 48.0905 18.5877 68.3946 11.5539C68.6219 11.4784 68.8437 11.3975 69.0709 11.322C78.7875 8.064 87.7412 7.30884 93.9304 7.30884C94.017 7.30884 94.0981 7.30884 94.1847 7.30884C107.726 4.19111 122.225 4.89772 135.989 9.96808C141.28 11.9207 146.008 14.348 150.212 17.0288C151.018 17.4765 151.894 17.9889 152.83 18.5607C153.031 18.6848 153.231 18.8088 153.431 18.9329C168.136 28.1404 176.603 40.5035 180.341 47.0518C180.411 47.1705 180.476 47.2891 180.546 47.4132C185.535 56.2701 189.273 67.7486 189.311 67.8618C189.343 67.9643 189.376 68.0614 189.408 68.1639C190.166 70.5588 190.809 73.0185 191.345 75.5267C192.627 80.4784 193.639 86.4064 193.769 93.1003C193.769 93.2622 193.774 93.424 193.774 93.5858C193.818 96.8546 193.634 99.4059 193.488 101.45L193.477 101.585C193.439 102.108 193.396 102.626 193.347 103.149C193.109 105.728 192.849 108.301 192.503 110.901C192.043 118.992 190.279 127.018 187.19 134.613C187.017 135.033 186.844 135.449 186.665 135.869C185.129 139.456 183.646 142.105 182.894 143.442C182.516 144.165 182.121 144.91 181.704 145.67C179.492 150.347 176.759 154.845 173.492 159.074C169.64 164.069 165.344 168.525 160.367 172.689C160.167 172.856 159.966 173.023 159.766 173.185C150.65 180.656 144.071 184.847 136.313 188.137C127.003 192.08 117.291 193.957 107.732 193.963L107.726 193.973ZM183.127 142.995C183.073 143.097 183.019 143.2 182.965 143.308C182.986 143.264 183.008 143.221 183.035 143.178C183.068 143.119 183.1 143.06 183.133 142.995H183.127ZM183.214 142.833C183.214 142.833 183.214 142.822 183.219 142.817C183.219 142.817 183.219 142.828 183.214 142.833Z" fill="#FFEA4B"/>
</g>
<g opacity="0.55">
<path d="M107.434 192.674C96.9221 192.674 87.7303 190.705 85.6853 190.235C85.5392 190.203 85.3877 190.165 85.2416 190.133C81.4437 189.238 77.6945 188.04 74.0481 186.568C72.5657 186.158 71.2673 185.758 70.1907 185.392C70.0771 185.354 69.9635 185.316 69.8499 185.273C60.2307 181.977 49.7458 176.346 41.8038 170.202C41.6577 170.089 41.5116 169.976 41.3656 169.862C35.0952 164.938 28.8574 158.422 24.2425 151.992C24.1451 151.857 24.0478 151.722 23.9558 151.587C17.231 142.062 12.3889 130.438 10.3331 118.851C10.2844 118.582 10.2411 118.312 10.1924 118.042C7.83903 103.872 9.98144 91.5361 11.4692 85.4463C11.5287 85.1928 11.5937 84.9393 11.6586 84.6911C14.0012 75.5214 17.8045 67.8619 20.991 62.5434C23.0685 57.0199 27.4507 47.3054 35.1818 38.087C35.2738 37.9791 35.3603 37.8767 35.4523 37.7688C39.0067 33.5776 48.8315 23.1079 63.1792 16.3924C63.5579 16.2144 63.9366 16.0418 64.3207 15.8691C78.2139 9.66066 94.1846 7.61633 109.29 10.1138C109.571 10.1623 109.858 10.2108 110.139 10.2594C116.518 11.3921 126.169 13.8626 135.934 19.1919C136.162 19.3159 136.384 19.44 136.611 19.564C143.135 23.2104 150.304 28.6259 156.309 34.3166C160.745 37.9845 164.814 42.2404 168.401 47.0626C168.563 47.2838 168.866 47.6883 169.153 48.0875L169.412 48.4381C173.573 54.0748 175.639 57.678 176.316 58.8647C176.348 58.9186 176.375 58.9726 176.408 59.0211C180.357 65.9524 182.819 72.6733 184.187 77.0964C184.22 77.2097 184.258 77.3229 184.29 77.4362C185.924 82.7979 189.581 96.9409 188.294 112.368C188.283 112.476 188.277 112.584 188.267 112.686C187.563 120.739 185.437 129.629 182.434 137.078C182.407 137.148 182.375 137.218 182.348 137.288C181.78 138.685 181.141 140.114 180.471 141.533C178.734 146.01 176.516 150.671 173.665 155.201C173.578 155.336 173.497 155.471 173.41 155.601C168.996 162.521 162.855 169.523 156.569 174.809C156.309 175.03 156.049 175.246 155.784 175.461C144.331 184.825 130.378 190.629 115.436 192.247C115.084 192.285 114.732 192.323 114.386 192.355C112.043 192.576 109.701 192.668 107.429 192.668L107.434 192.674Z" fill="#FFEA4B"/>
</g>
<g opacity="0.55">
<path d="M104.642 184.21C102.273 184.21 99.8977 184.097 97.5226 183.865C88.8069 183.347 78.4844 181.427 68.1619 176.492C67.8319 176.335 67.5019 176.173 67.1718 176.011C48.2094 166.588 38.9472 151.89 35.8472 146.932C32.5146 141.625 29.8528 135.999 27.494 129.219C27.191 128.841 26.8881 128.463 26.5905 128.075C2.77517 97.4641 7.10867 53.6433 36.4532 28.2645C36.6101 28.1297 40.3268 24.9149 42.0797 23.48C42.1284 23.4423 42.1717 23.4045 42.2204 23.3668C47.4303 19.1217 58.1532 11.3274 71.4404 6.82878C71.6893 6.74248 71.9382 6.66157 72.187 6.58066C77.0129 5.00561 82.1525 3.86748 87.3678 3.20402C93.3568 2.20613 98.8589 1.97418 103.463 2.09825C105.908 1.94721 108.354 1.92024 110.804 2.01194C111.021 2.01734 111.237 2.02812 111.459 2.03891C114.289 2.16837 117.713 2.46504 118.092 2.4974C118.297 2.51358 118.508 2.53516 118.714 2.55674C143.438 4.93009 165.23 19.1918 177.003 40.7031C177.338 41.318 177.663 41.9329 177.982 42.5532C180.839 48.1522 187.39 63.2014 186.492 82.0157C186.4 83.936 185.848 94.0389 183.971 102.421C183.922 102.632 183.874 102.847 183.825 103.058C183.673 103.7 183.398 105.14 183.154 106.413C182.456 110.054 181.499 115.049 179.94 120.869C179.881 121.09 179.821 121.311 179.762 121.532C179.334 123.069 178.907 124.531 178.48 125.912C178.361 126.408 178.225 126.942 178.074 127.514C178.004 127.778 177.933 128.037 177.863 128.302C175.077 138.356 169.905 148.319 163.293 156.356C162.812 156.938 162.325 157.515 161.827 158.082C155.557 165.245 148.026 171.065 139.624 175.364C128.912 181.152 116.869 184.216 104.648 184.216L104.642 184.21Z" fill="#FFEA4B"/>
</g>
<path d="M46.8142 147.87C61.3714 147.87 73.1723 136.846 73.1723 123.247C73.1723 109.647 61.3714 98.6229 46.8142 98.6229C32.257 98.6229 20.4561 109.647 20.4561 123.247C20.4561 136.846 32.257 147.87 46.8142 147.87Z" fill="#FFDB27" fill-opacity="0.8"/>
<path d="M174.531 150.179C189.088 150.179 200.889 139.154 200.889 125.555C200.889 111.956 189.088 100.932 174.531 100.932C159.974 100.932 148.173 111.956 148.173 125.555C148.173 139.154 159.974 150.179 174.531 150.179Z" fill="#FFDB27" fill-opacity="0.8"/>
<ellipse cx="59.3003" cy="82.1077" rx="34.9721" ry="33.4513" fill="white"/>
<ellipse cx="59.3001" cy="80.5872" rx="22.8079" ry="22.8077" fill="#2E2C2C"/>
<ellipse cx="153.574" cy="82.1077" rx="34.9721" ry="33.4513" fill="white"/>
<ellipse cx="153.574" cy="80.5872" rx="22.8079" ry="22.8077" fill="#2E2C2C"/>
<g clip-path="url(#clip1_662_5159)">
<path d="M77.1618 122.369C88.2019 133.452 104.893 136.157 119.513 131.868C123.799 130.612 127.957 128.787 131.839 126.57C133.648 125.538 134.41 122.897 133.259 121.096C132.108 119.296 129.767 118.559 127.83 119.664C126.291 120.544 124.711 121.36 123.092 122.089C122.878 122.185 122.656 122.281 122.441 122.377C122.497 122.353 122.997 122.153 122.576 122.321C122.195 122.473 121.806 122.633 121.425 122.785C120.544 123.129 119.655 123.441 118.751 123.737C117.068 124.281 115.354 124.738 113.624 125.098C112.814 125.266 112.004 125.402 111.187 125.53C110.369 125.658 111.036 125.554 111.187 125.53C110.957 125.562 110.719 125.586 110.488 125.61C110.02 125.658 109.552 125.706 109.084 125.738C107.33 125.874 105.576 125.898 103.822 125.81C103.068 125.77 102.314 125.714 101.56 125.626C101.353 125.602 101.123 125.594 100.917 125.546C101.052 125.57 101.766 125.674 101.004 125.554C100.575 125.482 100.147 125.418 99.7261 125.338C98.1308 125.042 96.5514 124.642 95.0037 124.145C94.2815 123.913 93.5672 123.657 92.8608 123.385C92.6624 123.305 92.456 123.225 92.2576 123.145C92.3925 123.201 92.9957 123.473 92.3131 123.169C91.9163 122.993 91.5274 122.809 91.1385 122.625C89.4876 121.825 87.9003 120.896 86.4002 119.84C86.051 119.592 85.7018 119.336 85.3526 119.08C86.0192 119.576 85.0986 118.864 84.8922 118.696C84.1462 118.071 83.4398 117.407 82.7493 116.711C81.2968 115.23 78.6142 115.118 77.1618 116.711C75.7093 118.303 75.5903 120.792 77.1618 122.369Z" fill="#2E2C2C"/>
<path d="M77.1618 122.369C88.2019 133.452 104.893 136.157 119.513 131.868C123.799 130.612 127.957 128.787 131.839 126.57C133.648 125.538 134.41 122.897 133.259 121.096C132.108 119.296 129.767 118.559 127.83 119.664C126.291 120.544 124.711 121.36 123.092 122.089C122.878 122.185 122.656 122.281 122.441 122.377C122.497 122.353 122.997 122.153 122.576 122.321C122.195 122.473 121.806 122.633 121.425 122.785C120.544 123.129 119.655 123.441 118.751 123.737C117.068 124.281 115.354 124.738 113.624 125.098C112.814 125.266 112.004 125.402 111.187 125.53C110.369 125.658 111.036 125.554 111.187 125.53C110.957 125.562 110.719 125.586 110.488 125.61C110.02 125.658 109.552 125.706 109.084 125.738C107.33 125.874 105.576 125.898 103.822 125.81C103.068 125.77 102.314 125.714 101.56 125.626C101.353 125.602 101.123 125.594 100.917 125.546C101.052 125.57 101.766 125.674 101.004 125.554C100.575 125.482 100.147 125.418 99.7261 125.338C98.1308 125.042 96.5514 124.642 95.0037 124.145C94.2815 123.913 93.5672 123.657 92.8608 123.385C92.6624 123.305 92.456 123.225 92.2576 123.145C92.3925 123.201 92.9957 123.473 92.3131 123.169C91.9163 122.993 91.5274 122.809 91.1385 122.625C89.4876 121.825 87.9003 120.896 86.4002 119.84C86.051 119.592 85.7018 119.336 85.3526 119.08C86.0192 119.576 85.0986 118.864 84.8922 118.696C84.1462 118.071 83.4398 117.407 82.7493 116.711C81.2968 115.23 78.6142 115.118 77.1618 116.711C75.7093 118.303 75.5903 120.792 77.1618 122.369Z" fill="black" fill-opacity="0.2"/>
</g>
</g>
<defs>
<clipPath id="clip0_662_5159">
<rect width="217" height="207" fill="white"/>
</clipPath>
<clipPath id="clip1_662_5159">
<rect width="57.7801" height="18.2462" fill="white" transform="translate(76.0264 115.559)"/>
</clipPath>
</defs>
</svg>
