<svg width="210" height="205" viewBox="0 0 210 205" fill="none" xmlns="http://www.w3.org/2000/svg">
<g clip-path="url(#clip0_662_5260)">
<g opacity="0.55">
<path d="M98.7025 183.192C80.229 183.192 62.5243 176.251 48.7138 163.302C48.0987 162.728 47.4935 162.138 46.8982 161.544C43.5002 158.138 33.1572 147.766 24.9869 125.024C24.9473 124.915 24.9076 124.8 24.8679 124.69C21.0035 113.773 15.4228 91.9456 21.4897 68.3949C21.6782 67.6658 21.8766 66.9367 22.085 66.2126C26.7182 50.1127 36.5602 34.9016 49.0809 24.4895C49.448 24.1849 49.8151 23.8853 50.1871 23.5857C50.4401 23.3859 50.6931 23.1862 50.9511 22.9864C56.4872 17.8678 62.6781 13.5831 69.2857 10.2722C75.0203 6.9913 81.0822 4.39953 87.1094 2.71662C87.6154 2.5768 88.1214 2.44196 88.6274 2.31213C97.8393 -0.0499358 107.294 -0.584271 118.391 0.629219C127.807 1.65794 136.071 3.7004 143.656 6.88144C143.979 7.01627 144.301 7.1561 144.618 7.29593C152.734 10.8365 172.944 21.4733 185.341 43.6907C185.549 44.0652 185.757 44.4447 185.961 44.8242C188.634 49.8031 190.609 54.7868 192.067 59.5359C192.236 59.9854 192.4 60.4398 192.558 60.8943C192.816 61.6233 193.059 62.3574 193.298 63.0915C196.715 73.7832 197.559 83.8807 197.425 91.8607C198.67 114.682 190.832 137.159 175.275 153.484C174.705 154.083 174.12 154.678 173.529 155.257C169.61 159.107 165.314 162.498 160.691 165.404C158.841 166.763 156.594 168.306 153.92 169.869C142.485 176.56 130.823 179.147 124.89 180.096C124.622 180.141 124.349 180.181 124.081 180.221C121.72 180.57 119.364 180.79 117.072 180.915C115.276 181.359 113.49 181.739 111.719 182.049C107.364 182.818 103.008 183.197 98.6975 183.197L98.7025 183.192ZM148.835 171.472C148.835 171.472 148.82 171.477 148.815 171.482C148.82 171.482 148.83 171.477 148.835 171.472Z" fill="#5267EE"/>
</g>
<g opacity="0.55">
<path d="M107.285 192.545C101.025 192.545 95.2159 191.996 91.1927 191.327C90.9546 191.287 90.7116 191.247 90.4735 191.202C73.7709 188.251 60.5358 180.001 55.6248 176.59C55.5057 176.51 55.3866 176.426 55.2676 176.341C52.2118 174.193 43.2826 167.477 35.0826 157.07C23.8914 144.8 16.4206 128.755 14.6992 110.752C14.5951 109.634 14.5107 108.515 14.4462 107.396C13.3499 87.0867 19.9675 72.6746 23.5193 64.9342C26.4957 58.4473 28.6238 54.4023 31.1141 50.4922C31.2282 50.3124 31.3423 50.1326 31.4564 49.9578C31.4713 49.9329 31.4911 49.9079 31.506 49.8829C34.7205 44.6395 38.7684 39.1063 41.5166 35.7705C41.6654 35.5907 41.8143 35.4059 41.968 35.2262C48.6451 27.2711 63.031 13.0637 84.3917 7.31589C84.9125 7.17606 85.4384 7.04123 85.9642 6.91139C96.8926 4.23472 107.136 4.57929 112.266 5.02374C112.563 5.04871 112.861 5.07867 113.159 5.10863C117.092 5.49815 121.101 6.19228 125.084 7.16108C130.402 8.15484 136.27 9.61303 141.375 11.4757C141.519 11.5256 141.658 11.5806 141.802 11.6305C146.931 13.5381 151.842 15.9851 157.73 19.5706C165.444 24.2648 174.433 30.6119 182.603 42.1026C182.94 42.577 183.273 43.0564 183.6 43.5408C190.972 54.4123 195.466 66.9767 196.9 79.9356C197.545 83.7808 197.927 87.6759 198.041 91.5761C198.065 92.3651 198.075 93.1591 198.075 93.9481C198.075 97.1092 197.892 100.35 197.54 103.596C197.51 104.365 197.47 105.084 197.425 105.748C197.411 105.948 197.401 106.148 197.386 106.348C196.488 118.587 192.772 132.23 187.45 142.847C187.296 143.157 187.137 143.467 186.978 143.771C184.061 149.404 172.92 168.685 152.1 180.226C151.708 180.441 151.316 180.655 150.924 180.865C148.31 182.253 145.706 183.442 143.136 184.471C136.707 187.542 129.018 190.298 120.476 191.617C120.064 191.682 119.647 191.741 119.235 191.796C115.297 192.331 111.199 192.55 107.285 192.55V192.545Z" fill="#5267EE"/>
</g>
<g opacity="0.55">
<path d="M105.558 199.692C102.81 199.692 100.806 199.597 99.9975 199.552C99.8883 199.547 99.7792 199.537 99.675 199.532C87.6652 198.793 75.467 195.057 66.1062 191.007C57.5093 187.697 48.977 183.617 40.0825 175.587C39.1449 174.743 38.2322 173.869 37.3343 172.975C27.5023 163.147 20.349 150.493 16.5144 136.73C13.7066 127.861 12.6748 119.796 12.3325 114.013C12.3127 113.644 12.2928 113.274 12.273 112.905C11.7968 102.273 13.151 91.3364 16.1622 80.9842C18.5383 70.8269 22.5267 61.094 27.9884 52.25C28.1769 51.9454 28.3654 51.6407 28.5589 51.3361C29.3427 50.1027 30.2802 48.7244 31.3368 47.2562C33.3707 44.1451 35.6675 41.0489 38.252 38.0726C38.5546 37.7281 38.8572 37.3835 39.1648 37.0439C42.1759 33.7031 45.4748 30.6119 49.0117 27.8104C51.8591 25.3435 55.7285 22.2773 60.6098 19.291C64.9255 16.4196 69.7126 13.8378 75.0007 11.7604C75.4868 11.5706 75.9779 11.3808 76.469 11.2011C87.2684 7.22599 96.9863 6.61675 103.351 6.5019C105.543 6.46195 109.864 6.44696 114.096 6.78654C114.304 6.80152 114.507 6.8215 114.716 6.83648C123.814 7.64547 135.635 10.6118 144.133 14.2223C144.326 14.3022 144.519 14.3871 144.708 14.472C149.932 16.7442 154.292 19.311 160.518 23.2561L160.557 23.281C160.661 23.3459 160.766 23.4109 160.87 23.4758C167.944 27.9852 174.164 33.5333 179.373 39.8854C188.089 48.5596 197.296 60.9841 202.143 77.5835C202.356 78.3076 202.554 79.0317 202.748 79.7608C206.245 93.1142 206.518 109.069 203.482 122.443C203.313 123.192 203.13 123.936 202.941 124.68C199.231 139.097 191.274 153.06 180.861 163.596C179.715 165.005 178.525 166.368 177.3 167.681C176.908 168.101 176.511 168.515 176.109 168.925C171.957 173.165 167.388 176.95 160.324 181.984C160.17 182.093 160.017 182.203 159.858 182.313C153.796 186.563 141.414 194.198 126.572 197.589C126.299 197.649 126.021 197.714 125.748 197.774C118.397 199.362 110.688 199.692 105.563 199.692H105.558Z" fill="#5267EE"/>
</g>
<g opacity="0.55">
<path d="M89.8529 202.938C85.2543 202.938 80.7997 202.643 76.5136 202.054C76.211 202.014 75.9134 201.969 75.6108 201.924C60.5056 199.642 45.1573 192.645 33.4898 182.728C33.1921 182.473 32.8895 182.213 32.5968 181.954C22.3878 172.99 13.1609 160.011 7.90759 147.237C7.80837 146.997 7.70916 146.752 7.61491 146.513C3.38346 135.931 -1.30934 119.561 0.337605 101.639C0.367369 101.319 0.397133 100.994 0.431858 100.675C2.82786 77.6484 14.2027 56.8143 31.6394 43.5109C36.6795 39.6657 42.1213 36.5346 47.8211 34.1525C55.53 27.8903 65.4762 21.723 77.4562 18.1974C77.858 18.0775 78.2598 17.9627 78.6666 17.8528C88.4193 15.1711 98.8565 14.3621 111.526 15.3159C111.799 15.3359 112.067 15.3559 112.335 15.3809C116.04 15.7005 129.122 17.1636 141.781 22.4471C142.014 22.542 142.247 22.6418 142.481 22.7417C144.723 23.7055 147.223 24.894 152.124 27.5507C154.203 28.6743 156.931 30.1575 160.031 32.175C174.179 37.8479 186.477 48.0103 195.074 61.4885C203.993 75.4811 208.75 91.9007 208.825 108.979C208.825 109.209 208.825 109.439 208.825 109.669C208.77 123.636 205.64 136.845 199.528 148.935C193.139 161.564 183.664 171.891 172.314 179.042C168.197 182.253 163.811 185.065 159.238 187.412C159.019 187.522 158.806 187.632 158.588 187.741C153.9 190.089 148.627 192.071 143.646 193.674C137.584 196.775 131.185 199.107 124.672 200.576C124.181 200.685 123.69 200.79 123.199 200.89C114.388 202.678 106.089 202.658 102.934 202.573C102.617 202.563 102.304 202.553 101.987 202.538C101.52 202.518 100.95 202.488 100.29 202.443C96.7432 202.768 93.2609 202.933 89.8529 202.933V202.938ZM206.87 105.694C206.87 105.694 206.87 105.723 206.87 105.738C206.87 105.723 206.87 105.709 206.87 105.694Z" fill="#5267EE"/>
</g>
<g opacity="0.55">
<path d="M92.6112 205C84.5551 205 75.6755 203.652 66.0469 200.301C65.7839 200.211 65.526 200.116 65.2631 200.021C59.7468 198.029 50.143 193.804 40.5143 186.019C39.0509 184.975 37.5974 183.856 36.1638 182.663C35.886 182.433 35.6082 182.198 35.3354 181.964C32.7707 179.766 30.97 177.944 29.2337 176.181L29.1097 176.056C18.0325 165.17 10.2393 151.317 6.52379 135.881C6.51387 135.831 6.49899 135.781 6.48907 135.736C6.14182 134.278 5.33819 130.912 4.73795 125.684C4.27165 122.538 3.97401 119.362 3.85495 116.18C3.84007 115.841 3.83015 115.496 3.82023 115.157C3.52259 103.346 5.36796 90.3626 8.88011 79.536C8.95452 79.3013 9.03389 79.0616 9.11326 78.8269C12.1938 69.6234 17.8986 58.3274 23.3107 50.7169C23.4595 50.5022 23.6133 50.2924 23.7671 50.0827C35.3552 34.1175 50.4257 25.8528 58.3826 22.3472C58.457 22.3172 58.5314 22.2823 58.6009 22.2523C61.7807 20.864 77.253 14.7466 89.3967 12.4195C89.5902 12.3846 89.7787 12.3446 89.9722 12.3097C95.161 11.3609 104.562 10.412 119.88 11.3009C120.034 11.3109 120.188 11.3209 120.346 11.3309C132.951 12.1449 145.517 16.2148 156.683 23.0913C156.926 23.2411 157.169 23.3909 157.408 23.5457C166.312 29.1737 174.834 37.5732 177.235 40.0152C177.399 40.185 177.563 40.3498 177.726 40.5196C178.857 41.6881 180.117 43.0614 181.452 44.6345C196.091 58.3374 205.486 78.0629 206.136 100.12C206.255 104.12 206.211 107.761 206.012 110.952C205.987 111.326 205.963 111.701 205.933 112.071C205.491 117.848 204.479 123.182 203.11 128.071C203.075 128.22 203.041 128.37 203.006 128.515C201.612 134.283 199.707 139.591 197.609 144.34C197.142 145.449 196.646 146.558 196.121 147.671C195.917 148.101 195.709 148.53 195.496 148.955C194.206 151.546 192.842 153.958 191.423 156.206C188.372 161.244 185.53 165 183.754 167.177C183.605 167.362 183.456 167.542 183.307 167.721C181.64 169.729 175.663 176.54 170.206 181.334C162.08 188.476 148.394 197.374 129.057 199.612C123.496 201.245 117.221 202.478 110.241 202.763C104.914 204.141 99.0204 204.995 92.6063 204.995L92.6112 205Z" fill="#5267EE"/>
</g>
<g opacity="0.55">
<path d="M100.394 195.796C91.743 195.796 82.6005 194.698 77.6845 193.649C77.5109 193.614 77.3422 193.574 77.1686 193.534C63.6855 190.548 49.751 182.902 41.923 176.65C41.799 176.55 41.675 176.451 41.551 176.351C38.2323 173.664 35.1319 170.703 32.2745 167.507C17.3776 154.008 7.52575 134.662 5.43731 114.208C5.37778 113.644 5.32817 113.084 5.28352 112.52C4.26163 99.9457 6.35999 88.3351 9.11812 79.1166C10.3732 72.8793 12.1342 66.717 14.2971 61.064C14.3715 60.8643 14.4508 60.6645 14.5253 60.4698C21.3214 43.1114 33.2567 28.2349 48.1437 18.5819C48.4761 18.3672 48.8134 18.1524 49.1507 17.9377C52.7968 15.6555 65.9773 8.01004 82.4319 5.36333C82.5559 5.34335 82.6749 5.32338 82.799 5.3034C91.1428 4.00502 100.727 4.13985 107.21 4.70415C109.2 4.63923 111.204 4.64422 113.238 4.71913C113.421 4.72412 113.605 4.73411 113.783 4.7441C121.487 5.08867 128.611 6.06745 134.96 7.65048C135.055 7.67545 135.149 7.69543 135.243 7.7204C138.726 8.6043 150.968 12.0101 162.259 18.8366C162.467 18.9614 162.676 19.0913 162.884 19.2161C179.666 29.5832 189.91 44.4847 194.523 52.4448C194.687 52.7294 194.851 53.0141 195.014 53.3037C202.589 66.7669 206.597 81.5136 206.925 97.1491C206.93 97.4138 206.935 97.6785 206.94 97.9432C207.054 107.961 205.868 123.052 199.573 138.073C199.439 138.398 199.3 138.722 199.161 139.042C190.044 160.026 174.259 172.475 167.894 176.85C167.741 176.955 167.582 177.065 167.428 177.17C162.532 180.485 157.07 183.387 149.168 186.868C141.712 190.153 134.792 192.99 125.57 194.403C125.366 194.433 125.158 194.463 124.95 194.493C120.907 195.077 114.83 195.377 108.55 195.402C108.441 195.412 108.327 195.427 108.217 195.437C105.752 195.687 103.098 195.796 100.389 195.796H100.394Z" fill="#5267EE"/>
</g>
<g opacity="0.55">
<path d="M102.979 202.588C91.9912 202.588 80.3634 200.635 69.5194 196.915C69.3458 196.855 69.1771 196.795 69.0035 196.735C63.3434 194.743 55.4361 191.282 47.2807 185.554C38.044 179.771 30.8312 172.885 25.8705 167.357C25.5034 166.947 25.1363 166.533 24.7742 166.113C17.7648 157.954 5.80458 140.555 4.42551 115.691C4.42055 115.571 4.41063 115.451 4.40567 115.332C3.85504 104.525 5.58135 96.4101 6.61317 91.5661C7.61522 86.867 8.98437 80.435 12.6652 72.365C12.7793 72.1203 12.8884 71.8756 13.0075 71.6309C20.9941 54.5821 33.3264 44.0502 39.9687 39.2861C40.1771 39.1363 40.3854 38.9865 40.5987 38.8417C40.7128 38.7618 40.8269 38.6819 40.946 38.602C45.1576 33.2486 51.0608 26.7318 58.3033 21.2586C58.4621 21.1387 58.6208 21.0189 58.7796 20.904C66.1313 15.4458 78.2006 8.28969 93.9656 5.21352C94.1789 5.17357 94.3872 5.13362 94.6005 5.09367C97.0511 4.63923 106.417 3.27093 113.322 3.1361C113.421 3.1361 113.521 3.1361 113.615 3.13111C132.014 2.85645 147.68 8.73414 157.864 13.1886C187.851 26.3023 205.253 57.7532 203.175 89.9781C203.234 90.3726 203.289 90.7671 203.343 91.1666C203.403 91.616 203.457 92.0605 203.512 92.5099C204.102 97.5187 204.241 102.542 203.983 109.309C203.839 113.084 203.596 117.094 202.981 121.434C202.277 127.796 200.893 134.937 198.333 142.043C198.12 142.638 197.902 143.227 197.673 143.811C188.729 166.917 170.891 180.705 165.642 184.381C165.3 184.62 164.953 184.86 164.606 185.095C155.562 191.192 145.184 195.522 134.589 197.614C134.236 197.684 133.884 197.749 133.532 197.814C131.806 198.129 130.084 198.383 128.323 198.578C122.976 200.336 117.469 201.544 112.042 202.134C111.551 202.189 111.055 202.233 110.564 202.278C108.089 202.493 105.559 202.598 102.989 202.598L102.979 202.588Z" fill="#5267EE"/>
</g>
<g opacity="0.55">
<path d="M114.92 186.473C97.3737 186.473 80.1106 180.101 66.1562 168.485C45.3462 161.04 28.8619 144.231 21.0637 122.912C18.7918 117.798 17.0456 112.405 15.86 106.827C12.3478 92.0055 13.0523 76.1902 18.2362 61.2837C19.6549 57.2088 21.4259 53.1738 23.5044 49.2887C24.8438 46.7818 26.3469 44.2699 28.093 41.6132C29.6407 39.2561 31.1785 37.0938 32.1905 35.6956C52.8616 7.21601 88.9703 -2.30715 119.508 11.1561C135.06 14.9863 149.123 24.0451 159.447 37.0789C165.891 41.0639 171.868 46.1576 177.112 52.3349C204.236 84.2951 201.548 133.274 171.114 161.754C170.836 162.013 170.439 162.393 170.067 162.753C168.594 164.161 167.617 165.095 166.253 166.288C157.423 174.018 142.878 183.637 123.432 185.964C122.4 186.089 121.368 186.188 120.332 186.268C118.526 186.403 116.72 186.473 114.92 186.473ZM160.037 117.114C160.037 117.114 160.027 117.149 160.017 117.164C160.022 117.144 160.027 117.129 160.037 117.114Z" fill="#5267EE"/>
</g>
<g opacity="0.55">
<path d="M86.3808 171.197C70.9382 171.197 55.6693 166.213 42.8955 156.735C35.1966 152.081 29.2735 146.513 24.8784 141.384C6.81163 120.335 1.07214 90.4825 10.165 63.5909C16.1873 45.7781 28.3062 30.9515 43.8033 21.8278C67.9519 2.7366 92.9983 5.20353 103.733 7.53063C105.529 7.92015 107.305 8.37958 109.056 8.90393C128.522 11.8602 146.822 22.9165 158.995 41.1588C182.399 76.2302 174.279 124.575 140.864 149.135L140.507 149.399C132.882 155.002 132.054 155.591 130.957 156.346C127.103 159.002 119.334 163.896 110.147 167.132C108.952 167.552 107.746 167.941 106.531 168.301C99.9085 170.243 93.1273 171.192 86.3808 171.192V171.197Z" fill="#5267EE"/>
</g>
<g opacity="0.55">
<path d="M96.8376 176.655C92.0108 176.655 86.6186 176.166 80.8096 174.833C80.2888 174.713 79.7679 174.588 79.247 174.453C78.116 174.163 76.9899 173.849 75.8787 173.509C57.1969 172.53 39.2243 164.131 26.0339 149.819C14.9865 137.829 7.95725 122.418 5.67534 106.068C2.09374 88.0455 4.71793 69.129 13.3049 52.7893C15.046 49.4784 16.9013 46.3473 18.831 43.4759C35.2012 19.1162 57.3903 12.4095 69.162 10.5768C73.6514 9.87769 78.1656 9.628 82.6451 9.80278C108.832 7.22599 135.01 19.2211 150.968 42.0027C161.034 51.9603 168.549 64.9991 172.036 80.1653C181.591 121.669 157.363 163.442 117.901 173.644L117.851 173.654C113.937 174.693 106.526 176.66 96.8376 176.66V176.655Z" fill="#5267EE"/>
</g>
<g opacity="0.55">
<path d="M118.531 194.458C116.799 194.458 115.326 194.408 114.16 194.343C114.002 194.333 113.843 194.323 113.684 194.318C110.827 194.143 107.821 193.759 104.993 193.305C98.9609 192.875 91.7481 191.796 84.4857 189.399C84.2277 189.314 83.9698 189.23 83.7118 189.14C67.9617 183.736 52.5737 172.271 42.5482 158.473C42.3101 158.143 42.072 157.814 41.8388 157.484C32.6368 144.4 27.1106 128.275 26.2772 112.091C26.2474 111.511 26.2226 110.932 26.2078 110.353C25.9647 102.318 26.9915 94.5624 27.309 92.3751C27.3834 91.8557 27.4678 91.3364 27.5521 90.822C29.4372 79.4861 33.495 69.4386 36.6698 62.8468C38.9567 56.9841 42.0422 50.667 46.1993 44.5746C46.5713 44.0302 46.9483 43.4959 47.3303 42.9616C57.1375 29.3535 71.4987 18.6618 86.7329 13.6181C87.2488 13.4483 87.7697 13.2835 88.2905 13.1237C91.1925 12.2398 94.1888 11.5257 97.2743 10.9963C109.398 6.66171 122.355 5.53312 134.941 7.74037C135.447 7.83026 135.953 7.92514 136.459 8.02502C144.371 9.59307 150.274 12.1449 154.133 14.0176C166.694 19.306 179.264 28.4296 188.154 38.7718C188.367 39.0165 188.575 39.2662 188.784 39.5158C194.722 46.607 208.666 66.0728 209.921 93.6485C209.941 94.088 209.956 94.5274 209.971 94.9619C210.045 97.5437 210.03 102.268 209.331 108.26C209.232 109.813 209.098 111.207 208.964 112.41C208.909 112.88 208.855 113.354 208.795 113.823C207.853 121.089 204.291 139.846 191.631 157.11C191.448 157.359 191.259 157.609 191.076 157.859C182.925 168.695 171.025 178.818 159.233 184.94C158.975 185.075 158.722 185.205 158.464 185.334C143.022 193.12 127.42 194.453 118.536 194.453L118.531 194.458ZM151.003 12.7791C151.003 12.7791 151.033 12.7891 151.048 12.7941C151.033 12.7891 151.018 12.7841 151.003 12.7791Z" fill="#5267EE"/>
</g>
<path d="M43.8889 152.033C57.0824 152.033 67.7778 141.807 67.7778 129.193C67.7778 116.579 57.0824 106.353 43.8889 106.353C30.6954 106.353 20 116.579 20 129.193C20 141.807 30.6954 152.033 43.8889 152.033Z" fill="#3553E5" fill-opacity="0.7"/>
<path d="M164.445 153.147C176.718 153.147 186.667 143.171 186.667 130.864C186.667 118.558 176.718 108.582 164.445 108.582C152.172 108.582 142.223 118.558 142.223 130.864C142.223 143.171 152.172 153.147 164.445 153.147Z" fill="#3553E5" fill-opacity="0.7"/>
<circle cx="61.8789" cy="82.4185" r="32.5" fill="white"/>
<ellipse cx="60.8789" cy="81.9185" rx="21.5" ry="21" fill="#2E2C2C"/>
<ellipse cx="150.133" cy="82.4185" rx="32.8276" ry="32.8263" fill="white"/>
<ellipse cx="150" cy="82" rx="21" ry="20" fill="#2E2C2C"/>
<g clip-path="url(#clip1_662_5260)">
<path d="M132.622 126.557C121.31 116.939 104.72 115.164 90.4302 119.657C86.241 120.973 82.198 122.8 78.4437 124.972C76.6932 125.984 76.0364 128.414 77.2389 130.003C78.4415 131.591 80.7818 132.165 82.6551 131.082C84.1445 130.22 85.6755 129.414 87.2488 128.686C87.4571 128.59 87.6732 128.494 87.8814 128.398C87.8274 128.422 87.3406 128.624 87.7501 128.454C88.121 128.301 88.4995 128.139 88.8704 127.986C89.7284 127.637 90.5953 127.317 91.4786 127.011C93.1214 126.448 94.7987 125.964 96.4952 125.566C97.289 125.381 98.084 125.224 98.8871 125.074C99.6902 124.925 99.0352 125.046 98.8871 125.074C99.1134 125.036 99.3478 125.004 99.5743 124.973C100.035 124.91 100.496 124.848 100.958 124.799C102.686 124.604 104.418 124.511 106.155 124.519C106.901 124.525 107.648 124.545 108.396 124.594C108.601 124.607 108.829 124.605 109.034 124.641C108.9 124.624 108.191 124.559 108.948 124.637C109.374 124.685 109.8 124.725 110.218 124.781C111.805 124.985 113.381 125.284 114.928 125.671C115.65 125.853 116.365 126.056 117.073 126.274C117.272 126.339 117.479 126.403 117.678 126.468C117.542 126.422 116.936 126.2 117.622 126.448C118.02 126.592 118.411 126.743 118.802 126.895C120.463 127.554 122.065 128.333 123.585 129.231C123.939 129.442 124.294 129.66 124.648 129.879C123.971 129.455 124.907 130.065 125.117 130.209C125.877 130.746 126.599 131.32 127.306 131.924C128.795 133.21 131.45 133.202 132.827 131.696C134.205 130.19 134.232 127.925 132.622 126.557Z" fill="#2A2A2A"/>
<path d="M132.622 126.557C121.31 116.939 104.72 115.164 90.4302 119.657C86.241 120.973 82.198 122.8 78.4437 124.972C76.6932 125.984 76.0364 128.414 77.2389 130.003C78.4415 131.591 80.7818 132.165 82.6551 131.082C84.1445 130.22 85.6755 129.414 87.2488 128.686C87.4571 128.59 87.6732 128.494 87.8814 128.398C87.8274 128.422 87.3406 128.624 87.7501 128.454C88.121 128.301 88.4995 128.139 88.8704 127.986C89.7284 127.637 90.5953 127.317 91.4786 127.011C93.1214 126.448 94.7987 125.964 96.4952 125.566C97.289 125.381 98.084 125.224 98.8871 125.074C99.6902 124.925 99.0352 125.046 98.8871 125.074C99.1134 125.036 99.3478 125.004 99.5743 124.973C100.035 124.91 100.496 124.848 100.958 124.799C102.686 124.604 104.418 124.511 106.155 124.519C106.901 124.525 107.648 124.545 108.396 124.594C108.601 124.607 108.829 124.605 109.034 124.641C108.9 124.624 108.191 124.559 108.948 124.637C109.374 124.685 109.8 124.725 110.218 124.781C111.805 124.985 113.381 125.284 114.928 125.671C115.65 125.853 116.365 126.056 117.073 126.274C117.272 126.339 117.479 126.403 117.678 126.468C117.542 126.422 116.936 126.2 117.622 126.448C118.02 126.592 118.411 126.743 118.802 126.895C120.463 127.554 122.065 128.333 123.585 129.231C123.939 129.442 124.294 129.66 124.648 129.879C123.971 129.455 124.907 130.065 125.117 130.209C125.877 130.746 126.599 131.32 127.306 131.924C128.795 133.21 131.45 133.202 132.827 131.696C134.205 130.19 134.232 127.925 132.622 126.557Z" fill="black" fill-opacity="0.2"/>
</g>
</g>
<defs>
<clipPath id="clip0_662_5260">
<rect width="210" height="205" fill="white"/>
</clipPath>
<clipPath id="clip1_662_5260">
<rect width="57.1403" height="16.5876" fill="white" transform="matrix(-0.999148 0.0412805 -0.0399858 -0.9992 133.991 132.696)"/>
</clipPath>
</defs>
</svg>
