<svg width="215" height="213" viewBox="0 0 215 213" fill="none" xmlns="http://www.w3.org/2000/svg">
<g clip-path="url(#clip0_662_5691)">
<g opacity="0.55">
<path d="M119.211 167.311C89.5492 167.311 61.6001 149.553 50.4084 120.675L47.7591 113.839C33.2834 76.4759 52.3476 34.6496 90.34 20.4137C128.332 6.17768 170.863 24.9262 185.339 62.2894L187.988 69.1251C202.464 106.488 183.4 148.315 145.407 162.551C136.784 165.78 127.919 167.316 119.211 167.316V167.311Z" fill="#FFEA4B"/>
</g>
<g opacity="0.55">
<path d="M123.074 166.449C117.292 166.449 111.424 165.775 105.561 164.368C66.0627 154.888 41.861 115.716 51.5014 76.8721L52.136 74.3112C61.7815 35.467 101.612 11.666 141.106 21.1468C180.604 30.6275 204.806 69.7987 195.166 108.643L194.531 111.204C186.321 144.278 156.216 166.449 123.074 166.449Z" fill="#FFEA4B"/>
</g>
<g opacity="0.55">
<path d="M108.296 194.212C70.9127 194.212 38.914 166.325 35.1314 128.981L35.1163 128.853C35.1012 128.699 35.0861 128.546 35.0659 128.392C35.0458 128.204 35.0256 128.016 35.0055 127.822L34.9803 127.604C34.9551 127.372 34.9299 127.149 34.9048 126.916L34.7033 125.063C34.6781 124.85 34.6529 124.618 34.6328 124.405L34.527 123.389C34.4917 123.077 34.4565 122.765 34.4263 122.448L34.3759 121.977C34.3557 121.809 34.3406 121.636 34.3205 121.467L34.2651 120.927C34.2298 120.62 34.1996 120.308 34.1643 120.001C34.0938 119.367 34.0283 118.738 33.9629 118.104L33.8017 116.613C33.7815 116.425 33.7614 116.236 33.7413 116.043L33.3131 112.041C33.2426 111.397 33.1771 110.783 33.1117 110.169C33.0965 110.015 33.0764 109.866 33.0613 109.713L33.0411 109.495C32.9857 108.965 32.9303 108.435 32.8699 107.9C32.8548 107.766 32.8397 107.637 32.8296 107.504L32.6483 105.795C32.5677 105.086 32.4972 104.378 32.4216 103.67L32.2604 102.184C32.2403 102.025 32.2252 101.867 32.2101 101.708L32.069 100.371C32.0036 99.7715 31.9381 99.1721 31.8776 98.5728L31.7618 97.5227C31.7417 97.3295 31.7215 97.1313 31.7014 96.9382L31.6661 96.5964C31.6359 96.314 31.6057 96.0267 31.5754 95.7444L31.4999 95.0658C31.4646 94.7686 31.4394 94.5011 31.4092 94.2039L31.3891 94.0305C31.3689 93.8621 31.3538 93.6937 31.3337 93.5302C31.3135 93.347 31.2934 93.1587 31.2732 92.9755L31.2581 92.8467C26.8258 53.1207 55.9585 17.3722 96.3535 12.9835C136.764 8.59486 173.139 37.2501 177.602 76.991L177.708 77.9717C177.738 78.2392 177.768 78.5116 177.793 78.7791L177.808 78.9079C177.828 79.1011 177.849 79.2943 177.869 79.4874C177.894 79.7104 177.919 79.9333 177.939 80.1562L177.964 80.4088C177.985 80.6069 178.01 80.8496 178.035 81.0478L178.272 83.252C178.292 83.4105 178.307 83.574 178.322 83.7325C178.362 84.099 178.393 84.4359 178.433 84.7776C178.453 84.951 178.473 85.1194 178.488 85.2928L178.821 88.3738C178.836 88.5026 178.851 88.6314 178.861 88.7601C178.911 89.2456 178.962 89.7211 179.012 90.1966C179.032 90.3551 179.047 90.5136 179.062 90.6721L179.244 92.386C179.324 93.1241 179.4 93.8572 179.481 94.5903C179.566 95.3679 179.647 96.1407 179.732 96.9183C179.732 96.9629 179.742 97.0372 179.747 97.0818L180.16 100.945C180.201 101.332 180.246 101.723 180.286 102.109L180.357 102.778C180.377 102.947 180.392 103.11 180.412 103.278C180.458 103.709 180.503 104.14 180.548 104.571C180.568 104.75 180.589 104.928 180.604 105.111L180.886 107.737C180.911 107.959 180.936 108.182 180.956 108.405L181.188 110.55C181.213 110.758 181.238 110.991 181.258 111.199L181.284 111.452C181.314 111.714 181.339 111.977 181.369 112.239L181.435 112.838C181.465 113.111 181.495 113.364 181.52 113.636L181.536 113.78C181.566 114.087 181.601 114.389 181.631 114.696C185.63 154.486 156.075 189.928 115.614 193.861C113.156 194.098 110.708 194.217 108.286 194.217L108.296 194.212Z" fill="#FFEA4B"/>
</g>
<g opacity="0.55">
<path d="M76.6551 200.181C38.2144 200.181 5.85307 170.833 3.27424 132.563L2.66479 123.503C-0.0147774 83.6138 30.6945 49.1334 71.2607 46.4932C111.837 43.858 146.888 74.0538 149.573 113.948L150.182 123.008C152.867 162.902 122.157 197.383 81.5911 200.023C79.9391 200.132 78.2921 200.181 76.6601 200.181H76.6551Z" fill="#FFEA4B"/>
</g>
<g opacity="0.55">
<path d="M116.209 205.838C100.641 205.838 89.0005 201.162 84.2609 199.24C76.8115 196.496 70.5962 193.489 64.7887 189.824C64.6225 189.72 64.4563 189.616 64.2901 189.507C61.6458 187.813 52.4083 181.606 44.4956 172.967C44.3444 172.804 44.1933 172.635 44.0473 172.472C38.799 166.642 29.2996 154.392 24.6708 137.868C24.5751 137.521 24.4794 137.169 24.3837 136.823C20.7018 122.909 21.4875 109.975 22.2834 103.501C22.3035 103.348 22.3186 103.199 22.3388 103.051C22.5402 101.48 22.8475 99.504 23.3109 97.2106C23.4972 95.997 23.7088 94.7735 23.9556 93.5649C24.011 93.2826 24.0714 93.0052 24.1318 92.7228C26.484 81.7164 31.0071 72.2605 33.1225 68.2136C36.608 58.4505 41.5994 50.7827 44.3999 46.9141C44.8028 46.3593 45.2108 45.8095 45.6288 45.2696C56.0701 31.6627 71.0444 21.5083 87.8018 16.6738C88.4062 16.5004 89.0056 16.332 89.615 16.1735C91.9924 15.5494 99.2202 13.6522 110.654 13.4244C111.324 13.4095 111.993 13.4046 112.663 13.4095C133.339 13.5284 152.263 20.473 166.738 32.901C173.729 36.9628 185.435 45.1309 194.642 58.396C198.314 62.5865 201.945 67.5052 205.033 73.1322C205.234 73.4988 205.436 73.8703 205.627 74.2418C214.996 92.0194 217.529 114.087 212.407 133.271C212.306 133.652 212.2 134.039 212.089 134.42C206.786 153.07 195.256 166.152 188.855 172.289C188.689 172.452 188.517 172.611 188.346 172.769C183.783 177.064 178.172 181.269 172.188 184.979C171.382 185.584 170.566 186.178 169.73 186.753L166.159 189.234C165.968 189.368 165.776 189.497 165.585 189.63C151.875 198.968 137.449 204.332 122.722 205.57C122.268 205.61 121.815 205.645 121.357 205.674C119.599 205.793 117.886 205.843 116.214 205.843L116.209 205.838Z" fill="#FFEA4B"/>
</g>
<g opacity="0.55">
<path d="M118.184 199.121C116.35 199.121 114.663 199.077 113.172 199.007C113.051 199.002 112.925 198.997 112.804 198.987C107.722 198.735 101.28 197.937 94.4503 196.456C83.0722 194.936 71.4121 191.107 61.6105 185.663C61.3234 185.504 61.0413 185.346 60.7542 185.182C43.2816 175.191 30.181 159.861 23.8699 142.004C23.6382 141.35 23.4166 140.691 23.2 140.027C16.7025 119.872 20.0268 100.242 21.7544 92.7376C21.7947 92.5543 21.8401 92.3711 21.8804 92.1927C21.9811 91.7717 22.0818 91.3507 22.1926 90.9296C23.7893 83.3956 26.6351 74.6529 31.6366 65.9102C31.8179 65.5932 31.9992 65.2811 32.1806 64.969C36.2453 58.0938 41.957 50.8668 47.85 45.1457C48.0615 44.9426 48.2681 44.7395 48.4846 44.5364C58.4021 35.1201 70.989 27.7742 83.9184 23.8561C84.3163 23.7372 84.7192 23.6183 85.1222 23.5044C86.9102 22.9942 88.6832 22.5534 90.4309 22.1769C96.2736 20.7949 102.202 19.9974 107.984 19.8587C108.332 19.8488 108.674 19.8439 109.022 19.8389C117.992 19.7399 128.413 21.1565 136.915 23.6233C137.056 23.6629 137.202 23.7075 137.344 23.7471C140.597 24.713 144.858 26.199 149.628 28.4231C153.794 30.137 157.516 31.94 160.563 33.634C160.669 33.6935 160.775 33.7529 160.88 33.8124C165.494 36.403 173.195 41.2622 180.609 48.3356C188.225 54.7156 194.652 62.5766 199.487 71.6214C199.724 72.0672 199.961 72.518 200.187 72.9687C202.948 78.3927 204.625 83.2272 206.428 89.2653C208.423 95.9375 210.306 103.377 210.583 112.551C210.603 113.294 210.619 114.037 210.619 114.78C210.619 137.204 200.792 158.226 183.49 173.17C179.995 176.38 176.434 179.526 171.851 182.676C171.735 182.755 171.619 182.834 171.498 182.914C162.114 189.289 149.9 194.559 138.819 197.011C138.492 197.085 138.159 197.155 137.827 197.224C130.7 198.705 123.744 199.121 118.179 199.121H118.184ZM179.103 176.712C179.103 176.712 179.073 176.732 179.063 176.742C179.078 176.732 179.093 176.722 179.103 176.712Z" fill="#FFEA4B"/>
</g>
<g opacity="0.55">
<path d="M117.302 201.251C115.765 201.251 114.395 201.216 113.227 201.162C112.985 201.152 112.748 201.142 112.507 201.127C104.241 200.691 94.6411 198.928 86.824 196.412C86.542 196.323 86.2649 196.228 85.9829 196.134C66.8683 189.744 49.5166 175.905 39.574 159.123C39.2818 158.632 38.9998 158.137 38.7177 157.637C28.9313 140.221 27.9944 122.151 28.3117 112.928C28.3168 112.769 28.3218 112.611 28.3319 112.452C28.6693 104.135 30.3567 91.4796 36.4814 78.4522C36.5569 78.2937 36.6325 78.1352 36.708 77.9767C38.5565 74.118 45.5023 60.6894 57.3387 49.9505C57.5402 49.7673 57.7416 49.5889 57.9431 49.4057C68.1325 40.3608 82.8651 32.7376 96.3889 29.5129C96.7263 29.4337 97.0638 29.3544 97.3962 29.2801C108.613 26.7638 118.913 26.8084 124.056 27.061C132.452 27.4722 137.721 28.339 141.05 29.0027C144.661 29.6368 148.227 30.4788 151.703 31.5339C151.914 31.5983 152.121 31.6627 152.327 31.7271C159.676 34.0255 170.46 38.2507 180.085 45.3092C180.357 45.5123 180.634 45.7105 180.901 45.9185C192.657 54.785 202.061 67.1982 207.379 80.8794C207.551 81.3202 207.717 81.766 207.883 82.2069C208.074 82.7319 208.261 83.252 208.437 83.7771C211.686 92.7724 212.819 100.99 213.116 107.102C213.131 107.464 213.146 107.826 213.162 108.187C213.459 116.945 212.275 126.059 209.732 134.539C209.596 134.995 209.455 135.451 209.308 135.906C204.649 150.43 195.392 164.23 183.586 174.419C180.367 177.569 176.867 180.645 173.316 183.241C173.104 183.399 172.887 183.553 172.671 183.706C164.607 189.467 154.977 193.9 148.65 196.134C148.328 196.248 148.001 196.362 147.673 196.471C135.973 200.424 124.696 201.251 117.307 201.251H117.302Z" fill="#FFEA4B"/>
</g>
<g opacity="0.55">
<path d="M112.053 213C100.308 213 87.0358 210.91 76.4586 207.269C76.2672 207.205 76.0758 207.136 75.8844 207.071C72.3234 205.813 68.7624 204.297 65.292 202.569C61.9829 201.296 58.5024 199.75 55.0019 197.883C54.8608 197.808 54.7148 197.729 54.5737 197.65C51.6575 196.07 47.4971 193.583 42.8884 190.116C29.4553 181.155 19.4724 169.866 13.1865 156.507C13.0002 156.116 12.8188 155.72 12.6426 155.323C7.38416 143.624 4.84058 130.67 5.28382 117.846C5.28382 117.816 5.28382 117.787 5.28382 117.757C5.28382 117.752 5.28382 117.747 5.28382 117.742C5.38455 115.062 6.01415 106.231 7.66622 98.7906C7.68636 98.7014 7.70651 98.6172 7.72666 98.5281C9.57012 90.355 12.9448 81.7808 15.2718 76.9215C15.3322 76.7977 15.3926 76.6689 15.4531 76.545C18.596 70.0809 23.4817 62.3834 27.909 56.9347C27.9695 56.8554 28.035 56.7811 28.1004 56.7019C32.3515 51.5107 39.816 43.9618 48.0159 38.3397C48.2375 38.1862 48.4641 38.0326 48.6908 37.884C58.3161 31.4298 70.3087 26.4715 81.586 24.2771C81.8781 24.2177 82.1753 24.1632 82.4674 24.1087C93.4778 22.0976 104.04 22.6722 109.409 23.2072C111.656 23.2567 113.872 23.3806 116.007 23.5638C116.184 23.5787 116.355 23.5936 116.531 23.6134C126.207 24.5297 134.764 26.942 137.993 27.9327C138.119 27.9723 138.245 28.012 138.371 28.0516C138.965 28.2398 139.574 28.4379 140.194 28.6509C144.244 29.5673 148.399 30.7611 152.474 32.3214C152.887 32.4799 153.3 32.6384 153.708 32.8068C163.696 36.824 172.752 42.7482 180.624 50.421C184.014 53.7199 187.086 57.2764 189.821 61.036C201.97 73.8801 209.52 90.5185 211.087 107.91C211.137 108.455 211.177 109 211.218 109.544C212.708 131.557 204.262 148.547 199.089 156.715C198.711 157.31 198.328 157.899 197.936 158.484C197.392 159.296 196.828 160.093 196.258 160.876C193.065 167.202 189.816 171.892 188.033 174.29C187.928 174.433 187.822 174.577 187.711 174.716C183.389 180.432 177.758 186.356 172.268 190.963C172.188 191.032 172.107 191.097 172.026 191.166C168.475 194.118 158.865 201.523 146.369 206.422C146.097 206.526 145.825 206.635 145.553 206.739C137.796 209.682 128.227 211.891 119.956 212.659C119.79 212.673 119.624 212.688 119.458 212.703C117.09 212.906 114.607 213.005 112.048 213.005L112.053 213Z" fill="#FFEA4B"/>
</g>
<g opacity="0.55">
<path d="M109.484 212.005C106.311 212.005 103.198 211.881 100.227 211.663C99.5166 211.673 98.8265 211.673 98.1617 211.663C97.8897 211.663 97.6127 211.658 97.3407 211.648C91.4023 211.524 76.1006 210.717 62.2494 205.932C62.053 205.863 61.8566 205.798 61.6601 205.724C58.492 204.599 47.3607 200.359 37.0504 192.895C36.859 192.756 36.6726 192.617 36.4813 192.479C29.0268 186.975 15.3973 174.899 7.83708 155.858C7.70612 155.521 7.57517 155.185 7.44421 154.848C2.211 141.077 0.715073 124.716 3.34931 109.965C3.39968 109.688 3.45004 109.411 3.50041 109.133C3.66159 108.281 3.83788 107.434 4.02424 106.602C5.14744 100.732 6.68366 95.8929 7.94789 92.4949C8.03855 92.2521 8.12921 92.0144 8.21988 91.7766C11.6348 82.9051 16.3089 75.4305 18.7921 71.765C18.8576 71.6659 18.923 71.5669 18.9936 71.4728C22.0055 67.0742 33.0159 51.9317 48.3227 41.8962C48.5343 41.7575 48.7458 41.6188 48.9624 41.4801C58.7086 35.229 69.8298 30.9988 81.3237 29.072C83.9831 28.4627 86.7584 27.9574 89.6294 27.5909C89.9114 27.5562 90.1884 27.5215 90.4705 27.4869C102.518 26.09 114.788 27.7544 116.148 27.9525C116.38 27.9872 116.611 28.0218 116.848 28.0565C118.692 28.3389 120.535 28.6806 122.373 29.0819C128.695 30.1419 135.147 31.826 140.712 33.9064C140.803 33.9411 140.894 33.9758 140.979 34.0055C155.893 39.6474 166.742 48.821 170.717 52.5014C170.883 52.6549 171.049 52.8085 171.215 52.967C171.905 53.6159 172.585 54.2846 173.255 54.9682C178.594 59.02 184.386 64.2706 189.383 70.7595C189.625 71.0765 189.866 71.3886 190.103 71.7105C198.348 82.7764 202.121 94.2533 203.838 101.931C203.979 102.56 204.11 103.189 204.236 103.818C206.468 115.196 206.09 127.54 203.289 139.096C201.209 149.419 197.265 159.341 191.725 167.994C191.534 168.296 191.337 168.598 191.136 168.896C184.034 179.644 175.335 187.193 170.782 190.74C170.636 190.854 170.485 190.968 170.339 191.082C164.693 195.411 157.545 199.75 151.214 202.697C151.058 202.772 150.902 202.841 150.746 202.915C148.041 204.154 138.375 208.349 127.576 210.425C127.304 210.474 127.038 210.529 126.766 210.578C121.139 211.599 115.211 212.01 109.474 212.01L109.484 212.005Z" fill="#FFEA4B"/>
</g>
<g opacity="0.55">
<path d="M96.7369 210.881C96.5959 210.881 96.4548 210.881 96.3289 210.881C96.1476 210.881 95.9663 210.881 95.7849 210.881C92.8586 210.846 85.1775 210.598 77.0481 209.092C76.8466 209.053 76.6452 209.018 76.4437 208.978C71.3918 207.998 66.3298 206.546 61.419 204.694C54.2365 202.252 46.7469 198.745 40.5667 194.911C40.3602 194.782 40.1537 194.653 39.9472 194.525C32.4071 189.75 18.3898 179.125 9.20774 161.619C9.03648 161.292 8.87027 160.965 8.70406 160.639C3.53632 150.42 0.554547 139.002 0.0710161 127.61C0.0559057 127.292 0.0458322 126.975 0.0357586 126.658C-0.387331 112.408 3.2593 99.9251 5.47044 93.7532C5.55607 93.5155 5.64169 93.2777 5.72732 93.0449C8.21045 86.3232 11.9326 78.9724 15.9369 72.8748C16.0074 72.7658 16.0829 72.6568 16.1535 72.5429C16.8939 71.4284 18.6769 68.8328 21.3917 65.4695C24.1871 61.6703 26.7659 58.6438 28.0805 57.1479C28.1762 57.0389 28.277 56.9249 28.3727 56.816C31.7725 52.992 44.1076 39.8903 60.0591 31.8659C60.4267 31.6826 60.7944 31.4993 61.1621 31.321C78.3375 23.0241 95.4374 22.4941 104.101 22.9201C104.262 22.93 104.423 22.9349 104.584 22.9448C121.528 23.8761 136.205 29.5427 141.73 31.9402C141.846 31.9897 141.962 32.0392 142.073 32.0888C151.104 36.0564 165.328 44.4127 175.688 54.904C175.845 55.0625 176.001 55.221 176.157 55.3844C186.251 65.7915 193.846 78.9872 197.538 92.5397C197.603 92.7774 197.669 93.0201 197.729 93.2579C198.686 96.9085 199.407 100.728 199.885 104.601C202.368 117.316 201.532 128.154 200.928 132.934C200.887 133.251 200.847 133.568 200.802 133.885C198.55 150.019 191.096 166.251 180.347 178.426C180.216 178.575 180.086 178.718 179.955 178.867C170.818 189.061 160.301 195.476 156.206 197.764C156.1 197.823 155.99 197.883 155.879 197.942C149.668 201.37 141.529 204.704 134.634 206.645C134.578 206.66 134.518 206.675 134.462 206.695C125.22 209.276 115.59 210.588 104.151 210.816C103.894 210.821 103.637 210.826 103.38 210.826C102.61 210.836 101.532 210.836 100.207 210.806C98.8171 210.856 97.6435 210.876 96.7268 210.876L96.7369 210.881Z" fill="#FFEA4B"/>
</g>
<g opacity="0.55">
<path d="M105.103 204.317C102.207 204.317 99.1444 204.213 95.941 204.01C87.9426 203.5 77.2948 202.306 65.8563 197.561C65.4433 197.387 65.0303 197.214 64.6173 197.036C49.1191 190.284 36.2552 179.417 27.4156 165.607C27.0379 165.017 26.6702 164.423 26.3126 163.823C23.5423 159.222 21.2808 154.358 19.523 149.256C16.3498 141.073 14.8337 133.291 14.1638 126.866C13.0155 117.673 13.7659 109.827 14.8539 103.764C15.5439 99.4743 16.6218 94.6497 18.299 89.627C18.5458 88.567 18.8078 87.5119 19.0999 86.4569C19.2057 86.0755 19.3114 85.694 19.4222 85.3126C22.0867 76.1836 27.5516 63.4435 38.6829 51.8576C43.6139 46.0572 47.7189 42.7731 49.5825 41.2772C49.9401 40.9899 50.2977 40.7076 50.6604 40.4302C62.3809 31.3903 74.7211 27.0957 85.1824 25.1788C96.9383 22.4891 109.288 22.5238 121.336 25.3769C122.213 25.5007 123.089 25.6394 123.966 25.788C134.16 26.9669 147.019 30.0975 159.279 37.7108C159.828 38.0526 160.371 38.3993 160.91 38.751C162.008 39.4742 163.091 40.2221 164.154 40.9998C168.657 43.9223 173.734 47.6968 178.358 52.2737C178.6 52.5114 178.841 52.7542 179.083 52.9969C179.652 53.5764 180.216 54.1708 180.775 54.7702C184.115 58.2128 187.147 61.8882 189.751 65.6924C189.988 66.0391 190.219 66.3858 190.451 66.7326C197.81 77.8826 202.277 90.7762 203.37 104.021C203.406 104.452 203.436 104.888 203.466 105.319C204.257 117.529 202.066 128.328 199.714 136.005C199.608 136.491 199.502 136.981 199.386 137.472C199.316 137.774 199.245 138.076 199.17 138.373C195.14 154.675 185.419 170.446 172.49 181.646C172.263 181.844 172.037 182.037 171.805 182.23C159.681 192.484 146.586 197.506 139.862 199.587C139.585 199.671 139.308 199.755 139.031 199.839C131.778 201.994 123.487 203.381 115.569 203.797C114.859 203.871 114.335 203.921 114.028 203.951C113.983 203.951 113.937 203.961 113.892 203.961C111.167 204.198 108.226 204.317 105.098 204.317H105.103Z" fill="#FFEA4B"/>
</g>
<g opacity="0.55">
<path d="M108.437 209.251C99.3963 209.251 89.217 208.201 81.1934 206.353C81.0372 206.318 80.8811 206.279 80.725 206.244C70.052 203.713 58.7545 198.715 49.7236 192.528C49.4818 192.365 49.2401 192.196 49.0033 192.028C44.5458 188.897 40.2746 185.187 36.366 181.101C36.2603 181.007 36.1595 180.908 36.0538 180.813C27.325 172.754 20.4549 162.704 16.1736 151.747C10.5324 137.293 9.44445 121.413 13.0004 106.463C13.625 101.059 14.9144 93.6243 17.5738 85.9763C18.4301 82.3009 19.5835 78.4323 21.1298 74.534C21.291 74.1278 21.4572 73.7217 21.6234 73.3205C26.1867 62.3884 33.48 51.8823 42.1533 43.729C42.4958 43.4071 42.8433 43.0851 43.1909 42.773C54.8309 32.2372 70.6161 24.6289 86.4971 21.8996C86.7741 21.85 87.0512 21.8054 87.3282 21.7609C91.7454 21.0525 96.1728 20.7603 100.021 20.6711C108.649 20.1213 118.4 20.7355 126.383 22.38C126.62 22.4296 126.852 22.4791 127.089 22.5286C128.025 22.7317 130.216 23.2023 134.785 24.51C141.464 26.422 159.107 31.4744 174.067 48.7914C182.085 55.206 191.962 65.3852 198.52 80.062C198.671 80.4038 198.827 80.7505 198.973 81.0972C207.445 100.856 205.703 120.229 204.559 127.639C204.539 127.768 204.519 127.897 204.499 128.02C203.119 136.649 199.845 146.848 195.896 154.828C193.015 161 189.283 166.8 184.765 172.051C183.823 173.24 183.072 174.141 182.609 174.681C182.564 174.731 182.523 174.785 182.478 174.835C177.31 180.853 170.924 186.45 166.663 189.68C166.562 189.754 166.466 189.829 166.365 189.903C159.551 195.02 151.099 199.711 143.176 202.772C143.005 202.836 142.833 202.905 142.662 202.97C134.624 206.011 124.792 208.245 116.375 208.949C116.27 208.958 116.164 208.968 116.058 208.973C113.676 209.162 111.102 209.256 108.437 209.256V209.251Z" fill="#FFEA4B"/>
</g>
<g opacity="0.55">
<path d="M133.686 199.503C130.171 199.503 126.68 199.26 123.24 198.794C118.344 198.978 113.408 198.7 108.482 197.937C90.5866 196.273 73.4313 188.536 60.24 175.127C59.8824 174.766 59.5298 174.399 59.1822 174.028C50.1916 164.512 35.6454 143.951 39.2366 113.136C39.5287 110.649 39.9367 108.024 40.4605 105.319C42.1529 96.5817 44.6008 89.008 47.9553 82.1575C48.051 81.9643 48.1467 81.7711 48.2424 81.573C51.6623 74.7324 59.3636 61.7546 72.5096 51.6794C72.6707 51.5556 72.8319 51.4318 72.9931 51.3129C86.8594 40.8613 103.128 35.4918 119.372 35.1698C125.119 34.1693 129.974 33.981 133.545 33.9464C170.067 33.6194 190.254 55.3598 197.24 64.7117C206.644 77.3081 211.585 92.089 212.038 106.984C213.328 115.845 213.021 124.999 210.976 134.019C210.467 136.273 209.847 138.497 209.132 140.696C208.296 143.247 207.344 145.724 206.266 148.131C198.751 170.149 181.012 188.452 156.775 195.986C149.104 198.368 141.332 199.503 133.696 199.503H133.686Z" fill="#FFEA4B"/>
</g>
<g opacity="0.55">
<path d="M89.7352 191.651C74.6853 191.651 60.5823 187.342 48.6854 179.877C23.2144 166.677 7.2025 140.31 7.89254 111.556C8.24511 96.9282 12.4307 82.5536 20.011 69.977C20.142 69.759 20.2729 69.5411 20.4089 69.3231C20.6709 68.9021 21.0889 68.2284 21.6631 67.3566C22.6805 65.6329 23.7735 63.8794 24.9471 62.0912C31.8172 51.6346 39.0551 43.9024 47.7184 37.7553C48.081 37.4977 48.4437 37.2451 48.8113 36.9974C54.5231 33.0942 59.6152 30.6819 66.1782 27.7099C100.509 12.1514 141.246 23.5788 162.058 54.6067C174.917 73.7762 177.793 96.8737 171.497 117.609C169.775 123.478 167.322 129.16 164.159 134.514C164.103 134.623 164.048 134.732 163.992 134.841C155.913 166.365 127.516 190.25 92.8127 191.592C91.7851 191.632 90.7627 191.651 89.7452 191.651H89.7352Z" fill="#FFEA4B"/>
</g>
<g opacity="0.55">
<path d="M83.092 205.204C68.5659 205.204 54.3018 201.127 42.0523 193.504C19.6789 181.73 4.24122 159.455 1.92934 133.89C-0.040045 122.195 0.136243 106.399 8.28072 89.2259C18.6716 64.7513 41.0047 47.2312 67.9464 43.323C85.1269 40.8315 102.448 44.2493 117.136 52.4967C132.79 58.8766 146.399 70.3833 155.088 86.1796C169.145 111.729 166.617 141.737 151.124 164.235C144.208 177.549 133.193 188.977 118.727 196.486C107.344 202.395 95.1249 205.199 83.087 205.199L83.092 205.204Z" fill="#FFEA4B"/>
</g>
<g opacity="0.55">
<path d="M127.839 206.541C115.011 206.541 102.036 203.371 90.149 196.739C85.0568 193.9 80.423 190.567 76.2626 186.832C74.0968 185.049 72.0368 183.146 70.0926 181.145C52.1213 165.914 41.5894 142.707 43.7704 117.688C47.1903 78.472 80.6144 48.8706 119.906 48.8706C120.188 48.8706 120.47 48.8706 120.753 48.8706C134.866 46.8695 149.714 48.7171 163.626 55.0277C194.874 69.1894 211.797 101.461 207.451 133.33C205.637 152.763 196.667 165.661 191.026 173.77C176.288 194.955 152.333 206.531 127.829 206.531L127.839 206.541Z" fill="#FFEA4B"/>
</g>
<g opacity="0.55">
<path d="M94.5357 166.543C70.601 166.543 47.1346 155.086 32.9863 133.96C10.628 100.564 20.0266 55.6717 53.9796 33.6787L69.3518 23.7224C103.3 1.73445 148.953 10.9774 171.316 44.3681C193.675 77.7587 184.276 122.656 150.323 144.644L134.951 154.6C122.48 162.679 108.427 166.543 94.5307 166.543H94.5357Z" fill="#FFEA4B"/>
</g>
<g opacity="0.55">
<path d="M94.4097 180.254C88.5217 180.254 82.538 179.555 76.5694 178.094C37.1163 168.435 13.1009 129.15 22.9227 90.3553L27.3701 72.7906C37.1918 33.9909 77.1335 10.3683 116.587 20.0323C156.04 29.6914 180.055 68.9765 170.233 107.771L165.786 125.336C157.45 158.261 127.421 180.254 94.4097 180.254Z" fill="#FFEA4B"/>
</g>
<path d="M47.8703 152.22C61.4229 152.22 72.4094 142.096 72.4094 129.608C72.4094 117.119 61.4229 106.995 47.8703 106.995C34.3176 106.995 23.3311 117.119 23.3311 129.608C23.3311 142.096 34.3176 152.22 47.8703 152.22Z" fill="#FFDB27"/>
<path d="M166.778 154.34C180.331 154.34 191.318 144.216 191.318 131.728C191.318 119.239 180.331 109.116 166.778 109.116C153.226 109.116 142.239 119.239 142.239 131.728C142.239 144.216 153.226 154.34 166.778 154.34Z" fill="#FFDB27"/>
<ellipse cx="61.8304" cy="89.7266" rx="34.055" ry="33.1324" fill="white"/>
<ellipse cx="62.2966" cy="88.3268" rx="22.3923" ry="22.3993" fill="#2E2C2C"/>
<ellipse cx="154.199" cy="89.7266" rx="34.055" ry="33.1324" fill="white"/>
<ellipse cx="154.199" cy="88.3268" rx="21.9258" ry="22.3993" fill="#2E2C2C"/>
<g clip-path="url(#clip1_662_5691)">
<path d="M81.9663 130.855C99.5346 130.761 117.103 130.667 134.671 130.573C136.763 130.557 138.57 128.148 138.292 125.97C137.982 123.533 136.202 122.021 133.961 122.038C116.382 122.132 98.824 122.225 81.2547 122.308C79.1632 122.323 77.3573 124.745 77.6346 126.922C77.9444 129.36 79.7253 130.871 81.9663 130.855Z" fill="#1D1D1B"/>
<path d="M77.8051 128.214C77.8225 134.195 79.4457 140.224 82.4938 145.285C85.9516 151.033 91.2024 154.59 97.2508 156.441C109.238 160.107 124.128 159.402 132.913 148.967C137.674 143.316 138.715 135.814 139.268 128.467C139.435 126.241 138.336 123.812 136.053 123.455C134.084 123.151 131.588 124.461 131.413 126.848C131.199 129.674 130.977 132.512 130.44 135.296C130.17 136.671 129.927 137.609 129.552 138.614C129.334 139.206 129.084 139.788 128.811 140.362C128.456 141.102 128.289 141.403 128.059 141.72C127.448 142.585 126.511 143.776 126.02 144.287C125.488 144.825 124.217 145.849 123.328 146.451C122.216 147.209 122.043 147.304 120.776 147.869C119.613 148.391 118.41 148.813 117.188 149.146C112.176 150.508 106.445 149.902 101.209 148.704C98.6073 148.11 96.6266 147.406 94.2354 146.003C93.4602 145.541 93.8309 145.762 94.0235 145.895C93.8078 145.741 93.5912 145.576 93.3746 145.411C92.8951 145.038 92.4456 144.641 91.9941 144.22C91.6004 143.853 91.2261 143.46 90.8613 143.055C90.3552 142.491 91.4048 143.812 90.6352 142.776C90.4313 142.507 90.2167 142.239 90.0224 141.957C89.6232 141.395 89.2443 140.819 88.8962 140.23C88.7588 139.989 88.6213 139.749 88.4838 139.508C88.3713 139.311 88.0503 138.662 88.3079 139.191C87.7005 137.924 87.206 136.602 86.7945 135.25C86.5882 134.568 86.4138 133.884 86.2596 133.186C86.2969 133.378 86.3848 133.92 86.2483 133.049C86.1814 132.631 86.1039 132.213 86.0467 131.783C85.855 130.378 85.7693 128.964 85.7684 127.543C85.763 125.297 83.4429 123.338 81.4368 123.61C79.1346 123.919 77.797 125.808 77.8051 128.214Z" fill="#1D1D1B"/>
</g>
</g>
<defs>
<clipPath id="clip0_662_5691">
<rect width="215" height="213" fill="white"/>
</clipPath>
<clipPath id="clip1_662_5691">
<rect width="61.4106" height="38.611" fill="white" transform="matrix(0.996468 -0.0839712 0.0829695 0.996552 77.2354 122.646)"/>
</clipPath>
</defs>
</svg>
