<svg width="51" height="50" viewBox="0 0 51 50" fill="none" xmlns="http://www.w3.org/2000/svg">
<g clip-path="url(#clip0_839_1989)">
<g opacity="0.55">
<path d="M28.2778 39.2749C21.2418 39.2749 14.612 35.1064 11.9572 28.3274L11.3287 26.7228C7.89497 17.9521 12.4172 8.13375 21.4293 4.79197C30.4415 1.45019 40.5301 5.85125 43.9639 14.622L44.5924 16.2266C48.0261 24.9973 43.5039 34.8157 34.4918 38.1574C32.4463 38.9156 30.3435 39.276 28.2778 39.276V39.2749Z" fill="#FFEA4B"/>
</g>
<g opacity="0.55">
<path d="M29.1937 39.0726C27.8221 39.0726 26.4302 38.9144 25.0394 38.5842C15.67 36.3587 9.92916 27.1635 12.216 18.0452L12.3665 17.444C14.6545 8.32564 24.1027 2.73857 33.4709 4.9641C42.8403 7.18963 48.5812 16.3847 46.2944 25.5031L46.1439 26.1043C44.1964 33.868 37.0553 39.0726 29.1937 39.0726Z" fill="#FFEA4B"/>
</g>
<g opacity="0.55">
<path d="M25.6883 45.5898C16.8207 45.5898 9.23035 39.0434 8.33308 30.2774L8.32949 30.2471C8.32591 30.2111 8.32233 30.175 8.31755 30.139C8.31277 30.0948 8.30799 30.0506 8.30321 30.0053L8.29723 29.9541C8.29126 29.8995 8.28529 29.8471 8.27931 29.7925L8.23152 29.3576C8.22555 29.3076 8.21958 29.253 8.2148 29.203L8.18971 28.9646C8.18134 28.8913 8.17298 28.8181 8.16581 28.7437L8.15386 28.6332C8.14908 28.5937 8.1455 28.553 8.14072 28.5134L8.12758 28.3867C8.11921 28.3146 8.11205 28.2414 8.10368 28.1693C8.08696 28.0204 8.07142 27.8728 8.05589 27.7239L8.01766 27.3739C8.01288 27.3297 8.0081 27.2856 8.00332 27.2402L7.90177 26.3007C7.88504 26.1495 7.86951 26.0054 7.85397 25.8612C7.85039 25.8251 7.84561 25.7903 7.84203 25.7542L7.83725 25.703C7.82411 25.5786 7.81096 25.4542 7.79663 25.3286C7.79304 25.2972 7.78946 25.267 7.78707 25.2356L7.74406 24.8345C7.72494 24.6682 7.70821 24.5019 7.69029 24.3356L7.65206 23.9868C7.64728 23.9496 7.6437 23.9124 7.64011 23.8752L7.60666 23.5612C7.59112 23.4205 7.57559 23.2798 7.56126 23.1392L7.53378 22.8926C7.529 22.8473 7.52422 22.8008 7.51944 22.7554L7.51108 22.6752C7.50391 22.6089 7.49674 22.5415 7.48957 22.4752L7.47165 22.3159C7.46328 22.2462 7.45731 22.1834 7.45014 22.1136L7.44536 22.0729C7.44058 22.0334 7.437 21.9938 7.43222 21.9555C7.42744 21.9124 7.42266 21.8683 7.41788 21.8252L7.4143 21.795C6.3629 12.4696 13.2735 4.07799 22.8555 3.04778C32.4412 2.01758 41.0698 8.74416 42.1284 18.073L42.1535 18.3032C42.1606 18.366 42.1678 18.43 42.1738 18.4928L42.1774 18.523C42.1821 18.5683 42.1869 18.6137 42.1917 18.659C42.1977 18.7114 42.2036 18.7637 42.2084 18.816L42.2144 18.8753C42.2192 18.9218 42.2252 18.9788 42.2311 19.0253L42.2873 19.5427C42.2921 19.5799 42.2956 19.6183 42.2992 19.6555C42.3088 19.7416 42.316 19.8206 42.3255 19.9009C42.3303 19.9416 42.3351 19.9811 42.3387 20.0218L42.4175 20.745C42.4211 20.7753 42.4247 20.8055 42.4271 20.8357C42.439 20.9497 42.451 21.0613 42.4629 21.1729C42.4677 21.2101 42.4713 21.2473 42.4749 21.2845L42.5179 21.6869C42.537 21.8601 42.5549 22.0322 42.574 22.2043C42.5943 22.3868 42.6135 22.5682 42.6338 22.7508C42.6338 22.7613 42.6362 22.7787 42.6373 22.7892L42.7353 23.6961C42.7449 23.7868 42.7556 23.8787 42.7652 23.9694L42.7819 24.1263C42.7867 24.1659 42.7903 24.2042 42.7951 24.2438C42.8058 24.3449 42.8166 24.4461 42.8273 24.5473C42.8321 24.5891 42.8369 24.631 42.8405 24.674L42.9074 25.2903C42.9133 25.3426 42.9193 25.3949 42.9241 25.4472L42.9791 25.9507C42.985 25.9995 42.991 26.0542 42.9958 26.103L43.0018 26.1623C43.0089 26.224 43.0149 26.2856 43.0221 26.3472L43.0376 26.4879C43.0448 26.5519 43.0519 26.6112 43.0579 26.6751L43.0615 26.7088C43.0687 26.7809 43.077 26.8519 43.0842 26.9239C44.0328 36.2644 37.0219 44.584 27.4243 45.5072C26.8413 45.563 26.2606 45.5909 25.6859 45.5909L25.6883 45.5898Z" fill="#FFEA4B"/>
</g>
<g opacity="0.55">
<path d="M18.1826 46.991C9.0641 46.991 1.38769 40.1016 0.775967 31.1181L0.6314 28.9914C-0.00421846 19.6277 7.2803 11.5337 16.903 10.9139C26.5281 10.2954 34.8425 17.3835 35.4793 26.7484L35.6239 28.8751C36.2607 38.24 28.9762 46.334 19.3535 46.9537C18.9616 46.9793 18.5709 46.991 18.1838 46.991H18.1826Z" fill="#FFEA4B"/>
</g>
<g opacity="0.55">
<path d="M27.5653 48.3188C23.8723 48.3188 21.1111 47.2211 19.9869 46.77C18.2198 46.1258 16.7455 45.42 15.3679 44.5595C15.3285 44.5351 15.289 44.5107 15.2496 44.4851C14.6223 44.0875 12.4311 42.6305 10.5541 40.6027C10.5183 40.5643 10.4825 40.5248 10.4478 40.4864C9.20286 39.1178 6.94952 36.2423 5.85153 32.3633C5.82883 32.2819 5.80613 32.1994 5.78342 32.118C4.91005 28.8518 5.09643 25.8158 5.28521 24.2961C5.28998 24.26 5.29357 24.2252 5.29835 24.1903C5.34614 23.8217 5.41902 23.3577 5.52894 22.8194C5.57314 22.5345 5.62333 22.2473 5.68187 21.9636C5.69501 21.8973 5.70935 21.8322 5.72369 21.7659C6.28164 19.1823 7.35455 16.9626 7.85635 16.0126C8.68313 13.7208 9.86715 11.9208 10.5314 11.0127C10.627 10.8825 10.7238 10.7534 10.823 10.6267C13.2997 7.43255 16.8518 5.04889 20.8268 3.91404C20.9702 3.87334 21.1123 3.8338 21.2569 3.7966C21.8208 3.65009 23.5353 3.20475 26.2475 3.15126C26.4064 3.14777 26.5653 3.14661 26.7242 3.14777C31.6287 3.17568 36.1175 4.80587 39.5512 7.72324C41.2096 8.67671 43.9862 10.5941 46.1703 13.708C47.0413 14.6917 47.9027 15.8463 48.6351 17.1672C48.6829 17.2532 48.7307 17.3404 48.7761 17.4277C50.9983 21.6008 51.5993 26.7809 50.3842 31.2843C50.3603 31.3738 50.3352 31.4645 50.309 31.5541C49.0509 35.9319 46.316 39.0027 44.7975 40.4434C44.7581 40.4817 44.7174 40.519 44.6768 40.5562C43.5943 41.5643 42.2634 42.5515 40.844 43.4224C40.6528 43.5642 40.4593 43.7038 40.2609 43.8386L39.4138 44.4212C39.3684 44.4526 39.323 44.4828 39.2776 44.5142C36.0255 46.706 32.6036 47.9653 29.1101 48.256C29.0026 48.2653 28.8951 48.2734 28.7864 48.2804C28.3694 48.3083 27.9632 48.3199 27.5665 48.3199L27.5653 48.3188Z" fill="#FFEA4B"/>
</g>
<g opacity="0.55">
<path d="M28.034 46.742C27.5991 46.742 27.1989 46.7316 26.8452 46.7153C26.8165 46.7141 26.7867 46.713 26.758 46.7106C25.5525 46.6513 24.0244 46.4641 22.4042 46.1165C19.7053 45.7595 16.9394 44.8607 14.6143 43.5828C14.5462 43.5456 14.4793 43.5084 14.4112 43.47C10.2666 41.1247 7.15896 37.526 5.66191 33.3342C5.60695 33.1807 5.55438 33.0261 5.50301 32.8703C3.96175 28.139 4.7503 23.531 5.16011 21.7694C5.16967 21.7264 5.18042 21.6834 5.18998 21.6415C5.21387 21.5427 5.23777 21.4438 5.26405 21.345C5.6428 19.5764 6.31784 17.5242 7.50425 15.4719C7.54726 15.3975 7.59027 15.3242 7.63329 15.251C8.59747 13.637 9.95234 11.9406 11.3502 10.5976C11.4004 10.5499 11.4494 10.5022 11.5008 10.4546C13.8533 8.24415 16.839 6.51977 19.906 5.60003C20.0004 5.57212 20.0959 5.54422 20.1915 5.51747C20.6157 5.39771 21.0362 5.29422 21.4508 5.20585C22.8368 4.88144 24.243 4.69424 25.6146 4.66168C25.697 4.65935 25.7783 4.65819 25.8607 4.65703C27.9886 4.63377 30.4606 4.96632 32.4774 5.54538C32.5108 5.55468 32.5455 5.56514 32.5789 5.57445C33.3507 5.80119 34.3615 6.15001 35.493 6.67209C36.481 7.07441 37.364 7.49766 38.0868 7.89532C38.1119 7.90927 38.137 7.92323 38.1621 7.93718C39.2565 8.5453 41.0833 9.68597 42.842 11.3464C44.6485 12.844 46.173 14.6893 47.32 16.8125C47.3762 16.9172 47.4323 17.023 47.4861 17.1288C48.1408 18.402 48.5387 19.5369 48.9664 20.9543C49.4395 22.5205 49.8864 24.267 49.9521 26.4204C49.9569 26.5949 49.9604 26.7693 49.9604 26.9437C49.9604 32.2075 47.6294 37.1423 43.5254 40.6503C42.6962 41.4038 41.8515 42.1422 40.7643 42.8817C40.7368 42.9003 40.7093 42.9189 40.6807 42.9375C38.4548 44.434 35.5575 45.6711 32.929 46.2467C32.8513 46.2641 32.7725 46.2804 32.6936 46.2967C31.003 46.6444 29.353 46.742 28.0328 46.742H28.034ZM42.4848 41.4817C42.4848 41.4817 42.4776 41.4864 42.4752 41.4887C42.4788 41.4864 42.4824 41.484 42.4848 41.4817Z" fill="#FFEA4B"/>
</g>
<g opacity="0.55">
<path d="M27.8242 47.2421C27.4598 47.2421 27.1348 47.2339 26.8576 47.2211C26.8003 47.2188 26.7441 47.2165 26.6868 47.213C24.7262 47.1107 22.4489 46.6967 20.5946 46.106C20.5277 46.0851 20.462 46.063 20.3951 46.0409C15.861 44.541 11.745 41.2922 9.3865 37.3528C9.3172 37.2377 9.25029 37.1214 9.18339 37.0039C6.86194 32.9157 6.63972 28.6739 6.71499 26.5089C6.71618 26.4716 6.71738 26.4344 6.71977 26.3972C6.79982 24.445 7.20006 21.4741 8.65291 18.416C8.67083 18.3788 8.68875 18.3416 8.70667 18.3044C9.14515 17.3986 10.7927 14.2464 13.6005 11.7255C13.6482 11.6825 13.696 11.6406 13.7438 11.5976C16.1608 9.47439 19.6556 7.6849 22.8635 6.92794C22.9436 6.90934 23.0236 6.89073 23.1025 6.87329C25.7632 6.28261 28.2065 6.29307 29.4264 6.35237C31.4181 6.44888 32.6678 6.65237 33.4576 6.80818C34.3142 6.95701 35.1601 7.15468 35.9845 7.40235C36.0347 7.41746 36.0837 7.43258 36.1326 7.44769C37.8758 7.98722 40.4338 8.97905 42.717 10.636C42.7815 10.6837 42.8473 10.7302 42.9106 10.779C45.6992 12.8604 47.9298 15.7742 49.1915 18.9858C49.2321 19.0893 49.2715 19.1939 49.311 19.2974C49.3564 19.4207 49.4006 19.5427 49.4424 19.666C50.213 21.7776 50.4818 23.7066 50.5523 25.1414C50.5559 25.2263 50.5595 25.3112 50.5631 25.3961C50.6336 27.4519 50.3528 29.5913 49.7495 31.582C49.7172 31.689 49.6837 31.7959 49.6491 31.9029C48.5439 35.3121 46.3479 38.5516 43.5474 40.9434C42.7839 41.6829 41.9536 42.405 41.1113 43.0143C41.0611 43.0515 41.0097 43.0875 40.9583 43.1236C39.0455 44.4759 36.7611 45.5165 35.2605 46.0409C35.184 46.0677 35.1063 46.0944 35.0287 46.12C32.2532 47.0479 29.5781 47.2421 27.8254 47.2421H27.8242Z" fill="#FFEA4B"/>
</g>
<g opacity="0.55">
<path d="M26.5797 50.0001C23.7935 50.0001 20.6453 49.5095 18.1362 48.6548C18.0908 48.6397 18.0454 48.6234 18 48.6083C17.1553 48.313 16.3106 47.9572 15.4874 47.5514C14.7025 47.2525 13.8769 46.8898 13.0465 46.4514C13.0131 46.434 12.9784 46.4153 12.945 46.3967C12.2532 46.0258 11.2663 45.4421 10.1731 44.6282C6.98665 42.5247 4.61861 39.8748 3.12754 36.7388C3.08333 36.647 3.04032 36.554 2.9985 36.4609C1.75116 33.7145 1.1478 30.6739 1.25294 27.6635C1.25294 27.6565 1.25294 27.6495 1.25294 27.6426C1.25294 27.6414 1.25294 27.6402 1.25294 27.6391C1.27683 27.01 1.42618 24.9368 1.81807 23.1903C1.82285 23.1694 1.82762 23.1496 1.8324 23.1287C2.26969 21.2102 3.07019 19.1974 3.62217 18.0567C3.63651 18.0277 3.65084 17.9974 3.66518 17.9684C4.41072 16.451 5.56965 14.644 6.61985 13.365C6.63419 13.3464 6.64972 13.3289 6.66525 13.3103C7.67364 12.0918 9.44429 10.3197 11.3894 8.99999C11.4419 8.96394 11.4957 8.92789 11.5495 8.89301C13.8327 7.37793 16.6774 6.21401 19.3525 5.6989C19.4218 5.68495 19.4923 5.67216 19.5616 5.65937C22.1734 5.18729 24.6788 5.32217 25.9524 5.44775C26.4853 5.45938 27.011 5.48844 27.5176 5.53147C27.5594 5.53495 27.6 5.53844 27.6418 5.54309C29.937 5.75821 31.9669 6.32447 32.7328 6.55702C32.7626 6.56632 32.7925 6.57563 32.8224 6.58493C32.9634 6.62911 33.1079 6.67562 33.2549 6.72562C34.2155 6.94073 35.2012 7.22096 36.1677 7.58723C36.2657 7.62444 36.3637 7.66165 36.4605 7.70118C38.8297 8.64418 40.9779 10.0348 42.8453 11.836C43.6494 12.6104 44.3782 13.4452 45.027 14.3278C47.9087 17.3428 49.6997 21.2485 50.0713 25.331C50.0832 25.4589 50.0928 25.5868 50.1023 25.7147C50.456 30.882 48.4524 34.8703 47.2253 36.7877C47.1357 36.9272 47.0449 37.0656 46.9517 37.2028C46.8227 37.3935 46.6889 37.5807 46.5539 37.7644C45.7964 39.2492 45.0258 40.3504 44.6028 40.9132C44.5777 40.9469 44.5526 40.9806 44.5264 41.0132C43.5012 42.355 42.1655 43.7456 40.8632 44.827C40.8441 44.8433 40.825 44.8584 40.8058 44.8747C39.9635 45.5677 37.6839 47.306 34.7197 48.456C34.6552 48.4804 34.5906 48.506 34.5261 48.5304C32.6862 49.2211 30.4161 49.7397 28.4543 49.9199C28.4149 49.9234 28.3754 49.9269 28.336 49.9304C27.7745 49.9781 27.1854 50.0013 26.5785 50.0013L26.5797 50.0001Z" fill="#FFEA4B"/>
</g>
<g opacity="0.55">
<path d="M25.9704 49.7664C25.2177 49.7664 24.4793 49.7374 23.7744 49.6862C23.606 49.6885 23.4423 49.6885 23.2846 49.6862C23.22 49.6862 23.1543 49.6851 23.0898 49.6827C21.6812 49.6537 18.0515 49.4641 14.7658 48.3409C14.7192 48.3246 14.6727 48.3095 14.6261 48.2921C13.8745 48.0281 11.2341 47.0328 8.7884 45.2805C8.743 45.248 8.69879 45.2154 8.65339 45.1828C6.88513 43.891 3.65208 41.0562 1.85873 36.5865C1.82766 36.5075 1.7966 36.4284 1.76554 36.3493C0.524169 33.1169 0.169322 29.2763 0.794187 25.8136C0.806135 25.7484 0.818083 25.6833 0.830031 25.6182C0.868263 25.4182 0.91008 25.2194 0.954287 25.024C1.22072 23.6462 1.58513 22.5101 1.88501 21.7125C1.90652 21.6555 1.92803 21.5997 1.94953 21.5439C2.75959 19.4614 3.86833 17.7068 4.45736 16.8463C4.47289 16.8231 4.48842 16.7998 4.50515 16.7777C5.21962 15.7452 7.83139 12.1906 11.4623 9.83488C11.5125 9.80232 11.5627 9.76976 11.614 9.73721C13.9259 8.2698 16.564 7.2768 19.2904 6.82449C19.9213 6.68147 20.5796 6.56286 21.2606 6.47682C21.3275 6.46868 21.3932 6.46054 21.4601 6.4524C24.318 6.1245 27.2285 6.51519 27.5511 6.5617C27.6061 6.56984 27.661 6.57798 27.7172 6.58612C28.1545 6.6524 28.5917 6.73263 29.0278 6.82681C30.5273 7.07564 32.0578 7.47098 33.378 7.95934C33.3995 7.96748 33.421 7.97562 33.4413 7.9826C36.979 9.30698 39.5526 11.4604 40.4952 12.3244C40.5347 12.3604 40.5741 12.3964 40.6135 12.4337C40.7772 12.586 40.9385 12.7429 41.0974 12.9034C42.3639 13.8545 43.7379 15.0871 44.9231 16.6103C44.9804 16.6847 45.0378 16.758 45.0939 16.8335C47.0498 19.4312 47.9446 22.1253 48.3521 23.9276C48.3855 24.0752 48.4166 24.2229 48.4464 24.3706C48.9757 27.0414 48.8861 29.939 48.2218 32.6518C47.7284 35.0749 46.7929 37.404 45.4786 39.4353C45.4332 39.5062 45.3866 39.5772 45.3388 39.6469C43.6542 42.1701 41.5909 43.9422 40.5108 44.7747C40.4761 44.8015 40.4403 44.8282 40.4056 44.8549C39.0663 45.8712 37.3709 46.8898 35.8691 47.5816C35.8321 47.5991 35.795 47.6153 35.758 47.6328C35.1164 47.9235 32.8236 48.9083 30.262 49.3955C30.1975 49.4072 30.1342 49.4199 30.0697 49.4316C28.7351 49.6711 27.3289 49.7676 25.968 49.7676L25.9704 49.7664Z" fill="#FFEA4B"/>
</g>
<g opacity="0.55">
<path d="M22.9464 49.5025C22.913 49.5025 22.8795 49.5025 22.8497 49.5025C22.8066 49.5025 22.7636 49.5025 22.7206 49.5025C22.0265 49.4943 20.2044 49.4362 18.2761 49.0827C18.2283 49.0734 18.1805 49.0653 18.1327 49.056C16.9343 48.8258 15.7336 48.4851 14.5687 48.0502C12.865 47.477 11.0883 46.6537 9.62234 45.7537C9.57336 45.7235 9.52437 45.6933 9.47538 45.663C7.68681 44.5421 4.36176 42.048 2.1837 37.9388C2.14307 37.8621 2.10365 37.7853 2.06422 37.7086C0.838385 35.3098 0.13108 32.6296 0.0163824 29.9553C0.0127981 29.8809 0.0104085 29.8065 0.00801898 29.732C-0.0923418 26.3868 0.772672 23.4566 1.29718 22.0078C1.31749 21.952 1.3378 21.8962 1.35811 21.8415C1.94713 20.2637 2.83007 18.5381 3.77991 17.1068C3.79664 17.0812 3.81456 17.0556 3.83129 17.0289C4.00692 16.7672 4.42987 16.158 5.07385 15.3684C5.73695 14.4766 6.34867 13.7661 6.6605 13.415C6.6832 13.3894 6.7071 13.3627 6.7298 13.3371C7.53627 12.4394 10.4623 9.36393 14.2461 7.48026C14.3333 7.43723 14.4205 7.39421 14.5078 7.35235C18.5819 5.40473 22.6382 5.28031 24.6932 5.38031C24.7314 5.38263 24.7696 5.3838 24.8079 5.38612C28.8271 5.60472 32.3087 6.93492 33.6193 7.4977C33.6468 7.50933 33.6743 7.52095 33.7006 7.53258C35.8428 8.46395 39.2168 10.4255 41.6745 12.8883C41.7115 12.9255 41.7485 12.9627 41.7856 13.0011C44.1799 15.444 45.9816 18.5416 46.8574 21.7229C46.8729 21.7787 46.8885 21.8357 46.9028 21.8915C47.1298 22.7485 47.3006 23.645 47.4142 24.5543C48.0032 27.5391 47.8048 30.0832 47.6615 31.2053C47.6519 31.2797 47.6423 31.3541 47.6316 31.4285C47.0975 35.2156 45.3293 39.026 42.7796 41.8841C42.7486 41.919 42.7175 41.9527 42.6864 41.9876C40.5191 44.3805 38.0244 45.8863 37.0531 46.4235C37.028 46.4374 37.0017 46.4514 36.9754 46.4654C35.5023 47.27 33.5715 48.0525 31.9359 48.5083C31.9227 48.5118 31.9084 48.5153 31.8953 48.52C29.7029 49.1258 27.4185 49.4339 24.7051 49.4874C24.6442 49.4885 24.5833 49.4897 24.5223 49.4897C24.3395 49.492 24.0839 49.492 23.7696 49.485C23.4399 49.4967 23.1615 49.5013 22.944 49.5013L22.9464 49.5025Z" fill="#FFEA4B"/>
</g>
<g opacity="0.55">
<path d="M24.9306 47.9619C24.2436 47.9619 23.5172 47.9374 22.7573 47.8898C20.8601 47.77 18.3343 47.4898 15.621 46.3758C15.523 46.3351 15.425 46.2944 15.3271 46.2526C11.6508 44.6677 8.59931 42.1166 6.50249 38.8749C6.41288 38.7365 6.32566 38.597 6.24083 38.4563C5.58371 37.3761 5.04726 36.2342 4.63028 35.0366C3.87758 33.1157 3.51795 31.289 3.35905 29.7809C3.08664 27.6228 3.26466 25.781 3.52273 24.3578C3.68641 23.3508 3.94209 22.2183 4.33995 21.0393C4.3985 20.7904 4.46063 20.5428 4.52992 20.2951C4.55501 20.2056 4.5801 20.116 4.60639 20.0265C5.23842 17.8835 6.53475 14.8929 9.17519 12.1732C10.3449 10.8116 11.3186 10.0407 11.7607 9.68954C11.8455 9.6221 11.9303 9.55582 12.0164 9.49071C14.7966 7.36867 17.7238 6.36055 20.2053 5.91056C22.9939 5.27918 25.9235 5.28732 28.7814 5.95707C28.9893 5.98614 29.1972 6.0187 29.4051 6.05358C31.8233 6.33032 34.8735 7.06519 37.7816 8.85235C37.9118 8.93258 38.0409 9.01397 38.1687 9.09653C38.4292 9.26629 38.686 9.44187 38.9381 9.62442C40.0063 10.3105 41.2106 11.1965 42.3074 12.2709C42.3647 12.3267 42.4221 12.3837 42.4794 12.4406C42.6144 12.5767 42.7483 12.7162 42.8809 12.8569C43.673 13.665 44.3923 14.5278 45.01 15.4208C45.0661 15.5022 45.1211 15.5836 45.176 15.665C46.9216 18.2824 47.9814 21.309 48.2406 24.4182C48.249 24.5194 48.2562 24.6217 48.2633 24.7229C48.4509 27.5891 47.9312 30.1239 47.3732 31.9262C47.3481 32.0402 47.323 32.1553 47.2956 32.2704C47.2788 32.3413 47.2621 32.4122 47.2442 32.482C46.2884 36.3087 43.9825 40.0109 40.9155 42.6399C40.8617 42.6864 40.8079 42.7318 40.753 42.7771C37.8772 45.184 34.7708 46.3631 33.1758 46.8514C33.11 46.8712 33.0443 46.8909 32.9786 46.9107C31.2581 47.4165 29.2916 47.7421 27.4134 47.8398C27.2449 47.8572 27.1207 47.8688 27.0478 47.8758C27.037 47.8758 27.0263 47.8781 27.0155 47.8781C26.3691 47.9339 25.6714 47.9619 24.9294 47.9619H24.9306Z" fill="#FFEA4B"/>
</g>
<g opacity="0.55">
<path d="M25.7218 49.1199C23.5772 49.1199 21.1626 48.8734 19.2593 48.4397C19.2223 48.4316 19.1852 48.4223 19.1482 48.4141C16.6165 47.82 13.9366 46.6467 11.7944 45.1944C11.737 45.1561 11.6797 45.1165 11.6235 45.077C10.5661 44.3421 9.55298 43.4712 8.62583 42.512C8.60074 42.4899 8.57685 42.4666 8.55176 42.4445C6.48122 40.5527 4.85155 38.1935 3.836 35.6214C2.49785 32.2285 2.23978 28.5007 3.08329 24.9915C3.23144 23.7229 3.53731 21.9776 4.16814 20.1823C4.37126 19.3195 4.64486 18.4114 5.01165 17.4963C5.04989 17.4009 5.08931 17.3056 5.12874 17.2114C6.2112 14.6452 7.94123 12.179 9.99863 10.2651C10.0799 10.1895 10.1623 10.1139 10.2448 10.0407C13.0059 7.56747 16.7503 5.78147 20.5174 5.14078C20.5831 5.12916 20.6488 5.11869 20.7145 5.10823C21.7623 4.94195 22.8125 4.87335 23.7254 4.85242C25.772 4.72335 28.0851 4.86753 29.9788 5.25357C30.0349 5.2652 30.0899 5.27683 30.1461 5.28845C30.3683 5.33613 30.888 5.44659 31.9717 5.75356C33.5559 6.20239 37.7412 7.3884 41.2897 11.4534C43.1918 12.9592 45.5347 15.3487 47.0903 18.7939C47.1261 18.8742 47.1632 18.9556 47.1978 19.037C49.2074 23.6752 48.794 28.2228 48.5228 29.9623C48.518 29.9925 48.5133 30.0227 48.5085 30.0518C48.1811 32.0773 47.4045 34.4715 46.4678 36.3447C45.7844 37.7935 44.8991 39.1551 43.8274 40.3876C43.6039 40.6666 43.4259 40.8783 43.316 41.005C43.3053 41.0166 43.2957 41.0294 43.2849 41.0411C42.0591 42.4538 40.5441 43.7677 39.5334 44.5259C39.5095 44.5433 39.4868 44.5607 39.4629 44.5782C37.8463 45.7793 35.8415 46.8805 33.9621 47.599C33.9215 47.6142 33.8809 47.6304 33.8403 47.6455C31.9334 48.3595 29.6012 48.8839 27.6048 49.049C27.5797 49.0513 27.5546 49.0536 27.5295 49.0548C26.9644 49.099 26.3538 49.1211 25.7218 49.1211V49.1199Z" fill="#FFEA4B"/>
</g>
<g opacity="0.55">
<path d="M31.7107 46.8316C30.8768 46.8316 30.0488 46.7747 29.2328 46.6654C28.0715 46.7084 26.9006 46.6433 25.7321 46.4642C21.4871 46.0735 17.4177 44.2573 14.2886 41.1097C14.2038 41.0248 14.1201 40.9388 14.0377 40.8515C11.905 38.6179 8.45452 33.7913 9.30639 26.5577C9.37569 25.974 9.47247 25.3577 9.59672 24.7229C9.99817 22.6718 10.5788 20.8939 11.3745 19.2858C11.3972 19.2404 11.4199 19.1951 11.4426 19.1486C12.2539 17.5428 14.0807 14.4964 17.1991 12.1313C17.2373 12.1022 17.2755 12.0732 17.3138 12.0453C20.603 9.59185 24.4621 8.33141 28.3152 8.25583C29.6784 8.02095 30.8302 7.97677 31.6773 7.96863C40.3406 7.89189 45.1292 12.9953 46.7864 15.1905C49.017 18.1474 50.1891 21.6171 50.2966 25.1136C50.6025 27.1937 50.5296 29.3425 50.0445 31.4599C49.9238 31.989 49.7769 32.5111 49.6072 33.0273C49.4089 33.6261 49.1831 34.2075 48.9274 34.7726C47.1448 39.9411 42.9368 44.2375 37.1876 46.0061C35.3679 46.5654 33.5244 46.8316 31.7131 46.8316H31.7107Z" fill="#FFEA4B"/>
</g>
<g opacity="0.55">
<path d="M21.2861 44.9886C17.7161 44.9886 14.3708 43.977 11.5487 42.2247C5.50677 39.126 1.70859 32.9366 1.87227 26.1868C1.95591 22.7531 2.94876 19.3788 4.74689 16.4265C4.77796 16.3754 4.80902 16.3242 4.84128 16.273C4.90341 16.1742 5.00257 16.0161 5.13878 15.8114C5.38012 15.4068 5.63939 14.9952 5.91777 14.5754C7.54744 12.1208 9.26432 10.3057 11.3193 8.86276C11.4054 8.8023 11.4914 8.74299 11.5786 8.68486C12.9335 7.7686 14.1414 7.20233 15.6982 6.50468C23.8417 2.85244 33.505 5.53493 38.4418 12.8185C41.4921 17.3184 42.1743 22.7403 40.6808 27.6076C40.2722 28.9855 39.6904 30.3192 38.9401 31.5762C38.9269 31.6017 38.9138 31.6273 38.9006 31.6529C36.9842 39.0527 30.2481 44.6596 22.0161 44.9747C21.7724 44.984 21.5298 44.9886 21.2885 44.9886H21.2861Z" fill="#FFEA4B"/>
</g>
<g opacity="0.55">
<path d="M19.7094 48.1701C16.2636 48.1701 12.88 47.2131 9.97436 45.4236C4.66719 42.6597 1.00522 37.4308 0.456816 31.4298C-0.0103394 28.6845 0.0314777 24.9764 1.96342 20.9451C4.42824 15.1999 9.72585 11.0872 16.1167 10.1698C20.192 9.58495 24.3009 10.3873 27.7848 12.3233C31.4982 13.8209 34.7264 16.522 36.7874 20.23C40.122 26.2276 39.5223 33.2716 35.8471 38.5528C34.2067 41.6783 31.5938 44.3608 28.1624 46.1236C25.4622 47.5108 22.5637 48.1689 19.7082 48.1689L19.7094 48.1701Z" fill="#FFEA4B"/>
</g>
<g opacity="0.55">
<path d="M30.3238 48.4839C27.2807 48.4839 24.2029 47.7397 21.3833 46.1828C20.1754 45.5165 19.0762 44.734 18.0893 43.8572C17.5755 43.4386 17.0869 42.9921 16.6257 42.5224C12.3628 38.9469 9.86449 33.4994 10.3818 27.6262C11.1931 18.4207 19.1216 11.472 28.442 11.472C28.5089 11.472 28.5758 11.472 28.6427 11.472C31.9905 11.0022 35.5126 11.4359 38.8126 12.9173C46.225 16.2416 50.2394 23.817 49.2083 31.2982C48.7782 35.8598 46.6503 38.8876 45.3122 40.791C41.8163 45.7642 36.1339 48.4815 30.3214 48.4815L30.3238 48.4839Z" fill="#FFEA4B"/>
</g>
<g opacity="0.55">
<path d="M22.4243 39.0946C16.7467 39.0946 11.1803 36.4052 7.82419 31.446C2.5206 23.6066 4.75005 13.0685 12.804 7.90585L16.4504 5.5687C24.5032 0.407194 35.3326 2.57691 40.6374 10.4151C45.941 18.2533 43.7115 28.7925 35.6576 33.954L32.0111 36.2912C29.0529 38.1877 25.7195 39.0946 22.4231 39.0946H22.4243Z" fill="#FFEA4B"/>
</g>
<g opacity="0.55">
<path d="M22.3948 42.3132C20.9981 42.3132 19.5787 42.1493 18.1629 41.8063C8.80428 39.5389 3.10761 30.317 5.43741 21.2102L6.49239 17.0871C8.8222 7.97917 18.2967 2.43396 27.6554 4.70251C37.014 6.9699 42.7107 16.1918 40.3809 25.2985L39.3259 29.4217C37.3486 37.1506 30.2253 42.3132 22.3948 42.3132Z" fill="#FFEA4B"/>
</g>
<path d="M11.3551 35.7324C14.5699 35.7324 17.176 33.3559 17.176 30.4243C17.176 27.4928 14.5699 25.1163 11.3551 25.1163C8.1403 25.1163 5.53418 27.4928 5.53418 30.4243C5.53418 33.3559 8.1403 35.7324 11.3551 35.7324Z" fill="#FFDB27"/>
<path d="M39.5612 36.23C42.776 36.23 45.3821 33.8536 45.3821 30.922C45.3821 27.9905 42.776 25.614 39.5612 25.614C36.3464 25.614 33.7402 27.9905 33.7402 30.922C33.7402 33.8536 36.3464 36.23 39.5612 36.23Z" fill="#FFDB27"/>
<ellipse cx="14.667" cy="21.0626" rx="8.07817" ry="7.77755" fill="white"/>
<path d="M20.0892 20.734C20.0892 23.638 17.711 25.9921 14.7775 25.9921C11.8439 25.9921 9.46582 23.638 9.46582 20.734C9.46582 17.8301 11.8439 15.476 14.7775 15.476C17.711 15.476 20.0892 17.8301 20.0892 20.734Z" fill="#2E2C2C"/>
<path d="M20.0892 20.734C20.0892 23.638 17.711 25.9921 14.7775 25.9921C11.8439 25.9921 9.46582 23.638 9.46582 20.734C9.46582 17.8301 11.8439 15.476 14.7775 15.476C17.711 15.476 20.0892 17.8301 20.0892 20.734Z" stroke="black"/>
<ellipse cx="36.5782" cy="21.0626" rx="8.07817" ry="7.77755" fill="white"/>
<path d="M41.779 20.734C41.779 23.638 39.4504 25.9921 36.578 25.9921C33.7055 25.9921 31.377 23.638 31.377 20.734C31.377 17.8301 33.7055 15.476 36.578 15.476C39.4504 15.476 41.779 17.8301 41.779 20.734Z" fill="#2E2C2C"/>
<path d="M41.779 20.734C41.779 23.638 39.4504 25.9921 36.578 25.9921C33.7055 25.9921 31.377 23.638 31.377 20.734C31.377 17.8301 33.7055 15.476 36.578 15.476C39.4504 15.476 41.779 17.8301 41.779 20.734Z" stroke="black"/>
<g clip-path="url(#clip1_839_1989)">
<path d="M19.443 30.7171C23.6104 30.695 27.7778 30.673 31.9451 30.651C32.4413 30.6473 32.8699 30.0816 32.8041 29.5706C32.7306 28.9983 32.3081 28.6434 31.7766 28.6474C27.6067 28.6696 23.4418 28.6914 19.2743 28.7107C18.7781 28.7145 18.3497 29.2829 18.4155 29.7939C18.489 30.3662 18.9115 30.721 19.443 30.7171Z" fill="#1D1D1B"/>
<path d="M18.4566 30.0972C18.4607 31.5012 18.8457 32.9164 19.5688 34.1044C20.389 35.4538 21.6345 36.2888 23.0693 36.7233C25.9127 37.5838 29.4449 37.4184 31.5286 34.9687C32.6581 33.6424 32.9051 31.8812 33.0361 30.1566C33.0757 29.634 32.815 29.0639 32.2735 28.9799C31.8065 28.9086 31.2143 29.2162 31.1728 29.7766C31.1222 30.4399 31.0694 31.1061 30.942 31.7597C30.8779 32.0825 30.8205 32.3025 30.7314 32.5386C30.6798 32.6774 30.6204 32.8142 30.5557 32.9487C30.4715 33.1225 30.4319 33.1931 30.3773 33.2676C30.2323 33.4707 30.0101 33.7502 29.8936 33.8702C29.7674 33.9964 29.466 34.2368 29.255 34.3781C28.9913 34.5561 28.9501 34.5784 28.6497 34.7111C28.3738 34.8336 28.0884 34.9327 27.7986 35.0107C26.6097 35.3305 25.2502 35.1883 24.0082 34.9071C23.3911 34.7676 22.9212 34.6023 22.354 34.273C22.1701 34.1646 22.2581 34.2164 22.3037 34.2476C22.2526 34.2115 22.2012 34.1727 22.1498 34.134C22.0361 34.0466 21.9294 33.9533 21.8223 33.8546C21.729 33.7682 21.6402 33.6761 21.5536 33.5811C21.4336 33.4485 21.6826 33.7586 21.5 33.5156C21.4516 33.4524 21.4007 33.3894 21.3546 33.3233C21.26 33.1913 21.1701 33.0562 21.0875 32.9178C21.0549 32.8613 21.0223 32.8048 20.9897 32.7484C20.963 32.7022 20.8868 32.5498 20.9479 32.6738C20.8039 32.3765 20.6866 32.0661 20.5889 31.7487C20.54 31.5887 20.4986 31.4281 20.4621 31.2643C20.4709 31.3093 20.4918 31.4367 20.4594 31.2323C20.4435 31.134 20.4251 31.036 20.4116 30.9349C20.3661 30.6051 20.3458 30.2732 20.3456 29.9397C20.3443 29.4125 19.7939 28.9526 19.318 29.0165C18.772 29.089 18.4547 29.5324 18.4566 30.0972Z" fill="#1D1D1B"/>
</g>
</g>
<defs>
<clipPath id="clip0_839_1989">
<rect width="51" height="50" fill="white"/>
</clipPath>
<clipPath id="clip1_839_1989">
<rect width="14.5661" height="9.06428" fill="white" transform="matrix(0.996541 -0.0831037 0.0838356 0.99648 18.3213 28.7903)"/>
</clipPath>
</defs>
</svg>
