<svg width="51" height="51" viewBox="0 0 51 51" fill="none" xmlns="http://www.w3.org/2000/svg">
<g opacity="0.55">
<path d="M24.8771 44.3099C18.6988 44.3099 12.7322 40.9191 9.67686 34.9953L9.11816 33.9132C4.74247 25.4299 7.99323 14.9648 16.3801 10.5375C24.7669 6.11149 35.113 9.39965 39.4899 17.883L40.0486 18.9651C44.4243 27.4484 41.1735 37.9135 32.7867 42.3408C30.2563 43.6763 27.5467 44.3099 24.8771 44.3099Z" fill="#FF6D6D"/>
</g>
<g opacity="0.55">
<path d="M24.9457 50.8494C24.5461 50.8494 24.144 50.8406 23.7506 50.819C23.7293 50.819 23.7093 50.8165 23.688 50.8152C21.1212 50.6644 18.0746 50.022 15.7383 49.135C15.7033 49.1211 15.6682 49.1084 15.6331 49.0945C14.9867 48.8436 14.21 48.4939 13.3845 48.0593C12.8408 47.8261 12.3197 47.5765 11.8324 47.3155C11.7572 47.2749 11.6833 47.2344 11.6094 47.1938C7.3778 44.8357 4.93879 41.2625 3.63724 38.6814C3.62095 38.6484 3.60467 38.6155 3.58838 38.5825C3.46562 38.3342 2.36825 36.0888 1.76695 33.7029C1.76069 33.6763 1.75317 33.6497 1.74691 33.6231C1.59659 33.0161 1.47758 32.3901 1.38112 31.7693C0.956455 30.0092 0.675849 28.2074 0.56937 26.9454C0.568117 26.9238 0.565612 26.9035 0.564359 26.882C0.482933 25.8683 0.352652 23.2048 0.908852 20.3906C0.911357 20.3754 0.915115 20.3615 0.917621 20.3462C1.06293 19.1159 1.40367 17.2862 1.95862 15.6072C1.9749 15.5566 1.99244 15.5071 2.00872 15.4577C2.56618 13.8168 3.86648 10.6693 6.30048 8.01978C6.34934 7.96656 6.39944 7.91334 6.4483 7.86012C7.79621 6.42955 9.39215 5.21186 11.3263 4.13735C13.496 2.93232 15.5078 2.21514 17.6575 1.88442C17.8191 1.85908 17.9807 1.83754 18.1423 1.81726C18.1861 1.81219 18.23 1.80586 18.2738 1.80079C20.0063 1.1723 21.8703 0.817512 23.8133 0.788368L24.0676 0.784567C25.3679 0.76556 26.7696 0.776964 28.2428 0.977168C28.2829 0.982236 28.3217 0.988572 28.3618 0.99364C31.2556 1.40925 34.3147 2.57626 36.7537 4.19437C36.8063 4.22984 36.8589 4.26532 36.9115 4.3008C39.0211 5.73391 40.9014 7.69793 41.9574 9.05754C41.9799 9.08542 42.0012 9.11456 42.0238 9.14244C43.5458 11.1267 44.6657 13.4899 44.7897 13.7522C44.7998 13.775 44.811 13.7965 44.8211 13.8193C45.9836 16.3358 46.8229 19.4529 47.0859 22.2114C47.5595 24.1134 47.9478 26.4461 47.9516 28.6636C47.9516 28.6965 47.9516 28.7282 47.9516 28.7611C47.9428 30.7049 47.6572 32.8818 47.1649 34.733C47.1486 34.7939 47.1323 34.8534 47.116 34.9142C46.6663 36.5349 45.5551 39.6912 43.155 42.6259C43.1011 42.6905 43.0485 42.7564 42.9934 42.8197C41.5152 44.5734 39.6023 46.1941 37.6068 47.3814C37.5792 47.3978 37.5516 47.4143 37.5241 47.4295C36.448 48.0618 35.0826 48.727 33.8724 49.2085C33.8411 49.2212 33.8098 49.2339 33.7772 49.2453C32.1262 49.8915 30.1619 50.3971 28.3894 50.6328C28.3718 50.6353 28.3543 50.6378 28.3355 50.6404C27.52 50.7468 26.2498 50.8469 24.9457 50.8469V50.8494Z" fill="#FF6D6D"/>
</g>
<g opacity="0.55">
<path d="M25.0706 50.2286C24.5131 50.2286 23.9745 50.2084 23.4634 50.1678C23.4308 50.1653 23.3982 50.1628 23.3657 50.1602C23.3118 50.1552 23.2304 50.1488 23.1251 50.1374C22.7293 50.1298 22.3698 50.1121 22.0629 50.0893C22.029 50.0867 21.994 50.0842 21.9601 50.0817C20.2402 49.9448 18.0768 49.5191 16.4495 48.9945C16.4094 48.9818 16.3681 48.9679 16.328 48.9552C14.8861 48.4788 12.0788 47.3637 9.4732 45.24C9.42309 45.1995 9.37298 45.1577 9.32413 45.1171C6.99159 43.1721 5.442 40.8558 4.55509 39.2605C3.35249 37.6627 2.40921 35.8558 1.78662 33.8968C1.72398 33.7004 1.66511 33.504 1.60999 33.3051C0.468775 29.2301 0.939791 23.9754 1.09513 22.5752C1.00618 21.0281 1.09513 19.339 1.43461 17.508C2.07349 14.0678 3.70325 10.9938 6.01824 8.59768C8.51989 5.86452 11.8007 4.04748 15.3471 3.35564C16.5284 2.80698 17.7849 2.33688 18.9687 2.00616C18.9962 1.99856 19.0238 1.99096 19.0514 1.98335C20.9868 1.4537 23.313 1.15593 25.271 1.18888C25.3023 1.18888 25.3324 1.18888 25.3637 1.19014C28.3426 1.25603 32.1571 2.07585 34.8554 3.23019C34.893 3.24667 34.9306 3.26187 34.9669 3.27834C36.9713 4.15265 39.1597 5.56548 40.8196 7.0556C40.8734 7.10375 40.9273 7.15317 40.9812 7.20259C42.4418 8.54826 43.8862 10.3045 44.9447 12.0202C44.951 12.029 44.956 12.0392 44.9622 12.048C45.5773 13.049 46.3628 14.5569 46.83 15.6314C46.8425 15.6606 46.8563 15.691 46.8689 15.7201C47.3273 16.7921 48.4485 19.6216 48.9333 22.712C48.9371 22.7387 48.9408 22.764 48.9458 22.7906C49.4156 25.8786 49.2603 29.6444 48.5387 32.6196C48.5312 32.6525 48.5224 32.6855 48.5149 32.7172C48.1491 34.187 47.4789 36.0395 46.8075 37.4372C46.7874 37.479 46.7674 37.5208 46.7461 37.5639C45.3005 40.5074 43.2861 42.664 42.4869 43.4534C42.4518 43.4876 42.4168 43.5218 42.3817 43.556C40.3723 45.5099 38.1112 46.8113 37.2318 47.2801C37.2093 47.2915 37.1867 47.3042 37.1642 47.3156C35.3853 48.2545 33.4624 48.9058 33.2495 48.9767C33.2232 48.9856 33.1969 48.9945 33.1693 49.0034C30.818 49.775 27.7414 50.2286 25.0706 50.2286Z" fill="#FF6D6D"/>
</g>
<g opacity="0.55">
<path d="M24.1391 51.0003C23.7081 51.0003 23.2973 50.9889 22.9239 50.9661C21.2704 50.8622 19.013 50.4517 17.4346 49.9676C17.3494 49.941 17.2642 49.9144 17.1803 49.8878C12.0943 48.2367 8.97261 44.6584 7.35161 42.2154C6.38452 40.9445 5.55524 39.5279 4.70716 37.7108C4.69714 37.6893 4.68711 37.6665 4.67709 37.645C3.41813 35.3312 2.53121 32.7602 2.0865 30.9331C2.08149 30.9141 2.07774 30.895 2.07273 30.8773C1.93743 30.3147 1.80465 29.6444 1.68564 28.9082C0.976611 26.6895 0.891427 24.894 0.84633 23.9487V23.9272C0.838814 23.7929 0.83255 23.6573 0.828792 23.523C0.75363 20.9127 1.24344 18.2936 2.28568 15.7378C2.7091 14.7001 3.20391 13.7181 3.76638 12.7994C4.00564 12.3078 4.2612 11.8377 4.53428 11.3828C4.56811 11.327 4.60193 11.27 4.63701 11.2143C5.85589 9.23883 7.54954 7.40658 9.66911 5.76821C9.69792 5.7454 9.72799 5.72259 9.7568 5.70105C12.7432 3.42405 16.46 2.03656 18.9416 1.49677C18.9804 1.4879 19.0193 1.4803 19.0581 1.47143C21.0963 1.04315 23.2647 0.955714 25.6899 1.20153C25.7601 1.20914 25.829 1.21674 25.8991 1.22434C26.7159 1.31811 28.8392 1.60701 30.8986 2.28365C30.9475 2.30012 30.9976 2.31659 31.0465 2.33307C31.5563 2.50539 32.0925 2.71447 32.6349 2.94888C32.665 2.95902 32.6938 2.96916 32.7238 2.97929C32.7589 2.99196 32.7952 3.00337 32.8303 3.01604C35.2919 3.87134 37.7184 5.27403 39.6626 6.96436C39.7139 7.00871 39.764 7.05306 39.8141 7.09741C39.8329 7.11515 41.7608 8.83842 43.1726 10.7391C43.1889 10.7606 43.2052 10.7834 43.2215 10.805C44.3038 12.2774 46.357 15.7974 47.2589 18.9753C47.274 19.0298 47.289 19.083 47.304 19.1375C48.1158 22.1089 48.1195 24.9269 48.0832 26.0002C48.082 26.0407 48.0807 26.0813 48.0782 26.1231C48.0431 26.9822 47.9479 27.854 47.8189 28.6839C47.8039 30.1373 47.6673 31.3094 47.5821 31.9011C47.5734 31.9582 47.5658 32.0152 47.5571 32.0722C47.3604 33.3583 46.4835 37.854 43.4908 41.6883C43.4369 41.758 43.3818 41.8264 43.3267 41.8961C41.7947 43.7993 40.0559 45.1425 38.8658 45.9344C38.8345 45.9547 38.8045 45.9749 38.7731 45.9952C38.718 46.032 38.6616 46.0687 38.6053 46.1042C38.1844 46.4032 37.7685 46.6795 37.3588 46.9468C35.7115 48.0213 34.8697 48.4496 34.5528 48.6118C34.5265 48.6257 34.5002 48.6384 34.4726 48.6524C32.5522 49.6166 30.2447 50.3668 28.1415 50.7101C28.1101 50.7152 28.0801 50.7203 28.0488 50.7254C26.9075 50.9053 25.4381 51.0067 24.1416 51.0067L24.1391 51.0003Z" fill="#FF6D6D"/>
</g>
<g opacity="0.55">
<path d="M23.5482 49.4823C22.67 49.4823 21.7267 49.4303 20.7496 49.296C20.6795 49.2859 20.6093 49.2757 20.5392 49.2656C17.1281 48.7537 13.7821 47.294 11.1189 45.1538C11.0763 45.1196 11.0349 45.0867 10.9936 45.0524C10.1969 44.3999 9.49035 43.7093 8.87277 43.0327C8.0297 42.3117 7.1954 41.4729 6.42373 40.5023C6.37363 40.4389 6.32352 40.3755 6.27341 40.3109C4.61358 38.1644 3.49868 35.6036 3.29198 35.112C3.28071 35.0853 3.26943 35.0575 3.25816 35.0309C2.27854 32.6664 1.52818 29.8674 1.25258 27.5448C1.24882 27.5156 1.24632 27.4865 1.24256 27.4573C0.910593 24.5265 1.27513 21.4474 1.69103 19.3694C1.84386 18.4596 2.06308 17.5004 2.37751 16.545C2.39254 16.4993 2.40757 16.4525 2.42386 16.4068C3.1166 14.3579 4.16762 12.4623 5.63829 10.6123C5.72222 10.5072 5.80615 10.4033 5.89134 10.3006C6.74067 9.28187 7.64637 8.4139 8.53955 7.67898C9.15964 7.13285 9.79726 6.63361 10.4499 6.18632C10.48 6.16604 10.51 6.14577 10.5401 6.1255C11.6362 5.38424 13.3374 4.44911 13.8635 4.18428C13.8948 4.16781 13.9262 4.1526 13.9575 4.1374C15.9255 3.15792 18.4083 2.36851 20.5993 2.02512C20.6419 2.01879 20.6845 2.01245 20.7271 2.00612C21.7894 1.84773 23.7524 1.6906 24.9838 1.71088C25.0026 1.71088 25.0213 1.71088 25.0401 1.71088C28.2045 1.76917 30.9028 2.61433 32.2281 3.11357C32.2795 3.13258 32.3296 3.15285 32.381 3.17186C34.9039 4.14754 36.8732 5.28033 38.5818 6.73498C38.6395 6.78313 38.6958 6.83255 38.7522 6.88196C40.7014 8.5875 42.1533 10.6618 42.8448 11.7464C42.9049 11.8414 42.9651 11.9365 43.0239 12.0328C43.5488 12.6676 44.0299 13.3202 44.4445 13.9626C44.4545 13.9778 44.4645 13.993 44.4746 14.0082C45.3878 15.4337 46.3361 17.3813 46.8898 18.9689C46.8998 18.9994 46.9111 19.0298 46.9211 19.0602C47.5174 20.7987 47.902 22.8045 48.051 23.993C48.0585 24.0539 48.0661 24.116 48.0736 24.1768C48.4131 27.1494 48.0047 29.8686 47.6013 31.6274C47.5925 31.6641 47.585 31.7009 47.5763 31.7364C46.9937 34.2085 45.6997 37.7919 42.841 40.8292C42.8122 40.8596 42.7847 40.8887 42.7559 40.9191C41.4944 42.2407 39.906 43.5712 36.2606 45.7671C36.2355 45.7823 36.2092 45.7975 36.1842 45.8127C33.7201 47.2788 30.7086 48.4775 28.128 49.0172C28.0967 49.0236 28.0654 49.0299 28.0341 49.0363C27.0858 49.2289 25.4761 49.4823 23.5469 49.4823H23.5482Z" fill="#FF6D6D"/>
</g>
<g opacity="0.55">
<path d="M22.3638 48.7727C20.5499 48.7727 16.1705 48.4774 12.0516 45.9458C11.9539 45.8862 11.8574 45.8254 11.7609 45.7633C9.60629 44.3796 8.06422 42.7273 6.95433 41.2726C5.76301 39.9143 4.95376 38.6877 4.64935 38.2024C4.63056 38.1733 4.61177 38.1429 4.59298 38.1125C3.23505 35.9191 2.03872 32.9376 1.45496 30.9558C1.45246 30.9457 1.4487 30.9368 1.44619 30.9267C0.869952 28.955 0.239843 25.6111 0.2198 22.9287C0.2198 22.902 0.2198 22.8754 0.2198 22.8476C0.211031 19.9497 0.990211 15.2778 2.7227 11.8693C3.69229 9.96357 5.78806 7.00359 8.51394 4.90272C8.55904 4.86851 8.60288 4.8343 8.64798 4.80009C10.3604 3.50763 13.5561 1.74888 16.9296 1.04056C16.996 1.02662 17.0636 1.01269 17.13 1.00002C20.2969 0.375329 23.3597 0.716182 24.5297 0.891044C24.551 0.893578 24.5723 0.897379 24.5936 0.901181C25.8288 1.09125 27.1955 1.4245 27.8206 1.58415C30.197 2.00737 32.1549 2.79298 32.7738 3.05907C32.8038 3.07174 32.8326 3.08442 32.8627 3.09709C34.2545 3.70403 36.364 4.85584 38.109 6.26993C38.1428 6.29781 38.1767 6.32569 38.2117 6.35356C38.7604 6.80592 39.2878 7.28362 39.7977 7.79174C40.7046 8.60015 41.6291 9.53909 42.4784 10.5997C42.4922 10.6174 42.506 10.6351 42.521 10.6529C44.2598 12.8437 45.981 16.085 46.8053 18.7193C46.8153 18.751 46.8253 18.7839 46.8353 18.8156C47.0821 19.6202 47.8851 22.4978 47.855 25.7176C47.855 25.7695 47.855 25.8215 47.8525 25.8722C47.8162 27.9363 47.4717 30.0992 46.8579 32.1266C46.8391 32.1874 46.8203 32.2483 46.8015 32.3078C46.5948 32.9655 46.3217 33.7181 45.9672 34.5227C45.6691 35.2463 45.3384 35.9419 44.9801 36.5932C44.9475 36.6515 44.9149 36.711 44.8811 36.7693C43.2463 39.6596 40.7848 42.2382 37.9524 44.0324C37.9061 44.0616 37.8597 44.0907 37.8134 44.1198C37.0931 44.5659 36.2588 45.0284 35.3255 45.4985C34.3309 46.0636 33.6031 46.412 33.4126 46.502C33.3939 46.5109 33.3763 46.5185 33.3575 46.5274C30.693 47.7641 28.2114 48.2316 26.5992 48.4065C26.5503 48.4115 26.5015 48.4166 26.4526 48.4217C26.4439 48.4217 26.1382 48.4521 25.6522 48.4838C24.6638 48.6447 23.624 48.7562 22.6018 48.7714C22.563 48.7714 22.5242 48.7714 22.4841 48.7727C22.4452 48.7727 22.4052 48.7727 22.3626 48.7727H22.3638Z" fill="#FF6D6D"/>
</g>
<g opacity="0.55">
<path d="M23.9761 49.4075C23.5314 49.4075 23.1017 49.3948 22.6921 49.3682C22.662 49.3657 22.632 49.3644 22.6019 49.3619C22.0833 49.3264 21.2089 49.2428 20.1429 49.0489C19.6668 48.9678 19.2033 48.869 18.7448 48.7511C17.65 48.4812 16.4511 48.0986 15.2724 47.555C15.1822 47.5132 15.0932 47.4714 15.003 47.4283C14.3792 47.1267 13.7892 46.7985 13.2355 46.4513C12.5653 46.1472 11.8775 45.7962 11.2249 45.3958C11.1885 45.373 11.151 45.3502 11.1146 45.3274C7.70854 43.1999 5.5351 40.1918 4.56301 38.6269C3.21635 36.673 2.3094 34.5506 2.13151 34.1223C2.11147 34.0755 2.09268 34.0273 2.07389 33.9804C1.11432 31.6046 0.407794 28.8195 0.134705 26.3397C0.1322 26.3131 0.128442 26.2865 0.125936 26.2586C-0.133373 23.7941 -0.0293987 19.9205 0.789868 16.825C0.79989 16.7857 0.811164 16.7464 0.821186 16.7071C1.39868 14.5847 2.44469 12.2254 3.61972 10.3944C3.65354 10.3424 3.68737 10.2892 3.72119 10.2373C5.93597 6.86675 8.89986 4.77981 10.4695 3.83582C10.5246 3.80287 10.5797 3.76993 10.6349 3.73698C12.1018 2.87661 14.7237 1.67919 17.2829 1.1356C17.3268 1.12673 17.3706 1.11786 17.4132 1.10899C19.0242 0.780807 20.5775 0.698445 21.9242 0.732657C24.402 0.407009 26.5191 0.583138 27.4674 0.699712C27.5125 0.704781 27.5589 0.711116 27.604 0.717452C30.2835 1.06844 32.6511 1.98963 33.3138 2.26333C33.3526 2.2798 33.3914 2.29627 33.4303 2.31148C34.8371 2.90575 36.3816 3.74838 37.6669 4.62142C37.6882 4.63663 37.7108 4.65057 37.732 4.66577C39.006 5.54008 40.1272 6.52336 41.0743 7.47243C41.8334 8.10725 42.6026 8.84724 43.3479 9.71141C43.3867 9.75703 43.4256 9.80138 43.4644 9.847C45.3272 12.053 47.1837 15.5629 47.8514 17.2393C47.8727 17.2925 47.894 17.347 47.914 17.4003C49.2531 20.8633 49.6077 24.7622 48.9137 28.3785C48.9024 28.4368 48.8911 28.4964 48.8786 28.5546C48.7646 29.1172 48.1796 31.7756 46.8292 34.4556C46.4258 35.8279 45.827 37.4105 44.9426 38.9285C44.8975 39.007 44.8512 39.0843 44.8036 39.1629C42.2706 43.3596 38.5263 45.6556 37.033 46.4488C37.0055 46.4627 36.9779 46.4779 36.9516 46.4919C35.9958 46.9924 34.4725 47.688 33.062 48.1366C33.0081 48.1543 32.953 48.1708 32.8991 48.1873C32.0072 48.461 30.6756 48.8094 28.2654 49.0743C26.8198 49.2897 25.3316 49.4075 23.9749 49.4075H23.9761Z" fill="#FF6D6D"/>
</g>
<g opacity="0.55">
<path d="M24.5085 48.2811C24.4659 48.2811 24.422 48.2811 24.3794 48.2811C24.3168 48.2811 24.2542 48.2811 24.1915 48.2786C23.3986 48.2646 22.6257 48.1949 21.8991 48.0948C19.6818 47.8769 17.8804 47.3282 16.8733 46.9633C16.8557 46.957 16.8382 46.9506 16.8206 46.9443C14.3691 46.0459 12.237 44.8143 10.4832 43.2836C10.4507 43.2557 10.4181 43.2266 10.3855 43.1974C8.46513 41.497 7.05208 39.4354 6.38063 38.3571C6.36059 38.3254 6.3418 38.2937 6.32175 38.262C5.21812 36.4665 4.27484 34.2947 3.73242 32.3053C3.73117 32.299 3.72866 32.2939 3.72741 32.2876C3.57458 31.8276 3.43553 31.3613 3.31777 30.8976C3.30775 30.8558 3.29648 30.8139 3.28646 30.7709C2.7503 28.5889 2.54486 26.0116 2.72274 23.6991C2.7265 23.6497 2.73026 23.6015 2.73527 23.5521C2.95073 21.042 3.68106 17.3344 5.94093 13.9259C5.9735 13.8765 6.00607 13.827 6.0399 13.7776C7.70599 11.3182 10.0135 9.12732 12.5377 7.60932C12.5702 7.58905 12.6041 7.57004 12.6366 7.54977C12.6579 7.5371 14.8339 6.26998 16.9159 5.52872C16.9434 5.51859 16.9722 5.50845 16.9998 5.49958C20.0915 4.41747 23.0804 4.29709 24.2229 4.29456C24.2454 4.29456 24.268 4.29456 24.2905 4.29456C26.8373 4.30089 30.7983 4.89137 33.9075 6.19776C33.9388 6.21043 33.9701 6.22437 34.0015 6.23704C35.9507 7.06953 38.1554 8.43421 39.7564 9.79762C39.7902 9.82677 39.8253 9.85591 39.8591 9.88632C41.9098 11.6615 43.7738 14.1045 44.9739 16.5893C45.0002 16.6426 45.0252 16.6971 45.0515 16.7515C46.1176 19.0197 46.8128 21.6426 47.0095 24.1388C47.0133 24.1933 47.0183 24.249 47.022 24.3035C47.1085 25.5542 47.1861 28.8423 46.0449 32.3598C46.0312 32.4042 46.0161 32.4485 46.0011 32.4929C45.5952 33.7093 44.5179 36.4678 42.3682 39.1528C40.384 41.886 37.9913 43.6587 36.5632 44.5609C36.5194 44.5887 36.4755 44.6166 36.4304 44.6432C35.6851 45.1057 33.8286 46.1549 32.1362 46.8188C32.0861 46.8391 32.036 46.8581 31.9846 46.8771C30.8735 47.3016 27.9396 48.2786 24.506 48.2786L24.5085 48.2811Z" fill="#FF6D6D"/>
</g>
<g opacity="0.55">
<path d="M26.0759 50.4718C24.3522 50.4718 22.5558 50.2792 20.9824 49.9143C20.9498 49.9067 20.9173 49.8991 20.8847 49.8915C19.766 49.6241 18.6148 49.2465 17.5337 48.8398C16.8072 48.6725 16.1044 48.4749 15.4643 48.2569C15.4029 48.2367 15.3427 48.2151 15.2814 48.1936C11.7049 46.9252 9.11556 44.7192 8.16852 43.8309C8.10714 43.7726 8.04576 43.7143 7.98438 43.6548C5.91241 41.6515 4.57577 39.4024 3.9632 38.2404C3.94065 38.1961 3.91685 38.153 3.8943 38.1086C3.04998 36.4741 2.40985 34.6177 2.09167 33.4254C2.07413 33.357 2.05534 33.2898 2.03905 33.2214C1.4841 31.0381 1.35758 28.7992 1.33253 28.1643C1.33253 28.139 1.33002 28.1124 1.33002 28.087C1.24609 25.7403 1.60937 21.8136 2.60778 18.7358C2.61905 18.699 2.63158 18.6623 2.64411 18.6255C3.09884 17.2558 3.75776 15.8252 4.53068 14.4985C4.59081 14.3693 4.65219 14.2413 4.71482 14.1146C4.74739 14.0487 4.78122 13.9828 4.81504 13.9169C6.65025 10.3272 9.39241 7.91588 10.486 7.04537C10.5111 7.0251 10.5374 7.00482 10.5624 6.98455C10.7779 6.81603 11.0209 6.63356 11.2878 6.44349C11.8427 5.9924 12.2862 5.67182 12.5304 5.50076C12.5592 5.48049 12.5893 5.46022 12.6181 5.43994C13.8495 4.59224 15.2438 3.86492 16.1958 3.40369C16.2234 3.38975 16.251 3.37708 16.2798 3.36314C19.295 1.9237 22.7775 1.23186 26.0822 1.41433C26.1448 1.41813 26.2074 1.42193 26.2701 1.42573C29.0035 1.60819 31.9511 2.43815 34.3575 3.70273C34.4101 3.73061 34.4627 3.75848 34.5154 3.78636C36.1677 4.67714 38.1119 6.12545 39.4685 7.47619C39.4973 7.50533 39.5274 7.53448 39.5562 7.56362C40.74 8.75851 41.8762 10.3601 42.817 11.8591C44.2614 13.5989 45.3237 15.3412 45.9525 16.4803C45.9575 16.4892 45.9625 16.498 45.9676 16.5082C47.1113 18.5875 48.5105 22.0214 49.0091 25.4236C49.0129 25.454 49.0179 25.4831 49.0216 25.5135C49.2634 27.2216 49.3148 29.2794 49.1594 31.0179C49.1557 31.066 49.1507 31.1154 49.1457 31.1636C49.0179 32.47 48.379 37.0468 45.5103 41.0876C45.464 41.1535 45.4164 41.2194 45.3688 41.284C42.6742 44.9713 38.7846 47.0975 36.7051 48.0365C36.6788 48.0479 36.6525 48.0605 36.6262 48.0719C34.449 49.0425 30.6833 50.0828 28.4022 50.3451C28.3683 50.3489 28.3345 50.3527 28.3007 50.3565C27.5917 50.4338 26.8413 50.4718 26.0771 50.4718H26.0759Z" fill="#FF6D6D"/>
</g>
<g opacity="0.55">
<path d="M30.1279 48.9602C27.7891 48.9602 25.439 48.504 23.1992 47.5778C21.6671 46.9442 20.2278 46.1029 18.9187 45.079C18.5241 44.7699 18.1433 44.4455 17.7787 44.1084C16.4145 43.1885 15.1493 42.0849 14.0169 40.8101C13.9317 40.7151 13.8478 40.6188 13.7651 40.5212C13.4306 40.1284 13.1124 39.7318 12.8105 39.3276C9.27789 35.2209 7.60178 29.6165 8.57137 23.9943C8.67159 22.9907 8.86325 21.8833 9.20273 20.6998C9.27038 20.4628 9.34304 20.2272 9.4207 19.9927C10.1736 17.7107 11.3323 15.6339 12.818 13.846C14.1271 10.5604 16.3557 7.68909 19.2795 5.61229C23.6063 2.54081 29.0343 1.50938 34.1666 2.78536C40.9061 4.46049 44.2396 9.24384 45.3344 10.8151C46.1274 11.9542 46.9091 13.2352 47.5943 14.5201C47.6193 14.5657 47.6431 14.6113 47.667 14.6582C48.0415 15.3754 48.371 16.1052 48.6566 16.8452C50.706 21.2751 50.8664 25.25 50.3352 28.4076C50.2475 30.2665 49.8918 32.0924 49.2867 33.8283C48.9159 35.2615 48.3985 36.6084 47.7283 37.8907C47.6494 38.0415 47.5692 38.191 47.4866 38.3393C45.8631 41.2473 43.8249 43.1023 42.2302 44.3923C41.9233 44.6406 41.6026 44.8915 41.302 45.1183C41.099 45.2716 40.9124 45.4085 40.7307 45.539C37.5564 47.7995 33.8572 48.9589 30.1291 48.9589L30.1279 48.9602Z" fill="#FF6D6D"/>
</g>
<g opacity="0.55">
<path d="M29.7155 49.0147C25.0492 49.0147 20.4005 47.2192 16.8515 43.6763C14.6931 41.521 13.1674 38.9462 12.2905 36.1966C6.3063 28.2923 7.57153 16.9542 15.2468 10.6085C19.3695 7.19995 24.5193 5.9113 29.4061 6.61201C30.0225 6.56767 30.6413 6.55499 31.2626 6.57273C31.7349 6.58667 32.2072 6.61962 32.6782 6.67157C36.9499 7.1366 40.8997 9.09935 43.8661 12.1632C47.4162 15.4704 49.5947 20.1258 49.7751 25.1106C50.0895 27.3939 49.9868 29.766 49.4155 32.1164C49.18 33.0871 48.8618 34.0513 48.4723 34.9814C48.4397 35.0587 48.4071 35.136 48.3733 35.2133C48.3244 35.3248 48.2743 35.4363 48.2242 35.5478C47.5452 37.2901 46.4942 39.3998 44.9146 41.3246C44.8958 41.3486 44.8757 41.3714 44.857 41.3955C43.9437 42.4979 42.9228 43.4862 41.3356 44.8053C37.9445 47.6234 33.8244 49.0147 29.7181 49.0147H29.7155ZM13.9202 19.2945C13.9202 19.2945 13.9177 19.2983 13.9165 19.3009C13.9165 19.2983 13.919 19.2971 13.9202 19.2945Z" fill="#FF6D6D"/>
</g>
<g opacity="0.55">
<path d="M23.4801 38.9374C16.3848 38.9374 9.63152 34.7407 6.65134 27.7285C6.09263 26.4145 5.69678 25.0714 5.45376 23.7219C4.76978 21.1889 4.60943 18.4722 5.07419 15.7289C6.59747 6.71217 14.373 0.237226 23.2972 0.330993C26.6156 0.0104133 29.7887 0.474177 32.2516 1.2978C32.3894 1.34342 32.5259 1.39157 32.6624 1.44098C34.4914 2.10115 36.1951 3.04388 37.7271 4.2413C39.5373 5.65667 41.0342 7.36473 42.1817 9.26667C44.9276 13.4621 45.9849 18.7662 44.6721 24.0285C42.8256 31.4259 36.8164 36.6502 29.8138 37.7868C27.7331 38.5661 25.5909 38.9374 23.4801 38.9374Z" fill="#FF6D6D"/>
</g>
<g opacity="0.55">
<path d="M25.3311 39.543C18.0479 39.543 11.1606 35.117 8.30942 27.8527C8.18916 27.5448 7.87599 26.7427 7.58787 25.9469C6.86005 23.9373 4.64402 17.8222 7.87724 10.7897C8.03508 10.4463 8.20295 10.108 8.38083 9.77604C11.0303 4.83303 15.6928 1.39029 21.1747 0.330984C26.6991 -0.735925 32.5768 0.811219 36.8998 4.47064C38.0623 5.45392 39.1071 6.58038 40.088 7.91085C42.9141 11.7439 44.054 16.3219 43.6381 20.7353C43.7496 28.2049 39.3551 35.3096 32.0832 38.2303C29.8672 39.1198 27.581 39.5418 25.3324 39.5418L25.3311 39.543ZM10.7347 30.0536C10.7347 30.0536 10.7397 30.06 10.7422 30.0638C10.7397 30.06 10.7372 30.0574 10.7347 30.0536Z" fill="#FF6D6D"/>
</g>
<g opacity="0.55">
<path d="M31.9771 47.3053C26.2698 47.3053 20.8431 44.6115 17.3418 39.8965C16.9071 39.3111 16.5087 38.7042 16.148 38.077C11.8349 32.4446 10.9543 24.5442 14.5332 17.8843C15.9237 15.2968 17.8366 13.1769 20.0652 11.5892C21.7563 10.1574 23.7231 9.01954 25.9028 8.2656C31.5086 6.32692 37.5441 7.28359 42.2179 10.5401C43.2276 11.204 44.1784 11.9694 45.0566 12.8335C48.5391 16.2598 50.5221 20.8848 50.6411 25.7391C51.4629 32.3673 48.8009 39.1945 43.3429 43.3925C43.1211 43.5636 42.8944 43.7295 42.6652 43.8892C41.8697 44.4455 41.0404 44.932 40.1861 45.3476C38.5275 46.1865 36.7386 46.7731 34.8734 47.0735C33.9063 47.2293 32.9379 47.3053 31.9784 47.3053H31.9771ZM14.4092 25.1309L29.2901 26.9289L30.2371 26.5031L30.1569 26.0635L14.4443 24.9256C14.4318 24.994 14.4205 25.0624 14.408 25.1309H14.4092ZM14.5257 24.51L30.1482 26.0115L30.1068 25.7834L21.1813 13.9093C17.6462 16.6285 15.3675 20.4096 14.5257 24.51ZM23.8734 12.1898C23.1831 12.5497 22.5104 12.9565 21.8603 13.4113L30.0354 25.3868L27.3922 10.8619C26.1608 11.1863 24.9833 11.6336 23.8746 12.1898H23.8734Z" fill="#FF6D6D"/>
</g>
<g opacity="0.55">
<path d="M31.4344 46.9277C25.6419 46.9277 19.9446 44.154 16.3869 38.9791C12.0338 32.6474 12.129 24.5277 15.9998 18.4126C16.3644 17.7094 16.779 17.0201 17.2425 16.3523C20.7162 11.3472 26.0715 8.35935 31.9342 8.15534C37.6453 7.95514 43.2035 10.5147 46.8063 14.999C49.095 17.8488 50.4642 21.2357 50.8763 25.0675C51.2734 28.7637 50.7122 32.252 49.2077 35.4363C47.8072 38.4013 45.6864 40.8709 43.1183 42.6715C42.7237 42.9895 42.3078 43.3038 41.8706 43.6104C38.685 45.8507 35.0421 46.9264 31.4344 46.9264V46.9277ZM47.2096 37.636C47.2096 37.636 47.2034 37.6448 47.2009 37.6499C47.2034 37.6461 47.2071 37.641 47.2096 37.636Z" fill="#FF6D6D"/>
</g>
<path d="M10.6847 38.2503C13.6354 38.2503 16.0275 35.9999 16.0275 33.2238C16.0275 30.4478 13.6354 28.1974 10.6847 28.1974C7.73388 28.1974 5.3418 30.4478 5.3418 33.2238C5.3418 35.9999 7.73388 38.2503 10.6847 38.2503Z" fill="#FF5555" fill-opacity="0.66"/>
<path d="M38.6134 38.9859C41.5641 38.9859 43.9562 36.7355 43.9562 33.9594C43.9562 31.1834 41.5641 28.933 38.6134 28.933C35.6626 28.933 33.2705 31.1834 33.2705 33.9594C33.2705 36.7355 35.6626 38.9859 38.6134 38.9859Z" fill="#FF5555" fill-opacity="0.66"/>
<ellipse cx="13.5993" cy="22.8577" rx="8.89231" ry="8.58808" fill="white"/>
<path d="M19.5089 22.8587C19.5089 25.8964 16.8315 28.3589 13.5289 28.3589C10.2262 28.3589 7.54883 25.8964 7.54883 22.8587C7.54883 19.821 10.2262 17.3585 13.5289 17.3585C16.8315 17.3585 19.5089 19.821 19.5089 22.8587Z" fill="#2E2C2C"/>
<path d="M19.5089 22.8587C19.5089 25.8964 16.8315 28.3589 13.5289 28.3589C10.2262 28.3589 7.54883 25.8964 7.54883 22.8587C7.54883 19.821 10.2262 17.3585 13.5289 17.3585C16.8315 17.3585 19.5089 19.821 19.5089 22.8587Z" stroke="black"/>
<ellipse cx="36.9502" cy="22.8585" rx="8.4717" ry="8.50027" fill="white"/>
<path d="M42.4321 22.8587C42.4321 25.8964 39.9779 28.3589 36.9504 28.3589C33.923 28.3589 31.4688 25.8964 31.4688 22.8587C31.4688 19.821 33.923 17.3585 36.9504 17.3585C39.9779 17.3585 42.4321 19.821 42.4321 22.8587Z" fill="#2E2C2C"/>
<path d="M42.4321 22.8587C42.4321 25.8964 39.9779 28.3589 36.9504 28.3589C33.923 28.3589 31.4688 25.8964 31.4688 22.8587C31.4688 19.821 33.923 17.3585 36.9504 17.3585C39.9779 17.3585 42.4321 19.821 42.4321 22.8587Z" stroke="black"/>
<g clip-path="url(#clip0_839_4220)">
<path d="M20.1741 17.3015C16.6812 16.4884 13.2505 15.4181 9.90406 14.0983C9.01069 13.7466 8.30039 12.8087 8.62625 11.7724C8.90817 10.8724 9.9187 10.0744 10.878 10.4526C14.2244 11.7724 17.6551 12.8427 21.1481 13.6558C22.0817 13.8751 22.7224 15.0437 22.4259 15.9816C22.1073 16.9952 21.1773 17.536 20.1741 17.3015Z" fill="#1D1D1B"/>
</g>
<g clip-path="url(#clip1_839_4220)">
<path d="M32.1182 33.0278C29.1886 30.5681 24.8917 30.114 21.1908 31.2632C20.1058 31.5998 19.0587 32.0671 18.0863 32.6226C17.633 32.8814 17.4628 33.5029 17.7743 33.9092C18.0858 34.3155 18.6919 34.4621 19.1771 34.1853C19.5628 33.9647 19.9593 33.7586 20.3668 33.5725C20.4207 33.5479 20.4767 33.5233 20.5306 33.4987C20.5167 33.5049 20.3906 33.5566 20.4966 33.5132C20.5927 33.4739 20.6907 33.4326 20.7868 33.3933C21.009 33.3042 21.2335 33.2224 21.4623 33.1441C21.8878 33.0002 22.3222 32.8763 22.7616 32.7746C22.9672 32.7271 23.1731 32.687 23.3811 32.6487C23.5891 32.6104 23.4194 32.6416 23.3811 32.6487C23.4397 32.6389 23.5004 32.6308 23.5591 32.6228C23.6784 32.6068 23.7978 32.5907 23.9174 32.5784C24.365 32.5285 24.8136 32.5046 25.2633 32.5067C25.4566 32.5082 25.6501 32.5133 25.8439 32.5259C25.897 32.5293 25.9559 32.5288 26.0092 32.5378C25.9744 32.5336 25.7907 32.5169 25.9868 32.5368C26.0971 32.5491 26.2074 32.5595 26.3158 32.5737C26.7269 32.6258 27.1348 32.7023 27.5356 32.8014C27.7226 32.8478 27.9078 32.8998 28.0911 32.9556C28.1426 32.9722 28.1962 32.9886 28.2477 33.0051C28.2127 32.9935 28.0558 32.9366 28.2333 33.0001C28.3365 33.0369 28.4378 33.0756 28.539 33.1143C28.969 33.283 29.384 33.4821 29.7778 33.7118C29.8695 33.7658 29.9613 33.8216 30.0531 33.8775C29.8778 33.7692 30.1201 33.925 30.1745 33.9619C30.3713 34.0992 30.5583 34.2461 30.7416 34.4006C31.1272 34.7294 31.8148 34.7274 32.1715 34.3423C32.5282 33.9572 32.5352 33.3777 32.1182 33.0278Z" fill="#2A2A2A"/>
<path d="M32.1182 33.0278C29.1886 30.5681 24.8917 30.114 21.1908 31.2632C20.1058 31.5998 19.0587 32.0671 18.0863 32.6226C17.633 32.8814 17.4628 33.5029 17.7743 33.9092C18.0858 34.3155 18.6919 34.4621 19.1771 34.1853C19.5628 33.9647 19.9593 33.7586 20.3668 33.5725C20.4207 33.5479 20.4767 33.5233 20.5306 33.4987C20.5167 33.5049 20.3906 33.5566 20.4966 33.5132C20.5927 33.4739 20.6907 33.4326 20.7868 33.3933C21.009 33.3042 21.2335 33.2224 21.4623 33.1441C21.8878 33.0002 22.3222 32.8763 22.7616 32.7746C22.9672 32.7271 23.1731 32.687 23.3811 32.6487C23.5891 32.6104 23.4194 32.6416 23.3811 32.6487C23.4397 32.6389 23.5004 32.6308 23.5591 32.6228C23.6784 32.6068 23.7978 32.5907 23.9174 32.5784C24.365 32.5285 24.8136 32.5046 25.2633 32.5067C25.4566 32.5082 25.6501 32.5133 25.8439 32.5259C25.897 32.5293 25.9559 32.5288 26.0092 32.5378C25.9744 32.5336 25.7907 32.5169 25.9868 32.5368C26.0971 32.5491 26.2074 32.5595 26.3158 32.5737C26.7269 32.6258 27.1348 32.7023 27.5356 32.8014C27.7226 32.8478 27.9078 32.8998 28.0911 32.9556C28.1426 32.9722 28.1962 32.9886 28.2477 33.0051C28.2127 32.9935 28.0558 32.9366 28.2333 33.0001C28.3365 33.0369 28.4378 33.0756 28.539 33.1143C28.969 33.283 29.384 33.4821 29.7778 33.7118C29.8695 33.7658 29.9613 33.8216 30.0531 33.8775C29.8778 33.7692 30.1201 33.925 30.1745 33.9619C30.3713 34.0992 30.5583 34.2461 30.7416 34.4006C31.1272 34.7294 31.8148 34.7274 32.1715 34.3423C32.5282 33.9572 32.5352 33.3777 32.1182 33.0278Z" fill="black" fill-opacity="0.2"/>
</g>
<g clip-path="url(#clip2_839_4220)">
<path d="M30.4735 17.3869C34.0621 16.7076 37.5972 15.7671 41.0562 14.5719C41.9796 14.2535 42.7392 13.3378 42.4473 12.2819C42.195 11.3647 41.1967 10.5214 40.2051 10.8638C36.7461 12.0589 33.211 12.9995 29.6224 13.6788C28.6631 13.8623 27.9655 15.013 28.2313 15.9688C28.5166 17.0016 29.4428 17.5829 30.4735 17.3869Z" fill="#1D1D1B"/>
</g>
<defs>
<clipPath id="clip0_839_4220">
<rect width="13.9534" height="7.00022" fill="white" transform="matrix(-1 0 0 1 22.499 10.3583)"/>
</clipPath>
<clipPath id="clip1_839_4220">
<rect width="14.7988" height="4.24244" fill="white" transform="matrix(-0.999169 0.0407648 -0.0404917 -0.99918 32.4736 34.5979)"/>
</clipPath>
<clipPath id="clip2_839_4220">
<rect width="14.221" height="7.0508" fill="white" transform="matrix(0.999236 0.0390782 -0.0383385 0.999265 28.374 10.3059)"/>
</clipPath>
</defs>
</svg>
