<svg width="50" height="48" viewBox="0 0 50 48" fill="none" xmlns="http://www.w3.org/2000/svg">
<g opacity="0.55">
<path d="M28.7783 39.4685C23.1226 39.4685 17.5492 36.8356 13.9878 31.8812L12.1229 29.2884C6.23658 21.1008 8.08026 9.67487 16.2403 3.76868C24.4016 -2.13876 35.7878 -0.288856 41.6741 7.89876L43.539 10.4916C49.4253 18.6792 47.5816 30.1051 39.4216 36.0113C36.1979 38.344 32.4707 39.4672 28.7783 39.4672V39.4685Z" fill="#FFEA4B"/>
</g>
<g opacity="0.55">
<path d="M29.4109 43.516C29.0631 43.516 28.714 43.506 28.3612 43.486C18.3151 42.9131 10.6337 34.279 11.2047 24.1989L11.2994 22.5292C11.8691 12.4491 20.4754 4.74178 30.5216 5.31464C40.5677 5.8875 48.2491 14.5216 47.6781 24.6017L47.5834 26.2715C47.0336 35.9976 38.9995 43.516 29.4109 43.516Z" fill="#FFEA4B"/>
</g>
<g opacity="0.55">
<path d="M24.6803 38.8781C24.4484 38.8781 24.1729 38.8769 23.8177 38.8731H23.8015C21.8069 38.8581 19.8411 38.5129 17.9239 37.8412C17.1323 37.6073 16.3233 37.3096 15.5118 36.9344C15.3684 36.8681 15.225 36.7993 15.0842 36.7293C8.30907 33.9438 4.0408 27.0945 4.608 19.7161C4.81243 17.0545 5.63018 14.5567 6.92537 12.3703C7.24325 11.6123 7.59977 10.8718 7.97623 10.1952C8.00366 10.1451 8.03233 10.0951 8.061 10.0451C9.05452 8.30024 11.3071 5.04446 15.225 2.83808C15.2375 2.83057 15.2512 2.82307 15.2637 2.81681C15.9456 2.43532 16.5526 2.1539 17.3118 1.82369C20.9306 0.250209 24.7987 0.0500839 28.3365 0.994424C30.1939 1.32338 32.0737 1.95252 33.9461 2.87185C34.0707 2.93314 34.1954 2.99693 34.32 3.06072C34.3799 3.09198 34.4684 3.13701 34.5693 3.18704C35.6339 3.521 37.1149 4.10262 38.7092 5.13951C38.8102 5.20581 38.9112 5.2721 39.0109 5.33964C42.8379 7.94752 45.4669 12.0763 46.2223 16.668C46.9877 21.3159 45.7985 26.1464 42.9588 29.92C42.8516 30.0613 42.7431 30.2027 42.6322 30.3403C40.9506 32.4353 38.7204 34.1464 38.6257 34.2189C38.5958 34.2415 38.5671 34.264 38.5372 34.2865C36.5626 35.7737 34.4933 36.7067 33.6955 37.0395C33.6855 37.0432 33.6756 37.0482 33.6656 37.052C31.0765 38.1239 28.1807 38.768 25.5118 38.8656C25.4744 38.8668 25.4357 38.8681 25.3983 38.8693C25.1802 38.8756 24.9633 38.8781 24.6815 38.8781H24.6803Z" fill="#FFEA4B"/>
</g>
<g opacity="0.55">
<path d="M24.7639 38.9332C23.8639 38.9332 22.9651 38.8669 22.08 38.7318C21.9616 38.7143 21.8432 38.6943 21.726 38.6742C19.4797 38.2827 15.179 37.0958 11.6175 33.5548C11.5315 33.4697 11.4468 33.3822 11.362 33.2959C10.159 32.0463 7.98004 29.3847 6.91048 25.5873C6.89552 25.5335 6.88057 25.4785 6.86561 25.4235C5.70131 21.127 6.39814 16.6467 7.43903 13.8862C7.47269 13.7949 7.50884 13.7049 7.54374 13.6148C9.7963 7.93878 14.4535 5.00445 15.8272 4.24022C15.907 4.19519 15.9868 4.15141 16.0678 4.10889C19.9334 2.04009 23.8689 1.84497 25.8708 1.91502C25.9082 1.91627 25.9469 1.91752 25.9843 1.91877C26.2835 1.93128 26.5777 1.94629 26.8644 1.9663C27.267 1.99006 27.6871 2.02508 28.1122 2.07637C28.7267 2.14516 29.3051 2.23146 29.8412 2.33653C29.8898 2.34654 29.9397 2.35529 29.9883 2.3653C31.7983 2.73428 36.3932 4.00507 39.9471 7.83121C40.0257 7.91627 40.1042 8.00257 40.1815 8.08887C42.8741 11.1108 44.5046 15.1733 44.6542 19.2358C44.6604 19.4059 44.6642 19.5761 44.6654 19.7462C44.6866 22.8956 43.8265 26.1389 42.2446 28.8781C42.1885 28.9757 42.1311 29.0732 42.0725 29.1695C39.5158 33.3997 35.5206 35.7061 33.622 36.6167C33.1845 36.8669 32.737 37.097 32.277 37.3096C32.1536 37.3659 32.0302 37.4222 31.9055 37.476C29.6841 38.4366 27.2209 38.9332 24.7651 38.9332H24.7639Z" fill="#FFEA4B"/>
</g>
<g opacity="0.55">
<path d="M29.1482 42.3128C26.7423 42.3128 22.6211 42.2327 22.1412 42.2102C22.13 42.2102 22.12 42.2102 22.1088 42.2089C19.7478 42.0951 16.311 41.6674 13.3516 40.2802C13.2743 40.244 13.197 40.2077 13.121 40.1702C11.2474 39.2559 7.74827 37.1095 5.37355 32.9969C5.29751 32.8656 5.22396 32.7343 5.15166 32.6017C2.76697 28.2039 2.31321 22.5629 3.96991 17.8787C4.01603 17.7499 4.0634 17.6211 4.11202 17.4923C5.02077 15.1083 6.38701 13.0307 8.80162 10.3753C8.87517 10.2815 8.99484 10.1251 9.12698 9.94253C9.21922 9.8012 9.34637 9.60232 9.44984 9.43972C11.2088 6.08888 14.0123 3.42096 17.489 1.82746C20.2638 0.552918 23.3454 0.0400974 26.3982 0.342787C26.584 0.361548 26.7685 0.382812 26.953 0.406576C30.2439 0.843099 33.1883 2.16643 35.9108 4.43785C36.0043 4.49413 36.1153 4.56042 36.2449 4.63547C36.3696 4.70801 36.4942 4.78306 36.6164 4.85936C38.0823 5.76868 39.5084 6.89938 40.6615 8.06386C44.8762 11.2133 47.3718 16.1452 47.4453 21.3859C47.494 21.6373 47.5376 21.8875 47.575 22.1377C48.3329 27.1195 46.9554 32.1502 43.7954 35.9388C43.662 36.0989 43.5249 36.2577 43.3853 36.4128C40.2327 39.92 35.74 42.0051 30.7351 42.2865C30.6952 42.289 30.6553 42.2902 30.6154 42.2927C30.3212 42.3078 29.7951 42.3128 29.1457 42.3128H29.1482Z" fill="#FFEA4B"/>
</g>
<g opacity="0.55">
<path d="M28.5302 44.7131C27.4569 44.7131 26.1305 44.6768 24.9962 44.5342C24.945 44.528 24.8952 44.5217 24.8441 44.5142C24.4813 44.4654 23.9902 44.4191 23.4192 44.3666C22.2387 44.2553 20.7703 44.1177 19.0525 43.8313C19.0001 43.8225 18.9465 43.8138 18.8942 43.8038C18.3494 43.7074 17.8421 43.6086 17.3771 43.5098C17.2088 43.4886 17.0081 43.4598 16.785 43.4235C16.7152 43.4123 16.6454 43.3997 16.5743 43.3872C14.1934 42.9657 11.6815 41.9526 9.68451 40.6068C9.53991 40.5092 9.3978 40.4104 9.25694 40.3091C7.45814 39.0145 5.93732 37.391 4.74684 35.5236C2.7997 32.6806 1.74634 29.2797 1.77252 25.795C1.67404 23.6487 1.87599 21.0733 2.82961 18.4692C2.85953 18.3891 2.88945 18.3091 2.91937 18.229C4.51249 14.0714 7.22877 11.6361 9.1435 10.1627C10.6294 9.01701 12.3135 8.08017 14.5698 7.14334C14.9151 6.74934 15.2829 6.36785 15.6706 6.00138C22.1839 -0.157474 32.3597 -0.133709 38.8456 6.05516C38.8568 6.06642 40.0186 7.17586 40.4674 7.62864C40.4773 7.63865 40.4873 7.64865 40.4973 7.65866C41.7164 8.89318 43.9752 11.4398 45.4075 14.6305C45.4325 14.6856 45.4561 14.7406 45.4798 14.7956C45.9959 15.9789 46.4023 17.2559 46.6865 18.5655C47.1241 20.1727 47.3098 21.6637 47.3746 22.8794C47.4868 23.5198 47.5703 24.2015 47.6127 24.9219C47.6152 24.967 47.6177 25.0133 47.6202 25.0583C47.6601 25.865 47.6701 26.9157 47.6701 26.9607C47.6701 27.007 47.6701 27.0545 47.6701 27.1008C47.6701 32.9032 44.854 38.279 40.137 41.4823C39.9974 41.5774 39.8565 41.6699 39.7132 41.76C38.4504 42.563 35.0311 44.4542 30.5584 44.6718C30.4948 44.6755 29.6484 44.7156 28.5277 44.7156L28.5302 44.7131Z" fill="#FFEA4B"/>
</g>
<g opacity="0.55">
<path d="M28.3474 47.6786C25.5489 47.6786 22.7516 47.0069 20.2497 45.7336C20.0527 45.6336 19.8583 45.5298 19.6651 45.4209C17.7441 44.3465 15.0415 42.3853 13.0744 39.1458C13.0271 39.0682 12.9797 38.9894 12.9336 38.9106C12.3701 37.9475 11.9326 36.9844 11.5935 36.0588C11.2881 35.5022 11.0126 34.9331 10.7708 34.3553C10.7496 34.3053 10.7296 34.2552 10.7084 34.2052C10.428 33.516 10.2048 32.8381 10.0278 32.1877C9.94305 31.9113 9.86701 31.6323 9.79595 31.3522C9.76853 31.2433 9.74235 31.1333 9.71742 31.0232C9.51173 30.1264 9.3771 29.2096 9.31353 28.284C8.76005 25.107 8.9969 21.7874 10.0852 18.8293C10.0964 18.7993 10.1076 18.7705 10.1176 18.7405C11.4925 15.0645 13.7925 12.6129 15.4791 11.2021C20.8194 6.73802 28.0969 6.1489 33.9221 9.12326C35.5003 9.65234 37.607 10.5792 39.6576 12.1639C40.2846 12.5979 40.888 13.0782 41.4626 13.6036C41.5623 13.6949 41.6608 13.7862 41.7581 13.88C43.249 15.3084 44.6414 17.2446 45.6573 19.2496C47.2467 21.83 48.1629 24.8719 48.1629 28.1276C48.1629 33.2458 45.8967 37.8337 42.3165 40.9356C41.2308 42.2827 39.8234 43.6561 38.0246 44.8181C37.9398 44.8731 37.8563 44.9256 37.7703 44.9794C35.1176 46.6267 31.9438 47.5835 28.8324 47.6724C28.704 47.6761 28.5756 47.6786 28.4472 47.6786C28.4135 47.6786 28.3786 47.6786 28.3449 47.6786H28.3474Z" fill="#FFEA4B"/>
</g>
<g opacity="0.55">
<path d="M20.6127 47.2283C16.4255 47.2283 12.348 45.7374 9.13555 42.9732C9.03832 42.8894 8.94109 42.8043 8.8451 42.718C6.75709 40.8369 5.23378 38.4391 4.21159 36.1352C3.79524 35.5373 3.41379 34.9144 3.07347 34.2677C3.00242 34.1339 2.93386 33.9988 2.86654 33.8637C1.02286 30.1314 0.844604 26.4429 1.01912 24.0051C1.02286 23.9576 1.0266 23.91 1.03034 23.8625C1.23852 21.2596 2.04256 17.5423 4.61798 14.1001C5.72493 12.3653 7.25323 10.613 9.36118 9.1508C9.47088 9.0745 9.58183 8.99945 9.69277 8.92691C12.788 6.88688 16.5639 5.86249 20.326 6.04386C20.4407 6.04886 20.5566 6.05636 20.6713 6.06387C21.9341 6.15017 24.4435 6.47287 27.0563 7.64986C27.1261 7.68113 27.1959 7.71365 27.2657 7.74617C29.2415 8.66925 31.1612 10.0576 32.7232 11.6699C36.4454 13.5398 39.416 16.7631 40.9418 20.8043C41.2248 21.5523 41.4529 22.314 41.6287 23.082C41.6997 23.2734 41.7683 23.4672 41.8331 23.6624C42.8429 26.6893 42.9513 29.8 42.3056 32.703C41.2261 38.4779 37.2545 43.1508 32.0288 45.2634C29.7439 46.4078 27.1834 47.0407 24.5207 47.0407C24.1829 47.0407 23.8439 47.0307 23.5035 47.0095C23.3303 47.0307 23.1695 47.0495 23.0199 47.0657L22.975 47.0707C22.1872 47.1771 21.3981 47.2296 20.6127 47.2296V47.2283ZM23.329 47.017C23.2729 47.0257 23.2168 47.0345 23.1607 47.042C23.1296 47.047 23.0997 47.0507 23.0697 47.0545C23.1732 47.0407 23.2605 47.027 23.3303 47.0157L23.329 47.017Z" fill="#FFEA4B"/>
</g>
<g opacity="0.55">
<path d="M25.7426 43.4135C24.2105 43.4135 22.676 43.2046 21.1876 42.7869C20.7762 42.8281 20.3724 42.8544 19.9772 42.8669C19.9198 42.8682 19.8625 42.8707 19.8064 42.8719C17.5613 42.9182 15.1592 42.5642 13.0413 41.87C12.9503 41.84 12.858 41.8088 12.767 41.7775C10.2365 40.8994 7.79319 39.3697 5.88843 37.4711C5.83483 37.4185 5.78247 37.3647 5.73012 37.3109C2.71217 34.2203 0.924582 30.134 0.69646 25.8025C0.687734 25.6399 0.681501 25.4773 0.677761 25.316C0.640364 23.7437 0.817377 22.0889 1.18262 20.5205C1.56033 18.4291 2.25717 16.4842 3.25692 14.7268C3.3018 14.648 3.34667 14.5705 3.39279 14.4917C5.83857 10.3516 9.60322 8.13647 11.1078 7.37599C11.1726 7.34347 11.2375 7.31095 11.3023 7.27968C12.2148 6.83315 13.1759 6.46668 14.1831 6.18025C14.8276 5.7825 15.502 5.40476 16.1751 5.09082C16.2163 5.07205 16.2562 5.05329 16.2973 5.03453C19.0859 3.75873 22.4604 3.13584 25.5593 3.32596C25.6753 3.33347 25.7912 3.34097 25.9071 3.35098C26.1552 3.37099 26.402 3.39726 26.6476 3.42728C28.5287 3.61114 30.3237 4.10395 31.9779 4.85817C31.9867 4.86067 31.9954 4.86317 32.0041 4.86568C36.9518 6.26655 41.0218 9.81001 43.1697 14.5893C43.222 14.7056 43.2731 14.8219 43.3217 14.9382C44.1358 16.8632 44.5758 18.8056 44.7927 21.4323C45.0009 23.9426 44.9074 25.8413 44.4835 27.7787C44.4748 27.82 44.4661 27.86 44.4561 27.9001C43.864 30.5117 42.8044 32.3141 42.2946 33.1809C41.9031 33.8475 41.6713 34.2165 41.3896 34.6255C39.683 37.0996 37.5327 38.8131 36.3995 39.6161C36.3871 39.6249 36.3746 39.6337 36.3609 39.6437C36.3534 39.6487 36.3459 39.6537 36.3384 39.6599C33.2644 42.1577 29.506 43.416 25.7413 43.416L25.7426 43.4135ZM37.939 38.1765C37.939 38.1765 37.9341 38.1815 37.9316 38.184C37.9341 38.1815 37.9365 38.179 37.939 38.1765Z" fill="#FFEA4B"/>
</g>
<g opacity="0.55">
<path d="M27.571 46.1189C25.4144 46.1189 23.3015 45.7049 21.3356 44.9194C19.5331 45.1708 17.6894 45.1295 15.8806 44.7855C14.8659 44.6805 13.8525 44.4816 12.8515 44.1852C8.40495 42.8706 4.55055 39.7086 2.2768 35.5085C2.23941 35.4384 2.20201 35.3684 2.16461 35.2983C0.911808 32.9044 0.475508 30.6867 0.236166 29.0232C0.14392 28.3853 0.0790983 27.7686 0.0404546 27.1908C-0.0779697 25.3771 0.0716189 23.7361 0.384508 22.274C0.522878 21.2058 0.765959 20.0626 1.17857 18.8531C1.20351 18.7805 1.22844 18.708 1.25462 18.6354C2.94871 13.8875 6.29451 10.9444 8.13694 9.61354C12.2282 6.65795 17.3479 5.73862 22.0948 6.93562C24.5618 6.91561 26.9315 7.44094 29.0843 8.40904C30.574 8.07883 32.1297 7.94875 33.7153 8.04381C35.9891 8.1789 38.1444 8.76551 40.0928 9.71611C40.5391 9.91999 40.9791 10.1451 41.4129 10.3915C47.6495 13.9337 50.9716 21.0457 49.6964 28.1214L49.6864 28.1776C49.5294 29.0494 49.4134 29.6561 49.2701 30.2477C48.6792 32.9644 47.5398 35.0519 46.5214 36.5741C46.2097 37.0607 45.8831 37.5247 45.5466 37.9575C45.5254 37.985 45.5029 38.0125 45.4817 38.0413C45.2125 38.384 44.9395 38.7042 44.6353 39.0432C44.0432 39.7261 43.4311 40.354 42.8078 40.9206C41.2596 42.324 39.5219 43.3872 37.6857 44.1126C35.8881 44.9431 33.9746 45.4422 32.0362 45.6048C31.4815 45.7411 30.9205 45.8499 30.3533 45.9312C30.2773 45.9425 30.2013 45.9525 30.1265 45.9625C29.3523 46.0626 28.5533 46.1139 27.6807 46.1201C27.6445 46.1201 27.6071 46.1201 27.571 46.1201V46.1189Z" fill="#FFEA4B"/>
</g>
<g opacity="0.55">
<path d="M25.0659 40.7243C23.049 40.7243 21.0046 40.3591 19.0238 39.5936C15.6356 39.3409 12.4157 38.0651 9.78168 35.9613C6.41345 33.9613 3.74329 30.7918 2.40821 26.8569C-0.0774531 19.536 2.70739 11.491 9.09856 7.27463C10.4661 5.72866 11.7637 4.61547 12.4244 4.08388L12.8046 3.77869C14.7705 2.20146 16.9844 1.13454 19.2868 0.565434C19.8752 0.412839 20.4922 0.285259 21.1392 0.187698C22.8931 -0.0762169 24.6433 -0.0574552 26.3349 0.216466C27.3122 0.304021 28.287 0.477879 29.2482 0.740544C33.8405 1.99258 37.6924 5.13454 39.8515 9.3897C41.1604 11.9688 41.7625 14.7643 41.6864 17.5285C42.0716 18.8106 42.3085 20.1389 42.3883 21.4923C42.3995 21.6836 42.407 21.8738 42.4119 22.0651C42.5129 26.0976 41.1866 29.0845 40.4735 30.6893C37.6787 36.9857 31.5194 40.7243 25.0659 40.7243Z" fill="#FFEA4B"/>
</g>
<g opacity="0.55">
<path d="M26.0087 48C25.297 48 24.6014 47.9925 23.912 47.9613C21.9175 48.0763 19.9005 47.8524 17.9621 47.2746C17.8661 47.2458 17.7714 47.217 17.6767 47.187C16.7766 46.9019 16.1259 46.6129 15.7382 46.4403C15.7146 46.4303 15.6896 46.419 15.6634 46.4065C15.353 46.2815 15.0327 46.1489 14.7073 46.005C13.5106 45.591 12.3476 45.0369 11.2394 44.339C9.92298 43.511 8.72503 42.5566 7.57444 41.4234C7.53081 41.3809 7.48718 41.3371 7.44355 41.2933C4.87437 38.7067 3.84345 37.2358 3.01323 35.7024C-0.933412 28.4203 0.988802 19.4384 7.33011 14.389C7.47222 14.1489 7.62056 13.91 7.77638 13.6723C8.58292 12.1802 9.40316 11.0782 9.84569 10.5266C9.87187 10.4941 9.89805 10.4616 9.92423 10.4291C11.5797 8.39154 13.4894 6.95439 14.2336 6.43156C14.2685 6.40655 14.3047 6.38153 14.3396 6.35777C15.7258 5.39842 17.4361 4.49785 19.0329 3.88747C19.0604 3.87747 19.0878 3.86621 19.1152 3.8562C19.7485 3.6173 22.0147 2.8193 24.5565 2.56289C24.6051 2.55789 24.6525 2.55289 24.7011 2.54914C26.2094 2.40905 28.017 2.47159 28.8634 2.54663C28.9008 2.55039 28.9369 2.55289 28.9743 2.55664C31.3615 2.78553 34.7086 3.51349 37.8686 5.60605C39.9741 6.74676 43.8983 9.40342 46.0972 14.2152C46.1197 14.264 46.1421 14.3127 46.1633 14.3615C47.2279 16.7493 47.5857 19.0069 47.6991 20.4803C47.7066 20.5842 47.7141 20.688 47.7203 20.7918C47.7253 20.8818 47.7303 20.9757 47.734 21.0707C49.0043 24.3252 49.2748 27.9813 48.3361 31.5523C47.9821 32.8993 47.4872 34.1151 46.9137 35.2033C46.8065 35.4559 46.6794 35.7399 46.5286 36.0476C46.5061 36.0938 46.4824 36.1401 46.46 36.1864C44.534 40.0376 41.551 42.4128 40.358 43.2546C40.3319 43.2733 40.3057 43.2908 40.2795 43.3096C38.4445 44.5904 35.6846 45.8825 35.0987 46.1339C35.0751 46.1439 35.0514 46.1539 35.0277 46.1639C34.4169 46.4228 33.7849 46.6529 33.1379 46.8518C31.9723 47.2871 30.565 47.6761 28.9444 47.865C28.9008 47.87 28.8584 47.875 28.8148 47.88C28.0556 47.9625 27.4448 47.9775 26.8539 47.9925H26.7991C26.6757 47.9975 26.5522 47.9988 26.4301 47.9988C26.2892 47.9988 26.1496 47.9988 26.01 47.9988L26.0087 48ZM15.7507 46.4416C15.7582 46.4453 15.7657 46.4478 15.7731 46.4503C15.7657 46.4478 15.7582 46.4441 15.7507 46.4416ZM15.7021 46.4216C15.7021 46.4216 15.7108 46.4253 15.7158 46.4266C15.7058 46.4228 15.6971 46.419 15.6871 46.4153C15.6921 46.4178 15.6971 46.419 15.7021 46.4216ZM15.5974 46.379C15.6073 46.3828 15.6173 46.3878 15.6285 46.3915C15.6186 46.3878 15.6086 46.3828 15.5986 46.379H15.5974Z" fill="#FFEA4B"/>
</g>
<g opacity="0.55">
<path d="M22.9191 46.6242C20.9694 46.6242 18.8104 46.3153 16.9692 45.7725C16.953 45.7675 16.9355 45.7625 16.9193 45.7575C16.5005 45.6324 16.0467 45.4773 15.593 45.3072C14.3913 44.987 13.1297 44.5417 11.9081 43.9276C11.8794 43.9138 11.852 43.8988 11.8233 43.885C10.0569 42.9845 8.15715 41.6161 6.74105 40.2265C6.6837 40.1702 6.62636 40.1127 6.57027 40.0564C4.12699 37.5873 2.45533 34.4429 1.73731 30.9645C1.71986 30.8807 1.70365 30.7981 1.68744 30.7143C1.05419 27.3972 1.53162 23.6699 1.55281 23.5123C1.55655 23.4798 1.56154 23.4473 1.56653 23.4147C1.71113 22.3603 1.95047 21.3122 2.27458 20.2903C2.36184 19.755 2.45159 19.2997 2.53262 18.9532C2.53885 18.9257 2.54509 18.8982 2.55257 18.8707C3.15092 16.3666 4.36009 13.481 5.71138 11.3384C5.73382 11.3034 5.75625 11.2684 5.77869 11.2334C6.81709 9.61362 8.35286 7.82875 9.78891 6.57547C9.81634 6.5517 9.84376 6.52794 9.87119 6.50418C11.9717 4.69429 14.7291 3.22212 17.4354 2.46665C17.5015 2.44789 17.5675 2.43038 17.6323 2.41287C21.1003 1.48979 24.2903 1.79623 25.5007 1.97134C25.5618 1.9801 25.6241 1.98885 25.6852 1.99886C28.3541 2.41412 30.6104 3.40349 31.8757 4.05389C32.0003 4.08266 32.1237 4.11268 32.2459 4.14395L32.287 4.15396C33.3641 4.42913 36.1552 5.26715 38.8054 7.08954C38.8315 7.1083 38.859 7.12706 38.8851 7.14458C39.9859 7.91005 42.7545 10.0464 44.6892 13.3247C44.7378 13.4072 44.7864 13.491 44.8338 13.5748C46.5927 16.6743 47.4603 20.5104 47.2147 24.0989C47.2098 24.1677 47.2048 24.2353 47.1998 24.304C47.0714 25.9013 46.6949 28.3253 45.6341 30.8094C45.6116 30.8631 45.588 30.9169 45.5643 30.9707C44.7839 32.7468 43.4538 34.8744 42.0801 36.5967C41.306 37.7762 40.3698 38.8769 39.2753 39.8663C39.2205 39.9163 39.1207 40.0051 39.0198 40.0952L38.8901 40.2115C37.9452 41.0608 37.0801 41.765 36.3185 42.3053C36.3047 42.3153 36.2923 42.3241 36.2786 42.3341C34.6555 43.4785 33.0275 44.2565 31.9467 44.7093C31.9218 44.7193 31.8956 44.7306 31.8707 44.7406C30.8323 45.1696 27.135 46.5717 23.1534 46.6242C23.1272 46.6242 23.1011 46.6242 23.0736 46.6242C23.0225 46.6242 22.9727 46.6242 22.9215 46.6242H22.9191Z" fill="#FFEA4B"/>
</g>
<g opacity="0.55">
<path d="M30.86 45.1046C29.7867 45.1046 28.4603 45.0683 27.326 44.9257C27.2749 44.9195 27.225 44.9132 27.1739 44.9057C26.8111 44.8569 26.32 44.8106 25.7491 44.7581C24.5685 44.6468 23.1001 44.5092 21.3823 44.2228C21.33 44.214 21.2764 44.2053 21.224 44.1953C20.6792 44.0989 20.1719 44.0001 19.7069 43.9013C19.5386 43.8801 19.3379 43.8513 19.1148 43.815C19.045 43.8038 18.9752 43.7913 18.9041 43.7788C16.5232 43.3572 14.0113 42.3441 12.0143 40.9983C11.8697 40.9007 11.7276 40.8019 11.5867 40.7006C9.78794 39.406 8.26837 37.7838 7.0779 35.9163C5.1295 33.0721 4.07615 29.6712 4.10358 26.1853C4.0051 24.0389 4.20704 21.4636 5.16067 18.8594C5.19059 18.7794 5.2205 18.6993 5.25042 18.6193C6.84354 14.4617 9.55982 12.0264 11.4746 10.553C12.9605 9.40727 14.6446 8.47043 16.9009 7.5336C17.2462 7.1396 17.6139 6.75811 18.0016 6.39163C24.5149 0.232785 34.6907 0.25655 41.1766 6.44542C41.1878 6.45667 42.3497 7.56612 42.7984 8.0189C42.8084 8.02891 42.8184 8.03891 42.8283 8.04892C44.0475 9.28344 46.3063 11.83 47.7386 15.0208C47.7635 15.0758 47.7872 15.1308 47.8109 15.1859C48.327 16.3691 48.7333 17.6462 49.0176 18.9557C49.4551 20.563 49.6409 22.0539 49.7057 23.2697C49.8179 23.9101 49.9014 24.5918 49.9438 25.3122C49.9463 25.3572 49.9488 25.4023 49.9512 25.4473C49.9911 26.254 50.0011 27.3047 50.0011 27.3497C50.0011 27.396 50.0011 27.4435 50.0011 27.4898C50.0011 33.2922 47.1851 38.6681 42.4681 41.8713C42.3285 41.9664 42.1876 42.0589 42.0442 42.149C40.7815 42.952 37.3621 44.8432 32.8894 45.0608C32.8258 45.0646 31.9794 45.1046 30.8587 45.1046H30.86Z" fill="#FFEA4B"/>
</g>
<g opacity="0.55">
<path d="M29.6188 39.3822C23.9631 39.3822 18.3897 36.7493 14.8282 31.7949L13.5331 29.9938C7.64674 21.8062 9.49042 10.3803 17.6505 4.47411C25.8118 -1.43208 37.1992 0.416579 43.0855 8.60545L44.3807 10.4066C50.267 18.5942 48.4233 30.0201 40.2633 35.9263C37.0397 38.259 33.3124 39.3822 29.6201 39.3822H29.6188Z" fill="#FFEA4B"/>
</g>
<g opacity="0.55">
<path d="M30.0582 42.1927C29.7104 42.1927 29.3614 42.1827 29.0098 42.1627C18.9637 41.5911 11.2823 32.9557 11.852 22.8769L11.9181 21.7174C12.4878 11.6374 21.0928 3.92754 31.139 4.50165C41.1851 5.07326 48.8665 13.7087 48.2968 23.7875L48.2307 24.9469C47.681 34.6743 39.6468 42.1927 30.0582 42.1927Z" fill="#FFEA4B"/>
</g>
<g opacity="0.55">
<path d="M26.7753 38.5542C26.6008 38.5542 26.3988 38.5542 26.1458 38.5505H26.1121C24.2697 38.5355 22.416 38.2203 20.6247 37.6236C19.8431 37.3935 19.0416 37.0996 18.2363 36.7256C18.1515 36.6868 18.068 36.6468 17.9845 36.6068C11.319 33.785 7.1318 26.9945 7.69276 19.6837C7.88723 17.1483 8.63766 14.7618 9.82689 12.653C10.0862 12.0627 10.3704 11.4873 10.6721 10.9457C10.6995 10.8969 10.7269 10.8469 10.7556 10.7981C11.9211 8.75309 14.0677 5.8888 17.6753 3.85503C17.6865 3.84878 17.6977 3.84252 17.709 3.83627C18.4419 3.42601 19.0677 3.14584 19.5963 2.91569C23.1465 1.37098 26.9373 1.14709 30.4203 2.03014C32.1119 2.35159 33.8022 2.9232 35.4651 3.74121C35.5175 3.76748 35.5698 3.79249 35.6222 3.81876C36.6257 4.16647 37.9259 4.72182 39.2971 5.61238C39.4068 5.68367 39.5152 5.75622 39.6224 5.82876C43.4382 8.43289 46.0573 12.5505 46.8102 17.1258C47.5693 21.7412 46.3888 26.5355 43.5728 30.279C43.4656 30.4216 43.3559 30.563 43.2437 30.7018C41.7479 32.5642 39.9266 33.9926 39.5776 34.259C39.5452 34.284 39.514 34.3078 39.4816 34.3316C37.709 35.6662 35.9151 36.5017 35.0039 36.8819C34.9927 36.8869 34.9827 36.8907 34.9715 36.8957C32.623 37.8675 29.9802 38.4529 27.5307 38.5417C27.4933 38.543 27.4559 38.5442 27.4185 38.5455C27.2116 38.5517 27.0196 38.5542 26.7753 38.5542ZM43.6863 15.4135C43.6863 15.4135 43.6875 15.421 43.6888 15.4248C43.6888 15.421 43.6875 15.4173 43.6863 15.4135Z" fill="#FFEA4B"/>
</g>
<g opacity="0.55">
<path d="M26.8126 38.5905C25.9325 38.5905 25.0561 38.5254 24.191 38.3941C24.0714 38.3753 23.9504 38.3566 23.8308 38.3353C21.6754 37.9588 17.5406 36.8106 14.0676 33.3572C13.9841 33.2734 13.9006 33.1896 13.8183 33.1045C12.6465 31.8888 10.5236 29.2934 9.47276 25.5686C9.45655 25.5098 9.44035 25.4523 9.42414 25.3935C8.46428 21.8475 8.67121 17.6636 9.97762 14.2002C10.0125 14.1089 10.0474 14.0176 10.0836 13.9263C11.5658 10.1952 14.57 6.78809 18.1215 4.8131C18.2 4.76932 18.2785 4.7268 18.3571 4.68427C21.9173 2.77683 25.4413 2.47164 27.7724 2.55294C27.8086 2.55294 27.8447 2.55544 27.8821 2.55669C28.1564 2.56795 28.4157 2.58296 28.6587 2.59922C28.9617 2.61798 29.2758 2.64425 29.5962 2.68052C30.5012 2.77558 31.0883 2.89065 31.3401 2.93943C31.385 2.94819 31.4286 2.95694 31.4735 2.9657C33.64 3.40597 37.7774 4.68552 41.1369 8.30278C41.218 8.38909 41.2977 8.47664 41.3763 8.56545C44.0714 11.5911 45.637 15.496 45.7854 19.5598C45.7916 19.7299 45.7954 19.9 45.7966 20.0701C45.8166 23.1633 44.9726 26.3466 43.4206 29.032C43.3633 29.1321 43.3047 29.2309 43.2449 29.3297C40.8627 33.2659 37.3473 35.4285 35.3379 36.4104C34.9639 36.6192 34.5824 36.8119 34.1935 36.992C34.0726 37.0483 33.9504 37.102 33.8283 37.1558C31.6443 38.1014 29.2222 38.5905 26.8126 38.5905Z" fill="#FFEA4B"/>
</g>
<g opacity="0.55">
<path d="M29.7855 40.9394C27.9019 40.9394 25.071 40.8768 24.7643 40.8618C24.7556 40.8618 24.7469 40.8618 24.7381 40.8618C21.679 40.7142 18.9815 40.1026 16.7202 39.0419C16.6429 39.0057 16.5656 38.9694 16.4896 38.9319C14.6596 38.0388 11.2403 35.9375 8.90418 31.8925C8.82939 31.7624 8.75584 31.6323 8.68478 31.501C6.31256 27.1282 5.88249 21.7324 7.53669 17.0669C7.58157 16.9406 7.62769 16.8155 7.67506 16.6905C8.51525 14.4853 9.74562 12.5566 11.7513 10.3177C13.5065 7.08445 16.2502 4.50909 19.6347 2.95812C22.3871 1.69608 25.44 1.18702 28.4641 1.4847C28.6461 1.50221 28.8269 1.52348 29.0076 1.54724C32.1091 1.95625 34.96 3.18702 37.5093 5.21203C37.5965 5.26331 37.6825 5.31585 37.7686 5.36963C38.6736 5.93123 39.9712 6.8368 41.254 8.08133C45.1732 11.1532 47.5292 15.7999 47.7199 20.758C48.5389 25.7649 47.2413 30.768 44.0039 34.6542C43.868 34.8168 43.7297 34.9769 43.5876 35.1357C40.4823 38.5904 36.1056 40.6429 31.2627 40.9156C31.2228 40.9181 31.1817 40.9206 31.1418 40.9219C30.8414 40.9369 30.3577 40.9419 29.7868 40.9419L29.7855 40.9394ZM39.07 6.58789C39.07 6.58789 39.075 6.59289 39.0787 6.5954C39.0762 6.59289 39.0737 6.59039 39.07 6.58789Z" fill="#FFEA4B"/>
</g>
<g opacity="0.55">
<path d="M29.4551 42.6067C28.5414 42.6067 27.3933 42.5729 26.3487 42.4416C26.2988 42.4353 26.249 42.429 26.1991 42.4215C26.0483 42.4015 25.7104 42.3703 25.4125 42.3415C24.5586 42.2614 23.3893 42.1514 22.0144 41.9225C21.962 41.9137 21.9109 41.905 21.8585 41.8962C21.4958 41.8324 21.1505 41.7661 20.8226 41.6986C20.7167 41.6836 20.6032 41.6661 20.4823 41.6473C20.4075 41.6348 20.334 41.6223 20.2592 41.6098C17.8907 41.1933 15.491 40.2264 13.499 38.8893C13.3482 38.788 13.1986 38.6842 13.0515 38.5779C11.2677 37.2933 9.76429 35.6923 8.59127 33.8549C6.71892 31.0657 5.69922 27.7524 5.7067 24.3553C5.63315 22.3377 5.84756 19.92 6.75631 17.4347C6.78623 17.3521 6.81739 17.2708 6.84856 17.1895C8.59875 12.6229 11.77 10.1676 12.8458 9.34212C13.9939 8.45782 15.228 7.72111 16.7376 7.02692C16.8186 6.94812 16.8997 6.86932 16.9819 6.79177C23.499 0.634176 33.6773 0.661693 40.1607 6.85431C40.2492 6.93812 41.0296 7.68483 41.3836 8.04256C41.3923 8.05131 41.401 8.06007 41.4098 8.06882C42.5018 9.17326 44.5312 11.4697 45.8575 14.4265C45.8812 14.4803 45.9061 14.5354 45.9298 14.5891C46.3998 15.6661 46.7738 16.8243 47.043 18.0113C47.4045 19.3671 47.579 20.6279 47.6526 21.6898C47.7411 22.2527 47.8022 22.818 47.8358 23.3884C47.8383 23.4347 47.8408 23.4822 47.8433 23.5285C47.8757 24.1864 47.8832 24.9794 47.8845 25.0682C47.8845 25.1145 47.8845 25.1595 47.8845 25.2058C47.8845 30.9481 45.0859 36.2802 40.3975 39.4672C40.2542 39.5648 40.1096 39.6598 39.9625 39.7536C38.7409 40.5304 35.4312 42.359 31.1019 42.5704C30.8924 42.5804 30.2654 42.6079 29.4551 42.6079V42.6067Z" fill="#FFEA4B"/>
</g>
<g opacity="0.55">
<path d="M29.3155 44.6655C26.568 44.6655 23.8218 44.0076 21.3661 42.758C21.1803 42.6642 20.9971 42.5654 20.8151 42.4653C18.929 41.4159 16.2689 39.4872 14.308 36.259C14.2631 36.1839 14.217 36.1089 14.1734 36.0326C13.6947 35.2146 13.3082 34.399 12.9978 33.6061C12.766 33.1608 12.5516 32.7055 12.3584 32.2414C12.3372 32.1902 12.3147 32.1376 12.2948 32.0851C12.0193 31.4072 11.7999 30.7418 11.6241 30.1026C11.5581 29.8775 11.4957 29.6523 11.4396 29.4259C11.411 29.3134 11.3848 29.2008 11.3586 29.087C11.1766 28.294 11.0532 27.486 10.9846 26.6705C10.9684 26.5667 10.9522 26.4628 10.9373 26.359C10.5035 23.3371 10.7939 20.4166 11.8011 17.6773C11.8136 17.6448 11.8248 17.6123 11.8373 17.5798C13.1898 13.9713 15.4386 11.5723 17.0879 10.1939C22.3172 5.82619 29.4015 5.17078 35.1619 7.93751C36.6503 8.46659 38.4516 9.31462 40.2267 10.6717C40.8014 11.0782 41.3561 11.5247 41.8872 12.0088C41.9906 12.1039 42.0941 12.2002 42.1951 12.2977C43.5887 13.6348 44.8602 15.3684 45.8163 17.197C47.3471 19.7436 48.2285 22.7293 48.2285 25.9212C48.2285 30.8781 46.1031 35.3371 42.7161 38.4316C41.7039 39.6248 40.4249 40.8231 38.8256 41.8575C38.7433 41.9112 38.6598 41.9638 38.5763 42.0151C35.936 43.6561 32.9019 44.5704 29.8016 44.6605C29.6745 44.6642 29.5461 44.6667 29.4189 44.6667C29.3853 44.6667 29.3504 44.6667 29.3155 44.6667V44.6655ZM38.6722 36.1789C38.6722 36.1789 38.6722 36.1789 38.671 36.1802C38.671 36.1802 38.6722 36.1802 38.6722 36.1789Z" fill="#FFEA4B"/>
</g>
<g opacity="0.55">
<path d="M23.9443 44.3528C19.8157 44.3528 15.793 42.8819 12.623 40.1552C12.5232 40.0689 12.4248 39.9826 12.3263 39.8938C10.4377 38.1915 9.03782 36.1027 8.063 34.0426C7.75759 33.5773 7.47337 33.097 7.21284 32.603C7.14178 32.4679 7.07198 32.3328 7.00466 32.1965C5.21084 28.5629 5.03258 25.0195 5.19962 22.6868C5.20336 22.6405 5.20586 22.5942 5.2096 22.5467C5.4078 20.0639 6.17694 16.5179 8.63767 13.1821C9.71471 11.5411 11.1882 9.88752 13.1989 8.4929C13.3098 8.41535 13.422 8.34031 13.5355 8.26526C16.5883 6.254 20.3006 5.24462 23.9917 5.42223C24.1039 5.42724 24.2173 5.43474 24.3295 5.44224C25.5487 5.52605 27.9745 5.83624 30.5187 6.98071C30.596 7.01573 30.6733 7.05075 30.7506 7.08702C32.4422 7.88002 34.049 8.98196 35.4365 10.2865C38.7922 12.199 41.4574 15.2471 42.8748 18.9995C43.1141 19.6324 43.3136 20.2753 43.4756 20.9232C43.5043 21.0057 43.533 21.0895 43.5616 21.1733C44.5489 24.1314 44.6761 27.1708 44.079 30.0176C43.0219 35.7462 39.1176 40.3941 33.9655 42.5429C31.7329 43.6249 29.2448 44.2202 26.6606 44.2202C26.4886 44.2202 26.3153 44.2177 26.142 44.2127C25.409 44.3065 24.6736 44.3528 23.9431 44.3528H23.9443Z" fill="#FFEA4B"/>
</g>
<g opacity="0.55">
<path d="M27.5053 41.7024C26.2949 41.7024 25.0832 41.5723 23.894 41.3122C23.8179 41.3159 23.7419 41.3184 23.6658 41.3209C23.611 41.3222 23.5549 41.3247 23.5001 41.3259C21.3747 41.3735 19.0984 41.0345 17.0902 40.3766C16.9967 40.3466 16.9044 40.3153 16.8122 40.2828C14.3041 39.4122 11.9805 37.9588 10.0932 36.0789C10.0371 36.0226 9.98098 35.9663 9.92614 35.91C6.95431 32.8644 5.19415 28.8406 4.96976 24.5767C4.96104 24.4141 4.95481 24.2502 4.95107 24.0876C4.91616 22.628 5.07323 21.0933 5.39859 19.6299C5.76258 17.6711 6.43947 15.7725 7.42053 14.0501C7.46291 13.9751 7.50654 13.9013 7.55017 13.8275C9.85508 9.91879 13.2246 7.80622 15.0271 6.89565C15.0919 6.86313 15.1568 6.83061 15.2228 6.79809C15.9209 6.45663 16.6427 6.1627 17.3869 5.91754C17.8095 5.67489 18.247 5.4435 18.6895 5.23712C18.7319 5.2171 18.7743 5.19834 18.8167 5.17833C21.5342 3.9363 24.688 3.35469 27.696 3.53856C27.8107 3.54606 27.9254 3.55357 28.0401 3.56357C28.2632 3.58233 28.4851 3.60485 28.7057 3.63111C30.4273 3.80622 32.0752 4.2415 33.6085 4.89691C38.3517 6.35031 42.236 9.79372 44.3041 14.3928C44.3565 14.5092 44.4076 14.6267 44.4574 14.7443C45.9284 18.2252 46.3684 23.0658 45.5519 26.7893C45.5432 26.8281 45.5345 26.8669 45.5257 26.9057C45.0184 29.1471 44.0236 31.3422 42.5689 33.4322C40.987 35.7049 39.0548 37.2771 37.9765 38.0514C34.9261 40.4816 31.2188 41.7049 27.5065 41.7049L27.5053 41.7024ZM39.7018 36.4666C39.7018 36.4666 39.6968 36.4716 39.6943 36.4754C39.6968 36.4729 39.6993 36.4704 39.7018 36.4666Z" fill="#FFEA4B"/>
</g>
<g opacity="0.55">
<path d="M28.7757 43.5823C27.0778 43.5823 25.4062 43.3259 23.8131 42.8331C22.5141 42.9094 21.2052 42.8331 19.9113 42.6055C18.9614 42.4942 18.014 42.3015 17.0778 42.0226C12.6961 40.7218 8.90904 37.6199 6.68516 33.5135C6.64776 33.4448 6.61036 33.3747 6.57421 33.3047C5.32515 30.9194 4.90505 28.7243 4.69687 27.2822C4.37152 25.022 4.42014 22.8681 4.84023 20.8319C4.98109 19.8938 5.21046 18.8794 5.57571 17.8075C5.60064 17.7337 5.62682 17.6599 5.653 17.5861C7.29972 12.9707 10.5096 10.1427 12.276 8.86689C16.184 6.04513 21.0295 5.08077 25.5932 6.04513C27.2461 6.09766 28.8517 6.39284 30.3713 6.90191C31.3461 6.78684 32.3409 6.75682 33.3493 6.81561C35.5957 6.94944 37.7273 7.52355 39.6557 8.45413C40.0846 8.65176 40.5084 8.86939 40.9248 9.10579C47.1614 12.6468 50.4847 19.7574 49.2107 26.8331L49.2045 26.8669C49.0948 27.4748 48.9913 28.0351 48.843 28.6392C48.1823 31.5386 46.9133 33.6486 46.1317 34.7906C45.8712 35.1846 45.6006 35.5648 45.3189 35.9263C45.299 35.9513 45.279 35.9763 45.2591 36.0026C45.0023 36.3303 44.748 36.6292 44.475 36.9332C43.939 37.5486 43.3817 38.1189 42.8083 38.6392C41.2912 40.0151 39.5909 41.0633 37.7946 41.7875C36.1653 42.5204 34.4451 42.982 32.6999 43.1696C32.2848 43.2621 31.8659 43.3384 31.4446 43.3985C31.3573 43.411 31.2701 43.4235 31.1828 43.4347C30.4448 43.5286 29.6944 43.5773 28.8879 43.5836C28.8505 43.5836 28.8118 43.5836 28.7744 43.5836L28.7757 43.5823Z" fill="#FFEA4B"/>
</g>
<g opacity="0.55">
<path d="M27.0326 39.8375C25.2549 39.8375 23.4561 39.5535 21.6985 38.9619C18.7079 38.6017 15.8745 37.4422 13.4948 35.6223C10.2687 33.6136 7.71942 30.5179 6.42423 26.7005C4.01585 19.6011 6.56384 11.8199 12.5499 7.51225C13.3352 6.67048 14.1829 5.87623 15.0493 5.1808L15.2886 4.98818C17.2557 3.40594 19.4746 2.33652 21.7795 1.76491C22.3579 1.61607 22.9463 1.49724 23.5446 1.40719C25.2375 1.15203 26.9278 1.16078 28.5646 1.40844C29.4796 1.501 30.3908 1.66985 31.2908 1.915C35.8845 3.16704 39.7364 6.31025 41.8942 10.5667C43.0722 12.8906 43.678 15.3884 43.7316 17.88C43.9834 18.8981 44.143 19.9413 44.2066 21.0007C44.2178 21.1958 44.2265 21.3897 44.2315 21.5848C44.33 25.5485 43.0074 28.5279 42.4427 29.7999C39.6479 36.0976 33.4886 39.8375 27.035 39.8375H27.0326Z" fill="#FFEA4B"/>
</g>
<g opacity="0.55">
<path d="M27.6887 44.8881C27.1951 44.8881 26.7014 44.8831 26.2016 44.8644C24.3292 44.9382 22.4419 44.7093 20.6244 44.1664C20.5172 44.1352 20.4112 44.1014 20.3053 44.0676C19.4589 43.7962 18.8231 43.5173 18.504 43.3747C18.3295 43.3034 18.1487 43.2296 17.9642 43.1496C16.8373 42.7443 15.7416 42.2127 14.6945 41.5536C13.4616 40.7768 12.3434 39.8888 11.2764 38.8369C11.234 38.7956 11.1916 38.7531 11.1492 38.7105C9.22949 36.7781 8.12129 35.3572 7.19384 33.6449C3.41797 26.6692 5.02106 18.1352 10.7366 12.9907C11.3723 11.8775 12.0056 11.0145 12.4519 10.4566C12.4781 10.4241 12.5042 10.3916 12.5292 10.3603C14.0836 8.44786 15.8588 7.10953 16.5506 6.62297C16.5868 6.59671 16.6242 6.57169 16.6603 6.54542C17.9655 5.64236 19.51 4.8281 21.0096 4.25524C21.0358 4.24524 21.0632 4.23523 21.0894 4.22522C21.8411 3.94255 23.8418 3.25837 26.1604 3.02322C26.2103 3.01822 26.2589 3.01322 26.3088 3.00821C27.8084 2.86938 29.4227 2.94192 30.1395 3.00571C30.1706 3.00821 30.2018 3.01072 30.233 3.01447C32.4519 3.2271 35.5521 3.90127 38.5551 5.82748C40.7615 7.05074 44.2544 9.58232 46.3187 14.0951C46.3437 14.1489 46.3674 14.2027 46.391 14.2565C47.3659 16.4466 47.7324 18.5129 47.8645 19.94C48.878 22.9819 49.0363 26.3278 48.1774 29.6011C47.8445 30.8694 47.3883 32.0163 46.861 33.0482C46.7737 33.2459 46.6753 33.4622 46.5618 33.6949C46.5394 33.7412 46.5169 33.7862 46.4945 33.8325C44.6982 37.4247 42.0368 39.6486 40.6107 40.6542C40.5895 40.6693 40.5671 40.6855 40.5459 40.7005C38.6199 42.0451 36.0595 43.1608 36.0333 43.1721C36.0096 43.1821 35.9847 43.1933 35.961 43.2033C35.4287 43.4297 34.8765 43.6324 34.313 43.8112C33.1998 44.2165 31.8573 44.5804 30.3177 44.7593C30.2741 44.7643 30.2292 44.7693 30.1844 44.7743C29.4426 44.8544 28.853 44.8694 28.3793 44.8806H28.3569C28.2385 44.8844 28.12 44.8856 28.0004 44.8856C27.8957 44.8856 27.7909 44.8856 27.6862 44.8856L27.6887 44.8881ZM18.6087 43.4185C18.6087 43.4185 18.6149 43.421 18.6187 43.4222C18.5937 43.4122 18.5688 43.4022 18.5439 43.391C18.5663 43.3997 18.5887 43.4097 18.6087 43.4172V43.4185Z" fill="#FFEA4B"/>
</g>
<g opacity="0.55">
<path d="M25.5505 43.9325C23.7218 43.9325 21.6961 43.6423 19.9634 43.132C19.9447 43.127 19.9272 43.1208 19.9085 43.1157C19.5744 43.0157 19.2304 42.9006 18.8888 42.778C17.818 42.4778 16.6961 42.0688 15.5891 41.5122C15.5605 41.4972 15.5306 41.4822 15.5019 41.4685C13.8115 40.6067 12.0651 39.3484 10.7101 38.0188C10.6527 37.9625 10.5954 37.905 10.538 37.8475C8.13464 35.4197 6.4929 32.3403 5.79108 28.9406C5.77363 28.8556 5.75618 28.7693 5.73998 28.683C5.16905 25.6886 5.52307 22.6254 5.59911 22.0413C5.6041 22.0076 5.60784 21.9738 5.61282 21.94C5.73624 21.0457 5.92821 20.1551 6.18625 19.2821C6.24858 18.9319 6.31215 18.6242 6.37199 18.3678C6.37822 18.3415 6.38445 18.3152 6.39069 18.289C6.93668 16.0013 8.00126 13.4635 9.2391 11.4997C9.26154 11.4647 9.28398 11.4297 9.30642 11.3947C10.3012 9.84245 11.6624 8.26146 13.0411 7.05696C13.0698 7.03194 13.0985 7.00693 13.1272 6.98191C15.1678 5.22331 17.7345 3.85246 20.3535 3.12075C20.4184 3.10324 20.4832 3.08448 20.548 3.06822C23.7554 2.21393 26.6388 2.43407 28.0723 2.64045C28.1321 2.64921 28.192 2.65796 28.2518 2.66672C30.4121 3.00318 32.2558 3.70862 33.5485 4.32275C34.8661 4.67922 37.1985 5.47222 39.4909 7.04946C39.5134 7.06447 39.5358 7.08073 39.5595 7.09699C40.6029 7.82244 43.2306 9.84996 45.093 13.0069C45.1429 13.092 45.1927 13.177 45.2401 13.2621C46.9728 16.319 47.7956 19.9463 47.5537 23.4747C47.5488 23.5435 47.5438 23.6123 47.5388 23.6811C47.4179 25.1758 47.0626 27.456 46.0491 29.8249C46.0267 29.8762 46.0042 29.9275 45.9818 29.9788C45.2862 31.561 44.1992 33.3309 43.0224 34.8393C42.2745 35.945 41.382 36.9782 40.3486 37.9125C40.3037 37.9538 40.2177 38.0301 40.1354 38.1039L40.0618 38.1702C38.8564 39.2521 38.0785 39.8037 37.823 39.985C37.808 39.995 37.7943 40.0051 37.7794 40.0163C36.2723 41.0782 34.7814 41.7924 33.7953 42.2052C33.7704 42.2152 33.7442 42.2264 33.7193 42.2364C32.5213 42.7305 29.3476 43.8862 25.7686 43.9325C25.7475 43.9325 25.7275 43.9325 25.7076 43.9325C25.6552 43.9325 25.6029 43.9325 25.5505 43.9325Z" fill="#FFEA4B"/>
</g>
<g opacity="0.55">
<path d="M31.0728 42.8794C30.159 42.8794 29.0109 42.8456 27.9663 42.7143C27.9164 42.708 27.8666 42.7018 27.8167 42.6943C27.6659 42.6742 27.3281 42.6417 27.0301 42.6142C26.1762 42.5342 25.0082 42.4241 23.6345 42.1952C23.5821 42.1864 23.5298 42.1777 23.4774 42.1689C23.1147 42.1051 22.7681 42.0388 22.4415 41.9713C22.3355 41.9563 22.2221 41.9388 22.1012 41.92C22.0127 41.905 21.9242 41.89 21.8357 41.875C20.4632 41.6298 17.7619 40.9482 15.0805 39.1358C14.9471 39.0457 14.8137 38.9532 14.6828 38.8581C12.894 37.5723 11.3857 35.9676 10.2101 34.1264C8.33779 31.3372 7.31934 28.0238 7.32682 24.6267C7.25327 22.6105 7.46768 20.1927 8.37643 17.7074C8.40635 17.6248 8.43751 17.5435 8.46868 17.4622C10.2176 12.9006 13.3852 10.4441 14.4597 9.61858C15.609 8.73178 16.8456 7.99382 18.3577 7.29838C18.4375 7.22084 18.5173 7.14329 18.5983 7.06574C25.1117 0.90689 35.2874 0.930654 41.7733 7.11827C41.7821 7.12578 42.6272 7.93378 42.9987 8.30777C43.0087 8.31777 43.0187 8.32778 43.0286 8.33903C44.1206 9.44347 46.1501 11.7399 47.4777 14.698C47.5026 14.753 47.5275 14.8093 47.5512 14.8644C48.0199 15.94 48.3939 17.097 48.6619 18.2827C49.0234 19.6398 49.1979 20.9006 49.2715 21.9625C49.36 22.5254 49.4211 23.0908 49.4535 23.6611C49.456 23.7074 49.4585 23.7549 49.461 23.8012C49.4934 24.4591 49.5008 25.2521 49.5021 25.3409C49.5021 25.3872 49.5021 25.4322 49.5021 25.4785C49.5021 31.2246 46.701 36.5579 42.0077 39.7449C41.8706 39.8375 41.7322 39.9288 41.5926 40.0188C40.3697 40.7981 37.0576 42.6317 32.7195 42.8431C32.5101 42.8531 31.883 42.8806 31.0728 42.8806V42.8794Z" fill="#FFEA4B"/>
</g>
<g opacity="0.55">
<path d="M19.2116 39.4523C12.9501 39.4523 6.8556 36.2115 3.46742 30.3966C-1.61236 21.6812 1.3121 10.4854 9.99821 5.38847L11.9092 4.26777C20.5953 -0.827914 31.7534 2.10517 36.8332 10.8206C41.9129 19.5361 38.9885 30.7318 30.3024 35.8287L28.3914 36.9494C25.5006 38.6455 22.3355 39.4523 19.2116 39.4523Z" fill="#FFEA4B"/>
</g>
<g opacity="0.55">
<path d="M23.958 38.1614C23.0381 38.1614 22.1056 38.0914 21.1682 37.9463L20.0239 37.7699C10.0787 36.2365 3.25497 26.9044 4.78327 16.9257C6.31281 6.94692 15.6135 0.10014 25.5586 1.6336L26.703 1.80996C36.6481 3.34342 43.4719 12.6755 41.9436 22.6542C40.5599 31.6924 32.7987 38.1602 23.9593 38.1602L23.958 38.1614Z" fill="#FFEA4B"/>
</g>
<g opacity="0.55">
<path d="M20.5105 42.0489C19.5519 42.0489 18.5833 41.9663 17.6122 41.7975C15.1128 41.361 12.8141 40.3841 10.8333 38.992C10.2749 38.678 9.73261 38.3403 9.22526 37.9889C9.17664 37.9551 9.12678 37.9201 9.07816 37.8863C7.16218 36.5267 4.52693 34.1102 2.85527 30.3128C2.84779 30.2965 2.84156 30.2815 2.83408 30.2653C2.5 29.4998 2.2831 28.8531 2.10608 28.3053C0.911867 24.6117 1.05273 20.8044 2.2619 17.411C2.74183 15.7512 3.47233 14.1152 4.44341 12.5317C4.47332 12.4829 4.50324 12.4341 4.53441 12.3854C4.98068 11.4047 5.66754 10.1414 6.70344 8.83939C6.77325 8.75183 6.84306 8.66553 6.91536 8.57922C9.86475 5.01825 14.2003 2.79686 18.8126 2.48416C23.4661 2.16897 28.1071 3.80749 31.5501 6.97822C31.681 7.0983 31.8094 7.22087 31.9353 7.3447C33.6419 9.0195 34.8847 10.977 35.1166 11.3522C35.1365 11.3835 35.1552 11.416 35.1751 11.4473C36.3295 13.3447 36.9877 15.2171 37.2781 16.164C37.2818 16.1752 37.2843 16.1865 37.2881 16.1977C38.0285 18.6368 38.3564 21.3322 38.2105 23.7875C38.208 23.825 38.2056 23.8625 38.2031 23.9C38.1794 24.254 38.1495 24.5617 38.0884 25.1596L38.0834 25.2021C37.8927 27.042 37.4028 28.8644 36.6399 30.5967C36.3369 31.3547 35.9692 32.1252 35.5217 32.8932C35.4743 32.9757 35.4257 33.057 35.3758 33.1383C32.4028 38.6618 26.6635 42.0501 20.5105 42.0501V42.0489Z" fill="#FFEA4B"/>
</g>
<g opacity="0.55">
<path d="M20.5579 40.8506C17.7468 40.8506 14.8398 40.204 12.3841 38.9907C12.2981 38.9482 12.2121 38.9044 12.1273 38.8606C8.56459 37.0245 5.4706 33.6974 3.84881 29.9588C3.81266 29.8762 3.77775 29.7937 3.74285 29.7099C2.19211 25.9726 2.22577 22.4241 2.52744 20.1051C2.53243 20.0664 2.53741 20.0276 2.54365 19.9888C2.58229 19.7074 2.62218 19.4422 2.66332 19.1946C2.70944 18.9081 2.76304 18.6117 2.82537 18.3103C3.00737 17.4097 3.1769 16.8306 3.25045 16.5842C3.26416 16.5354 3.27912 16.4879 3.29408 16.4391C3.93856 14.3215 5.60024 10.3203 9.49952 7.31214C9.5955 7.23835 9.69398 7.16455 9.79121 7.09201C13.0485 4.6905 17.0687 3.49976 21.1113 3.73616C21.2834 3.74616 21.4566 3.75867 21.6287 3.77493C24.7015 4.05135 27.7805 5.19832 30.2998 7.00695C30.3896 7.07199 30.4793 7.13703 30.5678 7.20332C34.2502 9.9588 36.0602 13.6799 36.8431 15.7824C37.0151 16.1777 37.1709 16.5792 37.3118 16.9857C37.3554 17.1108 37.3965 17.2358 37.4377 17.3609C38.4337 20.4616 38.5421 23.9213 37.7443 27.1033C37.7144 27.2221 37.6833 27.3422 37.6508 27.4597C37.0712 29.5748 35.5392 33.5911 31.7845 36.7293C31.6935 36.8056 31.6012 36.8806 31.5077 36.9557C30.1876 38.0126 27.4053 39.8888 23.6032 40.5804C23.5534 40.5892 23.5035 40.5979 23.4524 40.6067C22.515 40.7681 21.5426 40.8481 20.5579 40.8481V40.8506Z" fill="#FFEA4B"/>
</g>
<g opacity="0.55">
<path d="M22.4646 43.3397C19.8904 43.3397 17.3187 42.7944 14.9976 41.7062C14.8742 41.6487 14.7508 41.5887 14.6299 41.5286C12.5231 40.478 10.7281 39.0658 8.69991 36.8494C5.65828 34.7869 3.36583 31.7988 2.15042 28.2703C1.16314 25.4035 0.948727 22.3079 1.53212 19.3197C1.56827 19.1321 1.60816 18.9457 1.65055 18.7606C2.35361 15.7112 3.84451 12.987 6.09333 10.6381C6.15316 10.5555 6.21425 10.4742 6.27533 10.3929C6.91856 9.54237 7.94199 8.33161 9.30076 7.16839C12.7238 3.54737 17.5568 1.63743 22.4945 1.92386C27.5394 1.58365 32.3798 3.35976 35.925 6.96451C36.0759 7.11836 36.2242 7.2747 36.3688 7.43355C39.4952 10.8644 41.1108 15.4298 40.9176 20.2866C40.9163 20.3254 40.9138 20.3641 40.9126 20.4042C40.8527 21.6925 40.3042 26.3704 40.2469 26.7694C40.2457 26.7794 40.2444 26.7894 40.2419 26.8007C39.8031 29.8401 38.938 32.4742 37.6715 34.6306C37.6291 34.7031 37.5855 34.7744 37.5431 34.8457C36.4835 36.5893 34.0739 39.8038 29.838 41.7525C29.6972 41.8175 29.5563 41.8801 29.4142 41.9401C27.224 42.8757 24.843 43.341 22.4646 43.341V43.3397ZM7.60293 9.21342C7.60293 9.21342 7.59669 9.21842 7.5942 9.22092C7.59669 9.21842 7.60043 9.21592 7.60293 9.21342ZM7.61664 9.20216C7.61664 9.20216 7.60791 9.20966 7.60417 9.21217C7.60791 9.20841 7.6129 9.20466 7.61664 9.20216Z" fill="#FFEA4B"/>
</g>
<g opacity="0.55">
<path d="M23.6894 44.3053C23.1434 44.3053 22.5962 44.2791 22.0489 44.2253C20.0407 44.1065 17.6622 43.6599 15.2838 42.5155C15.2065 42.478 15.1292 42.4404 15.0531 42.4017C10.6914 40.219 8.55726 36.8182 7.84048 35.6637C7.07135 34.4304 6.45679 33.1259 5.91328 31.5511C5.84347 31.4648 5.77491 31.3773 5.70635 31.2897C0.21894 24.194 1.21371 14.0339 7.97386 8.1465C7.98259 8.13899 8.86267 7.37351 9.27279 7.03455C9.28401 7.0258 9.29398 7.01704 9.3052 7.00829C10.5057 6.02392 12.9764 4.21654 16.0379 3.17339C16.0953 3.15338 16.1526 3.13462 16.21 3.11585C17.3219 2.75063 18.5062 2.48671 19.7078 2.33286C21.0878 2.10147 22.3556 2.04894 23.4164 2.07645C23.9798 2.04143 24.5433 2.03518 25.108 2.05644C25.1579 2.05769 25.2077 2.06019 25.2576 2.0627C25.9095 2.09271 26.6986 2.16151 26.7859 2.16901C26.8345 2.17276 26.8819 2.17777 26.9305 2.18277C32.6273 2.73311 37.6473 6.04018 40.361 11.027C40.4421 11.1759 40.5206 11.326 40.5979 11.4786C41.2523 12.7744 42.7545 16.2578 42.5488 20.6068C42.5276 21.0521 42.4004 23.3948 41.9679 25.3385C41.9567 25.3873 41.9454 25.4373 41.9342 25.4861C41.8993 25.6349 41.8357 25.9689 41.7797 26.2641C41.6188 27.1096 41.3982 28.2666 41.0392 29.6174C41.0255 29.6687 41.0118 29.72 40.998 29.7713C40.8996 30.1265 40.8011 30.4654 40.7026 30.7869C40.6777 30.892 40.6503 31.0033 40.6191 31.1234C40.5979 31.2034 40.5767 31.2847 40.5543 31.3648C40.1815 32.7131 39.2479 35.3498 37.1935 37.8601C37.0863 37.9914 36.9766 38.1202 36.8657 38.2478C35.4209 39.9089 33.6857 41.2584 31.7497 42.2553C29.2815 43.5974 26.5066 44.3078 23.6906 44.3078L23.6894 44.3053Z" fill="#FFEA4B"/>
</g>
<g opacity="0.55">
<path d="M23.6164 39.2159C20.9201 39.2159 18.3659 38.6418 16.0123 37.5036C15.9799 37.4886 15.9488 37.4723 15.9163 37.4573C12.4683 35.7638 10.303 33.291 9.09385 31.5149C5.25441 25.8738 5.28059 18.7306 8.57653 13.2384C9.24344 11.8025 10.2582 10.084 11.7752 8.44044C12.2315 7.90761 12.7226 7.39979 13.2512 6.91824C13.3571 6.82193 13.4643 6.72687 13.5728 6.63306C15.0338 5.36727 16.8762 4.26283 18.7847 3.48109C21.4586 2.19529 24.504 1.60117 27.669 1.90636C32.5867 2.38041 36.8064 4.9295 39.5513 8.60805C40.6384 9.73375 41.7067 11.1259 42.5793 12.8232C42.6254 12.912 42.6703 13.002 42.7139 13.0908C44.0864 15.8801 44.7022 18.9933 44.4965 22.094C44.4878 22.2241 44.4778 22.3554 44.4653 22.4855C44.216 25.2622 43.2973 27.9777 41.8076 30.3379C41.6867 30.5305 41.5608 30.7206 41.4324 30.907C40.212 32.6781 38.0505 35.1334 34.6797 36.7719C34.5962 36.8119 34.5127 36.8519 34.4292 36.8907C33.5778 37.2872 32.7351 37.5924 31.9248 37.8263C31.4623 38.0152 30.9924 38.184 30.5149 38.3329C30.4576 38.3504 30.4015 38.3679 30.3442 38.3854C29.6461 38.5955 28.9667 38.7506 28.316 38.8645C28.0879 38.9095 27.8585 38.9483 27.6279 38.9845C27.5132 39.002 27.3985 39.0183 27.2826 39.0333C26.4785 39.1384 25.6645 39.1847 24.8493 39.1759C24.7458 39.1822 24.6411 39.1884 24.5364 39.1934C24.2272 39.2084 23.9206 39.2159 23.6152 39.2159H23.6164ZM36.9248 12.4254C36.9248 12.4254 36.9311 12.4342 36.9335 12.4392C36.9311 12.4342 36.9273 12.4304 36.9248 12.4254Z" fill="#FFEA4B"/>
</g>
<g opacity="0.55">
<path d="M23.5518 44.8431C22.3314 44.8431 21.2406 44.7255 20.3394 44.5717C20.2957 44.5642 20.2509 44.5567 20.2072 44.5492C17.7639 44.1139 14.3197 43.0069 11.2456 40.2315C9.71982 38.9982 8.22019 37.3684 7.02847 35.2271C6.9624 35.1083 6.89758 34.9894 6.83525 34.8694C5.13243 31.6286 4.48546 27.8225 5.01525 24.1539C5.03146 24.0388 5.05016 23.9238 5.06886 23.8087C5.26831 22.5992 5.81057 20.2064 7.19052 17.7762C7.22917 17.7086 7.26781 17.6411 7.30645 17.5748C8.25509 15.9563 9.50416 14.4528 10.9352 13.1883C13.1579 10.0138 16.4438 7.64109 20.3107 6.58668C20.9552 6.41157 21.6046 6.27398 22.2566 6.17517C22.3451 6.15391 22.4324 6.13265 22.5209 6.11138C25.5962 5.39844 28.669 5.5798 31.4688 6.48411C36.9811 8.11764 41.1646 12.4278 42.7926 17.7311C43.7113 20.2227 44.0541 22.9519 43.7039 25.7136C43.8535 30.6467 41.9238 35.4135 38.3798 38.8343C38.29 38.9206 38.2002 39.0069 38.108 39.0907C36.2369 40.8181 34.0267 42.0201 31.8851 42.7993C31.3952 43.0595 30.8916 43.2984 30.3768 43.511C30.2371 43.5685 30.0975 43.6248 29.9567 43.6786C27.6567 44.5592 25.4478 44.8431 23.5518 44.8431Z" fill="#FFEA4B"/>
</g>
<g opacity="0.55">
<path d="M22.9534 45.0008C22.7041 45.0008 22.4547 44.9957 22.2042 44.9845C22.0359 44.977 21.8689 44.9682 21.7018 44.9557C20.2533 44.8507 18.7499 44.548 17.3313 44.0827C15.4228 43.5323 13.6041 42.6743 11.9885 41.5298C11.9162 41.4785 11.8439 41.4273 11.7729 41.3747C8.12166 38.7006 6.35029 35.1383 5.61855 33.2534C5.59112 33.1821 5.5637 33.1121 5.53752 33.0408C5.26701 32.3128 5.04512 31.5649 4.8731 30.7994C4.6724 30.3541 4.48541 29.8951 4.32336 29.4335C4.3084 29.3897 4.29219 29.346 4.27724 29.3022C3.30366 26.4692 3.02817 23.2634 3.49813 20.2753C3.51558 20.164 3.53428 20.0539 3.55422 19.9438C3.59411 19.7187 3.63774 19.4961 3.68636 19.2747C4.02543 17.5724 4.61381 15.9689 5.41037 14.5004C7.30516 9.90507 11.0898 6.3541 15.8467 4.72808C15.9688 4.6868 16.091 4.64553 16.2132 4.60676C19.8083 3.46979 24.6537 3.49231 28.2713 4.66429C28.3074 4.67555 28.3423 4.68806 28.3785 4.69931C30.5288 5.41226 32.5931 6.59925 34.5166 8.22902C36.652 10.0364 38.0456 12.144 38.7175 13.3059C41.5285 17.6537 42.1232 22.9532 40.6098 27.6824C40.6061 27.7587 40.6023 27.8338 40.5974 27.9088C40.5936 27.9664 40.5899 28.0239 40.5849 28.0814C40.4266 30.2065 39.8756 32.4467 39.0304 34.3891C38.9918 34.4779 38.9531 34.5655 38.9132 34.6543C37.8088 37.0821 36.1396 39.2684 34.0878 40.9757C34.0329 41.0208 33.9781 41.0658 33.9232 41.1108C30.813 43.6336 26.9424 45.0008 22.9521 45.0008H22.9534ZM37.3126 11.4285C37.3126 11.4285 37.3176 11.4335 37.3201 11.4373C37.3176 11.4348 37.3151 11.431 37.3126 11.4285Z" fill="#FFEA4B"/>
</g>
<g opacity="0.55">
<path d="M23.8438 45.5398C21.9465 45.5398 20.1527 45.2772 18.4685 44.7556C17.5498 44.5242 16.565 44.199 15.5366 43.7299C15.4681 43.6987 15.3995 43.6674 15.3322 43.6349C10.9118 41.5498 8.41245 38.0752 7.31547 36.189C4.8884 32.0151 4.39475 27.082 5.78717 22.6143C5.9966 20.9695 6.44412 19.3935 7.09358 17.9251C7.07239 16.9395 7.13721 15.9413 7.29303 14.9395C7.64083 12.7118 8.41245 10.6393 9.51816 8.80312C9.75501 8.39286 10.0118 7.99136 10.2861 7.59736C14.3935 1.70743 21.7632 -0.934218 28.6593 1.01075L28.6879 1.01825C29.2838 1.18586 29.8348 1.34471 30.4232 1.55109C33.2354 2.48792 35.2075 3.95634 36.2646 4.84564C36.6323 5.14333 36.9826 5.45102 37.3155 5.76622C37.3404 5.78998 37.3641 5.81375 37.389 5.83626C37.6894 6.12519 37.9612 6.40662 38.2367 6.70806C38.7939 7.30093 39.305 7.91006 39.765 8.53045C40.9854 10.1777 41.863 11.9776 42.4102 13.8413C42.9811 15.5386 43.2741 17.3009 43.294 19.062C43.3464 19.4898 43.3825 19.9176 43.4025 20.3478C43.4062 20.4291 43.41 20.5117 43.4124 20.593C43.4361 21.3397 43.4125 22.0952 43.3414 22.9032C43.1868 24.6405 42.768 26.3266 42.1123 27.9076C42.0637 29.2121 41.8642 30.5129 41.5139 31.7825C41.3145 32.7106 41.0365 33.6286 40.6775 34.5279C38.9709 38.7931 35.5279 42.2903 31.2297 44.1227C31.1562 44.154 31.0814 44.1852 31.0066 44.2152C28.5222 45.2321 26.3082 45.4423 24.8572 45.5123C24.5169 45.5286 24.1791 45.5373 23.8438 45.5373V45.5398Z" fill="#FFEA4B"/>
</g>
<g opacity="0.55">
<path d="M20.5602 44.1903C14.6277 44.1903 9.03687 41.0333 5.99524 35.7825C5.24106 34.9257 4.54049 34.0101 3.9359 33.0871L3.93341 33.0846L3.92593 33.0733L3.75016 32.8044C2.34652 30.6556 1.49262 28.2978 1.15729 25.9026C1.07377 25.346 1.01768 24.7819 0.987758 24.214C0.896759 22.5005 1.06754 20.8156 1.46894 19.2059C1.64844 18.3016 1.9015 17.4073 2.23059 16.533C3.91097 12.0652 7.39514 8.51921 11.823 6.76812C14.2426 5.81252 16.7806 5.44479 19.2588 5.62991C20.3009 5.47356 21.3592 5.41477 22.4251 5.4548C22.6083 5.46105 22.7903 5.47106 22.9735 5.48482C26.9202 5.76374 29.7524 7.37099 30.9628 8.05767C38.5894 12.3854 41.5662 21.78 38.0683 29.6487C37.4251 32.6018 36.004 35.321 33.9708 37.5248C31.6709 40.553 28.3575 42.8031 24.447 43.7325C23.1493 44.0402 21.8454 44.189 20.5577 44.189L20.5602 44.1903Z" fill="#FFEA4B"/>
</g>
<g opacity="0.55">
<path d="M24.8233 44.9794C19.5528 44.9794 14.4705 42.4879 11.2569 38.1152C10.2147 37.3734 9.41942 36.6605 8.90832 36.1614C8.87716 36.1314 8.84599 36.1001 8.81608 36.0701C7.06838 34.334 5.91156 32.4341 5.49521 31.6974C5.47277 31.6586 5.45158 31.6198 5.42914 31.5798C4.65751 30.1902 3.99932 28.5704 3.57424 27.0195C3.56676 26.9895 3.55804 26.9607 3.55056 26.9307C3.34238 26.1539 2.85622 24.0939 2.84375 21.7599C2.84375 21.7074 2.84375 21.6549 2.84375 21.6023C2.84998 20.0976 3.07437 18.4979 3.2065 17.7899C3.21274 17.7537 3.22021 17.7187 3.22645 17.6824C3.64904 15.4873 4.61513 12.4579 6.81159 9.64611C8.23517 7.55981 11.0823 4.31028 15.7607 2.67926C15.8131 2.66175 15.8642 2.64298 15.9165 2.62547C18.1554 1.87 20.2185 1.69489 21.6445 1.69489C21.6645 1.69489 21.6832 1.69489 21.7031 1.69489C24.8233 0.97194 28.1641 1.13579 31.3354 2.31153C32.5545 2.76431 33.644 3.32716 34.6126 3.9488C34.7984 4.05261 35.0003 4.17144 35.216 4.30402C35.2621 4.33279 35.3082 4.36156 35.3543 4.39033C38.7425 6.52541 40.6934 9.3922 41.5548 10.9107C41.571 10.9382 41.586 10.9657 41.6022 10.9945C42.7515 13.0482 43.6129 15.7099 43.6216 15.7362C43.6291 15.7599 43.6366 15.7824 43.6441 15.8062C43.8186 16.3616 43.9669 16.9319 44.0903 17.5135C44.3858 18.6617 44.6189 20.0364 44.6488 21.5886C44.6488 21.6261 44.65 21.6636 44.65 21.7011C44.66 22.4591 44.6176 23.0507 44.584 23.5248L44.5815 23.5561C44.5727 23.6774 44.5628 23.7975 44.5516 23.9188C44.4967 24.5167 44.4369 25.1133 44.3571 25.7162C44.2511 27.5923 43.8447 29.4535 43.133 31.2146C43.0931 31.3122 43.0532 31.4085 43.012 31.506C42.658 32.3378 42.3165 32.9519 42.1432 33.2621C42.0559 33.4297 41.9649 33.6023 41.8689 33.7787C41.3591 34.8631 40.7296 35.9063 39.9766 36.8869C39.0891 38.0451 38.0993 39.0783 36.9525 40.0439C36.9063 40.0826 36.8602 40.1214 36.8141 40.1589C34.7136 41.8913 33.1978 42.8631 31.4102 43.6261C29.2648 44.5404 27.0272 44.9757 24.8246 44.9769L24.8233 44.9794ZM42.1968 33.1583C42.1843 33.1821 42.1718 33.2058 42.1594 33.2309C42.1644 33.2208 42.1694 33.2108 42.1756 33.2008C42.1831 33.1871 42.1905 33.1733 42.198 33.1583H42.1968ZM42.2167 33.1208C42.2167 33.1208 42.2167 33.1183 42.218 33.117C42.218 33.117 42.218 33.1195 42.2167 33.1208Z" fill="#FFEA4B"/>
</g>
<g opacity="0.55">
<path d="M24.7565 44.678C22.3344 44.678 20.2165 44.2215 19.7453 44.1127C19.7116 44.1051 19.6767 44.0964 19.643 44.0889C18.768 43.8813 17.9041 43.6036 17.0639 43.2621C16.7223 43.1671 16.4232 43.0745 16.1751 42.9895C16.1489 42.9807 16.1227 42.9719 16.0966 42.9619C13.8801 42.1977 11.4643 40.8919 9.63432 39.4673C9.60066 39.441 9.56701 39.4147 9.53335 39.3885C8.08857 38.2465 6.65128 36.7355 5.58795 35.2446C5.56551 35.2133 5.54307 35.1821 5.52188 35.1508C3.97239 32.9419 2.85671 30.2465 2.38301 27.5598C2.37179 27.4973 2.36182 27.4347 2.3506 27.3722C1.80834 24.0864 2.30199 21.2259 2.64479 19.8137C2.65851 19.7549 2.67346 19.6961 2.68842 19.6386C3.22819 17.5123 4.10453 15.7362 4.83876 14.5029C5.31744 13.2221 6.32717 10.9694 8.10852 8.83185C8.12971 8.80684 8.14965 8.78307 8.17085 8.75806C8.98984 7.7862 11.2536 5.35843 14.5595 3.80121C14.6468 3.75993 14.734 3.71991 14.8226 3.67988C18.0238 2.24023 21.7036 1.76619 25.1841 2.3453C25.2489 2.35656 25.315 2.36781 25.3798 2.37907C26.8495 2.64173 29.0734 3.21459 31.3234 4.45036C31.3758 4.47913 31.4269 4.5079 31.4792 4.53667C32.9826 5.3822 34.6343 6.63798 36.018 7.95756C37.0402 8.80809 37.9776 9.79495 38.8041 10.9132C38.8415 10.9644 38.9113 11.0582 38.9774 11.1508L39.0372 11.2321C39.9958 12.5392 40.472 13.3747 40.6278 13.6499C40.6353 13.6624 40.6416 13.6749 40.649 13.6861C41.559 15.2934 42.1262 16.8519 42.4416 17.8775C42.4491 17.9038 42.4578 17.93 42.4653 17.9563C42.8418 19.1996 43.6844 22.4791 43.3877 26.0564C43.3853 26.0814 43.384 26.1064 43.3815 26.1302C43.2195 27.9976 42.7296 30.0589 42.0377 31.7862C42.0315 31.8025 42.024 31.8187 42.0178 31.835C41.8869 32.1589 41.7398 32.4904 41.5852 32.8193C41.1851 33.8575 40.674 34.9382 40.017 35.9888C39.9971 36.0201 39.9784 36.0514 39.9584 36.0814C38.9412 37.6861 37.5264 39.3097 36.0779 40.5354C36.018 40.5867 35.9582 40.6367 35.8971 40.6868C33.2581 42.8581 30.0432 44.204 26.6002 44.5792C26.5191 44.588 26.4381 44.5967 26.3583 44.6042C25.8186 44.6555 25.2788 44.6768 24.7552 44.6768L24.7565 44.678Z" fill="#FFEA4B"/>
</g>
<g opacity="0.55">
<path d="M24.1129 42.7155C23.5669 42.7155 23.0196 42.6892 22.4724 42.6355C20.4642 42.5154 18.0857 42.0701 15.7072 40.9256C15.6312 40.8894 15.5552 40.8518 15.4791 40.8143C11.1099 38.6292 8.97575 35.2208 8.26146 34.0714C7.49357 32.8406 6.88026 31.536 6.33675 29.9638C6.26695 29.8762 6.19714 29.7887 6.12858 29.6986C0.641168 22.6004 1.63967 12.4391 8.40108 6.55415C8.43723 6.52288 9.29362 5.77742 9.69751 5.44471C9.70873 5.43595 9.7187 5.4272 9.72992 5.41844C10.9304 4.43408 13.4011 2.6267 16.4627 1.58355C16.52 1.56353 16.5773 1.54477 16.6347 1.52601C17.7466 1.16078 18.9309 0.896866 20.1326 0.74302C21.5125 0.511626 22.7803 0.457842 23.8411 0.48661C24.4046 0.451588 24.968 0.445334 25.5327 0.466598C25.5826 0.467848 25.6324 0.47035 25.6835 0.472851C26.3355 0.50287 27.1246 0.571663 27.2118 0.579168C27.2592 0.58292 27.3078 0.587923 27.3552 0.592926C33.052 1.14327 38.0732 4.45034 40.7858 9.43845C40.8631 9.58104 40.9379 9.72363 41.0114 9.86747C41.6696 11.1658 43.1792 14.6555 42.9723 19.0182C42.9511 19.4635 42.8239 21.8062 42.3914 23.7499C42.3801 23.7987 42.3689 23.8487 42.3577 23.8975C42.3228 24.0463 42.2592 24.3803 42.2031 24.6755C42.0423 25.5198 41.8217 26.678 41.4627 28.0276C41.4489 28.0789 41.4352 28.1301 41.4215 28.1814C41.323 28.5379 41.2246 28.8769 41.1261 29.1971C41.0987 29.3121 41.0675 29.436 41.0326 29.5685C41.0164 29.6298 41.0002 29.6899 40.984 29.7512C40.342 32.0826 39.1503 34.3928 37.627 36.2565C37.516 36.3915 37.4038 36.5254 37.2891 36.6567C35.8444 38.3178 34.1091 39.6673 32.1732 40.6642C29.705 42.0063 26.9301 42.7168 24.1141 42.7168L24.1129 42.7155Z" fill="#FFEA4B"/>
</g>
<path d="M10.7881 34.2888C14.1423 34.2888 16.8614 31.7324 16.8614 28.579C16.8614 25.4255 14.1423 22.8691 10.7881 22.8691C7.43395 22.8691 4.71484 25.4255 4.71484 28.579C4.71484 31.7324 7.43395 34.2888 10.7881 34.2888Z" fill="#FFDB27" fill-opacity="0.8"/>
<path d="M40.2169 34.8242C43.571 34.8242 46.2902 32.2678 46.2902 29.1144C46.2902 25.9609 43.571 23.4045 40.2169 23.4045C36.8627 23.4045 34.1436 25.9609 34.1436 29.1144C34.1436 32.2678 36.8627 34.8242 40.2169 34.8242Z" fill="#FFDB27" fill-opacity="0.8"/>
<ellipse cx="13.6655" cy="19.0394" rx="8.0581" ry="7.75682" fill="white"/>
<path d="M18.9207 18.6869C18.9207 21.6078 16.5679 23.9757 13.6654 23.9757C10.763 23.9757 8.41016 21.6078 8.41016 18.6869C8.41016 15.766 10.763 13.3982 13.6654 13.3982C16.5679 13.3982 18.9207 15.766 18.9207 18.6869Z" fill="#2E2C2C"/>
<path d="M18.9207 18.6869C18.9207 21.6078 16.5679 23.9757 13.6654 23.9757C10.763 23.9757 8.41016 21.6078 8.41016 18.6869C8.41016 15.766 10.763 13.3982 13.6654 13.3982C16.5679 13.3982 18.9207 15.766 18.9207 18.6869Z" stroke="black"/>
<ellipse cx="35.3872" cy="19.0394" rx="8.0581" ry="7.75682" fill="white"/>
<path d="M40.6424 18.6869C40.6424 21.6078 38.2895 23.9757 35.3871 23.9757C32.4847 23.9757 30.1318 21.6078 30.1318 18.6869C30.1318 15.766 32.4847 13.3982 35.3871 13.3982C38.2895 13.3982 40.6424 15.766 40.6424 18.6869Z" fill="#2E2C2C"/>
<path d="M40.6424 18.6869C40.6424 21.6078 38.2895 23.9757 35.3871 23.9757C32.4847 23.9757 30.1318 21.6078 30.1318 18.6869C30.1318 15.766 32.4847 13.3982 35.3871 13.3982C38.2895 13.3982 40.6424 15.766 40.6424 18.6869Z" stroke="black"/>
<path d="M18.2633 28.5793C20.8071 31.1494 24.653 31.7767 28.0216 30.782C29.0091 30.4907 29.9674 30.0676 30.8617 29.5535C31.2786 29.3141 31.4542 28.7018 31.189 28.2842C30.9238 27.8667 30.3844 27.696 29.9381 27.9521C29.5834 28.1562 29.2194 28.3455 28.8464 28.5143C28.797 28.5366 28.7458 28.5589 28.6964 28.5811C28.7092 28.5756 28.8244 28.5292 28.7275 28.5682C28.6397 28.6034 28.5501 28.6405 28.4623 28.6758C28.2593 28.7556 28.0545 28.828 27.846 28.8966C27.4583 29.0228 27.0633 29.1286 26.6647 29.2121C26.4781 29.2511 26.2916 29.2826 26.1032 29.3123C25.9149 29.342 26.0685 29.3179 26.1032 29.3123C26.0502 29.3197 25.9953 29.3253 25.9423 29.3308C25.8344 29.342 25.7265 29.3531 25.6186 29.3605C25.2145 29.3921 24.8103 29.3977 24.4061 29.3772C24.2324 29.368 24.0587 29.355 23.8849 29.3346C23.8374 29.329 23.7844 29.3271 23.7368 29.316C23.7679 29.3216 23.9325 29.3457 23.7569 29.3179C23.6582 29.3012 23.5594 29.2863 23.4625 29.2678C23.0949 29.1991 22.731 29.1063 22.3744 28.9913C22.208 28.9374 22.0434 28.8781 21.8806 28.815C21.8349 28.7964 21.7874 28.7778 21.7416 28.7593C21.7727 28.7723 21.9117 28.8354 21.7544 28.7649C21.663 28.724 21.5734 28.6814 21.4838 28.6387C21.1034 28.4531 20.7377 28.2378 20.392 27.9929C20.3115 27.9354 20.2311 27.876 20.1506 27.8166C20.3042 27.9316 20.0921 27.7665 20.0446 27.7275C19.8726 27.5828 19.7099 27.4288 19.5508 27.2673C19.2161 26.924 18.598 26.898 18.2633 27.2673C17.9287 27.6366 17.9012 28.2137 18.2633 28.5793Z" fill="#2E2C2C"/>
<path d="M18.2633 28.5793C20.8071 31.1494 24.653 31.7767 28.0216 30.782C29.0091 30.4907 29.9674 30.0676 30.8617 29.5535C31.2786 29.3141 31.4542 28.7018 31.189 28.2842C30.9238 27.8667 30.3844 27.696 29.9381 27.9521C29.5834 28.1562 29.2194 28.3455 28.8464 28.5143C28.797 28.5366 28.7458 28.5589 28.6964 28.5811C28.7092 28.5756 28.8244 28.5292 28.7275 28.5682C28.6397 28.6034 28.5501 28.6405 28.4623 28.6758C28.2593 28.7556 28.0545 28.828 27.846 28.8966C27.4583 29.0228 27.0633 29.1286 26.6647 29.2121C26.4781 29.2511 26.2916 29.2826 26.1032 29.3123C25.9149 29.342 26.0685 29.3179 26.1032 29.3123C26.0502 29.3197 25.9953 29.3253 25.9423 29.3308C25.8344 29.342 25.7265 29.3531 25.6186 29.3605C25.2145 29.3921 24.8103 29.3977 24.4061 29.3772C24.2324 29.368 24.0587 29.355 23.8849 29.3346C23.8374 29.329 23.7844 29.3271 23.7368 29.316C23.7679 29.3216 23.9325 29.3457 23.7569 29.3179C23.6582 29.3012 23.5594 29.2863 23.4625 29.2678C23.0949 29.1991 22.731 29.1063 22.3744 28.9913C22.208 28.9374 22.0434 28.8781 21.8806 28.815C21.8349 28.7964 21.7874 28.7778 21.7416 28.7593C21.7727 28.7723 21.9117 28.8354 21.7544 28.7649C21.663 28.724 21.5734 28.6814 21.4838 28.6387C21.1034 28.4531 20.7377 28.2378 20.392 27.9929C20.3115 27.9354 20.2311 27.876 20.1506 27.8166C20.3042 27.9316 20.0921 27.7665 20.0446 27.7275C19.8726 27.5828 19.7099 27.4288 19.5508 27.2673C19.2161 26.924 18.598 26.898 18.2633 27.2673C17.9287 27.6366 17.9012 28.2137 18.2633 28.5793Z" fill="black" fill-opacity="0.2"/>
</svg>
