<?xml version="1.0" encoding="UTF-8"?>
<svg id="Capa_1" xmlns="http://www.w3.org/2000/svg" version="1.1" xmlns:xlink="http://www.w3.org/1999/xlink" viewBox="0 0 78 78">
  <!-- Generator: Adobe Illustrator 29.2.1, SVG Export Plug-In . SVG Version: 2.1.0 Build 116)  -->
  <defs>
    <style>
      .st0 {
        fill: #ffdb27;
      }

      .st1 {
        fill: #2a2a2a;
      }

      .st2 {
        fill: #fff;
      }

      .st3 {
        fill: #ffea4b;
      }

      .st4 {
        display: none;
        stroke: #000;
      }

      .st4, .st5 {
        fill: none;
      }

      .st6 {
        clip-path: url(#clippath-1);
      }

      .st7 {
        opacity: .6;
      }

      .st8 {
        fill: #1d1d1b;
      }

      .st9 {
        fill: #2e2c2c;
      }

      .st10 {
        clip-path: url(#clippath);
      }

      .st11 {
        fill-opacity: .2;
      }
    </style>
    <clipPath id="clippath">
      <rect class="st5" x="8.9" y="9.4" width="53.6" height="53.6"/>
    </clipPath>
    <clipPath id="clippath-1">
      <polygon class="st5" points="28.2 40.3 43.5 39 44.3 48.7 29 50 28.2 40.3"/>
    </clipPath>
  </defs>
  <g>
    <circle class="st1" cx="35" cy="37" r="35"/>
    <circle class="st11" cx="35" cy="37" r="35"/>
  </g>
  <g class="st10">
    <g>
      <g class="st7">
        <path class="st3" d="M38.7,51.6c-7.4,0-14.4-4.5-17.2-11.7l-.7-1.7c-3.6-9.4,1.1-19.9,10.6-23.5,9.5-3.6,20.1,1.1,23.7,10.5l.7,1.7c3.6,9.4-1.1,19.9-10.6,23.5-2.2.8-4.4,1.2-6.5,1.2h0Z"/>
      </g>
      <g class="st7">
        <path class="st3" d="M39.6,51.3c-1.4,0-2.9-.2-4.4-.5-9.9-2.4-15.9-12.2-13.5-22l.2-.6c2.4-9.8,12.3-15.8,22.2-13.4,9.9,2.4,15.9,12.2,13.5,22l-.2.6c-2,8.3-9.6,13.9-17.8,13.9Z"/>
      </g>
      <g class="st7">
        <path class="st3" d="M35.9,58.3c-9.3,0-17.3-7-18.2-16.4h0c0,0,0-.1,0-.1,0,0,0,0,0-.1h0c0-.1,0-.2,0-.2v-.5c0,0,0-.1,0-.2v-.3c0,0,0-.2,0-.2h0c0-.2,0-.2,0-.2h0c0-.2,0-.3,0-.4,0-.2,0-.3,0-.5v-.4s0,0,0-.1v-1c-.1-.2-.1-.3-.2-.5,0,0,0,0,0-.1h0c0-.2,0-.3,0-.5,0,0,0,0,0,0v-.4c0-.2,0-.4-.1-.5v-.4s0,0,0-.1v-.3c0-.2,0-.3,0-.5v-.3s0,0,0-.1h0c0-.2,0-.2,0-.3v-.2c0,0,0-.1,0-.2h0c0,0,0-.1,0-.2,0,0,0,0,0-.1h0c-1.1-10,6.2-19,16.2-20.1,10.1-1.1,19.1,6.1,20.3,16.1v.2c0,0,0,.1,0,.2h0c0,0,0,.1,0,.2,0,0,0,.1,0,.2h0c0,.1,0,.2,0,.2v.6c0,0,0,0,0,.1,0,0,0,.2,0,.3,0,0,0,0,0,.1v.8c0,0,0,0,0,0,0,.1,0,.2,0,.4,0,0,0,0,0,.1v.4c0,.2,0,.4.1.6,0,.2,0,.4,0,.6,0,0,0,0,0,0v1c.1,0,.1.2.1.3v.2s0,0,0,.1c0,.1,0,.2,0,.3,0,0,0,0,0,.1v.7c0,0,0,.1,0,.2v.5c0,0,0,.1,0,.2h0c0,.1,0,.2,0,.3v.2c0,0,0,.1,0,.2h0c0,.1,0,.2,0,.3,1,10-6.4,18.9-16.5,19.9-.6,0-1.2,0-1.8,0h0Z"/>
      </g>
      <g class="st7">
        <path class="st3" d="M28.1,59.8c-9.6,0-17.7-7.4-18.3-17l-.2-2.3c-.7-10,7-18.7,17.1-19.4,10.1-.7,18.9,6.9,19.5,17l.2,2.3c.7,10-7,18.7-17.1,19.4-.4,0-.8,0-1.2,0h0Z"/>
      </g>
      <g class="st7">
        <path class="st3" d="M37.9,61.3c-3.9,0-6.8-1.2-8-1.7-1.9-.7-3.4-1.4-4.9-2.4,0,0,0,0-.1,0-.7-.4-3-2-4.9-4.2,0,0,0,0-.1-.1-1.3-1.5-3.7-4.6-4.8-8.7,0,0,0-.2,0-.3-.9-3.5-.7-6.8-.5-8.4,0,0,0,0,0-.1,0-.4.1-.9.2-1.5,0-.3,0-.6.2-.9,0,0,0-.1,0-.2.6-2.8,1.7-5.2,2.2-6.2.9-2.5,2.1-4.4,2.8-5.4.1-.1.2-.3.3-.4,2.6-3.4,6.3-6,10.5-7.2.2,0,.3,0,.5-.1.6-.2,2.4-.6,5.2-.7.2,0,.3,0,.5,0,5.2,0,9.9,1.8,13.5,4.9,1.7,1,4.7,3.1,7,6.4.9,1.1,1.8,2.3,2.6,3.7,0,0,.1.2.1.3,2.3,4.5,3,10,1.7,14.9,0,0,0,.2,0,.3-1.3,4.7-4.2,8-5.8,9.5,0,0,0,0-.1.1-1.1,1.1-2.5,2.1-4,3.1-.2.2-.4.3-.6.4l-.9.6s0,0-.1,0c-3.4,2.4-7,3.7-10.7,4-.1,0-.2,0-.3,0-.4,0-.9,0-1.3,0h0Z"/>
      </g>
      <g class="st7">
        <path class="st3" d="M38.4,59.6c-.5,0-.9,0-1.2,0,0,0,0,0,0,0-1.3,0-2.9-.3-4.6-.6-2.8-.4-5.7-1.3-8.2-2.7,0,0-.1,0-.2-.1-4.4-2.5-7.6-6.4-9.2-10.9,0-.2-.1-.3-.2-.5-1.6-5.1-.8-10-.4-11.9,0,0,0,0,0-.1,0-.1,0-.2,0-.3.4-1.9,1.1-4.1,2.4-6.3,0,0,0-.2.1-.2,1-1.7,2.4-3.5,3.9-5,0,0,.1-.1.2-.2,2.5-2.4,5.6-4.2,8.8-5.2,0,0,.2,0,.3,0,.4-.1.9-.2,1.3-.3,1.5-.3,2.9-.5,4.4-.6,0,0,.2,0,.3,0,2.2,0,4.8.3,7,1,0,0,0,0,.1,0,.8.2,1.9.6,3.1,1.2,1,.4,2,.9,2.7,1.3,0,0,0,0,0,0,1.2.7,3.1,1.9,4.9,3.7,1.9,1.6,3.5,3.6,4.7,5.9,0,.1.1.2.2.3.7,1.4,1.1,2.6,1.6,4.1.5,1.7,1,3.6,1,5.9,0,.2,0,.4,0,.6,0,5.6-2.5,10.9-6.8,14.7-.9.8-1.8,1.6-2.9,2.4,0,0,0,0,0,0-2.3,1.6-5.4,2.9-8.1,3.5,0,0-.2,0-.2,0-1.8.4-3.5.5-4.9.5h0ZM53.6,53.9s0,0,0,0c0,0,0,0,0,0Z"/>
      </g>
      <g class="st7">
        <path class="st3" d="M38.2,60.1c-.4,0-.7,0-1,0,0,0-.1,0-.2,0-2.1-.1-4.5-.6-6.4-1.2,0,0-.1,0-.2,0-4.8-1.6-9.1-5.1-11.6-9.3,0-.1-.1-.2-.2-.4-2.4-4.4-2.7-8.9-2.6-11.3,0,0,0,0,0-.1,0-2.1.5-5.3,2-8.6,0,0,0,0,0-.1.5-1,2.2-4.4,5.1-7.1,0,0,.1,0,.2-.1,2.5-2.3,6.2-4.2,9.6-5,0,0,.2,0,.3,0,2.8-.6,5.4-.6,6.6-.6,2.1.1,3.4.3,4.2.5.9.2,1.8.4,2.7.6,0,0,.1,0,.2,0,1.8.6,4.5,1.6,6.9,3.4,0,0,.1.1.2.2,2.9,2.2,5.3,5.4,6.6,8.8,0,.1,0,.2.1.3,0,.1,0,.3.1.4.8,2.3,1.1,4.3,1.2,5.9,0,0,0,.2,0,.3,0,2.2-.2,4.5-.9,6.6,0,.1,0,.2-.1.3-1.2,3.7-3.5,7.1-6.4,9.7-.8.8-1.7,1.6-2.6,2.2,0,0-.1,0-.2.1-2,1.5-4.4,2.6-6,3.1,0,0-.2,0-.2,0-2.9,1-5.7,1.2-7.6,1.2h0Z"/>
      </g>
      <g class="st7">
        <path class="st3" d="M36.9,63.1c-2.9,0-6.2-.5-8.9-1.4,0,0,0,0-.1,0-.9-.3-1.8-.7-2.6-1.1-.8-.3-1.7-.7-2.6-1.2,0,0,0,0-.1,0-.7-.4-1.8-1-2.9-1.9-3.4-2.3-5.8-5.1-7.4-8.5,0,0,0-.2-.1-.3-1.3-2.9-1.9-6.2-1.8-9.4h0c0-.7.2-2.9.6-4.8,0,0,0,0,0,0,.5-2.1,1.3-4.2,1.9-5.4,0,0,0,0,0,0,.8-1.6,2-3.6,3.1-4.9,0,0,0,0,0,0,1.1-1.3,2.9-3.2,5-4.6,0,0,.1,0,.2-.1,2.4-1.6,5.4-2.9,8.2-3.4,0,0,.1,0,.2,0,2.7-.5,5.4-.4,6.7-.2.6,0,1.1,0,1.6,0,0,0,0,0,.1,0,2.4.2,4.5.8,5.4,1.1,0,0,0,0,0,0,.1,0,.3,0,.5.2,1,.2,2,.5,3.1.9.1,0,.2,0,.3.1,2.5,1,4.7,2.5,6.7,4.4.8.8,1.6,1.7,2.3,2.7,3,3.2,4.9,7.4,5.3,11.8,0,.1,0,.3,0,.4.4,5.5-1.7,9.8-3,11.9,0,.1-.2.3-.3.4-.1.2-.3.4-.4.6-.8,1.6-1.6,2.8-2.1,3.4,0,0,0,0,0,.1-1.1,1.4-2.5,2.9-3.9,4.1,0,0,0,0,0,0-.9.7-3.3,2.6-6.4,3.8,0,0-.1,0-.2,0-1.9.7-4.3,1.3-6.4,1.5,0,0,0,0-.1,0-.6,0-1.2,0-1.8,0h0Z"/>
      </g>
      <g class="st7">
        <path class="st3" d="M36.2,62.8c-.8,0-1.6,0-2.3,0-.2,0-.3,0-.5,0,0,0-.1,0-.2,0-1.5,0-5.3-.2-8.8-1.4,0,0,0,0-.1,0-.8-.3-3.6-1.4-6.1-3.2,0,0,0,0-.1-.1-1.9-1.4-5.3-4.4-7.1-9.2,0,0,0-.2,0-.3-1.3-3.5-1.7-7.6-1-11.3,0,0,0-.1,0-.2,0-.2,0-.4.1-.6.3-1.5.7-2.7,1-3.6,0,0,0-.1,0-.2.9-2.2,2-4.1,2.6-5,0,0,0,0,0,0,.8-1.1,3.5-4.9,7.3-7.4,0,0,.1,0,.2-.1,2.4-1.6,5.2-2.6,8.1-3.1.7-.2,1.4-.3,2.1-.4,0,0,.1,0,.2,0,3-.4,6.1,0,6.4.1,0,0,.1,0,.2,0,.5,0,.9.2,1.4.3,1.6.3,3.2.7,4.6,1.2,0,0,0,0,0,0,3.7,1.4,6.4,3.7,7.4,4.7,0,0,0,0,.1.1.2.2.3.3.5.5,1.3,1,2.8,2.3,4,4,0,0,.1.2.2.2,2.1,2.8,3,5.7,3.4,7.6,0,.2,0,.3,0,.5.6,2.9.5,6-.2,8.9-.5,2.6-1.5,5.1-2.9,7.3,0,0,0,.2-.1.2-1.8,2.7-3.9,4.6-5.1,5.5,0,0,0,0-.1,0-1.4,1.1-3.2,2.2-4.8,2.9,0,0,0,0-.1,0-.7.3-3.1,1.4-5.8,1.9,0,0-.1,0-.2,0-1.4.3-2.9.4-4.3.4h0Z"/>
      </g>
      <g class="st7">
        <path class="st3" d="M33.1,62.5h-.2c-.7,0-2.6,0-4.7-.5,0,0-.1,0-.2,0-1.3-.2-2.5-.6-3.7-1.1-1.8-.6-3.7-1.5-5.2-2.5,0,0-.1,0-.2,0-1.9-1.2-5.4-3.9-7.7-8.3,0,0,0-.2-.1-.2-1.3-2.6-2-5.4-2.2-8.3,0,0,0-.2,0-.2-.1-3.6.8-6.7,1.4-8.3,0,0,0-.1,0-.2.6-1.7,1.5-3.5,2.5-5.1,0,0,0,0,0,0,.2-.3.6-.9,1.3-1.8.7-1,1.3-1.7,1.7-2.1,0,0,0,0,0,0,.8-1,3.9-4.3,7.9-6.3,0,0,.2,0,.3-.1,4.3-2.1,8.5-2.2,10.7-2.1,0,0,0,0,.1,0,4.2.2,7.9,1.7,9.3,2.3,0,0,0,0,0,0,2.3,1,5.8,3.1,8.4,5.7,0,0,0,0,.1.1,2.5,2.6,4.4,5.9,5.3,9.4,0,0,0,.1,0,.2.2.9.4,1.9.5,2.9.6,3.2.4,5.9.3,7.1,0,0,0,.2,0,.2-.6,4.1-2.4,8.1-5.1,11.2,0,0,0,0,0,.1-2.3,2.6-4.9,4.2-5.9,4.8,0,0,0,0,0,0-1.5.9-3.6,1.7-5.3,2.2,0,0,0,0,0,0-2.3.6-4.7,1-7.6,1,0,0-.1,0-.2,0-.2,0-.5,0-.8,0-.3,0-.6,0-.9,0h0Z"/>
      </g>
      <g class="st7">
        <path class="st3" d="M35.1,60.9c-.7,0-1.5,0-2.3,0-2-.1-4.7-.4-7.5-1.6-.1,0-.2,0-.3-.1-3.9-1.7-7.1-4.4-9.3-7.9,0-.1-.2-.3-.3-.4-.7-1.2-1.3-2.4-1.7-3.7-.8-2.1-1.2-4-1.3-5.6-.3-2.3,0-4.3.2-5.8.2-1.1.4-2.3.9-3.6,0-.3.1-.5.2-.8,0,0,0-.2,0-.3.7-2.3,2-5.5,4.8-8.4,1.2-1.5,2.3-2.3,2.7-2.7,0,0,.2-.1.3-.2,2.9-2.3,6-3.4,8.6-3.8,2.9-.7,6-.7,9,0,.2,0,.4,0,.7.1,2.5.3,5.7,1.1,8.8,3,.1,0,.3.2.4.3.3.2.5.4.8.6,1.1.7,2.4,1.7,3.5,2.8,0,0,.1.1.2.2.1.1.3.3.4.4.8.9,1.6,1.8,2.2,2.7,0,0,.1.2.2.3,1.8,2.8,2.9,6.1,3.2,9.4,0,.1,0,.2,0,.3.2,3.1-.3,5.8-.9,7.7,0,.1,0,.2,0,.4,0,0,0,.2,0,.2-1,4.1-3.4,8.1-6.7,10.9,0,0-.1,0-.2.1-3,2.6-6.3,3.8-8,4.4,0,0-.1,0-.2,0-1.8.5-3.9.9-5.9,1-.2,0-.3,0-.4,0,0,0,0,0,0,0-.7,0-1.4,0-2.2,0h0Z"/>
      </g>
      <g class="st7">
        <path class="st3" d="M36,62.1c-2.3,0-4.8-.3-6.8-.7,0,0,0,0-.1,0-2.7-.6-5.5-1.9-7.7-3.5,0,0-.1,0-.2-.1-1.1-.8-2.2-1.7-3.2-2.8,0,0,0,0,0,0-2.2-2-3.9-4.6-5-7.3-1.4-3.6-1.7-7.6-.8-11.4.2-1.4.5-3.2,1.1-5.2.2-.9.5-1.9.9-2.9,0-.1,0-.2.1-.3,1.1-2.8,3-5.4,5.1-7.4,0,0,.2-.2.3-.2,2.9-2.7,6.8-4.6,10.8-5.3,0,0,.1,0,.2,0,1.1-.2,2.2-.3,3.2-.3,2.2-.1,4.6,0,6.6.4,0,0,.1,0,.2,0,.2,0,.8.2,1.9.5,1.7.5,6.1,1.8,9.8,6.1,2,1.6,4.5,4.2,6.1,7.9,0,0,0,.2.1.3,2.1,5,1.7,9.9,1.4,11.7,0,0,0,0,0,0-.3,2.2-1.2,4.7-2.1,6.7-.7,1.6-1.6,3-2.8,4.3-.2.3-.4.5-.5.7,0,0,0,0,0,0-1.3,1.5-2.9,2.9-3.9,3.7,0,0,0,0,0,0-1.7,1.3-3.8,2.5-5.8,3.2,0,0,0,0-.1,0-2,.8-4.5,1.3-6.6,1.5,0,0,0,0,0,0-.6,0-1.2,0-1.9,0h0Z"/>
      </g>
      <g class="st7">
        <path class="st3" d="M42.3,59.7c-.9,0-1.7,0-2.6-.2-1.2,0-2.5,0-3.7-.2-4.5-.4-8.7-2.4-12-5.7,0,0-.2-.2-.3-.3-2.2-2.4-5.9-7.6-5-15.3,0-.6.2-1.3.3-2,.4-2.2,1-4.1,1.9-5.8,0,0,0,0,0-.1.9-1.7,2.8-5,6.1-7.5,0,0,0,0,.1,0,3.5-2.6,7.5-4,11.6-4.1,1.4-.3,2.6-.3,3.5-.3,9.1,0,14.1,5.4,15.9,7.7,2.3,3.2,3.6,6.9,3.7,10.6.3,2.2.2,4.5-.3,6.8-.1.6-.3,1.1-.5,1.7-.2.6-.4,1.3-.7,1.9-1.9,5.5-6.3,10.1-12.3,12-1.9.6-3.9.9-5.8.9h0Z"/>
      </g>
      <g class="st7">
        <path class="st3" d="M31.3,57.7c-3.8,0-7.3-1.1-10.2-3-6.4-3.3-10.3-10-10.2-17.2,0-3.7,1.1-7.3,3-10.5,0,0,0-.1,0-.2,0-.1.2-.3.3-.5.3-.4.5-.9.8-1.3,1.7-2.6,3.5-4.6,5.7-6.1,0,0,.2-.1.3-.2,1.4-1,2.7-1.6,4.3-2.3,8.6-3.9,18.7-1,23.9,6.8,3.2,4.8,3.9,10.6,2.4,15.9-.4,1.5-1,2.9-1.8,4.3,0,0,0,0,0,0-2,7.9-9.1,13.9-17.8,14.3-.3,0-.5,0-.8,0h0Z"/>
      </g>
      <g class="st7">
        <path class="st3" d="M29.7,61.1c-3.6,0-7.2-1-10.2-2.9-5.6-3-9.4-8.6-10-15-.5-2.9-.4-6.9,1.6-11.2,2.6-6.2,8.2-10.6,14.9-11.6,4.3-.6,8.6.2,12.3,2.3,3.9,1.6,7.3,4.5,9.5,8.5,3.5,6.4,2.9,14-1,19.6-1.7,3.4-4.5,6.2-8.1,8.1-2.8,1.5-5.9,2.2-8.9,2.2h0Z"/>
      </g>
      <g class="st7">
        <path class="st3" d="M40.8,61.4c-3.2,0-6.4-.8-9.4-2.5-1.3-.7-2.4-1.6-3.5-2.5-.5-.4-1.1-.9-1.5-1.4-4.5-3.8-7.1-9.7-6.6-16,.9-9.9,9.2-17.3,19-17.3h.2c3.5-.5,7.2,0,10.7,1.5,7.8,3.6,12,11.7,10.9,19.7-.5,4.9-2.7,8.1-4.1,10.2-3.7,5.3-9.6,8.2-15.8,8.2h0Z"/>
      </g>
      <g class="st7">
        <path class="st3" d="M32.5,51.4c-6,0-11.8-2.9-15.3-8.2-5.6-8.4-3.2-19.7,5.2-25.2l3.8-2.5c8.5-5.5,19.9-3.2,25.4,5.2,5.6,8.4,3.2,19.7-5.2,25.2l-3.8,2.5c-3.1,2-6.6,3-10.1,3h0Z"/>
      </g>
      <g class="st7">
        <path class="st3" d="M32.5,54.8c-1.5,0-3-.2-4.4-.5-9.8-2.4-15.8-12.3-13.4-22.1l1.1-4.4c2.4-9.8,12.4-15.7,22.2-13.3,9.8,2.4,15.8,12.3,13.4,22.1l-1.1,4.4c-2.1,8.3-9.6,13.8-17.8,13.8Z"/>
      </g>
      <path class="st0" d="M20.9,47.8c3.4,0,6.1-2.5,6.1-5.7s-2.7-5.7-6.1-5.7-6.1,2.5-6.1,5.7,2.7,5.7,6.1,5.7Z"/>
      <path class="st0" d="M50.5,48.3c3.4,0,6.1-2.5,6.1-5.7s-2.7-5.7-6.1-5.7-6.1,2.5-6.1,5.7,2.7,5.7,6.1,5.7Z"/>
      <path class="st2" d="M32.8,32c0,4.6-3.8,8.3-8.5,8.3s-8.5-3.7-8.5-8.3,3.8-8.3,8.5-8.3,8.5,3.7,8.5,8.3Z"/>
      <path class="st4" d="M32.8,32c0,4.6-3.8,8.3-8.5,8.3s-8.5-3.7-8.5-8.3,3.8-8.3,8.5-8.3,8.5,3.7,8.5,8.3Z"/>
      <path class="st9" d="M30.1,31.7c0,3.1-2.5,5.6-5.6,5.6s-5.6-2.5-5.6-5.6,2.5-5.6,5.6-5.6,5.6,2.5,5.6,5.6Z"/>
      <path class="st4" d="M30.1,31.7c0,3.1-2.5,5.6-5.6,5.6s-5.6-2.5-5.6-5.6,2.5-5.6,5.6-5.6,5.6,2.5,5.6,5.6Z"/>
      <path class="st2" d="M55.9,32c0,4.6-3.8,8.3-8.5,8.3s-8.5-3.7-8.5-8.3,3.8-8.3,8.5-8.3,8.5,3.7,8.5,8.3Z"/>
      <path class="st4" d="M55.9,32c0,4.6-3.8,8.3-8.5,8.3s-8.5-3.7-8.5-8.3,3.8-8.3,8.5-8.3,8.5,3.7,8.5,8.3Z"/>
      <path class="st9" d="M52.9,31.7c0,3.1-2.4,5.6-5.5,5.6s-5.5-2.5-5.5-5.6,2.4-5.6,5.5-5.6,5.5,2.5,5.5,5.6Z"/>
      <path class="st4" d="M52.9,31.7c0,3.1-2.4,5.6-5.5,5.6s-5.5-2.5-5.5-5.6,2.4-5.6,5.5-5.6,5.5,2.5,5.5,5.6Z"/>
      <g class="st6">
        <g>
          <path class="st8" d="M29.4,42.4c4.4,0,8.8,0,13.1,0,.5,0,1-.6.9-1.2,0-.6-.5-1-1.1-1-4.4,0-8.8,0-13.1,0-.5,0-1,.6-.9,1.2,0,.6.5,1,1.1,1Z"/>
          <path class="st8" d="M28.3,41.7c0,1.5.4,3,1.2,4.3.9,1.4,2.2,2.3,3.7,2.8,3,.9,6.7.7,8.9-1.9,1.2-1.4,1.4-3.3,1.6-5.2,0-.6-.2-1.2-.8-1.3-.5,0-1.1.3-1.2.9,0,.7-.1,1.4-.2,2.1,0,.3-.1.6-.2.8,0,.1-.1.3-.2.4,0,.2-.1.3-.2.3-.2.2-.4.5-.5.6-.1.1-.4.4-.7.5-.3.2-.3.2-.6.4-.3.1-.6.2-.9.3-1.2.3-2.7.2-4-.1-.6-.1-1.1-.3-1.7-.7-.2-.1-.1,0,0,0,0,0-.1,0-.2-.1-.1,0-.2-.2-.3-.3,0,0-.2-.2-.3-.3-.1-.1.1.2,0,0,0,0-.1-.1-.2-.2,0-.1-.2-.3-.3-.4,0,0,0-.1-.1-.2,0,0-.1-.2,0,0-.2-.3-.3-.7-.4-1,0-.2,0-.3-.1-.5,0,0,0,.2,0,0,0-.1,0-.2,0-.3,0-.4,0-.7,0-1.1,0-.6-.6-1.1-1.1-1-.6,0-.9.6-.9,1.2Z"/>
        </g>
      </g>
    </g>
  </g>
</svg>