<svg width="52" height="49" viewBox="0 0 52 49" fill="none" xmlns="http://www.w3.org/2000/svg">
<g clip-path="url(#clip0_1448_163)">
<g opacity="0.55">
<path d="M29.8833 44.8356C29.1103 44.8356 28.2845 44.7932 27.4575 44.7147C27.3923 44.7147 27.3295 44.7147 27.2693 44.7159C25.7534 44.7309 25.0619 44.6985 24.3805 44.6398C24.3303 44.6348 24.2814 44.6311 24.2312 44.6261C21.0713 44.3243 17.9955 43.2679 15.3363 41.573C15.2497 41.5181 15.1631 41.462 15.0765 41.4046C12.573 39.7483 8.98643 36.2861 7.11911 31.9758C7.06891 31.8598 7.01997 31.7438 6.97228 31.6265C5.83909 28.8565 5.33211 25.6799 5.54168 22.6829C5.55297 22.5282 5.56552 22.3736 5.58058 22.2202C6.01478 17.7003 8.02265 14.0722 8.86595 12.7202C8.91364 12.6429 8.96258 12.5656 9.01278 12.4895C10.6429 9.96268 14.3248 5.45405 20.6559 3.64935C20.7036 3.63563 20.7525 3.62191 20.8015 3.60819C22.7842 3.06067 24.7444 2.88107 25.2978 2.83992C25.3405 2.83618 25.3819 2.83368 25.4246 2.83119C27.4701 2.6915 29.8206 2.87609 32.0681 3.32134C33.2766 3.40989 34.5767 3.56579 35.7839 3.83144C35.8241 3.84017 35.8655 3.8489 35.9056 3.85888C37.7115 4.26921 42.317 5.62616 46.0855 9.35404C46.1658 9.43386 46.2462 9.51369 46.3252 9.596C49.5817 12.9397 51.5055 17.3349 51.7414 21.972C51.749 22.1191 51.7552 22.2676 51.759 22.4147C51.8632 26.3422 50.6359 30.7086 48.4774 34.096C48.4473 34.1434 48.4172 34.1895 48.387 34.2369C47.4408 35.6924 46.1483 37.2813 44.9285 38.4874C44.9009 38.5148 44.8733 38.5423 44.8457 38.5685C44.7152 38.6957 44.5357 38.8665 44.3111 39.0686C43.6811 39.6934 43.011 40.2734 42.3057 40.8034C42.2229 40.8658 42.1388 40.9282 42.0535 40.9893C37.4831 44.2993 32.3818 44.777 30.4003 44.8294C30.3338 44.8307 30.2673 44.8331 30.2008 44.8331C30.0966 44.8344 29.99 44.8356 29.8833 44.8356Z" fill="#5267EE"/>
</g>
<g opacity="0.55">
<path d="M28.5217 45.7434C28.08 45.7434 27.706 45.731 27.4124 45.7147C27.3446 45.711 27.2769 45.7073 27.2104 45.7023C24.319 45.5114 21.1717 44.6546 18.5577 43.3688C16.0491 42.5007 13.7426 41.1138 11.7736 39.258C10.1523 37.8948 8.67774 36.2859 7.47176 34.561C7.43286 34.5049 7.39396 34.4488 7.35506 34.3927C4.79252 30.6373 3.46356 25.9441 3.70827 21.5191C3.71329 21.4255 3.71956 21.3332 3.72584 21.2397C3.80364 20.1334 4.04208 18.2614 4.45369 16.6275C4.46875 16.5677 4.48506 16.5066 4.50012 16.4467C4.82138 15.2282 6.12524 10.979 9.42441 7.45812C9.46834 7.41073 9.51351 7.36333 9.55744 7.31719C12.194 4.56337 15.4493 2.97693 16.7268 2.42192C16.8083 2.387 16.8899 2.35208 16.9715 2.31716C19.795 1.13856 22.5596 0.790587 25.1749 0.692058C25.4121 0.677092 25.6505 0.66462 25.8864 0.658384C25.9655 0.655889 26.0458 0.654642 26.1261 0.653395C26.4863 0.647159 26.8791 0.6509 27.2869 0.662125C30.0678 0.703283 33.3469 0.934015 36.7214 2.22362C36.7678 2.24108 36.8155 2.25979 36.8619 2.27725C38.4644 2.90459 41.5503 4.33014 44.212 6.83202C44.2647 6.88191 44.3174 6.9318 44.3701 6.98169C45.5547 8.12163 46.6189 9.44241 47.5099 10.863C47.55 10.9203 47.5902 10.9777 47.6304 11.0363C47.668 11.0912 47.7057 11.1473 47.7433 11.2035C49.8704 14.3701 51.1416 18.2152 51.3236 22.0292C51.3261 22.0953 51.3299 22.1614 51.3324 22.2275C51.3675 23.1878 51.4014 26.5814 50.3661 29.9252C50.3448 29.995 50.3222 30.0649 50.2996 30.1335C49.2944 33.2465 47.2903 36.5166 44.9398 38.8801C44.8921 38.9275 44.8444 38.9749 44.7968 39.0223C42.9997 40.7895 40.5777 42.497 38.3164 43.5883C38.2373 43.6269 38.157 43.6643 38.0767 43.7018C34.3471 45.4379 30.6501 45.7422 28.5217 45.7422V45.7434ZM12.3659 39.7394C12.4676 39.8205 12.5542 39.8866 12.6232 39.939C12.6081 39.9277 12.5918 39.9153 12.5768 39.904C12.5065 39.8504 12.4362 39.7955 12.3659 39.7407V39.7394ZM10.3907 37.8125C10.4911 37.9285 10.589 38.0395 10.6844 38.1442C10.6417 38.0968 10.599 38.0482 10.5564 38.0008C10.5011 37.9384 10.4459 37.8761 10.392 37.8125H10.3907ZM10.3782 37.7988C10.3782 37.7988 10.3832 37.805 10.3869 37.8087C10.3844 37.805 10.3819 37.8025 10.3782 37.7988ZM10.3518 37.7676C10.3518 37.7676 10.3531 37.7701 10.3543 37.7701C10.3543 37.7701 10.3531 37.7688 10.3518 37.7676ZM10.3342 37.7464C10.3342 37.7464 10.3405 37.7539 10.3443 37.7588L10.3342 37.7464Z" fill="#5267EE"/>
</g>
<g opacity="0.55">
<path d="M27.5015 47.8787C26.091 47.8787 24.4031 47.744 23.0403 47.5195C22.7215 47.5046 22.4203 47.4846 22.158 47.4609C22.1141 47.4572 22.0689 47.4522 22.025 47.4484C18.7572 47.1267 16.0265 46.0877 14.3111 45.2733C14.291 45.2633 14.2709 45.2546 14.2508 45.2446C12.0635 44.1957 10.0167 42.8051 8.33137 41.2224C8.29121 41.1838 8.2498 41.1463 8.20964 41.1077C7.47175 40.4018 6.31974 39.2082 4.84019 37.0031C4.8038 36.9483 4.76741 36.8934 4.73101 36.8385C2.63279 33.6345 1.45945 29.7694 1.33772 25.6611C1.33772 25.6324 1.33646 25.6037 1.33521 25.575C1.31011 24.5848 1.34274 23.5134 1.4218 22.4758C1.33646 20.6798 1.49835 18.8763 1.91874 17.1315C1.97145 16.9145 2.02667 16.6987 2.0869 16.4842C3.0419 13.0719 5.03596 10.136 5.84915 9.03219C5.87048 9.0035 5.89181 8.97482 5.91315 8.94488C7.64242 6.62509 11.4586 2.51432 17.5952 1.03389C17.673 1.01518 17.7495 0.997724 17.8273 0.979016C21.9849 0.0323912 27.4551 0.586148 27.5103 0.592384C27.5391 0.594878 27.568 0.59862 27.5969 0.601115C28.6046 0.710868 29.5884 0.887971 30.5233 1.10623C31.1119 1.17982 31.6741 1.26462 32.1748 1.35692C32.1848 1.35816 32.1949 1.36066 32.2062 1.36315C32.7056 1.45669 34.3634 1.78845 36.3687 2.43076C37.2497 2.67895 38.4331 3.07307 39.7507 3.73159C40.3343 4.00098 40.9115 4.29657 41.4675 4.61959C41.4926 4.63456 41.5177 4.64828 41.5428 4.66325C43.1327 5.5974 47.0932 8.25768 49.5441 12.7688C49.593 12.8598 49.642 12.9509 49.6897 13.0432C51.4968 16.5092 51.9535 20.0263 51.9473 22.719C52.0113 24.1009 51.9498 25.2757 51.8782 26.0802C51.872 26.1513 51.8644 26.2236 51.8582 26.2947C51.572 29.1046 50.7275 31.8896 49.4161 34.3491C49.3948 34.3878 49.3747 34.4264 49.3534 34.4651C48.8589 35.3768 47.486 37.7253 45.438 39.838C45.4217 39.8555 45.4041 39.8729 45.3878 39.8904C42.9596 42.3748 39.0731 44.984 35.9383 46.2337C35.8981 46.2499 35.858 46.2661 35.8178 46.2811C33.4548 47.204 30.5647 47.7989 28.0875 47.8725C28.0286 47.8737 27.9683 47.8762 27.9093 47.8775C27.7763 47.88 27.6408 47.8812 27.5027 47.8812L27.5015 47.8787Z" fill="#5267EE"/>
</g>
<g opacity="0.55">
<path d="M26.106 48.2566C24.24 48.2566 22.3789 47.971 20.5831 47.4023C19.8841 47.2913 19.1927 47.1503 18.5301 46.9707C18.4761 46.9558 18.4222 46.9408 18.3695 46.9258C18.1837 46.8735 17.9528 46.8049 17.683 46.7188C16.0955 46.3334 14.1755 45.6973 12.2844 44.6534C12.1928 44.6023 12.1011 44.5512 12.0108 44.4988C9.29139 42.936 6.85685 40.6437 5.15644 38.0408C5.08992 37.9398 5.02467 37.8375 4.96067 37.7352C3.12849 34.8055 2.06934 31.286 1.97773 27.8262C1.97397 27.6853 1.97146 27.5443 1.97146 27.4034C1.96769 26.3084 2.08942 23.2577 3.35939 19.808C3.40583 19.6471 3.45351 19.4862 3.50371 19.3253C3.6543 18.4572 3.84003 17.7476 4.03579 17.003C4.05462 16.9332 4.07219 16.8646 4.0885 16.8047C5.33212 11.6051 8.77436 7.11646 13.5506 4.47239C13.6773 4.40255 13.8053 4.33395 13.9333 4.26661C16.9288 2.70012 22.3262 1.23716 27.0974 1.72855C27.1865 1.73728 27.2769 1.74726 27.366 1.75849C30.886 2.17256 34.3584 3.54822 37.143 5.6298C37.1744 5.65349 37.2058 5.67719 37.2371 5.70089C37.7993 6.12618 38.1984 6.47789 38.4895 6.73481L38.551 6.78844C39.2588 7.39458 39.9101 8.04313 40.5012 8.72535C42.3559 10.5026 43.8468 12.6528 44.8633 15.0786C44.9222 15.2195 44.98 15.3605 45.0352 15.5026C45.5874 16.9195 45.9086 18.2664 46.0893 19.4887C46.3227 20.0225 46.5336 20.5725 46.718 21.1387C46.895 21.6526 47.2213 22.6017 47.4697 23.8938C47.486 23.9761 47.5011 24.0584 47.5149 24.1395C48.3256 28.7018 47.4145 33.3438 45.0013 37.3112C42.8341 41.6701 38.9375 45.0875 34.007 46.6278C33.6794 46.73 33.3507 46.8236 33.0081 46.9109C30.7793 47.8101 28.4389 48.2566 26.1048 48.2566H26.106ZM46.7557 21.2472C46.7783 21.3158 46.7996 21.3857 46.8209 21.4555C46.8034 21.3981 46.782 21.3271 46.7557 21.2472ZM3.99438 17.2213C3.99438 17.2213 3.99313 17.23 3.99187 17.2337C3.99187 17.2288 3.99313 17.225 3.99438 17.2213ZM38.408 6.66622C38.4406 6.69366 38.4732 6.7211 38.5046 6.74729C38.4682 6.71611 38.4356 6.68867 38.408 6.66622Z" fill="#5267EE"/>
</g>
<g opacity="0.55">
<path d="M25.3192 47.6579C24.3842 47.6579 19.8716 47.5868 16.078 46.2785C16.0378 46.2648 15.9976 46.251 15.9575 46.2361C15.0075 45.9006 12.5516 44.9527 10.274 43.3812C10.1949 43.3264 10.1158 43.2715 10.038 43.2154C7.5031 41.4082 5.24049 38.8988 3.66431 36.1512C3.62039 36.0751 3.57772 35.9978 3.53506 35.9217C3.17113 35.2645 2.85991 34.6109 2.59261 33.9636C0.60859 30.5575 -0.257302 26.5366 0.268508 22.5006C0.293606 21.5053 0.37894 20.5936 0.499413 19.8179C0.511962 19.7381 0.524511 19.6582 0.538315 19.5784C1.34523 14.8266 3.97177 10.3404 7.74154 7.26856C7.78421 7.23364 7.82687 7.19996 7.86954 7.16504C9.10814 6.17476 10.4672 5.32293 12.2768 4.40374C12.7261 4.1755 13.1791 3.956 13.5869 3.77016C16.0102 2.6614 18.3017 2.15379 20.3798 2.01909C20.617 1.97669 20.8215 1.94301 20.9872 1.91807C21.0173 1.91308 21.0462 1.90934 21.0763 1.90435C21.3574 1.86319 21.6335 1.82703 21.9058 1.79585C22.9825 1.62623 24.0881 1.55015 25.2163 1.57634L26.1462 1.59754C33.5527 1.76591 39.8473 6.28078 42.5918 12.6502C49.7173 19.6695 49.844 31.0851 42.8679 38.259C40.9617 41.5803 37.9951 44.3316 34.2128 45.9555C31.0328 47.3211 27.7022 47.6342 25.4685 47.6554C25.4597 47.6554 25.4522 47.6554 25.4434 47.6554C25.4145 47.6554 25.3719 47.6554 25.3179 47.6554L25.3192 47.6579Z" fill="#5267EE"/>
</g>
<g opacity="0.55">
<path d="M26.7874 49.0001C25.9579 49.0001 24.9527 48.9664 24.3454 48.9439C24.1998 48.9377 24.053 48.9315 23.9074 48.9215C21.4641 48.7693 19.3533 48.3827 17.4546 47.7404C17.422 47.7292 17.3906 47.7192 17.358 47.708C17.0844 47.6132 14.621 46.7526 12.5906 45.579C12.5529 45.5578 12.5165 45.5353 12.4789 45.5141C10.3932 44.2894 8.12179 42.3849 6.54812 40.5415C6.52428 40.5129 6.49918 40.4842 6.47534 40.4555C6.3624 40.322 6.25071 40.1848 6.13902 40.0464C5.5467 39.3891 4.97822 38.6969 4.44739 37.986C4.42857 37.9611 4.411 37.9361 4.39218 37.9112C2.29772 35.0738 0.988842 32.2502 0.391501 29.2768C0.372677 29.1808 0.353854 29.086 0.336285 28.99C-0.323802 25.4055 0.185695 21.5093 0.190714 21.4706C0.202009 21.3858 0.214558 21.301 0.227107 21.2162C0.567189 18.9251 1.29881 16.7113 2.52737 14.2493C2.5851 14.1333 2.64408 14.0186 2.70431 13.9038C3.8099 11.8011 5.29321 9.97267 5.57933 9.6272C5.6107 9.58853 5.64333 9.55112 5.6747 9.51245C7.44539 7.41217 9.41561 5.93798 11.0307 4.95768C12.0836 4.18067 13.1992 3.49471 14.3688 2.90728C14.3838 2.8998 14.3989 2.89232 14.4127 2.88483C15.9073 2.13901 18.9831 0.849403 22.8043 0.59248C22.8319 0.589985 22.8608 0.588738 22.8884 0.587491C22.9399 0.583749 28.1917 0.310613 32.1647 1.29715C32.2137 1.30962 32.2639 1.32209 32.3128 1.33456C35.0385 2.03549 38.2423 3.4361 40.6756 4.98886C40.6932 5.00008 40.7107 5.01131 40.7296 5.02253C41.9355 5.79829 46.0742 8.65438 48.6995 12.835C48.7347 12.8911 48.7686 12.946 48.8037 13.0021C50.5091 15.7834 51.6135 19.1259 51.9146 22.4122C51.9159 22.4297 51.9171 22.4459 51.9197 22.4634C52.074 24.2082 51.9774 26.3484 51.813 27.6966C51.8067 27.7515 51.7992 27.8076 51.7917 27.8625C51.5909 29.3916 51.0073 32.416 49.3584 35.4866C49.3358 35.5303 49.3119 35.5727 49.2881 35.6151C48.0583 37.8613 46.4444 39.6947 45.4167 40.7461C44.9385 41.2537 44.3989 41.7875 43.8154 42.3026C43.7878 42.3275 43.7589 42.3512 43.7313 42.3762C41.3533 44.4478 37.8721 46.4919 34.8641 47.5832C34.8239 47.5982 34.785 47.6119 34.7449 47.6256C32.4848 48.4276 29.8808 48.9127 27.4124 48.9901C27.2241 48.9963 27.0108 48.9988 26.7849 48.9988L26.7874 49.0001ZM26.2478 12.5544C26.2415 12.5544 26.2353 12.5544 26.2277 12.5544C26.234 12.5544 26.2415 12.5544 26.2478 12.5544Z" fill="#5267EE"/>
</g>
<g opacity="0.55">
<path d="M26.9682 47.078C26.4398 47.078 25.8977 47.0643 25.338 47.0369C25.2565 47.0331 25.1761 47.0281 25.0946 47.0232C24.4307 46.982 23.7593 46.9072 23.088 46.7999C22.0376 46.6428 21.001 46.4133 20.0034 46.1152C19.7951 46.074 19.5842 46.0291 19.3722 45.9817C18.9066 45.9019 18.4611 45.8109 18.0432 45.7086C17.9905 45.6961 17.9378 45.6824 17.8838 45.6687C16.9991 45.4442 13.8882 44.5649 10.9943 42.6954C10.9491 42.6654 10.9027 42.6355 10.8575 42.6056C8.63132 41.1389 6.52808 39.1234 4.93308 36.9308C4.89417 36.8772 4.85402 36.8223 4.81511 36.7674C2.51485 33.5297 1.27123 29.6721 1.11813 25.3019C1.11436 25.2084 1.11185 25.1161 1.1106 25.0225C1.10683 24.8143 1.02652 19.8716 2.30402 15.7833C2.3103 15.7621 2.31783 15.7396 2.3241 15.7172C3.04568 13.4398 4.27926 11.0888 4.83017 10.1647C4.86657 10.1048 4.90296 10.0437 4.93935 9.98381C6.8782 6.81467 9.74945 4.107 13.026 2.35593C13.1289 2.30106 13.2318 2.24743 13.336 2.1938C16.6954 0.481391 19.8114 0.140905 22.4166 0.032399C23.6389 -0.0187362 25.5614 -0.0349498 27.7814 0.167097C27.8592 0.17458 27.9382 0.182063 28.016 0.189546C31.5762 0.561212 34.7424 1.58766 37.4241 3.23895C37.4969 3.28385 37.5685 3.32875 37.6412 3.37365C39.0995 4.30032 42.3158 6.62385 44.8131 10.4453C46.1031 11.9344 47.1987 13.4336 48.1047 15.3879C48.1612 15.5114 48.2177 15.6349 48.2716 15.7583C50.2205 20.2246 50.4012 25.1635 48.8037 29.7744C48.3068 31.3483 47.2991 34.3292 44.793 37.2177C44.7328 37.2875 44.6713 37.3574 44.6098 37.4259C44.3902 37.6716 44.1593 37.9136 43.9196 38.1518C43.764 38.385 43.6033 38.6183 43.4364 38.8515C41.3583 41.7463 38.8899 43.8341 35.8906 45.2359C35.7902 45.2833 35.6886 45.3295 35.5869 45.3744C32.9755 46.5367 30.2673 47.078 26.9707 47.078H26.9682ZM48.2955 31.0864C48.2955 31.0864 48.293 31.0914 48.2917 31.0939C48.2917 31.0914 48.2942 31.0889 48.2955 31.0864Z" fill="#5267EE"/>
</g>
<g opacity="0.55">
<path d="M25.3167 48.4174C24.3955 48.4174 23.4795 48.3538 22.6487 48.2653C22.6349 48.264 22.6198 48.2628 22.606 48.2615C22.5759 48.2578 22.5458 48.2553 22.5144 48.2515C22.2785 48.2266 22.0451 48.1967 21.8154 48.1642C20.3635 47.9697 19.3219 47.7302 19.2441 47.7128C19.1989 47.7028 19.155 47.6916 19.1098 47.6816C16.4055 47.0318 13.3736 45.6561 11.1988 44.0921C11.1311 44.0435 11.0646 43.9948 10.998 43.9462C4.41977 39.0784 1.71291 30.3056 4.41601 22.6129C4.50636 22.3572 4.60173 22.104 4.70213 21.8521C5.99595 18.6368 8.17072 15.8855 10.9391 13.8837C11.1775 13.6293 11.4247 13.3798 11.6782 13.1366C11.7962 13.0231 11.9166 12.9121 12.0371 12.8024C13.3134 11.645 14.6059 10.7732 16.1532 9.82032C20.8416 6.93305 26.3319 6.4005 31.2198 7.89464C31.969 7.86845 32.7232 7.88591 33.4786 7.94827C36.0211 8.16029 38.4506 8.86496 40.7007 10.0461C46.2763 12.9707 49.9394 18.4285 50.5016 24.6433C50.5292 24.9439 50.548 25.2457 50.5606 25.5488C50.8065 31.6975 47.9692 37.477 42.568 41.8247C42.5479 41.8409 42.5266 41.8584 42.5052 41.8746C42.2693 42.0629 41.9418 42.3149 41.5377 42.6067C41.3934 42.7314 41.2466 42.8549 41.0972 42.9771C41.0408 43.0233 40.983 43.0694 40.9266 43.1143C38.7819 44.8192 36.4227 45.948 35.5091 46.3533C35.4589 46.3758 35.4074 46.3982 35.356 46.4207C33.5 47.2251 30.5584 48.2166 27.0848 48.3763C27.0334 48.3788 26.9807 48.3813 26.9292 48.3825C26.7385 48.39 26.5 48.395 26.2277 48.3975C26.1587 48.4012 26.0884 48.4037 26.0194 48.4062C25.7847 48.4149 25.5488 48.4187 25.3141 48.4187L25.3167 48.4174Z" fill="#5267EE"/>
</g>
<g opacity="0.55">
<path d="M26.9029 45.8633C25.7458 45.8633 24.5963 45.7536 23.4694 45.5403C22.5508 45.4206 21.6172 45.2485 20.7224 45.0115C20.6622 44.9953 20.6019 44.9791 20.543 44.9629C17.3266 44.0736 13.9685 42.1928 11.559 39.9317C11.5025 39.8793 11.4473 39.8256 11.3921 39.772C11.0583 39.4502 10.7245 39.1048 10.397 38.7431C10.1623 38.5273 9.95397 38.3278 9.77201 38.1469C9.70173 38.0771 9.63146 38.006 9.56244 37.9349C6.16036 34.4427 4.17382 29.7121 3.96802 24.6123C3.96425 24.5063 3.96049 24.4003 3.95798 24.2943C3.91029 22.184 4.17759 16.74 7.69889 11.7549C7.7541 11.6763 7.81057 11.599 7.86704 11.5204C9.34283 9.49998 11.1938 7.74766 13.6861 6.0153C14.5871 5.24328 15.3853 4.70324 15.9198 4.35029C17.6341 3.0295 19.5842 2.00804 21.6912 1.35326C25.1887 0.0886024 29.0576 -0.108455 32.8299 0.880574C33.2126 0.98035 33.6104 1.09634 34.0459 1.23353C35.1753 1.58898 37.5245 2.32982 40.0594 4.2343C40.2276 4.36026 40.3932 4.48997 40.5576 4.62218C41.5252 5.40292 42.3936 6.26349 43.1616 7.19016C43.2294 7.26998 43.2959 7.3498 43.3611 7.43087C43.6824 7.78009 44.02 8.17046 44.3638 8.60074C47.5802 12.0368 48.815 15.9218 49.2668 17.9535C49.2944 18.0757 49.3195 18.1979 49.3446 18.3202C49.9243 21.2099 49.9243 26.0803 48.8037 29.7944C48.7811 29.8692 48.7573 29.9441 48.7347 30.0189C47.4722 34.0124 44.9662 37.0294 44.2283 37.8588C44.2019 37.8887 44.1743 37.9187 44.148 37.9486C42.6408 39.6199 40.3757 41.4607 38.3766 42.6406C38.3415 42.6618 38.3063 42.6817 38.2712 42.7029C36.1315 43.9464 33.7058 44.8519 31.2424 45.3445C29.8068 45.6937 28.3511 45.8646 26.9079 45.8646L26.9029 45.8633Z" fill="#5267EE"/>
</g>
<path d="M11.1876 33.9941C14.5642 33.9941 17.3015 31.4451 17.3015 28.3006C17.3015 25.1562 14.5642 22.6072 11.1876 22.6072C7.81092 22.6072 5.07361 25.1562 5.07361 28.3006C5.07361 31.4451 7.81092 33.9941 11.1876 33.9941Z" fill="#3553E5" fill-opacity="0.7"/>
<path d="M40.8124 34.5268C44.189 34.5268 46.9263 31.9778 46.9263 28.8334C46.9263 25.6889 44.189 23.1399 40.8124 23.1399C37.4357 23.1399 34.6984 25.6889 34.6984 28.8334C34.6984 31.9778 37.4357 34.5268 40.8124 34.5268Z" fill="#3553E5" fill-opacity="0.7"/>
<ellipse cx="14.4952" cy="18.7478" rx="8.66099" ry="8.20681" fill="white"/>
<ellipse cx="14.555" cy="18.8081" rx="5.34928" ry="5.19697" fill="#2E2C2C"/>
<ellipse cx="37.125" cy="18.7791" rx="8.375" ry="8.08376" fill="white"/>
<ellipse cx="37.1735" cy="18.8172" rx="5.19587" ry="5.16949" fill="#2E2C2C"/>
<g clip-path="url(#clip1_1448_163)">
<path d="M10.7351 34.8498C11.4483 32.4208 12.5449 30.1247 13.7134 27.8828C14.48 29.8683 15.2504 31.8687 15.6043 33.9702C15.7794 35.0088 15.8052 36.2027 15.1011 36.9756C14.5243 37.6081 13.6212 37.7784 12.7826 37.915C12.4214 37.973 12.0381 38.0291 11.699 37.8869C11.3856 37.754 11.1755 37.4602 10.9839 37.1758C10.5508 36.5339 10.3517 35.6675 10.6706 34.9602" fill="#36A9E1"/>
<path d="M11.6235 35.0967C11.8004 34.4979 11.9994 33.9047 12.2188 33.319C12.3257 33.0326 12.4362 32.7482 12.5523 32.4656C12.556 32.4563 12.6648 32.1943 12.5929 32.3665C12.6205 32.2991 12.65 32.2317 12.6777 32.1662C12.7403 32.0184 12.8048 31.8724 12.8693 31.7265C13.3743 30.5812 13.9346 29.4622 14.5115 28.3543C13.9493 28.2795 13.3891 28.2046 12.827 28.1316C13.2435 29.2077 13.6581 30.2855 14.0102 31.3859C14.1816 31.9211 14.3364 32.46 14.4672 33.0046C14.5299 33.2628 14.587 33.5229 14.6386 33.783C14.6663 33.929 14.6939 34.0731 14.7179 34.2191C14.7252 34.2658 14.7326 34.3126 14.74 34.3575C14.7768 34.5727 14.7252 34.191 14.7455 34.3912C14.7695 34.6177 14.7879 34.8441 14.7879 35.0743C14.7879 35.1809 14.7861 35.2895 14.7787 35.3961C14.7787 35.4092 14.7658 35.6413 14.775 35.4822C14.7824 35.3362 14.7603 35.5683 14.7529 35.6001C14.7326 35.7012 14.7087 35.8022 14.6773 35.9014C14.6736 35.9126 14.6073 36.1278 14.6534 35.9819C14.6994 35.8359 14.6239 36.0399 14.6165 36.0548C14.5962 36.0941 14.5741 36.1353 14.5502 36.1727C14.5446 36.1821 14.4322 36.3748 14.5078 36.2476C14.5833 36.1203 14.4617 36.3 14.4488 36.3131C14.4009 36.3655 14.3474 36.4123 14.2977 36.4609C14.2479 36.5096 14.2276 36.5732 14.3216 36.4459C14.2921 36.4852 14.2184 36.5171 14.1779 36.5432C14.1539 36.5582 13.9328 36.7098 13.9014 36.6911L13.9936 36.6537C13.9604 36.6668 13.9272 36.6799 13.8959 36.693C13.8406 36.7135 13.7853 36.7341 13.7282 36.751C13.6139 36.7884 13.4996 36.8202 13.3835 36.8483C13.1734 36.9007 12.9615 36.94 12.7495 36.9774C12.6279 36.998 12.5063 37.0204 12.3828 37.0373C12.5726 37.0111 12.4307 37.0317 12.3902 37.0317C12.3128 37.0335 12.2317 37.0335 12.1543 37.041L12.0769 37.0373C12.193 37.0579 12.1985 37.056 12.0934 37.0335C11.9165 36.9456 12.2224 37.1028 12.0381 37.0111C11.9147 36.9512 12.0363 37.0298 12.0529 37.0279C12.0289 37.0298 11.9165 36.8857 11.9018 36.8707C11.7433 36.7004 11.9663 36.9755 11.887 36.8558C11.8465 36.794 11.8022 36.736 11.7617 36.6724C11.688 36.5582 11.6253 36.4422 11.5645 36.3206C11.4834 36.1596 11.5571 36.3206 11.57 36.3393C11.5332 36.285 11.5184 36.1933 11.5 36.1297C11.4797 36.0586 11.4668 35.9856 11.4484 35.9145C11.3986 35.7255 11.4447 36.0848 11.4429 35.8733C11.4429 35.849 11.4318 35.5121 11.4484 35.5121C11.4539 35.5121 11.4097 35.7105 11.4576 35.5121C11.4705 35.4616 11.5608 35.2146 11.4687 35.4298C11.5719 35.1903 11.6327 34.9713 11.5608 34.7094C11.5018 34.4923 11.336 34.2565 11.1369 34.1498C10.7388 33.9365 10.0809 34.0057 9.87631 34.4848C9.58143 35.1753 9.51324 35.892 9.72334 36.6237C9.89842 37.23 10.2468 37.8569 10.6964 38.2986C11.312 38.9049 12.0676 38.9573 12.873 38.8375C13.3946 38.7589 13.9254 38.6728 14.4193 38.4819C15.0699 38.2293 15.6173 37.8625 16.0301 37.2843C16.4024 36.7622 16.5535 36.1316 16.6125 35.499C16.6696 34.9058 16.5922 34.3033 16.4945 33.7175C16.3876 33.0757 16.2402 32.4432 16.0651 31.8163C15.6689 30.3903 15.1362 29.0074 14.6036 27.6283C14.4654 27.2708 14.2313 27.0107 13.8369 26.9583C13.4867 26.9115 13.0905 27.0744 12.9191 27.4056C11.7156 29.7204 10.5877 32.0914 9.84682 34.6008C9.70859 35.0686 10.0127 35.6413 10.49 35.7517C10.9674 35.8621 11.476 35.6001 11.6235 35.0986V35.0967Z" fill="#36A9E1"/>
</g>
<g clip-path="url(#clip2_1448_163)">
<path d="M31.3091 29.6555C29.0146 27.3794 25.6688 26.9362 22.7966 27.9685C21.9546 28.2709 21.1428 28.6935 20.3897 29.1975C20.0386 29.4323 19.9101 30.0018 20.1549 30.3767C20.3997 30.7516 20.8722 30.8899 21.2479 30.6388C21.5467 30.4386 21.8539 30.2518 22.1698 30.0835C22.2116 30.0613 22.255 30.039 22.2968 30.0168C22.286 30.0224 22.1882 30.0691 22.2704 30.0298C22.3449 29.9943 22.4209 29.9571 22.4954 29.9216C22.6678 29.8411 22.842 29.7674 23.0194 29.697C23.3496 29.5674 23.6868 29.4563 24.028 29.3656C24.1877 29.3233 24.3476 29.2878 24.5092 29.2539C24.539 29.2476 24.6708 29.22 24.5092 29.2539C24.5547 29.2452 24.6019 29.2382 24.6475 29.2312C24.7403 29.2172 24.8331 29.2032 24.926 29.1927C25.2739 29.1496 25.6228 29.1304 25.9727 29.1351C26.1231 29.1376 26.2737 29.1435 26.4245 29.1562C26.4658 29.1597 26.5117 29.1596 26.5532 29.1682C26.5261 29.1641 26.383 29.1477 26.5357 29.1672C26.6217 29.1791 26.7075 29.1893 26.792 29.203C27.1121 29.2534 27.4299 29.3261 27.7423 29.4195C27.8881 29.4632 28.0325 29.5122 28.1755 29.5645C28.2157 29.58 28.2575 29.5954 28.2977 29.6109C28.2703 29.6 28.1479 29.5468 28.2864 29.6062C28.3669 29.6406 28.4459 29.6768 28.525 29.7129C28.8605 29.8704 29.1846 30.0557 29.4924 30.2691C29.5641 30.3192 29.6359 30.371 29.7076 30.4228C29.5706 30.3223 29.7601 30.4669 29.8026 30.5011C29.9566 30.6283 30.103 30.7643 30.2465 30.9073C30.5485 31.2115 31.0835 31.2139 31.3586 30.8625C31.6337 30.5111 31.6356 29.9792 31.3091 29.6555Z" fill="#2E2C2C"/>
<path d="M31.3091 29.6555C29.0146 27.3794 25.6688 26.9362 22.7966 27.9685C21.9546 28.2709 21.1428 28.6935 20.3897 29.1975C20.0386 29.4323 19.9101 30.0018 20.1549 30.3767C20.3997 30.7516 20.8722 30.8899 21.2479 30.6388C21.5467 30.4386 21.8539 30.2518 22.1698 30.0835C22.2116 30.0613 22.255 30.039 22.2968 30.0168C22.286 30.0224 22.1882 30.0691 22.2704 30.0298C22.3449 29.9943 22.4209 29.9571 22.4954 29.9216C22.6678 29.8411 22.842 29.7674 23.0194 29.697C23.3496 29.5674 23.6868 29.4563 24.028 29.3656C24.1877 29.3233 24.3476 29.2878 24.5092 29.2539C24.539 29.2476 24.6708 29.22 24.5092 29.2539C24.5547 29.2452 24.6019 29.2382 24.6475 29.2312C24.7403 29.2172 24.8331 29.2032 24.926 29.1927C25.2739 29.1496 25.6228 29.1304 25.9727 29.1351C26.1231 29.1376 26.2737 29.1435 26.4245 29.1562C26.4658 29.1597 26.5117 29.1596 26.5532 29.1682C26.5261 29.1641 26.383 29.1477 26.5357 29.1672C26.6217 29.1791 26.7075 29.1893 26.792 29.203C27.1121 29.2534 27.4299 29.3261 27.7423 29.4195C27.8881 29.4632 28.0325 29.5122 28.1755 29.5645C28.2157 29.58 28.2575 29.5954 28.2977 29.6109C28.2703 29.6 28.1479 29.5468 28.2864 29.6062C28.3669 29.6406 28.4459 29.6768 28.525 29.7129C28.8605 29.8704 29.1846 30.0557 29.4924 30.2691C29.5641 30.3192 29.6359 30.371 29.7076 30.4228C29.5706 30.3223 29.7601 30.4669 29.8026 30.5011C29.9566 30.6283 30.103 30.7643 30.2465 30.9073C30.5485 31.2115 31.0835 31.2139 31.3586 30.8625C31.6337 30.5111 31.6356 29.9792 31.3091 29.6555Z" fill="black" fill-opacity="0.2"/>
</g>
<g clip-path="url(#clip3_1448_163)">
<path d="M34.8853 34.8498C35.5985 32.4208 36.6951 30.1247 37.8636 27.8828C38.6303 29.8683 39.4006 31.8687 39.7545 33.9702C39.9296 35.0088 39.9554 36.2027 39.2513 36.9756C38.6745 37.6081 37.7714 37.7784 36.9329 37.915C36.5716 37.973 36.1883 38.0291 35.8492 37.8869C35.5359 37.754 35.3258 37.4602 35.1341 37.1758C34.701 36.5339 34.5019 35.6675 34.8208 34.9602" fill="#36A9E1"/>
<path d="M35.7737 35.0967C35.9506 34.4979 36.1497 33.9047 36.369 33.319C36.4759 33.0326 36.5864 32.7482 36.7026 32.4656C36.7062 32.4563 36.815 32.1943 36.7431 32.3665C36.7707 32.2991 36.8002 32.2317 36.8279 32.1662C36.8905 32.0184 36.955 31.8724 37.0195 31.7265C37.5245 30.5812 38.0848 29.4622 38.6617 28.3543C38.0995 28.2795 37.5393 28.2046 36.9772 28.1316C37.3937 29.2077 37.8084 30.2855 38.1604 31.3859C38.3318 31.9211 38.4866 32.46 38.6174 33.0046C38.6801 33.2628 38.7372 33.5229 38.7888 33.783C38.8165 33.929 38.8441 34.0731 38.8681 34.2191C38.8755 34.2658 38.8828 34.3126 38.8902 34.3575C38.9271 34.5727 38.8755 34.191 38.8957 34.3912C38.9197 34.6177 38.9381 34.8441 38.9381 35.0743C38.9381 35.1809 38.9363 35.2895 38.9289 35.3961C38.9289 35.4092 38.916 35.6413 38.9252 35.4822C38.9326 35.3362 38.9105 35.5683 38.9031 35.6001C38.8828 35.7012 38.8589 35.8022 38.8275 35.9014C38.8238 35.9126 38.7575 36.1278 38.8036 35.9819C38.8496 35.8359 38.7741 36.0399 38.7667 36.0548C38.7464 36.0941 38.7243 36.1353 38.7004 36.1727C38.6948 36.1821 38.5824 36.3748 38.658 36.2476C38.7335 36.1203 38.6119 36.3 38.599 36.3131C38.5511 36.3655 38.4976 36.4123 38.4479 36.4609C38.3981 36.5096 38.3778 36.5732 38.4718 36.4459C38.4423 36.4852 38.3686 36.5171 38.3281 36.5432C38.3041 36.5582 38.083 36.7098 38.0516 36.6911L38.1438 36.6537C38.1106 36.6668 38.0774 36.6799 38.0461 36.693C37.9908 36.7135 37.9355 36.7341 37.8784 36.751C37.7641 36.7884 37.6499 36.8202 37.5337 36.8483C37.3236 36.9007 37.1117 36.94 36.8998 36.9774C36.7781 36.998 36.6565 37.0204 36.533 37.0373C36.7228 37.0111 36.5809 37.0317 36.5404 37.0317C36.463 37.0335 36.3819 37.0335 36.3045 37.041L36.2271 37.0373C36.3432 37.0579 36.3487 37.056 36.2436 37.0335C36.0667 36.9456 36.3727 37.1028 36.1884 37.0111C36.0649 36.9512 36.1865 37.0298 36.2031 37.0279C36.1791 37.0298 36.0667 36.8857 36.052 36.8707C35.8935 36.7004 36.1165 36.9755 36.0372 36.8558C35.9967 36.794 35.9525 36.736 35.9119 36.6724C35.8382 36.5582 35.7755 36.4422 35.7147 36.3206C35.6336 36.1596 35.7073 36.3206 35.7202 36.3393C35.6834 36.285 35.6686 36.1933 35.6502 36.1297C35.6299 36.0586 35.617 35.9856 35.5986 35.9145C35.5488 35.7255 35.5949 36.0848 35.5931 35.8733C35.5931 35.849 35.582 35.5121 35.5986 35.5121C35.6041 35.5121 35.5599 35.7105 35.6078 35.5121C35.6207 35.4616 35.711 35.2146 35.6189 35.4298C35.7221 35.1903 35.7829 34.9713 35.711 34.7094C35.652 34.4923 35.4862 34.2565 35.2871 34.1498C34.889 33.9365 34.2311 34.0057 34.0265 34.4848C33.7316 35.1753 33.6634 35.892 33.8735 36.6237C34.0486 37.23 34.397 37.8569 34.8467 38.2986C35.4622 38.9049 36.2178 38.9573 37.0232 38.8375C37.5448 38.7589 38.0756 38.6728 38.5695 38.4819C39.2201 38.2293 39.7675 37.8625 40.1803 37.2843C40.5526 36.7622 40.7037 36.1316 40.7627 35.499C40.8198 34.9058 40.7424 34.3033 40.6447 33.7175C40.5378 33.0757 40.3904 32.4432 40.2153 31.8163C39.8191 30.3903 39.2864 29.0074 38.7538 27.6283C38.6156 27.2708 38.3815 27.0107 37.9871 26.9583C37.637 26.9115 37.2407 27.0744 37.0693 27.4056C35.8658 29.7204 34.7379 32.0914 33.997 34.6008C33.8588 35.0686 34.1629 35.6413 34.6402 35.7517C35.1176 35.8621 35.6262 35.6001 35.7737 35.0986V35.0967Z" fill="#36A9E1"/>
</g>
</g>
<defs>
<clipPath id="clip0_1448_163">
<rect width="52" height="49" fill="white"/>
</clipPath>
<clipPath id="clip1_1448_163">
<rect width="7.02921" height="11.9372" fill="white" transform="translate(9.59979 26.9546)"/>
</clipPath>
<clipPath id="clip2_1448_163">
<rect width="11.5095" height="3.89584" fill="white" transform="matrix(-0.99919 0.040248 -0.0410116 -0.999159 31.5948 31.0991)"/>
</clipPath>
<clipPath id="clip3_1448_163">
<rect width="7.02921" height="11.9372" fill="white" transform="translate(33.75 26.9546)"/>
</clipPath>
</defs>
</svg>
