<svg width="52" height="51" viewBox="0 0 52 51" fill="none" xmlns="http://www.w3.org/2000/svg">
<g clip-path="url(#clip0_1448_129)">
<g opacity="0.55">
<path d="M24.4406 45.5747C19.8662 45.5747 15.4822 43.8478 12.0624 40.6264C11.9101 40.4835 11.7603 40.3369 11.6129 40.1891C10.7714 39.3418 8.21032 36.7614 6.18722 31.1037C6.17739 31.0764 6.16757 31.0478 6.15774 31.0205C5.20085 28.3047 3.81895 22.8744 5.32123 17.0154C5.36791 16.834 5.41704 16.6526 5.46863 16.4725C6.61592 12.4671 9.05298 8.68292 12.1533 6.0926C12.2442 6.01682 12.3351 5.94228 12.4273 5.86774C12.4899 5.81804 12.5526 5.76835 12.6164 5.71865C13.9873 4.44524 15.5203 3.3793 17.1564 2.55561C18.5764 1.73938 20.0775 1.0946 21.5699 0.675927C21.6952 0.641141 21.8205 0.607598 21.9458 0.575296C24.2269 -0.0123384 26.5681 -0.145271 29.3159 0.156622C31.6474 0.412548 33.6938 0.920672 35.572 1.71205C35.6518 1.7456 35.7316 1.78038 35.8103 1.81517C37.8198 2.696 42.8242 5.34222 45.8938 10.8695C45.9454 10.9626 45.997 11.0571 46.0474 11.1515C46.7095 12.3901 47.1983 13.63 47.5595 14.8115C47.6012 14.9233 47.6418 15.0363 47.6811 15.1494C47.745 15.3308 47.8052 15.5134 47.8641 15.696C48.7105 18.3559 48.9193 20.868 48.8861 22.8532C49.1944 28.5308 47.2536 34.1227 43.4015 38.1839C43.2602 38.333 43.1153 38.4808 42.9691 38.625C41.9987 39.5828 40.935 40.4264 39.7901 41.1494C39.332 41.4874 38.7755 41.8712 38.1134 42.2601C35.2821 43.9249 32.3942 44.5684 30.9251 44.8044C30.8588 44.8156 30.7912 44.8256 30.7249 44.8355C30.1402 44.9225 29.5567 44.9771 28.9892 45.0082C28.5445 45.1188 28.1023 45.2132 27.6638 45.2902C26.5853 45.4815 25.5068 45.576 24.4394 45.576L24.4406 45.5747ZM36.8544 42.6589C36.8544 42.6589 36.8507 42.6601 36.8494 42.6614C36.8507 42.6614 36.8531 42.6601 36.8544 42.6589Z" fill="#5267EE"/>
</g>
<g opacity="0.55">
<path d="M26.5657 47.9017C25.0155 47.9017 23.5771 47.765 22.5809 47.5985C22.5219 47.5886 22.4617 47.5787 22.4028 47.5675C18.2669 46.8332 14.9896 44.7809 13.7736 43.9323C13.7441 43.9125 13.7146 43.8913 13.6851 43.8702C12.9284 43.336 10.7174 41.665 8.68693 39.076C5.91576 36.0235 4.06586 32.0318 3.63962 27.5531C3.61382 27.2748 3.59294 26.9965 3.57697 26.7182C3.3055 21.6656 4.94413 18.0801 5.82363 16.1545C6.56065 14.5407 7.08761 13.5344 7.70425 12.5616C7.7325 12.5169 7.76075 12.4721 7.789 12.4287C7.79269 12.4224 7.7976 12.4162 7.80129 12.41C8.59726 11.1055 9.5996 9.72901 10.2801 8.89912C10.317 8.85439 10.3538 8.80843 10.3919 8.7637C12.0453 6.78463 15.6075 3.25012 20.8968 1.82017C21.0258 1.78538 21.156 1.75184 21.2862 1.71954C23.9922 1.05363 26.5288 1.13935 27.7989 1.24992C27.8726 1.25614 27.9463 1.26359 28.02 1.27104C28.9941 1.36795 29.9866 1.54064 30.973 1.78165C32.2898 2.02888 33.7429 2.39165 35.0069 2.85505C35.0425 2.86747 35.0769 2.88114 35.1126 2.89356C36.3827 3.36814 37.5988 3.9769 39.0568 4.86891C40.9669 6.03673 43.1927 7.61576 45.2158 10.4744C45.2993 10.5924 45.3816 10.7117 45.4627 10.8322C47.288 13.5368 48.4009 16.6626 48.7559 19.8865C48.9156 20.8431 49.0102 21.8122 49.0384 22.7825C49.0446 22.9788 49.047 23.1763 49.047 23.3726C49.047 24.159 49.0016 24.9653 48.9144 25.7728C48.907 25.9641 48.8972 26.143 48.8861 26.3083C48.8824 26.358 48.88 26.4077 48.8763 26.4574C48.654 29.5024 47.7339 32.8965 46.4159 35.5377C46.3778 35.6148 46.3385 35.6918 46.2992 35.7676C45.5769 37.169 42.818 41.9657 37.6626 44.8368C37.5656 44.8902 37.4685 44.9436 37.3715 44.9958C36.7242 45.3412 36.0793 45.6369 35.443 45.8928C33.851 46.6568 31.9471 47.3426 29.8319 47.6706C29.7299 47.6867 29.6267 47.7017 29.5248 47.7153C28.5495 47.8483 27.5348 47.9029 26.5657 47.9029V47.9017Z" fill="#5267EE"/>
</g>
<g opacity="0.55">
<path d="M26.1382 49.6795C25.4577 49.6795 24.9614 49.6559 24.7612 49.6447C24.7342 49.6434 24.7072 49.6409 24.6814 49.6397C21.7075 49.4558 18.687 48.5266 16.3691 47.519C14.2404 46.6953 12.1276 45.6803 9.92514 43.6826C9.69298 43.4726 9.46696 43.2552 9.24463 43.0329C6.81003 40.5879 5.03874 37.4398 4.08922 34.0158C3.39397 31.8094 3.13847 29.803 3.05371 28.3643C3.0488 28.2724 3.04389 28.1805 3.03897 28.0885C2.92105 25.4436 3.25639 22.7228 4.00201 20.1474C4.59039 17.6204 5.57799 15.1991 6.93041 12.9989C6.97708 12.9231 7.02376 12.8473 7.07167 12.7715C7.26575 12.4647 7.49791 12.1218 7.75955 11.7565C8.26317 10.9825 8.8319 10.2123 9.47188 9.47182C9.54681 9.38609 9.62173 9.30037 9.69789 9.21589C10.4435 8.38476 11.2604 7.61574 12.1362 6.91877C12.8413 6.30505 13.7994 5.54224 15.0081 4.79931C16.0767 4.08496 17.2621 3.44266 18.5715 2.92584C18.6919 2.87863 18.8135 2.83142 18.9351 2.78669C21.6093 1.79778 24.0156 1.64621 25.5916 1.61764C26.1345 1.6077 27.2044 1.60397 28.2522 1.68845C28.3038 1.69218 28.3542 1.69715 28.4058 1.70087C30.6586 1.90214 33.5857 2.6401 35.6899 3.53832C35.7378 3.5582 35.7857 3.57932 35.8324 3.60044C37.1259 4.16571 38.2056 4.80428 39.7472 5.78574L39.757 5.79196C39.7828 5.80811 39.8086 5.82426 39.8344 5.84041C41.586 6.96226 43.1264 8.34252 44.4162 9.92279C46.5744 12.0808 48.8542 15.1718 50.0543 19.3013C50.1071 19.4815 50.1563 19.6616 50.2042 19.843C51.0702 23.1651 51.1377 27.1344 50.386 30.4614C50.3442 30.6478 50.2988 30.8329 50.2521 31.018C49.3333 34.6047 47.363 38.0783 44.7847 40.6997C44.5009 41.0501 44.2061 41.3892 43.9027 41.716C43.8057 41.8203 43.7074 41.9234 43.6079 42.0253C42.5798 43.0801 41.4484 44.0218 39.6993 45.2741C39.6612 45.3014 39.6231 45.3287 39.5838 45.3561C38.0827 46.4133 35.0168 48.3129 31.3415 49.1564C31.274 49.1713 31.2052 49.1875 31.1376 49.2024C29.3172 49.5975 27.4083 49.6795 26.1394 49.6795H26.1382Z" fill="#5267EE"/>
</g>
<g opacity="0.55">
<path d="M22.2492 50.487C21.1105 50.487 20.0075 50.4137 18.9462 50.2671C18.8712 50.2571 18.7975 50.2459 18.7226 50.2348C14.9823 49.667 11.1817 47.9265 8.29264 45.4591C8.21894 45.3958 8.14401 45.3312 8.07154 45.2666C5.54358 43.0365 3.25884 39.8077 1.95801 36.6297C1.93344 36.5701 1.90887 36.5092 1.88554 36.4496C0.837747 33.817 -0.324278 29.7446 0.0835364 25.2857C0.0909065 25.2062 0.0982767 25.1255 0.106875 25.046C0.700171 19.3175 3.51679 14.1343 7.83446 10.8247C9.08247 9.86809 10.43 9.08913 11.8414 8.49653C13.7502 6.93861 16.2131 5.4043 19.1796 4.5272C19.2791 4.49738 19.3786 4.46881 19.4793 4.44148C21.8942 3.77433 24.4787 3.57307 27.6159 3.81036C27.6835 3.81533 27.7498 3.8203 27.8161 3.82651C28.7337 3.90602 31.9729 4.27003 35.1077 5.58445C35.1654 5.60805 35.2231 5.6329 35.2809 5.65774C35.8361 5.89752 36.4552 6.1932 37.6688 6.85413C38.1835 7.13366 38.8591 7.50264 39.6268 8.00456C43.1301 9.41587 46.1751 11.9441 48.3039 15.2972C50.5125 18.7783 51.6905 22.8631 51.7089 27.112C51.7089 27.1692 51.7089 27.2263 51.7089 27.2835C51.6954 30.7583 50.9203 34.0444 49.407 37.0521C47.8248 40.194 45.4787 42.7632 42.6682 44.5423C41.6487 45.3411 40.5628 46.0406 39.4302 46.6245C39.3762 46.6518 39.3234 46.6791 39.2693 46.7065C38.1085 47.2904 36.8028 47.7836 35.5695 48.1824C34.0685 48.9539 32.4839 49.5341 30.8711 49.8993C30.7495 49.9267 30.6278 49.9527 30.5062 49.9776C28.3247 50.4224 26.2696 50.4174 25.4884 50.3963C25.4098 50.3938 25.3324 50.3913 25.2538 50.3876C25.1383 50.3826 24.9971 50.3751 24.8337 50.364C23.9554 50.4447 23.0931 50.4857 22.2492 50.4857V50.487ZM51.2249 26.2945C51.2249 26.2945 51.2249 26.302 51.2249 26.3057C51.2249 26.302 51.2249 26.2983 51.2249 26.2945Z" fill="#5267EE"/>
</g>
<g opacity="0.55">
<path d="M22.9322 51C20.9373 51 18.7386 50.6645 16.3543 49.8309C16.2892 49.8085 16.2253 49.7849 16.1602 49.7613C14.7943 49.2656 12.4162 48.2146 10.032 46.2778C9.66961 46.0181 9.3097 45.7398 8.95471 45.4429C8.88592 45.3857 8.81713 45.3274 8.74958 45.269C8.11452 44.7223 7.66862 44.2689 7.2387 43.8303L7.20799 43.7993C4.46507 41.0909 2.53532 37.6446 1.61528 33.8045C1.61282 33.7921 1.60914 33.7796 1.60668 33.7685C1.5207 33.4057 1.3217 32.5683 1.17307 31.2676C1.05761 30.4849 0.983907 29.6948 0.954426 28.9034C0.950741 28.8189 0.948284 28.7332 0.945828 28.6487C0.872126 25.7105 1.32907 22.4804 2.19875 19.787C2.21718 19.7286 2.23683 19.669 2.25648 19.6106C3.01929 17.3209 4.4319 14.5107 5.77204 12.6173C5.80889 12.5639 5.84697 12.5117 5.88505 12.4596C8.75449 8.48774 12.4862 6.43164 14.4565 5.5595C14.4749 5.55205 14.4934 5.54335 14.5106 5.5359C15.2979 5.19052 19.1292 3.66864 22.1362 3.0897C22.1841 3.081 22.2308 3.07106 22.2787 3.06237C23.5635 2.82632 25.8913 2.59027 29.6844 2.81141C29.7225 2.81389 29.7606 2.81638 29.7999 2.81886C32.9212 3.02137 36.0326 4.03389 38.7976 5.74461C38.8578 5.78189 38.918 5.81916 38.977 5.85767C41.1819 7.25781 43.2922 9.34745 43.8867 9.95496C43.9272 9.9972 43.9678 10.0382 44.0083 10.0804C44.2884 10.3712 44.6004 10.7128 44.9308 11.1041C48.5557 14.5132 50.8822 19.4205 51.0431 24.908C51.0726 25.9031 51.0615 26.8088 51.0124 27.6026C51.0063 27.6958 51.0001 27.789 50.9927 27.8809C50.8834 29.3183 50.6328 30.6452 50.2938 31.8614C50.2852 31.8987 50.2766 31.936 50.268 31.972C49.9228 33.4069 49.4512 34.7276 48.9316 35.909C48.8161 36.1848 48.6933 36.4607 48.5631 36.7377C48.5127 36.8445 48.4611 36.9514 48.4083 37.057C48.0889 37.7018 47.7511 38.3018 47.3998 38.8609C46.6444 40.1144 45.9405 41.0487 45.5008 41.5903C45.4639 41.6363 45.4271 41.681 45.3902 41.7258C44.9775 42.2252 43.4973 43.9198 42.1461 45.1124C40.1341 46.889 36.745 49.1029 31.9569 49.6595C30.5799 50.0657 29.026 50.3726 27.2978 50.4434C25.9785 50.7863 24.5192 50.9987 22.9309 50.9987L22.9322 51Z" fill="#5267EE"/>
</g>
<g opacity="0.55">
<path d="M24.8595 48.7104C22.7173 48.7104 20.4534 48.4371 19.2361 48.1762C19.1931 48.1675 19.1513 48.1575 19.1083 48.1476C15.7697 47.4047 12.3192 45.5026 10.3809 43.9472C10.3502 43.9223 10.3195 43.8975 10.2887 43.8727C9.46697 43.2043 8.69925 42.4675 7.99172 41.6724C4.30296 38.3143 1.86345 33.5015 1.34631 28.4128C1.33157 28.2724 1.31929 28.1332 1.30823 27.9928C1.05519 24.8646 1.57478 21.9761 2.25775 19.6827C2.56852 18.131 3.00459 16.5979 3.54015 15.1916C3.55858 15.1419 3.57823 15.0922 3.59666 15.0438C5.27951 10.7253 8.23493 7.02434 11.9212 4.62287C12.0035 4.56945 12.0871 4.51602 12.1706 4.4626C13.0734 3.89485 16.3372 1.9928 20.4116 1.33435C20.4423 1.32938 20.4718 1.32441 20.5025 1.31944C22.5686 0.996427 24.9418 1.02997 26.5473 1.17036C27.0398 1.15421 27.5361 1.15545 28.0397 1.17408C28.0852 1.17533 28.1306 1.17781 28.1748 1.1803C30.0825 1.26602 31.8464 1.50952 33.4187 1.90335C33.442 1.90956 33.4654 1.91453 33.4887 1.92074C34.351 2.14064 37.3826 2.98793 40.1783 4.68623C40.2299 4.71729 40.2815 4.74959 40.3331 4.78065C44.4886 7.35978 47.0252 11.067 48.1676 13.0473C48.2081 13.1181 48.2486 13.1889 48.2892 13.261C50.1649 16.6104 51.1574 20.279 51.2385 24.1689C51.2397 24.2347 51.2409 24.3006 51.2421 24.3664C51.2704 26.8586 50.9768 30.613 49.418 34.35C49.3849 34.4307 49.3505 34.5115 49.3161 34.591C47.0584 39.8114 43.1497 42.9086 41.5738 43.9969C41.5357 44.023 41.4964 44.0503 41.4583 44.0764C40.2459 44.9013 38.8935 45.6231 36.9367 46.4891C35.0905 47.3065 33.3769 48.0122 31.0934 48.3638C31.0431 48.3712 30.9915 48.3787 30.9399 48.3861C29.9388 48.5315 28.434 48.606 26.8789 48.6122C26.8519 48.6147 26.8236 48.6185 26.7966 48.6209C26.1861 48.6831 25.529 48.7104 24.8583 48.7104H24.8595Z" fill="#5267EE"/>
</g>
<g opacity="0.55">
<path d="M25.4995 50.3999C22.7786 50.3999 19.8994 49.9141 17.2142 48.9886C17.1712 48.9737 17.1294 48.9588 17.0864 48.9439C15.6849 48.4482 13.7269 47.5872 11.7075 46.1622C9.42027 44.7236 7.63424 43.0104 6.40589 41.6351C6.31499 41.5332 6.22409 41.4301 6.13442 41.3257C4.39875 39.2957 1.43719 34.9673 1.0957 28.7816C1.09447 28.7518 1.09202 28.722 1.09079 28.6922C0.954442 26.0037 1.38191 23.9849 1.63741 22.7798C1.88554 21.6108 2.22456 20.0106 3.136 18.003C3.16425 17.9421 3.19128 17.8812 3.22076 17.8203C5.19841 13.5789 8.25211 10.9588 9.89688 9.77359C9.94847 9.73632 10.0001 9.69904 10.0529 9.66302C10.0811 9.64314 10.1094 9.62326 10.1389 9.60338C11.1817 8.27158 12.6435 6.6503 14.4369 5.28868C14.4762 5.25886 14.5155 5.22904 14.5548 5.20047C16.3752 3.84257 19.3638 2.06228 23.2675 1.29698C23.3204 1.28704 23.3719 1.27711 23.4248 1.26717C24.0316 1.15411 26.3507 0.813707 28.0606 0.780163C28.0851 0.780163 28.1097 0.780163 28.1331 0.778921C32.689 0.710591 36.5682 2.17285 39.09 3.28103C46.5154 6.54346 50.8245 14.3678 50.3098 22.3848C50.3245 22.4829 50.338 22.581 50.3516 22.6804C50.3663 22.7922 50.3798 22.9028 50.3933 23.0146C50.5395 24.2607 50.5739 25.5105 50.51 27.1939C50.4744 28.1331 50.4142 29.1308 50.2619 30.2104C50.0875 31.7931 49.7447 33.5697 49.1109 35.3376C49.0581 35.4854 49.0041 35.632 48.9475 35.7774C46.7328 41.5258 42.3157 44.9559 41.0161 45.8703C40.9313 45.9299 40.8453 45.9895 40.7593 46.0479C38.52 47.5648 35.9503 48.642 33.3265 49.1625C33.2393 49.1799 33.1521 49.1961 33.0649 49.2122C32.6374 49.2905 32.2112 49.3538 31.7751 49.4023C30.451 49.8396 29.0875 50.1403 27.7437 50.2869C27.6221 50.3005 27.4992 50.3117 27.3776 50.3229C26.7647 50.3763 26.1382 50.4024 25.5019 50.4024L25.4995 50.3999Z" fill="#5267EE"/>
</g>
<g opacity="0.55">
<path d="M28.4561 46.391C24.1114 46.391 19.8367 44.8058 16.3813 41.9161C11.2284 40.0637 7.14657 35.8819 5.21559 30.5783C4.653 29.3061 4.22062 27.9644 3.92705 26.5767C3.05737 22.8894 3.2318 18.9548 4.51543 15.2464C4.86674 14.2326 5.30526 13.2288 5.81994 12.2622C6.1516 11.6386 6.52379 11.0137 6.95617 10.3527C7.33942 9.76634 7.72021 9.2284 7.97079 8.88054C13.0894 1.79538 22.0306 -0.573797 29.5923 2.7756C33.4432 3.72848 36.9256 5.98212 39.4818 9.22467C41.0775 10.2161 42.5576 11.4833 43.856 13.0201C50.5726 20.9712 49.9069 33.1562 42.3709 40.2414C42.3021 40.306 42.2039 40.4004 42.1117 40.4898C41.7469 40.8402 41.5049 41.0725 41.1671 41.3694C38.9807 43.2926 35.3791 45.6854 30.564 46.2643C30.3085 46.2954 30.053 46.3202 29.7962 46.3401C29.3491 46.3736 28.902 46.391 28.4561 46.391ZM39.628 29.1359C39.628 29.1359 39.6255 29.1446 39.6231 29.1483C39.6243 29.1434 39.6255 29.1397 39.628 29.1359Z" fill="#5267EE"/>
</g>
<g opacity="0.55">
<path d="M21.3894 42.5905C17.5655 42.5905 13.7846 41.3507 10.6216 38.9927C8.71519 37.8348 7.24853 36.4496 6.16021 35.1737C1.68654 29.9371 0.265329 22.5103 2.51691 15.8202C4.00813 11.3887 7.00901 7.70017 10.8464 5.43039C16.826 0.680856 23.028 1.29458 25.6862 1.87352C26.1308 1.97042 26.5706 2.08472 27.0042 2.21517C31.8243 2.95064 36.3557 5.70122 39.37 10.2396C45.1654 18.9646 43.1546 30.9919 34.8804 37.1018L34.792 37.1676C32.904 38.5616 32.6988 38.7082 32.4274 38.8958C31.4729 39.5567 29.5493 40.7742 27.2744 41.5793C26.9784 41.6836 26.6799 41.7805 26.379 41.87C24.7391 42.3532 23.0599 42.5893 21.3894 42.5893V42.5905Z" fill="#5267EE"/>
</g>
<g opacity="0.55">
<path d="M23.9787 43.9483C22.7836 43.9483 21.4483 43.8266 20.0099 43.4949C19.8809 43.4651 19.752 43.434 19.623 43.4005C19.3429 43.3284 19.0641 43.2501 18.7889 43.1657C14.163 42.9222 9.71262 40.8325 6.44642 37.2719C3.71087 34.289 1.97029 30.4551 1.40524 26.3876C0.518369 21.904 1.16817 17.1979 3.29445 13.1329C3.72561 12.3092 4.18501 11.5303 4.66284 10.8159C8.71642 4.75571 14.2109 3.08722 17.1257 2.63128C18.2374 2.45735 19.3552 2.39523 20.4644 2.43871C26.9489 1.79765 33.4309 4.7818 37.3826 10.4494C39.8749 12.9267 41.7359 16.1705 42.5994 19.9435C44.9652 30.2688 38.9659 40.6611 29.1943 43.1992L29.1821 43.2017C28.2129 43.4601 26.3777 43.9496 23.9787 43.9496V43.9483Z" fill="#5267EE"/>
</g>
<g opacity="0.55">
<path d="M29.3503 48.3775C28.9217 48.3775 28.5568 48.3651 28.2682 48.3489C28.2289 48.3465 28.1896 48.344 28.1502 48.3427C27.4427 48.2992 26.6983 48.2036 25.9982 48.0905C24.5045 47.9837 22.7185 47.7153 20.9201 47.119C20.8563 47.0979 20.7924 47.0768 20.7285 47.0544C16.8285 45.7102 13.0181 42.8577 10.5356 39.4251C10.4767 39.3431 10.4177 39.2611 10.36 39.1791C8.08136 35.9241 6.71297 31.9126 6.50661 27.8861C6.49924 27.742 6.4931 27.5979 6.48941 27.4537C6.42922 25.4548 6.68349 23.5254 6.76211 22.9813C6.78053 22.852 6.80141 22.7228 6.8223 22.5949C7.28907 19.7747 8.29387 17.2751 9.08002 15.6352C9.64629 14.1767 10.4103 12.6051 11.4397 11.0894C11.5318 10.954 11.6252 10.8211 11.7198 10.6881C14.1482 7.30271 17.7043 4.64282 21.4766 3.38804C21.6043 3.3458 21.7333 3.3048 21.8623 3.26505C22.5809 3.04515 23.3228 2.86749 24.0868 2.7358C27.0889 1.65744 30.2974 1.37666 33.4137 1.92579C33.539 1.94815 33.6643 1.97175 33.7896 1.9966C35.7489 2.3867 37.2106 3.02155 38.1663 3.48743C41.2765 4.80309 44.3891 7.07287 46.5903 9.64579C46.6431 9.70667 46.6947 9.76879 46.7463 9.8309C48.2167 11.5951 51.6696 16.4378 51.9804 23.2981C51.9853 23.4074 51.9889 23.5167 51.9926 23.6248C52.0111 24.2671 52.0074 25.4424 51.8342 26.9332C51.8096 27.3196 51.7764 27.6662 51.7433 27.9656C51.7298 28.0824 51.7163 28.2004 51.7015 28.3172C51.4681 30.1248 50.5862 34.7911 47.4514 39.0859C47.406 39.148 47.3593 39.2102 47.3138 39.2723C45.2956 41.9682 42.3488 44.4865 39.429 46.0096C39.3651 46.0431 39.3025 46.0754 39.2386 46.1077C35.4147 48.0446 31.5516 48.3763 29.3516 48.3763L29.3503 48.3775ZM37.3912 3.17932C37.3912 3.17932 37.3985 3.18181 37.4022 3.18305C37.3985 3.18181 37.3949 3.18057 37.3912 3.17932Z" fill="#5267EE"/>
</g>
<path d="M10.8677 37.8229C14.1347 37.8229 16.7831 35.2789 16.7831 32.1408C16.7831 29.0027 14.1347 26.4587 10.8677 26.4587C7.60078 26.4587 4.95239 29.0027 4.95239 32.1408C4.95239 35.2789 7.60078 37.8229 10.8677 37.8229Z" fill="#3553E5" fill-opacity="0.7"/>
<path d="M40.7196 38.1001C43.7586 38.1001 46.2222 35.6182 46.2222 32.5567C46.2222 29.4951 43.7586 27.0132 40.7196 27.0132C37.6805 27.0132 35.2169 29.4951 35.2169 32.5567C35.2169 35.6182 37.6805 38.1001 40.7196 38.1001Z" fill="#3553E5" fill-opacity="0.7"/>
<ellipse cx="15.3225" cy="20.5041" rx="8.04762" ry="8.08537" fill="white"/>
<ellipse cx="15.0748" cy="20.3797" rx="5.32381" ry="5.22439" fill="#2E2C2C"/>
<ellipse cx="37.176" cy="20.5042" rx="8.12874" ry="8.16653" fill="white"/>
<ellipse cx="37.1428" cy="20.4002" rx="5.2" ry="4.97561" fill="#2E2C2C"/>
<g clip-path="url(#clip1_1448_129)">
<path d="M32.8397 31.4849C30.0387 29.0922 25.9306 28.6505 22.3922 29.7683C21.3549 30.0958 20.3538 30.5503 19.4242 31.0907C18.9907 31.3424 18.828 31.9469 19.1258 32.3421C19.4236 32.7374 20.0031 32.88 20.467 32.6107C20.8358 32.3962 21.2149 32.1956 21.6045 32.0146C21.656 31.9907 21.7095 31.9668 21.7611 31.9429C21.7477 31.9489 21.6272 31.9992 21.7286 31.9569C21.8204 31.9187 21.9141 31.8786 22.006 31.8404C22.2184 31.7536 22.4331 31.6741 22.6518 31.598C23.0586 31.4579 23.474 31.3374 23.8941 31.2385C24.0906 31.1923 24.2875 31.1533 24.4863 31.1161C24.523 31.1091 24.6852 31.0788 24.4863 31.1161C24.5424 31.1065 24.6004 31.0987 24.6565 31.0909C24.7706 31.0753 24.8848 31.0597 24.9991 31.0477C25.427 30.9991 25.8559 30.9759 26.2859 30.978C26.4707 30.9794 26.6557 30.9844 26.841 30.9966C26.8917 30.9999 26.9481 30.9994 26.999 31.0081C26.9658 31.0041 26.7901 30.9878 26.9776 31.0072C27.0831 31.0191 27.1885 31.0293 27.2921 31.0431C27.6851 31.0938 28.0752 31.1682 28.4583 31.2646C28.6371 31.3097 28.8142 31.3603 28.9895 31.4146C29.0387 31.4307 29.0899 31.4467 29.1392 31.4627C29.1057 31.4515 28.9557 31.3961 29.1254 31.4579C29.2241 31.4936 29.3209 31.5313 29.4177 31.5689C29.8288 31.733 30.2255 31.9267 30.6021 32.1502C30.6897 32.2027 30.7775 32.257 30.8652 32.3113C30.6977 32.206 30.9293 32.3576 30.9813 32.3935C31.1695 32.527 31.3483 32.6699 31.5235 32.8202C31.8922 33.14 32.5496 33.1381 32.8906 32.7635C33.2316 32.3888 33.2384 31.8252 32.8397 31.4849Z" fill="#2A2A2A"/>
<path d="M32.8397 31.4849C30.0387 29.0922 25.9306 28.6505 22.3922 29.7683C21.3549 30.0958 20.3538 30.5503 19.4242 31.0907C18.9907 31.3424 18.828 31.9469 19.1258 32.3421C19.4236 32.7374 20.0031 32.88 20.467 32.6107C20.8358 32.3962 21.2149 32.1956 21.6045 32.0146C21.656 31.9907 21.7095 31.9668 21.7611 31.9429C21.7477 31.9489 21.6272 31.9992 21.7286 31.9569C21.8204 31.9187 21.9141 31.8786 22.006 31.8404C22.2184 31.7536 22.4331 31.6741 22.6518 31.598C23.0586 31.4579 23.474 31.3374 23.8941 31.2385C24.0906 31.1923 24.2875 31.1533 24.4863 31.1161C24.523 31.1091 24.6852 31.0788 24.4863 31.1161C24.5424 31.1065 24.6004 31.0987 24.6565 31.0909C24.7706 31.0753 24.8848 31.0597 24.9991 31.0477C25.427 30.9991 25.8559 30.9759 26.2859 30.978C26.4707 30.9794 26.6557 30.9844 26.841 30.9966C26.8917 30.9999 26.9481 30.9994 26.999 31.0081C26.9658 31.0041 26.7901 30.9878 26.9776 31.0072C27.0831 31.0191 27.1885 31.0293 27.2921 31.0431C27.6851 31.0938 28.0752 31.1682 28.4583 31.2646C28.6371 31.3097 28.8142 31.3603 28.9895 31.4146C29.0387 31.4307 29.0899 31.4467 29.1392 31.4627C29.1057 31.4515 28.9557 31.3961 29.1254 31.4579C29.2241 31.4936 29.3209 31.5313 29.4177 31.5689C29.8288 31.733 30.2255 31.9267 30.6021 32.1502C30.6897 32.2027 30.7775 32.257 30.8652 32.3113C30.6977 32.206 30.9293 32.3576 30.9813 32.3935C31.1695 32.527 31.3483 32.6699 31.5235 32.8202C31.8922 33.14 32.5496 33.1381 32.8906 32.7635C33.2316 32.3888 33.2384 31.8252 32.8397 31.4849Z" fill="black" fill-opacity="0.2"/>
</g>
</g>
<defs>
<clipPath id="clip0_1448_129">
<rect width="52" height="51" fill="white"/>
</clipPath>
<clipPath id="clip1_1448_129">
<rect width="14.1491" height="4.12663" fill="white" transform="matrix(-0.99914 0.0414738 -0.0397994 -0.999208 33.1789 33.0122)"/>
</clipPath>
</defs>
</svg>
