<svg width="51" height="51" viewBox="0 0 51 51" fill="none" xmlns="http://www.w3.org/2000/svg">
<g clip-path="url(#clip0_937_4927)">
<g opacity="0.55">
<path d="M28.2778 40.0603C21.2418 40.0603 14.612 35.8085 11.9572 28.894L11.3287 27.2573C7.89497 18.3111 12.4172 8.29641 21.4293 4.88779C30.4415 1.47918 40.5301 5.96826 43.9639 14.9144L44.5924 16.5511C48.0261 25.4972 43.5039 35.512 34.4918 38.9206C32.4463 39.6938 30.3435 40.0615 28.2778 40.0615V40.0603Z" fill="#FFEA4B"/>
</g>
<g opacity="0.55">
<path d="M29.1937 39.8539C27.8221 39.8539 26.4301 39.6926 25.0394 39.3558C15.67 37.0858 9.92916 27.7068 12.216 18.406L12.3665 17.7928C14.6545 8.4921 24.1027 2.79328 33.4709 5.06332C42.8403 7.33336 48.5812 16.7124 46.2944 26.0131L46.1439 26.6263C44.1964 34.5453 37.0553 39.8539 29.1937 39.8539Z" fill="#FFEA4B"/>
</g>
<g opacity="0.55">
<path d="M25.6883 46.5016C16.8207 46.5016 9.23035 39.8243 8.33308 30.8829L8.32949 30.8521C8.32591 30.8153 8.32233 30.7785 8.31755 30.7418C8.31277 30.6967 8.30799 30.6516 8.30321 30.6054L8.29723 30.5532C8.29126 30.4974 8.28529 30.4441 8.27931 30.3883L8.23152 29.9448C8.22555 29.8938 8.21958 29.838 8.2148 29.787L8.18971 29.5439C8.18134 29.4692 8.17298 29.3944 8.16581 29.3185L8.15386 29.2059C8.14908 29.1655 8.1455 29.124 8.14072 29.0837L8.12758 28.9544C8.11921 28.8809 8.11205 28.8062 8.10368 28.7326C8.08696 28.5808 8.07142 28.4302 8.05589 28.2784L8.01766 27.9214C8.01288 27.8763 8.0081 27.8313 8.00332 27.785L7.90177 26.8267C7.88504 26.6725 7.86951 26.5255 7.85397 26.3784C7.85039 26.3416 7.84561 26.3061 7.84203 26.2693L7.83725 26.2171C7.82411 26.0902 7.81096 25.9633 7.79663 25.8352C7.79304 25.8032 7.78946 25.7723 7.78707 25.7403L7.74406 25.3311C7.72494 25.1615 7.70821 24.9919 7.69029 24.8223L7.65206 24.4665C7.64728 24.4286 7.6437 24.3906 7.64011 24.3527L7.60666 24.0325C7.59112 23.8889 7.57559 23.7454 7.56126 23.6019L7.53378 23.3505C7.529 23.3042 7.52422 23.2568 7.51944 23.2105L7.51108 23.1287C7.50391 23.0611 7.49674 22.9923 7.48957 22.9247L7.47165 22.7622C7.46328 22.6911 7.45731 22.627 7.45014 22.5559L7.44536 22.5144C7.44058 22.474 7.437 22.4337 7.43222 22.3946C7.42744 22.3507 7.42266 22.3056 7.41788 22.2617L7.4143 22.2309C6.3629 12.719 13.2735 4.15955 22.8555 3.10874C32.4412 2.05793 41.0698 8.91904 42.1284 18.4345L42.1535 18.6693C42.1606 18.7333 42.1678 18.7986 42.1738 18.8626L42.1774 18.8934C42.1821 18.9397 42.1869 18.986 42.1917 19.0322C42.1977 19.0856 42.2036 19.1389 42.2084 19.1923L42.2144 19.2528C42.2192 19.3002 42.2252 19.3584 42.2311 19.4058L42.2873 19.9336C42.2921 19.9715 42.2956 20.0107 42.2992 20.0486C42.3088 20.1364 42.316 20.217 42.3255 20.2989C42.3303 20.3404 42.3351 20.3807 42.3387 20.4222L42.4175 21.1599C42.4211 21.1908 42.4247 21.2216 42.4271 21.2524C42.439 21.3687 42.451 21.4825 42.4629 21.5964C42.4677 21.6343 42.4713 21.6723 42.4749 21.7102L42.5179 22.1206C42.537 22.2973 42.5549 22.4728 42.574 22.6484C42.5943 22.8346 42.6135 23.0196 42.6338 23.2058C42.6338 23.2165 42.6362 23.2343 42.6373 23.2449L42.7353 24.17C42.7449 24.2625 42.7556 24.3562 42.7652 24.4488L42.7819 24.6089C42.7867 24.6492 42.7903 24.6883 42.7951 24.7287C42.8058 24.8318 42.8166 24.935 42.8273 25.0382C42.8321 25.0809 42.8369 25.1236 42.8405 25.1675L42.9074 25.7961C42.9133 25.8494 42.9193 25.9028 42.9241 25.9562L42.9791 26.4697C42.985 26.5195 42.991 26.5753 42.9958 26.6251L43.0018 26.6856C43.0089 26.7484 43.0149 26.8113 43.0221 26.8742L43.0376 27.0177C43.0448 27.0829 43.0519 27.1434 43.0579 27.2086L43.0615 27.243C43.0687 27.3165 43.077 27.3889 43.0842 27.4624C44.0328 36.9897 37.0219 45.4757 27.4243 46.4173C26.8413 46.4743 26.2606 46.5027 25.6859 46.5027L25.6883 46.5016Z" fill="#FFEA4B"/>
</g>
<g opacity="0.55">
<path d="M18.1826 47.9307C9.0641 47.9307 1.38769 40.9036 0.775967 31.7404L0.6314 29.5712C-0.00421847 20.0202 7.2803 11.7643 16.903 11.1322C26.5281 10.5012 34.8425 17.7312 35.4793 27.2834L35.6239 29.4526C36.2607 39.0048 28.9762 47.2606 19.3535 47.8928C18.9616 47.9189 18.5709 47.9307 18.1838 47.9307H18.1826Z" fill="#FFEA4B"/>
</g>
<g opacity="0.55">
<path d="M27.5653 49.2851C23.8723 49.2851 21.1111 48.1655 19.9869 47.7054C18.2198 47.0483 16.7455 46.3284 15.3679 45.4508C15.3285 45.4258 15.289 45.4009 15.2496 45.3748C14.6223 44.9692 12.4311 43.4831 10.5541 41.4147C10.5183 41.3756 10.4825 41.3353 10.4478 41.2961C9.20286 39.9002 6.94952 36.9672 5.85153 33.0106C5.82883 32.9276 5.80613 32.8434 5.78342 32.7604C4.91005 29.4288 5.09643 26.3322 5.28521 24.782C5.28998 24.7453 5.29357 24.7097 5.29835 24.6741C5.34614 24.2981 5.41902 23.8249 5.52894 23.2758C5.57314 22.9852 5.62333 22.6923 5.68187 22.4029C5.69501 22.3353 5.70935 22.2689 5.72369 22.2013C6.28164 19.5659 7.35455 17.3018 7.85635 16.3328C8.68313 13.9952 9.86715 12.1592 10.5314 11.233C10.627 11.1001 10.7238 10.9685 10.823 10.8392C13.2997 7.58122 16.8518 5.14988 20.8268 3.99233C20.9702 3.95082 21.1123 3.91049 21.2569 3.87254C21.8208 3.7231 23.5353 3.26886 26.2475 3.2143C26.4064 3.21074 26.5653 3.20956 26.7242 3.21074C31.6287 3.23921 36.1175 4.902 39.5512 7.87772C41.2096 8.85025 43.9862 10.806 46.1703 13.9822C47.0413 14.9855 47.9027 16.1632 48.6351 17.5106C48.6829 17.5983 48.7307 17.6873 48.7761 17.7762C50.9983 22.0328 51.5993 27.3165 50.3842 31.91C50.3603 32.0013 50.3352 32.0938 50.309 32.1851C49.0509 36.6505 46.316 39.7828 44.7975 41.2522C44.7581 41.2914 44.7174 41.3293 44.6768 41.3673C43.5943 42.3956 42.2634 43.4025 40.844 44.2908C40.6528 44.4355 40.4593 44.5778 40.2609 44.7154L39.4138 45.3096C39.3684 45.3416 39.323 45.3725 39.2776 45.4045C36.0255 47.6401 32.6036 48.9246 29.1101 49.2211C29.0026 49.2306 28.8951 49.2389 28.7864 49.246C28.3694 49.2745 27.9632 49.2863 27.5665 49.2863L27.5653 49.2851Z" fill="#FFEA4B"/>
</g>
<g opacity="0.55">
<path d="M28.034 47.6769C27.5991 47.6769 27.1989 47.6662 26.8452 47.6496C26.8165 47.6484 26.7867 47.6472 26.758 47.6449C25.5525 47.5844 24.0244 47.3934 22.4042 47.0388C19.7053 46.6747 16.9394 45.7579 14.6143 44.4545C14.5462 44.4165 14.4793 44.3786 14.4112 44.3394C10.2666 41.9472 7.15896 38.2765 5.66191 34.0009C5.60695 33.8444 5.55438 33.6866 5.50301 33.5277C3.96175 28.7018 4.7503 24.0016 5.16011 22.2048C5.16967 22.1609 5.18042 22.117 5.18998 22.0743C5.21387 21.9735 5.23777 21.8727 5.26405 21.7719C5.6428 19.9679 6.31784 17.8746 7.50425 15.7813C7.54726 15.7054 7.59027 15.6307 7.63329 15.556C8.59747 13.9098 9.95234 12.1794 11.3502 10.8095C11.4004 10.7609 11.4494 10.7123 11.5008 10.6636C13.8533 8.40902 16.839 6.65016 19.906 5.71202C20.0004 5.68356 20.0959 5.65509 20.1915 5.62781C20.6157 5.50565 21.0362 5.4001 21.4508 5.30996C22.8367 4.97906 24.243 4.78811 25.6146 4.7549C25.697 4.75253 25.7783 4.75135 25.8607 4.75016C27.9886 4.72644 30.4606 5.06564 32.4774 5.65628C32.5108 5.66576 32.5455 5.67644 32.5789 5.68593C33.3507 5.9172 34.3615 6.27301 35.493 6.80553C36.481 7.21589 37.364 7.6476 38.0868 8.05322C38.1119 8.06745 38.137 8.08168 38.1621 8.09591C39.2565 8.7162 41.0833 9.87968 42.842 11.5733C44.6485 13.1009 46.173 14.9831 47.32 17.1488C47.3762 17.2555 47.4323 17.3635 47.4861 17.4714C48.1408 18.7701 48.5387 19.9276 48.9664 21.3734C49.4395 22.9709 49.8864 24.7523 49.9521 26.9488C49.9569 27.1267 49.9604 27.3047 49.9604 27.4826C49.9604 32.8517 47.6294 37.8851 43.5254 41.4633C42.6962 42.2319 41.8515 42.985 40.7643 43.7393C40.7368 43.7583 40.7093 43.7773 40.6807 43.7962C38.4548 45.3226 35.5575 46.5846 32.929 47.1716C32.8513 47.1894 32.7725 47.206 32.6936 47.2226C31.003 47.5772 29.353 47.6769 28.0328 47.6769H28.034ZM42.4848 42.3113C42.4848 42.3113 42.4776 42.3161 42.4752 42.3184C42.4788 42.3161 42.4824 42.3137 42.4848 42.3113Z" fill="#FFEA4B"/>
</g>
<g opacity="0.55">
<path d="M27.8242 48.1869C27.4598 48.1869 27.1348 48.1786 26.8576 48.1655C26.8003 48.1632 26.7441 48.1608 26.6868 48.1572C24.7262 48.0529 22.4489 47.6306 20.5946 47.0282C20.5277 47.0068 20.462 46.9843 20.3951 46.9617C15.861 45.4318 11.745 42.118 9.3865 38.0998C9.3172 37.9824 9.25029 37.8638 9.18339 37.744C6.86194 33.574 6.63972 29.2474 6.71499 27.039C6.71618 27.0011 6.71738 26.9631 6.71977 26.9252C6.79982 24.9338 7.20006 21.9036 8.65291 18.7843C8.67083 18.7464 8.68875 18.7084 8.70667 18.6705C9.14515 17.7466 10.7927 14.5313 13.6005 11.96C13.6482 11.9161 13.696 11.8734 13.7438 11.8295C16.1608 9.66386 19.6556 7.83858 22.8635 7.06648C22.9436 7.0475 23.0236 7.02853 23.1025 7.01074C25.7632 6.40824 28.2065 6.41892 29.4264 6.4794C31.4181 6.57784 32.6678 6.78539 33.4576 6.94432C34.3142 7.09613 35.1601 7.29775 35.9845 7.55038C36.0347 7.56579 36.0837 7.58121 36.1326 7.59663C37.8758 8.14694 40.4338 9.15862 42.717 10.8487C42.7815 10.8973 42.8473 10.9448 42.9106 10.9946C45.6992 13.1175 47.9298 16.0897 49.1915 19.3655C49.2321 19.471 49.2715 19.5778 49.311 19.6833C49.3564 19.8091 49.4006 19.9336 49.4424 20.0593C50.213 22.2131 50.4818 24.1807 50.5523 25.6443C50.5559 25.7308 50.5595 25.8174 50.5631 25.904C50.6336 28.0009 50.3528 30.1831 49.7495 32.2136C49.7172 32.3227 49.6837 32.4318 49.6491 32.5409C48.5439 36.0184 46.3479 39.3226 43.5474 41.7622C42.7839 42.5165 41.9536 43.2531 41.1113 43.8745C41.0611 43.9125 41.0097 43.9492 40.9583 43.986C39.0455 45.3654 36.7611 46.4268 35.2605 46.9617C35.184 46.989 35.1063 47.0163 35.0287 47.0424C32.2532 47.9888 29.5781 48.1869 27.8254 48.1869H27.8242Z" fill="#FFEA4B"/>
</g>
<g opacity="0.55">
<path d="M26.5797 51.0001C23.7935 51.0001 20.6453 50.4996 18.1363 49.6279C18.0908 49.6125 18.0454 49.5959 18 49.5804C17.1553 49.2792 16.3106 48.9163 15.4874 48.5024C14.7025 48.1976 13.8769 47.8275 13.0465 47.3804C13.0131 47.3626 12.9784 47.3436 12.945 47.3246C12.2532 46.9463 11.2663 46.3509 10.1731 45.5207C6.98665 43.3752 4.61861 40.6723 3.12754 37.4736C3.08333 37.3799 3.04032 37.285 2.9985 37.1901C1.75116 34.3888 1.1478 31.2873 1.25294 28.2167C1.25294 28.2096 1.25294 28.2025 1.25294 28.1954C1.25294 28.1942 1.25294 28.193 1.25294 28.1918C1.27683 27.5502 1.42618 25.4355 1.81807 23.6541C1.82285 23.6328 1.82762 23.6126 1.8324 23.5912C2.26969 21.6343 3.07019 19.5813 3.62217 18.4178C3.63651 18.3882 3.65084 18.3574 3.66518 18.3277C4.41072 16.78 5.56965 14.9369 6.61985 13.6323C6.63419 13.6133 6.64972 13.5955 6.66525 13.5765C7.67364 12.3336 9.44429 10.5261 11.3894 9.17995C11.4419 9.14319 11.4957 9.10642 11.5495 9.07084C13.8327 7.52546 16.6774 6.33825 19.3525 5.81285C19.4218 5.79862 19.4923 5.78557 19.5616 5.77252C22.1734 5.291 24.6788 5.42858 25.9524 5.55667C26.4853 5.56853 27.011 5.59818 27.5176 5.64206C27.5594 5.64562 27.6 5.64918 27.6418 5.65392C29.937 5.87334 31.9669 6.45093 32.7328 6.68813C32.7626 6.69762 32.7925 6.70711 32.8224 6.71659C32.9634 6.76166 33.1079 6.8091 33.2549 6.8601C34.2155 7.07952 35.2012 7.36535 36.1677 7.73894C36.2657 7.77689 36.3637 7.81485 36.4605 7.85517C38.8297 8.81703 40.9779 10.2355 42.8453 12.0726C43.6494 12.8625 44.3782 13.7141 45.027 14.6143C47.9087 17.6896 49.6997 21.6735 50.0713 25.8376C50.0832 25.968 50.0928 26.0985 50.1023 26.229C50.456 31.4996 48.4524 35.5677 47.2253 37.5234C47.1357 37.6657 47.0449 37.8069 46.9517 37.9468C46.8227 38.1413 46.6889 38.3323 46.5539 38.5196C45.7964 40.0342 45.0258 41.1574 44.6028 41.7314C44.5777 41.7658 44.5526 41.8002 44.5264 41.8334C43.5012 43.202 42.1655 44.6205 40.8632 45.7235C40.8441 45.7401 40.825 45.7555 40.8058 45.7721C39.9635 46.479 37.6839 48.2521 34.7197 49.4251C34.6552 49.45 34.5906 49.4761 34.5261 49.501C32.6862 50.2055 30.4161 50.7344 28.4543 50.9183C28.4149 50.9218 28.3754 50.9254 28.336 50.9289C27.7745 50.9776 27.1854 51.0013 26.5785 51.0013L26.5797 51.0001Z" fill="#FFEA4B"/>
</g>
<g opacity="0.55">
<path d="M25.9704 50.7617C25.2177 50.7617 24.4793 50.7321 23.7744 50.6799C23.606 50.6822 23.4423 50.6822 23.2846 50.6799C23.22 50.6799 23.1543 50.6787 23.0898 50.6763C21.6812 50.6467 18.0515 50.4533 14.7658 49.3076C14.7192 49.291 14.6727 49.2756 14.6261 49.2578C13.8745 48.9886 11.2341 47.9734 8.7884 46.186C8.743 46.1528 8.69879 46.1196 8.65339 46.0864C6.88513 44.7688 3.65208 41.8772 1.85873 37.3182C1.82766 37.2375 1.7966 37.1569 1.76554 37.0763C0.524169 33.7791 0.169322 29.8617 0.794188 26.3297C0.806135 26.2633 0.818083 26.1969 0.830031 26.1305C0.868263 25.9265 0.91008 25.7237 0.954287 25.5244C1.22072 24.119 1.58513 22.9603 1.88501 22.1467C1.90652 22.0885 1.92803 22.0316 1.94953 21.9747C2.75959 19.8505 3.86833 18.0608 4.45736 17.1832C4.47289 17.1595 4.48842 17.1357 4.50515 17.1132C5.21962 16.06 7.83139 12.4344 11.4623 10.0315C11.5125 9.99829 11.5627 9.96508 11.614 9.93187C13.9259 8.43512 16.564 7.42226 19.2904 6.9609C19.9213 6.81502 20.5796 6.69405 21.2606 6.60628C21.3275 6.59798 21.3932 6.58968 21.4601 6.58137C24.318 6.24692 27.2285 6.64542 27.5511 6.69286C27.6061 6.70116 27.661 6.70946 27.7172 6.71777C28.1545 6.78537 28.5917 6.8672 29.0278 6.96327C30.5273 7.21708 32.0578 7.62032 33.378 8.11845C33.3995 8.12675 33.421 8.13506 33.4413 8.14217C36.979 9.49305 39.5526 11.6895 40.4952 12.5708C40.5347 12.6075 40.5741 12.6443 40.6135 12.6822C40.7772 12.8376 40.9385 12.9977 41.0974 13.1614C42.3639 14.1316 43.7379 15.3887 44.9231 16.9424C44.9804 17.0183 45.0378 17.093 45.0939 17.1701C47.0498 19.8197 47.9446 22.5677 48.3521 24.406C48.3855 24.5567 48.4166 24.7073 48.4464 24.8579C48.9757 27.5822 48.8861 30.5377 48.2218 33.3047C47.7284 35.7764 46.7929 38.152 45.4786 40.2239C45.4332 40.2963 45.3866 40.3686 45.3388 40.4398C43.6542 43.0135 41.5908 44.8209 40.5108 45.6701C40.4761 45.6974 40.4403 45.7247 40.4056 45.752C39.0663 46.7885 37.3709 47.8275 35.8691 48.5332C35.8321 48.551 35.795 48.5676 35.758 48.5854C35.1164 48.8819 32.8236 49.8864 30.262 50.3834C30.1975 50.3952 30.1342 50.4083 30.0697 50.4201C28.7351 50.6644 27.3289 50.7629 25.968 50.7629L25.9704 50.7617Z" fill="#FFEA4B"/>
</g>
<g opacity="0.55">
<path d="M22.9464 50.4925C22.913 50.4925 22.8795 50.4925 22.8496 50.4925C22.8066 50.4925 22.7636 50.4925 22.7206 50.4925C22.0265 50.4842 20.2044 50.4249 18.2761 50.0644C18.2283 50.0549 18.1805 50.0466 18.1327 50.0371C16.9343 49.8023 15.7336 49.4548 14.5687 49.0112C12.8649 48.4265 11.0883 47.5868 9.62234 46.6688C9.57336 46.638 9.52437 46.6071 9.47538 46.5763C7.68681 45.433 4.36176 42.889 2.1837 38.6976C2.14307 38.6193 2.10365 38.541 2.06422 38.4628C0.838385 36.016 0.13108 33.2822 0.0163824 30.5544C0.0127981 30.4785 0.0104085 30.4026 0.00801898 30.3267C-0.0923418 26.9145 0.772672 23.9257 1.29718 22.448C1.31749 22.391 1.3378 22.3341 1.35811 22.2784C1.94713 20.6689 2.83007 18.9089 3.77991 17.4489C3.79664 17.4228 3.81456 17.3967 3.83129 17.3694C4.00692 17.1026 4.42987 16.4811 5.07385 15.6758C5.73695 14.7661 6.34867 14.0415 6.6605 13.6833C6.6832 13.6572 6.7071 13.6299 6.7298 13.6038C7.53627 12.6882 10.4623 9.55121 14.2461 7.62986C14.3333 7.58598 14.4205 7.5421 14.5078 7.4994C18.5819 5.51282 22.6382 5.38592 24.6932 5.48791C24.7314 5.49029 24.7696 5.49147 24.8079 5.49384C28.8271 5.71682 32.3087 7.07362 33.6193 7.64765C33.6468 7.65951 33.6743 7.67137 33.7006 7.68323C35.8428 8.63323 39.2168 10.634 41.6745 13.146C41.7115 13.184 41.7485 13.2219 41.7856 13.2611C44.1799 15.7529 45.9816 18.9124 46.8574 22.1574C46.8729 22.2143 46.8884 22.2724 46.9028 22.3294C47.1298 23.2035 47.3006 24.1179 47.4141 25.0453C48.0032 28.0899 47.8048 30.6849 47.6615 31.8294C47.6519 31.9053 47.6423 31.9812 47.6316 32.0571C47.0975 35.9199 45.3293 39.8065 42.7796 42.7218C42.7486 42.7573 42.7175 42.7917 42.6864 42.8273C40.5191 45.2681 38.0244 46.804 37.0531 47.352C37.028 47.3662 37.0017 47.3804 36.9754 47.3947C35.5023 48.2154 33.5715 49.0136 31.9359 49.4785C31.9227 49.4821 31.9084 49.4856 31.8953 49.4904C29.7029 50.1083 27.4185 50.4226 24.7051 50.4771C24.6442 50.4783 24.5833 50.4795 24.5223 50.4795C24.3395 50.4819 24.0838 50.4819 23.7696 50.4747C23.4399 50.4866 23.1615 50.4914 22.944 50.4914L22.9464 50.4925Z" fill="#FFEA4B"/>
</g>
<g opacity="0.55">
<path d="M24.9306 48.921C24.2436 48.921 23.5172 48.8961 22.7573 48.8475C20.8601 48.7253 18.3343 48.4395 15.621 47.3033C15.523 47.2618 15.425 47.2203 15.3271 47.1776C11.6508 45.561 8.59931 42.9589 6.50249 39.6523C6.41288 39.5112 6.32566 39.3688 6.24083 39.2253C5.58371 38.1235 5.04726 36.9589 4.63028 35.7373C3.87758 33.778 3.51795 31.9147 3.35905 30.3765C3.08664 28.1752 3.26466 26.2966 3.52273 24.8449C3.68641 23.8178 3.94209 22.6626 4.33995 21.46C4.3985 21.2062 4.46062 20.9536 4.52992 20.7009C4.55501 20.6096 4.5801 20.5183 4.60639 20.427C5.23842 18.2411 6.53475 15.1907 9.17519 12.4166C10.3449 11.0278 11.3186 10.2415 11.7607 9.88327C11.8455 9.81448 11.9303 9.74688 12.0164 9.68046C14.7966 7.51598 17.7238 6.48771 20.2053 6.02872C22.9939 5.38471 25.9235 5.39301 28.7814 6.07616C28.9893 6.10581 29.1972 6.13902 29.4051 6.1746C31.8233 6.45687 34.8735 7.20643 37.7816 9.02934C37.9118 9.11118 38.0409 9.1942 38.1687 9.2784C38.4292 9.45156 38.686 9.63065 38.9381 9.81686C40.0063 10.5166 41.2106 11.4204 42.3074 12.5162C42.3647 12.5732 42.4221 12.6313 42.4794 12.6894C42.6144 12.8282 42.7483 12.9705 42.8809 13.114C43.673 13.9383 44.3923 14.8183 45.01 15.7292C45.0661 15.8122 45.1211 15.8952 45.176 15.9782C46.9216 18.6479 47.9814 21.7351 48.2406 24.9066C48.249 25.0097 48.2562 25.1141 48.2633 25.2173C48.4509 28.1408 47.9312 30.7263 47.3732 32.5647C47.3481 32.6809 47.323 32.7983 47.2956 32.9157C47.2788 32.9881 47.2621 33.0604 47.2442 33.1316C46.2884 37.0348 43.9825 40.811 40.9155 43.4926C40.8617 43.5401 40.808 43.5863 40.753 43.6326C37.8772 46.0876 34.7708 47.2903 33.1758 47.7884C33.11 47.8086 33.0443 47.8287 32.9786 47.8489C31.2581 48.3648 29.2916 48.6969 27.4134 48.7965C27.2449 48.8143 27.1207 48.8262 27.0478 48.8333C27.037 48.8333 27.0263 48.8356 27.0155 48.8356C26.3691 48.8926 25.6714 48.921 24.9294 48.921H24.9306Z" fill="#FFEA4B"/>
</g>
<g opacity="0.55">
<path d="M25.7218 50.1023C23.5772 50.1023 21.1626 49.8509 19.2593 49.4085C19.2223 49.4002 19.1852 49.3907 19.1482 49.3824C16.6165 48.7763 13.9366 47.5796 11.7944 46.0983C11.737 46.0592 11.6797 46.0188 11.6235 45.9785C10.5661 45.229 9.55298 44.3406 8.62583 43.3622C8.60074 43.3396 8.57685 43.3159 8.55176 43.2934C6.48122 41.3637 4.85155 38.9573 3.836 36.3338C2.49785 32.873 2.23978 29.0707 3.08329 25.4913C3.23144 24.1973 3.53731 22.4171 4.16814 20.5859C4.37126 19.7059 4.64486 18.7796 5.01165 17.8462C5.04989 17.7489 5.08931 17.6517 5.12874 17.5556C6.2112 14.9381 7.94123 12.4225 9.99863 10.4704C10.0799 10.3933 10.1623 10.3162 10.2448 10.2415C13.0059 7.71879 16.7503 5.89707 20.5174 5.24357C20.5831 5.23171 20.6488 5.22104 20.7145 5.21037C21.7623 5.04077 22.8125 4.97079 23.7254 4.94944C25.772 4.81779 28.0851 4.96486 29.9788 5.35862C30.0349 5.37048 30.0899 5.38234 30.1461 5.3942C30.3683 5.44283 30.888 5.5555 31.9717 5.86861C33.5559 6.32641 37.7412 7.53615 41.2897 11.6825C43.1918 13.2184 45.5347 15.6556 47.0903 19.1698C47.1261 19.2516 47.1632 19.3346 47.1978 19.4177C49.2074 24.1487 48.794 28.7872 48.5228 30.5615C48.518 30.5923 48.5133 30.6232 48.5085 30.6528C48.1811 32.7188 47.4045 35.1609 46.4678 37.0715C45.7844 38.5493 44.8991 39.9381 43.8274 41.1953C43.6039 41.48 43.4259 41.6958 43.316 41.8251C43.3053 41.8369 43.2957 41.85 43.2849 41.8619C42.0591 43.3029 40.5441 44.6431 39.5334 45.4164C39.5095 45.4341 39.4868 45.4519 39.4629 45.4697C37.8463 46.6949 35.8415 47.818 33.9621 48.551C33.9215 48.5664 33.8809 48.583 33.8403 48.5984C31.9334 49.3266 29.6012 49.8615 27.6048 50.03C27.5797 50.0323 27.5546 50.0347 27.5295 50.0359C26.9644 50.081 26.3538 50.1035 25.7218 50.1035V50.1023Z" fill="#FFEA4B"/>
</g>
<g opacity="0.55">
<path d="M31.7107 47.7683C30.8768 47.7683 30.0488 47.7102 29.2328 47.5987C28.0715 47.6426 26.9006 47.5761 25.7321 47.3935C21.4871 46.995 17.4177 45.1424 14.2886 41.9319C14.2038 41.8453 14.1201 41.7575 14.0377 41.6686C11.905 39.3902 8.45452 34.4671 9.30639 27.0889C9.37569 26.4935 9.47247 25.8649 9.59672 25.2173C9.99817 23.1252 10.5788 21.3118 11.3745 19.6715C11.3972 19.6253 11.4199 19.579 11.4426 19.5316C12.2539 17.8937 14.0807 14.7863 17.1991 12.374C17.2373 12.3443 17.2755 12.3147 17.3138 12.2862C20.603 9.78369 24.4621 8.49805 28.3152 8.42096C29.6784 8.18138 30.8302 8.13631 31.6773 8.12801C40.3406 8.04973 45.1292 13.2552 46.7864 15.4944C49.017 18.5104 50.1891 22.0495 50.2966 25.6158C50.6025 27.7376 50.5296 29.9294 50.0445 32.0891C49.9238 32.6288 49.7769 33.1613 49.6072 33.6879C49.4089 34.2987 49.1831 34.8917 48.9274 35.4681C47.1448 40.7399 42.9368 45.1223 37.1876 46.9262C35.3679 47.4967 33.5244 47.7683 31.7131 47.7683H31.7107Z" fill="#FFEA4B"/>
</g>
<g opacity="0.55">
<path d="M21.2861 45.8884C17.7161 45.8884 14.3708 44.8566 11.5487 43.0692C5.50677 39.9085 1.70859 33.5953 1.87227 26.7105C1.95591 23.2082 2.94876 19.7664 4.74689 16.7551C4.77796 16.7029 4.80902 16.6507 4.84128 16.5985C4.90341 16.4977 5.00257 16.3364 5.13878 16.1277C5.38012 15.7149 5.63939 15.2951 5.91777 14.8669C7.54744 12.3632 9.26432 10.5119 11.3193 9.04002C11.4054 8.97834 11.4914 8.91786 11.5786 8.85855C12.9335 7.92397 14.1414 7.34638 15.6982 6.63477C23.8417 2.90949 33.505 5.64563 38.4418 13.0748C41.4921 17.6647 42.1743 23.1951 40.6808 28.1598C40.2722 29.5652 39.6904 30.9256 38.9401 32.2077C38.9269 32.2338 38.9138 32.2599 38.9006 32.286C36.9842 39.8338 30.2481 45.5527 22.0161 45.8742C21.7724 45.8836 21.5298 45.8884 21.2885 45.8884H21.2861Z" fill="#FFEA4B"/>
</g>
<g opacity="0.55">
<path d="M19.7094 49.1334C16.2636 49.1334 12.88 48.1573 9.97436 46.332C4.66719 43.5128 1.00522 38.1793 0.456816 32.0583C-0.0103393 29.2581 0.0314777 25.4759 1.96342 21.3639C4.42824 15.5038 9.72585 11.3089 16.1167 10.3731C20.192 9.77655 24.3009 10.5949 27.7848 12.5696C31.4982 14.0972 34.7264 16.8523 36.7874 20.6345C40.122 26.752 39.5222 33.9369 35.8471 39.3238C34.2067 42.5118 31.5937 45.248 28.1624 47.046C25.4622 48.4609 22.5637 49.1322 19.7082 49.1322L19.7094 49.1334Z" fill="#FFEA4B"/>
</g>
<g opacity="0.55">
<path d="M30.3238 49.4535C27.2807 49.4535 24.2029 48.6945 21.3833 47.1064C20.1754 46.4268 19.0762 45.6286 18.0893 44.7344C17.5755 44.3074 17.0869 43.852 16.6257 43.3728C12.3628 39.7258 9.86449 34.1693 10.3818 28.1788C11.1931 18.7891 19.1216 11.7014 28.442 11.7014C28.5089 11.7014 28.5758 11.7014 28.6427 11.7014C31.9905 11.2223 35.5126 11.6647 38.8126 13.1757C46.225 16.5665 50.2394 24.2934 49.2083 31.9242C48.7782 36.577 46.6503 39.6653 45.3122 41.6069C41.8163 46.6795 36.1339 49.4512 30.3214 49.4512L30.3238 49.4535Z" fill="#FFEA4B"/>
</g>
<g opacity="0.55">
<path d="M22.4243 39.8765C16.7467 39.8765 11.1803 37.1332 7.82419 32.0748C2.5206 24.0787 4.75005 13.3298 12.804 8.06391L16.4504 5.68002C24.5032 0.415285 35.3326 2.62839 40.6374 10.6233C45.941 18.6183 43.7115 29.3683 35.6576 34.6331L32.0111 37.017C29.0529 38.9514 25.7195 39.8765 22.4231 39.8765H22.4243Z" fill="#FFEA4B"/>
</g>
<g opacity="0.55">
<path d="M22.3948 43.1594C20.9981 43.1594 19.5787 42.9922 18.1629 42.6423C8.80428 40.3296 3.10761 30.9232 5.43741 21.6344L6.49239 17.4287C8.8222 8.13866 18.2967 2.48255 27.6554 4.79647C37.014 7.1092 42.7107 16.5155 40.3809 25.8044L39.3259 30.01C37.3485 37.8935 30.2253 43.1594 22.3948 43.1594Z" fill="#FFEA4B"/>
</g>
<path d="M11.3551 36.447C14.5699 36.447 17.176 34.023 17.176 31.0328C17.176 28.0426 14.5699 25.6186 11.3551 25.6186C8.1403 25.6186 5.53418 28.0426 5.53418 31.0328C5.53418 34.023 8.1403 36.447 11.3551 36.447Z" fill="#FFDB27"/>
<path d="M39.5612 36.9546C42.776 36.9546 45.3821 34.5306 45.3821 31.5404C45.3821 28.5503 42.776 26.1263 39.5612 26.1263C36.3464 26.1263 33.7402 28.5503 33.7402 31.5404C33.7402 34.5306 36.3464 36.9546 39.5612 36.9546Z" fill="#FFDB27"/>
<ellipse cx="14.667" cy="21.4838" rx="8.07817" ry="7.9331" fill="white"/>
<ellipse cx="14.7775" cy="21.1487" rx="5.31167" ry="5.36322" fill="#2E2C2C"/>
<ellipse cx="36.5782" cy="21.4838" rx="8.07817" ry="7.9331" fill="white"/>
<ellipse cx="36.578" cy="21.1487" rx="5.20101" ry="5.36322" fill="#2E2C2C"/>
<g clip-path="url(#clip1_937_4927)">
<path d="M19.443 31.3314C23.6104 31.3089 27.7778 31.2865 31.9451 31.264C32.4413 31.2602 32.8699 30.6832 32.8041 30.1619C32.7306 29.5782 32.3081 29.2163 31.7766 29.2203C27.6067 29.243 23.4418 29.2652 19.2743 29.2849C18.7781 29.2887 18.3497 29.8685 18.4155 30.3897C18.489 30.9735 18.9115 31.3354 19.443 31.3314Z" fill="#1D1D1B"/>
<path d="M18.4566 30.6991C18.4607 32.1312 18.8457 33.5747 19.5688 34.7865C20.389 36.1628 21.6345 37.0145 23.0693 37.4578C25.9127 38.3355 29.4449 38.1667 31.5286 35.668C32.6581 34.3152 32.9051 32.5188 33.0361 30.7597C33.0757 30.2267 32.815 29.6452 32.2735 29.5595C31.8065 29.4867 31.2143 29.8005 31.1728 30.3721C31.1222 31.0487 31.0694 31.7282 30.942 32.3949C30.8779 32.7241 30.8205 32.9485 30.7314 33.1894C30.6798 33.331 30.6204 33.4705 30.5557 33.6077C30.4715 33.785 30.4319 33.8569 30.3773 33.9329C30.2323 34.1401 30.0101 34.4252 29.8936 34.5476C29.7674 34.6763 29.466 34.9215 29.255 35.0657C28.9913 35.2472 28.9501 35.2699 28.6497 35.4053C28.3738 35.5303 28.0884 35.6314 27.7986 35.7109C26.6097 36.037 25.2502 35.892 24.0082 35.6052C23.3911 35.4629 22.9212 35.2943 22.354 34.9584C22.1701 34.8478 22.2581 34.9007 22.3037 34.9325C22.2526 34.8957 22.2012 34.8562 22.1498 34.8166C22.0361 34.7275 21.9294 34.6323 21.8223 34.5317C21.729 34.4436 21.6402 34.3496 21.5536 34.2527C21.4336 34.1174 21.6826 34.4338 21.5 34.1859C21.4516 34.1214 21.4007 34.0571 21.3546 33.9897C21.26 33.8551 21.1701 33.7173 21.0875 33.5761C21.0549 33.5185 21.0223 33.4609 20.9897 33.4033C20.963 33.3562 20.8868 33.2008 20.9479 33.3273C20.8039 33.024 20.6866 32.7074 20.5889 32.3837C20.54 32.2205 20.4986 32.0566 20.4621 31.8896C20.4709 31.9355 20.4918 32.0654 20.4594 31.8569C20.4435 31.7567 20.4251 31.6567 20.4116 31.5536C20.3661 31.2172 20.3458 30.8787 20.3456 30.5384C20.3443 30.0007 19.7939 29.5316 19.318 29.5968C18.772 29.6707 18.4547 30.123 18.4566 30.6991Z" fill="#1D1D1B"/>
</g>
</g>
<defs>
<clipPath id="clip0_937_4927">
<rect width="51" height="51" fill="white"/>
</clipPath>
<clipPath id="clip1_937_4927">
<rect width="14.5681" height="9.2443" fill="white" transform="matrix(0.996402 -0.084754 0.0822029 0.996616 18.3213 29.366)"/>
</clipPath>
</defs>
</svg>
