<svg width="122" height="38" viewBox="0 0 122 38" fill="none" xmlns="http://www.w3.org/2000/svg">
<circle cx="47.0476" cy="19" r="5.42857" fill="#5267EE"/>
<circle cx="73.2856" cy="19" r="5.42857" fill="#5267EE"/>
<path d="M16.2691 31.164C14.9449 31.164 13.7389 30.8641 12.6393 30.2765C11.5397 29.6768 10.6766 28.8613 10.0381 27.8059C9.39967 26.7506 9.08043 25.4913 9.08043 24.0402V13.9661C9.08043 13.6183 8.99767 13.2945 8.82032 13.0067C8.64296 12.7188 8.41832 12.491 8.13455 12.3111C7.85079 12.1312 7.54338 12.0472 7.18868 12.0472C6.83397 12.0472 6.52656 12.1312 6.2428 12.3111C5.95903 12.491 5.73439 12.7188 5.58068 13.0067C5.41515 13.2945 5.33239 13.6063 5.33239 13.9661V28.4776C5.33239 29.7488 4.31557 30.7682 3.0741 30.7682H2.25828C1.005 30.7682 0 29.7368 0 28.4776V14.3619C0 12.9707 0.30741 11.7594 0.922231 10.704C1.53705 9.64865 2.40017 8.80914 3.49975 8.1975C4.58751 7.57387 5.82898 7.27405 7.18868 7.27405C8.54838 7.27405 9.81349 7.58586 10.9012 8.1975C11.989 8.80914 12.8403 9.64865 13.4669 10.704C14.0936 11.7594 14.4128 12.9827 14.4128 14.3619V24.4239C14.4128 24.7957 14.4956 25.1315 14.6729 25.4194C14.8503 25.7072 15.0631 25.9351 15.3351 26.091C15.607 26.2589 15.9026 26.3428 16.2336 26.3428C16.5765 26.3428 16.8958 26.2589 17.1913 26.091C17.4869 25.9231 17.7116 25.6952 17.8889 25.4194C18.0663 25.1315 18.149 24.8077 18.149 24.4239V14.3619C18.149 12.9707 18.4683 11.7594 19.0949 10.704C19.7216 9.64865 20.5847 8.80914 21.6843 8.1975C22.7838 7.58586 24.0017 7.27405 25.3495 7.27405C26.6974 7.27405 27.9744 7.58586 29.0385 8.1975C30.1144 8.80914 30.9657 9.64865 31.5923 10.704C32.219 11.7594 32.5382 12.9827 32.5382 14.3619V28.4776C32.5382 29.7488 31.5214 30.7682 30.2799 30.7682H29.4641C28.2108 30.7682 27.2058 29.7368 27.2058 28.4776V13.9421C27.2058 13.5943 27.1231 13.2705 26.9575 13.0067C26.792 12.7308 26.5674 12.503 26.2954 12.3351C26.0235 12.1672 25.7042 12.0712 25.3495 12.0712C25.0185 12.0712 24.7111 12.1552 24.4273 12.3351C24.1317 12.515 23.8953 12.7308 23.7297 13.0067C23.5524 13.2825 23.4696 13.5943 23.4696 13.9421V24.0402C23.4696 25.4913 23.1386 26.7506 22.4883 27.8059C21.838 28.8613 20.9749 29.6888 19.8871 30.2765C18.7993 30.8761 17.5933 31.164 16.2691 31.164Z" fill="#5267EE"/>
<path d="M47.3176 31.2001C45.4967 31.2001 43.8415 30.8882 42.3753 30.2766C40.8974 29.665 39.6323 28.8015 38.5682 27.6981C37.5041 26.5948 36.6883 25.3235 36.1089 23.8724C35.5296 22.4212 35.2458 20.8621 35.2458 19.1831C35.2458 17.5041 35.5296 15.945 36.1089 14.4939C36.6883 13.0428 37.4922 11.7715 38.5445 10.6801C39.5968 9.58879 40.8619 8.74928 42.3517 8.13764C43.8415 7.538 45.4967 7.22618 47.3176 7.22618C49.1384 7.22618 50.7582 7.526 52.248 8.13764C53.7377 8.73729 55.0028 9.58879 56.0551 10.6801C57.1074 11.7715 57.9232 13.0428 58.5144 14.5059C59.1056 15.969 59.3893 17.5281 59.3893 19.1711C59.3893 20.8142 59.0937 22.4092 58.5144 23.8604C57.9232 25.3115 57.1074 26.5948 56.0551 27.6861C55.0028 28.7895 53.7377 29.641 52.248 30.2646C50.7582 30.8762 49.1147 31.1881 47.3176 31.1881V31.2001ZM47.3176 26.4748C48.2753 26.4748 49.162 26.2949 49.966 25.9352C50.77 25.5754 51.4794 25.0597 52.0706 24.4001C52.6618 23.7405 53.1111 22.9609 53.4421 22.0734C53.7614 21.186 53.9269 20.2145 53.9269 19.1831C53.9269 18.1517 53.7614 17.1923 53.4421 16.3168C53.1111 15.4413 52.6618 14.6618 52.0706 14.0022C51.4794 13.3426 50.7818 12.8269 49.966 12.4671C49.1502 12.1073 48.2634 11.9274 47.3176 11.9274C46.3717 11.9274 45.4494 12.1073 44.6455 12.4671C43.8415 12.8269 43.1439 13.3426 42.5409 14.0022C41.9497 14.6618 41.4886 15.4413 41.1694 16.3288C40.8501 17.2163 40.6964 18.1757 40.6964 19.1831C40.6964 20.1905 40.8501 21.186 41.1694 22.0734C41.4886 22.9609 41.9379 23.7405 42.5409 24.4001C43.132 25.0597 43.8415 25.5754 44.6455 25.9352C45.4494 26.2949 46.3362 26.4748 47.3176 26.4748Z" fill="#5267EE"/>
<path d="M73.3056 31.2001C71.4848 31.2001 69.8295 30.8882 68.3634 30.2766C66.8854 29.665 65.6203 28.8015 64.5562 27.6981C63.4921 26.5948 62.6763 25.3235 62.0969 23.8724C61.5176 22.4212 61.2338 20.8621 61.2338 19.1831C61.2338 17.5041 61.5176 15.945 62.0969 14.4939C62.6763 13.0428 63.4803 11.7715 64.5326 10.6801C65.5849 9.58879 66.85 8.74928 68.3397 8.13764C69.8295 7.538 71.4848 7.22618 73.3056 7.22618C75.1264 7.22618 76.7462 7.526 78.236 8.13764C79.7257 8.73729 80.9909 9.58879 82.0431 10.6801C83.0954 11.7715 83.9113 13.0428 84.5024 14.5059C85.0936 15.969 85.3774 17.5281 85.3774 19.1711C85.3774 20.8142 85.0818 22.4092 84.5024 23.8604C83.9113 25.3115 83.0954 26.5948 82.0431 27.6861C80.9909 28.7895 79.7257 29.641 78.236 30.2646C76.7462 30.8762 75.1028 31.1881 73.3056 31.1881V31.2001ZM73.3056 26.4748C74.2633 26.4748 75.1501 26.2949 75.9541 25.9352C76.7581 25.5754 77.4675 25.0597 78.0586 24.4001C78.6498 23.7405 79.0991 22.9609 79.4302 22.0734C79.7494 21.186 79.9149 20.2145 79.9149 19.1831C79.9149 18.1517 79.7494 17.1923 79.4302 16.3168C79.0991 15.4413 78.6498 14.6618 78.0586 14.0022C77.4675 13.3426 76.7699 12.8269 75.9541 12.4671C75.1382 12.1073 74.2515 11.9274 73.3056 11.9274C72.3597 11.9274 71.4375 12.1073 70.6335 12.4671C69.8295 12.8269 69.1319 13.3426 68.5289 14.0022C67.9377 14.6618 67.4766 15.4413 67.1574 16.3288C66.8382 17.2163 66.6845 18.1757 66.6845 19.1831C66.6845 20.1905 66.8382 21.186 67.1574 22.0734C67.4766 22.9609 67.9259 23.7405 68.5289 24.4001C69.1201 25.0597 69.8295 25.5754 70.6335 25.9352C71.4375 26.2949 72.3242 26.4748 73.3056 26.4748Z" fill="#5267EE"/>
<path d="M88.2741 28.4776V9.9605C88.2741 8.68924 89.2909 7.66985 90.5324 7.66985H96.6333C99.0453 7.66985 101.126 8.16156 102.9 9.15697C104.673 10.1524 106.045 11.5076 107.038 13.2466C108.019 14.9855 108.516 16.9764 108.516 19.219C108.516 21.4617 108.019 23.4525 107.038 25.1915C106.057 26.9305 104.673 28.2977 102.9 29.2811C101.126 30.2765 99.0453 30.7682 96.6333 30.7682H90.5324C89.2791 30.7682 88.2741 29.7368 88.2741 28.4776ZM93.7484 23.8603C93.7484 25.1316 94.7652 26.151 96.0067 26.151H96.5151C97.7684 26.151 98.8916 25.8751 99.8848 25.3114C100.866 24.7478 101.646 23.9562 102.214 22.9129C102.782 21.8815 103.065 20.6462 103.065 19.219C103.065 17.7919 102.782 16.5566 102.214 15.5252C101.646 14.4938 100.878 13.6903 99.8848 13.1266C98.9034 12.563 97.7802 12.2871 96.5151 12.2871H96.0067C94.7534 12.2871 93.7484 13.3185 93.7484 14.5778V23.8483V23.8603Z" fill="#C06DFF"/>
<path d="M115.22 37.9999C113.896 37.9999 112.784 37.7481 111.886 37.2444C110.987 36.7407 110.313 36.0451 109.852 35.1696C109.391 34.2941 109.166 33.2867 109.166 32.1714C109.166 31.056 109.379 29.8567 109.816 28.5855C110.254 27.3262 110.975 26.067 111.98 24.8437C112.902 23.7163 114.12 22.661 115.634 21.6775C115.894 21.5096 116.059 21.2218 116.059 20.898V13.3305C116.059 12.7548 115.598 12.2871 115.031 12.2871H112.56C111.992 12.2871 111.531 11.8194 111.531 11.2437V8.70119C111.531 8.12553 111.992 7.65781 112.56 7.65781H120.209C120.777 7.65781 121.238 8.12553 121.238 8.70119V31.032C121.238 32.4232 121.025 33.6345 120.588 34.6779C120.15 35.7213 119.488 36.5368 118.601 37.1244C117.715 37.7121 116.58 37.9999 115.22 37.9999ZM114.924 33.2507C115.184 33.2507 115.409 33.1788 115.61 33.0229C115.811 32.867 115.953 32.6511 116.047 32.3752C116.142 32.0994 116.189 31.7756 116.189 31.4038V26.3548C115.586 26.8585 115.09 27.3862 114.711 27.9259C114.333 28.4655 114.049 29.0172 113.884 29.5929C113.706 30.1685 113.624 30.7922 113.624 31.4758C113.624 32.0514 113.754 32.4832 114.014 32.795C114.274 33.1068 114.581 33.2627 114.924 33.2627V33.2507Z" fill="#C06DFF"/>
<g clip-path="url(#clip0_914_1747)">
<path d="M43.5893 5.27006C43.1512 5.67149 43.388 5.42454 43.5275 5.33604C43.6205 5.27704 43.7193 5.22332 43.8184 5.1751L43.3255 5.40507C44.2565 4.97772 45.3455 4.84163 46.3486 4.66497L45.7941 4.76239C47.1931 4.51971 48.6099 4.37004 50.0322 4.48762L49.4715 4.43639C50.2972 4.51525 51.1068 4.68027 51.8874 4.95953L51.3772 4.77109C51.6708 4.88026 51.9566 5.00354 52.2348 5.14644C52.3725 5.21795 52.5104 5.29496 52.6428 5.37496C52.7694 5.44968 53.2294 5.78083 52.6914 5.39501C53.1572 5.73143 53.6019 5.96395 54.2015 5.93912C54.7171 5.91777 55.3241 5.66652 55.6615 5.27202C55.9988 4.87752 56.2654 4.33429 56.2175 3.78754C56.1739 3.27646 55.9803 2.66956 55.5406 2.35412C54.4384 1.56149 53.2752 0.989235 51.9423 0.658386C50.7284 0.355696 49.4393 0.268447 48.1954 0.32547C46.8255 0.387713 45.4661 0.637027 44.1243 0.904914C43.6037 1.00919 43.0743 1.10281 42.5674 1.26443C41.7694 1.51532 41.1039 1.91513 40.4955 2.47251C39.6868 3.21191 39.7938 4.71029 40.6164 5.39317C41.5407 6.16007 42.3856 5.93912 43.5893 5.27006Z" fill="#5267EE"/>
</g>
<g clip-path="url(#clip1_914_1747)">
<path d="M68.6486 5.22994C68.2452 5.62993 68.4632 5.38377 68.5917 5.29572C68.6774 5.23702 68.7685 5.18361 68.8599 5.13571L68.4053 5.3641C69.2639 4.93975 70.2694 4.80711 71.1954 4.63365L70.6835 4.7293C71.975 4.49107 73.2832 4.3459 74.5973 4.46796L74.0793 4.41496C74.8422 4.49643 75.5905 4.66398 76.3124 4.94568L75.8406 4.75565C76.1121 4.86573 76.3765 4.9899 76.6339 5.13366C76.7613 5.20559 76.8889 5.28303 77.0115 5.36344C77.1287 5.43855 77.5546 5.77111 77.0564 5.38364C77.4878 5.72149 77.8992 5.95538 78.453 5.93244C78.9292 5.91273 79.4891 5.66343 79.7995 5.27005C80.1098 4.87667 80.3544 4.33435 80.3084 3.78752C80.2665 3.27637 80.0858 2.66894 79.6786 2.35215C78.658 1.55614 77.5818 0.980283 76.3495 0.645265C75.2274 0.338779 74.0363 0.247468 72.8876 0.300552C71.6224 0.358458 70.3675 0.603443 69.129 0.867055C68.6485 0.969676 68.1598 1.06161 67.692 1.22161C66.9557 1.46993 66.3423 1.86759 65.782 2.42298C65.0374 3.15972 65.141 4.65825 65.903 5.34364C66.7592 6.11336 67.5389 5.8951 68.6486 5.22994Z" fill="#5267EE"/>
</g>
<defs>
<clipPath id="clip0_914_1747">
<rect width="16.2627" height="5.85458" fill="white" transform="translate(39.8094 0.672821) rotate(-2.37123)"/>
</clipPath>
<clipPath id="clip1_914_1747">
<rect width="15.0195" height="5.85458" fill="white" transform="translate(65.1428 0.621353) rotate(-2.37123)"/>
</clipPath>
</defs>
</svg>
