<svg width="209" height="198" viewBox="0 0 209 198" fill="none" xmlns="http://www.w3.org/2000/svg">
<g clip-path="url(#clip0_662_5740)">
<g opacity="0.55">
<path d="M120.108 181.172C117.001 181.172 113.683 181.001 110.359 180.684C110.096 180.684 109.844 180.684 109.602 180.689C103.509 180.749 100.73 180.618 97.9913 180.381C97.7896 180.361 97.5929 180.346 97.3911 180.326C84.6908 179.106 72.3285 174.838 61.6407 167.989C61.2927 167.767 60.9446 167.54 60.5966 167.308C50.5342 160.615 36.119 146.625 28.6139 129.208C28.4121 128.739 28.2154 128.271 28.0237 127.797C23.4692 116.604 21.4315 103.768 22.2738 91.6572C22.3192 91.0322 22.3696 90.4073 22.4302 89.7874C24.1753 71.5235 32.2454 56.863 35.6348 51.4C35.8265 51.0875 36.0232 50.7751 36.225 50.4676C42.7769 40.2572 57.5754 22.0386 83.0214 14.7462C83.213 14.6908 83.4097 14.6353 83.6064 14.5799C91.5756 12.3674 99.454 11.6417 101.678 11.4754C101.85 11.4603 102.016 11.4502 102.188 11.4401C110.409 10.8757 119.856 11.6216 128.89 13.4207C133.747 13.7786 138.972 14.4085 143.824 15.482C143.986 15.5173 144.152 15.5525 144.314 15.5929C151.572 17.2509 170.082 22.7341 185.229 37.7978C185.552 38.1203 185.875 38.4429 186.192 38.7755C199.281 52.287 207.013 70.0469 207.961 88.7845C207.992 89.3792 208.017 89.9789 208.032 90.5736C208.451 106.444 203.518 124.088 194.842 137.776C194.721 137.967 194.6 138.153 194.479 138.345C190.676 144.226 185.481 150.647 180.579 155.52C180.468 155.631 180.357 155.742 180.246 155.848C179.721 156.362 179 157.052 178.097 157.869C175.565 160.394 172.872 162.737 170.037 164.879C169.704 165.131 169.366 165.383 169.023 165.63C150.654 179.005 130.151 180.936 122.186 181.147C121.919 181.152 121.652 181.162 121.384 181.162C120.966 181.167 120.537 181.172 120.108 181.172Z" fill="#5267EE"/>
</g>
<g opacity="0.55">
<path d="M114.636 184.841C112.86 184.841 111.357 184.791 110.177 184.725C109.904 184.71 109.632 184.695 109.365 184.675C97.7438 183.904 85.094 180.442 74.5877 175.246C64.5052 171.738 55.2347 166.134 47.3209 158.635C40.8043 153.126 34.8779 146.625 30.0308 139.655C29.8744 139.429 29.7181 139.202 29.5617 138.975C19.2623 123.8 13.9209 104.836 14.9044 86.9551C14.9246 86.5771 14.9498 86.2042 14.975 85.8262C15.2878 81.356 16.2461 73.7914 17.9004 67.1894C17.961 66.9475 18.0265 66.7005 18.0871 66.4586C19.3783 61.5348 24.6188 44.3645 37.8789 30.1374C38.0555 29.9459 38.237 29.7544 38.4136 29.568C49.0106 18.4403 62.0942 12.0298 67.2288 9.78711C67.5567 9.64599 67.8845 9.50488 68.2124 9.36377C79.5609 4.60125 90.6724 3.19517 101.184 2.79703C102.137 2.73656 103.095 2.68616 104.044 2.66096C104.361 2.65088 104.684 2.64584 105.007 2.6408C106.454 2.6156 108.033 2.63072 109.672 2.67608C120.849 2.84239 134.029 3.77474 147.592 8.98579C147.778 9.05635 147.97 9.13194 148.157 9.2025C154.598 11.7375 167 17.4979 177.698 27.6075C177.91 27.8091 178.122 28.0107 178.334 28.2123C183.095 32.8186 187.372 38.1556 190.953 43.8958C191.115 44.1277 191.276 44.3595 191.437 44.5964C191.589 44.8181 191.74 45.0449 191.891 45.2717C200.441 58.0675 205.55 73.6049 206.281 89.0163C206.291 89.2834 206.307 89.5505 206.317 89.8176C206.458 93.6982 206.594 107.411 202.433 120.923C202.347 121.205 202.256 121.487 202.166 121.764C198.126 134.343 190.071 147.558 180.624 157.108C180.432 157.299 180.24 157.491 180.049 157.682C172.826 164.824 163.091 171.723 154.002 176.133C153.685 176.289 153.362 176.44 153.039 176.591C138.049 183.607 123.19 184.836 114.636 184.836V184.841ZM49.7016 160.58C50.1102 160.908 50.4582 161.175 50.7356 161.387C50.6751 161.341 50.6095 161.291 50.549 161.245C50.2665 161.029 49.9841 160.807 49.7016 160.585V160.58ZM41.7627 152.794C42.1662 153.263 42.5596 153.711 42.9429 154.134C42.7714 153.943 42.5999 153.746 42.4284 153.555C42.2065 153.303 41.9846 153.051 41.7677 152.794H41.7627ZM41.7122 152.738C41.7122 152.738 41.7324 152.764 41.7475 152.779C41.7374 152.764 41.7274 152.754 41.7122 152.738ZM41.6063 152.612C41.6063 152.612 41.6114 152.622 41.6164 152.622C41.6164 152.622 41.6114 152.617 41.6063 152.612ZM41.5357 152.527C41.5357 152.527 41.5609 152.557 41.576 152.577L41.5357 152.527Z" fill="#5267EE"/>
</g>
<g opacity="0.55">
<path d="M110.536 193.469C104.866 193.469 98.0825 192.925 92.6049 192.018C91.3238 191.957 90.1133 191.877 89.0592 191.781C88.8826 191.766 88.701 191.746 88.5245 191.731C75.3904 190.43 64.4151 186.232 57.5203 182.941C57.4396 182.901 57.3589 182.866 57.2782 182.825C48.4868 178.587 40.2604 172.968 33.4866 166.572C33.3251 166.416 33.1587 166.265 32.9973 166.109C30.0315 163.256 25.4013 158.433 19.4547 149.523C19.3084 149.301 19.1622 149.08 19.0159 148.858C10.5827 135.911 5.8667 120.293 5.37745 103.692C5.37745 103.576 5.3724 103.46 5.36736 103.344C5.26648 99.3427 5.39762 95.0136 5.71538 90.8205C5.3724 83.5634 6.02305 76.2759 7.71273 69.2254C7.92457 68.3485 8.14649 67.4766 8.3886 66.6098C12.2269 52.8212 20.2415 40.9577 23.5099 36.4975C23.5957 36.3816 23.6814 36.2657 23.7671 36.1448C30.7175 26.7709 46.0557 10.16 70.7199 4.17791C71.0326 4.10231 71.3403 4.03176 71.653 3.95616C88.3631 0.131025 110.349 2.36865 110.571 2.39385C110.687 2.40393 110.803 2.41905 110.919 2.42913C114.969 2.87263 118.924 3.58826 122.681 4.47021C125.047 4.76756 127.306 5.11026 129.319 5.48319C129.359 5.48823 129.399 5.49831 129.445 5.50839C131.452 5.88637 138.115 7.22693 146.175 9.82238C149.716 10.8253 154.472 12.4178 159.768 15.0788C162.114 16.1674 164.434 17.3618 166.668 18.6671C166.769 18.7275 166.87 18.783 166.971 18.8435C173.361 22.6182 189.279 33.3679 199.13 51.5965C199.327 51.9644 199.523 52.3323 199.715 52.7052C206.978 66.7106 208.814 80.9226 208.789 91.8033C209.046 97.3873 208.799 102.135 208.511 105.385C208.486 105.673 208.456 105.965 208.431 106.252C207.281 117.607 203.886 128.86 198.616 138.799C198.53 138.955 198.449 139.111 198.363 139.267C196.376 142.951 190.858 152.441 182.627 160.978C182.561 161.049 182.491 161.119 182.425 161.19C172.665 171.229 157.045 181.772 144.445 186.822C144.284 186.887 144.122 186.953 143.961 187.013C134.463 190.743 122.848 193.147 112.891 193.444C112.654 193.449 112.412 193.459 112.175 193.464C111.64 193.474 111.096 193.479 110.541 193.479L110.536 193.469Z" fill="#5267EE"/>
</g>
<g opacity="0.55">
<path d="M104.927 194.996C97.4264 194.996 89.9464 193.842 82.7288 191.544C79.9194 191.096 77.1402 190.526 74.4771 189.8C74.2602 189.74 74.0433 189.679 73.8315 189.619C73.085 189.407 72.157 189.13 71.0725 188.782C64.6921 187.225 56.9751 184.655 49.3741 180.437C49.0059 180.23 48.6377 180.023 48.2746 179.812C37.3446 173.497 27.5597 164.234 20.7253 153.716C20.458 153.308 20.1957 152.895 19.9385 152.481C12.5745 140.643 8.31757 126.421 7.94937 112.441C7.93424 111.871 7.92416 111.302 7.92416 110.732C7.90902 106.308 8.39827 93.9805 13.5026 80.0406C13.6892 79.3905 13.8809 78.7404 14.0826 78.0903C14.6879 74.5826 15.4344 71.715 16.2212 68.7063C16.2969 68.4241 16.3675 68.1469 16.433 67.905C21.4315 46.8945 35.2666 28.7566 54.4633 18.0724C54.9727 17.7902 55.4872 17.513 56.0017 17.2409C68.0412 10.911 89.7346 4.99941 108.911 6.98506C109.269 7.02033 109.632 7.06065 109.991 7.10601C124.138 8.77919 138.095 14.338 149.287 22.7493C149.413 22.845 149.539 22.9408 149.665 23.0365C151.925 24.7551 153.529 26.1763 154.699 27.2144L154.946 27.4311C157.791 29.8804 160.408 32.5011 162.784 35.2578C170.239 42.4394 176.231 51.1278 180.316 60.9301C180.553 61.4996 180.785 62.0691 181.007 62.6436C183.227 68.3687 184.518 73.8116 185.244 78.7505C186.182 80.9075 187.03 83.13 187.771 85.418C188.482 87.4944 189.794 91.3296 190.792 96.5507C190.858 96.8833 190.918 97.216 190.974 97.5435C194.232 115.979 190.57 134.737 180.871 150.768C172.16 168.382 156.499 182.19 136.682 188.414C135.366 188.828 134.044 189.206 132.667 189.559C123.71 193.192 114.303 194.996 104.921 194.996H104.927ZM187.922 85.8565C188.013 86.1337 188.099 86.4159 188.185 86.6981C188.114 86.4663 188.028 86.179 187.922 85.8565ZM16.0548 69.5883C16.0548 69.5883 16.0497 69.6236 16.0447 69.6387C16.0447 69.6185 16.0497 69.6034 16.0548 69.5883ZM154.371 26.9373C154.502 27.0481 154.633 27.159 154.759 27.2648C154.613 27.1388 154.482 27.028 154.371 26.9373Z" fill="#5267EE"/>
</g>
<g opacity="0.55">
<path d="M101.764 192.577C98.0068 192.577 79.8693 192.29 64.6219 187.003C64.4605 186.948 64.2991 186.892 64.1377 186.832C60.3196 185.476 50.4488 181.646 41.2943 175.296C40.9766 175.074 40.6588 174.853 40.3461 174.626C30.1576 167.323 21.0637 157.183 14.7286 146.081C14.5521 145.774 14.3806 145.461 14.2091 145.154C12.7464 142.498 11.4956 139.857 10.4212 137.241C2.44698 123.478 -1.03325 107.23 1.08011 90.9214C1.18098 86.8997 1.52396 83.2156 2.00817 80.0809C2.0586 79.7584 2.10904 79.4359 2.16452 79.1133C5.40769 59.912 15.9644 41.7842 31.1159 29.3714C31.2874 29.2303 31.4589 29.0942 31.6304 28.9531C36.6086 24.9516 42.0711 21.5095 49.3442 17.7952C51.1499 16.8729 52.9707 15.986 54.61 15.235C64.3496 10.7547 73.5595 8.70358 81.9121 8.15929C82.8653 7.98794 83.6875 7.85187 84.3533 7.75107C84.4743 7.73092 84.5903 7.7158 84.7114 7.69564C85.8412 7.52933 86.9508 7.38318 88.0453 7.25718C92.3729 6.57178 96.8165 6.26436 101.351 6.3702L105.088 6.45587C134.857 7.13623 160.157 25.38 171.187 51.1178C199.826 79.4812 200.335 125.61 172.297 154.598C164.635 168.019 152.712 179.136 137.51 185.698C124.729 191.217 111.343 192.482 102.365 192.567C102.329 192.567 102.299 192.567 102.264 192.567C102.148 192.567 101.976 192.567 101.759 192.567L101.764 192.577Z" fill="#5267EE"/>
</g>
<g opacity="0.55">
<path d="M107.666 198C104.332 198 100.292 197.864 97.8504 197.773C97.2653 197.748 96.6752 197.723 96.0901 197.682C86.2698 197.068 77.7861 195.505 70.1549 192.91C70.0237 192.865 69.8976 192.824 69.7665 192.779C68.6669 192.396 58.766 188.918 50.6051 184.176C50.4538 184.09 50.3075 184 50.1562 183.914C41.7734 178.965 32.6441 171.269 26.3192 163.821C26.2234 163.705 26.1225 163.589 26.0266 163.473C25.5727 162.934 25.1238 162.379 24.6749 161.82C22.2942 159.164 20.0094 156.367 17.8759 153.494C17.8002 153.394 17.7296 153.293 17.6539 153.192C9.23583 141.727 3.97515 130.317 1.5743 118.302C1.49864 117.914 1.42298 117.531 1.35237 117.143C-1.30067 102.659 0.747114 86.9148 0.767289 86.7585C0.812683 86.4158 0.863121 86.0732 0.913559 85.7305C2.28043 76.4725 5.22097 67.527 10.1588 57.5787C10.3909 57.11 10.6279 56.6463 10.87 56.1827C15.3136 47.6857 21.2754 40.2975 22.4254 38.9015C22.5515 38.7453 22.6826 38.5941 22.8087 38.4378C29.9255 29.951 37.8443 23.994 44.3357 20.0328C48.5674 16.8931 53.0513 14.1213 57.7522 11.7476C57.8127 11.7173 57.8732 11.6871 57.9287 11.6568C63.9359 8.6431 76.2982 3.43205 91.6566 2.39387C91.7676 2.38379 91.8836 2.37875 91.9945 2.37371C92.2013 2.35859 113.31 1.25489 129.278 5.2413C129.475 5.2917 129.677 5.3421 129.873 5.39249C140.829 8.22481 153.705 13.8844 163.485 20.1588C163.556 20.2042 163.627 20.2495 163.702 20.2949C168.549 23.4296 185.184 34.9705 195.735 51.8636C195.877 52.0904 196.013 52.3122 196.154 52.5389C203.009 63.7775 207.447 77.2839 208.658 90.5635C208.663 90.6341 208.668 90.6996 208.678 90.7702C209.298 97.8207 208.91 106.469 208.249 111.917C208.224 112.139 208.194 112.365 208.163 112.587C207.356 118.766 205.011 130.987 198.383 143.395C198.293 143.571 198.197 143.743 198.101 143.914C193.158 152.99 186.672 160.399 182.541 164.647C180.619 166.698 178.45 168.855 176.105 170.937C175.994 171.038 175.878 171.133 175.767 171.234C166.209 179.605 152.218 187.865 140.128 192.275C139.966 192.335 139.81 192.391 139.648 192.446C130.564 195.687 120.099 197.647 110.177 197.96C109.421 197.985 108.563 197.995 107.656 197.995L107.666 198ZM105.497 50.7297C105.472 50.7297 105.446 50.7297 105.416 50.7297C105.441 50.7297 105.472 50.7297 105.497 50.7297Z" fill="#5267EE"/>
</g>
<g opacity="0.55">
<path d="M108.391 190.234C106.268 190.234 104.089 190.178 101.84 190.067C101.512 190.052 101.189 190.032 100.861 190.012C98.1929 189.846 95.4944 189.543 92.796 189.11C88.5743 188.475 84.4082 187.548 80.3983 186.343C79.5611 186.177 78.7137 185.995 77.8613 185.804C75.9901 185.481 74.1995 185.113 72.5199 184.7C72.3081 184.65 72.0962 184.594 71.8794 184.539C68.3235 183.632 55.8199 180.079 44.1889 172.524C44.0073 172.403 43.8207 172.282 43.6391 172.161C34.6914 166.235 26.238 158.091 19.8273 149.231C19.671 149.014 19.5096 148.792 19.3532 148.571C10.1079 135.487 5.10953 119.9 4.49418 102.241C4.47905 101.863 4.46897 101.49 4.46392 101.112C4.44879 100.27 4.12599 80.2976 9.26058 63.7775C9.2858 63.6918 9.31606 63.6011 9.34128 63.5104C12.2415 54.3079 17.1995 44.808 19.4137 41.0736C19.56 40.8317 19.7063 40.5847 19.8526 40.3428C27.6452 27.5369 39.1855 16.5957 52.3548 9.51998C52.7684 9.29824 53.182 9.08153 53.6006 8.86482C67.1029 1.9453 79.6266 0.569464 90.0976 0.131009C95.0102 -0.0756187 102.737 -0.141135 111.66 0.675298C111.973 0.705536 112.29 0.735774 112.603 0.766012C126.912 2.26784 139.638 6.41552 150.416 13.0881C150.709 13.2695 150.996 13.451 151.289 13.6324C157.15 17.3769 170.077 26.7659 180.114 42.2075C185.299 48.2249 189.703 54.2827 193.344 62.1799C193.571 62.6788 193.798 63.1777 194.015 63.6767C201.848 81.7239 202.574 101.681 196.154 120.313C194.156 126.673 190.106 138.718 180.034 150.39C179.791 150.672 179.544 150.954 179.297 151.231C178.415 152.224 177.486 153.202 176.523 154.165C175.898 155.107 175.252 156.049 174.581 156.992C166.229 168.689 156.308 177.126 144.253 182.79C143.849 182.982 143.441 183.168 143.032 183.35C132.536 188.047 121.652 190.234 108.402 190.234H108.391ZM194.111 125.615C194.111 125.615 194.101 125.635 194.096 125.645C194.096 125.635 194.106 125.625 194.111 125.615Z" fill="#5267EE"/>
</g>
<g opacity="0.55">
<path d="M101.754 195.646C98.0518 195.646 94.3698 195.389 91.0308 195.032C90.9753 195.027 90.9148 195.021 90.8593 195.016C90.7383 195.001 90.6172 194.991 90.4911 194.976C89.5429 194.875 88.6047 194.754 87.6817 194.623C81.8461 193.837 77.6597 192.87 77.347 192.799C77.1654 192.759 76.9889 192.713 76.8073 192.673C65.9379 190.047 53.7521 184.489 45.0112 178.169C44.7388 177.972 44.4715 177.776 44.2042 177.579C17.7646 157.909 6.88507 122.46 17.7494 91.3749C18.1126 90.3418 18.4959 89.3187 18.8994 88.3007C24.0996 75.3083 32.8405 64.1907 43.9671 56.102C44.9254 55.0739 45.9191 54.0659 46.9379 53.0832C47.412 52.6246 47.8962 52.1761 48.3804 51.7326C53.51 47.0557 58.7051 43.533 64.9241 39.6826C83.7677 28.0157 105.834 25.8637 125.48 31.9013C128.491 31.7955 131.522 31.866 134.559 32.118C144.778 32.9748 154.542 35.8222 163.586 40.5948C185.996 52.4129 200.718 74.4667 202.978 99.5795C203.089 100.794 203.165 102.014 203.215 103.238C204.204 128.084 192.8 151.438 171.091 169.007C171.01 169.072 170.925 169.143 170.839 169.208C169.891 169.969 168.574 170.987 166.95 172.166C166.37 172.67 165.78 173.169 165.18 173.663C164.953 173.85 164.721 174.036 164.494 174.218C155.874 181.107 146.392 185.668 142.72 187.306C142.518 187.396 142.311 187.487 142.104 187.578C134.645 190.828 122.822 194.835 108.861 195.48C108.654 195.49 108.442 195.5 108.235 195.505C107.469 195.536 106.51 195.556 105.416 195.566C105.138 195.581 104.856 195.591 104.578 195.601C103.635 195.636 102.687 195.651 101.744 195.651L101.754 195.646Z" fill="#5267EE"/>
</g>
<g opacity="0.55">
<path d="M108.13 185.325C103.479 185.325 98.8593 184.882 94.3299 184.02C90.6379 183.536 86.8853 182.841 83.289 181.883C83.0469 181.818 82.8048 181.752 82.5678 181.686C69.6405 178.093 56.1433 170.493 46.4592 161.356C46.2322 161.145 46.0103 160.928 45.7884 160.711C44.4467 159.411 43.1051 158.015 41.7886 156.553C40.8455 155.682 40.0082 154.875 39.2768 154.144C38.9944 153.862 38.7119 153.575 38.4345 153.288C24.7608 139.177 16.7764 120.061 15.9493 99.4536C15.9341 99.0252 15.919 98.5968 15.9089 98.1684C15.7172 89.6413 16.7916 67.643 30.9445 47.4992C31.1664 47.1817 31.3934 46.8693 31.6203 46.5518C37.5519 38.3875 44.9915 31.3067 55.0084 24.3065C58.6299 21.1869 61.8378 19.0047 63.9864 17.5785C70.8762 12.2415 78.7143 8.11393 87.1829 5.46809C101.24 0.357824 116.79 -0.43845 131.952 3.55804C133.49 3.96121 135.089 4.42991 136.839 4.98428C141.378 6.42059 150.82 9.41418 161.009 17.1098C161.685 17.6188 162.351 18.143 163.011 18.6772C166.9 21.832 170.39 25.3094 173.477 29.0539C173.75 29.3765 174.017 29.699 174.279 30.0266C175.57 31.4377 176.927 33.0151 178.309 34.7538C191.236 48.6382 196.2 64.3369 198.015 72.5466C198.126 73.0405 198.227 73.5344 198.328 74.0283C200.658 85.7053 200.658 105.385 196.154 120.394C196.063 120.696 195.968 120.998 195.877 121.301C190.803 137.438 180.73 149.629 177.764 152.98C177.659 153.101 177.548 153.222 177.442 153.343C171.384 160.096 162.28 167.535 154.245 172.303C154.104 172.388 153.963 172.469 153.822 172.555C145.222 177.579 135.472 181.238 125.571 183.229C119.801 184.64 113.95 185.33 108.15 185.33L108.13 185.325Z" fill="#5267EE"/>
</g>
<path d="M44.966 137.364C58.5375 137.364 69.5394 127.064 69.5394 114.358C69.5394 101.652 58.5375 91.3519 44.966 91.3519C31.3945 91.3519 20.3926 101.652 20.3926 114.358C20.3926 127.064 31.3945 137.364 44.966 137.364Z" fill="#3553E5" fill-opacity="0.7"/>
<path d="M164.035 139.517C177.607 139.517 188.609 129.216 188.609 116.51C188.609 103.804 177.607 93.5042 164.035 93.5042C150.464 93.5042 139.462 103.804 139.462 116.51C139.462 129.216 150.464 139.517 164.035 139.517Z" fill="#3553E5" fill-opacity="0.7"/>
<ellipse cx="58.2597" cy="75.7567" rx="34.8105" ry="33.1622" fill="white"/>
<ellipse cx="58.5" cy="76.0001" rx="21.5" ry="21" fill="#2E2C2C"/>
<ellipse cx="149.215" cy="75.8833" rx="33.6611" ry="32.665" fill="white"/>
<ellipse cx="149.41" cy="76.0374" rx="20.8834" ry="20.889" fill="#2E2C2C"/>
<g clip-path="url(#clip1_662_5740)">
<path d="M43.1472 140.822C46.0138 131.007 50.4213 121.729 55.1176 112.67C58.1991 120.693 61.2954 128.776 62.7176 137.268C63.4214 141.464 63.5251 146.289 60.6954 149.412C58.3769 151.968 54.7472 152.656 51.3768 153.208C49.925 153.442 48.3842 153.669 47.0213 153.094C45.762 152.557 44.9175 151.37 44.1472 150.221C42.4064 147.627 41.6064 144.126 42.8879 141.268" fill="#36A9E1"/>
<path d="M46.7178 141.82C47.4289 139.4 48.229 137.003 49.1104 134.636C49.5401 133.479 49.9845 132.33 50.4512 131.188C50.466 131.15 50.903 130.092 50.6142 130.787C50.7253 130.515 50.8438 130.243 50.9549 129.978C51.2067 129.381 51.466 128.791 51.7253 128.201C53.7549 123.573 56.0068 119.052 58.3253 114.575C56.066 114.273 53.8142 113.97 51.5549 113.675C53.229 118.023 54.8957 122.379 56.3105 126.825C56.9994 128.988 57.6216 131.165 58.1475 133.366C58.3994 134.409 58.629 135.46 58.8364 136.512C58.9475 137.101 59.0586 137.684 59.1549 138.273C59.1846 138.462 59.2142 138.651 59.2438 138.833C59.392 139.703 59.1846 138.16 59.2661 138.969C59.3623 139.884 59.4364 140.799 59.4364 141.729C59.4364 142.16 59.429 142.599 59.3994 143.03C59.3994 143.083 59.3475 144.02 59.3846 143.377C59.4142 142.788 59.3253 143.725 59.2957 143.854C59.2142 144.262 59.1179 144.671 58.992 145.071C58.9772 145.117 58.7105 145.986 58.8957 145.396C59.0809 144.807 58.7772 145.631 58.7475 145.691C58.666 145.85 58.5772 146.017 58.4809 146.168C58.4586 146.206 58.0068 146.984 58.3105 146.47C58.6142 145.956 58.1253 146.682 58.0735 146.735C57.8809 146.947 57.666 147.136 57.466 147.332C57.266 147.529 57.1846 147.786 57.5623 147.272C57.4438 147.431 57.1475 147.559 56.9846 147.665C56.8883 147.725 55.9994 148.338 55.8734 148.262L56.2438 148.111C56.1105 148.164 55.9771 148.217 55.8512 148.27C55.629 148.353 55.4068 148.436 55.1771 148.504C54.7179 148.656 54.2586 148.784 53.7919 148.898C52.9475 149.109 52.0956 149.268 51.2438 149.419C50.7549 149.502 50.266 149.593 49.7697 149.661C50.5327 149.555 49.9623 149.639 49.7993 149.639C49.4882 149.646 49.1623 149.646 48.8512 149.676L48.5401 149.661C49.0067 149.744 49.029 149.737 48.6067 149.646C47.8956 149.291 49.1253 149.926 48.3845 149.555C47.8882 149.313 48.3771 149.631 48.4438 149.623C48.3475 149.631 47.8956 149.049 47.8364 148.988C47.1993 148.3 48.0956 149.412 47.7771 148.928C47.6141 148.678 47.4364 148.444 47.2734 148.187C46.9771 147.725 46.7252 147.257 46.4808 146.765C46.1549 146.115 46.4512 146.765 46.503 146.841C46.3549 146.621 46.2956 146.251 46.2215 145.994C46.1401 145.706 46.0882 145.412 46.0141 145.124C45.8141 144.361 45.9993 145.812 45.9919 144.958C45.9919 144.86 45.9475 143.498 46.0141 143.498C46.0363 143.498 45.8586 144.3 46.0512 143.498C46.103 143.294 46.466 142.296 46.0956 143.166C46.5104 142.198 46.7549 141.313 46.466 140.255C46.2289 139.377 45.5623 138.425 44.7623 137.994C43.1623 137.132 40.5178 137.411 39.6956 139.347C38.5104 142.137 38.2363 145.034 39.0808 147.99C39.7845 150.44 41.1845 152.973 42.9919 154.758C45.466 157.208 48.503 157.42 51.7401 156.936C53.8364 156.618 55.9697 156.27 57.9549 155.499C60.5698 154.478 62.7698 152.996 64.429 150.659C65.9253 148.55 66.5328 146.001 66.7698 143.446C66.9994 141.049 66.6883 138.614 66.2957 136.247C65.8661 133.653 65.2735 131.097 64.5698 128.564C62.9772 122.802 60.8364 117.214 58.6957 111.641C58.1401 110.197 57.1994 109.146 55.6142 108.934C54.2068 108.745 52.6142 109.403 51.9253 110.741C47.0882 120.095 42.5548 129.676 39.5771 139.816C39.0215 141.706 40.2437 144.02 42.1623 144.466C44.0808 144.913 46.1252 143.854 46.7178 141.827V141.82Z" fill="#36A9E1"/>
</g>
<g clip-path="url(#clip2_662_5740)">
<path d="M125.839 119.833C116.617 110.636 103.17 108.845 91.6256 113.016C88.2413 114.238 84.9785 115.946 81.9518 117.982C80.5405 118.931 80.0239 121.232 81.0079 122.747C81.9919 124.262 83.8909 124.821 85.4012 123.806C86.6019 122.997 87.8367 122.242 89.1063 121.562C89.2743 121.472 89.4487 121.382 89.6168 121.293C89.5732 121.315 89.1802 121.504 89.5108 121.345C89.8102 121.202 90.1157 121.051 90.4151 120.908C91.1078 120.583 91.8079 120.285 92.5213 120C93.8482 119.477 95.2035 119.028 96.575 118.662C97.2167 118.49 97.8595 118.347 98.509 118.21C99.1584 118.073 98.6287 118.184 98.509 118.21C98.692 118.175 98.8816 118.147 99.0649 118.118C99.4378 118.062 99.8107 118.005 100.184 117.963C101.583 117.788 102.985 117.711 104.391 117.73C104.996 117.74 105.601 117.764 106.207 117.815C106.373 117.829 106.557 117.829 106.724 117.864C106.615 117.847 106.04 117.781 106.654 117.859C106.999 117.908 107.345 117.949 107.684 118.004C108.971 118.208 110.248 118.502 111.504 118.879C112.09 119.056 112.67 119.254 113.245 119.465C113.406 119.528 113.574 119.59 113.736 119.653C113.626 119.609 113.134 119.394 113.69 119.634C114.014 119.773 114.332 119.919 114.649 120.065C115.998 120.701 117.301 121.45 118.538 122.312C118.826 122.515 119.114 122.724 119.403 122.933C118.852 122.527 119.613 123.112 119.784 123.25C120.403 123.764 120.992 124.313 121.568 124.891C122.782 126.12 124.932 126.13 126.038 124.71C127.144 123.29 127.152 121.141 125.839 119.833Z" fill="#2E2C2C"/>
<path d="M125.839 119.833C116.617 110.636 103.17 108.845 91.6256 113.016C88.2413 114.238 84.9785 115.946 81.9518 117.982C80.5405 118.931 80.0239 121.232 81.0079 122.747C81.9919 124.262 83.8909 124.821 85.4012 123.806C86.6019 122.997 87.8367 122.242 89.1063 121.562C89.2743 121.472 89.4487 121.382 89.6168 121.293C89.5732 121.315 89.1802 121.504 89.5108 121.345C89.8102 121.202 90.1157 121.051 90.4151 120.908C91.1078 120.583 91.8079 120.285 92.5213 120C93.8482 119.477 95.2035 119.028 96.575 118.662C97.2167 118.49 97.8595 118.347 98.509 118.21C99.1584 118.073 98.6287 118.184 98.509 118.21C98.692 118.175 98.8816 118.147 99.0649 118.118C99.4378 118.062 99.8107 118.005 100.184 117.963C101.583 117.788 102.985 117.711 104.391 117.73C104.996 117.74 105.601 117.764 106.207 117.815C106.373 117.829 106.557 117.829 106.724 117.864C106.615 117.847 106.04 117.781 106.654 117.859C106.999 117.908 107.345 117.949 107.684 118.004C108.971 118.208 110.248 118.502 111.504 118.879C112.09 119.056 112.67 119.254 113.245 119.465C113.406 119.528 113.574 119.59 113.736 119.653C113.626 119.609 113.134 119.394 113.69 119.634C114.014 119.773 114.332 119.919 114.649 120.065C115.998 120.701 117.301 121.45 118.538 122.312C118.826 122.515 119.114 122.724 119.403 122.933C118.852 122.527 119.613 123.112 119.784 123.25C120.403 123.764 120.992 124.313 121.568 124.891C122.782 126.12 124.932 126.13 126.038 124.71C127.144 123.29 127.152 121.141 125.839 119.833Z" fill="black" fill-opacity="0.2"/>
</g>
<g clip-path="url(#clip3_662_5740)">
<path d="M140.213 140.822C143.079 131.007 147.487 121.728 152.183 112.67C155.265 120.693 158.361 128.776 159.783 137.268C160.487 141.464 160.59 146.289 157.761 149.412C155.442 151.968 151.813 152.656 148.442 153.208C146.99 153.442 145.45 153.669 144.087 153.094C142.827 152.557 141.983 151.37 141.213 150.221C139.472 147.627 138.672 144.126 139.953 141.268" fill="#36A9E1"/>
<path d="M143.783 141.82C144.494 139.4 145.294 137.003 146.176 134.636C146.606 133.479 147.05 132.33 147.517 131.188C147.531 131.15 147.968 130.092 147.68 130.787C147.791 130.515 147.909 130.243 148.02 129.978C148.272 129.381 148.531 128.791 148.791 128.201C150.82 123.573 153.072 119.052 155.391 114.575C153.131 114.273 150.88 113.97 148.62 113.675C150.294 118.023 151.961 122.379 153.376 126.825C154.065 128.988 154.687 131.165 155.213 133.366C155.465 134.409 155.694 135.46 155.902 136.511C156.013 137.101 156.124 137.684 156.22 138.273C156.25 138.462 156.28 138.651 156.309 138.833C156.457 139.702 156.25 138.16 156.331 138.969C156.428 139.884 156.502 140.799 156.502 141.729C156.502 142.16 156.494 142.599 156.465 143.03C156.465 143.083 156.413 144.02 156.45 143.377C156.48 142.788 156.391 143.725 156.361 143.854C156.28 144.262 156.183 144.671 156.057 145.071C156.043 145.117 155.776 145.986 155.961 145.396C156.146 144.807 155.843 145.631 155.813 145.691C155.731 145.85 155.643 146.016 155.546 146.168C155.524 146.206 155.072 146.984 155.376 146.47C155.68 145.956 155.191 146.682 155.139 146.735C154.946 146.947 154.731 147.136 154.531 147.332C154.331 147.529 154.25 147.786 154.628 147.272C154.509 147.431 154.213 147.559 154.05 147.665C153.954 147.725 153.065 148.338 152.939 148.262L153.309 148.111C153.176 148.164 153.043 148.217 152.917 148.27C152.694 148.353 152.472 148.436 152.243 148.504C151.783 148.656 151.324 148.784 150.857 148.897C150.013 149.109 149.161 149.268 148.309 149.419C147.82 149.502 147.331 149.593 146.835 149.661C147.598 149.555 147.028 149.639 146.865 149.639C146.554 149.646 146.228 149.646 145.917 149.676L145.605 149.661C146.072 149.744 146.094 149.737 145.672 149.646C144.961 149.291 146.191 149.926 145.45 149.555C144.954 149.313 145.443 149.631 145.509 149.623C145.413 149.631 144.961 149.049 144.902 148.988C144.265 148.3 145.161 149.412 144.843 148.928C144.68 148.678 144.502 148.444 144.339 148.187C144.043 147.725 143.791 147.257 143.546 146.765C143.22 146.115 143.517 146.765 143.568 146.841C143.42 146.621 143.361 146.251 143.287 145.994C143.205 145.706 143.154 145.412 143.08 145.124C142.88 144.36 143.065 145.812 143.057 144.958C143.057 144.86 143.013 143.498 143.08 143.498C143.102 143.498 142.924 144.3 143.117 143.498C143.168 143.294 143.531 142.296 143.161 143.166C143.576 142.198 143.82 141.313 143.531 140.254C143.294 139.377 142.628 138.425 141.828 137.994C140.228 137.132 137.583 137.411 136.761 139.347C135.576 142.137 135.302 145.033 136.146 147.99C136.85 150.44 138.25 152.973 140.057 154.758C142.531 157.208 145.568 157.42 148.806 156.936C150.902 156.618 153.035 156.27 155.02 155.499C157.635 154.478 159.835 152.996 161.494 150.659C162.991 148.55 163.598 146.001 163.835 143.446C164.065 141.048 163.754 138.614 163.361 136.247C162.932 133.653 162.339 131.097 161.635 128.564C160.043 122.802 157.902 117.214 155.761 111.641C155.206 110.197 154.265 109.146 152.68 108.934C151.272 108.745 149.68 109.403 148.991 110.741C144.154 120.095 139.62 129.676 136.642 139.816C136.087 141.706 137.309 144.02 139.228 144.466C141.146 144.912 143.191 143.854 143.783 141.827V141.82Z" fill="#36A9E1"/>
</g>
</g>
<defs>
<clipPath id="clip0_662_5740">
<rect width="209" height="198" fill="white"/>
</clipPath>
<clipPath id="clip1_662_5740">
<rect width="28.252" height="48.2359" fill="white" transform="translate(38.584 108.919)"/>
</clipPath>
<clipPath id="clip2_662_5740">
<rect width="46.2599" height="15.7422" fill="white" transform="matrix(-0.999181 0.0404638 -0.0407929 -0.999168 126.987 125.666)"/>
</clipPath>
<clipPath id="clip3_662_5740">
<rect width="28.252" height="48.2359" fill="white" transform="translate(135.649 108.919)"/>
</clipPath>
</defs>
</svg>
