<?xml version="1.0" encoding="UTF-8"?>
<svg id="Capa_1" xmlns="http://www.w3.org/2000/svg" version="1.1" xmlns:xlink="http://www.w3.org/1999/xlink" viewBox="0 0 372 373">
  <!-- Generator: Adobe Illustrator 29.2.1, SVG Export Plug-In . SVG Version: 2.1.0 Build 116)  -->
  <defs>
    <style>
      .st0 {
        fill: #fff;
      }

      .st1 {
        display: none;
        stroke: #000;
      }

      .st1, .st2 {
        fill: none;
      }

      .st3 {
        clip-path: url(#clippath-1);
      }

      .st4 {
        opacity: .6;
      }

      .st5 {
        fill: #36a9e1;
      }

      .st6 {
        clip-path: url(#clippath-3);
      }

      .st7 {
        clip-path: url(#clippath-2);
      }

      .st8 {
        fill: #2e2c2c;
      }

      .st9 {
        fill: #5267ee;
      }

      .st10 {
        fill: #3553e5;
        fill-opacity: .7;
      }

      .st11 {
        clip-path: url(#clippath);
      }

      .st12 {
        fill-opacity: .2;
      }
    </style>
    <clipPath id="clippath">
      <rect class="st2" x="126.6" y="52" width="141.7" height="148.7" transform="translate(34.7 295.1) rotate(-78.6)"/>
    </clipPath>
    <clipPath id="clippath-1">
      <rect class="st2" x="139.3" y="132.9" width="34.5" height="20.1" transform="translate(-14.5 268.3) rotate(-78.6)"/>
    </clipPath>
    <clipPath id="clippath-2">
      <rect class="st2" x="188.4" y="123.6" width="11.3" height="32.9" transform="translate(25.2 309.7) rotate(-81)"/>
    </clipPath>
    <clipPath id="clippath-3">
      <rect class="st2" x="207" y="146.5" width="34.5" height="20.1" transform="translate(26.5 345.6) rotate(-78.6)"/>
    </clipPath>
  </defs>
  <circle class="st9" cx="185.9" cy="186.8" r="157.9"/>
  <g class="st11">
    <g>
      <g class="st4">
        <path class="st9" d="M196.8,186.2c-2.2-.4-4.5-1-6.7-1.7-.2,0-.4,0-.5-.1-4.3-.8-6.2-1.3-8.1-1.8-.1,0-.3,0-.4-.1-8.7-2.6-16.7-7.4-23.2-13.7-.2-.2-.4-.4-.6-.6-6.1-6.1-14.2-17.9-16.9-31.2,0-.4-.1-.7-.2-1.1-1.6-8.5-1.2-17.8,1.1-26.2.1-.4.2-.9.4-1.3,3.8-12.6,11.5-21.7,14.6-25.1.2-.2.4-.4.5-.6,6-6.2,18.9-17,37.7-18.5.1,0,.3,0,.4,0,5.9-.4,11.5.2,13,.4.1,0,.2,0,.4,0,5.8.8,12.3,2.6,18.3,5.1,3.3.9,6.9,2.1,10.1,3.5.1,0,.2,0,.3.1,4.8,2.2,17,8.6,25.4,21.3.2.3.4.5.5.8,7.2,11.3,10.1,24.9,8.1,38.1,0,.4-.1.8-.2,1.3-1.9,11.2-7.9,22.9-15.9,31.3-.1.1-.2.2-.3.3-3.5,3.6-8,7.4-12.1,10.1,0,0-.2.1-.3.2-.4.3-1,.7-1.8,1.1-2.1,1.4-4.3,2.7-6.6,3.8-.3.1-.5.3-.8.4-14.7,6.8-29.3,5.3-34.9,4.3-.2,0-.4,0-.6-.1-.3,0-.6-.1-.9-.2Z"/>
      </g>
      <g class="st4">
        <path class="st9" d="M192.5,188c-1.2-.2-2.3-.5-3.1-.7-.2,0-.4,0-.6-.1-8-2.2-16.3-6.4-22.9-11.5-6.5-3.9-12.2-9.1-16.7-15.5-3.8-4.8-7-10.2-9.4-15.7,0-.2-.2-.4-.2-.5-5-12.1-6.1-26.1-2.9-38.6,0-.3.1-.5.2-.8.8-3.1,2.6-8.3,4.7-12.7,0-.2.2-.3.2-.5,1.6-3.3,7.7-14.6,18.9-22.7.1-.1.3-.2.5-.3,9-6.3,19-9,22.9-9.8.2,0,.5-.1.7-.2,8.6-1.7,16.5-1.2,23.9,0,.7,0,1.3.2,2,.3.2,0,.4,0,.7.1,1,.2,2.1.4,3.2.7,7.8,1.7,16.8,4.2,25.6,9.7.1,0,.2.2.4.2,4.1,2.7,12,8.5,18,17.1.1.2.2.3.4.5,2.7,3.9,4.9,8.2,6.6,12.8,0,.2.2.4.2.6,0,.2.1.4.2.5,4.2,10.2,5.5,21.8,3.9,32.7,0,.2,0,.4,0,.6-.5,2.7-2.3,12.4-7.1,21.3,0,.2-.2.4-.3.6-4.6,8.3-12.1,16.4-20,21.8-.2.1-.3.2-.5.3-6,4-13.8,7.5-20.8,9.3-.2,0-.5.1-.7.2-11.4,2.8-22,1.6-28,.4h0ZM150.6,161.9c.2.3.4.5.6.7,0,0,0,0-.1-.1-.2-.2-.3-.4-.5-.6h0ZM146.1,155.3c.2.4.4.8.6,1.1,0-.2-.2-.3-.3-.5-.1-.2-.2-.4-.4-.6h0ZM146.1,155.3s0,0,0,0c0,0,0,0,0,0ZM146.1,155.2s0,0,0,0c0,0,0,0,0,0ZM146,155.1s0,0,0,0h0Z"/>
      </g>
      <g class="st4">
        <path class="st9" d="M188.4,193.5c-4-.8-8.6-2.1-12.3-3.5-.9-.2-1.7-.4-2.4-.7-.1,0-.2,0-.4-.1-9-2.8-16-7.2-20.4-10.5,0,0-.1,0-.2-.1-5.5-4.2-10.5-9.3-14.3-14.7,0-.1-.2-.3-.3-.4-1.7-2.4-4.2-6.5-7.1-13.5,0-.2-.1-.4-.2-.5-4.1-10.3-5.1-21.9-3.1-33.6,0,0,0-.2,0-.2.5-2.8,1.2-5.8,2-8.7.8-5.1,2.3-10.2,4.4-14.9.3-.6.5-1.2.8-1.7,4.6-9.1,11.9-16.3,14.8-19,0,0,.2-.1.2-.2,6.2-5.6,19.2-15.1,37.3-15.8.2,0,.5,0,.7,0,12.2-.3,27.2,4.3,27.4,4.4,0,0,.2,0,.2,0,2.8.9,5.4,1.9,7.9,3.1,1.6.5,3.1,1.1,4.5,1.6,0,0,0,0,0,0,1.3.5,5.8,2.4,11.1,5.4,2.3,1.2,5.4,3,8.7,5.6,1.5,1.1,2.9,2.3,4.3,3.5,0,0,.1.1.2.2,3.9,3.5,13.5,13.3,17.8,27.5,0,.3.2.6.3.9,3.1,10.8,2.4,21.1.8,28.7-.6,4-1.5,7.2-2.1,9.5,0,.2-.1.4-.2.6-2.4,7.8-6.4,15.2-11.4,21.5,0,0-.2.2-.2.3-1.9,2.3-7.1,8.2-14,13,0,0-.1,0-.2.1-8.2,5.7-20.6,10.9-30.1,12.7-.1,0-.2,0-.4,0-7.2,1.3-15.6,1.3-22.6.2-.2,0-.3,0-.5,0-.4,0-.8-.1-1.1-.2h0Z"/>
      </g>
      <g class="st4">
        <path class="st9" d="M184.3,193.8c-5.2-1.1-10.3-2.9-15-5.5-1.9-.7-3.8-1.5-5.5-2.4-.1,0-.3-.1-.4-.2-.5-.3-1.1-.6-1.8-1-4.2-2-9.3-4.9-14-8.9-.2-.2-.5-.4-.7-.6-6.7-6-12.3-13.8-15.5-22.2-.1-.3-.3-.7-.4-1-3.5-9.3-4.4-19.9-2.7-29.8,0-.4.1-.8.2-1.2.6-3.1,2.7-11.7,8.2-20.8.2-.4.4-.9.7-1.3.9-2.4,1.8-4.3,2.8-6.3,0-.2.2-.4.3-.5,6.5-14,18.7-24.8,33.6-29.6.4-.1.8-.2,1.2-.4,9.3-2.8,25.3-3.9,38.4.2.2,0,.5.2.7.2,9.6,3.2,18.6,9,25.2,16.5,0,0,.1.2.2.3,1.3,1.5,2.3,2.7,2.9,3.6v.2c1.8,2.1,3.2,4.3,4.5,6.6,4.2,6.1,7.1,13,8.6,20.5,0,.4.2.9.2,1.3.7,4.3.9,8.3.7,11.9.4,1.6.6,3.3.8,5,.2,1.6.6,4.4.5,8.2,0,.2,0,.5,0,.7-.3,13.4-5.5,26-14.6,35.9-8.6,11.1-21.4,18.6-36.1,20.2-1,.1-2,.2-3,.2-6.8,1.3-13.6,1.2-20.1,0h0ZM257.6,128.8c0,.2,0,.4,0,.6,0-.2,0-.4,0-.6ZM140,93.3s0,0,0,0c0,0,0,0,0,0ZM242.5,82.8c0,0,.2.2.2.3,0-.1-.2-.2-.2-.3Z"/>
      </g>
      <g class="st4">
        <path class="st9" d="M182.4,191.6c-2.6-.5-15.2-3.3-25.1-9.1-.1,0-.2-.1-.3-.2-2.5-1.5-8.8-5.6-14.3-11.3-.2-.2-.4-.4-.6-.6-6.1-6.6-11-14.9-13.8-23.6,0-.2-.2-.5-.2-.7-.6-2.1-1.1-4.1-1.5-6.1-3.6-10.8-3.8-22.7,0-33.8.6-2.8,1.4-5.3,2.2-7.5,0-.2.2-.4.2-.7,5-13,14.9-24.3,27.2-30.8.1,0,.3-.1.4-.2,4-2.1,8.3-3.8,13.9-5.3,1.4-.4,2.8-.8,4-1.1,7.4-1.8,14.1-1.9,20-1.1.7,0,1.3,0,1.8,0,0,0,.2,0,.3,0,.8,0,1.6,0,2.4.2,3.1.1,6.3.5,9.4,1.2l2.6.6c20.7,4.7,35.7,21,39.8,40.6,16,23.9,9.8,56.4-13.8,72.8-7.2,8.3-17.1,14.5-28.7,16.9-9.7,2.1-19.2,1.1-25.5-.1,0,0,0,0,0,0,0,0-.2,0-.4,0h0Z"/>
      </g>
      <g class="st4">
        <path class="st9" d="M185.7,196.3c-2.3-.5-5.1-1.1-6.8-1.5-.4,0-.8-.2-1.2-.3-6.8-1.8-12.5-4.1-17.4-7,0,0-.2,0-.3-.1-.7-.4-7.1-4.3-12.2-8.7,0,0-.2-.2-.3-.2-5.1-4.6-10.4-11.3-13.8-17.4,0,0-.1-.2-.2-.3-.2-.4-.5-.9-.7-1.3-1.3-2.2-2.5-4.5-3.6-6.8,0,0,0-.2-.1-.2-4.3-9.2-6.3-18-6.3-26.7,0-.3,0-.6,0-.8.2-10.5,3.8-21.3,3.9-21.4,0-.2.2-.5.2-.7,2.3-6.3,5.6-12.2,10.4-18.5.2-.3.5-.6.7-.9,4.3-5.3,9.5-9.7,10.5-10.5.1,0,.2-.2.3-.3,6.2-5,12.5-8,17.6-9.9,3.4-1.6,6.9-2.9,10.5-3.9,0,0,0,0,.1,0,4.6-1.3,14-3.2,24.8-1.8,0,0,.2,0,.2,0,.1,0,15,2.2,25.6,7.2.1,0,.3.1.4.2,7.2,3.5,15.4,9.3,21.4,15.1,0,0,0,0,.1.1,2.9,2.9,12.9,13.3,17.9,26.6,0,.2.1.4.2.5,3.2,8.8,4.4,18.9,3.4,28.4,0,0,0,0,0,.1-.6,5-2.1,11-3.3,14.8,0,.2-.1.3-.2.5-1.4,4.2-4.8,12.5-11.2,20.2,0,.1-.2.2-.3.3-4.7,5.7-10.3,10-13.8,12.4-1.6,1.2-3.4,2.4-5.4,3.5,0,0-.2.1-.3.2-7.8,4.5-18.8,8.4-27.8,9.8-.1,0-.2,0-.4,0-6.8,1-14.4.9-21.3-.3-.5,0-1.1-.2-1.8-.3h0ZM205,92.6s0,0,0,0c0,0,0,0,0,0Z"/>
      </g>
      <g class="st4">
        <path class="st9" d="M187.3,190.9c-1.5-.3-3-.6-4.5-1-.2,0-.4-.1-.7-.2-1.8-.5-3.7-1.1-5.5-1.8-2.9-1-5.6-2.3-8.3-3.7-.6-.2-1.1-.5-1.7-.7-1.3-.5-2.5-1-3.6-1.5-.1,0-.3-.1-.4-.2-2.4-1.1-10.6-5.4-17.6-12.3-.1-.1-.2-.2-.3-.3-5.4-5.4-10.2-12.3-13.4-19.4,0-.2-.2-.4-.2-.5-4.6-10.5-5.9-22.1-3.8-34.6,0-.3,0-.5.1-.8.1-.6,2.7-14.7,8.6-25.5,0,0,0-.1,0-.2,3.3-6,8.1-12,10.2-14.3.1-.1.3-.3.4-.5,7.2-7.9,16.8-13.9,27-17.1.3,0,.6-.2,1-.3,10.4-3,19.3-2.2,26.7-1,3.5.5,8.9,1.6,15,3.4.2,0,.4.1.6.2,9.8,3.1,18.1,7.8,24.6,14,.2.2.4.3.5.5,3.6,3.4,11.3,11.9,16.1,24.1,2.8,4.9,5,9.8,6.4,15.9,0,.4.2.8.3,1.1,2.9,13.8.6,27.9-6.5,40-2.3,4.2-6.8,12.1-15.5,18.8-.2.2-.4.3-.6.5-.8.6-1.5,1.1-2.3,1.7-.6.6-1.2,1.1-1.8,1.7-7.5,7-15.6,11.6-24.8,13.8-.3,0-.6.2-.9.2-8,1.8-15.9,1.8-25.1,0h0ZM256.3,157.6s0,0,0,0c0,0,0,0,0,0Z"/>
      </g>
      <g class="st4">
        <path class="st9" d="M181.9,193.8c-2.6-.5-5.1-1.2-7.4-1.9,0,0,0,0-.1,0,0,0-.2,0-.3,0-.6-.2-1.3-.4-1.9-.6-4-1.4-6.7-2.6-7-2.7-.1,0-.2-.1-.4-.2-7.2-3.4-14.9-9-20.1-14.6-.2-.2-.3-.4-.5-.5-15.7-17.5-18.3-43.9-6.3-64.2.4-.7.8-1.3,1.2-2,5.5-8.4,13.1-15,22-19.1.8-.6,1.6-1.2,2.5-1.7.4-.3.8-.5,1.2-.7,4.2-2.6,8.4-4.3,13.2-6.1,14.8-5.5,30.5-4,43.3,3,2.1.3,4.2.8,6.3,1.4,7,2,13.4,5.4,19.1,10,14,11.4,21.1,29,19.2,46.9,0,.9-.2,1.7-.4,2.6-2.8,17.6-14.1,32.4-31.7,41.6,0,0-.1,0-.2.1-.8.4-1.8.9-3.1,1.5-.5.3-1,.5-1.4.8-.2,0-.4.2-.6.3-7,3.6-14.2,5.5-17,6.1-.2,0-.3,0-.5.1-5.7,1.2-14.5,2.4-24.3.9-.1,0-.3,0-.4,0-.5,0-1.2-.2-2-.4-.2,0-.4,0-.6,0-.7-.1-1.3-.2-2-.4h0Z"/>
      </g>
      <g class="st4">
        <path class="st9" d="M187.9,187.4c-3.2-.7-6.4-1.6-9.4-2.9-2.5-.9-5-1.9-7.4-3-.2,0-.3-.2-.5-.2-8.5-4.3-16.9-11.6-22.3-19.3-.1-.2-.3-.4-.4-.5-.8-1.1-1.5-2.3-2.2-3.5-.5-.7-1-1.4-1.4-2-.2-.2-.3-.5-.5-.7-7.5-11.8-10.4-26.4-8.1-40.9,0-.3.1-.6.2-.9,1.1-6,4.9-21.3,17.6-33.4.2-.2.4-.4.6-.6,5.3-4.9,11.5-8.8,19.5-12.3,3-1.7,5.5-2.8,7.2-3.5,5.6-2.8,11.6-4.6,17.9-5.2,10.5-1.6,21.5,0,31.5,4.9,1,.5,2.1,1.1,3.2,1.7,3,1.6,9.1,5.1,15.1,11.9.4.5.8.9,1.2,1.4,2.3,2.8,4.2,5.7,5.8,8.7.1.3.3.5.4.8.7,1.2,1.4,2.5,2.1,3.9,7.1,11.6,8.3,23.3,8.4,29.3,0,.4,0,.7,0,1.1,0,8.5-2.8,22.3-8.1,32.2-.1.2-.2.4-.3.6-5.8,10.6-14.6,17.8-17.1,19.7,0,0-.2.1-.3.2-5.2,3.9-12.6,7.8-18.9,10-.1,0-.2,0-.3.1-6.7,2.3-14,3.5-21.2,3.5-4.2.2-8.4-.2-12.4-1h0Z"/>
      </g>
      <path class="st10" d="M150.6,144.9c9.5,1.9,18.6-3.8,20.4-12.7,1.8-8.9-4.4-17.7-13.9-19.6-9.5-1.9-18.6,3.8-20.4,12.7-1.8,8.9,4.4,17.7,13.9,19.6Z"/>
      <path class="st10" d="M233.3,163.1c9.5,1.9,18.6-3.8,20.4-12.7,1.8-8.9-4.4-17.7-13.9-19.6-9.5-1.9-18.6,3.8-20.4,12.7-1.8,8.9,4.4,17.7,13.9,19.6Z"/>
      <path class="st0" d="M192.8,108.5c-2.6,12.8-15.6,21.1-29,18.4-13.4-2.7-22.2-15.3-19.6-28.2,2.6-12.9,15.6-21.1,29-18.4,13.4,2.7,22.2,15.3,19.6,28.2Z"/>
      <path class="st1" d="M192.8,108.5c-2.6,12.8-15.6,21.1-29,18.4-13.4-2.7-22.2-15.3-19.6-28.2,2.6-12.9,15.6-21.1,29-18.4,13.4,2.7,22.2,15.3,19.6,28.2Z"/>
      <path class="st8" d="M183.7,106.8c-1.6,8.1-9.7,13.4-18,11.7-8.3-1.7-13.7-9.6-12-17.8,1.6-8.1,9.7-13.4,18-11.7,8.3,1.7,13.7,9.6,12,17.8Z"/>
      <path class="st1" d="M183.7,106.8c-1.6,8.1-9.7,13.4-18,11.7-8.3-1.7-13.7-9.6-12-17.8,1.6-8.1,9.7-13.4,18-11.7,8.3,1.7,13.7,9.6,12,17.8Z"/>
      <path class="st0" d="M255.4,121.1c-2.5,12.7-15.1,20.8-28.1,18.2-13-2.6-21.4-15-18.9-27.6,2.5-12.7,15.1-20.8,28.1-18.2,13,2.6,21.4,15,18.9,27.6Z"/>
      <path class="st1" d="M255.4,121.1c-2.5,12.7-15.1,20.8-28.1,18.2-13-2.6-21.4-15-18.9-27.6,2.5-12.7,15.1-20.8,28.1-18.2,13,2.6,21.4,15,18.9,27.6Z"/>
      <path class="st8" d="M246.6,119.5c-1.6,8.1-9.5,13.3-17.5,11.7-8-1.6-13.2-9.5-11.6-17.6,1.6-8.1,9.5-13.3,17.5-11.7,8,1.6,13.2,9.5,11.6,17.6Z"/>
      <path class="st1" d="M246.6,119.5c-1.6,8.1-9.5,13.3-17.5,11.7-8-1.6-13.2-9.5-11.6-17.6,1.6-8.1,9.5-13.3,17.5-11.7,8,1.6,13.2,9.5,11.6,17.6Z"/>
      <g class="st3">
        <g>
          <path class="st5" d="M148.8,147.1c3.4-6.5,7.8-12.4,12.3-18.1,1,6.1,2,12.2,1.8,18.3-.1,3-.7,6.4-3.1,8.2-2,1.5-4.6,1.4-7,1.4-1,0-2.2,0-3-.7-.8-.6-1.2-1.5-1.6-2.4-.8-2.1-.9-4.6.4-6.5"/>
          <path class="st5" d="M151.1,148.3c.8-1.6,1.7-3.2,2.7-4.7.5-.8.9-1.5,1.4-2.2,0,0,.5-.7.2-.3.1-.2.2-.4.4-.5.3-.4.5-.8.8-1.1,2.1-3,4.3-5.8,6.5-8.6-1.5-.5-3.1-1.1-4.6-1.6.6,3.3,1.1,6.6,1.5,9.9.2,1.6.3,3.2.4,4.8,0,.8,0,1.5,0,2.3,0,.4,0,.9,0,1.3,0,.1,0,.3,0,.4,0,.6,0-.5,0,0,0,.7-.1,1.3-.3,2,0,.3-.1.6-.2.9,0,0-.2.7,0,.2.1-.4,0,.2-.1.3-.1.3-.2.5-.4.8,0,0-.3.6-.1.2s-.1.1-.1.2c0,.1-.2.2-.3.3,0,0-.4.5-.2.2.3-.3-.2.1-.2.2-.2.1-.3.2-.5.3-.2.1-.3.3,0,0-.1,0-.3.1-.5.2,0,0-.8.3-.9.3h.3c-.1,0-.2,0-.3,0-.2,0-.3,0-.5,0-.3,0-.7,0-1,0-.6,0-1.2,0-1.9,0-.4,0-.7,0-1.1,0,.5,0,.1,0,0,0-.2,0-.4,0-.7-.1h-.2c.3,0,.3,0,0,0-.4-.3.3.3-.1,0-.3-.2,0,0,0,0,0,0-.3-.5-.3-.5-.3-.6.1.3,0,0,0-.2-.2-.4-.2-.6-.1-.4-.3-.7-.4-1.1-.1-.5,0,0,0,0,0-.2,0-.4,0-.6,0-.2,0-.4,0-.6,0-.6-.1.5,0-.1,0,0,.2-1,.2-1,0,0-.2.5,0,0,0-.1.5-.8,0-.2.4-.6.7-1.2.7-2,0-.6-.4-1.4-.9-1.8-1-.8-2.9-1-3.7.2-1.2,1.8-1.8,3.8-1.6,6,.1,1.8.8,3.8,1.8,5.3,1.4,2.1,3.5,2.6,5.8,2.8,1.5,0,3,.1,4.5-.1,2-.3,3.7-1.1,5.2-2.5,1.3-1.3,2.1-3,2.7-4.7.5-1.6.6-3.4.7-5.1,0-1.9,0-3.8-.1-5.6-.3-4.3-1-8.5-1.7-12.7-.2-1.1-.7-2-1.8-2.3-1-.3-2.2,0-2.8.8-4.7,5.9-9.2,12-12.7,18.7-.7,1.2-.1,3,1.1,3.6,1.3.6,2.9.1,3.5-1.2h0Z"/>
        </g>
      </g>
      <g class="st7">
        <g>
          <path class="st8" d="M209.4,144c-5.1-7.7-14.3-10.9-22.9-9.6-2.5.4-5.1,1.1-7.4,2.1-1.1.5-1.8,2-1.3,3.2.5,1.2,1.7,1.9,2.9,1.4,1-.4,1.9-.8,2.9-1.1.1,0,.3,0,.4-.1,0,0-.3,0,0,0,.2,0,.5-.1.7-.2.5-.1,1.1-.2,1.6-.3,1-.2,2-.3,3-.4.5,0,.9,0,1.4,0,.5,0,0,0,0,0,.1,0,.3,0,.4,0,.3,0,.5,0,.8,0,1,0,2,.2,3,.4.4,0,.8.2,1.3.3.1,0,.2,0,.4.1,0,0-.5-.2,0,0,.2,0,.5.2.7.2.9.3,1.7.7,2.5,1.2.4.2.8.4,1.1.7.1,0,.2.1.3.2,0,0-.4-.3,0,0,.2.1.4.3.6.4.9.6,1.7,1.3,2.4,2.1.2.2.3.4.5.6-.3-.4.1.2.2.3.4.4.7.9,1,1.4.7,1,2.2,1.3,3.1.5,1-.8,1.3-2.3.6-3.4Z"/>
          <path class="st12" d="M209.4,144c-5.1-7.7-14.3-10.9-22.9-9.6-2.5.4-5.1,1.1-7.4,2.1-1.1.5-1.8,2-1.3,3.2.5,1.2,1.7,1.9,2.9,1.4,1-.4,1.9-.8,2.9-1.1.1,0,.3,0,.4-.1,0,0-.3,0,0,0,.2,0,.5-.1.7-.2.5-.1,1.1-.2,1.6-.3,1-.2,2-.3,3-.4.5,0,.9,0,1.4,0,.5,0,0,0,0,0,.1,0,.3,0,.4,0,.3,0,.5,0,.8,0,1,0,2,.2,3,.4.4,0,.8.2,1.3.3.1,0,.2,0,.4.1,0,0-.5-.2,0,0,.2,0,.5.2.7.2.9.3,1.7.7,2.5,1.2.4.2.8.4,1.1.7.1,0,.2.1.3.2,0,0-.4-.3,0,0,.2.1.4.3.6.4.9.6,1.7,1.3,2.4,2.1.2.2.3.4.5.6-.3-.4.1.2.2.3.4.4.7.9,1,1.4.7,1,2.2,1.3,3.1.5,1-.8,1.3-2.3.6-3.4Z"/>
        </g>
      </g>
      <g class="st6">
        <g>
          <path class="st5" d="M216.5,160.7c3.4-6.5,7.8-12.4,12.3-18.1,1,6.1,2,12.2,1.8,18.3-.1,3-.7,6.4-3.1,8.2-2,1.5-4.6,1.4-7,1.4-1,0-2.2,0-3-.7-.8-.6-1.2-1.5-1.6-2.4-.8-2.1-.9-4.6.4-6.5"/>
          <path class="st5" d="M218.9,161.9c.8-1.6,1.7-3.2,2.7-4.7.5-.8.9-1.5,1.4-2.2,0,0,.5-.7.2-.3.1-.2.2-.4.4-.5.3-.4.5-.8.8-1.1,2.1-3,4.3-5.8,6.5-8.6-1.5-.5-3.1-1.1-4.6-1.6.6,3.3,1.1,6.6,1.5,9.9.2,1.6.3,3.2.4,4.8,0,.8,0,1.5,0,2.3,0,.4,0,.9,0,1.3,0,.1,0,.3,0,.4,0,.6,0-.5,0,0,0,.7-.1,1.3-.3,2,0,.3-.1.6-.2.9,0,0-.2.7,0,.2.1-.4,0,.2-.1.3-.1.3-.2.5-.4.8,0,0-.3.6-.1.2.2-.4-.1.1-.1.2,0,0-.2.2-.3.3,0,0-.4.5-.2.2.3-.3-.2.1-.2.2-.2.1-.3.2-.5.3-.2.1-.3.3,0,0-.1,0-.3.1-.5.2,0,0-.8.3-.9.3h.3c0,0-.2,0-.3,0-.2,0-.3,0-.5,0-.3,0-.7,0-1,0-.6,0-1.2,0-1.9,0-.4,0-.7,0-1.1,0,.5,0,.1,0,0,0-.2,0-.4,0-.7-.1h-.2c.3,0,.3,0,0,0-.4-.3.3.3-.1,0-.3-.2,0,0,0,0,0,0-.3-.5-.3-.5-.3-.6.1.3,0,0,0-.2-.2-.4-.2-.6-.1-.4-.3-.7-.4-1.1-.1-.5,0,0,0,0,0-.2,0-.4,0-.6,0-.2,0-.4,0-.6,0-.6-.1.5,0-.1,0,0,.2-1,.2-1,0,0-.2.5,0,0,0-.1.5-.8,0-.2.4-.6.7-1.2.7-2,0-.6-.4-1.4-.9-1.8-1-.8-2.9-1-3.7.2-1.2,1.8-1.8,3.8-1.6,6,.1,1.8.8,3.8,1.8,5.3,1.4,2.1,3.5,2.6,5.8,2.8,1.5,0,3,.1,4.5-.1,2-.3,3.7-1.1,5.2-2.5,1.3-1.3,2.1-3,2.7-4.7.5-1.6.6-3.4.7-5.1,0-1.9,0-3.8-.1-5.6-.3-4.3-1-8.5-1.7-12.7-.2-1.1-.7-2-1.8-2.3-1-.3-2.2,0-2.8.8-4.7,5.9-9.2,12-12.7,18.7-.7,1.2-.1,3,1.1,3.6,1.3.6,2.9.1,3.6-1.2h0Z"/>
        </g>
      </g>
    </g>
  </g>
</svg>