<svg width="51" height="51" viewBox="0 0 51 51" fill="none" xmlns="http://www.w3.org/2000/svg">
<g opacity="0.55">
<path d="M24.8781 44.3096C18.6998 44.3096 12.7332 40.9188 9.67784 34.9951L9.11913 33.913C4.74344 25.4296 7.99421 14.9646 16.381 10.5373C24.7679 6.11125 35.114 9.39941 39.4909 17.8827L40.0496 18.9648C44.4253 27.4482 41.1745 37.9132 32.7877 42.3405C30.2572 43.6761 27.5476 44.3096 24.8781 44.3096Z" fill="#FF6D6D"/>
</g>
<g opacity="0.55">
<path d="M24.9467 50.8492C24.5471 50.8492 24.1449 50.8403 23.7516 50.8188C23.7303 50.8188 23.7103 50.8162 23.689 50.815C21.1222 50.6642 18.0756 50.0218 15.7393 49.1348C15.7042 49.1209 15.6692 49.1082 15.6341 49.0942C14.9877 48.8434 14.211 48.4936 13.3855 48.059C12.8418 47.8259 12.3207 47.5762 11.8334 47.3152C11.7582 47.2747 11.6843 47.2341 11.6104 47.1936C7.37878 44.8355 4.93977 41.2622 3.63821 38.6811C3.62193 38.6482 3.60564 38.6152 3.58936 38.5823C3.46659 38.3339 2.36923 36.0886 1.76793 33.7026C1.76167 33.676 1.75415 33.6494 1.74789 33.6228C1.59756 33.0159 1.47856 32.3899 1.3821 31.769C0.957431 30.009 0.676826 28.2072 0.570346 26.9451C0.569094 26.9236 0.566588 26.9033 0.565336 26.8818C0.48391 25.8681 0.353629 23.2046 0.909829 20.3903C0.912334 20.3751 0.916092 20.3612 0.918597 20.346C1.06391 19.1156 1.40465 17.2859 1.95959 15.607C1.97588 15.5563 1.99342 15.5069 2.0097 15.4575C2.56715 13.8166 3.86746 10.6691 6.30146 8.01953C6.35031 7.96631 6.40042 7.9131 6.44928 7.85988C7.79718 6.42931 9.39313 5.21161 11.3273 4.1371C13.497 2.93208 15.5088 2.21489 17.6585 1.88418C17.8201 1.85883 17.9816 1.83729 18.1432 1.81702C18.1871 1.81195 18.2309 1.80562 18.2748 1.80055C20.0073 1.17206 21.8713 0.817268 23.8142 0.788124L24.0685 0.784323C25.3688 0.765316 26.7706 0.77672 28.2438 0.976924C28.2839 0.981992 28.3227 0.988328 28.3628 0.993396C31.2565 1.40901 34.3156 2.57602 36.7546 4.19412C36.8073 4.2296 36.8599 4.26508 36.9125 4.30056C39.022 5.73366 40.9023 7.69769 41.9584 9.0573C41.9809 9.08517 42.0022 9.11432 42.0248 9.14219C43.5468 11.1265 44.6667 13.4897 44.7907 13.7519C44.8007 13.7748 44.812 13.7963 44.822 13.8191C45.9845 16.3356 46.8239 19.4527 47.0869 22.2112C47.5604 24.1131 47.9488 26.4459 47.9525 28.6633C47.9525 28.6963 47.9525 28.7279 47.9525 28.7609C47.9438 30.7046 47.6582 32.8815 47.1658 34.7328C47.1496 34.7936 47.1333 34.8532 47.117 34.914C46.6673 36.5346 45.5561 39.691 43.1559 42.6256C43.1021 42.6903 43.0495 42.7561 42.9943 42.8195C41.5162 44.5732 39.6033 46.1938 37.6077 47.3811C37.5802 47.3976 37.5526 47.4141 37.5251 47.4293C36.449 48.0615 35.0835 48.7268 33.8734 49.2083C33.8421 49.221 33.8108 49.2336 33.7782 49.245C32.1272 49.8913 30.1629 50.3968 28.3904 50.6325C28.3728 50.6351 28.3553 50.6376 28.3365 50.6401C27.521 50.7466 26.2507 50.8467 24.9467 50.8467V50.8492Z" fill="#FF6D6D"/>
</g>
<g opacity="0.55">
<path d="M25.0716 50.2284C24.5141 50.2284 23.9755 50.2081 23.4643 50.1676C23.4318 50.1651 23.3992 50.1625 23.3666 50.16C23.3128 50.1549 23.2313 50.1486 23.1261 50.1372C22.7303 50.1296 22.3707 50.1118 22.0638 50.089C22.03 50.0865 21.9949 50.084 21.9611 50.0814C20.2411 49.9446 18.0777 49.5188 16.4505 48.9942C16.4104 48.9816 16.369 48.9676 16.329 48.955C14.8871 48.4785 12.0798 47.3635 9.47417 45.2398C9.42407 45.1992 9.37396 45.1574 9.3251 45.1169C6.99257 43.1719 5.44298 40.8556 4.55607 39.2603C3.35347 37.6625 2.41019 35.8556 1.78759 33.8966C1.72496 33.7002 1.66608 33.5038 1.61096 33.3049C0.469751 29.2298 0.940767 23.9751 1.0961 22.575C1.00716 21.0278 1.0961 19.3387 1.43558 17.5078C2.07446 14.0676 3.70423 10.9935 6.01922 8.59744C8.52087 5.86427 11.8017 4.04724 15.3481 3.35539C16.5294 2.80673 17.7859 2.33663 18.9697 2.00592C18.9972 1.99832 19.0248 1.99071 19.0523 1.98311C20.9878 1.45346 23.314 1.15569 25.272 1.18863C25.3033 1.18863 25.3334 1.18863 25.3647 1.1899C28.3436 1.25579 32.1581 2.07561 34.8564 3.22995C34.894 3.24642 34.9316 3.26163 34.9679 3.2781C36.9722 4.15241 39.1607 5.56524 40.8205 7.05536C40.8744 7.10351 40.9283 7.15293 40.9821 7.20235C42.4428 8.54802 43.8871 10.3042 44.9457 12.0199C44.9519 12.0288 44.957 12.0389 44.9632 12.0478C45.5783 13.0488 46.3637 14.5567 46.831 15.6312C46.8435 15.6603 46.8573 15.6907 46.8698 15.7199C47.3283 16.7919 48.4495 19.6213 48.9343 22.7118C48.938 22.7384 48.9418 22.7638 48.9468 22.7904C49.4166 25.8783 49.2612 29.6442 48.5397 32.6193C48.5322 32.6523 48.5234 32.6852 48.5159 32.7169C48.1501 34.1868 47.4799 36.0393 46.8085 37.4369C46.7884 37.4787 46.7684 37.5205 46.7471 37.5636C45.3015 40.5071 43.2871 42.6637 42.4879 43.4532C42.4528 43.4874 42.4177 43.5216 42.3827 43.5558C40.3733 45.5097 38.1122 46.811 37.2328 47.2798C37.2102 47.2912 37.1877 47.3039 37.1651 47.3153C35.3863 48.2542 33.4634 48.9055 33.2505 48.9765C33.2241 48.9854 33.1978 48.9942 33.1703 49.0031C30.819 49.7748 27.7423 50.2284 25.0716 50.2284Z" fill="#FF6D6D"/>
</g>
<g opacity="0.55">
<path d="M24.14 51.0001C23.7091 51.0001 23.2982 50.9887 22.9249 50.9659C21.2714 50.862 19.014 50.4514 17.4356 49.9674C17.3504 49.9408 17.2652 49.9142 17.1813 49.8875C12.0953 48.2365 8.97358 44.6582 7.35259 42.2152C6.3855 40.9443 5.55621 39.5276 4.70813 37.7106C4.69811 37.6891 4.68809 37.6662 4.67807 37.6447C3.4191 35.331 2.53219 32.76 2.08748 30.9328C2.08247 30.9138 2.07871 30.8948 2.0737 30.8771C1.93841 30.3145 1.80562 29.6442 1.68662 28.908C0.977588 26.6893 0.892404 24.8938 0.847307 23.9485V23.927C0.839791 23.7926 0.833527 23.6571 0.829769 23.5227C0.754607 20.9125 1.24441 18.2934 2.28666 15.7376C2.71007 14.6998 3.20489 13.7178 3.76735 12.7992C4.00662 12.3075 4.26217 11.8374 4.53526 11.3825C4.56908 11.3268 4.60291 11.2698 4.63798 11.214C5.85686 9.23858 7.55051 7.40634 9.67009 5.76796C9.6989 5.74515 9.72896 5.72235 9.75778 5.70081C12.7442 3.42381 16.461 2.03632 18.9426 1.49653C18.9814 1.48766 19.0203 1.48005 19.0591 1.47119C21.0972 1.0429 23.2657 0.95547 25.6909 1.20129C25.761 1.20889 25.8299 1.2165 25.9001 1.2241C26.7169 1.31786 28.8402 1.60677 30.8996 2.2834C30.9485 2.29988 30.9986 2.31635 31.0474 2.33282C31.5573 2.50515 32.0934 2.71422 32.6359 2.94864C32.6659 2.95878 32.6947 2.96891 32.7248 2.97905C32.7599 2.99172 32.7962 3.00312 32.8313 3.01579C35.2928 3.8711 37.7193 5.27379 39.6635 6.96412C39.7149 7.00847 39.765 7.05281 39.8151 7.09716C39.8339 7.1149 41.7618 8.83818 43.1736 10.7388C43.1899 10.7604 43.2062 10.7832 43.2225 10.8047C44.3048 12.2771 46.358 15.7972 47.2599 18.9751C47.2749 19.0296 47.29 19.0828 47.305 19.1373C48.1168 22.1086 48.1205 24.9267 48.0842 25.9999C48.0829 26.0405 48.0817 26.081 48.0792 26.1229C48.0441 26.982 47.9489 27.8537 47.8199 28.6837C47.8048 30.1371 47.6683 31.3091 47.5831 31.9009C47.5743 31.9579 47.5668 32.0149 47.5581 32.0719C47.3614 33.3581 46.4845 37.8538 43.4918 41.6881C43.4379 41.7578 43.3828 41.8262 43.3277 41.8959C41.7956 43.7991 40.0569 45.1422 38.8668 45.9342C38.8355 45.9544 38.8054 45.9747 38.7741 45.995C38.719 46.0317 38.6626 46.0685 38.6062 46.104C38.1853 46.403 37.7694 46.6792 37.3598 46.9466C35.7125 48.0211 34.8707 48.4494 34.5538 48.6116C34.5275 48.6255 34.5011 48.6382 34.4736 48.6521C32.5532 49.6164 30.2457 50.3665 28.1424 50.7099C28.1111 50.715 28.081 50.72 28.0497 50.7251C26.9085 50.905 25.4391 51.0064 24.1426 51.0064L24.14 51.0001Z" fill="#FF6D6D"/>
</g>
<g opacity="0.55">
<path d="M23.5491 49.482C22.671 49.482 21.7277 49.4301 20.7506 49.2958C20.6805 49.2856 20.6103 49.2755 20.5402 49.2654C17.129 48.7534 13.7831 47.2937 11.1198 45.1536C11.0772 45.1194 11.0359 45.0864 10.9946 45.0522C10.1979 44.3996 9.49133 43.7091 8.87374 43.0324C8.03068 42.3114 7.19638 41.4726 6.42471 40.502C6.3746 40.4387 6.3245 40.3753 6.27439 40.3107C4.61456 38.1642 3.49965 35.6034 3.29296 35.1117C3.28168 35.0851 3.27041 35.0572 3.25913 35.0306C2.27952 32.6662 1.52915 29.8671 1.25356 27.5445C1.2498 27.5154 1.24729 27.4862 1.24354 27.4571C0.911569 24.5263 1.27611 21.4472 1.692 19.3691C1.84483 18.4593 2.06406 17.5001 2.37848 16.5447C2.39352 16.4991 2.40855 16.4522 2.42483 16.4066C3.11758 14.3577 4.16859 12.4621 5.63927 10.6121C5.7232 10.5069 5.80713 10.403 5.89231 10.3004C6.74164 9.28163 7.64735 8.41366 8.54052 7.67873C9.16061 7.13261 9.79824 6.63337 10.4509 6.18607C10.481 6.1658 10.511 6.14553 10.5411 6.12525C11.6372 5.38399 13.3384 4.44886 13.8645 4.18404C13.8958 4.16756 13.9271 4.15236 13.9585 4.13715C15.9265 3.15768 18.4093 2.36827 20.6003 2.02488C20.6429 2.01854 20.6855 2.01221 20.7281 2.00587C21.7904 1.84748 23.7533 1.69036 24.9847 1.71063C25.0035 1.71063 25.0223 1.71063 25.0411 1.71063C28.2054 1.76892 30.9038 2.61409 32.2291 3.11333C32.2805 3.13233 32.3306 3.15261 32.3819 3.17161C34.9049 4.14729 36.8741 5.28009 38.5828 6.73473C38.6404 6.78288 38.6968 6.8323 38.7532 6.88172C40.7024 8.58725 42.1543 10.6615 42.8458 11.7462C42.9059 11.8412 42.966 11.9362 43.0249 12.0325C43.5498 12.6674 44.0308 13.3199 44.4455 13.9623C44.4555 13.9775 44.4655 13.9928 44.4755 14.008C45.3888 15.4335 46.3371 17.381 46.8907 18.9687C46.9008 18.9991 46.912 19.0295 46.9221 19.0599C47.5183 20.7984 47.9029 22.8043 48.052 23.9928C48.0595 24.0536 48.067 24.1157 48.0746 24.1765C48.414 27.1492 48.0056 29.8684 47.6023 31.6272C47.5935 31.6639 47.586 31.7006 47.5772 31.7361C46.9947 34.2083 45.7007 37.7917 42.842 40.8289C42.8132 40.8593 42.7856 40.8885 42.7568 40.9189C41.4954 42.2405 39.9069 43.571 36.2616 45.7669C36.2365 45.7821 36.2102 45.7973 36.1852 45.8125C33.7211 47.2785 30.7096 48.4772 28.129 49.017C28.0977 49.0233 28.0664 49.0297 28.0351 49.036C27.0868 49.2286 25.4771 49.482 23.5479 49.482H23.5491Z" fill="#FF6D6D"/>
</g>
<g opacity="0.55">
<path d="M22.3648 48.7724C20.5509 48.7724 16.1714 48.4772 12.0525 45.9455C11.9548 45.886 11.8584 45.8251 11.7619 45.763C9.60727 44.3794 8.0652 42.727 6.9553 41.2724C5.76398 39.9141 4.95474 38.6875 4.65033 38.2022C4.63154 38.173 4.61275 38.1426 4.59396 38.1122C3.23603 35.9188 2.0397 32.9373 1.45594 30.9556C1.45343 30.9454 1.44968 30.9366 1.44717 30.9264C0.870929 28.9548 0.24082 25.6109 0.220776 22.9284C0.220776 22.9018 0.220776 22.8752 0.220776 22.8473C0.212007 19.9494 0.991188 15.2776 2.72367 11.8691C3.69327 9.96332 5.78904 7.00335 8.51492 4.90248C8.56001 4.86826 8.60386 4.83405 8.64895 4.79984C10.3614 3.50739 13.557 1.74863 16.9306 1.04032C16.997 1.02638 17.0646 1.01244 17.131 0.999771C20.2978 0.375085 23.3607 0.715938 24.5307 0.8908C24.552 0.893334 24.5733 0.897135 24.5946 0.900937C25.8298 1.091 27.1965 1.42425 27.8216 1.58391C30.1979 2.00713 32.1559 2.79274 32.7747 3.05883C32.8048 3.0715 32.8336 3.08417 32.8637 3.09684C34.2554 3.70379 36.365 4.85559 38.11 6.26969C38.1438 6.29757 38.1776 6.32544 38.2127 6.35332C38.7614 6.80568 39.2888 7.28338 39.7986 7.79149C40.7056 8.59991 41.6301 9.53884 42.4794 10.5994C42.4932 10.6172 42.507 10.6349 42.522 10.6526C44.2608 12.8435 45.982 16.0847 46.8063 18.7191C46.8163 18.7507 46.8263 18.7837 46.8363 18.8154C47.0831 19.62 47.8861 22.4976 47.856 25.7173C47.856 25.7693 47.856 25.8212 47.8535 25.8719C47.8172 27.936 47.4727 30.099 46.8589 32.1264C46.8401 32.1872 46.8213 32.248 46.8025 32.3076C46.5958 32.9652 46.3227 33.7179 45.9682 34.5225C45.6701 35.246 45.3393 35.9417 44.9811 36.593C44.9485 36.6512 44.9159 36.7108 44.8821 36.7691C43.2473 39.6594 40.7858 42.2379 37.9534 44.0322C37.9071 44.0613 37.8607 44.0905 37.8144 44.1196C37.0941 44.5656 36.2598 45.0281 35.3265 45.4982C34.3318 46.0634 33.604 46.4118 33.4136 46.5018C33.3948 46.5106 33.3773 46.5182 33.3585 46.5271C30.694 47.7638 28.2124 48.2314 26.6002 48.4062C26.5513 48.4113 26.5025 48.4164 26.4536 48.4214C26.4448 48.4214 26.1392 48.4519 25.6531 48.4835C24.6647 48.6445 23.625 48.756 22.6028 48.7712C22.564 48.7712 22.5251 48.7712 22.485 48.7724C22.4462 48.7724 22.4061 48.7724 22.3635 48.7724H22.3648Z" fill="#FF6D6D"/>
</g>
<g opacity="0.55">
<path d="M23.9771 49.4073C23.5324 49.4073 23.1027 49.3946 22.6931 49.368C22.663 49.3654 22.633 49.3642 22.6029 49.3616C22.0843 49.3262 21.2099 49.2425 20.1438 49.0487C19.6678 48.9676 19.2043 48.8687 18.7458 48.7509C17.651 48.481 16.4521 48.0983 15.2733 47.5547C15.1831 47.5129 15.0942 47.4711 15.004 47.428C14.3802 47.1265 13.7901 46.7983 13.2364 46.4511C12.5662 46.147 11.8785 45.796 11.2259 45.3956C11.1895 45.3728 11.1519 45.35 11.1156 45.3272C7.70952 43.1997 5.53608 40.1916 4.56398 38.6267C3.21733 36.6728 2.31037 34.5504 2.13249 34.1221C2.11245 34.0752 2.09365 34.0271 2.07486 33.9802C1.11529 31.6043 0.408771 28.8192 0.135682 26.3395C0.133176 26.3129 0.129418 26.2863 0.126913 26.2584C-0.132396 23.7939 -0.0284221 19.9203 0.790845 16.8247C0.800867 16.7855 0.812141 16.7462 0.822162 16.7069C1.39966 14.5845 2.44566 12.2251 3.6207 10.3941C3.65452 10.3422 3.68834 10.289 3.72217 10.237C5.93694 6.8665 8.90084 4.77957 10.4705 3.83557C10.5256 3.80263 10.5807 3.76968 10.6358 3.73674C12.1027 2.87637 14.7246 1.67895 17.2839 1.13535C17.3278 1.12648 17.3716 1.11762 17.4142 1.10875C19.0252 0.780563 20.5785 0.698201 21.9252 0.732413C24.403 0.406765 26.5201 0.582894 27.4684 0.699468C27.5135 0.704537 27.5598 0.710872 27.6049 0.717208C30.2845 1.0682 32.6521 1.98939 33.3147 2.26308C33.3536 2.27956 33.3924 2.29603 33.4312 2.31123C34.838 2.90551 36.3826 3.74814 37.6679 4.62118C37.6892 4.63639 37.7117 4.65032 37.733 4.66553C39.007 5.53984 40.1282 6.52312 41.0752 7.47218C41.8344 8.10701 42.6035 8.847 43.3489 9.71117C43.3877 9.75679 43.4266 9.80114 43.4654 9.84675C45.3282 12.0528 47.1847 15.5627 47.8523 17.2391C47.8736 17.2923 47.8949 17.3468 47.915 17.4C49.2541 20.863 49.6086 24.7619 48.9146 28.3783C48.9034 28.4366 48.8921 28.4961 48.8796 28.5544C48.7656 29.117 48.1806 31.7754 46.8301 34.4553C46.4268 35.8276 45.828 37.4102 44.9436 38.9282C44.8985 39.0068 44.8521 39.0841 44.8045 39.1627C42.2716 43.3593 38.5272 45.6553 37.034 46.4486C37.0065 46.4625 36.9789 46.4777 36.9526 46.4916C35.9968 46.9921 34.4735 47.6878 33.063 48.1363C33.0091 48.1541 32.954 48.1706 32.9001 48.187C32.0082 48.4607 30.6766 48.8092 28.2664 49.074C26.8207 49.2894 25.3325 49.4073 23.9759 49.4073H23.9771Z" fill="#FF6D6D"/>
</g>
<g opacity="0.55">
<path d="M24.5095 48.2808C24.4669 48.2808 24.423 48.2808 24.3804 48.2808C24.3178 48.2808 24.2552 48.2808 24.1925 48.2783C23.3996 48.2644 22.6266 48.1947 21.9001 48.0946C19.6828 47.8766 17.8814 47.328 16.8742 46.9631C16.8567 46.9567 16.8392 46.9504 16.8216 46.944C14.3701 46.0457 12.238 44.814 10.4842 43.2834C10.4516 43.2555 10.4191 43.2263 10.3865 43.1972C8.4661 41.4967 7.05305 39.4351 6.38161 38.3568C6.36156 38.3251 6.34277 38.2935 6.32273 38.2618C5.2191 36.4663 4.27581 34.2945 3.73339 32.3051C3.73214 32.2988 3.72964 32.2937 3.72838 32.2874C3.57555 31.8274 3.4365 31.3611 3.31875 30.8973C3.30873 30.8555 3.29745 30.8137 3.28743 30.7706C2.75128 28.5887 2.54583 26.0114 2.72372 23.6989C2.72747 23.6495 2.73123 23.6013 2.73624 23.5519C2.95171 21.0417 3.68203 17.3342 5.94191 13.9256C5.97448 13.8762 6.00705 13.8268 6.04087 13.7774C7.70696 11.3179 10.0144 9.12708 12.5386 7.60908C12.5712 7.5888 12.605 7.5698 12.6376 7.54952C12.6589 7.53685 14.8348 6.26974 16.9168 5.52848C16.9444 5.51834 16.9732 5.50821 17.0008 5.49934C20.0924 4.41722 23.0814 4.29685 24.2238 4.29431C24.2464 4.29431 24.2689 4.29431 24.2915 4.29431C26.8382 4.30065 30.7993 4.89112 33.9085 6.19751C33.9398 6.21019 33.9711 6.22412 34.0024 6.23679C35.9516 7.06929 38.1564 8.43397 39.7573 9.79738C39.7912 9.82652 39.8262 9.85567 39.8601 9.88608C41.9107 11.6613 43.7748 14.1043 44.9748 16.5891C45.0011 16.6423 45.0262 16.6968 45.0525 16.7513C46.1186 19.0194 46.8138 21.6423 47.0105 24.1386C47.0142 24.193 47.0193 24.2488 47.023 24.3033C47.1094 25.5539 47.1871 28.8421 46.0459 32.3596C46.0321 32.4039 46.0171 32.4483 46.0021 32.4926C45.5962 33.7091 44.5189 36.4676 42.3692 39.1526C40.3849 41.8857 37.9923 43.6584 36.5642 44.5606C36.5204 44.5885 36.4765 44.6164 36.4314 44.643C35.6861 45.1055 33.8296 46.1546 32.1372 46.8186C32.0871 46.8389 32.0369 46.8579 31.9856 46.8769C30.8744 47.3014 27.9406 48.2783 24.507 48.2783L24.5095 48.2808Z" fill="#FF6D6D"/>
</g>
<g opacity="0.55">
<path d="M26.0769 50.4716C24.3532 50.4716 22.5568 50.279 20.9834 49.9141C20.9508 49.9065 20.9182 49.8989 20.8857 49.8913C19.767 49.6239 18.6158 49.2463 17.5347 48.8396C16.8081 48.6723 16.1054 48.4746 15.4652 48.2567C15.4039 48.2364 15.3437 48.2149 15.2823 48.1933C11.7059 46.925 9.11654 44.7189 8.1695 43.8307C8.10812 43.7724 8.04673 43.7141 7.98535 43.6545C5.91338 41.6512 4.57675 39.4021 3.96418 38.2402C3.94163 38.1958 3.91783 38.1527 3.89528 38.1084C3.05096 36.4738 2.41083 34.6175 2.09264 33.4251C2.0751 33.3567 2.05631 33.2896 2.04003 33.2211C1.48508 31.0379 1.35856 28.7989 1.3335 28.1641C1.3335 28.1387 1.331 28.1121 1.331 28.0868C1.24707 25.7401 1.61035 21.8133 2.60875 18.7355C2.62003 18.6988 2.63256 18.662 2.64508 18.6253C3.09981 17.2555 3.75873 15.825 4.53165 14.4983C4.59178 14.369 4.65316 14.2411 4.7158 14.1143C4.74837 14.0485 4.78219 13.9826 4.81602 13.9167C6.65122 10.327 9.39339 7.91563 10.487 7.04513C10.5121 7.02485 10.5384 7.00458 10.5634 6.98431C10.7789 6.81578 11.0219 6.63332 11.2887 6.44325C11.8437 5.99216 12.2871 5.67158 12.5314 5.50052C12.5602 5.48024 12.5903 5.45997 12.6191 5.4397C13.8505 4.592 15.2448 3.86468 16.1968 3.40345C16.2244 3.38951 16.2519 3.37684 16.2807 3.3629C19.296 1.92346 22.7785 1.23162 26.0831 1.41408C26.1458 1.41788 26.2084 1.42168 26.271 1.42549C29.0044 1.60795 31.952 2.43791 34.3585 3.70249C34.4111 3.73036 34.4637 3.75824 34.5163 3.78612C36.1686 4.6769 38.1128 6.12521 39.4695 7.47595C39.4983 7.50509 39.5284 7.53423 39.5572 7.56338C40.741 8.75826 41.8772 10.3599 42.818 11.8589C44.2623 13.5986 45.3246 15.3409 45.9535 16.48C45.9585 16.4889 45.9635 16.4978 45.9685 16.5079C47.1122 18.5873 48.5115 22.0211 49.0101 25.4233C49.0138 25.4537 49.0189 25.4829 49.0226 25.5133C49.2644 27.2214 49.3157 29.2791 49.1604 31.0176C49.1567 31.0658 49.1516 31.1152 49.1466 31.1633C49.0189 32.4697 48.38 37.0465 45.5113 41.0874C45.4649 41.1533 45.4173 41.2191 45.3697 41.2838C42.6752 44.9711 38.7855 47.0973 36.7061 48.0362C36.6797 48.0476 36.6534 48.0603 36.6271 48.0717C34.4499 49.0423 30.6843 50.0826 28.4031 50.3449C28.3693 50.3487 28.3355 50.3525 28.3017 50.3563C27.5926 50.4336 26.8423 50.4716 26.0781 50.4716H26.0769Z" fill="#FF6D6D"/>
</g>
<g opacity="0.55">
<path d="M30.1288 48.96C27.79 48.96 25.44 48.5038 23.2001 47.5775C21.6681 46.944 20.2287 46.1026 18.9197 45.0788C18.5251 44.7696 18.1442 44.4452 17.7797 44.1082C16.4155 43.1883 15.1503 42.0846 14.0178 40.8099C13.9327 40.7149 13.8487 40.6186 13.766 40.521C13.4316 40.1282 13.1134 39.7316 12.8115 39.3274C9.27887 35.2207 7.60276 29.6162 8.57235 23.994C8.67256 22.9905 8.86423 21.883 9.20371 20.6996C9.27136 20.4626 9.34401 20.2269 9.42168 19.9925C10.1746 17.7104 11.3333 15.6336 12.819 13.8457C14.1281 10.5601 16.3566 7.68884 19.2804 5.61205C23.6073 2.54057 29.0352 1.50914 34.1676 2.78512C40.9071 4.46024 44.2405 9.24359 45.3354 10.8148C46.1284 11.9539 46.91 13.235 47.5953 14.5198C47.6203 14.5655 47.6441 14.6111 47.6679 14.658C48.0425 15.3751 48.3719 16.105 48.6576 16.845C50.707 21.2748 50.8673 25.2498 50.3362 28.4074C50.2485 30.2663 49.8927 32.0922 49.2877 33.8281C48.9169 35.2612 48.3995 36.6081 47.7293 37.8905C47.6504 38.0412 47.5702 38.1908 47.4875 38.339C45.864 41.247 43.8259 43.1021 42.2312 44.392C41.9243 44.6404 41.6036 44.8913 41.3029 45.1181C41.1 45.2714 40.9134 45.4082 40.7317 45.5388C37.5574 47.7993 33.8581 48.9587 30.1301 48.9587L30.1288 48.96Z" fill="#FF6D6D"/>
</g>
<g opacity="0.55">
<path d="M29.7165 49.0144C25.0502 49.0144 20.4014 47.2189 16.8525 43.6761C14.6941 41.5207 13.1683 38.9459 12.2914 36.1963C6.30728 28.2921 7.57251 16.9539 15.2478 10.6082C19.3705 7.19971 24.5203 5.91106 29.4071 6.61177C30.0234 6.56742 30.6423 6.55475 31.2636 6.57249C31.7359 6.58643 32.2081 6.61937 32.6792 6.67132C36.9509 7.13635 40.9006 9.09911 43.867 12.163C47.4172 15.4702 49.5956 20.1255 49.776 25.1103C50.0905 27.3937 49.9877 29.7657 49.4165 32.1162C49.181 33.0868 48.8628 34.0511 48.4732 34.9811C48.4407 35.0584 48.4081 35.1357 48.3743 35.213C48.3254 35.3245 48.2753 35.436 48.2252 35.5475C47.5462 37.2898 46.4952 39.3996 44.9156 41.3243C44.8968 41.3484 44.8767 41.3712 44.8579 41.3953C43.9447 42.4977 42.9238 43.486 41.3366 44.8051C37.9455 47.6231 33.8254 49.0144 29.719 49.0144H29.7165ZM13.9212 19.2943C13.9212 19.2943 13.9187 19.2981 13.9174 19.3006C13.9174 19.2981 13.9199 19.2968 13.9212 19.2943Z" fill="#FF6D6D"/>
</g>
<g opacity="0.55">
<path d="M23.4811 38.9371C16.3858 38.9371 9.63249 34.7405 6.65232 27.7283C6.09361 26.4143 5.69776 25.0711 5.45473 23.7216C4.77076 21.1887 4.61041 18.472 5.07516 15.7287C6.59845 6.71193 14.374 0.236982 23.2982 0.330749C26.6166 0.0101692 29.7897 0.473932 32.2525 1.29756C32.3903 1.34317 32.5269 1.39132 32.6634 1.44074C34.4924 2.1009 36.196 3.04364 37.7281 4.24106C39.5382 5.65642 41.0352 7.36449 42.1827 9.26643C44.9286 13.4618 45.9859 18.766 44.6731 24.0283C42.8266 31.4257 36.8174 36.65 29.8148 37.7866C27.734 38.5659 25.5919 38.9371 23.4811 38.9371Z" fill="#FF6D6D"/>
</g>
<g opacity="0.55">
<path d="M25.3321 39.5428C18.0489 39.5428 11.1616 35.1168 8.3104 27.8524C8.19014 27.5445 7.87697 26.7424 7.58885 25.9467C6.86103 23.937 4.645 17.822 7.87822 10.7895C8.03606 10.4461 8.20392 10.1078 8.38181 9.7758C11.0313 4.83279 15.6938 1.39005 21.1756 0.33074C26.7001 -0.736169 32.5777 0.810975 36.9008 4.4704C38.0633 5.45367 39.1081 6.58014 40.0889 7.91061C42.915 11.7436 44.055 16.3217 43.6391 20.735C43.7506 28.2047 39.3561 35.3094 32.0842 38.2301C29.8681 39.1196 27.582 39.5415 25.3334 39.5415L25.3321 39.5428ZM10.7356 30.0534C10.7356 30.0534 10.7406 30.0597 10.7431 30.0635C10.7406 30.0597 10.7381 30.0572 10.7356 30.0534Z" fill="#FF6D6D"/>
</g>
<g opacity="0.55">
<path d="M31.9781 47.3051C26.2708 47.3051 20.8441 44.6112 17.3428 39.8963C16.9081 39.3109 16.5097 38.7039 16.1489 38.0767C11.8359 32.4444 10.9552 24.544 14.5342 17.884C15.9247 15.2966 17.8376 13.1767 20.0661 11.589C21.7573 10.1572 23.724 9.01929 25.9037 8.26536C31.5096 6.32668 37.5451 7.28335 42.2189 10.5398C43.2286 11.2038 44.1794 11.9691 45.0575 12.8333C48.5401 16.2596 50.5231 20.8845 50.6421 25.7388C51.4639 32.3671 48.8019 39.1943 43.3438 43.3922C43.1221 43.5633 42.8954 43.7293 42.6661 43.889C41.8707 44.4452 41.0414 44.9318 40.187 45.3474C38.5285 46.1862 36.7396 46.7729 34.8743 47.0732C33.9072 47.2291 32.9389 47.3051 31.9793 47.3051H31.9781ZM14.4102 25.1306L29.291 26.9287L30.2381 26.5029L30.1579 26.0632L14.4453 24.9254C14.4327 24.9938 14.4215 25.0622 14.4089 25.1306H14.4102ZM14.5267 24.5097L30.1491 26.0113L30.1078 25.7832L21.1823 13.9091C17.6472 16.6283 15.3685 20.4094 14.5267 24.5097ZM23.8744 12.1896C23.1841 12.5495 22.5114 12.9562 21.8613 13.4111L30.0364 25.3866L27.3932 10.8617C26.1618 11.1861 24.9842 11.6333 23.8756 12.1896H23.8744Z" fill="#FF6D6D"/>
</g>
<g opacity="0.55">
<path d="M31.4353 46.9275C25.6428 46.9275 19.9456 44.1538 16.3879 38.9789C12.0347 32.6471 12.13 24.5275 16.0008 18.4124C16.3653 17.7091 16.78 17.0198 17.2435 16.352C20.7172 11.347 26.0725 8.3591 31.9352 8.1551C37.6462 7.95489 43.2045 10.5145 46.8072 14.9988C49.0959 17.8485 50.4651 21.2355 50.8773 25.0672C51.2744 28.7634 50.7132 32.2518 49.2087 35.436C47.8082 38.4011 45.6873 40.8707 43.1193 42.6712C42.7247 42.9893 42.3088 43.3035 41.8716 43.6102C38.686 45.8504 35.0431 46.9262 31.4353 46.9262V46.9275ZM47.2106 37.6357C47.2106 37.6357 47.2044 37.6446 47.2018 37.6497C47.2044 37.6459 47.2081 37.6408 47.2106 37.6357Z" fill="#FF6D6D"/>
</g>
<path d="M10.6856 38.25C13.6364 38.25 16.0285 35.9996 16.0285 33.2236C16.0285 30.4476 13.6364 28.1971 10.6856 28.1971C7.73485 28.1971 5.34277 30.4476 5.34277 33.2236C5.34277 35.9996 7.73485 38.25 10.6856 38.25Z" fill="#FF5555" fill-opacity="0.66"/>
<path d="M38.6143 38.9856C41.5651 38.9856 43.9572 36.7352 43.9572 33.9592C43.9572 31.1832 41.5651 28.9327 38.6143 28.9327C35.6636 28.9327 33.2715 31.1832 33.2715 33.9592C33.2715 36.7352 35.6636 38.9856 38.6143 38.9856Z" fill="#FF5555" fill-opacity="0.66"/>
</svg>
