<svg width="115" height="110" viewBox="0 0 115 110" fill="none" xmlns="http://www.w3.org/2000/svg">
<g clip-path="url(#clip0_307_9537)">
<g opacity="0.55">
<path d="M66.199 89.2595C53.3402 89.3715 40.6167 83.5555 32.4222 72.4744L28.1313 66.6751C14.5876 48.3622 18.5554 22.6072 36.9924 9.15142C55.4322 -4.30724 81.3563 -0.36881 94.9001 17.944L99.1909 23.7434C112.735 42.0562 108.767 67.8112 90.3299 81.267C83.0463 86.5815 74.594 89.1836 66.199 89.2567L66.199 89.2595Z" fill="#FFEA4B"/>
</g>
<g opacity="0.55">
<path d="M67.7182 98.3575C66.9275 98.3644 66.1337 98.3488 65.3312 98.3107C42.479 97.2203 24.8452 77.9379 25.9456 55.2375L26.1283 51.4771C27.2259 28.7767 46.6422 11.2579 69.4945 12.3483C92.3467 13.4388 109.981 32.7212 108.88 55.4216L108.697 59.182C107.638 81.0853 89.5191 98.1676 67.7182 98.3575Z" fill="#FFEA4B"/>
</g>
<g opacity="0.55">
<path d="M56.8714 88.0118C56.3443 88.0164 55.7179 88.0191 54.91 88.0176L54.8732 88.018C50.3381 88.0237 45.8618 87.2856 41.4896 85.8117C39.6853 85.3009 37.84 84.6469 35.9876 83.8183C35.6604 83.6719 35.3331 83.5199 35.0114 83.3651C19.5528 77.2294 9.71411 61.897 10.859 45.2778C11.2716 39.2827 13.0819 33.6442 15.9838 28.6973C16.6917 26.9848 17.4877 25.3111 18.3304 23.7805C18.3918 23.6673 18.456 23.5542 18.5202 23.441C20.7448 19.4939 25.8025 12.1208 34.6672 7.0769C34.6954 7.05977 34.7264 7.0426 34.7546 7.02828C36.2974 6.15608 37.6722 5.5106 39.3918 4.75231C47.5887 1.13889 56.3793 0.61182 64.4414 2.66736C68.6708 3.37101 72.9572 4.74992 77.2322 6.78213C77.5168 6.91762 77.8015 7.05873 78.0862 7.19985C78.2228 7.26905 78.4249 7.36865 78.6555 7.47926C81.0825 8.20988 84.4609 9.4897 88.1063 11.7921C88.3371 11.9393 88.568 12.0865 88.7961 12.2366C97.5483 18.0308 103.607 27.2723 105.414 37.5926C107.246 48.0393 104.636 58.9359 98.254 67.4861C98.0131 67.8064 97.7692 68.1266 97.5197 68.4385C93.7374 73.1876 88.7005 77.0832 88.4866 77.2483C88.419 77.2996 88.3542 77.3509 88.2866 77.4021C83.8264 80.7887 79.1399 82.93 77.3325 83.6947C77.3099 83.7033 77.2873 83.7148 77.2647 83.7234C71.399 86.1875 64.8278 87.6947 58.7616 87.9672C58.6766 87.9708 58.5888 87.9743 58.5038 87.9779C58.0079 87.9963 57.5148 88.0062 56.8743 88.0118L56.8714 88.0118Z" fill="#FFEA4B"/>
</g>
<g opacity="0.55">
<path d="M57.0627 88.1341C55.0164 88.1519 52.9716 88.0205 50.9567 87.734C50.6871 87.6969 50.4174 87.6542 50.1506 87.6115C45.0357 86.7747 35.2343 84.1881 27.0675 76.2883C26.8703 76.0986 26.6758 75.9032 26.4814 75.7106C23.7219 72.9219 18.7155 66.9739 16.2092 58.4476C16.1742 58.3269 16.1391 58.2033 16.104 58.0797C13.3726 48.432 14.8691 38.3335 17.1815 32.0993C17.2562 31.8931 17.3367 31.6897 17.4143 31.4863C22.4244 18.6655 32.9555 11.9684 36.0639 10.221C36.2444 10.1181 36.4249 10.018 36.6083 9.92064C45.3567 5.18745 54.3005 4.67031 58.8536 4.78832C58.9387 4.79039 59.0266 4.79244 59.1116 4.79452C59.7921 4.81675 60.4613 4.8447 61.1135 4.88407C62.0294 4.92959 62.9853 5.0001 63.9527 5.10711C65.3514 5.24978 66.6681 5.43259 67.8889 5.65846C67.9996 5.68002 68.1132 5.69874 68.2239 5.7203C72.3464 6.51499 82.8183 9.28441 90.9737 17.8262C91.154 18.0161 91.3342 18.2088 91.5116 18.4016C97.6928 25.1502 101.48 34.2622 101.899 43.4036C101.917 43.7864 101.929 44.1692 101.935 44.5521C102.045 51.6408 100.153 58.9581 96.6099 65.1551C96.4843 65.3758 96.3558 65.5965 96.2245 65.8144C90.4944 75.3867 81.456 80.6574 77.1573 82.7446C76.1674 83.3163 75.1544 83.8432 74.1127 84.3309C73.8333 84.46 73.5538 84.5892 73.2714 84.7127C68.2396 86.9189 62.649 88.0854 57.0655 88.134L57.0627 88.1341Z" fill="#FFEA4B"/>
</g>
<g opacity="0.55">
<path d="M67.0974 95.6544C61.6274 95.702 52.2558 95.6035 51.1642 95.5623C51.1387 95.5625 51.116 95.5627 51.0905 95.5601C45.7203 95.3507 37.8979 94.4559 31.1423 91.3923C30.9658 91.3121 30.7894 91.232 30.6158 91.1491C26.338 89.1281 18.3402 84.3663 12.8604 75.1563C12.6849 74.8622 12.5151 74.5681 12.3482 74.2711C6.84006 64.4195 5.69779 51.7311 9.37263 41.1547C9.47497 40.8638 9.58014 40.5729 9.68815 40.282C11.7076 34.8979 14.7731 30.1945 20.211 24.1696C20.3763 23.957 20.6454 23.6027 20.9422 23.189C21.1492 22.8691 21.4344 22.4189 21.6664 22.0509C25.5998 14.4736 31.9217 8.41291 39.7951 4.75726C46.0791 1.83344 53.0752 0.618102 60.0222 1.23896C60.4448 1.27751 60.8647 1.32172 61.2846 1.37156C68.7756 2.28894 75.4959 5.20929 81.7304 10.2681C81.9441 10.3929 82.1976 10.5399 82.4939 10.7063C82.7787 10.8671 83.0636 11.0336 83.3429 11.2029C86.6937 13.2206 89.9583 15.7375 92.6028 18.3358C102.247 25.3414 108.018 36.393 108.288 48.188C108.403 48.7529 108.507 49.3151 108.597 49.8774C110.418 61.0761 107.385 72.4268 100.275 81.0171C99.9745 81.3801 99.6658 81.7404 99.3514 82.0923C92.2524 90.049 82.0788 94.8312 70.7049 95.5638C70.6142 95.5702 70.5236 95.5739 70.4329 95.5803C69.7643 95.6199 68.5684 95.6416 67.0917 95.6544L67.0974 95.6544Z" fill="#FFEA4B"/>
</g>
<g opacity="0.55">
<path d="M65.7382 101.069C63.2979 101.091 60.2816 101.035 57.6996 100.737C57.5833 100.724 57.4698 100.711 57.3534 100.695C56.5277 100.592 55.4101 100.498 54.111 100.391C51.4248 100.164 48.0834 99.8829 44.1722 99.2722C44.053 99.2535 43.931 99.2349 43.8118 99.2134C42.5713 99.0074 41.4158 98.795 40.3567 98.5818C39.9737 98.5373 39.5168 98.4765 39.0088 98.3993C38.8499 98.3754 38.6909 98.3486 38.5291 98.3218C33.1075 97.4202 27.3766 95.1895 22.8098 92.1997C22.4791 91.983 22.1541 91.7634 21.8318 91.5381C17.7167 88.6598 14.2271 85.0356 11.4838 80.8558C7.00097 74.4951 4.53937 66.8609 4.53056 59.0168C4.26457 54.1875 4.67322 48.3867 6.79034 42.5062C6.85679 42.3254 6.92324 42.1446 6.98969 41.9638C10.5303 32.574 16.6583 27.0386 20.9828 23.6842C24.3387 21.0759 28.1494 18.9338 33.261 16.7804C34.0383 15.8867 34.867 15.0208 35.7412 14.1882C50.4293 0.196278 73.5655 0.0482307 88.4334 13.8502C88.4591 13.8754 91.1223 16.3496 92.1515 17.3599C92.1744 17.3822 92.1973 17.4045 92.2201 17.4268C95.0162 20.1815 100.202 25.8688 103.521 33.0225C103.579 33.1459 103.634 33.2693 103.688 33.3927C104.885 36.0458 105.834 38.9123 106.506 41.8543C107.532 45.4634 107.984 48.8157 108.155 51.5509C108.423 52.9902 108.626 54.5229 108.736 56.1437C108.743 56.245 108.75 56.3491 108.756 56.4504C108.863 58.2656 108.906 60.6303 108.907 60.7316C108.908 60.8358 108.909 60.9428 108.91 61.047C109.023 74.1075 102.726 86.2637 92.0643 93.5673C91.7487 93.7841 91.4302 93.9952 91.1061 94.2008C88.2507 96.0332 80.5136 100.358 70.3486 100.936C70.2042 100.946 68.2805 101.053 65.7325 101.075L65.7382 101.069Z" fill="#FFEA4B"/>
</g>
<g opacity="0.55">
<path d="M65.3821 107.748C59.0193 107.804 52.6461 106.347 46.9329 103.531C46.4831 103.309 46.0389 103.079 45.5975 102.838C41.2089 100.458 35.0258 96.097 30.4899 88.8442C30.3807 88.6706 30.2714 88.4941 30.165 88.3177C28.8651 86.161 27.8514 84.0018 27.0623 81.9252C26.357 80.6784 25.7195 79.4028 25.1583 78.1069C25.1092 77.9947 25.0628 77.8825 25.0137 77.7703C24.3625 76.2246 23.8418 74.7031 23.4266 73.2426C23.2285 72.6221 23.0501 71.9957 22.8831 71.3665C22.8186 71.1221 22.7569 70.8749 22.6981 70.6276C22.2128 68.6131 21.8888 66.5521 21.7261 64.4699C20.4054 57.3299 20.8788 49.8532 23.2951 43.1732C23.32 43.1055 23.3449 43.0405 23.367 42.9727C26.4211 34.6711 31.6022 29.1074 35.4092 25.8983C47.4635 15.7444 63.9981 14.2743 77.3008 20.8538C80.8993 22.0135 85.7073 24.0579 90.4007 27.5844C91.8348 28.5489 93.216 29.6181 94.5329 30.7892C94.7614 30.9927 94.9871 31.1963 95.21 31.4055C98.6278 34.5911 101.832 38.9218 104.181 43.4147C107.845 49.1913 109.988 56.0202 110.052 63.3486C110.152 74.8691 105.089 85.2408 97.0103 92.2938C94.5681 95.3475 91.3951 98.4666 87.3281 101.118C87.1365 101.243 86.9476 101.363 86.7531 101.486C80.7542 105.246 73.557 107.463 66.4845 107.724C66.1927 107.735 65.9008 107.744 65.6089 107.746C65.5324 107.747 65.453 107.748 65.3765 107.748L65.3821 107.748Z" fill="#FFEA4B"/>
</g>
<g opacity="0.55">
<path d="M47.7878 106.888C38.2676 106.971 28.9676 103.696 21.6096 97.5373C21.3869 97.3505 21.1642 97.161 20.9442 96.9687C16.16 92.7757 12.6496 87.4088 10.2804 82.2431C9.322 80.9056 8.44251 79.5111 7.65609 78.0623C7.49192 77.7625 7.33338 77.4598 7.17769 77.157C2.91269 68.7925 2.43507 60.4935 2.78406 55.0028C2.79163 54.8958 2.7992 54.7887 2.80677 54.6817C3.22905 48.8188 4.98423 40.4355 10.7723 32.6366C13.255 28.7098 16.6954 24.7352 21.4594 21.4022C21.7073 21.2283 21.9581 21.0572 22.2089 20.8917C29.2063 16.2385 37.7711 13.858 46.3284 14.1917C46.5892 14.2007 46.8529 14.2153 47.1138 14.2299C49.9866 14.3991 55.6982 15.0758 61.6618 17.6733C61.8212 17.7423 61.9805 17.8141 62.1399 17.886C66.6502 19.9246 71.0421 23.0116 74.625 26.6097C83.1247 30.745 89.9419 37.9413 93.4902 47.0076C94.1482 48.6856 94.6818 50.3956 95.0965 52.1208C95.2618 52.5501 95.4215 52.9852 95.5727 53.4231C97.9278 60.2163 98.2354 67.216 96.8241 73.7632C94.4829 86.7832 85.5447 97.3801 73.7051 102.239C68.5324 104.86 62.7233 106.335 56.6694 106.388C55.9013 106.395 55.1302 106.379 54.3561 106.338C53.9625 106.389 53.5973 106.435 53.2575 106.474L53.1555 106.486C51.3664 106.741 49.5734 106.875 47.7878 106.891L47.7878 106.888ZM53.9594 106.358C53.832 106.379 53.7047 106.4 53.5773 106.418C53.5065 106.43 53.4386 106.439 53.3706 106.448C53.6056 106.415 53.8037 106.382 53.9622 106.355L53.9594 106.358Z" fill="#FFEA4B"/>
</g>
<g opacity="0.55">
<path d="M59.3755 98.1993C55.8922 98.2297 52.3992 97.7899 49.0069 96.879C48.0724 96.9801 47.1547 97.0472 46.2565 97.0832C46.1261 97.0871 45.9958 97.0939 45.8683 97.0978C40.7647 97.2465 35.2962 96.4973 30.4673 94.9767C30.2598 94.9109 30.0495 94.8424 29.8419 94.7738C24.0712 92.8475 18.4862 89.4527 14.1182 85.2167C13.9953 85.0995 13.8753 84.9795 13.7552 84.8595C6.8329 77.9624 2.68849 68.8 2.0849 59.0549C2.06187 58.6891 2.04451 58.3232 2.03284 57.9601C1.91699 54.4219 2.287 50.6937 3.08668 47.1559C3.90444 42.4412 5.45064 38.0495 7.68923 34.074C7.78971 33.8958 7.89022 33.7203 7.99355 33.5421C13.4731 24.1747 21.989 19.1141 25.395 17.3726C25.5418 17.2981 25.6885 17.2236 25.8353 17.152C27.9012 16.1288 30.0792 15.2849 32.3636 14.6202C33.8211 13.7121 35.347 12.8485 36.8714 12.1285C36.9645 12.0855 37.0548 12.0425 37.148 11.9994C43.4632 9.07252 51.1232 7.60363 58.1728 7.97019C58.4365 7.98479 58.7003 7.99938 58.964 8.01961C59.5284 8.05974 60.0901 8.11398 60.6491 8.17668C64.9295 8.55329 69.0205 9.62699 72.7963 11.2919C72.8162 11.2974 72.8361 11.3028 72.8559 11.3083C84.1325 14.3635 93.4557 22.2588 98.4328 32.9738C98.5541 33.2346 98.6726 33.4955 98.7854 33.7563C100.674 38.0731 101.712 42.4366 102.257 48.3446C102.78 53.9909 102.604 58.2665 101.679 62.6359C101.66 62.729 101.641 62.8193 101.619 62.9096C100.324 68.7998 97.9499 72.8778 96.8077 74.8389C95.9308 76.3473 95.4109 77.1824 94.7784 78.1086C90.9468 83.7112 86.0914 87.6109 83.5308 89.4408C83.5026 89.4607 83.4745 89.4807 83.4435 89.5035C83.4266 89.5149 83.4097 89.5263 83.3928 89.5405C76.4526 95.2237 67.932 98.1304 59.3727 98.205L59.3755 98.1993ZM87.0028 86.1698C87.0028 86.1698 86.9916 86.1811 86.986 86.1868C86.9916 86.1811 86.9972 86.1755 87.0028 86.1698Z" fill="#FFEA4B"/>
</g>
<g opacity="0.55">
<path d="M63.5862 104.253C58.683 104.296 53.8709 103.405 49.3859 101.676C45.2925 102.278 41.0999 102.222 36.9807 101.483C34.6716 101.267 32.3635 100.839 30.0818 100.192C19.9463 97.3209 11.1209 90.28 5.8689 80.871C5.7825 80.714 5.6961 80.5571 5.6097 80.4002C2.71436 75.0364 1.6789 70.0534 1.10211 66.3137C0.879866 64.8796 0.720395 63.4929 0.621204 62.193C0.316391 58.1131 0.62432 54.4163 1.30704 51.119C1.6007 48.7119 2.13095 46.1338 3.04537 43.4032C3.10063 43.2394 3.15589 43.0756 3.21399 42.9118C6.9726 32.1911 14.522 25.5002 18.6848 22.4682C27.9288 15.7344 39.551 13.5637 50.3671 16.164C55.9757 16.0701 61.3739 17.2056 66.2875 19.3421C69.668 18.5693 73.2025 18.2457 76.8095 18.4283C81.9818 18.6873 86.8937 19.965 91.3422 22.0661C92.3609 22.5162 93.3658 23.0143 94.3569 23.5603C108.606 31.4099 116.299 47.3523 113.538 63.3042L113.516 63.4311C113.176 65.3965 112.925 66.7642 112.61 68.0987C111.32 74.2254 108.771 78.9469 106.485 82.3933C105.786 83.4947 105.052 84.5457 104.296 85.5265C104.248 85.5888 104.198 85.6512 104.15 85.7164C103.544 86.4931 102.93 87.2193 102.245 87.9883C100.912 89.5372 99.533 90.9626 98.127 92.2503C94.6344 95.4398 90.7044 97.8673 86.5438 99.5366C82.4731 101.442 78.1324 102.603 73.7283 103.007C72.4698 103.325 71.1965 103.581 69.9085 103.775C69.7359 103.802 69.5632 103.826 69.3933 103.85C67.6352 104.091 65.8195 104.222 63.8356 104.253C63.7535 104.254 63.6684 104.255 63.5862 104.256L63.5862 104.253Z" fill="#FFEA4B"/>
</g>
<g opacity="0.55">
<path d="M57.784 92.1597C53.1982 92.1997 48.5429 91.4181 44.0243 89.7343C36.3159 89.2327 28.9701 86.4248 22.9401 81.7415C15.2428 77.3064 9.10977 70.2251 5.99716 61.3944C0.202163 44.9653 6.37608 26.8016 20.8245 17.1844C23.9033 13.6775 26.8319 11.1461 28.3236 9.93652L29.1821 9.24203C33.6207 5.65291 38.6334 3.20755 43.8571 1.88095C45.1918 1.52582 46.5923 1.22643 48.0613 0.994019C52.0439 0.365237 56.0235 0.372803 59.8749 0.955867C62.0987 1.13359 64.3184 1.50562 66.5088 2.07781C76.9746 4.80504 85.794 11.801 90.7863 21.3361C93.8128 27.1155 95.2366 33.3959 95.1179 39.6194C96.0188 42.4975 96.5833 45.4828 96.7912 48.5274C96.8205 48.958 96.8412 49.3858 96.8563 49.8164C97.165 58.8912 94.2079 65.6406 92.6182 69.2668C86.3873 83.4948 72.4567 92.0319 57.784 92.1597Z" fill="#FFEA4B"/>
</g>
<g opacity="0.55">
<path d="M60.0716 108.518C58.4532 108.532 56.8716 108.529 55.3037 108.472C50.7712 108.771 46.181 108.307 41.7624 107.044C41.5436 106.982 41.3277 106.919 41.1117 106.853C39.0598 106.229 37.5746 105.592 36.6898 105.211C36.6358 105.189 36.5789 105.164 36.5191 105.136C35.8109 104.861 35.0799 104.569 34.3374 104.251C31.6084 103.343 28.9532 102.119 26.4199 100.57C23.4107 98.7322 20.6683 96.6078 18.0301 94.0799C17.9301 93.985 17.83 93.8874 17.73 93.7897C11.8379 88.0184 9.46517 84.7279 7.54751 81.2927C-1.56844 64.9798 2.62582 44.7245 16.9445 33.2332C17.2629 32.6899 17.5955 32.1492 17.9451 31.6112C19.7496 28.2365 21.5929 25.7399 22.5882 24.4895C22.6471 24.4158 22.706 24.3421 22.7649 24.2684C26.4888 19.6493 30.8026 16.3767 32.4844 15.1851C32.5633 15.1281 32.645 15.0711 32.7239 15.0169C35.8567 12.83 39.7276 10.7691 43.3463 9.36356C43.4085 9.3405 43.4706 9.31462 43.5328 9.29155C44.9679 8.74127 50.1048 6.90018 55.8788 6.27268C55.9892 6.26046 56.0968 6.24826 56.2073 6.23885C59.6339 5.89365 63.7448 5.99862 65.6707 6.15078C65.7558 6.15849 65.8381 6.1634 65.9232 6.17111C71.3552 6.63904 78.9793 8.2113 86.2051 12.8588C91.0145 15.3848 99.9887 21.2869 105.083 32.0741C105.135 32.1834 105.187 32.2928 105.236 32.4022C107.703 37.7556 108.561 42.8303 108.847 46.1446C108.867 46.3781 108.886 46.6116 108.902 46.8452C108.915 47.0478 108.928 47.2588 108.938 47.4727C111.89 54.7732 112.577 62.9971 110.513 71.0536C109.734 74.0928 108.633 76.8392 107.351 79.2999C107.112 79.8707 106.828 80.5123 106.491 81.2079C106.441 81.3125 106.388 81.4171 106.338 81.5218C102.035 90.2284 95.2991 95.6339 92.6033 97.5523C92.5441 97.595 92.485 97.635 92.4258 97.6777C88.279 100.597 82.0293 103.56 80.7022 104.137C80.6485 104.16 80.5949 104.183 80.5412 104.206C79.1575 104.801 77.7251 105.332 76.258 105.792C73.6165 106.795 70.4243 107.699 66.7435 108.156C66.6444 108.168 66.5482 108.18 66.4491 108.192C64.7246 108.393 63.3362 108.439 61.993 108.484L61.8683 108.485C61.5878 108.499 61.3073 108.504 61.0295 108.507C60.7093 108.51 60.3918 108.512 60.0744 108.515L60.0716 108.518ZM36.7182 105.213C36.7353 105.222 36.7523 105.227 36.7694 105.232C36.7523 105.227 36.7352 105.219 36.7182 105.213ZM36.6073 105.169C36.6073 105.169 36.6272 105.177 36.6385 105.18C36.6158 105.172 36.5959 105.164 36.5731 105.155C36.5845 105.161 36.5959 105.164 36.6073 105.169ZM36.3684 105.076C36.3911 105.084 36.4139 105.095 36.4395 105.103C36.4167 105.095 36.3939 105.084 36.3712 105.075L36.3684 105.076Z" fill="#FFEA4B"/>
</g>
<g opacity="0.55">
<path d="M53.0186 105.482C48.5859 105.521 43.6709 104.868 39.4741 103.683C39.4372 103.672 39.3974 103.661 39.3605 103.65C38.4057 103.377 37.371 103.037 36.336 102.663C33.5975 101.966 30.7206 100.989 27.931 99.6305C27.8655 99.6001 27.8029 99.5668 27.7374 99.5364C23.7037 97.5443 19.3575 94.5019 16.1106 91.4021C15.9791 91.2765 15.8476 91.1482 15.7189 91.0226C10.1154 85.5134 6.25309 78.4687 4.55237 70.6534C4.51105 70.4651 4.47259 70.2796 4.4341 70.0913C2.92927 62.6374 3.9417 54.2382 3.98679 53.883C3.99465 53.8097 4.00535 53.7364 4.01605 53.6631C4.32415 51.2869 4.84776 48.9229 5.56463 46.6163C5.75252 45.4096 5.94766 44.383 6.12509 43.6016C6.13872 43.5395 6.15236 43.4774 6.16882 43.4154C7.48015 37.7671 10.1728 31.2481 13.2031 26.3986C13.2534 26.3193 13.3037 26.2401 13.354 26.1608C15.6832 22.4943 19.14 18.4463 22.3804 15.5969C22.4423 15.5429 22.5042 15.4888 22.5661 15.4348C27.3063 11.3193 33.5467 7.95104 39.685 6.19695C39.8348 6.15341 39.9847 6.11269 40.1317 6.07199C47.9985 3.92556 55.2572 4.55214 58.0127 4.92232C58.1518 4.94082 58.2936 4.95929 58.4327 4.98061C64.5089 5.86245 69.6583 8.04472 72.5478 9.48366C72.8318 9.54594 73.1129 9.61107 73.3913 9.67903L73.485 9.70074C75.9392 10.2988 82.3015 12.1298 88.3628 16.1793C88.4226 16.221 88.4854 16.2627 88.5452 16.3016C91.0629 18.0028 97.3996 22.7566 101.863 30.0974C101.975 30.2823 102.087 30.4699 102.196 30.6576C106.256 37.5993 108.304 46.2169 107.816 54.299C107.806 54.454 107.796 54.6061 107.786 54.7611C107.525 58.3588 106.717 63.8225 104.354 69.4348C104.304 69.5563 104.251 69.6779 104.198 69.7994C102.459 73.8127 99.4764 78.628 96.3868 82.532C94.6499 85.2022 92.543 87.6983 90.0739 89.9469C89.9502 90.0606 89.7252 90.2625 89.4974 90.4672L89.2049 90.7316C87.0732 92.6619 85.1201 94.2641 83.399 95.4954C83.368 95.5182 83.3398 95.5382 83.3089 95.561C79.6411 98.1692 75.9549 99.9526 73.5065 100.993C73.45 101.016 73.3907 101.042 73.3342 101.065C70.9817 102.051 62.6029 105.281 53.5514 105.478C53.4919 105.478 53.4324 105.479 53.37 105.479C53.2538 105.48 53.1405 105.481 53.0243 105.482L53.0186 105.482Z" fill="#FFEA4B"/>
</g>
<g opacity="0.55">
<path d="M71.043 101.904C68.6027 101.926 65.5864 101.87 63.0044 101.572C62.8881 101.559 62.7746 101.546 62.6583 101.53C61.8325 101.427 60.7149 101.333 59.4158 101.226C56.7296 100.999 53.3882 100.718 49.477 100.107C49.3578 100.089 49.2358 100.07 49.1166 100.048C47.8761 99.8424 46.7207 99.6301 45.6616 99.4169C45.2785 99.3723 44.8216 99.3116 44.3136 99.2343C44.1547 99.2104 43.9957 99.1836 43.8339 99.1569C38.4123 98.2552 32.6814 96.0245 28.1146 93.0347C27.7839 92.818 27.4589 92.5984 27.1366 92.3732C23.0215 89.4949 19.5347 85.8734 16.7914 81.6937C12.3058 75.3301 9.84418 67.696 9.83818 59.849C9.57219 55.0197 9.98083 49.2189 12.098 43.3384C12.1644 43.1576 12.2309 42.9768 12.2973 42.796C15.8379 33.4062 21.966 27.8709 26.2904 24.5164C29.6464 21.9081 33.457 19.766 38.5686 17.6126C39.346 16.719 40.1746 15.853 41.0488 15.0204C55.7369 1.02849 78.8731 0.880446 93.741 14.6825C93.7667 14.7076 96.43 17.1818 97.4592 18.1921C97.482 18.2144 97.5049 18.2367 97.5278 18.2591C100.324 21.0137 105.509 26.701 108.828 33.8547C108.886 33.9781 108.941 34.1015 108.996 34.2249C110.193 36.878 111.142 39.7445 111.814 42.6865C112.84 46.2956 113.291 49.6479 113.463 52.3831C113.73 53.8224 113.934 55.3551 114.044 56.9759C114.051 57.0772 114.057 57.1785 114.064 57.2798C114.17 59.095 114.213 61.4597 114.214 61.561C114.215 61.6652 114.216 61.7722 114.217 61.8763C114.331 74.9369 108.034 87.0931 97.3719 94.3967C97.0563 94.6135 96.7378 94.8246 96.4137 95.0301C93.5583 96.8626 85.8211 101.187 75.6562 101.766C75.5117 101.775 73.5881 101.882 71.0401 101.904L71.043 101.904Z" fill="#FFEA4B"/>
</g>
<g opacity="0.55">
<path d="M68.108 89.0486C55.2491 89.1606 42.5257 83.3446 34.3311 72.2635L31.3511 68.235C17.8073 49.9221 21.7751 24.1672 40.2121 10.7114C58.652 -2.74447 84.5789 1.19111 98.1227 19.5068L101.103 23.5353C114.646 41.8481 110.679 67.6031 92.2417 81.0589C84.9581 86.3734 76.5058 88.9754 68.1108 89.0486L68.108 89.0486Z" fill="#FFEA4B"/>
</g>
<g opacity="0.55">
<path d="M69.164 95.3661C68.3733 95.373 67.5795 95.3574 66.7799 95.3193C43.9276 94.2316 26.2938 74.9464 27.3914 52.2489L27.5189 49.6377C28.6165 26.9373 48.03 9.41291 70.8823 10.5062C93.7345 11.5938 111.368 30.879 110.271 53.5766L110.143 56.1878C109.084 78.0938 90.9649 95.1762 69.164 95.3661Z" fill="#FFEA4B"/>
</g>
<g opacity="0.55">
<path d="M61.6271 87.2412C61.2303 87.2446 60.7711 87.2486 60.1957 87.2452L60.1192 87.2459C55.9299 87.2486 51.7092 86.5758 47.6248 85.2683C45.8432 84.7658 44.015 84.1201 42.1768 83.2942C41.9833 83.2086 41.7926 83.1202 41.6019 83.0317C26.392 76.8123 16.7387 61.6105 17.8707 45.1436C18.2632 39.4329 19.9226 34.0463 22.5851 29.2761C23.163 27.9421 23.7979 26.6414 24.4732 25.4163C24.5346 25.306 24.596 25.1928 24.6602 25.0825C27.2701 20.4563 32.0945 13.9665 40.2569 9.31728C40.2822 9.30299 40.3076 9.28869 40.333 9.27439C41.9915 8.33643 43.4088 7.69339 44.606 7.16489C52.6476 3.61759 61.262 3.03856 69.1982 4.95723C73.0505 5.64727 76.905 6.90042 80.7019 8.70874C80.8214 8.76683 80.9409 8.8221 81.0605 8.88018C83.3488 9.64298 86.3158 10.8673 89.4509 12.8446C89.7018 13.0029 89.9497 13.1641 90.1949 13.3253C98.9215 19.1113 104.957 28.3276 106.759 38.6114C108.575 48.9851 105.985 59.7998 99.656 68.282C99.415 68.605 99.1684 68.9253 98.9161 69.2401C95.5515 73.4618 91.4387 76.713 90.6503 77.3196C90.5771 77.3766 90.5068 77.4307 90.4335 77.4848C86.4294 80.5239 82.3674 82.4401 80.303 83.314C80.2776 83.3255 80.255 83.3342 80.2296 83.3457C74.909 85.5797 68.9119 86.9497 63.3444 87.1981C63.2594 87.2016 63.1744 87.2052 63.0894 87.2087C62.619 87.2269 62.1826 87.2363 61.6271 87.2412ZM99.6224 34.819C99.6224 34.819 99.6254 34.8359 99.6283 34.8443C99.6282 34.8358 99.6253 34.8274 99.6224 34.819Z" fill="#FFEA4B"/>
</g>
<g opacity="0.55">
<path d="M61.713 87.3221C59.7121 87.3395 57.7183 87.2105 55.7488 86.932C55.4764 86.8922 55.2011 86.8523 54.9286 86.8068C50.0208 86.0021 40.5972 83.4995 32.6333 75.795C32.4418 75.608 32.2502 75.4211 32.0615 75.2312C29.3735 72.5179 24.4959 66.718 22.0336 58.3547C21.9956 58.2227 21.9577 58.0935 21.9197 57.9615C19.6678 49.9989 20.0562 40.5774 22.9586 32.7557C23.0362 32.5495 23.1137 32.3433 23.1941 32.1371C26.4909 23.7094 33.2545 15.9809 41.2905 11.465C41.4682 11.365 41.6459 11.2677 41.8237 11.1704C49.8808 6.80644 57.8872 6.04969 63.1888 6.18652C63.271 6.1858 63.3532 6.19072 63.4383 6.19279C64.062 6.2127 64.6518 6.24135 65.2048 6.27313C65.8939 6.30937 66.6086 6.36227 67.3377 6.43757C69.3973 6.63361 70.7344 6.881 71.3079 6.98581C71.4101 7.00463 71.5095 7.02347 71.6117 7.04229C76.5462 7.99039 85.9781 10.7886 93.6873 18.8641C93.8732 19.0568 94.0563 19.2523 94.2366 19.4506C100.423 26.2076 104.06 34.9662 104.477 44.1104C104.494 44.4932 104.506 44.876 104.512 45.2589C104.618 52.2209 102.762 59.4027 99.286 65.4781C99.1576 65.7044 99.0263 65.928 98.8922 66.1516C93.5532 75.0588 85.6031 79.9962 81.0536 82.2461C80.2074 82.7236 79.3439 83.1648 78.4631 83.5779C78.1893 83.707 77.9126 83.8304 77.6359 83.9539C72.6889 86.1256 67.1916 87.2744 61.713 87.3221Z" fill="#FFEA4B"/>
</g>
<g opacity="0.55">
<path d="M68.5183 92.5505C64.2358 92.5878 57.798 92.5031 57.1005 92.4754C57.0807 92.4755 57.0608 92.4757 57.041 92.4759C50.0829 92.2043 43.9376 90.881 38.7756 88.5383C38.5991 88.4582 38.4227 88.3781 38.2491 88.2951C34.0709 86.3212 26.2554 81.6591 20.8648 72.6004C20.6922 72.3091 20.5224 72.0178 20.3583 71.7236C14.879 61.928 13.7954 49.791 17.4649 39.2569C17.5645 38.9716 17.6669 38.6892 17.7722 38.4067C19.6392 33.4266 22.3987 29.0609 26.9151 23.9816C30.8423 16.6691 37.0299 10.8179 44.6944 7.25984C50.9277 4.36461 57.8587 3.15829 64.7404 3.76845C65.1545 3.80426 65.5659 3.84854 65.9773 3.89846C73.0369 4.75766 79.5429 7.47152 85.3786 11.9791C85.578 12.0928 85.7746 12.2094 85.9712 12.3287C88.0399 13.5749 91.008 15.5875 93.9489 18.3634C102.92 25.2004 108.368 35.6128 108.899 46.7692C110.859 58.0229 108.006 69.3101 100.722 78.1216C100.416 78.4903 100.105 78.8534 99.785 79.2138C92.7927 87.0513 82.882 91.758 71.8764 92.4677C71.7857 92.4741 71.6922 92.4806 71.6016 92.4842C70.9188 92.5239 69.8192 92.5448 68.5212 92.5561L68.5183 92.5505ZM88.954 15.0451C88.954 15.0451 88.9654 15.0563 88.974 15.0618C88.9683 15.0563 88.9626 15.0507 88.954 15.0451Z" fill="#FFEA4B"/>
</g>
<g opacity="0.55">
<path d="M67.8 96.3097C65.7225 96.3278 63.1116 96.2745 60.7339 95.9996C60.6204 95.9865 60.5069 95.9734 60.3934 95.9575C60.0501 95.9154 59.2814 95.8517 58.6034 95.7929C56.6604 95.6296 53.9998 95.405 50.8691 94.917C50.7499 94.8984 50.6335 94.8797 50.5143 94.861C49.6883 94.7246 48.9019 94.5822 48.1552 94.4367C47.914 94.405 47.6558 94.3678 47.3805 94.328C47.2102 94.3013 47.0427 94.2746 46.8724 94.248C41.4792 93.3573 36.0044 91.2286 31.4491 88.2584C31.1041 88.0334 30.762 87.8026 30.4255 87.5662C26.3445 84.7102 22.895 81.1363 20.192 77.0237C15.8803 70.7825 13.4969 63.3448 13.4473 55.6981C13.2406 51.1584 13.6806 45.712 15.6981 40.0998C15.7645 39.9134 15.8337 39.7298 15.903 39.5462C19.7927 29.2326 26.9548 23.6432 29.3846 21.7638C31.9775 19.7505 34.769 18.0678 38.1876 16.4754C38.3703 16.2964 38.553 16.1175 38.7385 15.9413C53.4351 1.95212 76.5771 1.81247 91.4393 15.623C91.6422 15.8099 93.4311 17.4752 94.243 18.2734C94.263 18.2929 94.283 18.3124 94.303 18.332C96.8075 20.7963 101.467 25.9251 104.54 32.5544C104.595 32.675 104.653 32.7984 104.708 32.919C105.797 35.3337 106.67 37.9333 107.306 40.5998C108.154 43.6445 108.576 46.479 108.764 48.8678C108.976 50.1329 109.126 51.4043 109.214 52.6874C109.22 52.7915 109.227 52.8985 109.234 53.0026C109.32 54.4828 109.353 56.2676 109.357 56.4675C109.358 56.5717 109.359 56.673 109.36 56.7772C109.473 69.7026 103.214 81.7599 92.6173 89.0264C92.2933 89.2488 91.9664 89.4656 91.6338 89.6797C88.8715 91.4522 81.3824 95.6339 71.5433 96.1954C71.0674 96.2221 69.6423 96.2964 67.8001 96.3125L67.8 96.3097Z" fill="#FFEA4B"/>
</g>
<g opacity="0.55">
<path d="M67.5232 100.947C61.2766 101.001 55.0199 99.5747 49.4119 96.8108C48.9878 96.6033 48.5692 96.3846 48.1535 96.1629C43.8447 93.8382 37.7587 89.5496 33.2371 82.3219C33.1336 82.1539 33.0273 81.9859 32.9266 81.815C31.8222 79.9832 30.9276 78.1553 30.2063 76.3765C29.6704 75.3788 29.174 74.3582 28.7256 73.3176C28.6764 73.2025 28.6244 73.0847 28.578 72.9669C27.9384 71.4464 27.4265 69.953 27.0143 68.5178C26.8597 68.0123 26.7136 67.5068 26.5816 66.9983C26.5142 66.7455 26.4525 66.4927 26.3907 66.237C25.9614 64.4556 25.6649 62.6393 25.4931 60.8051C25.4542 60.5717 25.4153 60.3384 25.3793 60.105C24.3337 53.3116 24.9368 46.732 27.1732 40.5464C27.2009 40.4729 27.2257 40.3995 27.2534 40.326C30.2578 32.1769 35.3237 26.7325 39.0464 23.5973C50.8503 13.6624 66.9443 12.0468 80.0955 18.1604C83.49 19.3218 87.6021 21.1949 91.6646 24.2145C92.9792 25.1181 94.2492 26.1122 95.466 27.1912C95.7031 27.4031 95.9403 27.6179 96.1717 27.8355C99.3666 30.8175 102.292 34.6944 104.501 38.7916C108.032 44.4933 110.094 51.1962 110.157 58.381C110.254 69.5384 105.509 79.6173 97.8689 86.6496C95.5909 89.3555 92.7065 92.078 89.0904 94.4379C88.9044 94.5606 88.7156 94.6805 88.5267 94.7976C82.556 98.5437 75.6754 100.662 68.6284 100.926C68.3394 100.937 68.0476 100.945 67.7585 100.948C67.6819 100.948 67.6026 100.949 67.5232 100.95L67.5232 100.947ZM88.6305 81.6592C88.6305 81.6592 88.6305 81.6592 88.6277 81.662C88.6277 81.662 88.6305 81.662 88.6305 81.6592Z" fill="#FFEA4B"/>
</g>
<g opacity="0.55">
<path d="M55.3045 100.349C45.9175 100.431 36.7426 97.1999 29.4817 91.1251C29.2533 90.9329 29.0277 90.7406 28.8021 90.5426C24.4748 86.7483 21.251 82.0743 18.9943 77.4567C18.2908 76.4155 17.6352 75.34 17.0331 74.2331C16.8689 73.9304 16.7075 73.6277 16.5518 73.3222C12.4021 65.1791 11.9274 57.2066 12.2614 51.9527C12.269 51.8484 12.2738 51.7442 12.2813 51.6371C12.6833 46.0447 14.3625 38.0479 19.8918 30.4905C22.3084 26.7754 25.6261 23.0243 30.1703 19.8454C30.421 19.6686 30.6746 19.4975 30.9311 19.3263C37.8327 14.7387 46.2532 12.3932 54.6488 12.7198C54.904 12.7289 55.1621 12.7435 55.4173 12.7582C58.1908 12.9227 63.7123 13.5729 69.5194 16.0985C69.6958 16.1758 69.8722 16.2531 70.0486 16.3332C73.9102 18.0847 77.5852 20.5332 80.7652 23.4422C88.4325 27.6804 94.5518 34.4887 97.8479 42.9067C98.4045 44.3266 98.8706 45.7697 99.2517 47.2249C99.3185 47.4101 99.3854 47.5982 99.4522 47.7863C101.755 54.4251 102.104 61.2639 100.802 67.6835C98.5107 80.5989 89.725 91.1381 78.0533 96.077C72.9984 98.5565 67.353 99.9459 61.4777 99.9971C61.0865 100 60.6925 99.9983 60.2985 99.9905C58.6338 100.216 56.9625 100.335 55.3016 100.349L55.3045 100.349Z" fill="#FFEA4B"/>
</g>
<g opacity="0.55">
<path d="M63.35 94.313C60.598 94.3369 57.8406 94.0681 55.1316 93.5061C54.9588 93.516 54.786 93.5232 54.6131 93.5303C54.4884 93.5342 54.3609 93.541 54.2363 93.5449C49.4048 93.6939 44.2229 92.9761 39.6441 91.535C39.4309 91.4692 39.2206 91.4007 39.0102 91.3293C33.2907 89.4195 27.9792 86.194 23.6513 81.9999C23.5226 81.8743 23.394 81.7487 23.2682 81.6231C16.4517 74.8266 12.3709 65.8044 11.7771 56.2112C11.7541 55.8454 11.7367 55.4767 11.725 55.1108C11.617 51.8259 11.944 48.3683 12.6551 45.0679C13.4443 40.6518 14.946 36.3647 17.1428 32.4685C17.2377 32.2987 17.3354 32.1317 17.4332 31.9648C22.597 23.1211 30.2165 18.2992 34.2969 16.2139C34.4437 16.1394 34.5904 16.0649 34.74 15.9904C36.3205 15.208 37.9557 14.5321 39.6429 13.9655C40.599 13.411 41.5893 12.8815 42.5914 12.4082C42.6873 12.3623 42.7833 12.3192 42.8793 12.2733C49.0336 9.42382 56.1927 8.05221 63.0353 8.4065C63.2962 8.42112 63.5571 8.43574 63.8181 8.45599C64.3258 8.4938 64.8307 8.54008 65.3329 8.59483C69.2504 8.95489 73.0058 9.902 76.5047 11.3469C87.3174 14.5244 96.2164 22.1982 101.009 32.5094C101.13 32.7702 101.248 33.0338 101.364 33.2975C104.777 41.1035 105.872 51.9903 104.089 60.3878C104.07 60.4753 104.051 60.5627 104.031 60.6502C102.922 65.7054 100.703 70.6661 97.4366 75.3994C93.8846 80.5462 89.5223 84.1234 87.0859 85.8875C80.1982 91.4182 71.7932 94.245 63.3529 94.3186L63.35 94.313ZM90.9774 82.2862C90.9774 82.2862 90.9662 82.2976 90.9606 82.3061C90.9662 82.3004 90.9718 82.2947 90.9774 82.2862Z" fill="#FFEA4B"/>
</g>
<g opacity="0.55">
<path d="M66.2749 98.5194C62.4147 98.553 58.609 98.009 54.9772 96.9313C52.0254 97.1287 49.048 96.9829 46.1016 96.4961C43.9397 96.2644 41.7819 95.8496 39.648 95.2403C29.6602 92.3991 20.989 85.492 15.8522 76.2931C15.7658 76.139 15.6794 75.9821 15.5958 75.8252C12.7092 70.481 11.711 65.5483 11.2094 62.3063C10.4254 57.2254 10.4937 52.3764 11.4089 47.7846C11.7107 45.6703 12.2123 43.3825 13.0218 40.9625C13.077 40.7959 13.1351 40.6292 13.1931 40.4626C16.8467 30.0413 24.0893 23.6121 28.0804 20.7055C36.9104 14.2766 47.9081 12.0099 58.3031 14.0902C62.0623 14.1757 65.7186 14.8083 69.1835 15.9241C71.3976 15.6458 73.6587 15.5585 75.9528 15.6709C81.0627 15.9276 85.9205 17.1777 90.3232 19.2341C91.3021 19.6704 92.27 20.1519 93.2213 20.6758C107.47 28.5226 115.166 44.4622 112.408 60.414L112.394 60.4901C112.157 61.8606 111.933 63.1239 111.607 64.4867C110.162 71.0258 107.318 75.8004 105.563 78.3864C104.979 79.2784 104.371 80.1396 103.738 80.9588C103.693 81.0155 103.648 81.0722 103.603 81.1317C103.026 81.8745 102.454 82.5524 101.839 83.2419C100.632 84.6377 99.3764 85.9325 98.0829 87.1151C94.6606 90.2421 90.8153 92.635 86.7454 94.3007C83.0554 95.9828 79.1532 97.0557 75.189 97.5126C74.247 97.7291 73.2962 97.9092 72.3394 98.0527C72.1412 98.0825 71.9431 98.1124 71.7449 98.1395C70.0689 98.3653 68.3636 98.4899 66.53 98.52C66.445 98.5207 66.3571 98.5215 66.2721 98.5222L66.2749 98.5194Z" fill="#FFEA4B"/>
</g>
<g opacity="0.55">
<path d="M62.2388 90.1246C58.1972 90.1598 54.1019 89.5563 50.094 88.2595C43.2876 87.5079 36.8227 84.9542 31.3765 80.9049C24.0021 76.4473 18.1454 69.5298 15.1258 60.9629C9.51088 45.0305 15.1515 27.4656 28.677 17.6509C30.446 15.7406 32.3577 13.9361 34.3139 12.3535L34.8543 11.9152C39.2956 8.31483 44.3196 5.86374 49.5489 4.53147C50.861 4.18498 52.1965 3.90587 53.5551 3.69131C57.399 3.08344 61.2424 3.06967 64.9686 3.5947C67.0507 3.78491 69.1258 4.14694 71.1769 4.68093C81.6456 7.40814 90.465 14.4069 95.4545 23.9449C98.1784 29.1525 99.6048 34.7628 99.7756 40.37C100.368 42.6567 100.751 45.0016 100.917 47.3849C100.946 47.8239 100.97 48.2601 100.985 48.6992C101.286 57.6192 98.3377 64.3516 97.0787 67.226C90.8478 81.4568 76.9173 89.9967 62.2445 90.1245L62.2388 90.1246Z" fill="#FFEA4B"/>
</g>
<g opacity="0.55">
<path d="M63.8288 101.48C62.7064 101.49 61.584 101.488 60.4471 101.456C56.1915 101.659 51.896 101.181 47.7531 99.9956C47.5087 99.9273 47.2671 99.8534 47.0256 99.7795C45.0958 99.1853 43.6449 98.5701 42.9165 98.2554C42.5183 98.0984 42.1059 97.9359 41.6849 97.7594C39.1148 96.8695 36.6131 95.6947 34.2194 94.2317C31.4011 92.5078 28.8414 90.531 26.3947 88.1844C26.2975 88.0923 26.2003 87.9974 26.1031 87.9026C21.7005 83.5908 19.153 80.4145 17.0108 76.5786C8.28916 60.9521 11.7666 41.711 24.6607 30.0182C26.0843 27.4999 27.5072 25.5448 28.5109 24.2803C28.5698 24.2066 28.6287 24.1328 28.6847 24.062C32.1815 19.7265 36.1912 16.6789 37.7547 15.57C37.8363 15.5101 37.9209 15.4531 38.0026 15.3932C40.9523 13.3347 44.4479 11.4713 47.8463 10.1522C47.9056 10.1291 47.9677 10.106 48.0271 10.083C49.7306 9.43184 54.2661 7.85221 59.5331 7.27699C59.6464 7.26474 59.7568 7.25252 59.8701 7.24027C63.277 6.89806 66.9487 7.02938 68.5796 7.15877C68.6505 7.16378 68.7214 7.1688 68.7924 7.17662C73.8415 7.61129 80.9034 9.06737 87.7688 13.3436C92.8094 16.0533 100.801 21.6824 105.582 31.7994C105.64 31.92 105.695 32.0406 105.75 32.1612C108.009 37.0716 108.883 41.7153 109.212 44.9251C111.575 51.752 112.001 59.28 110.112 66.6648C109.38 69.5262 108.366 72.1169 107.187 74.4501C106.992 74.8966 106.773 75.3856 106.519 75.9115C106.469 76.0161 106.419 76.1179 106.369 76.2226C102.355 84.3439 96.348 89.4023 93.1253 91.6941C93.0774 91.7283 93.0267 91.7654 92.9789 91.7996C88.6263 94.8643 82.8267 97.4263 82.7674 97.4522C82.7138 97.4751 82.6573 97.501 82.6037 97.524C81.3979 98.0441 80.1463 98.5111 78.8687 98.9249C76.3457 99.8591 73.3004 100.705 69.8036 101.138C69.7045 101.15 69.6026 101.162 69.5007 101.174C67.8159 101.369 66.4756 101.415 65.3988 101.45L65.3478 101.45C65.0786 101.461 64.8094 101.466 64.5373 101.468C64.2992 101.47 64.0611 101.472 63.8231 101.475L63.8288 101.48ZM43.1555 98.3519C43.1555 98.3519 43.1697 98.3574 43.1782 98.3601C43.1213 98.3381 43.0644 98.3161 43.0075 98.2912C43.0587 98.3105 43.1099 98.3326 43.1554 98.3491L43.1555 98.3519Z" fill="#FFEA4B"/>
</g>
<g opacity="0.55">
<path d="M58.9494 99.3715C54.7916 99.4077 50.1803 98.7947 46.2307 97.6803C46.1881 97.6695 46.1483 97.6557 46.1057 97.6448C45.3442 97.4262 44.5597 97.174 43.7807 96.9049C41.3402 96.2504 38.7814 95.352 36.2537 94.1211C36.1882 94.0879 36.1199 94.0547 36.0544 94.0243C32.1943 92.1179 28.1989 89.3203 25.092 86.3544C24.9606 86.2288 24.8291 86.1004 24.6976 85.9721C19.1856 80.555 15.3925 73.6561 13.7302 66.0178C13.6888 65.8267 13.6475 65.6328 13.6089 65.4388C12.2521 58.7101 12.997 51.8083 13.1584 50.492C13.1691 50.4159 13.1769 50.3398 13.1876 50.2637C13.4507 48.2482 13.8697 46.2399 14.4392 44.2696C14.5741 43.4801 14.7126 42.7863 14.8436 42.2079C14.8573 42.1487 14.8709 42.0894 14.8846 42.0302C16.0811 36.8701 18.4518 31.1366 21.2277 26.6919C21.278 26.6127 21.3283 26.5334 21.3787 26.4541C23.6099 22.9405 26.6739 19.3549 29.7849 16.6164C29.8496 16.5595 29.9143 16.5027 29.979 16.4458C34.5842 12.447 40.393 9.31047 46.3333 7.6116C46.4804 7.5709 46.6274 7.52739 46.7744 7.4895C54.0501 5.50308 60.61 5.94148 63.8734 6.37762C64.0096 6.39614 64.1459 6.41466 64.2821 6.43319C69.2004 7.14773 73.406 8.69909 76.3572 10.0558C79.3599 10.8321 84.6783 12.5709 89.9214 16.0757C89.9727 16.109 90.024 16.1452 90.0782 16.1813C92.4647 17.7935 98.479 22.3052 102.775 29.3743C102.89 29.5648 103.005 29.7552 103.115 29.9458C107.114 36.7922 109.056 44.9405 108.575 52.8875C108.565 53.0424 108.555 53.1974 108.545 53.3523C108.3 56.7191 107.537 61.8585 105.279 67.2109C105.229 67.3268 105.179 67.4427 105.129 67.5585C103.578 71.1338 101.142 75.1391 98.4956 78.5577C96.8168 81.0613 94.8077 83.4045 92.4765 85.528C92.3753 85.6218 92.1812 85.7953 91.9956 85.963L91.8297 86.1137C89.1102 88.5729 87.3524 89.8298 86.775 90.2431C86.7412 90.2659 86.7102 90.2887 86.6764 90.3144C83.2706 92.7345 79.8949 94.3716 77.6611 95.3202C77.6047 95.3432 77.5454 95.3691 77.4889 95.3921C74.7749 96.5279 67.5816 99.1921 59.4454 99.3672C59.3972 99.3676 59.3519 99.368 59.3066 99.3684C59.1875 99.3694 59.0685 99.3705 58.9494 99.3715Z" fill="#FFEA4B"/>
</g>
<g opacity="0.55">
<path d="M71.4839 96.8916C69.4064 96.9097 66.7954 96.8564 64.4177 96.5815C64.3042 96.5684 64.1908 96.5553 64.0772 96.5394C63.7339 96.4974 62.9652 96.4309 62.2873 96.3748C60.3443 96.2116 57.6864 95.9869 54.5586 95.4989C54.4394 95.4803 54.3202 95.4616 54.201 95.4429C53.375 95.3065 52.5858 95.1642 51.8419 95.0186C51.6007 94.9869 51.3424 94.9497 51.0671 94.9099C50.8656 94.8779 50.6641 94.8459 50.4626 94.8138C47.3373 94.2892 41.1821 92.8083 35.0502 88.7819C34.7452 88.5819 34.4401 88.3762 34.1406 88.1648C30.0483 85.306 26.5874 81.7238 23.8786 77.6028C19.5669 71.3616 17.1864 63.9239 17.1368 56.2772C16.9301 51.7402 17.3701 46.2939 19.3876 40.6817C19.454 40.4953 19.5232 40.3117 19.5925 40.1281C23.4795 29.8258 30.6331 24.2337 33.06 22.3542C35.6557 20.3354 38.4528 18.6498 41.8771 17.0545C42.057 16.8784 42.2368 16.7022 42.4195 16.5261C57.1076 2.53417 80.2438 2.38612 95.1116 16.1853C95.1316 16.202 97.0691 18.004 97.921 18.8385C97.9439 18.8608 97.9668 18.8831 97.9897 18.9083C100.494 21.3726 105.153 26.5014 108.23 33.1335C108.287 33.2569 108.345 33.3831 108.4 33.5065C109.487 35.9184 110.36 38.5153 110.992 41.1789C111.841 44.2264 112.263 47.0609 112.451 49.4497C112.663 50.7148 112.813 51.9862 112.898 53.2693C112.904 53.3735 112.911 53.4804 112.917 53.5845C113.004 55.0648 113.037 56.8496 113.041 57.0494C113.042 57.1536 113.043 57.255 113.044 57.3591C113.157 70.2929 106.893 82.3532 96.2842 89.6197C95.9743 89.8308 95.6615 90.039 95.3458 90.2445C92.5807 92.0227 85.0861 96.2156 75.2272 96.7774C74.7512 96.804 73.3261 96.8784 71.4839 96.8944L71.4839 96.8916Z" fill="#FFEA4B"/>
</g>
<g opacity="0.55">
<path d="M44.4496 89.4124C30.2132 89.5364 16.2932 82.3625 8.47573 69.341C-3.24463 49.824 3.18494 24.5657 22.8339 12.921L27.1568 10.3606C46.8057 -1.28129 72.2324 5.09977 83.9528 24.6167C95.6731 44.1336 89.2436 69.3919 69.5946 81.0366L65.2717 83.597C58.7324 87.472 51.5521 89.3506 44.4496 89.4124Z" fill="#FFEA4B"/>
</g>
<g opacity="0.55">
<path d="M55.217 86.4129C53.1253 86.4311 51.0039 86.2919 48.8698 85.9839L46.2645 85.6096C23.6229 82.3549 7.92542 61.4846 11.2045 38.9933C14.4864 16.5019 35.4984 0.906338 58.1399 4.16101L60.7452 4.53532C83.3867 7.78999 99.0842 28.6603 95.8051 51.1517C92.8363 71.523 75.3173 86.235 55.2198 86.4101L55.217 86.4129Z" fill="#FFEA4B"/>
</g>
<g opacity="0.55">
<path d="M47.454 95.2314C45.2744 95.2504 43.0706 95.0838 40.8595 94.7229C35.1683 93.7899 29.9228 91.6366 25.3919 88.5423C24.116 87.8467 22.8765 87.0973 21.7161 86.3162C21.6049 86.2412 21.4909 86.1633 21.3797 86.0883C16.9968 83.0659 10.9579 77.6788 7.0827 69.1644C7.06538 69.128 7.05092 69.0943 7.03359 69.0579C6.25901 67.3415 5.75317 65.8902 5.33997 64.6606C2.55236 56.3704 2.79797 47.7977 5.48063 40.1356C6.53927 36.3901 8.16804 32.6931 10.3449 29.1096C10.4119 28.9992 10.479 28.8888 10.5489 28.7784C11.5443 26.5623 13.0812 23.7052 15.4109 20.7539C15.5679 20.5554 15.7249 20.3598 15.8876 20.1641C22.5236 12.0903 32.3375 7.00431 42.818 6.20912C53.3919 5.40748 63.9759 9.0037 71.8662 16.0725C72.1661 16.3402 72.4605 16.6135 72.7492 16.8898C76.662 20.6257 79.5261 25.0072 80.0607 25.8472C80.1066 25.9172 80.1498 25.99 80.1957 26.06C82.8574 30.3081 84.3906 34.5097 85.0696 36.6351C85.0783 36.6604 85.0842 36.6857 85.0929 36.711C86.8243 42.1863 87.6225 48.2469 87.3391 53.7764C87.3341 53.8609 87.3292 53.9454 87.3243 54.0299C87.2773 54.8271 87.2154 55.5203 87.0882 56.8673L87.0777 56.9631C86.6801 61.1083 85.602 65.22 83.9014 69.1344C83.2276 70.8465 82.4066 72.5881 81.4042 74.3256C81.2981 74.5123 81.1891 74.6963 81.0774 74.8803C74.426 87.3718 61.4437 95.1124 47.454 95.2342L47.454 95.2314Z" fill="#FFEA4B"/>
</g>
<g opacity="0.55">
<path d="M47.5382 92.5333C41.147 92.589 34.5249 91.191 28.9177 88.5087C28.7213 88.4147 28.5249 88.3179 28.3313 88.221C20.1951 84.1586 13.0953 76.731 9.33465 68.348C9.25084 68.1629 9.16986 67.9777 9.08886 67.7898C5.4898 59.4082 5.49674 51.4203 6.13716 46.1946C6.14773 46.1072 6.15831 46.0199 6.17172 45.9325C6.25406 45.2982 6.33956 44.7006 6.42823 44.1423C6.52748 43.4967 6.64354 42.8284 6.77934 42.1487C7.17548 40.118 7.54958 38.8111 7.71197 38.255C7.74219 38.1449 7.77527 38.0377 7.80832 37.9276C9.23209 33.1484 12.9317 24.1091 21.7381 17.2609C21.9549 17.0929 22.1774 16.9248 22.397 16.7596C29.7558 11.2896 38.8728 8.52971 48.0688 8.98174C48.4601 9.00086 48.8543 9.02558 49.2458 9.05877C56.2376 9.62011 63.2606 12.1408 69.024 16.162C69.2294 16.3066 69.4347 16.4512 69.6372 16.5987C78.0636 22.728 82.2518 31.0679 84.073 35.785C84.4718 36.6713 84.834 37.5719 85.1622 38.4841C85.2639 38.7648 85.3598 39.0455 85.4558 39.3263C87.7812 46.2858 88.0956 54.071 86.3441 61.2491C86.2784 61.5172 86.2099 61.7881 86.1385 62.0534C84.862 66.8256 81.4575 75.8961 72.9824 83.0343C72.777 83.2078 72.5687 83.3786 72.3576 83.5493C69.3769 85.9545 63.0877 90.2327 54.4569 91.8649C54.3437 91.8856 54.2305 91.9063 54.1145 91.927C51.9863 92.3087 49.7772 92.5082 47.5381 92.5277L47.5382 92.5333Z" fill="#FFEA4B"/>
</g>
<g opacity="0.55">
<path d="M51.9235 98.0981C46.0709 98.1491 40.2132 96.9726 34.9145 94.5692C34.6328 94.4421 34.351 94.3094 34.0749 94.1767C29.2645 91.8535 25.1555 88.7105 20.5008 83.7618C13.5448 79.1795 8.27408 72.4989 5.44152 64.5808C3.1406 58.1476 2.59242 51.1838 3.86024 44.4463C3.93876 44.0233 4.0258 43.603 4.11853 43.1855C5.65724 36.3076 8.99356 30.1462 14.0604 24.8144C14.1949 24.6274 14.3322 24.4432 14.4694 24.259C15.9152 22.3318 18.2184 19.5863 21.2849 16.941C28.9967 8.72273 39.9475 4.32794 51.1795 4.87486C62.6429 4.00916 73.683 7.91112 81.8143 15.9548C82.1602 16.2981 82.5006 16.6471 82.8324 17.0018C90.008 24.6624 93.7706 34.9066 93.4266 45.8425C93.4245 45.9298 93.4196 46.0171 93.4175 46.1072C93.3067 49.0083 92.1514 59.5486 92.0289 60.4479C92.0262 60.4704 92.0236 60.493 92.0181 60.5183C91.0801 67.3684 89.1648 73.3147 86.3275 78.1935C86.2325 78.3576 86.1347 78.519 86.0398 78.6803C83.6649 82.6259 78.2494 89.9091 68.6569 94.3794C68.3379 94.5286 68.0188 94.6721 67.6969 94.8101C62.7355 96.9594 57.3313 98.0539 51.9236 98.101L51.9235 98.0981ZM17.4648 21.5778C17.4648 21.5778 17.4507 21.5892 17.4451 21.5949C17.4507 21.5892 17.4591 21.5835 17.4648 21.5778ZM17.4957 21.5522C17.4957 21.5522 17.476 21.5693 17.4676 21.575C17.476 21.5664 17.4873 21.5579 17.4957 21.5522Z" fill="#FFEA4B"/>
</g>
<g opacity="0.55">
<path d="M54.7255 100.247C53.4841 100.258 52.2394 100.21 50.9941 100.1C46.4258 99.872 41.0093 98.914 35.5792 96.3851C35.4028 96.3022 35.2263 96.2192 35.0526 96.1335C25.0929 91.307 20.174 83.6943 18.5217 81.1099C16.7488 78.3492 15.3259 75.4249 14.0593 71.8911C13.8989 71.6982 13.7413 71.5025 13.5837 71.3068C0.968351 55.4439 3.03084 32.5549 18.2854 19.169C18.3051 19.1519 20.2911 17.4115 21.2169 16.6404C21.2422 16.6205 21.2647 16.6006 21.29 16.5806C24.0001 14.3412 29.5821 10.224 36.5225 7.81536C36.6525 7.76918 36.7825 7.72581 36.9125 7.68245C39.4335 6.83833 42.1208 6.22084 44.85 5.85074C47.9829 5.30257 50.8643 5.15921 53.2768 5.20014C54.5571 5.11015 55.8381 5.08491 57.1224 5.12159C57.2358 5.12342 57.3492 5.12806 57.4626 5.1327C58.9455 5.18736 60.741 5.32658 60.9395 5.34174C61.0501 5.34923 61.1579 5.35955 61.2685 5.36985C74.2317 6.49578 85.71 13.8402 91.9779 25.0114C92.165 25.3448 92.3465 25.6811 92.5253 26.023C94.0386 28.9268 97.5222 36.7378 97.1398 46.531C97.1003 47.5337 96.8572 52.8094 95.9118 57.193C95.8873 57.3031 95.8627 57.4159 95.8382 57.5259C95.7618 57.8616 95.6238 58.6146 95.502 59.2802C95.153 61.1865 94.674 63.7951 93.8842 66.8428C93.8541 66.9585 93.8239 67.0742 93.7937 67.1899C93.5768 67.9915 93.3595 68.7564 93.1419 69.4819C93.0873 69.7189 93.0271 69.97 92.9586 70.2409C92.912 70.4215 92.8654 70.6049 92.816 70.7855C91.995 73.8279 89.9238 79.7812 85.3023 85.4723C85.0611 85.7701 84.8142 86.0622 84.5645 86.3516C81.3122 90.119 77.3934 93.1912 73.0114 95.4734C67.4259 98.5431 61.1309 100.197 54.7284 100.253L54.7255 100.247Z" fill="#FFEA4B"/>
</g>
<g opacity="0.55">
<path d="M54.4611 88.7931C48.3307 88.8465 42.5121 87.6048 37.1387 85.0894C37.0648 85.0563 36.9936 85.0203 36.9196 84.9871C29.0469 81.2434 24.0754 75.7203 21.2914 71.7464C12.4513 59.1251 12.3708 43.046 19.7568 30.6184C21.2449 27.3732 23.5183 23.4847 26.9353 19.7553C27.9622 18.5469 29.0689 17.3941 30.2612 16.2998C30.5002 16.0809 30.7421 15.8648 30.9869 15.6515C34.2837 12.7734 38.4511 10.2509 42.7749 8.45351C48.8291 5.50634 55.7415 4.10872 62.9436 4.73299C74.1339 5.70261 83.7777 11.3568 90.0908 19.5824C92.5843 22.0947 95.0406 25.2071 97.0578 29.0103C97.1644 29.2092 97.2682 29.4111 97.3692 29.6101C100.544 35.8612 102.005 42.8565 101.599 49.8398C101.581 50.1328 101.561 50.4286 101.535 50.7217C101.023 56.9767 98.9875 63.1071 95.6469 68.4492C95.3757 68.8852 95.0932 69.3156 94.8049 69.7377C92.0649 73.7484 87.1985 79.3178 79.5669 83.0727C79.3778 83.1644 79.1887 83.2562 78.9996 83.3451C77.0716 84.2545 75.1616 84.9581 73.324 85.5006C72.2762 85.9349 71.211 86.3243 70.1284 86.6688C69.9983 86.7093 69.8711 86.7499 69.7411 86.7904C68.1581 87.2772 66.6165 87.6398 65.1392 87.9089C64.6214 88.0147 64.1007 88.1065 63.5771 88.1928C63.3167 88.2344 63.0563 88.2733 62.793 88.3094C60.967 88.5618 59.1171 88.6821 57.2634 88.6785C57.0282 88.6947 56.7903 88.7108 56.5523 88.7242C55.8497 88.7641 55.1526 88.787 54.4583 88.7931L54.4611 88.7931ZM84.194 28.227C84.194 28.227 84.2083 28.2466 84.2141 28.2578C84.2083 28.2466 84.1997 28.2382 84.194 28.227Z" fill="#FFEA4B"/>
</g>
<g opacity="0.55">
<path d="M54.4244 101.461C51.6497 101.485 49.1675 101.242 47.1153 100.913C47.016 100.897 46.9138 100.881 46.8145 100.865C41.2508 99.934 33.3982 97.5106 26.3545 91.3242C22.8613 88.5784 19.4197 84.9397 16.6682 80.1434C16.5157 79.8772 16.366 79.6111 16.2219 79.342C12.2868 72.0811 10.7412 63.5267 11.8738 55.2587C11.9084 54.9994 11.9487 54.74 11.9889 54.4806C12.4187 51.7542 13.6047 46.3577 16.6945 40.8601C16.781 40.7073 16.8676 40.5545 16.9541 40.4045C19.0793 36.7426 21.8897 33.3338 25.1186 30.4591C30.1097 23.2697 37.5342 17.8638 46.3053 15.4139C47.7672 15.0069 49.2411 14.6844 50.7215 14.4491C50.9223 14.3995 51.1203 14.3499 51.3211 14.3002C58.2991 12.6346 65.2891 12.9819 71.6725 14.962C84.2374 18.5297 93.8336 28.1486 97.6391 40.0536C99.7768 45.6436 100.61 51.78 99.8674 58.0033C100.304 69.1041 96.0104 79.8717 88.0197 87.642C87.8174 87.838 87.615 88.0341 87.4069 88.2245C83.1866 92.1496 78.1851 94.899 73.3312 96.6954C72.2224 97.2907 71.0821 97.8384 69.9157 98.3272C69.5994 98.4594 69.2831 98.5889 68.9639 98.7128C63.752 100.74 58.7353 101.423 54.4244 101.461Z" fill="#FFEA4B"/>
</g>
<g opacity="0.55">
<path d="M53.0665 101.827C52.4996 101.832 51.9327 101.826 51.3628 101.806C50.98 101.792 50.6001 101.776 50.22 101.751C46.9246 101.543 43.5006 100.891 40.2661 99.8721C35.9161 98.6712 31.7642 96.7758 28.0686 94.2318C27.9032 94.1178 27.7378 94.0038 27.5752 93.8869C19.2213 87.94 15.1241 79.9569 13.4234 75.7286C13.3597 75.5687 13.2959 75.4116 13.235 75.2516C12.6057 73.6184 12.0866 71.9392 11.6804 70.2196C11.2154 69.2213 10.7812 68.1918 10.4037 67.1561C10.3689 67.0579 10.3312 66.9596 10.2963 66.8614C8.02722 60.5039 7.338 53.2935 8.34791 46.5583C8.38541 46.3074 8.42577 46.0592 8.46895 45.8111C8.55524 45.3035 8.65007 44.8015 8.75626 44.3022C9.49379 40.4638 10.8001 36.8428 12.5824 33.5218C16.8003 23.1406 25.3354 15.0728 36.1189 11.3186C36.3958 11.2233 36.6728 11.1279 36.9498 11.0382C45.1014 8.40786 56.1185 8.36257 64.3664 10.9289C64.4488 10.9535 64.5284 10.981 64.6108 11.0056C69.5138 12.5678 74.2306 15.1987 78.6357 18.829C83.5262 22.855 86.7362 27.5713 88.2866 30.1734C94.763 39.904 96.2189 51.821 92.8709 62.4959C92.8639 62.6677 92.8568 62.8367 92.847 63.0057C92.8396 63.1353 92.8322 63.2649 92.822 63.3945C92.5037 68.1809 91.2949 73.2342 89.4114 77.6232C89.3253 77.8239 89.2391 78.0217 89.1502 78.2224C86.6867 83.7089 82.9345 88.6632 78.3029 92.5469C78.179 92.6493 78.0552 92.7517 77.9314 92.8542C70.9095 98.5944 62.136 101.748 53.0637 101.827L53.0665 101.827ZM85.0556 25.9754C85.0556 25.9754 85.0671 25.9866 85.0728 25.995C85.0671 25.9894 85.0614 25.981 85.0556 25.9754Z" fill="#FFEA4B"/>
</g>
<g opacity="0.55">
<path d="M55.1009 103.023C50.7872 103.061 46.7036 102.505 42.8643 101.364C40.771 100.862 38.5255 100.149 36.1781 99.1137C36.0216 99.0447 35.8651 98.9757 35.7114 98.9038C25.6204 94.2981 19.8696 86.5265 17.3385 82.3027C11.7385 72.9558 10.5194 61.8618 13.5976 51.7777C14.0415 48.0713 15.0281 44.5151 16.4759 41.197C16.4084 38.9789 16.5362 36.7309 16.8709 34.4727C17.6179 29.4517 19.3317 24.7713 21.8096 20.6164C22.3401 19.6883 22.9161 18.7795 23.5319 17.8872C32.7552 4.54825 49.4593 -1.54378 65.1764 2.69754L65.2417 2.71387C66.5997 3.07932 67.8556 3.42596 69.1974 3.87885C75.6098 5.93186 80.1223 9.19805 82.5432 11.1788C83.3851 11.8416 84.1875 12.5273 84.9505 13.2301C85.0076 13.2831 85.0619 13.3362 85.1191 13.3864C85.8078 14.0308 86.4312 14.6588 87.0634 15.3319C88.3419 16.6553 89.5159 18.0163 90.5739 19.4036C93.3809 23.0873 95.4115 27.1212 96.6923 31.3053C98.0236 35.1145 98.7242 39.0755 98.8041 43.0392C98.9315 44.001 99.0221 44.9631 99.0759 45.9312C99.086 46.1141 99.0961 46.2999 99.1034 46.4828C99.1719 48.1631 99.1328 49.8641 98.9871 51.6842C98.6698 55.5979 97.7505 59.4013 96.2907 62.9729C96.2058 65.9103 95.7778 68.8422 95.0063 71.7068C94.571 73.7997 93.9569 75.8717 93.1583 77.9031C89.3619 87.5373 81.6024 95.4773 71.8659 99.687C71.6993 99.7588 71.5298 99.8307 71.3604 99.8997C65.7317 102.238 60.7022 102.755 57.4046 102.941C56.6311 102.984 55.8632 103.011 55.1008 103.017L55.1009 103.023Z" fill="#FFEA4B"/>
</g>
<g opacity="0.55">
<path d="M47.6092 100.05C34.1211 100.168 21.3477 93.1726 14.3292 81.4139C12.5977 79.5003 10.9869 77.4533 9.59424 75.3875L9.58852 75.3819L9.57129 75.3568L9.16639 74.7549C5.93292 69.9459 3.94525 64.6559 3.13587 59.271C2.93507 58.0199 2.79647 56.7512 2.71731 55.4737C2.47681 51.6184 2.83207 47.8227 3.71312 44.1914C4.10352 42.1523 4.66133 40.1343 5.39242 38.1598C9.12535 28.07 16.9775 20.0194 27.0103 15.9902C32.4928 13.7913 38.2561 12.9133 43.8942 13.2809C46.2605 12.9084 48.6656 12.7551 51.0897 12.8241C51.5064 12.8345 51.9204 12.8534 52.3373 12.8808C61.3159 13.4304 67.7868 16.9921 70.5523 18.5138C87.977 28.1039 94.9293 49.1912 87.1307 66.972C85.7262 73.6319 82.5485 79.7807 77.9691 84.7816C72.7993 91.6432 65.3101 96.7737 56.4373 98.9429C53.4929 99.6612 50.5312 100.022 47.6035 100.048L47.6092 100.05Z" fill="#FFEA4B"/>
</g>
<g opacity="0.55">
<path d="M57.3176 101.742C45.3345 101.847 33.7305 96.3392 26.3381 86.5603C23.9542 84.9115 22.132 83.3224 20.9601 82.2092C20.8887 82.1423 20.8172 82.0725 20.7486 82.0055C16.741 78.1324 14.0736 73.8788 13.1125 72.2288C13.0607 72.1419 13.0118 72.0551 12.96 71.9654C11.1783 68.8528 9.65012 65.22 8.65323 61.7373C8.63564 61.6699 8.61524 61.6053 8.59764 61.5379C8.1091 59.7937 6.96335 55.1664 6.88925 49.9131C6.88822 49.7949 6.88719 49.6766 6.88616 49.5584C6.87082 46.1714 7.34962 42.5661 7.63616 40.9699C7.64962 40.8882 7.66594 40.8092 7.6794 40.7274C8.59716 35.7781 10.7343 28.9401 15.6731 22.5676C18.8688 17.8434 25.2785 10.4727 35.8834 6.70876C36.0021 6.6683 36.1179 6.62506 36.2366 6.58461C41.312 4.83978 45.9992 4.40477 49.2416 4.37652C49.2869 4.37613 49.3295 4.37576 49.3748 4.37536C56.4547 2.68628 64.0536 2.98892 71.287 5.57257C74.0677 6.56758 76.5559 7.81292 78.7702 9.19298C79.1946 9.42298 79.656 9.68644 80.149 9.9806C80.2544 10.0444 80.3598 10.1083 80.4653 10.1721C88.2106 14.9109 92.7023 21.3251 94.6906 24.7259C94.7279 24.7875 94.7625 24.8491 94.7999 24.9136C97.4533 29.5136 99.464 35.4877 99.4843 35.5466C99.5018 35.6 99.5192 35.6505 99.5367 35.7039C99.9444 36.9504 100.293 38.2313 100.585 39.538C101.279 42.1167 101.836 45.2061 101.934 48.6994C101.935 48.7839 101.939 48.8683 101.94 48.9528C101.977 50.6587 101.892 51.9912 101.825 53.0589L101.82 53.1293C101.803 53.4026 101.782 53.6731 101.759 53.9464C101.646 55.2932 101.522 56.6374 101.352 57.9959C101.148 62.2211 100.261 66.4184 98.6768 70.3966C98.588 70.617 98.4992 70.8345 98.4076 71.055C97.619 72.9342 96.8545 74.3233 96.4666 75.0249C96.2715 75.4039 96.0679 75.7943 95.8532 76.1931C94.7152 78.6442 93.3044 81.0046 91.6118 83.2268C89.6165 85.8514 87.3864 88.1965 84.7978 90.3927C84.6937 90.4809 84.5896 90.5691 84.4855 90.6545C79.7438 94.5954 76.3164 96.8129 72.2671 98.5657C67.4073 100.666 62.3284 101.69 57.3204 101.737L57.3176 101.742ZM96.5864 74.7902C96.5585 74.8439 96.5307 74.8977 96.5028 74.9542C96.514 74.9316 96.5251 74.909 96.5391 74.8864C96.5558 74.8552 96.5725 74.8241 96.5892 74.7902L96.5864 74.7902ZM96.631 74.7053C96.631 74.7053 96.631 74.6997 96.6338 74.6969C96.6338 74.6969 96.6338 74.7025 96.631 74.7053Z" fill="#FFEA4B"/>
</g>
<g opacity="0.55">
<path d="M57.1586 101.065C51.6517 101.113 46.8274 100.128 45.7539 99.8919C45.6773 99.8757 45.5977 99.8567 45.5211 99.8405C43.5274 99.3904 41.5578 98.7825 39.6408 98.0306C38.8624 97.8234 38.1804 97.621 37.6147 97.4344C37.555 97.4152 37.4953 97.3961 37.4356 97.3741C32.3814 95.6978 26.863 92.8064 22.6744 89.6359C22.5974 89.5774 22.5204 89.519 22.4433 89.4605C19.1361 86.9187 15.8386 83.5462 13.3918 80.2113C13.3401 80.1414 13.2885 80.0714 13.2397 80.0015C9.67345 75.0602 7.08397 69.0152 5.95428 62.9771C5.92755 62.8366 5.90365 62.696 5.87691 62.5555C4.5796 55.1702 5.64586 48.7217 6.39758 45.5363C6.42761 45.4037 6.46046 45.2711 6.49335 45.1413C7.67887 40.3445 9.63651 36.3293 11.2817 33.5388C12.3449 30.6464 14.5965 25.5559 18.6047 20.7091C18.6524 20.6524 18.6972 20.5985 18.7449 20.5418C20.588 18.338 25.6873 12.8285 33.1731 9.25793C33.3707 9.1633 33.5683 9.07148 33.7688 8.97963C41.0188 5.67573 49.3762 4.53582 57.3007 5.77041C57.4483 5.79446 57.5987 5.81849 57.7463 5.84254C61.093 6.40466 66.1605 7.65006 71.3005 10.3871C71.4201 10.4508 71.5369 10.5145 71.6565 10.5783C75.0912 12.4517 78.8711 15.2456 82.043 18.1884C84.3837 20.0826 86.5344 22.2854 88.4354 24.786C88.5215 24.9007 88.682 25.1104 88.8341 25.3175L88.9717 25.4993C91.1768 28.4223 92.2759 30.2936 92.6356 30.9099C92.6528 30.9379 92.6672 30.9659 92.6845 30.9911C94.785 34.5908 96.1051 38.0876 96.8423 40.3899C96.8598 40.4489 96.8801 40.5078 96.8977 40.5668C97.778 43.3579 99.7582 50.7231 99.1538 58.7809C99.1486 58.8373 99.1463 58.8936 99.1411 58.9472C98.8093 63.1537 97.7358 67.8032 96.1967 71.7049C96.1828 71.7416 96.1662 71.7784 96.1523 71.8151C95.8611 72.5469 95.5331 73.2959 95.1881 74.0394C94.2987 76.384 93.1579 78.8266 91.6848 81.2046C91.6401 81.2754 91.5982 81.3461 91.5534 81.4141C89.2722 85.0463 86.0872 88.7287 82.8178 91.5165C82.6828 91.6331 82.5477 91.7469 82.4098 91.8607C76.4523 96.8005 69.1693 99.8935 61.3485 100.806C61.1644 100.828 60.9804 100.849 60.7991 100.867C59.5729 100.994 58.3461 101.052 57.1558 101.062L57.1586 101.065Z" fill="#FFEA4B"/>
</g>
<g opacity="0.55">
<path d="M55.6573 96.6606C54.4159 96.6714 53.1712 96.6231 51.9259 96.5129C47.3576 96.2824 41.9412 95.3272 36.511 92.7983C36.3374 92.7181 36.1638 92.6352 35.9902 92.5522C26.0134 87.7203 21.0943 80.0907 19.4478 77.5175C17.6778 74.7624 16.2578 71.8381 14.9912 68.3099C14.8308 68.1143 14.6703 67.9186 14.5127 67.7172C1.89726 51.8486 3.96822 28.9568 19.2257 15.5765C19.3072 15.5054 21.2397 13.8105 22.1515 13.0536C22.1768 13.0337 22.1994 13.0138 22.2247 12.9938C24.9347 10.7544 30.5167 6.63721 37.4571 4.22855C37.5871 4.18237 37.7171 4.139 37.8471 4.09564C40.3681 3.25152 43.0554 2.63403 45.7846 2.26393C48.9176 1.71576 51.7989 1.56959 54.2114 1.61333C55.4918 1.52334 56.7727 1.4981 58.0571 1.53478C58.1705 1.53661 58.2839 1.54125 58.4001 1.54587C59.883 1.60053 61.6784 1.73974 61.877 1.75491C61.9847 1.76242 62.0954 1.77271 62.2032 1.78304C75.1664 2.90897 86.6475 10.2534 92.9126 21.4274C93.0911 21.7468 93.2639 22.0663 93.434 22.3886C94.9559 25.2979 98.4566 33.1229 98.0716 42.947C98.0322 43.9497 97.789 49.2254 96.8437 53.6091C96.8191 53.7191 96.7946 53.8319 96.77 53.9419C96.6936 54.2777 96.5556 55.0306 96.4338 55.6962C96.0848 57.5997 95.6058 60.2111 94.816 63.256C94.7859 63.3717 94.7557 63.4874 94.7255 63.6031C94.5086 64.4075 94.2914 65.1724 94.0737 65.8951C94.0136 66.1546 93.9452 66.434 93.8685 66.7331C93.8328 66.8714 93.7971 67.0068 93.7615 67.1451C92.3476 72.4057 89.6834 77.6293 86.2565 81.8544C86.0069 82.1606 85.7544 82.4641 85.4963 82.762C82.244 86.5294 78.3252 89.6015 73.9432 91.8837C68.3577 94.9535 62.0627 96.6076 55.6602 96.6634L55.6573 96.6606Z" fill="#FFEA4B"/>
</g>
<path d="M25.1973 77.9569C32.8234 77.8904 38.9555 72.0825 38.8937 64.9844C38.8319 57.8863 32.5995 52.1861 24.9734 52.2525C17.3472 52.3189 11.2152 58.1269 11.277 65.225C11.3388 72.3231 17.5712 78.0233 25.1973 77.9569Z" fill="#FFDB27" fill-opacity="0.8"/>
<path d="M92.1153 78.579C99.7414 78.5125 105.873 72.7045 105.812 65.6065C105.75 58.5084 99.5175 52.8082 91.8914 52.8746C84.2652 52.941 78.1331 58.749 78.195 65.8471C78.2568 72.9451 84.4891 78.6454 92.1153 78.579Z" fill="#FFDB27" fill-opacity="0.8"/>
<path d="M49.76 43.4158C49.844 53.0586 41.7094 60.947 31.591 61.0352C21.4726 61.1233 13.2019 53.3778 13.1179 43.735C13.0339 34.0923 21.1684 26.2038 31.2868 26.1157C41.4053 26.0275 49.676 33.7731 49.76 43.4158Z" fill="white"/>
<path d="M49.76 43.4158C49.844 53.0586 41.7094 60.947 31.591 61.0352C21.4726 61.1233 13.2019 53.3778 13.1179 43.735C13.0339 34.0923 21.1684 26.2038 31.2868 26.1157C41.4053 26.0275 49.676 33.7731 49.76 43.4158Z" stroke="black"/>
<path d="M43.3806 42.6778C43.4378 49.2524 38.1347 54.6288 31.5358 54.6862C24.9368 54.7437 19.5409 49.4606 19.4836 42.8859C19.4263 36.3113 24.7294 30.935 31.3284 30.8775C37.9273 30.82 43.3233 36.1032 43.3806 42.6778Z" fill="#2E2C2C"/>
<path d="M43.3806 42.6778C43.4378 49.2524 38.1347 54.6288 31.5358 54.6862C24.9368 54.7437 19.5409 49.4606 19.4836 42.8859C19.4263 36.3113 24.7294 30.935 31.3284 30.8775C37.9273 30.82 43.3233 36.1032 43.3806 42.6778Z" stroke="black"/>
<path d="M99.1476 42.9856C99.2316 52.6284 91.0971 60.5168 80.9787 60.605C70.8603 60.6931 62.5896 52.9475 62.5056 43.3048C62.4216 33.662 70.5561 25.7736 80.6745 25.6854C90.793 25.5973 99.0636 33.3428 99.1476 42.9856Z" fill="white"/>
<path d="M99.1476 42.9856C99.2316 52.6284 91.0971 60.5168 80.9787 60.605C70.8603 60.6931 62.5896 52.9475 62.5056 43.3048C62.4216 33.662 70.5561 25.7736 80.6745 25.6854C90.793 25.5973 99.0636 33.3428 99.1476 42.9856Z" stroke="black"/>
<path d="M92.7683 42.2475C92.8255 48.8221 87.5224 54.1985 80.9235 54.256C74.3245 54.3135 68.9286 49.0303 68.8713 42.4557C68.814 35.8811 74.1171 30.5047 80.7161 30.4472C87.315 30.3898 92.711 35.6729 92.7683 42.2475Z" fill="#2E2C2C"/>
<path d="M92.7683 42.2475C92.8255 48.8221 87.5224 54.1985 80.9235 54.256C74.3245 54.3135 68.9286 49.0303 68.8713 42.4557C68.814 35.8811 74.1171 30.5047 80.7161 30.4472C87.315 30.3898 92.711 35.6729 92.7683 42.2475Z" stroke="black"/>
<g clip-path="url(#clip1_307_9537)">
<path d="M40.9797 64.508C46.8138 70.2427 55.5701 71.5784 63.2095 69.2728C65.449 68.5975 67.6195 67.6261 69.6426 66.4514C70.5859 65.9043 70.9731 64.5224 70.362 63.5879C69.7509 62.6533 68.521 62.2797 67.5115 62.865C66.7088 63.3314 65.8851 63.7647 65.0402 64.1522C64.9284 64.2033 64.8124 64.2544 64.7006 64.3055C64.7296 64.2928 64.9906 64.1861 64.771 64.2757C64.5721 64.3568 64.3691 64.4421 64.1702 64.5232C63.7103 64.7068 63.246 64.8738 62.7734 65.0325C61.8944 65.3242 60.9983 65.5701 60.0935 65.766C59.6702 65.8574 59.2467 65.9321 58.819 66.0026C58.3914 66.0732 58.7401 66.0159 58.819 66.0026C58.6986 66.0204 58.574 66.034 58.4535 66.0476C58.2084 66.0748 57.9633 66.102 57.7181 66.1208C56.7999 66.1998 55.8811 66.2204 54.9618 66.1824C54.5666 66.165 54.1713 66.1392 53.7759 66.0967C53.6677 66.0851 53.5471 66.082 53.4388 66.0579C53.5096 66.0698 53.8843 66.1208 53.4846 66.0616C53.2597 66.026 53.0349 65.9945 52.8142 65.9547C51.9771 65.8074 51.1478 65.6058 50.3348 65.3539C49.9554 65.236 49.58 65.1056 49.2087 64.9668C49.1044 64.926 48.9959 64.8851 48.8916 64.8443C48.9625 64.8729 49.2798 65.0122 48.9208 64.8566C48.7121 64.7665 48.5075 64.6722 48.303 64.5779C47.4345 64.1677 46.5987 63.6904 45.808 63.1459C45.624 63.018 45.4399 62.886 45.2557 62.7539C45.6073 63.0098 45.1217 62.6423 45.0128 62.5555C44.6192 62.2331 44.2461 61.8896 43.8812 61.5294C43.1136 60.7633 41.7077 60.717 40.954 61.5549C40.2004 62.3927 40.1493 63.6923 40.9797 64.508Z" fill="#2E2C2C"/>
<path d="M40.9797 64.508C46.8138 70.2427 55.5701 71.5784 63.2095 69.2728C65.449 68.5975 67.6195 67.6261 69.6426 66.4514C70.5859 65.9043 70.9731 64.5224 70.362 63.5879C69.7509 62.6533 68.521 62.2797 67.5115 62.865C66.7088 63.3314 65.8851 63.7647 65.0402 64.1522C64.9284 64.2033 64.8124 64.2544 64.7006 64.3055C64.7296 64.2928 64.9906 64.1861 64.771 64.2757C64.5721 64.3568 64.3691 64.4421 64.1702 64.5232C63.7103 64.7068 63.246 64.8738 62.7734 65.0325C61.8944 65.3242 60.9983 65.5701 60.0935 65.766C59.6702 65.8574 59.2467 65.9321 58.819 66.0026C58.3914 66.0732 58.7401 66.0159 58.819 66.0026C58.6986 66.0204 58.574 66.034 58.4535 66.0476C58.2084 66.0748 57.9633 66.102 57.7181 66.1208C56.7999 66.1998 55.8811 66.2204 54.9618 66.1824C54.5666 66.165 54.1713 66.1392 53.7759 66.0967C53.6677 66.0851 53.5471 66.082 53.4388 66.0579C53.5096 66.0698 53.8843 66.1208 53.4846 66.0616C53.2597 66.026 53.0349 65.9945 52.8142 65.9547C51.9771 65.8074 51.1478 65.6058 50.3348 65.3539C49.9554 65.236 49.58 65.1056 49.2087 64.9668C49.1044 64.926 48.9959 64.8851 48.8916 64.8443C48.9625 64.8729 49.2798 65.0122 48.9208 64.8566C48.7121 64.7665 48.5075 64.6722 48.303 64.5779C47.4345 64.1677 46.5987 63.6904 45.808 63.1459C45.624 63.018 45.4399 62.886 45.2557 62.7539C45.6073 63.0098 45.1217 62.6423 45.0128 62.5555C44.6192 62.2331 44.2461 61.8896 43.8812 61.5294C43.1136 60.7633 41.7077 60.717 40.954 61.5549C40.2004 62.3927 40.1493 63.6923 40.9797 64.508Z" fill="black" fill-opacity="0.2"/>
</g>
</g>
<defs>
<clipPath id="clip0_307_9537">
<rect width="113.685" height="108.047" fill="white" transform="translate(0 0.990295) rotate(-0.499103)"/>
</clipPath>
<clipPath id="clip1_307_9537">
<rect width="30.2707" height="9.52386" fill="white" transform="translate(40.3535 60.9589) rotate(-0.499103)"/>
</clipPath>
</defs>
</svg>
