<?xml version="1.0" encoding="UTF-8"?>
<svg id="Capa_1" xmlns="http://www.w3.org/2000/svg" version="1.1" xmlns:xlink="http://www.w3.org/1999/xlink" viewBox="0 0 118 117">
  <!-- Generator: Adobe Illustrator 29.2.1, SVG Export Plug-In . SVG Version: 2.1.0 Build 116)  -->
  <defs>
    <style>
      .st0 {
        fill: #ffdb27;
      }

      .st1 {
        fill: #fff;
      }

      .st2 {
        fill: #ffea4b;
      }

      .st3 {
        display: none;
        stroke: #000;
      }

      .st3, .st4 {
        fill: none;
      }

      .st5 {
        clip-path: url(#clippath-1);
      }

      .st6 {
        opacity: .6;
      }

      .st7 {
        fill: #1d1d1b;
      }

      .st8 {
        fill: #2e2c2c;
      }

      .st9 {
        clip-path: url(#clippath);
      }
    </style>
    <clipPath id="clippath">
      <rect class="st4" x=".4" y=".9" width="117.5" height="116.1"/>
    </clipPath>
    <clipPath id="clippath-1">
      <rect class="st4" x="43.4" y="66.2" width="33.6" height="21" transform="translate(-6.2 5.3) rotate(-4.8)"/>
    </clipPath>
  </defs>
  <g class="st9">
    <g>
      <g class="st6">
        <path class="st2" d="M65.5,92c-16.2,0-31.5-9.7-37.6-25.4l-1.4-3.7c-7.9-20.4,2.5-43.2,23.3-50.9,20.8-7.8,44,2.5,51.9,22.8l1.4,3.7c7.9,20.4-2.5,43.2-23.3,50.9-4.7,1.8-9.6,2.6-14.3,2.6h0Z"/>
      </g>
      <g class="st6">
        <path class="st2" d="M67.7,91.6c-3.2,0-6.4-.4-9.6-1.1-21.6-5.2-34.8-26.5-29.5-47.7l.3-1.4c5.3-21.2,27-34.1,48.6-29,21.6,5.2,34.8,26.5,29.5,47.7l-.3,1.4c-4.5,18-20.9,30.1-39,30.1Z"/>
      </g>
      <g class="st6">
        <path class="st2" d="M59.6,106.7c-20.4,0-37.9-15.2-40-35.5h0c0-.2,0-.2,0-.3,0-.1,0-.2,0-.3h0c0-.2,0-.4,0-.5v-1c-.1-.1-.1-.2-.1-.4v-.6c0-.2,0-.3-.1-.5v-.3c0,0,0-.2,0-.3v-.3c0-.2,0-.3,0-.5,0-.3,0-.7-.1-1v-.8c0-.1-.1-.2-.1-.3l-.2-2.2c0-.4,0-.7-.1-1,0,0,0-.2,0-.2h0c0-.4,0-.7,0-1,0,0,0-.1,0-.2v-.9c-.1-.4-.2-.8-.2-1.2v-.8c0,0-.1-.2-.1-.3v-.7c-.1-.3-.1-.7-.2-1v-.6c0-.1,0-.2,0-.3v-.2c0-.2,0-.3,0-.5v-.4c0-.2,0-.3,0-.5h0c0-.2,0-.3,0-.4,0,0,0-.2,0-.3h0C15.1,29.8,31,10.3,53.1,7.9c22.1-2.4,42,13.2,44.4,34.9v.5c0,.1,0,.3.1.4h0c0,.2,0,.3,0,.4,0,.1,0,.2,0,.4h0c0,.2,0,.4,0,.5v1.2c.1,0,.1.2.2.3,0,.2,0,.4,0,.6,0,0,0,.2,0,.3l.2,1.7c0,0,0,.1,0,.2,0,.3,0,.5,0,.8,0,0,0,.2,0,.3v.9c.1.4.2.8.2,1.2,0,.4,0,.8.1,1.3,0,0,0,0,0,0l.2,2.1c0,.2,0,.4,0,.6v.4c0,0,0,.2,0,.3,0,.2,0,.5,0,.7,0,0,0,.2,0,.3l.2,1.4c0,.1,0,.2,0,.4v1.2c.1.1.2.2.2.4h0c0,.3,0,.4,0,.6v.3c0,.1,0,.3,0,.4h0c0,.2,0,.4,0,.6,2.2,21.7-14,41-36.1,43.1-1.3.1-2.7.2-4,.2h0Z"/>
      </g>
      <g class="st6">
        <path class="st2" d="M42.3,109.9c-21,0-38.7-16-40.1-36.8l-.3-4.9C.4,46.4,17.2,27.6,39.3,26.2c22.2-1.4,41.3,15,42.8,36.8l.3,4.9c1.5,21.7-15.3,40.5-37.5,42-.9,0-1.8,0-2.7,0h0Z"/>
      </g>
      <g class="st6">
        <path class="st2" d="M63.9,113c-8.5,0-14.9-2.5-17.5-3.6-4.1-1.5-7.5-3.1-10.6-5.1,0,0-.2-.1-.3-.2-1.4-.9-6.5-4.3-10.8-9,0,0-.2-.2-.2-.3-2.9-3.2-8.1-9.9-10.6-18.9,0-.2-.1-.4-.2-.6-2-7.6-1.6-14.6-1.1-18.2,0,0,0-.2,0-.2.1-.9.3-1.9.5-3.2.1-.7.2-1.3.4-2,0-.2,0-.3,0-.5,1.3-6,3.8-11.2,4.9-13.4,1.9-5.3,4.6-9.5,6.2-11.6.2-.3.4-.6.7-.9,5.7-7.4,13.9-12.9,23-15.6.3,0,.7-.2,1-.3,1.3-.3,5.2-1.4,11.5-1.5.4,0,.7,0,1.1,0,11.3,0,21.6,3.8,29.5,10.6,3.8,2.2,10.2,6.7,15.2,13.9,2,2.3,4,5,5.7,8,.1.2.2.4.3.6,5.1,9.7,6.5,21.7,3.7,32.2,0,.2-.1.4-.2.6-2.9,10.2-9.2,17.3-12.7,20.6,0,0-.2.2-.3.3-2.5,2.3-5.6,4.6-8.8,6.7-.4.3-.9.7-1.3,1l-2,1.4c-.1,0-.2.1-.3.2-7.5,5.1-15.4,8-23.4,8.7-.2,0-.5,0-.7,0-1,0-1.9,0-2.8,0h0Z"/>
      </g>
      <g class="st6">
        <path class="st2" d="M65,109.4c-1,0-1.9,0-2.7,0,0,0-.1,0-.2,0-2.8-.1-6.3-.6-10-1.4-6.2-.8-12.6-2.9-17.9-5.9-.2,0-.3-.2-.5-.3-9.5-5.4-16.7-13.8-20.2-23.5-.1-.4-.2-.7-.4-1.1-3.5-11-1.7-21.7-.8-25.8,0,0,0-.2,0-.3,0-.2.1-.5.2-.7.9-4.1,2.4-8.9,5.2-13.6,0-.2.2-.3.3-.5,2.2-3.7,5.3-7.7,8.6-10.8.1-.1.2-.2.3-.3,5.4-5.1,12.3-9.1,19.4-11.3.2,0,.4-.1.7-.2,1-.3,1.9-.5,2.9-.7,3.2-.8,6.4-1.2,9.6-1.3.2,0,.4,0,.6,0,4.9,0,10.6.7,15.2,2.1,0,0,.2,0,.2,0,1.8.5,4.1,1.3,6.7,2.5,2.3.9,4.3,1.9,6,2.8,0,0,.1,0,.2,0,2.5,1.4,6.7,4.1,10.8,7.9,4.2,3.5,7.7,7.8,10.3,12.7.1.2.3.5.4.7,1.5,3,2.4,5.6,3.4,8.9,1.1,3.6,2.1,7.7,2.3,12.7,0,.4,0,.8,0,1.2,0,12.2-5.4,23.7-14.8,31.8-1.9,1.7-3.9,3.5-6.4,5.2,0,0-.1,0-.2.1-5.1,3.5-11.8,6.3-17.9,7.7-.2,0-.4,0-.5.1-3.9.8-7.7,1-10.7,1h0ZM98.3,97.1s0,0,0,0c0,0,0,0,0,0Z"/>
      </g>
      <g class="st6">
        <path class="st2" d="M64.5,110.5c-.8,0-1.6,0-2.2,0-.1,0-.3,0-.4,0-4.5-.2-9.8-1.2-14-2.6-.2,0-.3,0-.5-.2-10.4-3.5-19.9-11-25.4-20.2-.2-.3-.3-.5-.5-.8-5.3-9.5-5.9-19.3-5.7-24.4,0,0,0-.2,0-.3.2-4.5,1.1-11.4,4.5-18.5,0,0,0-.2.1-.3,1-2.1,4.8-9.4,11.3-15.3.1,0,.2-.2.3-.3,5.6-4.9,13.6-9.1,21-10.8.2,0,.4,0,.6-.1,6.1-1.4,11.8-1.3,14.6-1.2,4.6.2,7.5.7,9.3,1.1,2,.3,3.9.8,5.8,1.4.1,0,.2,0,.3.1,4,1.3,9.9,3.6,15.2,7.4.1.1.3.2.4.3,6.4,4.8,11.6,11.6,14.5,19.1,0,.2.2.5.3.7.1.3.2.6.3.9,1.8,4.9,2.4,9.4,2.6,12.7,0,.2,0,.4,0,.6.2,4.8-.5,9.7-1.9,14.4,0,.2-.2.5-.2.7-2.5,7.9-7.6,15.4-14.1,21-1.8,1.7-3.7,3.4-5.6,4.8-.1,0-.2.2-.4.3-4.4,3.1-9.7,5.6-13.1,6.8-.2,0-.4.1-.5.2-6.4,2.2-12.6,2.6-16.6,2.6h0Z"/>
      </g>
      <g class="st6">
        <path class="st2" d="M61.6,116.9c-6.4,0-13.7-1.1-19.4-3.1-.1,0-.2,0-.3-.1-1.9-.7-3.9-1.5-5.8-2.5-1.8-.7-3.7-1.5-5.6-2.6,0,0-.2,0-.2-.1-1.6-.9-3.9-2.2-6.4-4.1-7.3-4.9-12.8-11-16.2-18.3-.1-.2-.2-.4-.3-.6-2.9-6.4-4.3-13.4-4-20.4h0c0-1.5.4-6.3,1.3-10.4,0,0,0,0,0-.1,1-4.5,2.9-9.1,4.1-11.8,0,0,0-.1,0-.2,1.7-3.5,4.4-7.7,6.8-10.7,0,0,0,0,.1-.1,2.3-2.8,6.4-6.9,10.9-10,.1,0,.2-.2.4-.2,5.3-3.5,11.8-6.2,18-7.4.2,0,.3,0,.5,0,6-1.1,11.8-.8,14.7-.5,1.2,0,2.4,0,3.6.2,0,0,.2,0,.3,0,5.3.5,10,1.8,11.7,2.4,0,0,.1,0,.2,0,.3.1.7.2,1,.3,2.2.5,4.5,1.1,6.7,2,.2,0,.5.2.7.3,5.5,2.2,10.4,5.4,14.7,9.6,1.9,1.8,3.5,3.7,5,5.8,6.6,7,10.8,16.1,11.6,25.5,0,.3,0,.6,0,.9.8,12-3.8,21.3-6.6,25.7-.2.3-.4.6-.6,1-.3.4-.6.9-.9,1.3-1.7,3.4-3.5,6-4.5,7.3,0,0-.1.2-.2.2-2.4,3.1-5.4,6.3-8.4,8.9,0,0,0,0-.1.1-1.9,1.6-7.2,5.6-14,8.3-.1,0-.3.1-.4.2-4.2,1.6-9.5,2.8-14,3.2,0,0-.2,0-.3,0-1.3.1-2.6.2-4,.2h0Z"/>
      </g>
      <g class="st6">
        <path class="st2" d="M60.2,116.4c-1.7,0-3.4,0-5.1-.2-.4,0-.8,0-1.1,0-.1,0-.3,0-.4,0-3.2,0-11.6-.5-19.2-3.1-.1,0-.2,0-.3-.1-1.7-.6-7.8-2.9-13.4-7-.1,0-.2-.2-.3-.2-4.1-3-11.5-9.6-15.6-20,0-.2-.1-.4-.2-.6-2.9-7.5-3.7-16.4-2.2-24.5,0-.2,0-.3,0-.5,0-.5.2-.9.3-1.4.6-3.2,1.5-5.8,2.1-7.7,0-.1,0-.3.1-.4,1.9-4.8,4.4-8.9,5.8-10.9,0,0,0-.1.1-.2,1.6-2.4,7.7-10.6,16-16.1.1,0,.2-.2.3-.2,5.3-3.4,11.4-5.7,17.7-6.8,1.5-.3,3-.6,4.5-.8.2,0,.3,0,.5,0,6.6-.8,13.3.1,14,.3.1,0,.3,0,.4,0,1,.2,2,.3,3,.6,3.5.6,7,1.5,10,2.6,0,0,0,0,.1,0,8.1,3.1,14.1,8.1,16.2,10.1,0,0,.2.2.3.3.4.4.7.7,1.1,1.1,2.9,2.2,6.1,5.1,8.8,8.6.1.2.3.3.4.5,4.5,6,6.6,12.3,7.5,16.5,0,.3.1.7.2,1,1.2,6.2,1,12.9-.5,19.2-1.1,5.6-3.3,11-6.3,15.7-.1.2-.2.3-.3.5-3.9,5.9-8.6,10-11.1,11.9,0,0-.2.1-.2.2-3.1,2.4-7,4.7-10.4,6.3,0,0-.2,0-.3.1-1.5.7-6.8,3-12.7,4.1-.1,0-.3,0-.4,0-3.1.6-6.3.8-9.4.8h0Z"/>
      </g>
      <g class="st6">
        <path class="st2" d="M53.3,115.8h-.5c-1.6,0-5.8-.2-10.2-1-.1,0-.2,0-.3,0-2.8-.5-5.5-1.3-8.2-2.3-3.9-1.3-8-3.2-11.4-5.3-.1,0-.2-.1-.3-.2-4.1-2.6-11.8-8.4-16.8-17.9,0-.2-.2-.4-.3-.5-2.8-5.6-4.5-11.8-4.7-18,0-.2,0-.3,0-.5-.2-7.8,1.8-14.6,3-17.9,0-.1,0-.3.1-.4,1.4-3.7,3.4-7.7,5.6-11,0,0,0-.1.1-.2.4-.6,1.4-2,2.9-3.9,1.5-2.1,2.9-3.7,3.7-4.5,0,0,.1-.1.2-.2,1.9-2.1,8.6-9.2,17.3-13.6.2,0,.4-.2.6-.3,9.4-4.5,18.7-4.8,23.5-4.6,0,0,.2,0,.3,0,9.3.5,17.3,3.6,20.3,4.9,0,0,.1,0,.2,0,4.9,2.2,12.7,6.7,18.4,12.4,0,0,.2.2.3.3,5.5,5.7,9.7,12.9,11.7,20.2,0,.1,0,.3.1.4.5,2,.9,4.1,1.2,6.2,1.4,6.9.9,12.8.6,15.4,0,.2,0,.3,0,.5-1.2,8.8-5.3,17.6-11.2,24.3,0,0-.1.2-.2.2-5,5.6-10.7,9.1-13,10.3,0,0-.1,0-.2,0-3.4,1.9-7.8,3.7-11.6,4.7,0,0,0,0,0,0-5,1.4-10.3,2.1-16.6,2.2-.1,0-.3,0-.4,0-.4,0-1,0-1.7,0-.8,0-1.4,0-1.9,0h0Z"/>
      </g>
      <g class="st6">
        <path class="st2" d="M57.8,112.2c-1.6,0-3.3,0-5-.2-4.4-.3-10.2-.9-16.4-3.5-.2,0-.5-.2-.7-.3-8.5-3.7-15.5-9.6-20.3-17.1-.2-.3-.4-.6-.6-1-1.5-2.5-2.7-5.2-3.7-7.9-1.7-4.5-2.6-8.7-2.9-12.2-.6-5-.2-9.3.4-12.6.4-2.3,1-5,1.9-7.7.1-.6.3-1.2.4-1.7,0-.2.1-.4.2-.6,1.5-5,4.4-11.9,10.5-18.2,2.7-3.2,4.9-5,6-5.8.2-.2.4-.3.6-.5,6.4-4.9,13.1-7.3,18.9-8.3,6.4-1.5,13.2-1.4,19.8.1.5,0,1,.1,1.4.2,5.6.6,12.6,2.3,19.3,6.5.3.2.6.4.9.6.6.4,1.2.8,1.8,1.2,2.5,1.6,5.2,3.6,7.8,6.1.1.1.3.3.4.4.3.3.6.6.9,1,1.8,1.9,3.5,3.9,4.9,6,.1.2.3.4.4.6,4,6.1,6.5,13.1,7.1,20.3,0,.2,0,.5,0,.7.4,6.7-.8,12.5-2,16.7,0,.3-.1.5-.2.8,0,.2,0,.3-.1.5-2.2,8.9-7.5,17.5-14.6,23.6-.1.1-.2.2-.4.3-6.6,5.6-13.8,8.3-17.5,9.5-.2,0-.3,0-.5.1-4,1.2-8.5,1.9-12.8,2.2-.4,0-.7,0-.8,0,0,0,0,0,0,0-1.5.1-3.1.2-4.8.2h0Z"/>
      </g>
      <g class="st6">
        <path class="st2" d="M59.7,114.9c-4.9,0-10.5-.6-14.9-1.6,0,0-.2,0-.3,0-5.8-1.4-12-4.1-16.9-7.5-.1,0-.3-.2-.4-.3-2.4-1.7-4.8-3.7-6.9-6,0,0-.1-.1-.2-.2-4.8-4.4-8.5-9.9-10.9-15.8-3.1-7.9-3.7-16.5-1.7-24.7.3-2.9,1-7,2.5-11.2.5-2,1.1-4.1,1.9-6.2,0-.2.2-.4.3-.7,2.5-6,6.5-11.7,11.2-16.1.2-.2.4-.4.6-.5,6.4-5.7,15-9.9,23.7-11.4.2,0,.3,0,.5,0,2.4-.4,4.8-.5,6.9-.6,4.7-.3,10,0,14.4.9.1,0,.3,0,.4,0,.5.1,1.7.4,4.2,1.1,3.6,1,13.3,3.8,21.5,13.2,4.4,3.5,9.8,9,13.4,17,0,.2.2.4.2.6,4.6,10.8,3.7,21.3,3.1,25.4,0,0,0,.1,0,.2-.8,4.7-2.5,10.3-4.7,14.6-1.6,3.4-3.6,6.5-6.1,9.4-.5.6-.9,1.1-1.2,1.4,0,0,0,0,0,0-2.8,3.3-6.3,6.3-8.6,8.1,0,0-.1,0-.2.1-3.7,2.8-8.3,5.3-12.7,7,0,0-.2,0-.3.1-4.4,1.7-9.8,2.9-14.4,3.3,0,0-.1,0-.2,0-1.3.1-2.7.2-4.2.2h0Z"/>
      </g>
      <g class="st6">
        <path class="st2" d="M73.5,109.6c-1.9,0-3.8-.1-5.7-.4-2.7,0-5.4,0-8.1-.5-9.8-.9-19.2-5.1-26.4-12.4-.2-.2-.4-.4-.6-.6-4.9-5.2-12.9-16.4-10.9-33.2.2-1.4.4-2.8.7-4.3.9-4.8,2.3-8.9,4.1-12.6,0-.1.1-.2.2-.3,1.9-3.7,6.1-10.8,13.3-16.3,0,0,.2-.1.3-.2,7.6-5.7,16.5-8.6,25.3-8.8,3.1-.5,5.8-.6,7.7-.7,20-.2,31,11.7,34.8,16.8,5.1,6.9,7.8,14.9,8.1,23,.7,4.8.5,9.8-.6,14.7-.3,1.2-.6,2.4-1,3.6-.5,1.4-1,2.7-1.6,4.1-4.1,12-13.8,22-27,26.1-4.2,1.3-8.4,1.9-12.6,1.9h0Z"/>
      </g>
      <g class="st6">
        <path class="st2" d="M49.4,105.3c-8.2,0-15.9-2.3-22.4-6.4-13.9-7.2-22.7-21.6-22.3-37.2.2-8,2.5-15.8,6.6-22.7,0-.1.1-.2.2-.4.1-.2.4-.6.7-1.1.6-.9,1.2-1.9,1.8-2.9,3.8-5.7,7.7-9.9,12.4-13.3.2-.1.4-.3.6-.4,3.1-2.1,5.9-3.4,9.5-5.1,18.8-8.5,41-2.3,52.4,14.7,7,10.4,8.6,23,5.2,34.3-.9,3.2-2.3,6.3-4,9.2,0,0,0,.1,0,.2-4.4,17.2-19.9,30.2-38.9,30.9-.6,0-1.1,0-1.7,0h0Z"/>
      </g>
      <g class="st6">
        <path class="st2" d="M45.8,112.7c-7.9,0-15.7-2.2-22.4-6.4-12.2-6.4-20.7-18.6-21.9-32.5-1.1-6.4-1-15,3.5-24.3,5.7-13.3,17.9-22.9,32.6-25,9.4-1.4,18.9.5,26.9,5,8.6,3.5,16,9.7,20.7,18.4,7.7,13.9,6.3,30.3-2.2,42.5-3.8,7.3-9.8,13.5-17.7,17.6-6.2,3.2-12.9,4.7-19.5,4.7h0Z"/>
      </g>
      <g class="st6">
        <path class="st2" d="M70.3,113.4c-7,0-14.1-1.7-20.6-5.3-2.8-1.5-5.3-3.4-7.6-5.4-1.2-1-2.3-2-3.4-3.1-9.8-8.3-15.6-20.9-14.4-34.6,1.9-21.4,20.1-37.5,41.6-37.5h.5c7.7-1.1,15.8,0,23.4,3.4,17.1,7.7,26.3,25.3,23.9,42.7-1,10.6-5.9,17.6-9,22-8.1,11.5-21.1,17.9-34.5,17.9h0Z"/>
      </g>
      <g class="st6">
        <path class="st2" d="M52.1,91.6c-13.1,0-25.9-6.2-33.6-17.8-12.2-18.2-7.1-42.7,11.5-54.6l8.4-5.4c18.5-12,43.5-6.9,55.7,11.3,12.2,18.2,7.1,42.7-11.5,54.6l-8.4,5.4c-6.8,4.4-14.5,6.5-22.1,6.5h0Z"/>
      </g>
      <g class="st6">
        <path class="st2" d="M52,99.1c-3.2,0-6.5-.4-9.7-1.2-21.6-5.3-34.7-26.7-29.3-47.8l2.4-9.6c5.4-21.1,27.2-34,48.7-28.7,21.6,5.3,34.7,26.7,29.3,47.8l-2.4,9.6c-4.6,17.9-21,29.9-39,29.9Z"/>
      </g>
      <path class="st0" d="M26.6,83.8c7.4,0,13.4-5.5,13.4-12.3s-6-12.3-13.4-12.3-13.4,5.5-13.4,12.3,6,12.3,13.4,12.3Z"/>
      <path class="st0" d="M91.5,85c7.4,0,13.4-5.5,13.4-12.3s-6-12.3-13.4-12.3-13.4,5.5-13.4,12.3,6,12.3,13.4,12.3Z"/>
      <path class="st1" d="M52.8,49.7c0,10-8.3,18.1-18.6,18.1s-18.6-8.1-18.6-18.1,8.3-18.1,18.6-18.1,18.6,8.1,18.6,18.1Z"/>
      <path class="st3" d="M52.8,49.7c0,10-8.3,18.1-18.6,18.1s-18.6-8.1-18.6-18.1,8.3-18.1,18.6-18.1,18.6,8.1,18.6,18.1Z"/>
      <path class="st8" d="M46.7,49c0,6.7-5.5,12.2-12.2,12.2s-12.2-5.5-12.2-12.2,5.5-12.2,12.2-12.2,12.2,5.5,12.2,12.2Z"/>
      <path class="st3" d="M46.7,49c0,6.7-5.5,12.2-12.2,12.2s-12.2-5.5-12.2-12.2,5.5-12.2,12.2-12.2,12.2,5.5,12.2,12.2Z"/>
      <path class="st1" d="M103.3,49.7c0,10-8.3,18.1-18.6,18.1s-18.6-8.1-18.6-18.1,8.3-18.1,18.6-18.1,18.6,8.1,18.6,18.1Z"/>
      <path class="st3" d="M103.3,49.7c0,10-8.3,18.1-18.6,18.1s-18.6-8.1-18.6-18.1,8.3-18.1,18.6-18.1,18.6,8.1,18.6,18.1Z"/>
      <path class="st8" d="M96.6,49c0,6.7-5.4,12.2-12,12.2s-12-5.5-12-12.2,5.4-12.2,12-12.2,12,5.5,12,12.2Z"/>
      <path class="st3" d="M96.6,49c0,6.7-5.4,12.2-12,12.2s-12-5.5-12-12.2,5.4-12.2,12-12.2,12,5.5,12,12.2Z"/>
      <g class="st5">
        <g>
          <path class="st7" d="M45.2,72.2c9.6,0,19.2-.1,28.8-.2,1.1,0,2.1-1.3,2-2.5-.2-1.3-1.1-2.2-2.4-2.1-9.6,0-19.2.1-28.8.1-1.1,0-2.1,1.3-2,2.5.2,1.3,1.1,2.2,2.4,2.1Z"/>
          <path class="st7" d="M42.9,70.7c0,3.3.9,6.5,2.6,9.3,1.9,3.1,4.8,5.1,8.1,6.1,6.5,2,14.7,1.6,19.5-4.1,2.6-3.1,3.2-7.2,3.5-11.2,0-1.2-.5-2.5-1.8-2.7-1.1-.2-2.4.5-2.5,1.8-.1,1.5-.2,3.1-.5,4.6-.1.7-.3,1.3-.5,1.8-.1.3-.3.6-.4,1-.2.4-.3.6-.4.7-.3.5-.8,1.1-1.1,1.4-.3.3-1,.9-1.5,1.2-.6.4-.7.5-1.4.8-.6.3-1.3.5-2,.7-2.7.7-5.9.4-8.7-.2-1.4-.3-2.5-.7-3.8-1.5-.4-.3-.2-.1-.1,0-.1,0-.2-.2-.4-.3-.3-.2-.5-.4-.8-.6-.2-.2-.4-.4-.6-.6-.3-.3.3.4-.1-.2-.1-.1-.2-.3-.3-.4-.2-.3-.4-.6-.6-.9,0-.1-.2-.3-.2-.4,0-.1-.2-.5,0-.2-.3-.7-.6-1.4-.8-2.1-.1-.4-.2-.7-.3-1.1,0,.1,0,.4,0,0,0-.2,0-.5-.1-.7-.1-.8-.2-1.5-.2-2.3,0-1.2-1.3-2.3-2.4-2.1-1.3.2-2,1.2-2,2.5Z"/>
        </g>
      </g>
    </g>
  </g>
</svg>