<svg width="51" height="50" viewBox="0 0 51 50" fill="none" xmlns="http://www.w3.org/2000/svg">
<g clip-path="url(#clip0_153_3123)">
<g opacity="0.55">
<path d="M28.2778 39.2749C21.2418 39.2749 14.612 35.1064 11.9572 28.3274L11.3287 26.7228C7.89497 17.9521 12.4172 8.13375 21.4293 4.79197C30.4415 1.45019 40.5301 5.85125 43.9639 14.622L44.5924 16.2266C48.0261 24.9973 43.5039 34.8157 34.4918 38.1574C32.4463 38.9156 30.3435 39.276 28.2778 39.276V39.2749Z" fill="#FFEA4B"/>
</g>
<g opacity="0.55">
<path d="M29.1941 39.0726C27.8225 39.0726 26.4306 38.9144 25.0399 38.5842C15.6705 36.3587 9.92965 27.1635 12.2164 18.0452L12.367 17.444C14.655 8.32564 24.1032 2.73857 33.4714 4.9641C42.8408 7.18963 48.5817 16.3847 46.2949 25.5031L46.1444 26.1043C44.1969 33.868 37.0557 39.0726 29.1941 39.0726Z" fill="#FFEA4B"/>
</g>
<g opacity="0.55">
<path d="M25.6888 45.5898C16.8212 45.5898 9.23084 39.0434 8.33357 30.2774L8.32998 30.2471C8.3264 30.2111 8.32281 30.175 8.31803 30.139C8.31326 30.0948 8.30848 30.0506 8.3037 30.0053L8.29772 29.9541C8.29175 29.8995 8.28578 29.8471 8.2798 29.7925L8.23201 29.3576C8.22604 29.3076 8.22006 29.253 8.21528 29.203L8.19019 28.9646C8.18183 28.8913 8.17347 28.8181 8.1663 28.7437L8.15435 28.6332C8.14957 28.5937 8.14599 28.553 8.14121 28.5134L8.12807 28.3867C8.1197 28.3146 8.11253 28.2414 8.10417 28.1693C8.08744 28.0204 8.07191 27.8728 8.05638 27.7239L8.01815 27.3739C8.01337 27.3297 8.00859 27.2856 8.00381 27.2402L7.90225 26.3007C7.88553 26.1495 7.86999 26.0054 7.85446 25.8612C7.85088 25.8251 7.8461 25.7903 7.84252 25.7542L7.83774 25.703C7.82459 25.5786 7.81145 25.4542 7.79711 25.3286C7.79353 25.2972 7.78995 25.267 7.78756 25.2356L7.74454 24.8345C7.72543 24.6682 7.7087 24.5019 7.69078 24.3356L7.65255 23.9868C7.64777 23.9496 7.64418 23.9124 7.6406 23.8752L7.60715 23.5612C7.59161 23.4205 7.57608 23.2798 7.56174 23.1392L7.53426 22.8926C7.52949 22.8473 7.52471 22.8008 7.51993 22.7554L7.51156 22.6752C7.50439 22.6089 7.49723 22.5415 7.49006 22.4752L7.47214 22.3159C7.46377 22.2462 7.4578 22.1834 7.45063 22.1136L7.44585 22.0729C7.44107 22.0334 7.43749 21.9938 7.43271 21.9555C7.42793 21.9124 7.42315 21.8683 7.41837 21.8252L7.41479 21.795C6.36339 12.4696 13.2739 4.07799 22.856 3.04778C32.4417 2.01758 41.0703 8.74416 42.1289 18.073L42.154 18.3032C42.1611 18.366 42.1683 18.43 42.1743 18.4928L42.1778 18.523C42.1826 18.5683 42.1874 18.6137 42.1922 18.659C42.1982 18.7114 42.2041 18.7637 42.2089 18.816L42.2149 18.8753C42.2197 18.9218 42.2256 18.9788 42.2316 19.0253L42.2878 19.5427C42.2925 19.5799 42.2961 19.6183 42.2997 19.6555C42.3093 19.7416 42.3164 19.8206 42.326 19.9009C42.3308 19.9416 42.3356 19.9811 42.3391 20.0218L42.418 20.745C42.4216 20.7753 42.4252 20.8055 42.4276 20.8357C42.4395 20.9497 42.4515 21.0613 42.4634 21.1729C42.4682 21.2101 42.4718 21.2473 42.4753 21.2845L42.5184 21.6869C42.5375 21.8601 42.5554 22.0322 42.5745 22.2043C42.5948 22.3868 42.6139 22.5682 42.6343 22.7508C42.6343 22.7613 42.6366 22.7787 42.6378 22.7892L42.7358 23.6961C42.7454 23.7868 42.7561 23.8787 42.7657 23.9694L42.7824 24.1263C42.7872 24.1659 42.7908 24.2042 42.7955 24.2438C42.8063 24.3449 42.8171 24.4461 42.8278 24.5473C42.8326 24.5891 42.8374 24.631 42.841 24.674L42.9079 25.2903C42.9138 25.3426 42.9198 25.3949 42.9246 25.4472L42.9795 25.9507C42.9855 25.9995 42.9915 26.0542 42.9963 26.103L43.0022 26.1623C43.0094 26.224 43.0154 26.2856 43.0226 26.3472L43.0381 26.4879C43.0453 26.5519 43.0524 26.6112 43.0584 26.6751L43.062 26.7088C43.0692 26.7809 43.0775 26.8519 43.0847 26.9239C44.0333 36.2644 37.0224 44.584 27.4248 45.5072C26.8418 45.563 26.2611 45.5909 25.6864 45.5909L25.6888 45.5898Z" fill="#FFEA4B"/>
</g>
<g opacity="0.55">
<path d="M18.1836 46.991C9.06507 46.991 1.38867 40.1016 0.776944 31.1181L0.632376 28.9914C-0.0032419 19.6277 7.28128 11.5337 16.904 10.9139C26.529 10.2954 34.8435 17.3835 35.4803 26.7484L35.6248 28.8751C36.2617 38.24 28.9771 46.334 19.3544 46.9537C18.9626 46.9793 18.5719 46.991 18.1848 46.991H18.1836Z" fill="#FFEA4B"/>
</g>
<g opacity="0.55">
<path d="M27.5658 48.3188C23.8727 48.3188 21.1116 47.2211 19.9874 46.77C18.2203 46.1258 16.7459 45.42 15.3684 44.5595C15.3289 44.5351 15.2895 44.5107 15.2501 44.4851C14.6228 44.0875 12.4316 42.6305 10.5546 40.6027C10.5188 40.5643 10.4829 40.5248 10.4483 40.4864C9.20335 39.1178 6.95001 36.2423 5.85201 32.3633C5.82931 32.2819 5.80661 32.1994 5.78391 32.118C4.91054 28.8518 5.09692 25.8158 5.28569 24.2961C5.29047 24.26 5.29406 24.2252 5.29884 24.1903C5.34663 23.8217 5.41951 23.3577 5.52943 22.8194C5.57363 22.5345 5.62381 22.2473 5.68236 21.9636C5.6955 21.8973 5.70984 21.8322 5.72417 21.7659C6.28213 19.1823 7.35504 16.9626 7.85684 16.0126C8.68362 13.7208 9.86764 11.9208 10.5319 11.0127C10.6275 10.8825 10.7243 10.7534 10.8235 10.6267C13.3002 7.43255 16.8523 5.04889 20.8273 3.91404C20.9707 3.87334 21.1128 3.8338 21.2574 3.7966C21.8213 3.65009 23.5358 3.20475 26.248 3.15126C26.4069 3.14777 26.5658 3.14661 26.7247 3.14777C31.6292 3.17568 36.118 4.80587 39.5517 7.72324C41.2101 8.67671 43.9867 10.5941 46.1708 13.708C47.0418 14.6917 47.9032 15.8463 48.6356 17.1672C48.6834 17.2532 48.7312 17.3404 48.7766 17.4277C50.9988 21.6008 51.5998 26.7809 50.3847 31.2843C50.3608 31.3738 50.3357 31.4645 50.3095 31.5541C49.0514 35.9319 46.3165 39.0027 44.798 40.4434C44.7585 40.4817 44.7179 40.519 44.6773 40.5562C43.5948 41.5643 42.2639 42.5515 40.8445 43.4224C40.6533 43.5642 40.4598 43.7038 40.2614 43.8386L39.4143 44.4212C39.3689 44.4526 39.3235 44.4828 39.2781 44.5142C36.026 46.706 32.6041 47.9653 29.1106 48.256C29.0031 48.2653 28.8956 48.2734 28.7868 48.2804C28.3699 48.3083 27.9636 48.3199 27.567 48.3199L27.5658 48.3188Z" fill="#FFEA4B"/>
</g>
<g opacity="0.55">
<path d="M28.034 46.742C27.5991 46.742 27.1989 46.7316 26.8452 46.7153C26.8165 46.7141 26.7867 46.713 26.758 46.7106C25.5525 46.6513 24.0244 46.4641 22.4042 46.1165C19.7053 45.7595 16.9394 44.8607 14.6143 43.5828C14.5462 43.5456 14.4793 43.5084 14.4112 43.47C10.2666 41.1247 7.15896 37.526 5.66191 33.3342C5.60695 33.1807 5.55438 33.0261 5.50301 32.8703C3.96175 28.139 4.7503 23.531 5.16011 21.7694C5.16967 21.7264 5.18042 21.6834 5.18998 21.6415C5.21387 21.5427 5.23777 21.4438 5.26405 21.345C5.6428 19.5764 6.31784 17.5242 7.50425 15.4719C7.54726 15.3975 7.59027 15.3242 7.63329 15.251C8.59747 13.637 9.95234 11.9406 11.3502 10.5976C11.4004 10.5499 11.4494 10.5022 11.5008 10.4546C13.8533 8.24415 16.839 6.51977 19.906 5.60003C20.0004 5.57212 20.0959 5.54422 20.1915 5.51747C20.6157 5.39771 21.0362 5.29422 21.4508 5.20585C22.8368 4.88144 24.243 4.69424 25.6146 4.66168C25.697 4.65935 25.7783 4.65819 25.8607 4.65703C27.9886 4.63377 30.4606 4.96632 32.4774 5.54538C32.5108 5.55468 32.5455 5.56514 32.5789 5.57445C33.3507 5.80119 34.3615 6.15001 35.493 6.67209C36.481 7.07441 37.364 7.49766 38.0868 7.89532C38.1119 7.90927 38.137 7.92323 38.1621 7.93718C39.2565 8.5453 41.0833 9.68597 42.842 11.3464C44.6485 12.844 46.173 14.6893 47.32 16.8125C47.3762 16.9172 47.4323 17.023 47.4861 17.1288C48.1408 18.402 48.5387 19.5369 48.9664 20.9543C49.4395 22.5205 49.8864 24.267 49.9521 26.4204C49.9569 26.5949 49.9604 26.7693 49.9604 26.9437C49.9604 32.2075 47.6294 37.1423 43.5254 40.6503C42.6962 41.4038 41.8515 42.1422 40.7643 42.8817C40.7368 42.9003 40.7093 42.9189 40.6807 42.9375C38.4548 44.434 35.5575 45.6711 32.929 46.2467C32.8513 46.2641 32.7725 46.2804 32.6936 46.2967C31.003 46.6444 29.353 46.742 28.0328 46.742H28.034ZM42.4848 41.4817C42.4848 41.4817 42.4776 41.4864 42.4752 41.4887C42.4788 41.4864 42.4824 41.484 42.4848 41.4817Z" fill="#FFEA4B"/>
</g>
<g opacity="0.55">
<path d="M27.8252 47.2421C27.4608 47.2421 27.1358 47.2339 26.8586 47.2211C26.8013 47.2188 26.7451 47.2165 26.6878 47.213C24.7271 47.1107 22.4499 46.6967 20.5956 46.106C20.5287 46.0851 20.463 46.063 20.3961 46.0409C15.8619 44.541 11.746 41.2922 9.38747 37.3528C9.31818 37.2377 9.25127 37.1214 9.18436 37.0039C6.86292 32.9157 6.64069 28.6739 6.71596 26.5089C6.71716 26.4716 6.71835 26.4344 6.72074 26.3972C6.80079 24.445 7.20104 21.4741 8.65388 18.416C8.6718 18.3788 8.68973 18.3416 8.70765 18.3044C9.14613 17.3986 10.7937 14.2464 13.6014 11.7255C13.6492 11.6825 13.697 11.6406 13.7448 11.5976C16.1618 9.47439 19.6565 7.6849 22.8645 6.92794C22.9445 6.90934 23.0246 6.89073 23.1034 6.87329C25.7642 6.28261 28.2075 6.29307 29.4274 6.35237C31.4191 6.44888 32.6688 6.65237 33.4585 6.80818C34.3152 6.95701 35.1611 7.15468 35.9855 7.40235C36.0357 7.41746 36.0846 7.43258 36.1336 7.44769C37.8768 7.98722 40.4348 8.97905 42.718 10.636C42.7825 10.6837 42.8482 10.7302 42.9116 10.779C45.7002 12.8604 47.9308 15.7742 49.1925 18.9858C49.2331 19.0893 49.2725 19.1939 49.3119 19.2974C49.3573 19.4207 49.4016 19.5427 49.4434 19.666C50.214 21.7776 50.4828 23.7066 50.5533 25.1414C50.5569 25.2263 50.5605 25.3112 50.5641 25.3961C50.6346 27.4519 50.3538 29.5913 49.7504 31.582C49.7182 31.689 49.6847 31.7959 49.6501 31.9029C48.5449 35.3121 46.3489 38.5516 43.5484 40.9434C42.7849 41.6829 41.9545 42.405 41.1122 43.0143C41.0621 43.0515 41.0107 43.0875 40.9593 43.1236C39.0465 44.4759 36.7621 45.5165 35.2614 46.0409C35.185 46.0677 35.1073 46.0944 35.0297 46.12C32.2542 47.0479 29.5791 47.2421 27.8264 47.2421H27.8252Z" fill="#FFEA4B"/>
</g>
<g opacity="0.55">
<path d="M26.5802 50.0001C23.794 50.0001 20.6458 49.5095 18.1367 48.6548C18.0913 48.6397 18.0459 48.6234 18.0005 48.6083C17.1558 48.313 16.3111 47.9572 15.4879 47.5514C14.703 47.2525 13.8774 46.8898 13.047 46.4514C13.0136 46.434 12.9789 46.4153 12.9455 46.3967C12.2537 46.0258 11.2668 45.4421 10.1736 44.6282C6.98713 42.5247 4.6191 39.8748 3.12802 36.7388C3.08382 36.647 3.04081 36.554 2.99899 36.4609C1.75165 33.7145 1.14829 30.6739 1.25343 27.6635C1.25343 27.6565 1.25343 27.6495 1.25343 27.6426C1.25343 27.6414 1.25343 27.6402 1.25343 27.6391C1.27732 27.01 1.42667 24.9368 1.81855 23.1903C1.82333 23.1694 1.82811 23.1496 1.83289 23.1287C2.27018 21.2102 3.07067 19.1974 3.62266 18.0567C3.637 18.0277 3.65133 17.9974 3.66567 17.9684C4.41121 16.451 5.57014 14.644 6.62034 13.365C6.63468 13.3464 6.65021 13.3289 6.66574 13.3103C7.67413 12.0918 9.44478 10.3197 11.3899 8.99999C11.4424 8.96394 11.4962 8.92789 11.55 8.89301C13.8332 7.37793 16.6779 6.21401 19.353 5.6989C19.4223 5.68495 19.4928 5.67216 19.5621 5.65937C22.1739 5.18729 24.6793 5.32217 25.9529 5.44775C26.4858 5.45938 27.0115 5.48844 27.5181 5.53147C27.5599 5.53495 27.6005 5.53844 27.6423 5.54309C29.9375 5.75821 31.9674 6.32447 32.7333 6.55702C32.7631 6.56632 32.793 6.57563 32.8229 6.58493C32.9638 6.62911 33.1084 6.67562 33.2554 6.72562C34.216 6.94073 35.2017 7.22096 36.1682 7.58723C36.2662 7.62444 36.3642 7.66165 36.4609 7.70118C38.8302 8.64418 40.9784 10.0348 42.8458 11.836C43.6499 12.6104 44.3787 13.4452 45.0275 14.3278C47.9092 17.3428 49.7002 21.2485 50.0718 25.331C50.0837 25.4589 50.0933 25.5868 50.1028 25.7147C50.4565 30.882 48.4529 34.8703 47.2258 36.7877C47.1362 36.9272 47.0454 37.0656 46.9522 37.2028C46.8232 37.3935 46.6894 37.5807 46.5544 37.7644C45.7969 39.2492 45.0263 40.3504 44.6033 40.9132C44.5782 40.9469 44.5531 40.9806 44.5268 41.0132C43.5017 42.355 42.166 43.7456 40.8637 44.827C40.8446 44.8433 40.8254 44.8584 40.8063 44.8747C39.964 45.5677 37.6844 47.306 34.7202 48.456C34.6556 48.4804 34.5911 48.506 34.5266 48.5304C32.6867 49.2211 30.4166 49.7397 28.4548 49.9199C28.4154 49.9234 28.3759 49.9269 28.3365 49.9304C27.775 49.9781 27.1859 50.0013 26.579 50.0013L26.5802 50.0001Z" fill="#FFEA4B"/>
</g>
<g opacity="0.55">
<path d="M25.9709 49.7664C25.2182 49.7664 24.4798 49.7374 23.7749 49.6862C23.6064 49.6885 23.4428 49.6885 23.2851 49.6862C23.2205 49.6862 23.1548 49.6851 23.0903 49.6827C21.6817 49.6537 18.052 49.4641 14.7663 48.3409C14.7197 48.3246 14.6731 48.3095 14.6265 48.2921C13.875 48.0281 11.2346 47.0328 8.78889 45.2805C8.74349 45.248 8.69928 45.2154 8.65388 45.1828C6.88562 43.891 3.65257 41.0562 1.85922 36.5865C1.82815 36.5075 1.79709 36.4284 1.76602 36.3493C0.524657 33.1169 0.16981 29.2763 0.794676 25.8136C0.806623 25.7484 0.818571 25.6833 0.830519 25.6182C0.868752 25.4182 0.910569 25.2194 0.954775 25.024C1.22121 23.6462 1.58561 22.5101 1.8855 21.7125C1.90701 21.6555 1.92851 21.5997 1.95002 21.5439C2.76007 19.4614 3.86882 17.7068 4.45784 16.8463C4.47338 16.8231 4.48891 16.7998 4.50564 16.7777C5.22011 15.7452 7.83188 12.1906 11.4628 9.83488C11.513 9.80232 11.5631 9.76976 11.6145 9.73721C13.9264 8.2698 16.5645 7.2768 19.2909 6.82449C19.9218 6.68147 20.5801 6.56286 21.2611 6.47682C21.328 6.46868 21.3937 6.46054 21.4606 6.4524C24.3185 6.1245 27.229 6.51519 27.5516 6.5617C27.6065 6.56984 27.6615 6.57798 27.7177 6.58612C28.1549 6.6524 28.5922 6.73263 29.0283 6.82681C30.5278 7.07564 32.0583 7.47098 33.3785 7.95934C33.4 7.96748 33.4215 7.97562 33.4418 7.9826C36.9795 9.30698 39.5531 11.4604 40.4957 12.3244C40.5352 12.3604 40.5746 12.3964 40.614 12.4337C40.7777 12.586 40.939 12.7429 41.0979 12.9034C42.3644 13.8545 43.7383 15.0871 44.9236 16.6103C44.9809 16.6847 45.0382 16.758 45.0944 16.8335C47.0502 19.4312 47.9451 22.1253 48.3526 23.9276C48.386 24.0752 48.4171 24.2229 48.4469 24.3706C48.9762 27.0414 48.8866 29.939 48.2223 32.6518C47.7289 35.0749 46.7934 37.404 45.4791 39.4353C45.4337 39.5062 45.3871 39.5772 45.3393 39.6469C43.6547 42.1701 41.5913 43.9422 40.5113 44.7747C40.4766 44.8015 40.4408 44.8282 40.4061 44.8549C39.0668 45.8712 37.3714 46.8898 35.8696 47.5816C35.8325 47.5991 35.7955 47.6153 35.7585 47.6328C35.1169 47.9235 32.8241 48.9083 30.2625 49.3955C30.198 49.4072 30.1347 49.4199 30.0702 49.4316C28.7356 49.6711 27.3294 49.7676 25.9685 49.7676L25.9709 49.7664Z" fill="#FFEA4B"/>
</g>
<g opacity="0.55">
<path d="M22.9469 49.5025C22.9135 49.5025 22.88 49.5025 22.8501 49.5025C22.8071 49.5025 22.7641 49.5025 22.7211 49.5025C22.0269 49.4943 20.2049 49.4362 18.2766 49.0827C18.2288 49.0734 18.181 49.0653 18.1332 49.056C16.9348 48.8258 15.7341 48.4851 14.5692 48.0502C12.8654 47.477 11.0888 46.6537 9.62283 45.7537C9.57384 45.7235 9.52486 45.6933 9.47587 45.663C7.6873 44.5421 4.36225 42.048 2.18419 37.9388C2.14356 37.8621 2.10414 37.7853 2.06471 37.7086C0.838873 35.3098 0.131569 32.6296 0.0168707 29.9553C0.0132863 29.8809 0.0108968 29.8065 0.00850726 29.732C-0.0918535 26.3868 0.773161 23.4566 1.29767 22.0078C1.31798 21.952 1.33829 21.8962 1.3586 21.8415C1.94762 20.2637 2.83056 18.5381 3.7804 17.1068C3.79713 17.0812 3.81505 17.0556 3.83177 17.0289C4.00741 16.7672 4.43036 16.158 5.07434 15.3684C5.73743 14.4766 6.34916 13.7661 6.66099 13.415C6.68369 13.3894 6.70759 13.3627 6.73029 13.3371C7.53676 12.4394 10.4628 9.36393 14.2466 7.48026C14.3338 7.43723 14.421 7.39421 14.5082 7.35235C18.5824 5.40473 22.6387 5.28031 24.6937 5.38031C24.7319 5.38263 24.7701 5.3838 24.8084 5.38612C28.8276 5.60472 32.3091 6.93492 33.6198 7.4977C33.6473 7.50933 33.6748 7.52095 33.7011 7.53258C35.8433 8.46395 39.2173 10.4255 41.675 12.8883C41.712 12.9255 41.749 12.9627 41.7861 13.0011C44.1804 15.444 45.9821 18.5416 46.8579 21.7229C46.8734 21.7787 46.8889 21.8357 46.9033 21.8915C47.1303 22.7485 47.3011 23.645 47.4146 24.5543C48.0037 27.5391 47.8053 30.0832 47.662 31.2053C47.6524 31.2797 47.6428 31.3541 47.6321 31.4285C47.098 35.2156 45.3298 39.026 42.7801 41.8841C42.7491 41.919 42.718 41.9527 42.6869 41.9876C40.5196 44.3805 38.0249 45.8863 37.0536 46.4235C37.0285 46.4374 37.0022 46.4514 36.9759 46.4654C35.5028 47.27 33.572 48.0525 31.9364 48.5083C31.9232 48.5118 31.9089 48.5153 31.8958 48.52C29.7033 49.1258 27.4189 49.4339 24.7056 49.4874C24.6447 49.4885 24.5838 49.4897 24.5228 49.4897C24.34 49.492 24.0843 49.492 23.7701 49.485C23.4404 49.4967 23.162 49.5013 22.9445 49.5013L22.9469 49.5025Z" fill="#FFEA4B"/>
</g>
<g opacity="0.55">
<path d="M24.9316 47.9619C24.2446 47.9619 23.5182 47.9374 22.7583 47.8898C20.861 47.77 18.3353 47.4898 15.622 46.3758C15.524 46.3351 15.426 46.2944 15.328 46.2526C11.6517 44.6677 8.60029 42.1166 6.50347 38.8749C6.41386 38.7365 6.32664 38.597 6.24181 38.4563C5.58469 37.3761 5.04823 36.2342 4.63126 35.0366C3.87855 33.1157 3.51893 31.289 3.36002 29.7809C3.08762 27.6228 3.26564 25.781 3.52371 24.3578C3.68739 23.3508 3.94307 22.2183 4.34093 21.0393C4.39947 20.7904 4.4616 20.5428 4.5309 20.2951C4.55599 20.2056 4.58108 20.116 4.60736 20.0265C5.2394 17.8835 6.53572 14.8929 9.17617 12.1732C10.3458 10.8116 11.3196 10.0407 11.7617 9.68954C11.8465 9.6221 11.9313 9.55582 12.0173 9.49071C14.7976 7.36867 17.7248 6.36055 20.2063 5.91056C22.9949 5.27918 25.9245 5.28732 28.7824 5.95707C28.9903 5.98614 29.1981 6.0187 29.406 6.05358C31.8242 6.33032 34.8745 7.06519 37.7826 8.85235C37.9128 8.93258 38.0418 9.01397 38.1697 9.09653C38.4301 9.26629 38.687 9.44187 38.9391 9.62442C40.0072 10.3105 41.2116 11.1965 42.3084 12.2709C42.3657 12.3267 42.4231 12.3837 42.4804 12.4406C42.6154 12.5767 42.7492 12.7162 42.8819 12.8569C43.674 13.665 44.3932 14.5278 45.0109 15.4208C45.0671 15.5022 45.122 15.5836 45.177 15.665C46.9226 18.2824 47.9823 21.309 48.2416 24.4182C48.25 24.5194 48.2571 24.6217 48.2643 24.7229C48.4519 27.5891 47.9322 30.1239 47.3742 31.9262C47.3491 32.0402 47.324 32.1553 47.2965 32.2704C47.2798 32.3413 47.2631 32.4122 47.2452 32.482C46.2893 36.3087 43.9834 40.0109 40.9165 42.6399C40.8627 42.6864 40.8089 42.7318 40.754 42.7771C37.8782 45.184 34.7717 46.3631 33.1767 46.8514C33.111 46.8712 33.0453 46.8909 32.9796 46.9107C31.2591 47.4165 29.2925 47.7421 27.4143 47.8398C27.2459 47.8572 27.1216 47.8688 27.0487 47.8758C27.038 47.8758 27.0272 47.8781 27.0165 47.8781C26.3701 47.9339 25.6724 47.9619 24.9304 47.9619H24.9316Z" fill="#FFEA4B"/>
</g>
<g opacity="0.55">
<path d="M25.7223 49.1199C23.5777 49.1199 21.1631 48.8734 19.2598 48.4397C19.2227 48.4316 19.1857 48.4223 19.1487 48.4141C16.617 47.82 13.9371 46.6467 11.7949 45.1944C11.7375 45.1561 11.6802 45.1165 11.624 45.077C10.5666 44.3421 9.55347 43.4712 8.62632 42.512C8.60123 42.4899 8.57734 42.4666 8.55225 42.4445C6.48171 40.5527 4.85204 38.1935 3.83649 35.6214C2.49834 32.2285 2.24027 28.5007 3.08378 24.9915C3.23193 23.7229 3.53779 21.9776 4.16863 20.1823C4.37174 19.3195 4.64535 18.4114 5.01214 17.4963C5.05037 17.4009 5.0898 17.3056 5.12923 17.2114C6.21169 14.6452 7.94172 12.179 9.99912 10.2651C10.0804 10.1895 10.1628 10.1139 10.2452 10.0407C13.0064 7.56747 16.7508 5.78147 20.5179 5.14078C20.5836 5.12916 20.6493 5.11869 20.715 5.10823C21.7628 4.94195 22.813 4.87335 23.7258 4.85242C25.7725 4.72335 28.0856 4.86753 29.9793 5.25357C30.0354 5.2652 30.0904 5.27683 30.1465 5.28845C30.3688 5.33613 30.8885 5.44659 31.9722 5.75356C33.5564 6.20239 37.7417 7.3884 41.2902 11.4534C43.1922 12.9592 45.5352 15.3487 47.0908 18.7939C47.1266 18.8742 47.1637 18.9556 47.1983 19.037C49.2079 23.6752 48.7945 28.2228 48.5233 29.9623C48.5185 29.9925 48.5138 30.0227 48.509 30.0518C48.1816 32.0773 47.405 34.4715 46.4683 36.3447C45.7849 37.7935 44.8996 39.1551 43.8279 40.3876C43.6044 40.6666 43.4264 40.8783 43.3165 41.005C43.3057 41.0166 43.2962 41.0294 43.2854 41.0411C42.0596 42.4538 40.5446 43.7677 39.5339 44.5259C39.51 44.5433 39.4873 44.5607 39.4634 44.5782C37.8468 45.7793 35.842 46.8805 33.9626 47.599C33.922 47.6142 33.8814 47.6304 33.8408 47.6455C31.9339 48.3595 29.6017 48.8839 27.6053 49.049C27.5802 49.0513 27.5551 49.0536 27.53 49.0548C26.9649 49.099 26.3543 49.1211 25.7223 49.1211V49.1199Z" fill="#FFEA4B"/>
</g>
<g opacity="0.55">
<path d="M31.7117 46.8316C30.8778 46.8316 30.0498 46.7747 29.2338 46.6654C28.0724 46.7084 26.9016 46.6433 25.7331 46.4642C21.4881 46.0735 17.4187 44.2573 14.2896 41.1097C14.2047 41.0248 14.1211 40.9388 14.0387 40.8515C11.906 38.6179 8.4555 33.7913 9.30737 26.5577C9.37667 25.974 9.47344 25.3577 9.5977 24.7229C9.99914 22.6718 10.5798 20.8939 11.3755 19.2858C11.3982 19.2404 11.4209 19.1951 11.4436 19.1486C12.2549 17.5428 14.0817 14.4964 17.2 12.1313C17.2383 12.1022 17.2765 12.0732 17.3147 12.0453C20.6039 9.59185 24.463 8.33141 28.3162 8.25583C29.6794 8.02095 30.8312 7.97677 31.6783 7.96863C40.3416 7.89189 45.1302 12.9953 46.7873 15.1905C49.018 18.1474 50.1901 21.6171 50.2976 25.1136C50.6034 27.1937 50.5306 29.3425 50.0455 31.4599C49.9248 31.989 49.7779 32.5111 49.6082 33.0273C49.4099 33.6261 49.1841 34.2075 48.9284 34.7726C47.1458 39.9411 42.9378 44.2375 37.1885 46.0061C35.3689 46.5654 33.5254 46.8316 31.7141 46.8316H31.7117Z" fill="#FFEA4B"/>
</g>
<g opacity="0.55">
<path d="M21.2861 44.9886C17.7161 44.9886 14.3708 43.977 11.5487 42.2247C5.50677 39.126 1.70859 32.9366 1.87227 26.1868C1.95591 22.7531 2.94876 19.3788 4.74689 16.4265C4.77796 16.3754 4.80902 16.3242 4.84128 16.273C4.90341 16.1742 5.00257 16.0161 5.13878 15.8114C5.38012 15.4068 5.63939 14.9952 5.91777 14.5754C7.54744 12.1208 9.26432 10.3057 11.3193 8.86276C11.4054 8.8023 11.4914 8.74299 11.5786 8.68486C12.9335 7.7686 14.1414 7.20233 15.6982 6.50468C23.8417 2.85244 33.505 5.53493 38.4418 12.8185C41.4921 17.3184 42.1743 22.7403 40.6808 27.6076C40.2722 28.9855 39.6904 30.3192 38.9401 31.5762C38.9269 31.6017 38.9138 31.6273 38.9006 31.6529C36.9842 39.0527 30.2481 44.6596 22.0161 44.9747C21.7724 44.984 21.5298 44.9886 21.2885 44.9886H21.2861Z" fill="#FFEA4B"/>
</g>
<g opacity="0.55">
<path d="M19.7103 48.1701C16.2646 48.1701 12.881 47.2131 9.97534 45.4236C4.66817 42.6597 1.00619 37.4308 0.457793 31.4298C-0.0093628 28.6845 0.0324542 24.9764 1.9644 20.9451C4.42921 15.1999 9.72683 11.0872 16.1177 10.1698C20.193 9.58495 24.3018 10.3873 27.7858 12.3233C31.4991 13.8209 34.7274 16.522 36.7884 20.23C40.123 26.2276 39.5232 33.2716 35.8481 38.5528C34.2077 41.6783 31.5947 44.3608 28.1633 46.1236C25.4632 47.5108 22.5646 48.1689 19.7091 48.1689L19.7103 48.1701Z" fill="#FFEA4B"/>
</g>
<g opacity="0.55">
<path d="M30.3247 48.4839C27.2816 48.4839 24.2039 47.7397 21.3843 46.1828C20.1763 45.5165 19.0772 44.734 18.0903 43.8572C17.5765 43.4386 17.0879 42.9921 16.6267 42.5224C12.3637 38.9469 9.86547 33.4994 10.3828 27.6262C11.1941 18.4207 19.1226 11.472 28.443 11.472C28.5099 11.472 28.5768 11.472 28.6437 11.472C31.9914 11.0022 35.5136 11.4359 38.8136 12.9173C46.2259 16.2416 50.2404 23.817 49.2093 31.2982C48.7792 35.8598 46.6513 38.8876 45.3131 40.791C41.8172 45.7642 36.1349 48.4815 30.3223 48.4815L30.3247 48.4839Z" fill="#FFEA4B"/>
</g>
<g opacity="0.55">
<path d="M22.4248 39.0946C16.7472 39.0946 11.1808 36.4052 7.82468 31.446C2.52109 23.6066 4.75054 13.0685 12.8045 7.90585L16.4509 5.5687C24.5037 0.407194 35.3331 2.57691 40.6379 10.4151C45.9415 18.2533 43.712 28.7925 35.6581 33.954L32.0116 36.2912C29.0534 38.1877 25.72 39.0946 22.4236 39.0946H22.4248Z" fill="#FFEA4B"/>
</g>
<g opacity="0.55">
<path d="M22.3948 42.3132C20.9981 42.3132 19.5787 42.1493 18.1629 41.8063C8.80428 39.5389 3.10761 30.317 5.43741 21.2102L6.49239 17.0871C8.8222 7.97917 18.2967 2.43396 27.6554 4.70251C37.014 6.9699 42.7107 16.1918 40.3809 25.2985L39.3259 29.4217C37.3486 37.1506 30.2253 42.3132 22.3948 42.3132Z" fill="#FFEA4B"/>
</g>
<path d="M11.3551 35.7324C14.5699 35.7324 17.176 33.3559 17.176 30.4243C17.176 27.4928 14.5699 25.1163 11.3551 25.1163C8.1403 25.1163 5.53418 27.4928 5.53418 30.4243C5.53418 33.3559 8.1403 35.7324 11.3551 35.7324Z" fill="#FFDB27"/>
<path d="M39.5612 36.23C42.776 36.23 45.3821 33.8536 45.3821 30.922C45.3821 27.9905 42.776 25.614 39.5612 25.614C36.3464 25.614 33.7402 27.9905 33.7402 30.922C33.7402 33.8536 36.3464 36.23 39.5612 36.23Z" fill="#FFDB27"/>
<path d="M22.7447 21.0626C22.7447 25.358 19.128 28.8401 14.6665 28.8401C10.2051 28.8401 6.58838 25.358 6.58838 21.0626C6.58838 16.7672 10.2051 13.285 14.6665 13.285C19.128 13.285 22.7447 16.7672 22.7447 21.0626Z" fill="white"/>
<path d="M22.7447 21.0626C22.7447 25.358 19.128 28.8401 14.6665 28.8401C10.2051 28.8401 6.58838 25.358 6.58838 21.0626C6.58838 16.7672 10.2051 13.285 14.6665 13.285C19.128 13.285 22.7447 16.7672 22.7447 21.0626Z" stroke="black"/>
<path d="M20.0887 20.734C20.0887 23.638 17.7106 25.9921 14.777 25.9921C11.8434 25.9921 9.46533 23.638 9.46533 20.734C9.46533 17.8301 11.8434 15.476 14.777 15.476C17.7106 15.476 20.0887 17.8301 20.0887 20.734Z" fill="#2E2C2C"/>
<path d="M20.0887 20.734C20.0887 23.638 17.7106 25.9921 14.777 25.9921C11.8434 25.9921 9.46533 23.638 9.46533 20.734C9.46533 17.8301 11.8434 15.476 14.777 15.476C17.7106 15.476 20.0887 17.8301 20.0887 20.734Z" stroke="black"/>
<path d="M44.6554 21.0626C44.6554 25.358 41.0386 28.8401 36.5772 28.8401C32.1157 28.8401 28.499 25.358 28.499 21.0626C28.499 16.7672 32.1157 13.285 36.5772 13.285C41.0386 13.285 44.6554 16.7672 44.6554 21.0626Z" fill="white"/>
<path d="M44.6554 21.0626C44.6554 25.358 41.0386 28.8401 36.5772 28.8401C32.1157 28.8401 28.499 25.358 28.499 21.0626C28.499 16.7672 32.1157 13.285 36.5772 13.285C41.0386 13.285 44.6554 16.7672 44.6554 21.0626Z" stroke="black"/>
<path d="M41.778 20.734C41.778 23.638 39.4494 25.9921 36.577 25.9921C33.7045 25.9921 31.376 23.638 31.376 20.734C31.376 17.8301 33.7045 15.476 36.577 15.476C39.4494 15.476 41.778 17.8301 41.778 20.734Z" fill="#2E2C2C"/>
<path d="M41.778 20.734C41.778 23.638 39.4494 25.9921 36.577 25.9921C33.7045 25.9921 31.376 23.638 31.376 20.734C31.376 17.8301 33.7045 15.476 36.577 15.476C39.4494 15.476 41.778 17.8301 41.778 20.734Z" stroke="black"/>
<g clip-path="url(#clip1_153_3123)">
<path d="M19.443 30.7171C23.6104 30.695 27.7778 30.673 31.9451 30.651C32.4413 30.6473 32.8699 30.0816 32.8041 29.5706C32.7306 28.9983 32.3081 28.6434 31.7766 28.6474C27.6067 28.6696 23.4418 28.6914 19.2743 28.7107C18.7781 28.7145 18.3497 29.2829 18.4155 29.7939C18.489 30.3662 18.9115 30.721 19.443 30.7171Z" fill="#1D1D1B"/>
<path d="M18.4561 30.0972C18.4602 31.5012 18.8453 32.9164 19.5683 34.1044C20.3885 35.4538 21.634 36.2888 23.0688 36.7233C25.9122 37.5838 29.4444 37.4184 31.5281 34.9687C32.6576 33.6424 32.9046 31.8812 33.0356 30.1566C33.0752 29.634 32.8145 29.0639 32.273 28.9799C31.806 28.9086 31.2138 29.2162 31.1723 29.7766C31.1217 30.4399 31.0689 31.1061 30.9415 31.7597C30.8775 32.0825 30.82 32.3025 30.7309 32.5386C30.6793 32.6774 30.6199 32.8142 30.5552 32.9487C30.471 33.1225 30.4314 33.1931 30.3769 33.2676C30.2318 33.4707 30.0097 33.7502 29.8931 33.8702C29.7669 33.9964 29.4655 34.2368 29.2545 34.3781C28.9908 34.5561 28.9496 34.5784 28.6493 34.7111C28.3733 34.8336 28.0879 34.9327 27.7981 35.0107C26.6092 35.3305 25.2497 35.1883 24.0077 34.9071C23.3906 34.7676 22.9207 34.6023 22.3535 34.273C22.1696 34.1646 22.2576 34.2164 22.3033 34.2476C22.2521 34.2115 22.2007 34.1727 22.1493 34.134C22.0356 34.0466 21.9289 33.9533 21.8219 33.8546C21.7285 33.7682 21.6397 33.6761 21.5532 33.5811C21.4331 33.4485 21.6821 33.7586 21.4995 33.5156C21.4511 33.4524 21.4002 33.3894 21.3542 33.3233C21.2595 33.1913 21.1696 33.0562 21.087 32.9178C21.0544 32.8613 21.0218 32.8048 20.9892 32.7484C20.9625 32.7022 20.8863 32.5498 20.9474 32.6738C20.8034 32.3765 20.6861 32.0661 20.5885 31.7487C20.5395 31.5887 20.4982 31.4281 20.4616 31.2643C20.4704 31.3093 20.4913 31.4367 20.4589 31.2323C20.443 31.134 20.4246 31.036 20.4111 30.9349C20.3656 30.6051 20.3453 30.2732 20.3451 29.9397C20.3438 29.4125 19.7934 28.9526 19.3176 29.0165C18.7715 29.089 18.4542 29.5324 18.4561 30.0972Z" fill="#1D1D1B"/>
</g>
</g>
<defs>
<clipPath id="clip0_153_3123">
<rect width="51" height="50" fill="white"/>
</clipPath>
<clipPath id="clip1_153_3123">
<rect width="14.5661" height="9.06428" fill="white" transform="matrix(0.996541 -0.0831037 0.0838356 0.99648 18.3208 28.7903)"/>
</clipPath>
</defs>
</svg>
