<svg width="118" height="117" viewBox="0 0 118 117" fill="none" xmlns="http://www.w3.org/2000/svg">
<g clip-path="url(#clip0_155_504)">
<g opacity="0.55">
<path d="M65.541 92.0233C49.3352 92.0233 34.0651 82.3467 27.9505 66.6105L26.503 62.8856C18.5941 42.5257 29.01 19.7338 49.7673 11.9763C70.5246 4.21887 93.7614 14.4353 101.67 34.7952L103.118 38.5201C111.027 58.88 100.611 81.672 79.8534 89.4294C75.1422 91.1893 70.2989 92.026 65.541 92.026V92.0233Z" fill="#FFEA4B"/>
</g>
<g opacity="0.55">
<path d="M67.6521 91.5536C64.4929 91.5536 61.287 91.1865 58.0838 90.42C36.5037 85.2537 23.281 63.9086 28.548 42.7416L28.8948 41.3461C34.1646 20.1791 55.9264 7.20956 77.5037 12.3758C99.0839 17.542 112.307 38.8872 107.04 60.0542L106.693 61.4496C102.207 79.4721 85.7593 91.5536 67.6521 91.5536Z" fill="#FFEA4B"/>
</g>
<g opacity="0.55">
<path d="M59.5784 106.683C39.154 106.683 21.6714 91.4861 19.6048 71.137L19.5965 71.0668C19.5883 70.9831 19.58 70.8994 19.569 70.8158C19.558 70.7132 19.547 70.6106 19.536 70.5054L19.5222 70.3866C19.5085 70.2597 19.4947 70.1383 19.4809 70.0114L19.3709 69.0019C19.3571 68.8859 19.3433 68.759 19.3323 68.6429L19.2745 68.0896C19.2553 67.9195 19.236 67.7495 19.2195 67.5768L19.192 67.3203C19.181 67.2286 19.1727 67.1341 19.1617 67.0423L19.1314 66.7481C19.1122 66.5808 19.0957 66.4107 19.0764 66.2434C19.0379 65.8979 19.0021 65.5551 18.9663 65.2096L18.8783 64.3971C18.8673 64.2945 18.8563 64.192 18.8453 64.0867L18.6113 61.9058C18.5728 61.5549 18.537 61.2202 18.5013 60.8855C18.493 60.8018 18.482 60.7208 18.4738 60.6371L18.4627 60.5184C18.4325 60.2296 18.4022 59.9408 18.3692 59.6493C18.3609 59.5764 18.3527 59.5062 18.3472 59.4333L18.2481 58.5021C18.2041 58.1161 18.1655 57.7301 18.1243 57.3441L18.0362 56.5344C18.0252 56.448 18.0169 56.3616 18.0087 56.2753L17.9316 55.5465C17.8959 55.2199 17.8601 54.8933 17.8271 54.5667L17.7638 53.9945C17.7528 53.8892 17.7418 53.7812 17.7307 53.676L17.7115 53.4897C17.695 53.3359 17.6785 53.1793 17.662 53.0255L17.6207 52.6557C17.6014 52.4937 17.5877 52.348 17.5711 52.186L17.5601 52.0915C17.5491 51.9998 17.5409 51.908 17.5299 51.8189C17.5189 51.719 17.5078 51.6165 17.4968 51.5166L17.4886 51.4464C15.0669 29.799 30.9837 10.319 53.0537 7.92749C75.1319 5.53602 95.0059 21.1508 97.444 42.8063L97.5018 43.3408C97.5184 43.4865 97.5349 43.635 97.5486 43.7808L97.5569 43.8509C97.5679 43.9562 97.5789 44.0615 97.5899 44.1667C97.6037 44.2882 97.6174 44.4097 97.6284 44.5311L97.6422 44.6688C97.6532 44.7767 97.667 44.909 97.6807 45.017L97.8101 46.2181C97.8211 46.3045 97.8293 46.3936 97.8376 46.4799C97.8596 46.6797 97.8761 46.8632 97.8981 47.0495C97.9091 47.1439 97.9201 47.2357 97.9284 47.3302L98.11 49.0091C98.1183 49.0792 98.1265 49.1494 98.132 49.2196C98.1595 49.4841 98.1871 49.7432 98.2146 50.0024C98.2256 50.0887 98.2338 50.1751 98.2421 50.2615L98.3412 51.1954C98.3852 51.5976 98.4265 51.9971 98.4705 52.3965C98.5173 52.8203 98.5613 53.2414 98.6081 53.6652C98.6081 53.6895 98.6136 53.7299 98.6163 53.7542L98.842 55.8596C98.864 56.0701 98.8888 56.2834 98.9108 56.4939L98.9493 56.8583C98.9603 56.9501 98.9686 57.0391 98.9796 57.1309C99.0044 57.3657 99.0291 57.6006 99.0539 57.8354C99.0649 57.9326 99.0759 58.0297 99.0842 58.1296L99.2383 59.5602C99.252 59.6816 99.2658 59.8031 99.2768 59.9246L99.4034 61.0933C99.4171 61.2067 99.4309 61.3335 99.4419 61.4469L99.4557 61.5846C99.4722 61.7276 99.4859 61.8707 99.5024 62.0137L99.5382 62.3403C99.5547 62.4888 99.5713 62.6264 99.585 62.7749L99.5933 62.8532C99.6098 63.0205 99.629 63.1852 99.6455 63.3525C101.831 85.0351 85.6826 104.348 63.5768 106.491C62.2339 106.62 60.8965 106.685 59.5729 106.685L59.5784 106.683Z" fill="#FFEA4B"/>
</g>
<g opacity="0.55">
<path d="M42.2912 109.935C21.289 109.935 3.60824 93.9424 2.19929 73.0886L1.86631 68.1518C0.402318 46.4152 17.1804 27.6262 39.344 26.1876C61.513 24.7516 80.6632 41.2058 82.13 62.945L82.463 67.8818C83.9297 89.6211 67.1516 108.41 44.9881 109.849C44.0854 109.908 43.1856 109.935 42.294 109.935H42.2912Z" fill="#FFEA4B"/>
</g>
<g opacity="0.55">
<path d="M63.901 113.018C55.395 113.018 49.0354 110.469 46.4459 109.422C42.3759 107.927 38.9801 106.288 35.8072 104.291C35.7164 104.234 35.6256 104.178 35.5348 104.118C34.0901 103.195 29.0431 99.8131 24.72 95.1057C24.6374 95.0166 24.5548 94.9249 24.475 94.8358C21.6076 91.6589 16.4176 84.9838 13.8886 75.9793C13.8363 75.7904 13.784 75.5987 13.7317 75.4098C11.7201 67.8278 12.1494 60.7802 12.5842 57.2524C12.5952 57.1687 12.6035 57.0877 12.6145 57.0067C12.7246 56.1511 12.8924 55.0741 13.1456 53.8244C13.2474 53.1631 13.363 52.4964 13.4978 51.8378C13.5281 51.684 13.5611 51.5328 13.5942 51.3789C14.8793 45.3814 17.3505 40.2286 18.5062 38.0234C20.4105 32.7033 23.1376 28.525 24.6677 26.4169C24.8878 26.1146 25.1107 25.815 25.3391 25.5208C31.0437 18.1061 39.225 12.5728 48.3805 9.93839C48.7107 9.84392 49.0382 9.75215 49.3712 9.66577C50.67 9.32567 54.619 8.29189 60.8657 8.16772C61.2317 8.15963 61.5977 8.15693 61.9637 8.15963C73.2601 8.22441 83.5989 12.0087 91.5078 18.7809C95.3273 20.9942 101.723 25.4452 106.753 32.6736C108.759 34.9571 110.743 37.6374 112.43 40.7037C112.54 40.9034 112.65 41.1059 112.755 41.3083C117.873 50.9957 119.258 63.0205 116.459 73.4745C116.404 73.6823 116.346 73.8928 116.286 74.1007C113.388 84.2631 107.089 91.3916 103.591 94.7359C103.5 94.825 103.407 94.9114 103.313 94.9977C100.82 97.3379 97.7545 99.6295 94.4853 101.651C94.045 101.981 93.5992 102.304 93.1424 102.618L91.1913 103.97C91.0867 104.043 90.9821 104.113 90.8776 104.186C83.387 109.274 75.5056 112.197 67.4592 112.872C67.2115 112.893 66.9639 112.912 66.7134 112.928C65.753 112.993 64.8174 113.02 63.9038 113.02L63.901 113.018Z" fill="#FFEA4B"/>
</g>
<g opacity="0.55">
<path d="M64.9801 109.357C63.9784 109.357 63.0565 109.333 62.242 109.295C62.1759 109.293 62.1071 109.29 62.0411 109.285C59.2644 109.147 55.7448 108.712 52.0133 107.905C45.7968 107.077 39.4262 104.99 34.0711 102.024C33.9143 101.937 33.7602 101.851 33.6033 101.762C24.0571 96.3176 16.8995 87.9637 13.4514 78.2331C13.3248 77.8768 13.2037 77.5178 13.0854 77.1561C9.53547 66.1731 11.3517 55.4763 12.2956 51.387C12.3176 51.2871 12.3424 51.1873 12.3644 51.0901C12.4194 50.8607 12.4745 50.6312 12.535 50.4018C13.4073 46.2964 14.9622 41.5323 17.6948 36.7682C17.7938 36.5955 17.8929 36.4254 17.992 36.2554C20.2127 32.5089 23.3333 28.5708 26.553 25.4533C26.6686 25.3426 26.7814 25.2319 26.8997 25.1213C32.3182 19.9901 39.1951 15.9872 46.2591 13.8522C46.4765 13.7874 46.6967 13.7226 46.9168 13.6605C47.8937 13.3825 48.8624 13.1423 49.8173 12.9371C53.0095 12.1841 56.2484 11.7495 59.4075 11.6739C59.5974 11.6685 59.7845 11.6658 59.9744 11.6631C64.8755 11.6091 70.5691 12.3811 75.2143 13.7253C75.2913 13.7469 75.3711 13.7712 75.4482 13.7928C77.2259 14.3191 79.554 15.1289 82.16 16.3408C84.4358 17.2747 86.4694 18.2572 88.1343 19.1804C88.1921 19.2127 88.2499 19.2451 88.3076 19.2775C90.8284 20.6892 95.0359 23.3371 99.0867 27.1915C103.248 30.6681 106.759 34.9517 109.401 39.8804C109.53 40.1233 109.659 40.3689 109.783 40.6146C111.291 43.5702 112.208 46.2046 113.193 49.4949C114.283 53.1307 115.312 57.1849 115.463 62.1837C115.474 62.5886 115.482 62.9935 115.482 63.3984C115.482 75.6176 110.113 87.0729 100.661 95.2164C98.751 96.9654 96.8054 98.6794 94.3012 100.396C94.2379 100.439 94.1746 100.482 94.1086 100.526C88.9818 104 82.3086 106.871 76.2545 108.208C76.0756 108.248 75.894 108.286 75.7124 108.324C71.8185 109.131 68.0181 109.357 64.9773 109.357H64.9801ZM98.2639 97.1463C98.2639 97.1463 98.2474 97.1571 98.2419 97.1625C98.2501 97.1571 98.2584 97.1517 98.2639 97.1463Z" fill="#FFEA4B"/>
</g>
<g opacity="0.55">
<path d="M64.4989 110.518C63.6595 110.518 62.911 110.499 62.2726 110.469C62.1405 110.464 62.0112 110.459 61.8791 110.451C57.3633 110.213 52.1182 109.252 47.8473 107.881C47.6932 107.832 47.5419 107.781 47.3878 107.73C36.9444 104.248 27.4642 96.7064 22.0321 87.5615C21.8724 87.2943 21.7183 87.0244 21.5642 86.7518C16.2174 77.2614 15.7055 67.4148 15.8789 62.3889C15.8816 62.3026 15.8844 62.2162 15.8899 62.1298C16.0743 57.5979 16.9961 50.7015 20.3424 43.6026C20.3837 43.5162 20.425 43.4299 20.4662 43.3435C21.4762 41.2408 25.271 33.9233 31.7379 28.0715C31.848 27.9717 31.958 27.8745 32.0681 27.7746C37.6351 22.8459 45.6843 18.6919 53.0731 16.9347C53.2575 16.8915 53.4419 16.8483 53.6235 16.8078C59.7519 15.4366 65.3795 15.4609 68.1891 15.5986C72.7765 15.8226 75.6549 16.295 77.4739 16.6567C79.447 17.0022 81.3953 17.461 83.2941 18.036C83.4097 18.071 83.5225 18.1061 83.6353 18.1412C87.6503 19.3936 93.5421 21.696 98.8009 25.5424C98.9495 25.6531 99.1008 25.761 99.2467 25.8744C105.67 30.7059 110.807 37.4701 113.713 44.9252C113.807 45.1654 113.898 45.4084 113.988 45.6486C114.093 45.9347 114.195 46.2181 114.291 46.5042C116.066 51.406 116.685 55.8839 116.848 59.2147C116.856 59.4117 116.864 59.6088 116.872 59.8058C117.035 64.578 116.388 69.5445 114.998 74.1655C114.924 74.4138 114.847 74.6621 114.767 74.9105C112.222 82.8245 107.164 90.3444 100.713 95.8966C98.955 97.6133 97.0424 99.2895 95.1024 100.704C94.9868 100.79 94.8685 100.874 94.7501 100.958C90.3444 104.097 85.0828 106.512 81.6265 107.73C81.4504 107.792 81.2715 107.854 81.0926 107.913C74.7 110.067 68.5386 110.518 64.5016 110.518H64.4989Z" fill="#FFEA4B"/>
</g>
<g opacity="0.55">
<path d="M61.6306 116.92C55.2132 116.92 47.9621 115.781 42.1832 113.798C42.0786 113.762 41.974 113.725 41.8694 113.69C39.9239 113.004 37.9783 112.178 36.0823 111.236C34.2743 110.542 32.3728 109.7 30.4602 108.683C30.3832 108.642 30.3034 108.599 30.2263 108.556C28.633 107.695 26.3599 106.34 23.842 104.45C16.5027 99.5674 11.0486 93.416 7.61422 86.1363C7.5124 85.9231 7.41334 85.7071 7.31702 85.4912C4.44407 79.1157 3.05438 72.0574 3.29654 65.0692C3.29654 65.053 3.29654 65.0368 3.29654 65.0206C3.29654 65.0179 3.29654 65.0152 3.29654 65.0125C3.35158 63.5522 3.69557 58.7396 4.59818 54.6854C4.60918 54.6368 4.62019 54.5909 4.6312 54.5424C5.63838 50.0887 7.48213 45.4164 8.75349 42.7685C8.78652 42.701 8.81954 42.6309 8.85256 42.5634C10.5697 39.0409 13.239 34.8464 15.6579 31.8773C15.6909 31.8341 15.7267 31.7936 15.7625 31.7505C18.0851 28.9217 22.1633 24.8082 26.6434 21.7446C26.7645 21.6609 26.8883 21.5772 27.0121 21.4963C32.2709 17.9792 38.8231 15.2773 44.9846 14.0816C45.1442 14.0492 45.3065 14.0195 45.4661 13.9898C51.4817 12.894 57.2524 13.2071 60.1859 13.4986C61.4132 13.5256 62.624 13.593 63.7908 13.6929C63.8871 13.701 63.9807 13.7091 64.077 13.7199C69.3633 14.2193 74.0388 15.5338 75.8027 16.0736C75.8715 16.0952 75.9403 16.1168 76.0091 16.1384C76.3338 16.2409 76.6668 16.3489 77.0053 16.465C79.2178 16.9643 81.4881 17.6148 83.7143 18.4651C83.94 18.5514 84.1656 18.6378 84.3885 18.7296C89.8455 20.9186 94.7933 24.1469 99.0945 28.3279C100.946 30.1255 102.625 32.0636 104.119 34.1122C110.757 41.1112 114.882 50.1778 115.738 59.6546C115.765 59.9515 115.787 60.2484 115.809 60.5453C116.624 72.5405 112.009 81.7987 109.183 86.2497C108.976 86.5736 108.767 86.8948 108.553 87.2133C108.255 87.6559 107.947 88.0905 107.636 88.517C105.892 91.9638 104.117 94.52 103.142 95.8264C103.085 95.9046 103.027 95.9829 102.966 96.0585C100.605 99.1734 97.5287 102.402 94.5291 104.912C94.4851 104.95 94.4411 104.985 94.3971 105.022C92.457 106.631 87.2064 110.666 80.3791 113.336C80.2305 113.393 80.0819 113.452 79.9333 113.509C75.6954 115.112 70.4668 116.316 65.9483 116.734C65.8575 116.742 65.7666 116.75 65.6758 116.759C64.3825 116.869 63.0258 116.923 61.6278 116.923L61.6306 116.92Z" fill="#FFEA4B"/>
</g>
<g opacity="0.55">
<path d="M60.2278 116.378C58.4942 116.378 56.7935 116.31 55.1699 116.192C54.7819 116.197 54.4049 116.197 54.0416 116.192C53.893 116.192 53.7417 116.189 53.5931 116.184C50.3486 116.116 41.9885 115.676 34.4208 113.069C34.3135 113.031 34.2062 112.996 34.0989 112.955C32.3679 112.343 26.2863 110.032 20.6532 105.964C20.5487 105.889 20.4469 105.813 20.3423 105.738C16.2695 102.739 8.82297 96.1583 4.69242 85.7827C4.62087 85.5991 4.54932 85.4156 4.47777 85.232C1.61858 77.7283 0.80128 68.8129 2.24051 60.7747C2.26802 60.6236 2.29554 60.4724 2.32306 60.3213C2.41112 59.857 2.50744 59.3955 2.60926 58.942C3.22292 55.7435 4.06224 53.1064 4.75296 51.2547C4.80249 51.1225 4.85203 50.9929 4.90156 50.8633C6.76733 46.0291 9.32106 41.956 10.6777 39.9586C10.7135 39.9047 10.7493 39.8507 10.7878 39.7994C12.4334 37.4025 18.449 29.1511 26.8119 23.6826C26.9275 23.607 27.0431 23.5314 27.1614 23.4558C32.4863 20.0495 38.5624 17.7444 44.8422 16.6944C46.2951 16.3624 47.8114 16.0871 49.38 15.8873C49.5341 15.8684 49.6854 15.8495 49.8395 15.8306C56.422 15.0695 63.1255 15.9764 63.8686 16.0844C63.9951 16.1033 64.1217 16.1222 64.2511 16.141C65.2582 16.2949 66.2654 16.4811 67.2699 16.6998C70.7234 17.2774 74.2486 18.1951 77.2894 19.3288C77.3389 19.3477 77.3885 19.3666 77.4352 19.3828C85.5835 22.4571 91.511 27.456 93.6823 29.4615C93.7731 29.5452 93.8639 29.6289 93.9547 29.7152C94.3317 30.0688 94.7032 30.4332 95.0692 30.8057C97.9862 33.0136 101.151 35.8748 103.881 39.4107C104.013 39.5835 104.145 39.7535 104.274 39.9289C108.779 45.9589 110.84 52.2129 111.779 56.3967C111.856 56.7395 111.927 57.0823 111.996 57.4251C113.215 63.6251 113.009 70.3514 111.479 76.6486C110.342 82.2737 108.187 87.6802 105.16 92.3957C105.056 92.5603 104.948 92.725 104.838 92.8869C100.958 98.7441 96.2057 102.858 93.718 104.79C93.6382 104.852 93.5557 104.914 93.4759 104.977C90.391 107.336 86.4861 109.7 83.027 111.306C82.9417 111.347 82.8564 111.384 82.7711 111.425C81.2934 112.1 76.0125 114.386 70.1125 115.517C69.9639 115.544 69.8181 115.574 69.6695 115.601C66.5956 116.157 63.3567 116.381 60.2223 116.381L60.2278 116.378Z" fill="#FFEA4B"/>
</g>
<g opacity="0.55">
<path d="M53.2627 115.765C53.1856 115.765 53.1086 115.765 53.0398 115.765C52.9407 115.765 52.8416 115.765 52.7426 115.765C51.1437 115.746 46.9471 115.611 42.5056 114.791C42.3955 114.769 42.2855 114.75 42.1754 114.729C39.4153 114.194 36.6497 113.404 33.9666 112.394C30.0424 111.063 25.9504 109.152 22.5739 107.063C22.461 106.993 22.3482 106.923 22.2354 106.853C18.1158 104.251 10.4574 98.4609 5.44075 88.9219C5.34719 88.7438 5.25637 88.5657 5.16556 88.3875C2.34215 82.8191 0.713045 76.5975 0.448866 70.3894C0.44061 70.2166 0.435106 70.0439 0.429603 69.8711C0.198446 62.1056 2.1908 55.3036 3.39887 51.9404C3.44565 51.8109 3.49243 51.6813 3.53921 51.5545C4.89588 47.8917 6.92951 43.8861 9.11724 40.5634C9.15577 40.504 9.19705 40.4446 9.23557 40.3825C9.6401 39.7752 10.6143 38.3608 12.0975 36.5281C13.6248 34.4578 15.0338 32.8086 15.752 31.9935C15.8043 31.9341 15.8593 31.872 15.9116 31.8126C17.7691 29.7288 24.5084 22.5895 33.2236 18.2168C33.4245 18.117 33.6254 18.0171 33.8262 17.9199C43.2101 13.3988 52.5527 13.11 57.2859 13.3421C57.374 13.3475 57.462 13.3502 57.5501 13.3556C66.8074 13.863 74.8263 16.9509 77.8451 18.2573C77.9084 18.2843 77.9717 18.3113 78.0322 18.3383C82.9663 20.5003 90.7376 25.0539 96.3982 30.7707C96.4835 30.8571 96.5688 30.9435 96.6541 31.0326C102.169 36.7035 106.319 43.8942 108.336 51.2791C108.372 51.4087 108.407 51.541 108.44 51.6705C108.963 53.6598 109.357 55.7409 109.618 57.8516C110.975 64.7804 110.518 70.6863 110.188 73.291C110.166 73.4637 110.144 73.6365 110.119 73.8092C108.889 82.6005 104.816 91.4457 98.9436 98.0803C98.8721 98.1613 98.8005 98.2395 98.729 98.3205C93.7371 103.875 87.9912 107.371 85.7539 108.618C85.6962 108.65 85.6356 108.683 85.5751 108.715C82.182 110.583 77.735 112.399 73.9677 113.458C73.9374 113.466 73.9044 113.474 73.8741 113.485C68.8245 114.891 63.5629 115.606 57.3134 115.73C57.1731 115.733 57.0327 115.736 56.8924 115.736C56.4713 115.741 55.8824 115.741 55.1587 115.725C54.3992 115.752 53.758 115.763 53.2572 115.763L53.2627 115.765Z" fill="#FFEA4B"/>
</g>
<g opacity="0.55">
<path d="M57.8331 112.189C56.2507 112.189 54.5776 112.132 52.8274 112.022C48.4575 111.744 42.64 111.093 36.3905 108.507C36.1649 108.413 35.9392 108.318 35.7136 108.221C27.2461 104.542 20.2178 98.6201 15.3883 91.0948C15.1819 90.7736 14.981 90.4497 14.7856 90.123C13.2721 87.6155 12.0365 84.9649 11.0761 82.1848C9.34244 77.7257 8.51412 73.4853 8.14813 69.9844C7.5207 64.9748 7.93073 60.6993 8.52513 57.3955C8.90214 55.058 9.49104 52.429 10.4074 49.692C10.5422 49.1144 10.6853 48.5394 10.845 47.9645C10.9027 47.7567 10.9605 47.5488 11.0211 47.341C12.4768 42.3664 15.4626 35.4241 21.5442 29.1107C24.2383 25.95 26.4811 24.1604 27.4992 23.3453C27.6946 23.1887 27.89 23.0349 28.0881 22.8837C34.4917 17.9577 41.2338 15.6175 46.9494 14.5729C53.3723 13.1073 60.1199 13.1262 66.7023 14.6809C67.1811 14.7484 67.66 14.8239 68.1388 14.9049C73.7086 15.5473 80.7341 17.2532 87.4321 21.4019C87.7321 21.5881 88.0293 21.777 88.3237 21.9687C88.9236 22.3628 89.5153 22.7703 90.0959 23.1941C92.5561 24.7866 95.33 26.8434 97.8562 29.3374C97.9883 29.467 98.1204 29.5993 98.2525 29.7315C98.5634 30.0473 98.8716 30.3712 99.1771 30.6978C101.002 32.5738 102.658 34.5766 104.081 36.6495C104.21 36.8385 104.337 37.0274 104.463 37.2164C108.484 43.2922 110.925 50.3182 111.522 57.5358C111.541 57.7706 111.558 58.0082 111.574 58.243C112.006 64.8965 110.809 70.7807 109.524 74.9644C109.466 75.229 109.409 75.4962 109.345 75.7634C109.307 75.928 109.268 76.0927 109.227 76.2546C107.025 85.1377 101.714 93.7319 94.6503 99.8347C94.5264 99.9427 94.4026 100.048 94.276 100.153C87.6523 105.741 80.4974 108.478 76.8237 109.611C76.6723 109.657 76.521 109.703 76.3696 109.749C72.4069 110.923 67.8774 111.679 63.5514 111.905C63.1634 111.946 62.8772 111.973 62.7094 111.989C62.6846 111.989 62.6598 111.995 62.6351 111.995C61.1463 112.124 59.5392 112.189 57.8303 112.189H57.8331Z" fill="#FFEA4B"/>
</g>
<g opacity="0.55">
<path d="M59.6554 114.877C54.7158 114.877 49.1543 114.305 44.7706 113.298C44.6853 113.279 44.6 113.258 44.5147 113.239C38.6835 111.86 32.511 109.136 27.5769 105.765C27.4448 105.676 27.3128 105.584 27.1834 105.492C24.748 103.786 22.4144 101.765 20.279 99.5377C20.2212 99.4865 20.1662 99.4325 20.1084 99.3812C15.3394 94.9896 11.5858 89.513 9.24675 83.5424C6.16466 75.6662 5.57026 67.0126 7.51308 58.8665C7.85431 55.9216 8.55879 51.8702 10.0118 47.7026C10.4796 45.6998 11.1098 43.5918 11.9546 41.4675C12.0426 41.2462 12.1335 41.0249 12.2243 40.8062C14.7175 34.8491 18.7022 29.1242 23.4409 24.6813C23.628 24.5059 23.8179 24.3304 24.0078 24.1604C30.3673 18.4192 38.9917 14.2733 47.6683 12.786C47.8197 12.759 47.971 12.7347 48.1224 12.7104C50.5357 12.3244 52.9546 12.1652 55.0571 12.1166C59.771 11.817 65.0986 12.1517 69.4603 13.0478C69.5897 13.0748 69.7163 13.1018 69.8456 13.1288C70.3574 13.2395 71.5545 13.4959 74.0504 14.2085C77.6994 15.2504 87.3392 18.0035 95.5122 27.4399C99.8932 30.9353 105.29 36.4821 108.873 44.4798C108.955 44.6661 109.04 44.855 109.12 45.0439C113.749 55.811 112.797 66.3675 112.172 70.4055C112.161 70.4756 112.15 70.5458 112.139 70.6133C111.385 75.3153 109.596 80.8729 107.439 85.2213C105.865 88.5845 103.826 91.7452 101.357 94.6063C100.843 95.2541 100.433 95.7454 100.179 96.0396C100.155 96.0666 100.133 96.0963 100.108 96.1233C97.2844 99.4028 93.7951 102.453 91.467 104.213C91.412 104.253 91.3597 104.294 91.3046 104.334C87.5814 107.122 82.9637 109.679 78.635 111.347C78.5415 111.382 78.4479 111.42 78.3543 111.455C73.9624 113.112 68.5907 114.329 63.9924 114.713C63.9346 114.718 63.8768 114.723 63.819 114.726C62.5174 114.829 61.1112 114.88 59.6554 114.88V114.877Z" fill="#FFEA4B"/>
</g>
<g opacity="0.55">
<path d="M73.4503 109.565C71.5295 109.565 69.6225 109.433 67.7429 109.179C65.0681 109.279 62.3713 109.128 59.68 108.712C49.9026 107.805 40.5297 103.589 33.3226 96.2827C33.1272 96.0856 32.9346 95.8859 32.7447 95.6834C27.8326 90.4983 19.8852 79.294 21.8473 62.5024C22.0069 61.1474 22.2298 59.7168 22.516 58.2431C23.4407 53.4817 24.7781 49.3547 26.6108 45.6217C26.6631 45.5164 26.7154 45.4111 26.7677 45.3032C28.6362 41.5756 32.8438 34.5037 40.0262 29.0136C40.1142 28.9461 40.2023 28.8786 40.2903 28.8139C47.8662 23.1186 56.7547 20.1927 65.6295 20.0172C68.7694 19.472 71.4222 19.3694 73.3733 19.3505C93.327 19.1724 104.357 31.0191 108.173 36.1152C113.311 42.9792 116.011 51.0335 116.258 59.15C116.963 63.9788 116.795 68.9669 115.678 73.8821C115.4 75.1103 115.061 76.3222 114.671 77.5206C114.214 78.9107 113.694 80.2603 113.105 81.5721C108.999 93.57 99.3068 103.543 86.0649 107.649C81.8738 108.947 77.6276 109.565 73.4558 109.565H73.4503Z" fill="#FFEA4B"/>
</g>
<g opacity="0.55">
<path d="M49.4377 105.287C41.2151 105.287 33.5099 102.939 27.01 98.8711C13.0938 91.6777 4.34565 77.31 4.72265 61.6412C4.91529 53.6705 7.20208 45.8375 11.3436 38.9843C11.4152 38.8655 11.4867 38.7468 11.561 38.628C11.7041 38.3986 11.9325 38.0315 12.2463 37.5564C12.8021 36.6171 13.3993 35.6616 14.0405 34.6872C17.794 28.9892 21.7484 24.7758 26.4817 21.4261C26.6798 21.2857 26.8779 21.1481 27.0788 21.0131C30.1994 18.8862 32.9816 17.5717 36.5672 15.9522C55.324 7.47402 77.581 13.701 88.9518 30.6087C95.9773 41.0546 97.5486 53.6408 94.1087 64.9396C93.1676 68.1382 91.8275 71.2341 90.0993 74.1519C90.069 74.2113 90.0387 74.2707 90.0085 74.3301C85.5945 91.5077 70.0795 104.523 51.1191 105.255C50.5577 105.276 49.9991 105.287 49.4432 105.287H49.4377Z" fill="#FFEA4B"/>
</g>
<g opacity="0.55">
<path d="M45.8076 112.672C37.8713 112.672 30.078 110.451 23.3854 106.297C11.1617 99.8807 2.72719 87.7424 1.46408 73.8119C0.388099 67.4392 0.484415 58.8315 4.93418 49.4734C10.6113 36.1367 22.8131 26.5897 37.5328 24.4601C46.9194 23.1024 56.3831 24.9648 64.4075 29.459C72.9603 32.9355 80.3959 39.2057 85.1428 47.8134C92.8233 61.7358 91.4418 78.0874 82.9771 90.3471C79.1988 97.6025 73.1805 103.83 65.2771 107.922C59.0579 111.142 52.3819 112.669 45.8049 112.669L45.8076 112.672Z" fill="#FFEA4B"/>
</g>
<g opacity="0.55">
<path d="M70.2555 113.401C63.2465 113.401 56.1577 111.673 49.6633 108.059C46.8812 106.512 44.3495 104.696 42.0764 102.661C40.8931 101.689 39.7676 100.653 38.7054 99.562C28.8867 91.2621 23.1326 78.6164 24.3241 64.9828C26.1926 43.6134 44.454 27.4831 65.9213 27.4831C66.0754 27.4831 66.2295 27.4831 66.3836 27.4831C74.0944 26.3926 82.2069 27.3994 89.8075 30.8382C106.88 38.5551 116.126 56.1403 113.752 73.5068C112.761 84.0957 107.86 91.1244 104.778 95.543C96.7257 107.087 83.6378 113.395 70.25 113.395L70.2555 113.401Z" fill="#FFEA4B"/>
</g>
<g opacity="0.55">
<path d="M52.0597 91.6049C38.9828 91.6049 26.1619 85.3617 18.4319 73.8497C6.21635 55.6518 11.3513 31.1891 29.9017 19.2047L38.3004 13.7793C56.8479 1.79765 81.7908 6.83432 94.0091 25.0295C106.225 43.2247 101.09 67.6901 82.5394 79.6718L74.1407 85.0972C67.327 89.4995 59.6493 91.6049 52.0569 91.6049H52.0597Z" fill="#FFEA4B"/>
</g>
<g opacity="0.55">
<path d="M51.9915 99.0763C48.7746 99.0763 45.5054 98.6957 42.2444 97.8995C20.6891 92.636 7.56817 71.2288 12.9343 50.0888L15.3642 40.5175C20.7303 19.3748 42.5526 6.5024 64.108 11.7685C85.6634 17.0319 98.7843 38.4391 93.4181 59.5791L90.9882 69.1505C86.4339 87.0919 70.0273 99.0763 51.9915 99.0763Z" fill="#FFEA4B"/>
</g>
<path d="M26.5643 83.7999C33.9689 83.7999 39.9714 78.2833 39.9714 71.4781C39.9714 64.673 33.9689 59.1564 26.5643 59.1564C19.1598 59.1564 13.1572 64.673 13.1572 71.4781C13.1572 78.2833 19.1598 83.7999 26.5643 83.7999Z" fill="#FFDB27"/>
<path d="M91.5301 84.9552C98.9347 84.9552 104.937 79.4386 104.937 72.6335C104.937 65.8283 98.9347 60.3117 91.5301 60.3117C84.1256 60.3117 78.123 65.8283 78.123 72.6335C78.123 79.4386 84.1256 84.9552 91.5301 84.9552Z" fill="#FFDB27"/>
<path d="M52.7972 49.7463C52.7972 59.7175 44.4669 67.8007 34.1911 67.8007C23.9152 67.8007 15.585 59.7175 15.585 49.7463C15.585 39.7751 23.9152 31.6918 34.1911 31.6918C44.4669 31.6918 52.7972 39.7751 52.7972 49.7463Z" fill="white"/>
<path d="M52.7972 49.7463C52.7972 59.7175 44.4669 67.8007 34.1911 67.8007C23.9152 67.8007 15.585 59.7175 15.585 49.7463C15.585 39.7751 23.9152 31.6918 34.1911 31.6918C44.4669 31.6918 52.7972 39.7751 52.7972 49.7463Z" stroke="black"/>
<path d="M46.6802 48.9835C46.6802 55.7246 41.2028 61.1893 34.4461 61.1893C27.6893 61.1893 22.2119 55.7246 22.2119 48.9835C22.2119 42.2424 27.6893 36.7776 34.4461 36.7776C41.2028 36.7776 46.6802 42.2424 46.6802 48.9835Z" fill="#2E2C2C"/>
<path d="M46.6802 48.9835C46.6802 55.7246 41.2028 61.1893 34.4461 61.1893C27.6893 61.1893 22.2119 55.7246 22.2119 48.9835C22.2119 42.2424 27.6893 36.7776 34.4461 36.7776C41.2028 36.7776 46.6802 42.2424 46.6802 48.9835Z" stroke="black"/>
<path d="M103.263 49.7463C103.263 59.7175 94.9328 67.8007 84.6569 67.8007C74.381 67.8007 66.0508 59.7175 66.0508 49.7463C66.0508 39.7751 74.381 31.6918 84.6569 31.6918C94.9328 31.6918 103.263 39.7751 103.263 49.7463Z" fill="white"/>
<path d="M103.263 49.7463C103.263 59.7175 94.9328 67.8007 84.6569 67.8007C74.381 67.8007 66.0508 59.7175 66.0508 49.7463C66.0508 39.7751 74.381 31.6918 84.6569 31.6918C94.9328 31.6918 103.263 39.7751 103.263 49.7463Z" stroke="black"/>
<path d="M96.6363 48.9835C96.6363 55.7246 91.273 61.1893 84.657 61.1893C78.041 61.1893 72.6777 55.7246 72.6777 48.9835C72.6777 42.2424 78.041 36.7776 84.657 36.7776C91.273 36.7776 96.6363 42.2424 96.6363 48.9835Z" fill="#2E2C2C"/>
<path d="M96.6363 48.9835C96.6363 55.7246 91.273 61.1893 84.657 61.1893C78.041 61.1893 72.6777 55.7246 72.6777 48.9835C72.6777 42.2424 78.041 36.7776 84.657 36.7776C91.273 36.7776 96.6363 42.2424 96.6363 48.9835Z" stroke="black"/>
<g clip-path="url(#clip1_155_504)">
<path d="M45.1924 72.1577C54.7909 72.1066 64.3894 72.0555 73.9879 72.0044C75.1306 71.9958 76.1178 70.6826 75.9662 69.4962C75.797 68.1678 74.824 67.344 73.5996 67.3533C63.9953 67.4048 54.4026 67.4554 44.8036 67.5003C43.6608 67.5089 42.6742 68.8284 42.8257 70.0147C42.9949 71.3431 43.968 72.1669 45.1924 72.1577Z" fill="#1D1D1B"/>
<path d="M42.9191 70.7188C42.9287 73.9779 43.8155 77.2632 45.4808 80.0209C47.37 83.1533 50.2388 85.0917 53.5434 86.1004C60.0925 88.0979 68.2281 87.7139 73.0273 82.0273C75.629 78.9484 76.1978 74.86 76.4995 70.8566C76.5908 69.6436 75.9902 68.3202 74.743 68.1253C73.6674 67.9596 72.3035 68.6738 72.2079 69.9745C72.0914 71.5144 71.9696 73.0609 71.6762 74.5781C71.5288 75.3274 71.3964 75.8381 71.1913 76.3862C71.0723 76.7084 70.9355 77.0259 70.7865 77.3382C70.5927 77.7417 70.5013 77.9055 70.3757 78.0784C70.0417 78.5499 69.53 79.1987 69.2615 79.4773C68.971 79.7703 68.2766 80.3282 67.7906 80.6563C67.1834 81.0696 67.0885 81.1213 66.3966 81.4292C65.7611 81.7137 65.1036 81.9438 64.4361 82.1248C61.6978 82.8671 58.5665 82.537 55.7059 81.8844C54.2845 81.5604 53.2024 81.1767 51.8959 80.4122C51.4724 80.1606 51.6749 80.2809 51.7801 80.3533C51.6623 80.2695 51.544 80.1795 51.4256 80.0896C51.1636 79.8868 50.918 79.6701 50.6714 79.441C50.4563 79.2405 50.2517 79.0266 50.0525 78.8061C49.7759 78.4983 50.3494 79.2183 49.9289 78.6541C49.8175 78.5073 49.7003 78.3611 49.5941 78.2076C49.376 77.9012 49.169 77.5876 48.9788 77.2664C48.9037 77.1353 48.8286 77.0042 48.7535 76.8731C48.692 76.7659 48.5167 76.4122 48.6574 76.7001C48.3255 76.0098 48.0554 75.2894 47.8305 74.5526C47.7178 74.1811 47.6225 73.8082 47.5383 73.4281C47.5587 73.5325 47.6067 73.8283 47.5321 73.3537C47.4956 73.1257 47.4532 72.8982 47.422 72.6635C47.3172 71.8979 47.2704 71.1275 47.27 70.3531C47.267 69.1293 45.9994 68.0618 44.9033 68.2101C43.6455 68.3783 42.9147 69.4077 42.9191 70.7188Z" fill="#1D1D1B"/>
</g>
</g>
<defs>
<clipPath id="clip0_155_504">
<rect width="117.466" height="116.068" fill="white" transform="translate(0.410156 0.852539)"/>
</clipPath>
<clipPath id="clip1_155_504">
<rect width="33.5513" height="21.0403" fill="white" transform="matrix(0.996487 -0.0837521 0.0831865 0.996534 42.6074 67.6849)"/>
</clipPath>
</defs>
</svg>
