<svg width="63" height="29" viewBox="0 0 63 29" fill="none" xmlns="http://www.w3.org/2000/svg">
<path d="M15.0359 22.1234C13.8121 22.1234 12.6975 21.8463 11.6813 21.3032C10.665 20.749 9.86733 19.9953 9.27726 19.0199C8.68719 18.0445 8.39215 16.8807 8.39215 15.5396V6.22912C8.39215 5.90769 8.31566 5.60842 8.15175 5.34241C7.98784 5.0764 7.78022 4.8658 7.51797 4.69954C7.25571 4.53329 6.9716 4.4557 6.64379 4.4557C6.31597 4.4557 6.03186 4.53329 5.7696 4.69954C5.50735 4.8658 5.29973 5.0764 5.15768 5.34241C5.00469 5.60842 4.9282 5.8966 4.9282 6.22912V19.6406C4.9282 20.8155 3.98846 21.7576 2.84109 21.7576H2.08711C0.928819 21.7576 0 20.8044 0 19.6406V6.59489C0 5.30916 0.284109 4.18969 0.852328 3.2143C1.42055 2.23892 2.21824 1.46305 3.23447 0.897771C4.23978 0.321409 5.38715 0.0443115 6.64379 0.0443115C7.90042 0.0443115 9.06964 0.332493 10.075 0.897771C11.0803 1.46305 11.867 2.23892 12.4462 3.2143C13.0253 4.18969 13.3204 5.32024 13.3204 6.59489V15.8943C13.3204 16.2379 13.3968 16.5482 13.5608 16.8142C13.7247 17.0802 13.9214 17.2908 14.1727 17.4349C14.424 17.5901 14.6972 17.6677 15.0032 17.6677C15.32 17.6677 15.6151 17.5901 15.8883 17.4349C16.1614 17.2798 16.3691 17.0692 16.533 16.8142C16.6969 16.5482 16.7734 16.249 16.7734 15.8943V6.59489C16.7734 5.30916 17.0684 4.18969 17.6476 3.2143C18.2267 2.23892 19.0244 1.46305 20.0406 0.897771C21.0569 0.332493 22.1824 0.0443115 23.4281 0.0443115C24.6738 0.0443115 25.8539 0.332493 26.8374 0.897771C27.8318 1.46305 28.6185 2.23892 29.1977 3.2143C29.7768 4.18969 30.0719 5.32024 30.0719 6.59489V19.6406C30.0719 20.8155 29.1321 21.7576 27.9848 21.7576H27.2308C26.0725 21.7576 25.1437 20.8044 25.1437 19.6406V6.20695C25.1437 5.88552 25.0672 5.58625 24.9142 5.34241C24.7612 5.08748 24.5536 4.87689 24.3023 4.72171C24.0509 4.56654 23.7559 4.47787 23.4281 4.47787C23.1221 4.47787 22.838 4.55545 22.5758 4.72171C22.3026 4.88797 22.084 5.08748 21.9311 5.34241C21.7671 5.59734 21.6907 5.88552 21.6907 6.20695V15.5396C21.6907 16.8807 21.3847 18.0445 20.7837 19.0199C20.1827 19.9953 19.385 20.7601 18.3797 21.3032C17.3744 21.8574 16.2598 22.1234 15.0359 22.1234Z" fill="#5267EE"/>
<path d="M32.6111 20.0667V2.9532C32.6111 1.77831 33.5508 0.836182 34.6982 0.836182H40.3367C42.5658 0.836182 44.489 1.29062 46.1281 2.21058C47.7672 3.13055 49.0348 4.38303 49.9527 5.99019C50.8596 7.59735 51.3186 9.43728 51.3186 11.51C51.3186 13.5827 50.8596 15.4226 49.9527 17.0297C49.0457 18.6369 47.7672 19.9005 46.1281 20.8093C44.489 21.7293 42.5658 22.1837 40.3367 22.1837H34.6982C33.5399 22.1837 32.6111 21.2305 32.6111 20.0667ZM37.6704 15.7994C37.6704 16.9743 38.6101 17.9165 39.7575 17.9165H40.2274C41.3857 17.9165 42.4238 17.6615 43.3417 17.1406C44.2486 16.6196 44.9698 15.8881 45.4943 14.9238C46.0188 13.9706 46.2811 12.8289 46.2811 11.51C46.2811 10.191 46.0188 9.04934 45.4943 8.09613C44.9698 7.14291 44.2595 6.40029 43.3417 5.87935C42.4347 5.35841 41.3966 5.10348 40.2274 5.10348H39.7575C38.5992 5.10348 37.6704 6.05669 37.6704 7.2205V15.7883V15.7994Z" fill="#C06DFF"/>
<path d="M57.438 28.0422C56.2142 28.0422 55.187 27.8095 54.3565 27.3439C53.526 26.8784 52.9032 26.2356 52.477 25.4264C52.0509 24.6173 51.8432 23.6863 51.8432 22.6555C51.8432 21.6247 52.0399 20.5163 52.4442 19.3414C52.8486 18.1776 53.5151 17.0138 54.4439 15.8832C55.2963 14.8413 56.4218 13.8659 57.8205 12.9571C58.0609 12.8019 58.2139 12.5359 58.2139 12.2366V5.24268C58.2139 4.71065 57.7877 4.27838 57.2632 4.27838H54.9794C54.4549 4.27838 54.0287 3.84611 54.0287 3.31408V0.964298C54.0287 0.432272 54.4549 0 54.9794 0H62.0493C62.5738 0 63 0.432272 63 0.964298V21.6025C63 22.8882 62.8033 24.0077 62.399 24.972C61.9947 25.9363 61.3828 26.69 60.5632 27.2331C59.7437 27.7762 58.6946 28.0422 57.438 28.0422ZM57.1648 23.653C57.4052 23.653 57.6128 23.5865 57.7986 23.4424C57.9844 23.2983 58.1155 23.0988 58.2029 22.8439C58.2903 22.589 58.334 22.2897 58.334 21.9461V17.2798C57.7768 17.7453 57.3178 18.233 56.9681 18.7318C56.6185 19.2305 56.3562 19.7404 56.2032 20.2724C56.0393 20.8045 55.9628 21.3808 55.9628 22.0126C55.9628 22.5446 56.083 22.9436 56.3234 23.2318C56.5638 23.52 56.8479 23.6641 57.1648 23.6641V23.653Z" fill="#C06DFF"/>
</svg>
