<svg width="139" height="55" viewBox="0 0 139 55" fill="none" xmlns="http://www.w3.org/2000/svg">
<path d="M29.69 51V49.09C29.2633 48.99 28.89 48.8167 28.57 48.57C28.2567 48.3167 28.0133 48 27.84 47.62C27.6667 47.2333 27.58 46.79 27.58 46.29V44H29.22V46.38C29.22 46.6333 29.2733 46.8667 29.38 47.08C29.4867 47.2867 29.6367 47.4533 29.83 47.58C30.03 47.7 30.2633 47.76 30.53 47.76C30.7967 47.76 31.0267 47.7 31.22 47.58C31.42 47.4533 31.5733 47.2867 31.68 47.08C31.7867 46.8667 31.84 46.6333 31.84 46.38V44H33.48V46.29C33.48 46.79 33.3933 47.2333 33.22 47.62C33.0467 48 32.8 48.3167 32.48 48.57C32.16 48.8233 31.7867 48.9967 31.36 49.09V51H29.69ZM36.7802 51.12C36.2535 51.12 35.7802 51.0033 35.3602 50.77C34.9402 50.5367 34.6068 50.2167 34.3602 49.81C34.1202 49.4033 34.0002 48.9467 34.0002 48.44C34.0002 47.9267 34.1202 47.47 34.3602 47.07C34.6068 46.6633 34.9402 46.3433 35.3602 46.11C35.7802 45.87 36.2535 45.75 36.7802 45.75C37.3068 45.75 37.7768 45.87 38.1902 46.11C38.6102 46.3433 38.9402 46.6633 39.1802 47.07C39.4268 47.47 39.5502 47.9267 39.5502 48.44C39.5502 48.9467 39.4268 49.4033 39.1802 49.81C38.9402 50.2167 38.6102 50.5367 38.1902 50.77C37.7702 51.0033 37.3002 51.12 36.7802 51.12ZM36.7802 49.77C37.0268 49.77 37.2402 49.71 37.4202 49.59C37.6002 49.47 37.7402 49.31 37.8402 49.11C37.9402 48.91 37.9902 48.6833 37.9902 48.43C37.9902 48.1833 37.9402 47.96 37.8402 47.76C37.7402 47.56 37.6002 47.4 37.4202 47.28C37.2402 47.16 37.0268 47.1 36.7802 47.1C36.5335 47.1 36.3168 47.16 36.1302 47.28C35.9502 47.4 35.8102 47.56 35.7102 47.76C35.6102 47.96 35.5602 48.1833 35.5602 48.43C35.5602 48.6833 35.6102 48.91 35.7102 49.11C35.8102 49.31 35.9502 49.47 36.1302 49.59C36.3168 49.71 36.5335 49.77 36.7802 49.77ZM43.0306 51.12C42.504 51.12 42.0473 51.02 41.6606 50.82C41.2806 50.6133 40.9873 50.3367 40.7806 49.99C40.574 49.6367 40.4706 49.2467 40.4706 48.82V45.87H42.0206V48.78C42.0206 48.96 42.064 49.1267 42.1506 49.28C42.2373 49.4267 42.354 49.5467 42.5006 49.64C42.654 49.7267 42.8273 49.77 43.0206 49.77C43.2073 49.77 43.374 49.7267 43.5206 49.64C43.674 49.5467 43.794 49.4267 43.8806 49.28C43.9673 49.1267 44.0106 48.96 44.0106 48.78V45.87H45.5606V48.82C45.5606 49.2467 45.4606 49.6367 45.2606 49.99C45.0606 50.3367 44.7706 50.6133 44.3906 50.82C44.0173 51.02 43.564 51.12 43.0306 51.12ZM46.6806 51V47.38C46.6806 46.9133 46.814 46.5467 47.0806 46.28C47.3473 46.0133 47.7173 45.88 48.1906 45.88H49.6806V47.14H48.5706C48.4773 47.14 48.3973 47.1733 48.3306 47.24C48.264 47.3 48.2306 47.38 48.2306 47.48V51H46.6806ZM53.0195 51V47.97C53.0195 47.55 53.1161 47.1733 53.3095 46.84C53.5095 46.5 53.7928 46.2333 54.1595 46.04C54.5261 45.8467 54.9628 45.75 55.4695 45.75C55.7228 45.75 55.9561 45.78 56.1695 45.84C56.3828 45.8933 56.5761 45.97 56.7495 46.07C56.9295 46.1633 57.0828 46.2767 57.2095 46.41H57.2295C57.3628 46.2767 57.5161 46.1633 57.6895 46.07C57.8695 45.97 58.0661 45.8933 58.2795 45.84C58.4995 45.78 58.7361 45.75 58.9895 45.75C59.4961 45.75 59.9328 45.8467 60.2995 46.04C60.6661 46.2333 60.9495 46.5 61.1495 46.84C61.3495 47.1733 61.4495 47.55 61.4495 47.97V51H59.8895V48.02C59.8895 47.8533 59.8461 47.7033 59.7595 47.57C59.6795 47.43 59.5695 47.3167 59.4295 47.23C59.2895 47.1433 59.1295 47.1 58.9495 47.1C58.7695 47.1 58.6061 47.1433 58.4595 47.23C58.3195 47.3167 58.2095 47.43 58.1295 47.57C58.0495 47.7033 58.0095 47.8533 58.0095 48.02V51H56.4595V48.02C56.4595 47.8533 56.4161 47.7033 56.3295 47.57C56.2495 47.43 56.1361 47.3167 55.9895 47.23C55.8495 47.1433 55.6895 47.1 55.5095 47.1C55.3295 47.1 55.1661 47.1433 55.0195 47.23C54.8795 47.3167 54.7695 47.43 54.6895 47.57C54.6095 47.7033 54.5695 47.8533 54.5695 48.02V51H53.0195ZM65.1595 51.12C64.6329 51.12 64.1762 51.02 63.7895 50.82C63.4095 50.6133 63.1162 50.3367 62.9095 49.99C62.7029 49.6367 62.5995 49.2467 62.5995 48.82V45.87H64.1495V48.78C64.1495 48.96 64.1929 49.1267 64.2795 49.28C64.3662 49.4267 64.4829 49.5467 64.6295 49.64C64.7829 49.7267 64.9562 49.77 65.1495 49.77C65.3362 49.77 65.5029 49.7267 65.6495 49.64C65.8029 49.5467 65.9229 49.4267 66.0095 49.28C66.0962 49.1267 66.1395 48.96 66.1395 48.78V45.87H67.6895V48.82C67.6895 49.2467 67.5895 49.6367 67.3895 49.99C67.1895 50.3367 66.8995 50.6133 66.5195 50.82C66.1462 51.02 65.6929 51.12 65.1595 51.12ZM68.8595 51V49.77H71.3295C71.3962 49.77 71.4562 49.7567 71.5095 49.73C71.5629 49.6967 71.6062 49.6533 71.6395 49.6C71.6729 49.5467 71.6895 49.49 71.6895 49.43C71.6895 49.3633 71.6729 49.3033 71.6395 49.25C71.6062 49.1967 71.5629 49.1567 71.5095 49.13C71.4562 49.0967 71.3962 49.08 71.3295 49.08H70.4295C70.0962 49.08 69.7929 49.0267 69.5195 48.92C69.2529 48.8067 69.0395 48.6333 68.8795 48.4C68.7262 48.16 68.6495 47.85 68.6495 47.47C68.6495 47.1767 68.7195 46.91 68.8595 46.67C69.0062 46.43 69.2029 46.2367 69.4495 46.09C69.7029 45.9433 69.9795 45.87 70.2795 45.87H72.7495V47.11H70.5195C70.4262 47.11 70.3462 47.14 70.2795 47.2C70.2195 47.26 70.1895 47.3333 70.1895 47.42C70.1895 47.5133 70.2195 47.5933 70.2795 47.66C70.3462 47.72 70.4262 47.75 70.5195 47.75H71.3995C71.7729 47.75 72.0929 47.8067 72.3595 47.92C72.6329 48.0267 72.8429 48.2 72.9895 48.44C73.1429 48.68 73.2195 48.99 73.2195 49.37C73.2195 49.67 73.1429 49.9433 72.9895 50.19C72.8429 50.4367 72.6429 50.6333 72.3895 50.78C72.1429 50.9267 71.8629 51 71.5495 51H68.8595ZM74.1523 51V45.87H75.7123V51H74.1523ZM74.9323 45.29C74.6856 45.29 74.4723 45.2 74.2923 45.02C74.1123 44.84 74.0223 44.6267 74.0223 44.38C74.0223 44.1333 74.1123 43.92 74.2923 43.74C74.4723 43.5533 74.6856 43.46 74.9323 43.46C75.1789 43.46 75.3923 43.5533 75.5723 43.74C75.7523 43.92 75.8423 44.1333 75.8423 44.38C75.8423 44.6267 75.7523 44.84 75.5723 45.02C75.3923 45.2 75.1789 45.29 74.9323 45.29ZM79.3676 51C78.8342 51 78.3609 50.89 77.9476 50.67C77.5342 50.4433 77.2076 50.14 76.9676 49.76C76.7276 49.3733 76.6076 48.9333 76.6076 48.44C76.6076 47.9467 76.7276 47.51 76.9676 47.13C77.2076 46.7433 77.5342 46.4367 77.9476 46.21C78.3609 45.9833 78.8342 45.87 79.3676 45.87H80.1376V47.18H79.4276C79.1676 47.18 78.9442 47.2367 78.7576 47.35C78.5709 47.4567 78.4242 47.6067 78.3176 47.8C78.2176 47.9867 78.1676 48.2 78.1676 48.44C78.1676 48.68 78.2176 48.8967 78.3176 49.09C78.4242 49.2767 78.5709 49.4267 78.7576 49.54C78.9442 49.6467 79.1676 49.7 79.4276 49.7H80.1376V51H79.3676ZM86.1545 51.12C85.7278 51.12 85.3411 51.0533 84.9945 50.92C84.6545 50.7867 84.3678 50.5967 84.1345 50.35C83.9011 50.0967 83.7211 49.8 83.5945 49.46C83.4678 49.12 83.4045 48.75 83.4045 48.35C83.4045 47.83 83.5078 47.3767 83.7145 46.99C83.9278 46.6033 84.2178 46.3 84.5845 46.08C84.9578 45.86 85.3845 45.75 85.8645 45.75C86.0711 45.75 86.2645 45.7767 86.4445 45.83C86.6311 45.8833 86.7978 45.9633 86.9445 46.07C87.0978 46.17 87.2245 46.29 87.3245 46.43H87.3545V43.7H88.9045V48.34C88.9045 48.9 88.7911 49.39 88.5645 49.81C88.3378 50.23 88.0178 50.5533 87.6045 50.78C87.1978 51.0067 86.7145 51.12 86.1545 51.12ZM86.1545 49.78C86.3945 49.78 86.6011 49.7233 86.7745 49.61C86.9545 49.49 87.0911 49.33 87.1845 49.13C87.2778 48.9233 87.3245 48.6933 87.3245 48.44C87.3245 48.1867 87.2778 47.96 87.1845 47.76C87.0911 47.56 86.9545 47.4033 86.7745 47.29C86.6011 47.17 86.3945 47.11 86.1545 47.11C85.9211 47.11 85.7145 47.17 85.5345 47.29C85.3545 47.4033 85.2178 47.56 85.1245 47.76C85.0311 47.96 84.9845 48.1867 84.9845 48.44C84.9845 48.6933 85.0311 48.9233 85.1245 49.13C85.2178 49.33 85.3545 49.49 85.5345 49.61C85.7145 49.7233 85.9211 49.78 86.1545 49.78ZM90.0214 51V45.87H91.5814V51H90.0214ZM90.8014 45.29C90.5547 45.29 90.3414 45.2 90.1614 45.02C89.9814 44.84 89.8914 44.6267 89.8914 44.38C89.8914 44.1333 89.9814 43.92 90.1614 43.74C90.3414 43.5533 90.5547 43.46 90.8014 43.46C91.0481 43.46 91.2614 43.5533 91.4414 43.74C91.6214 43.92 91.7114 44.1333 91.7114 44.38C91.7114 44.6267 91.6214 44.84 91.4414 45.02C91.2614 45.2 91.0481 45.29 90.8014 45.29ZM94.7767 51.12C94.3234 51.12 93.9234 51.0033 93.5767 50.77C93.2301 50.5367 92.9601 50.2233 92.7667 49.83C92.5734 49.43 92.4767 48.98 92.4767 48.48C92.4767 47.96 92.5901 47.4967 92.8167 47.09C93.0434 46.6767 93.3634 46.35 93.7767 46.11C94.1967 45.87 94.6901 45.75 95.2567 45.75C95.8301 45.75 96.3167 45.87 96.7167 46.11C97.1234 46.3433 97.4334 46.6667 97.6467 47.08C97.8667 47.4867 97.9767 47.9433 97.9767 48.45V51H96.4567V50.18H96.4167C96.3234 50.36 96.2034 50.5233 96.0567 50.67C95.9101 50.81 95.7301 50.92 95.5167 51C95.3101 51.08 95.0634 51.12 94.7767 51.12ZM95.2367 49.78C95.4701 49.78 95.6734 49.7233 95.8467 49.61C96.0267 49.49 96.1634 49.3267 96.2567 49.12C96.3501 48.9133 96.3967 48.6833 96.3967 48.43C96.3967 48.1833 96.3501 47.96 96.2567 47.76C96.1634 47.56 96.0267 47.4033 95.8467 47.29C95.6734 47.17 95.4701 47.11 95.2367 47.11C94.9967 47.11 94.7867 47.17 94.6067 47.29C94.4267 47.4033 94.2901 47.56 94.1967 47.76C94.1034 47.96 94.0567 48.1833 94.0567 48.43C94.0567 48.6833 94.1034 48.9133 94.1967 49.12C94.2901 49.3267 94.4267 49.49 94.6067 49.61C94.7867 49.7233 94.9967 49.78 95.2367 49.78ZM99.083 51V47.38C99.083 46.9133 99.2163 46.5467 99.483 46.28C99.7496 46.0133 100.12 45.88 100.593 45.88H102.083V47.14H100.973C100.88 47.14 100.8 47.1733 100.733 47.24C100.666 47.3 100.633 47.38 100.633 47.48V51H99.083ZM104.555 53.03V51.03C104.182 50.9367 103.862 50.7867 103.595 50.58C103.329 50.3667 103.125 50.11 102.985 49.81C102.845 49.5033 102.775 49.1733 102.775 48.82V45.87H104.325V48.77C104.325 48.95 104.369 49.1167 104.455 49.27C104.542 49.4233 104.659 49.5467 104.805 49.64C104.959 49.7267 105.129 49.77 105.315 49.77C105.509 49.77 105.679 49.7267 105.825 49.64C105.979 49.5467 106.099 49.4233 106.185 49.27C106.272 49.1167 106.315 48.95 106.315 48.77V45.87H107.865V48.82C107.865 49.1733 107.795 49.5 107.655 49.8C107.522 50.1 107.322 50.3567 107.055 50.57C106.795 50.7833 106.479 50.9333 106.105 51.02V53.03H104.555Z" fill="#5267EE"/>
<circle cx="53.7846" cy="21.7208" r="6.20591" fill="#5267EE"/>
<circle cx="83.7799" cy="21.7208" r="6.20591" fill="#5267EE"/>
<path d="M18.5988 35.6264C17.0849 35.6264 15.7062 35.2837 14.4492 34.6119C13.1922 33.9264 12.2055 32.9941 11.4756 31.7876C10.7457 30.5811 10.3807 29.1415 10.3807 27.4825V15.9659C10.3807 15.5683 10.2861 15.1981 10.0834 14.8691C9.8806 14.54 9.62379 14.2795 9.29939 14.0739C8.97499 13.8682 8.62356 13.7723 8.21807 13.7723C7.81257 13.7723 7.46114 13.8682 7.13674 14.0739C6.81235 14.2795 6.55553 14.54 6.37982 14.8691C6.19058 15.1981 6.09597 15.5546 6.09597 15.9659V32.5553C6.09597 34.0086 4.93354 35.174 3.51431 35.174H2.58166C1.14891 35.174 0 33.9949 0 32.5553V16.4183C0 14.8279 0.351431 13.4432 1.05429 12.2367C1.75715 11.0302 2.74386 10.0705 4.0009 9.37126C5.24442 8.65832 6.66366 8.31557 8.21807 8.31557C9.77247 8.31557 11.2187 8.67203 12.4623 9.37126C13.7058 10.0705 14.679 11.0302 15.3954 12.2367C16.1117 13.4432 16.4767 14.8417 16.4767 16.4183V27.9213C16.4767 28.3463 16.5713 28.7302 16.774 29.0592C16.9768 29.3883 17.2201 29.6488 17.531 29.827C17.8419 30.0189 18.1798 30.1149 18.5582 30.1149C18.9502 30.1149 19.3152 30.0189 19.6531 29.827C19.991 29.635 20.2478 29.3745 20.4506 29.0592C20.6533 28.7302 20.7479 28.36 20.7479 27.9213V16.4183C20.7479 14.8279 21.1129 13.4432 21.8292 12.2367C22.5456 11.0302 23.5323 10.0705 24.7894 9.37126C26.0464 8.67203 27.4386 8.31557 28.9795 8.31557C30.5204 8.31557 31.9802 8.67203 33.1967 9.37126C34.4267 10.0705 35.3999 11.0302 36.1162 12.2367C36.8326 13.4432 37.1976 14.8417 37.1976 16.4183V32.5553C37.1976 34.0086 36.0351 35.174 34.6159 35.174H33.6833C32.2505 35.174 31.1016 33.9949 31.1016 32.5553V15.9385C31.1016 15.5409 31.007 15.1707 30.8178 14.8691C30.6285 14.5537 30.3717 14.2932 30.0608 14.1013C29.7499 13.9094 29.385 13.7997 28.9795 13.7997C28.601 13.7997 28.2496 13.8956 27.9252 14.1013C27.5873 14.307 27.317 14.5537 27.1277 14.8691C26.925 15.1844 26.8304 15.5409 26.8304 15.9385V27.4825C26.8304 29.1415 26.4519 30.5811 25.7085 31.7876C24.9651 32.9941 23.9784 33.9401 22.7349 34.6119C21.4913 35.2974 20.1126 35.6264 18.5988 35.6264Z" fill="#5267EE"/>
<path d="M54.0933 35.6677C52.0117 35.6677 50.1194 35.3112 48.4433 34.612C46.7538 33.9128 45.3075 32.9256 44.091 31.6643C42.8745 30.403 41.9419 28.9497 41.2796 27.2907C40.6172 25.6318 40.2928 23.8494 40.2928 21.93C40.2928 20.0106 40.6172 18.2282 41.2796 16.5693C41.9419 14.9103 42.861 13.4571 44.064 12.2094C45.2669 10.9618 46.7132 10.0021 48.4163 9.30285C50.1194 8.61733 52.0117 8.26086 54.0933 8.26086C56.1748 8.26086 58.0266 8.60362 59.7297 9.30285C61.4327 9.98836 62.879 10.9618 64.082 12.2094C65.285 13.4571 66.2176 14.9103 66.8934 16.583C67.5693 18.2557 67.8937 20.038 67.8937 21.9163C67.8937 23.7946 67.5557 25.6181 66.8934 27.277C66.2176 28.936 65.285 30.403 64.082 31.6506C62.879 32.9119 61.4327 33.8854 59.7297 34.5983C58.0266 35.2975 56.1478 35.654 54.0933 35.654V35.6677ZM54.0933 30.2659C55.1881 30.2659 56.2018 30.0602 57.121 29.6489C58.0401 29.2376 58.8511 28.648 59.5269 27.894C60.2027 27.1399 60.7164 26.2487 61.0948 25.2342C61.4598 24.2196 61.649 23.1091 61.649 21.93C61.649 20.7509 61.4598 19.6541 61.0948 18.6533C60.7164 17.6524 60.2027 16.7612 59.5269 16.0072C58.8511 15.2531 58.0536 14.6636 57.121 14.2523C56.1883 13.8409 55.1746 13.6353 54.0933 13.6353C53.0119 13.6353 51.9576 13.8409 51.0385 14.2523C50.1194 14.6636 49.3219 15.2531 48.6326 16.0072C47.9567 16.7612 47.4296 17.6524 47.0646 18.667C46.6997 19.6815 46.524 20.7783 46.524 21.93C46.524 23.0817 46.6997 24.2196 47.0646 25.2342C47.4296 26.2487 47.9432 27.1399 48.6326 27.894C49.3084 28.648 50.1194 29.2376 51.0385 29.6489C51.9576 30.0602 52.9714 30.2659 54.0933 30.2659Z" fill="#5267EE"/>
<path d="M83.8026 35.6677C81.7211 35.6677 79.8287 35.3112 78.1527 34.612C76.4631 33.9128 75.0168 32.9256 73.8003 31.6643C72.5839 30.403 71.6512 28.9497 70.9889 27.2907C70.3266 25.6318 70.0022 23.8494 70.0022 21.93C70.0022 20.0106 70.3266 18.2282 70.9889 16.5693C71.6512 14.9103 72.5703 13.4571 73.7733 12.2094C74.9763 10.9618 76.4226 10.0021 78.1256 9.30285C79.8287 8.61733 81.7211 8.26086 83.8026 8.26086C85.8841 8.26086 87.7359 8.60362 89.439 9.30285C91.1421 9.98836 92.5884 10.9618 93.7913 12.2094C94.9943 13.4571 95.927 14.9103 96.6028 16.583C97.2786 18.2557 97.603 20.038 97.603 21.9163C97.603 23.7946 97.2651 25.6181 96.6028 27.277C95.927 28.936 94.9943 30.403 93.7913 31.6506C92.5884 32.9119 91.1421 33.8854 89.439 34.5983C87.7359 35.2975 85.8571 35.654 83.8026 35.654V35.6677ZM83.8026 30.2659C84.8974 30.2659 85.9112 30.0602 86.8303 29.6489C87.7494 29.2376 88.5604 28.648 89.2363 27.894C89.9121 27.1399 90.4257 26.2487 90.8042 25.2342C91.1691 24.2196 91.3583 23.1091 91.3583 21.93C91.3583 20.7509 91.1691 19.6541 90.8042 18.6533C90.4257 17.6524 89.9121 16.7612 89.2363 16.0072C88.5604 15.2531 87.7629 14.6636 86.8303 14.2523C85.8977 13.8409 84.8839 13.6353 83.8026 13.6353C82.7213 13.6353 81.667 13.8409 80.7479 14.2523C79.8287 14.6636 79.0313 15.2531 78.3419 16.0072C77.6661 16.7612 77.1389 17.6524 76.774 18.667C76.409 19.6815 76.2333 20.7783 76.2333 21.93C76.2333 23.0817 76.409 24.2196 76.774 25.2342C77.1389 26.2487 77.6526 27.1399 78.3419 27.894C79.0177 28.648 79.8287 29.2376 80.7479 29.6489C81.667 30.0602 82.6807 30.2659 83.8026 30.2659Z" fill="#5267EE"/>
<path d="M100.915 32.5555V11.3868C100.915 9.93353 102.077 8.76816 103.496 8.76816H110.471C113.228 8.76816 115.607 9.33028 117.635 10.4682C119.662 11.6062 121.23 13.1554 122.365 15.1434C123.487 17.1314 124.055 19.4073 124.055 21.9712C124.055 24.535 123.487 26.8109 122.365 28.7989C121.243 30.7869 119.662 32.3498 117.635 33.4741C115.607 34.612 113.228 35.1741 110.471 35.1741H103.496C102.063 35.1741 100.915 33.9951 100.915 32.5555ZM107.173 27.277C107.173 28.7303 108.335 29.8957 109.754 29.8957H110.336C111.768 29.8957 113.052 29.5804 114.188 28.936C115.31 28.2916 116.202 27.3867 116.851 26.1939C117.499 25.0148 117.824 23.6027 117.824 21.9712C117.824 20.3396 117.499 18.9275 116.851 17.7484C116.202 16.5693 115.323 15.6507 114.188 15.0063C113.066 14.3619 111.782 14.0466 110.336 14.0466H109.754C108.322 14.0466 107.173 15.2257 107.173 16.6653V27.2633V27.277Z" fill="#C06DFF"/>
<path d="M131.719 43.4413C130.205 43.4413 128.934 43.1534 127.907 42.5776C126.88 42.0017 126.109 41.2065 125.582 40.2057C125.055 39.2048 124.798 38.0532 124.798 36.7781C124.798 35.5031 125.042 34.132 125.542 32.6788C126.042 31.2392 126.866 29.7996 128.015 28.4012C129.07 27.1124 130.462 25.9059 132.192 24.7816C132.489 24.5897 132.678 24.2607 132.678 23.8905V15.2393C132.678 14.5812 132.151 14.0465 131.503 14.0465H128.678C128.029 14.0465 127.502 13.5118 127.502 12.8537V9.94713C127.502 9.28903 128.029 8.75433 128.678 8.75433H137.423C138.072 8.75433 138.599 9.28903 138.599 9.94713V35.4757C138.599 37.066 138.355 38.4508 137.855 39.6436C137.355 40.8364 136.598 41.7687 135.585 42.4405C134.571 43.1123 133.273 43.4413 131.719 43.4413ZM131.381 38.0121C131.678 38.0121 131.935 37.9298 132.165 37.7516C132.395 37.5733 132.557 37.3265 132.665 37.0112C132.773 36.6959 132.827 36.3257 132.827 35.9007V30.1286C132.138 30.7045 131.57 31.3077 131.138 31.9247C130.705 32.5417 130.381 33.1723 130.191 33.8304C129.989 34.4885 129.894 35.2014 129.894 35.9829C129.894 36.641 130.043 37.1346 130.34 37.4911C130.637 37.8475 130.989 38.0258 131.381 38.0258V38.0121Z" fill="#C06DFF"/>
<g clip-path="url(#clip0_911_1741)">
<path d="M49.8311 6.02472C49.3303 6.48363 49.6009 6.20133 49.7604 6.10015C49.8667 6.03271 49.9797 5.97129 50.0929 5.91616L49.5294 6.17907C50.5938 5.69052 51.8387 5.53494 52.9855 5.33299L52.3516 5.44435C53.9509 5.16692 55.5706 4.99582 57.1966 5.13024L56.5556 5.07167C57.4995 5.16183 58.425 5.35047 59.3174 5.66973L58.7341 5.45431C59.0698 5.57911 59.3965 5.72004 59.7145 5.8834C59.8719 5.96515 60.0296 6.05319 60.181 6.14464C60.3257 6.23007 60.8516 6.60864 60.2365 6.16756C60.769 6.55216 61.2774 6.81797 61.9629 6.78959C62.5523 6.76518 63.2463 6.47795 63.6319 6.02696C64.0175 5.57597 64.3223 4.95496 64.2676 4.32991C64.2177 3.74565 63.9964 3.05185 63.4938 2.69123C62.2337 1.7851 60.9039 1.1309 59.3801 0.752676C57.9925 0.406642 56.5187 0.3069 55.0968 0.372087C53.5306 0.443244 51.9766 0.728259 50.4427 1.03451C49.8476 1.15372 49.2423 1.26074 48.6628 1.44551C47.7506 1.73231 46.9898 2.18938 46.2942 2.82658C45.3698 3.67185 45.4921 5.3848 46.4324 6.16546C47.4891 7.04218 48.455 6.78959 49.8311 6.02472Z" fill="#5267EE"/>
</g>
<g clip-path="url(#clip1_911_1741)">
<path d="M78.4787 5.97892C78.0176 6.43619 78.2667 6.15477 78.4136 6.05412C78.5116 5.98701 78.6158 5.92596 78.7202 5.8712L78.2006 6.13229C79.1821 5.64717 80.3316 5.49555 81.3902 5.29725L80.805 5.40659C82.2814 5.13425 83.7769 4.96829 85.2793 5.10783L84.687 5.04724C85.5592 5.14037 86.4146 5.33191 87.24 5.65395L86.7005 5.43671C87.011 5.56256 87.3132 5.70451 87.6074 5.86885C87.7531 5.95108 87.899 6.03961 88.0391 6.13153C88.1731 6.2174 88.66 6.59758 88.0905 6.15462C88.5836 6.54085 89.054 6.80824 89.6871 6.78202C90.2314 6.75948 90.8715 6.47448 91.2263 6.02477C91.5811 5.57506 91.8606 4.95509 91.8081 4.32995C91.7602 3.74561 91.5536 3.05119 91.0882 2.68904C89.9214 1.77905 88.691 1.12073 87.2823 0.737737C85.9995 0.387363 84.6379 0.282977 83.3247 0.343663C81.8783 0.409861 80.4437 0.689927 79.0278 0.991286C78.4785 1.1086 77.9198 1.2137 77.3851 1.39661C76.5434 1.6805 75.8421 2.1351 75.2016 2.77002C74.3504 3.61226 74.4688 5.32537 75.3399 6.1089C76.3187 6.98884 77.2101 6.73933 78.4787 5.97892Z" fill="#5267EE"/>
</g>
<defs>
<clipPath id="clip0_911_1741">
<rect width="18.5915" height="6.69293" fill="white" transform="translate(45.5101 0.769196) rotate(-2.37123)"/>
</clipPath>
<clipPath id="clip1_911_1741">
<rect width="17.1702" height="6.69293" fill="white" transform="translate(74.471 0.710419) rotate(-2.37123)"/>
</clipPath>
</defs>
</svg>
