<svg width="102" height="43" viewBox="0 0 102 43" fill="none" xmlns="http://www.w3.org/2000/svg">
<path d="M13.7053 33.4023C11.6366 33.4023 9.76487 33.0571 8.09019 32.3666C6.4155 31.6762 4.97479 30.7144 3.76803 29.4815C2.56128 28.2485 1.62543 26.8182 0.960479 25.1907C0.32016 23.5632 0 21.8123 0 19.9382C0 18.0641 0.32016 16.3132 0.960479 14.6857C1.62543 13.0581 2.54896 11.6402 3.73109 10.4319C4.93785 9.19892 6.37856 8.24952 8.05324 7.58371C9.75255 6.89324 11.6366 6.54801 13.7053 6.54801C15.7494 6.54801 17.6088 6.89324 19.2835 7.58371C20.9828 8.24952 22.4235 9.19892 23.6056 10.4319C24.8124 11.6402 25.7482 13.0705 26.4132 14.7227C27.0781 16.3502 27.4106 18.0887 27.4106 19.9382C27.4106 21.8123 27.0781 23.5632 26.4132 25.1907C25.7482 26.8182 24.8124 28.2485 23.6056 29.4815C22.4235 30.7144 20.9828 31.6762 19.2835 32.3666C17.6088 33.0571 15.7494 33.4023 13.7053 33.4023ZM13.7053 28.1129C14.7889 28.1129 15.7863 27.9156 16.6976 27.521C17.6334 27.1018 18.4338 26.5223 19.0987 25.7825C19.7637 25.0427 20.2809 24.1796 20.6503 23.1933C21.0197 22.1822 21.2044 21.0972 21.2044 19.9382C21.2044 18.7792 21.0197 17.7065 20.6503 16.7201C20.2809 15.7337 19.7637 14.8706 19.0987 14.1308C18.4338 13.3911 17.6334 12.8239 16.6976 12.4293C15.7863 12.0101 14.7889 11.8005 13.7053 11.8005C12.597 11.8005 11.5873 12.0101 10.6761 12.4293C9.76487 12.8239 8.96447 13.3911 8.27489 14.1308C7.60995 14.8706 7.09277 15.746 6.72335 16.7571C6.37856 17.7435 6.20617 18.8038 6.20617 19.9382C6.20617 21.0972 6.37856 22.1822 6.72335 23.1933C7.09277 24.1796 7.60995 25.0427 8.27489 25.7825C8.96447 26.5223 9.76487 27.1018 10.6761 27.521C11.5873 27.9156 12.597 28.1129 13.7053 28.1129Z" fill="#5267EE"/>
<path d="M43.2152 33.4023C41.1465 33.4023 39.2748 33.0571 37.6001 32.3666C35.9254 31.6762 34.4847 30.7144 33.2779 29.4815C32.0712 28.2485 31.1353 26.8182 30.4704 25.1907C29.8301 23.5632 29.5099 21.8123 29.5099 19.9382C29.5099 18.0641 29.8301 16.3132 30.4704 14.6857C31.1353 13.0581 32.0589 11.6402 33.241 10.4319C34.4477 9.19892 35.8885 8.24952 37.5631 7.58371C39.2625 6.89324 41.1465 6.54801 43.2152 6.54801C45.2593 6.54801 47.1187 6.89324 48.7934 7.58371C50.4927 8.24952 51.9334 9.19892 53.1155 10.4319C54.3223 11.6402 55.2581 13.0705 55.9231 14.7227C56.588 16.3502 56.9205 18.0887 56.9205 19.9382C56.9205 21.8123 56.588 23.5632 55.9231 25.1907C55.2581 26.8182 54.3223 28.2485 53.1155 29.4815C51.9334 30.7144 50.4927 31.6762 48.7934 32.3666C47.1187 33.0571 45.2593 33.4023 43.2152 33.4023ZM43.2152 28.1129C44.2988 28.1129 45.2962 27.9156 46.2075 27.521C47.1433 27.1018 47.9437 26.5223 48.6086 25.7825C49.2736 25.0427 49.7908 24.1796 50.1602 23.1933C50.5296 22.1822 50.7143 21.0972 50.7143 19.9382C50.7143 18.7792 50.5296 17.7065 50.1602 16.7201C49.7908 15.7337 49.2736 14.8706 48.6086 14.1308C47.9437 13.3911 47.1433 12.8239 46.2075 12.4293C45.2962 12.0101 44.2988 11.8005 43.2152 11.8005C42.1069 11.8005 41.0972 12.0101 40.186 12.4293C39.2748 12.8239 38.4744 13.3911 37.7848 14.1308C37.1198 14.8706 36.6027 15.746 36.2333 16.7571C35.8885 17.7435 35.7161 18.8038 35.7161 19.9382C35.7161 21.0972 35.8885 22.1822 36.2333 23.1933C36.6027 24.1796 37.1198 25.0427 37.7848 25.7825C38.4744 26.5223 39.2748 27.1018 40.186 27.521C41.0972 27.9156 42.1069 28.1129 43.2152 28.1129Z" fill="#5267EE"/>
<path d="M60.0105 30.8547V7.23691C60.0105 5.61548 61.3058 4.31528 62.8872 4.31528H70.6585C73.7309 4.31528 76.3816 4.94244 78.6407 6.21204C80.8999 7.48165 82.6469 9.21015 83.912 11.4281C85.1621 13.6461 85.7946 16.1853 85.7946 19.0458C85.7946 21.9062 85.1621 24.4454 83.912 26.6634C82.662 28.8814 80.8999 30.6252 78.6407 31.8795C76.3816 33.1491 73.7309 33.7763 70.6585 33.7763H62.8872C61.2907 33.7763 60.0105 32.4608 60.0105 30.8547ZM66.9837 24.9655C66.9837 26.5869 68.2789 27.8871 69.8603 27.8871H70.5079C72.1044 27.8871 73.5351 27.5353 74.8002 26.8164C76.0503 26.0975 77.0443 25.0879 77.7672 23.7571C78.4901 22.4416 78.8516 20.8661 78.8516 19.0458C78.8516 17.2255 78.4901 15.65 77.7672 14.3345C77.0443 13.019 76.0654 11.9941 74.8002 11.2752C73.5502 10.5562 72.1194 10.2044 70.5079 10.2044H69.8603C68.2639 10.2044 66.9837 11.5199 66.9837 13.1261V24.9655Z" fill="#C06DFF"/>
<path d="M94.3341 43C92.6472 43 91.2315 42.6788 90.0869 42.0363C88.9423 41.3939 88.0838 40.5067 87.4965 39.39C86.9091 38.2734 86.6229 36.9885 86.6229 35.5659C86.6229 34.1433 86.894 32.6137 87.4513 30.9923C88.0085 29.3861 88.9272 27.78 90.2074 26.2198C91.3821 24.7819 92.9334 23.4358 94.8612 22.1815C95.1925 21.9674 95.4034 21.6002 95.4034 21.1872V11.5352C95.4034 10.8009 94.816 10.2044 94.0931 10.2044H90.9454C90.2225 10.2044 89.6351 9.6078 89.6351 8.87357V5.63072C89.6351 4.89649 90.2225 4.29993 90.9454 4.29993H100.69C101.413 4.29993 102 4.89649 102 5.63072V34.1128C102 35.8871 101.729 37.4321 101.172 38.7629C100.614 40.0937 99.771 41.1338 98.6414 41.8834C97.5119 42.6329 96.066 43 94.3341 43ZM93.9575 36.9426C94.2889 36.9426 94.575 36.8508 94.8311 36.652C95.0871 36.4531 95.2678 36.1778 95.3883 35.826C95.5088 35.4741 95.569 35.0611 95.569 34.5869V28.1471C94.8009 28.7896 94.1684 29.4626 93.6864 30.151C93.2045 30.8393 92.843 31.5429 92.6322 32.2772C92.4063 33.0114 92.3008 33.8068 92.3008 34.6787C92.3008 35.413 92.4665 35.9636 92.7979 36.3613C93.1292 36.759 93.5208 36.9579 93.9575 36.9579V36.9426Z" fill="#C06DFF"/>
<path d="M19.6735 19.8787C19.6735 23.384 16.8356 26.2256 13.3348 26.2256C9.83404 26.2256 6.99611 23.384 6.99611 19.8787C6.99611 16.3734 9.83404 13.5318 13.3348 13.5318C16.8356 13.5318 19.6735 16.3734 19.6735 19.8787Z" fill="#5267EE"/>
<path d="M49.6382 19.8787C49.6382 23.384 46.8002 26.2256 43.2995 26.2256C39.7987 26.2256 36.9608 23.384 36.9608 19.8787C36.9608 16.3734 39.7987 13.5318 43.2995 13.5318C46.8002 13.5318 49.6382 16.3734 49.6382 19.8787Z" fill="#5267EE"/>
<path d="M10.009 5.49909C9.52623 5.94202 9.78715 5.66954 9.94085 5.57189C10.0433 5.50679 10.1522 5.44751 10.2614 5.3943L9.71821 5.64806C10.7442 5.17651 11.9442 5.02635 13.0497 4.83143L12.4386 4.93891C13.9802 4.67114 15.5416 4.50599 17.1089 4.63573L16.4911 4.5792C17.4009 4.66622 18.2931 4.8483 19.1533 5.15645L18.5911 4.94852C18.9146 5.06898 19.2296 5.20501 19.5361 5.36268C19.6878 5.44159 19.8398 5.52656 19.9857 5.61483C20.1252 5.69728 20.6321 6.06268 20.0392 5.63695C20.5526 6.00817 21.0426 6.26473 21.7034 6.23733C22.2715 6.21377 22.9405 5.93654 23.3122 5.50125C23.684 5.06595 23.9778 4.46655 23.925 3.86326C23.8769 3.29933 23.6636 2.62967 23.1791 2.2816C21.9645 1.40701 20.6826 0.775574 19.2138 0.410511C17.8761 0.07652 16.4555 -0.0197508 15.0848 0.0431682C13.5752 0.111849 12.0771 0.386944 10.5985 0.682533C10.0249 0.797596 9.44147 0.900894 8.88282 1.07923C8.00347 1.35606 7.2701 1.79722 6.5996 2.41224C5.70852 3.2281 5.82639 4.88143 6.73288 5.63492C7.75146 6.48113 8.68254 6.23733 10.009 5.49909Z" fill="#5267EE"/>
<path d="M37.3667 5.45484C36.9222 5.89619 37.1623 5.62457 37.304 5.52742C37.3985 5.46265 37.4989 5.40372 37.5995 5.35086L37.0986 5.60287C38.0448 5.13463 39.1528 4.98829 40.1732 4.79689L39.6092 4.90243C41.0323 4.63956 42.474 4.47938 43.9221 4.61406L43.3512 4.55558C44.1919 4.64547 45.0166 4.83035 45.8121 5.14118L45.2921 4.9315C45.5914 5.05297 45.8827 5.18997 46.1663 5.3486C46.3067 5.42797 46.4474 5.51342 46.5825 5.60214C46.7116 5.68502 47.181 6.05197 46.632 5.62443C47.1073 5.99721 47.5607 6.25529 48.171 6.22999C48.6957 6.20823 49.3128 5.93315 49.6548 5.49909C49.9967 5.06503 50.2662 4.46664 50.2156 3.86326C50.1694 3.29925 49.9703 2.629 49.5216 2.27945C48.3969 1.40113 47.2109 0.765718 45.853 0.396055C44.6164 0.0578749 43.3039 -0.0428784 42.038 0.0156951C40.6437 0.0795895 39.2609 0.349909 37.8961 0.640781C37.3666 0.754014 36.828 0.855452 36.3125 1.032C35.5012 1.306 34.8252 1.74479 34.2078 2.35761C33.3873 3.17054 33.5014 4.82403 34.3411 5.58029C35.2846 6.42961 36.1438 6.18879 37.3667 5.45484Z" fill="#5267EE"/>
</svg>
