<svg width="119" height="118" viewBox="0 0 119 118" fill="none" xmlns="http://www.w3.org/2000/svg">
<g clip-path="url(#clip0_892_1722)">
<g opacity="0.55">
<path d="M58.0467 102.52C43.6306 102.52 29.7085 94.675 22.5793 80.969L21.2757 78.4653C11.0658 58.8373 18.6509 34.6239 38.2202 24.3804C57.7895 14.1398 81.9303 21.7477 92.1431 41.3758L93.4468 43.8795C103.657 63.5075 96.0716 87.7209 76.5023 97.9644C70.5979 101.054 64.2755 102.52 58.0467 102.52Z" fill="#FF6D6D"/>
</g>
<g opacity="0.55">
<path d="M58.2073 117.651C57.2748 117.651 56.3366 117.63 55.4188 117.581C55.3691 117.581 55.3223 117.575 55.2726 117.572C49.2834 117.223 42.1748 115.737 36.7234 113.684C36.6416 113.652 36.5598 113.623 36.4779 113.59C34.9697 113.01 33.1574 112.201 31.2312 111.195C29.9626 110.656 28.7466 110.078 27.6096 109.474C27.4342 109.38 27.2618 109.287 27.0893 109.193C17.2155 103.737 11.5245 95.4693 8.48754 89.4974C8.44954 89.4211 8.41154 89.3449 8.37354 89.2687C8.08709 88.6941 5.52657 83.499 4.12354 77.9785C4.10893 77.9169 4.09139 77.8554 4.07677 77.7938C3.72602 76.3895 3.44833 74.9412 3.22327 73.5047C2.23238 69.4325 1.57763 65.2635 1.32918 62.3435C1.32626 62.2936 1.32041 62.2467 1.31749 62.1969C1.1275 59.8515 0.823507 53.689 2.12131 47.1775C2.12715 47.1424 2.13592 47.1101 2.14177 47.0749C2.48083 44.2282 3.27588 39.9948 4.57076 36.1102C4.60875 35.9929 4.64968 35.8786 4.68767 35.7642C5.9884 31.9676 9.02244 24.6852 14.7018 18.5549C14.8158 18.4317 14.9327 18.3086 15.0467 18.1855C18.1918 14.8755 21.9157 12.0581 26.4287 9.57199C31.4913 6.78389 36.1856 5.12452 41.2014 4.35934C41.5785 4.3007 41.9556 4.25086 42.3326 4.20395C42.4349 4.19223 42.5372 4.17757 42.6395 4.16584C46.682 2.71169 51.0314 1.8908 55.5649 1.82337L56.1583 1.81458C59.1923 1.7706 62.4631 1.79699 65.9005 2.2602C65.9941 2.27193 66.0847 2.28659 66.1782 2.29832C72.9303 3.25993 80.0682 5.96007 85.7592 9.70392C85.882 9.78601 86.0047 9.86809 86.1275 9.95018C91.0498 13.266 95.4372 17.8102 97.9012 20.956C97.9538 21.0205 98.0035 21.0879 98.0561 21.1524C101.608 25.7435 104.221 31.2112 104.51 31.8181C104.533 31.8709 104.56 31.9207 104.583 31.9735C107.296 37.7959 109.254 45.008 109.868 51.3905C110.973 55.791 111.879 61.1884 111.888 66.3189C111.888 66.3952 111.888 66.4685 111.888 66.5447C111.867 71.042 111.201 76.0787 110.052 80.362C110.014 80.5027 109.976 80.6405 109.938 80.7813C108.889 84.531 106.296 91.834 100.696 98.6239C100.57 98.7734 100.447 98.9259 100.319 99.0724C96.8694 103.13 92.406 106.88 87.7497 109.627C87.6854 109.665 87.6211 109.703 87.5568 109.738C85.046 111.201 81.86 112.74 79.0364 113.854C78.9633 113.884 78.8902 113.913 78.8142 113.939C74.9617 115.435 70.3785 116.604 66.2425 117.15C66.2016 117.155 66.1607 117.161 66.1168 117.167C64.214 117.413 61.2501 117.645 58.2073 117.645V117.651Z" fill="#FF6D6D"/>
</g>
<g opacity="0.55">
<path d="M58.5003 116.214C57.1996 116.214 55.9427 116.168 54.7501 116.074C54.6742 116.068 54.5982 116.062 54.5222 116.056C54.3965 116.044 54.2065 116.03 53.9609 116.003C53.0373 115.986 52.1984 115.945 51.4823 115.892C51.4033 115.886 51.3215 115.88 51.2426 115.874C47.2293 115.558 42.1814 114.573 38.3844 113.359C38.2909 113.33 38.1944 113.297 38.1009 113.268C34.7366 112.166 28.1862 109.586 22.1064 104.672C21.9895 104.578 21.8726 104.482 21.7586 104.388C16.316 99.8875 12.7003 94.5283 10.6308 90.8372C7.82477 87.1403 5.62377 82.9596 4.17105 78.4271C4.0249 77.9727 3.88752 77.5183 3.75891 77.058C1.09609 67.6295 2.19512 55.4715 2.55757 52.2319C2.35004 48.6523 2.55757 44.7443 3.3497 40.5079C4.84041 32.5482 8.6432 25.4357 14.0449 19.8918C19.882 13.568 27.5373 9.36389 35.8122 7.76316C38.5686 6.49371 41.5003 5.40603 44.2625 4.64084C44.3268 4.62325 44.3911 4.60566 44.4554 4.58807C48.9714 3.3626 54.3994 2.67364 58.968 2.74986C59.0411 2.74986 59.1112 2.74986 59.1843 2.7528C66.1351 2.90525 75.0356 4.80209 81.3317 7.47291C81.4193 7.51103 81.507 7.54621 81.5918 7.58432C86.2686 9.60723 91.375 12.8761 95.2479 16.3239C95.3736 16.4353 95.4993 16.5496 95.625 16.664C99.0332 19.7775 102.403 23.8409 104.873 27.8105C104.888 27.831 104.9 27.8544 104.914 27.875C106.349 30.191 108.182 33.6798 109.272 36.166C109.302 36.2334 109.334 36.3037 109.363 36.3712C110.433 38.8514 113.049 45.398 114.18 52.5486C114.189 52.6101 114.198 52.6688 114.209 52.7303C115.305 59.875 114.943 68.5882 113.259 75.4719C113.242 75.5482 113.221 75.6244 113.204 75.6977C112.35 79.0985 110.786 83.3847 109.22 86.6184C109.173 86.7152 109.126 86.8119 109.077 86.9116C105.703 93.7221 101.003 98.7119 99.1384 100.538C99.0566 100.618 98.9747 100.697 98.8929 100.776C94.2044 105.297 88.9285 108.308 86.8765 109.392C86.8239 109.419 86.7713 109.448 86.7187 109.474C82.5681 111.647 78.0813 113.154 77.5844 113.318C77.523 113.338 77.4616 113.359 77.3973 113.379C71.9109 115.165 64.7321 116.214 58.5003 116.214Z" fill="#FF6D6D"/>
</g>
<g opacity="0.55">
<path d="M56.3251 118C55.3196 118 54.3609 117.973 53.4899 117.921C49.6315 117.68 44.3643 116.73 40.6814 115.61C40.4826 115.549 40.2839 115.487 40.088 115.426C28.2208 111.606 20.9367 103.326 17.1544 97.674C14.8979 94.7335 12.9629 91.4558 10.984 87.2516C10.9606 87.2018 10.9373 87.149 10.9139 87.0992C7.97628 81.7458 5.90682 75.7973 4.86916 71.5697C4.85747 71.5257 4.8487 71.4817 4.83701 71.4407C4.52133 70.139 4.21149 68.5881 3.93381 66.8848C2.27941 61.7513 2.08065 57.597 1.97542 55.4099V55.3601C1.95788 55.0493 1.94327 54.7356 1.9345 54.4248C1.75912 48.3854 2.902 42.3255 5.33392 36.4121C6.32188 34.011 7.47645 31.7389 8.78887 29.6134C9.34715 28.4759 9.94344 27.3882 10.5806 26.3357C10.6596 26.2067 10.7385 26.0748 10.8203 25.9458C13.6644 21.3752 17.6162 17.1359 22.5619 13.3451C22.6291 13.2924 22.6993 13.2396 22.7665 13.1898C29.7349 7.9214 38.4073 4.71113 44.1977 3.46221C44.2884 3.44169 44.379 3.4241 44.4696 3.40357C49.2253 2.41264 54.2849 2.21035 59.9438 2.77911C60.1075 2.7967 60.2682 2.81429 60.4319 2.83188C62.3377 3.04883 67.2921 3.71727 72.0975 5.28283C72.2115 5.32094 72.3284 5.35905 72.4424 5.39716C73.6321 5.79588 74.8831 6.27962 76.1487 6.82199C76.2189 6.84545 76.2861 6.8689 76.3563 6.89236C76.4381 6.92167 76.5229 6.94806 76.6047 6.97738C82.3484 8.95631 88.0102 12.2018 92.5466 16.1127C92.6665 16.2153 92.7834 16.3179 92.9003 16.4205C92.9441 16.4616 97.4426 20.4488 100.737 24.8464C100.775 24.8962 100.813 24.949 100.851 24.9988C103.376 28.4055 108.167 36.5499 110.272 43.9028C110.307 44.0288 110.342 44.152 110.377 44.278C112.271 51.153 112.28 57.6732 112.195 60.1564C112.192 60.2502 112.189 60.344 112.183 60.4408C112.101 62.4285 111.879 64.4455 111.578 66.3658C111.543 69.7286 111.224 72.4404 111.026 73.8096C111.005 73.9415 110.988 74.0734 110.967 74.2053C110.508 77.1811 108.462 87.5829 101.479 96.4544C101.354 96.6156 101.225 96.774 101.096 96.9352C97.5215 101.339 93.4644 104.446 90.6876 106.279C90.6145 106.326 90.5444 106.372 90.4713 106.419C90.3427 106.504 90.2112 106.589 90.0796 106.672C89.0975 107.363 88.1271 108.003 87.1713 108.621C83.3276 111.107 81.3633 112.098 80.6238 112.473C80.5624 112.506 80.501 112.535 80.4367 112.567C75.9558 114.798 70.5717 116.534 65.664 117.328C65.591 117.34 65.5208 117.352 65.4477 117.364C62.7849 117.78 59.3563 118.014 56.331 118.014L56.3251 118Z" fill="#FF6D6D"/>
</g>
<g opacity="0.55">
<path d="M54.9457 114.488C52.8967 114.488 50.6957 114.367 48.4158 114.057C48.2521 114.033 48.0884 114.01 47.9248 113.986C39.9655 112.802 32.1583 109.424 25.944 104.473C25.8446 104.394 25.7482 104.317 25.6517 104.238C23.7927 102.728 22.1441 101.131 20.7031 99.565C18.736 97.8968 16.7893 95.956 14.9887 93.7103C14.8718 93.5637 14.7549 93.4171 14.638 93.2676C10.765 88.3012 8.16358 82.3762 7.68129 81.2386C7.65498 81.1771 7.62867 81.1126 7.60237 81.051C5.3166 75.5804 3.56574 69.1041 2.92269 63.7302C2.91392 63.6628 2.90807 63.5954 2.8993 63.5279C2.12472 56.7468 2.9753 49.6227 3.94573 44.8146C4.30233 42.7096 4.81385 40.4902 5.54752 38.2797C5.58259 38.1742 5.61767 38.0657 5.65567 37.9601C7.27207 33.2195 9.72444 28.8336 13.156 24.5533C13.3519 24.3099 13.5477 24.0695 13.7465 23.832C15.7282 21.4749 17.8415 19.4667 19.9256 17.7663C21.3725 16.5027 22.8603 15.3476 24.3831 14.3127C24.4533 14.2657 24.5234 14.2188 24.5936 14.1719C27.1512 12.4569 31.1206 10.2932 32.3482 9.68049C32.4213 9.64238 32.4944 9.6072 32.5675 9.57201C37.1595 7.30577 42.9528 5.47929 48.0651 4.68479C48.1644 4.67013 48.2638 4.65547 48.3632 4.64081C50.8419 4.27434 55.4222 3.91081 58.2955 3.95771C58.3393 3.95771 58.3831 3.95771 58.427 3.95771C65.8104 4.09257 72.1065 6.04805 75.199 7.20316C75.3188 7.24714 75.4358 7.29405 75.5556 7.33802C81.4425 9.59547 86.0374 12.2165 90.0243 15.5821C90.1588 15.6935 90.2903 15.8078 90.4218 15.9222C94.97 19.8683 98.3577 24.6676 99.9712 27.1772C100.111 27.3971 100.252 27.6169 100.389 27.8397C101.614 29.3086 102.736 30.8184 103.704 32.3048C103.727 32.34 103.751 32.3752 103.774 32.4103C105.905 35.7086 108.118 40.2147 109.409 43.8881C109.433 43.9585 109.459 44.0289 109.483 44.0992C110.874 48.1216 111.771 52.7626 112.119 55.5125C112.137 55.6533 112.154 55.7969 112.172 55.9376C112.964 62.8155 112.011 69.1071 111.07 73.1763C111.049 73.2614 111.032 73.3464 111.011 73.4285C109.652 79.1483 106.633 87.4393 99.9624 94.4667C99.8952 94.5371 99.8309 94.6045 99.7637 94.6748C96.8202 97.7327 93.1139 100.811 84.6081 105.892C84.5496 105.927 84.4882 105.962 84.4298 105.997C78.6803 109.389 71.6534 112.163 65.6321 113.412C65.559 113.426 65.486 113.441 65.4129 113.456C63.2002 113.901 59.4442 114.488 54.9428 114.488H54.9457Z" fill="#FF6D6D"/>
</g>
<g opacity="0.55">
<path d="M52.1832 112.846C47.9507 112.846 37.732 112.163 28.1213 106.305C27.8933 106.167 27.6682 106.027 27.4432 105.883C22.4157 102.681 18.8175 98.8584 16.2277 95.4928C13.448 92.35 11.5597 89.512 10.8495 88.3892C10.8056 88.3217 10.7618 88.2514 10.7179 88.181C7.54943 83.1062 4.758 76.2077 3.39589 71.6225C3.39005 71.599 3.38128 71.5785 3.37543 71.5551C2.03086 66.9933 0.56061 59.2564 0.513843 53.0499C0.513843 52.9883 0.513843 52.9267 0.513843 52.8622C0.493382 46.1573 2.31147 35.348 6.35394 27.4615C8.61632 23.0522 13.5064 16.2036 19.8668 11.3428C19.9721 11.2636 20.0744 11.1845 20.1796 11.1053C24.1753 8.11493 31.6318 4.04566 39.5034 2.40682C39.6583 2.37457 39.8161 2.34232 39.971 2.313C47.3603 0.867647 54.507 1.65629 57.237 2.06087C57.2867 2.06673 57.3364 2.07553 57.3861 2.08432C60.2681 2.52409 63.4571 3.29514 64.9157 3.66454C70.4605 4.64374 75.0291 6.46143 76.4731 7.07709C76.5432 7.10641 76.6105 7.13573 76.6806 7.16505C79.928 8.56935 84.8503 11.2343 88.922 14.5061C89.0009 14.5706 89.0799 14.6351 89.1617 14.6996C90.442 15.7463 91.6725 16.8515 92.8622 18.0272C94.9784 19.8976 97.1356 22.0701 99.1173 24.5239C99.1495 24.565 99.1816 24.606 99.2167 24.6471C103.274 29.7161 107.29 37.2155 109.213 43.3106C109.237 43.3839 109.26 43.4601 109.283 43.5334C109.859 45.3951 111.733 52.0531 111.663 59.5026C111.663 59.6228 111.663 59.743 111.657 59.8603C111.572 64.6361 110.768 69.6406 109.336 74.3314C109.292 74.4721 109.248 74.6129 109.205 74.7507C108.722 76.2722 108.085 78.0137 107.258 79.8754C106.562 81.5494 105.79 83.1589 104.955 84.6658C104.879 84.8007 104.803 84.9385 104.724 85.0734C100.909 91.7607 95.1655 97.7268 88.5566 101.878C88.4485 101.946 88.3403 102.013 88.2322 102.08C86.5515 103.112 84.6048 104.183 82.4272 105.27C80.1063 106.578 78.4081 107.384 77.9638 107.592C77.92 107.613 77.879 107.63 77.8352 107.651C71.618 110.512 65.8276 111.594 62.0658 111.999C61.9518 112.01 61.8378 112.022 61.7238 112.034C61.7033 112.034 60.9901 112.104 59.856 112.177C57.5498 112.55 55.1237 112.808 52.7386 112.843C52.648 112.843 52.5573 112.843 52.4638 112.846C52.3732 112.846 52.2797 112.846 52.1803 112.846H52.1832Z" fill="#FF6D6D"/>
</g>
<g opacity="0.55">
<path d="M55.9453 114.315C54.9076 114.315 53.905 114.285 52.9492 114.224C52.8791 114.218 52.8089 114.215 52.7388 114.209C51.5287 114.127 49.4884 113.934 47.001 113.485C45.8903 113.297 44.8088 113.069 43.7389 112.796C41.1843 112.172 38.387 111.286 35.6365 110.028C35.426 109.932 35.2185 109.835 35.008 109.735C33.5524 109.038 32.1757 108.278 30.8837 107.475C29.3199 106.771 27.7152 105.959 26.1924 105.033C26.1076 104.98 26.0199 104.927 25.9351 104.874C17.9876 99.952 12.9162 92.9921 10.648 89.3714C7.5058 84.8506 5.38957 79.9399 4.9745 78.949C4.92774 78.8405 4.88389 78.7291 4.84005 78.6206C2.60105 73.1236 0.952497 66.6796 0.315289 60.9422C0.309443 60.8806 0.300674 60.819 0.294828 60.7545C-0.310227 55.0523 -0.0676203 46.0899 1.844 38.9277C1.86739 38.8368 1.89369 38.7459 1.91708 38.655C3.26457 33.7443 5.70525 28.2854 8.44699 24.049C8.52591 23.9288 8.60483 23.8057 8.68375 23.6855C13.8516 15.887 20.7673 11.0585 24.4298 8.8743C24.5584 8.79808 24.687 8.72185 24.8156 8.64562C28.2384 6.65497 34.3562 3.88446 40.3278 2.62674C40.4301 2.60622 40.5324 2.5857 40.6318 2.56517C44.3908 1.80585 48.0153 1.61529 51.1574 1.69444C56.9391 0.940985 61.8789 1.3485 64.0916 1.61822C64.1968 1.62995 64.305 1.64461 64.4102 1.65926C70.6624 2.47136 76.1869 4.60274 77.7331 5.236C77.8237 5.27411 77.9143 5.31222 78.0049 5.34741C81.2874 6.7224 84.8915 8.67201 87.8904 10.692C87.9401 10.7272 87.9927 10.7594 88.0424 10.7946C91.0151 12.8175 93.6311 15.0925 95.8409 17.2884C97.6122 18.7572 99.4069 20.4694 101.146 22.4688C101.237 22.5744 101.327 22.677 101.418 22.7825C105.764 27.8867 110.096 36.0076 111.654 39.8864C111.704 40.0095 111.754 40.1356 111.8 40.2587C114.925 48.2712 115.752 57.2922 114.133 65.6594C114.107 65.7942 114.08 65.932 114.051 66.0669C113.785 67.3686 112.42 73.5194 109.269 79.72C108.328 82.8951 106.931 86.5569 104.867 90.0691C104.762 90.2509 104.654 90.4297 104.543 90.6115C98.6323 100.321 89.8956 105.634 86.4114 107.469C86.3471 107.501 86.2828 107.536 86.2214 107.569C83.9912 108.727 80.4368 110.336 77.1456 111.374C77.0199 111.415 76.8913 111.453 76.7656 111.491C74.6844 112.125 71.5773 112.931 65.9535 113.544C62.5804 114.042 59.1079 114.315 55.9423 114.315H55.9453Z" fill="#FF6D6D"/>
</g>
<g opacity="0.55">
<path d="M57.1874 111.708C57.088 111.708 56.9857 111.708 56.8864 111.708C56.7402 111.708 56.5941 111.708 56.4479 111.702C54.5977 111.67 52.7942 111.509 51.0989 111.277C45.9252 110.773 41.722 109.504 39.3719 108.659C39.331 108.645 39.2901 108.63 39.2492 108.615C33.5289 106.537 28.554 103.687 24.4618 100.146C24.3858 100.081 24.3098 100.014 24.2339 99.9461C19.7529 96.0117 16.4558 91.2418 14.8891 88.7469C14.8423 88.6736 14.7985 88.6003 14.7517 88.527C12.1766 84.3727 9.9756 79.3477 8.70995 74.7448C8.70703 74.7302 8.70118 74.7184 8.69826 74.7038C8.34166 73.6395 8.01721 72.5607 7.74245 71.4876C7.71906 71.3909 7.69276 71.2941 7.66937 71.1945C6.41834 66.146 5.93898 60.1828 6.35404 54.8324C6.36281 54.718 6.37157 54.6066 6.38327 54.4923C6.88602 48.6845 8.59011 40.1062 13.8631 32.2198C13.9391 32.1054 14.0151 31.9911 14.0941 31.8768C17.9816 26.1862 23.3657 21.1172 29.2555 17.605C29.3315 17.5581 29.4104 17.5141 29.4864 17.4672C29.5361 17.4379 34.6133 14.5061 39.4713 12.7911C39.5356 12.7676 39.6028 12.7442 39.6671 12.7236C46.881 10.2199 53.8552 9.94141 56.521 9.93555C56.5736 9.93555 56.6262 9.93555 56.6788 9.93555C62.6212 9.95021 71.8637 11.3164 79.1185 14.339C79.1915 14.3684 79.2646 14.4006 79.3377 14.4299C83.8858 16.3561 89.0303 19.5136 92.7658 22.6681C92.8447 22.7356 92.9266 22.803 93.0055 22.8734C97.7904 26.9807 102.14 32.6332 104.94 38.3823C105.001 38.5055 105.06 38.6315 105.121 38.7576C107.609 44.0054 109.231 50.0741 109.69 55.8497C109.699 55.9758 109.71 56.1047 109.719 56.2308C109.921 59.1245 110.102 66.7323 107.439 74.8709C107.407 74.9735 107.372 75.0761 107.337 75.1787C106.39 77.9932 103.876 84.3756 98.8602 90.588C94.2302 96.9118 88.6474 101.013 85.3152 103.101C85.2129 103.165 85.1106 103.23 85.0053 103.291C83.2662 104.361 78.9343 106.789 74.9854 108.325C74.8685 108.372 74.7516 108.416 74.6317 108.46C72.039 109.442 65.1934 111.702 57.1816 111.702L57.1874 111.708Z" fill="#FF6D6D"/>
</g>
<g opacity="0.55">
<path d="M60.8438 116.777C56.8218 116.777 52.6302 116.332 48.959 115.487C48.883 115.47 48.807 115.452 48.731 115.435C46.1208 114.816 43.4345 113.942 40.912 113.001C39.2167 112.614 37.5769 112.157 36.0833 111.653C35.94 111.606 35.7997 111.556 35.6565 111.506C27.3114 108.571 21.2697 103.467 19.0599 101.412C18.9167 101.277 18.7734 101.142 18.6302 101.005C13.7956 96.3695 10.6768 91.1656 9.24747 88.4772C9.19486 88.3746 9.13932 88.2749 9.08671 88.1723C7.11663 84.3903 5.62299 80.0953 4.88055 77.3366C4.83963 77.1782 4.79579 77.0229 4.75779 76.8645C3.46291 71.8131 3.16769 66.6327 3.10923 65.1639C3.10923 65.1053 3.10339 65.0437 3.10339 64.9851C2.90755 59.5555 3.75521 50.47 6.08482 43.3488C6.11112 43.2637 6.14035 43.1787 6.16958 43.0937C7.23062 39.9245 8.7681 36.6145 10.5716 33.545C10.7119 33.246 10.8551 32.9498 11.0013 32.6567C11.0773 32.5042 11.1562 32.3518 11.2351 32.1993C15.5172 23.8937 21.9156 18.3145 24.4674 16.3004C24.5258 16.2535 24.5872 16.2066 24.6457 16.1597C25.1484 15.7698 25.7155 15.3476 26.3381 14.9079C27.633 13.8642 28.6677 13.1224 29.2377 12.7266C29.3049 12.6797 29.3751 12.6328 29.4423 12.5859C32.3156 10.6246 35.5688 8.94174 37.7903 7.87459C37.8546 7.84234 37.9189 7.81302 37.9861 7.78077C45.0217 4.4503 53.1476 2.84957 60.8584 3.27174C61.0045 3.28053 61.1507 3.28933 61.2968 3.29812C67.6747 3.7203 74.5525 5.64059 80.1675 8.56648C80.2903 8.63098 80.4131 8.69548 80.5358 8.75997C84.3912 10.821 88.9277 14.172 92.0933 17.2972C92.1605 17.3647 92.2306 17.4321 92.2979 17.4995C95.0601 20.2642 97.7112 23.9699 99.9063 27.4382C103.277 31.4634 105.755 35.4946 107.223 38.1303C107.234 38.1508 107.246 38.1713 107.258 38.1947C109.926 43.0058 113.191 50.9508 114.355 58.8225C114.363 58.8929 114.375 58.9603 114.384 59.0307C114.948 62.9827 115.068 67.7439 114.705 71.7662C114.697 71.8776 114.685 71.992 114.673 72.1034C114.375 75.126 112.884 85.7155 106.191 95.0648C106.083 95.2173 105.972 95.3697 105.86 95.5193C99.5731 104.051 90.4973 108.97 85.6452 111.143C85.5838 111.169 85.5224 111.198 85.461 111.225C80.3809 113.47 71.5944 115.877 66.2717 116.484C66.1928 116.493 66.1139 116.502 66.035 116.511C64.3806 116.689 62.6297 116.777 60.8467 116.777H60.8438Z" fill="#FF6D6D"/>
</g>
<g opacity="0.55">
<path d="M70.3003 113.28C64.8431 113.28 59.3596 112.224 54.1334 110.081C50.5586 108.615 47.2001 106.669 44.1456 104.3C43.2248 103.584 42.3362 102.834 41.4857 102.054C38.3025 99.9257 35.3503 97.3721 32.708 94.4228C32.5092 94.2029 32.3134 93.9801 32.1205 93.7543C31.34 92.8455 30.5976 91.9279 29.8932 90.9926C21.6504 81.4908 17.7394 68.5237 20.0018 55.5155C20.2357 53.1936 20.6829 50.6312 21.475 47.893C21.6328 47.3447 21.8024 46.7994 21.9836 46.2571C23.7403 40.977 26.444 36.1718 29.9107 32.0351C32.9652 24.4331 38.1652 17.7898 44.9874 12.9846C55.0833 5.87807 67.7486 3.49162 79.724 6.44389C95.4496 10.3197 103.228 21.387 105.782 25.0224C107.632 27.658 109.456 30.622 111.055 33.5948C111.114 33.7004 111.169 33.8059 111.225 33.9144C112.099 35.5738 112.868 37.2624 113.534 38.9746C118.316 49.224 118.69 58.4209 117.451 65.7268C117.246 70.0277 116.416 74.2523 115.004 78.2688C114.139 81.5846 112.932 84.7011 111.368 87.668C111.184 88.0169 110.997 88.3629 110.804 88.7059C107.016 95.4342 102.26 99.7263 98.5391 102.711C97.823 103.285 97.0747 103.866 96.3732 104.391C95.8997 104.745 95.4642 105.062 95.0403 105.364C87.6335 110.594 79.002 113.277 70.3032 113.277L70.3003 113.28Z" fill="#FF6D6D"/>
</g>
<g opacity="0.55">
<path d="M69.3386 113.406C58.4505 113.406 47.6033 109.252 39.3226 101.054C34.2863 96.0675 30.7261 90.1101 28.68 83.7482C14.717 65.46 17.6692 39.2267 35.5782 24.5445C45.1977 16.6581 57.2141 13.6765 68.6166 15.2977C70.0547 15.1951 71.4986 15.1658 72.9484 15.2069C74.0504 15.2391 75.1523 15.3153 76.2514 15.4355C86.2187 16.5115 95.4348 21.0528 102.356 28.1417C110.64 35.7936 115.723 46.5649 116.144 58.0984C116.878 63.3814 116.638 68.8696 115.305 74.308C114.756 76.5537 114.013 78.7848 113.104 80.9367C113.028 81.1155 112.952 81.2944 112.873 81.4732C112.759 81.7312 112.642 81.9892 112.525 82.2472C110.941 86.2783 108.489 91.1597 104.803 95.613C104.759 95.6687 104.712 95.7215 104.669 95.7772C102.538 98.3278 100.155 100.615 96.452 103.667C88.5396 110.187 78.9259 113.406 69.3444 113.406H69.3386ZM32.4828 44.6416C32.4828 44.6416 32.477 44.6504 32.474 44.6563C32.474 44.6504 32.4799 44.6475 32.4828 44.6416Z" fill="#FF6D6D"/>
</g>
<g opacity="0.55">
<path d="M54.7873 90.0897C38.2316 90.0897 22.4739 80.3797 15.5201 64.1554C14.2165 61.1152 13.2928 58.0075 12.7258 54.8852C11.1298 49.0246 10.7557 42.739 11.8401 36.3917C15.3944 15.5294 33.5373 0.548154 54.3606 0.765104C62.1035 0.0233708 69.5074 1.09639 75.254 3.00203C75.5755 3.10757 75.8941 3.21898 76.2127 3.33332C80.4802 4.86076 84.4555 7.04198 88.0303 9.81248C92.254 13.0872 95.7469 17.0392 98.4243 21.4398C104.832 31.1468 107.298 43.4191 104.235 55.5947C99.9267 72.7103 85.9053 84.7979 69.5659 87.4276C64.7108 89.2307 59.7125 90.0897 54.7873 90.0897Z" fill="#FF6D6D"/>
</g>
<g opacity="0.55">
<path d="M59.1083 91.491C42.1141 91.491 26.0436 81.2504 19.3909 64.4427C19.1103 63.7303 18.3796 61.8745 17.7073 60.0333C16.0091 55.3836 10.8383 41.2349 18.3825 24.9637C18.7508 24.1692 19.1425 23.3865 19.5575 22.6183C25.7396 11.1816 36.6189 3.21602 49.4098 0.765073C62.3001 -1.70346 76.0147 1.87621 86.1019 10.3431C88.8144 12.6181 91.2522 15.2245 93.5409 18.3028C100.135 27.1713 102.795 37.7638 101.825 47.975C102.085 65.2577 91.8309 81.696 74.8631 88.4537C69.6923 90.5118 64.3579 91.4881 59.1112 91.4881L59.1083 91.491ZM25.0498 69.5351C25.0498 69.5351 25.0615 69.5498 25.0673 69.5586C25.0615 69.5498 25.0557 69.5439 25.0498 69.5351Z" fill="#FF6D6D"/>
</g>
<g opacity="0.55">
<path d="M74.6142 109.451C61.2972 109.451 48.6349 103.218 40.4651 92.3088C39.4509 90.9544 38.5214 89.5501 37.6796 88.0989C27.6158 75.0672 25.5609 56.7878 33.9118 41.3785C37.1563 35.3919 41.6197 30.487 46.8197 26.8136C50.7657 23.5007 55.3548 20.868 60.4407 19.1236C73.521 14.638 87.6039 16.8515 98.5095 24.3861C100.865 25.9223 103.084 27.6931 105.133 29.6925C113.259 37.62 117.886 48.3209 118.164 59.5524C120.081 74.8884 113.87 90.6847 101.134 100.398C100.617 100.793 100.088 101.177 99.553 101.547C97.6969 102.834 95.7619 103.96 93.7684 104.921C89.8984 106.862 85.7244 108.219 81.3721 108.914C79.1156 109.275 76.8561 109.451 74.6171 109.451H74.6142ZM33.6225 58.1452L68.3444 62.3053L70.5542 61.3203L70.3671 60.3029L33.7043 57.6702C33.6751 57.8285 33.6488 57.9869 33.6195 58.1452H33.6225ZM33.8943 56.7086L70.3467 60.1827L70.2502 59.655L49.4241 32.1816C41.1754 38.4731 35.8585 47.2215 33.8943 56.7086ZM55.7055 28.2032C54.095 29.0358 52.5253 29.9769 51.0083 31.0294L70.0836 58.7374L63.9161 25.1307C61.0429 25.8813 58.2953 26.9162 55.7084 28.2032H55.7055Z" fill="#FF6D6D"/>
</g>
<g opacity="0.55">
<path d="M73.3485 108.577C59.8327 108.577 46.539 102.16 38.2377 90.1863C28.0804 75.5363 28.3026 56.7497 37.3345 42.6011C38.1851 40.9739 39.1526 39.3791 40.2341 37.834C48.3395 26.2536 60.8352 19.3406 74.5147 18.8686C87.8406 18.4053 100.81 24.3275 109.216 34.7029C114.557 41.2964 117.751 49.133 118.713 57.9986C119.64 66.5505 118.33 74.6216 114.82 81.9891C111.552 88.8494 106.603 94.5634 100.611 98.7294C99.6903 99.4653 98.7199 100.192 97.6998 100.902C90.2666 106.085 81.7666 108.574 73.3485 108.574V108.577ZM110.157 87.0786C110.157 87.0786 110.143 87.0992 110.137 87.1109C110.143 87.1021 110.152 87.0904 110.157 87.0786Z" fill="#FF6D6D"/>
</g>
<path d="M24.9325 88.4998C31.8176 88.4998 37.3992 83.293 37.3992 76.87C37.3992 70.4471 31.8176 65.2402 24.9325 65.2402C18.0473 65.2402 12.4658 70.4471 12.4658 76.87C12.4658 83.293 18.0473 88.4998 24.9325 88.4998Z" fill="#FF5555" fill-opacity="0.66"/>
<path d="M90.0995 90.2018C96.9846 90.2018 102.566 84.9949 102.566 78.5719C102.566 72.149 96.9846 66.9421 90.0995 66.9421C83.2143 66.9421 77.6328 72.149 77.6328 78.5719C77.6328 84.9949 83.2143 90.2018 90.0995 90.2018Z" fill="#FF5555" fill-opacity="0.66"/>
<ellipse cx="31.7331" cy="52.8858" rx="20.7487" ry="19.8705" fill="white"/>
<ellipse cx="31.5686" cy="52.8882" rx="13.9534" ry="12.7259" fill="#2E2C2C"/>
<ellipse cx="86.2195" cy="52.888" rx="19.7673" ry="19.6673" fill="white"/>
<ellipse cx="86.2193" cy="52.8882" rx="12.7906" ry="12.7259" fill="#2E2C2C"/>
<g clip-path="url(#clip1_892_1722)">
<path d="M47.0733 40.0304C38.9231 38.1492 30.9182 35.6729 23.1098 32.619C21.0253 31.8053 19.3679 29.6352 20.1282 27.2377C20.7861 25.1551 23.144 23.3088 25.3823 24.1839C33.1907 27.2377 41.1956 29.714 49.3458 31.5953C51.5243 32.1028 53.0193 34.8066 52.3273 36.9766C51.5841 39.3217 49.4141 40.573 47.0733 40.0304Z" fill="#1D1D1B"/>
</g>
<g clip-path="url(#clip2_892_1722)">
<path d="M74.9455 76.4163C68.1097 70.7252 58.0836 69.6744 49.4481 72.3333C46.9165 73.1122 44.4732 74.1934 42.2044 75.4787C41.1465 76.0774 40.7495 77.5153 41.4763 78.4554C42.203 79.3955 43.6173 79.7347 44.7494 79.0943C45.6495 78.5839 46.5747 78.107 47.5255 77.6764C47.6513 77.6196 47.7819 77.5626 47.9078 77.5058C47.8751 77.5201 47.5809 77.6397 47.8284 77.5392C48.0526 77.4482 48.2813 77.3528 48.5054 77.2619C49.0239 77.0556 49.5479 76.8664 50.0816 76.6854C51.0744 76.3522 52.0881 76.0656 53.1133 75.8302C53.593 75.7203 54.0735 75.6277 54.5588 75.5391C54.6483 75.5225 55.0441 75.4505 54.5588 75.5391C54.6955 75.5163 54.8372 75.4977 54.9741 75.4792C55.2526 75.4421 55.5312 75.4049 55.8101 75.3764C56.8545 75.2609 57.9014 75.2056 58.9507 75.2106C59.4018 75.2139 59.8532 75.2258 60.3054 75.2549C60.4292 75.2628 60.5668 75.2616 60.691 75.2824C60.6099 75.2727 60.1811 75.2341 60.6387 75.2802C60.8962 75.3085 61.1536 75.3326 61.4065 75.3655C62.3656 75.4861 63.3175 75.663 64.2526 75.8923C64.6889 75.9996 65.1211 76.12 65.5489 76.2492C65.6691 76.2874 65.7941 76.3255 65.9143 76.3637C65.8325 76.3368 65.4664 76.2052 65.8806 76.3521C66.1215 76.4372 66.3577 76.5267 66.594 76.6163C67.5973 77.0066 68.5656 77.4672 69.4845 77.9988C69.6985 78.1237 69.9126 78.2529 70.1268 78.3821C69.7178 78.1315 70.2832 78.4921 70.4101 78.5775C70.8693 78.895 71.3057 79.235 71.7333 79.5925C72.6331 80.3533 74.2375 80.3487 75.0698 79.4576C75.9021 78.5664 75.9185 77.2258 74.9455 76.4163Z" fill="#2A2A2A"/>
<path d="M74.9455 76.4163C68.1097 70.7252 58.0836 69.6744 49.4481 72.3333C46.9165 73.1122 44.4732 74.1934 42.2044 75.4787C41.1465 76.0774 40.7495 77.5153 41.4763 78.4554C42.203 79.3955 43.6173 79.7347 44.7494 79.0943C45.6495 78.5839 46.5747 78.107 47.5255 77.6764C47.6513 77.6196 47.7819 77.5626 47.9078 77.5058C47.8751 77.5201 47.5809 77.6397 47.8284 77.5392C48.0526 77.4482 48.2813 77.3528 48.5054 77.2619C49.0239 77.0556 49.5479 76.8664 50.0816 76.6854C51.0744 76.3522 52.0881 76.0656 53.1133 75.8302C53.593 75.7203 54.0735 75.6277 54.5588 75.5391C54.6483 75.5225 55.0441 75.4505 54.5588 75.5391C54.6955 75.5163 54.8372 75.4977 54.9741 75.4792C55.2526 75.4421 55.5312 75.4049 55.8101 75.3764C56.8545 75.2609 57.9014 75.2056 58.9507 75.2106C59.4018 75.2139 59.8532 75.2258 60.3054 75.2549C60.4292 75.2628 60.5668 75.2616 60.691 75.2824C60.6099 75.2727 60.1811 75.2341 60.6387 75.2802C60.8962 75.3085 61.1536 75.3326 61.4065 75.3655C62.3656 75.4861 63.3175 75.663 64.2526 75.8923C64.6889 75.9996 65.1211 76.12 65.5489 76.2492C65.6691 76.2874 65.7941 76.3255 65.9143 76.3637C65.8325 76.3368 65.4664 76.2052 65.8806 76.3521C66.1215 76.4372 66.3577 76.5267 66.594 76.6163C67.5973 77.0066 68.5656 77.4672 69.4845 77.9988C69.6985 78.1237 69.9126 78.2529 70.1268 78.3821C69.7178 78.1315 70.2832 78.4921 70.4101 78.5775C70.8693 78.895 71.3057 79.235 71.7333 79.5925C72.6331 80.3533 74.2375 80.3487 75.0698 79.4576C75.9021 78.5664 75.9185 77.2258 74.9455 76.4163Z" fill="black" fill-opacity="0.2"/>
</g>
<g clip-path="url(#clip3_892_1722)">
<path d="M71.1068 40.228C79.4801 38.6564 87.7287 36.4802 95.7998 33.715C97.9543 32.9782 99.7267 30.8596 99.0457 28.4165C98.4569 26.2944 96.1275 24.343 93.814 25.1353C85.743 27.9006 77.4943 30.0768 69.121 31.6484C66.8826 32.0732 65.2548 34.7355 65.875 36.9469C66.5406 39.3365 68.7018 40.6816 71.1068 40.228Z" fill="#1D1D1B"/>
</g>
</g>
<defs>
<clipPath id="clip0_892_1722">
<rect width="119" height="118" fill="white"/>
</clipPath>
<clipPath id="clip1_892_1722">
<rect width="32.5579" height="16.1966" fill="white" transform="matrix(-1 0 0 1 52.498 23.9656)"/>
</clipPath>
<clipPath id="clip2_892_1722">
<rect width="34.5301" height="9.81598" fill="white" transform="matrix(-0.999183 0.0404228 -0.0408343 -0.999166 75.7734 80.0493)"/>
</clipPath>
<clipPath id="clip3_892_1722">
<rect width="33.1818" height="16.3138" fill="white" transform="matrix(0.999249 0.0387504 -0.038663 0.999252 66.208 23.8445)"/>
</clipPath>
</defs>
</svg>
