<svg width="52" height="51" viewBox="0 0 52 51" fill="none" xmlns="http://www.w3.org/2000/svg">
<g clip-path="url(#clip0_937_1722)">
<g opacity="0.55">
<path d="M25.3649 44.3096C19.0655 44.3096 12.9819 40.9188 9.8666 34.9951L9.29694 33.913C4.83546 25.4296 8.14996 14.9646 16.7012 10.5373C25.2525 6.11125 35.8015 9.39941 40.2642 17.8827L40.8339 18.9648C45.2954 27.4482 41.9809 37.9132 33.4296 42.3405C30.8495 43.6761 28.0868 44.3096 25.3649 44.3096Z" fill="#FF6D6D"/>
</g>
<g opacity="0.55">
<path d="M25.4355 50.8492C25.028 50.8492 24.618 50.8403 24.217 50.8188C24.1952 50.8188 24.1748 50.8163 24.1531 50.815C21.536 50.6642 18.4297 50.0218 16.0476 49.1348C16.0118 49.1209 15.976 49.1082 15.9403 49.0943C15.2812 48.8434 14.4893 48.4936 13.6476 48.059C13.0933 47.8259 12.5619 47.5762 12.0651 47.3152C11.9884 47.2747 11.9131 47.2341 11.8377 47.1936C7.52311 44.8355 5.03627 41.2622 3.7092 38.6811C3.69259 38.6482 3.67599 38.6152 3.65938 38.5823C3.53421 38.3339 2.41533 36.0886 1.80224 33.7026C1.79585 33.676 1.78819 33.6494 1.7818 33.6228C1.62853 33.0159 1.50719 32.3899 1.40884 31.769C0.97585 30.009 0.689743 28.2072 0.581175 26.9451C0.579898 26.9236 0.577344 26.9033 0.576066 26.8818C0.493044 25.8681 0.360209 23.2046 0.927314 20.3904C0.929869 20.3751 0.9337 20.3612 0.936255 20.346C1.08442 19.1156 1.43183 17.2859 1.99766 15.607C2.01427 15.5563 2.03215 15.5069 2.04875 15.4575C2.61714 13.8166 3.94294 10.6691 6.42466 8.01953C6.47447 7.96632 6.52557 7.9131 6.57538 7.85988C7.94972 6.42931 9.57695 5.21161 11.549 4.1371C13.7613 2.93208 15.8126 2.21489 18.0043 1.88418C18.1691 1.85883 18.3339 1.83729 18.4986 1.81702C18.5433 1.81195 18.5881 1.80562 18.6328 1.80055C20.3992 1.17206 22.2998 0.817268 24.2808 0.788124L24.5401 0.784323C25.8659 0.765316 27.2952 0.77672 28.7972 0.976924C28.8381 0.981992 28.8777 0.988328 28.9186 0.993396C31.869 1.40901 34.9881 2.57602 37.475 4.19412C37.5286 4.2296 37.5823 4.26508 37.6359 4.30056C39.7868 5.73366 41.704 7.69769 42.7807 9.0573C42.8037 9.08518 42.8254 9.11432 42.8484 9.1422C44.4003 11.1265 45.5422 13.4897 45.6686 13.7519C45.6788 13.7748 45.6903 13.7963 45.7005 13.8191C46.8859 16.3356 47.7416 19.4527 48.0098 22.2112C48.4927 24.1131 48.8886 26.4459 48.8924 28.6633C48.8924 28.6963 48.8924 28.728 48.8924 28.7609C48.8835 30.7046 48.5923 32.8815 48.0903 34.7328C48.0737 34.7936 48.0571 34.8532 48.0405 34.914C47.582 36.5346 46.449 39.691 44.0018 42.6256C43.9469 42.6903 43.8932 42.7562 43.837 42.8195C42.3298 44.5732 40.3795 46.1938 38.3448 47.3811C38.3167 47.3976 38.2886 47.4141 38.2605 47.4293C37.1633 48.0616 35.7711 48.7268 34.5373 49.2083C34.5053 49.221 34.4734 49.2336 34.4402 49.245C32.7568 49.8913 30.754 50.3968 28.9467 50.6325C28.9288 50.6351 28.9109 50.6376 28.8917 50.6401C28.0602 50.7466 26.7651 50.8467 25.4355 50.8467V50.8492Z" fill="#FF6D6D"/>
</g>
<g opacity="0.55">
<path d="M25.5633 50.2283C24.9949 50.2283 24.4456 50.208 23.9245 50.1675C23.8913 50.1649 23.8581 50.1624 23.8249 50.1599C23.77 50.1548 23.687 50.1485 23.5797 50.1371C23.176 50.1295 22.8095 50.1117 22.4965 50.0889C22.4621 50.0864 22.4263 50.0838 22.3918 50.0813C20.6381 49.9445 18.4323 49.5187 16.7731 48.9941C16.7322 48.9815 16.6901 48.9675 16.6492 48.9548C15.1791 48.4784 12.3167 47.3634 9.66003 45.2397C9.60894 45.1991 9.55785 45.1573 9.50803 45.1168C7.12977 43.1717 5.54979 40.8555 4.64549 39.2602C3.41931 37.6623 2.45753 35.8554 1.82273 33.8965C1.75887 33.7001 1.69884 33.5037 1.64264 33.3047C0.479048 29.2297 0.9593 23.975 1.11768 22.5748C1.02699 21.0277 1.11768 19.3386 1.46382 17.5076C2.11522 14.0674 3.77695 10.9934 6.13733 8.59731C8.68803 5.86415 12.0332 4.04711 15.6491 3.35527C16.8536 2.80661 18.1347 2.33651 19.3417 2.0058C19.3698 1.99819 19.3979 1.99059 19.426 1.98299C21.3994 1.45334 23.7713 1.15556 25.7676 1.18851C25.7995 1.18851 25.8302 1.18851 25.8621 1.18978C28.8995 1.25567 32.7887 2.07549 35.54 3.22983C35.5783 3.2463 35.6166 3.2615 35.6536 3.27798C37.6973 4.15228 39.9287 5.56511 41.621 7.05524C41.6759 7.10339 41.7309 7.15281 41.7858 7.20222C43.2751 8.5479 44.7478 10.3041 45.8271 12.0198C45.8334 12.0287 45.8386 12.0388 45.8449 12.0477C46.4721 13.0487 47.2729 14.5565 47.7493 15.6311C47.7621 15.6602 47.7762 15.6906 47.7889 15.7198C48.2564 16.7917 49.3996 19.6212 49.8939 22.7117C49.8977 22.7383 49.9015 22.7636 49.9066 22.7902C50.3856 25.8782 50.2272 29.6441 49.4915 32.6192C49.4839 32.6522 49.4749 32.6851 49.4673 32.7168C49.0943 34.1867 48.411 36.0392 47.7264 37.4368C47.7059 37.4786 47.6855 37.5204 47.6638 37.5635C46.1898 40.507 44.136 42.6636 43.3211 43.453C43.2853 43.4873 43.2495 43.5215 43.2138 43.5557C41.165 45.5096 38.8596 46.8109 37.9629 47.2797C37.94 47.2911 37.917 47.3038 37.894 47.3152C36.0803 48.2541 34.1197 48.9054 33.9025 48.9764C33.8757 48.9853 33.8489 48.9941 33.8208 49.003C31.4233 49.7747 28.2864 50.2283 25.5633 50.2283Z" fill="#FF6D6D"/>
</g>
<g opacity="0.55">
<path d="M24.6129 50.9999C24.1735 50.9999 23.7546 50.9885 23.3739 50.9657C21.6879 50.8618 19.3863 50.4513 17.777 49.9672C17.6901 49.9406 17.6033 49.914 17.5177 49.8874C12.332 48.2364 9.14904 44.658 7.49626 42.2151C6.51021 40.9441 5.66466 39.5275 4.79995 37.7105C4.78973 37.6889 4.77952 37.6661 4.7693 37.6446C3.48565 35.3308 2.58134 32.7599 2.12791 30.9327C2.12281 30.9137 2.11897 30.8947 2.11386 30.8769C1.97592 30.3143 1.84053 29.644 1.71919 28.9078C0.996258 26.6891 0.909404 24.8936 0.863423 23.9484V23.9268C0.855759 23.7925 0.849373 23.6569 0.845541 23.5226C0.768905 20.9124 1.26832 18.2932 2.331 15.7375C2.76272 14.6997 3.26723 13.7177 3.84073 12.799C4.08468 12.3074 4.34525 11.8373 4.62369 11.3824C4.65818 11.3267 4.69266 11.2696 4.72843 11.2139C5.9712 9.23846 7.69807 7.40622 9.8592 5.76784C9.88857 5.74503 9.91923 5.72222 9.94861 5.70068C12.9936 3.42368 16.7833 2.0362 19.3135 1.49641C19.3531 1.48754 19.3927 1.47993 19.4323 1.47106C21.5104 1.04278 23.7214 0.955348 26.1941 1.20117C26.2657 1.20877 26.3359 1.21637 26.4074 1.22398C27.2402 1.31774 29.4052 1.60664 31.505 2.28328C31.5548 2.29975 31.6059 2.31623 31.6557 2.3327C32.1756 2.50503 32.7222 2.7141 33.2753 2.94852C33.3059 2.95865 33.3353 2.96879 33.366 2.97893C33.4017 2.9916 33.4388 3.003 33.4745 3.01567C35.9844 3.87097 38.4584 5.27367 40.4407 6.96399C40.4931 7.00834 40.5442 7.05269 40.5953 7.09704C40.6145 7.11478 42.5802 8.83805 44.0196 10.7387C44.0362 10.7603 44.0529 10.7831 44.0695 10.8046C45.173 12.277 47.2665 15.797 48.1861 18.975C48.2014 19.0294 48.2167 19.0827 48.2321 19.1371C49.0597 22.1085 49.0636 24.9266 49.0265 25.9998C49.0252 26.0404 49.024 26.0809 49.0214 26.1227C48.9856 26.9818 48.8886 27.8536 48.757 28.6836C48.7417 30.1369 48.6025 31.309 48.5156 31.9008C48.5067 31.9578 48.499 32.0148 48.4901 32.0718C48.2895 33.3579 47.3955 37.8537 44.3441 41.6879C44.2891 41.7576 44.2329 41.8261 44.1767 41.8957C42.6147 43.7989 40.8418 45.1421 39.6284 45.934C39.5965 45.9543 39.5658 45.9746 39.5339 45.9948C39.4777 46.0316 39.4202 46.0683 39.3627 46.1038C38.9336 46.4029 38.5095 46.6791 38.0919 46.9465C36.4123 48.021 35.5539 48.4492 35.2308 48.6114C35.204 48.6254 35.1771 48.638 35.149 48.652C33.191 49.6163 30.8383 50.3664 28.6937 50.7098C28.6618 50.7148 28.6312 50.7199 28.5992 50.725C27.4356 50.9049 25.9374 51.0063 24.6154 51.0063L24.6129 50.9999Z" fill="#FF6D6D"/>
</g>
<g opacity="0.55">
<path d="M24.01 49.482C23.1147 49.482 22.1529 49.43 21.1566 49.2957C21.0851 49.2856 21.0136 49.2754 20.9421 49.2653C17.4641 48.7534 14.0525 47.2937 11.337 45.1535C11.2936 45.1193 11.2514 45.0864 11.2093 45.0521C10.397 44.3996 9.67658 43.709 9.04689 43.0324C8.18729 42.3114 7.33663 41.4726 6.54983 40.5019C6.49874 40.4386 6.44765 40.3752 6.39656 40.3106C4.70419 38.1641 3.56742 35.6033 3.35667 35.1117C3.34518 35.085 3.33368 35.0572 3.32219 35.0306C2.32336 32.6661 1.55828 29.8671 1.27728 27.5445C1.27345 27.5153 1.2709 27.4862 1.26707 27.457C0.928591 24.5262 1.30028 21.4471 1.72433 19.369C1.88015 18.4593 2.10367 17.5001 2.42427 16.5447C2.4396 16.499 2.45492 16.4522 2.47153 16.4065C3.17785 14.3576 4.24948 12.462 5.74899 10.612C5.83457 10.5069 5.92014 10.403 6.007 10.3003C6.87298 9.28157 7.79644 8.4136 8.70713 7.67867C9.33938 7.13255 9.98951 6.6333 10.655 6.18601C10.6856 6.16574 10.7163 6.14547 10.7469 6.12519C11.8645 5.38393 13.5991 4.4488 14.1355 4.18398C14.1674 4.1675 14.1994 4.1523 14.2313 4.13709C16.2379 3.15762 18.7694 2.3682 21.0034 2.02482C21.0468 2.01848 21.0902 2.01215 21.1336 2.00581C22.2168 1.84742 24.2182 1.6903 25.4738 1.71057C25.4929 1.71057 25.5121 1.71057 25.5313 1.71057C28.7576 1.76886 31.5089 2.61402 32.8602 3.11327C32.9126 3.13227 32.9637 3.15255 33.016 3.17155C35.5884 4.14723 37.5963 5.28003 39.3385 6.73467C39.3973 6.78282 39.4547 6.83224 39.5122 6.88166C41.4996 8.58719 42.98 10.6615 43.685 11.7461C43.7463 11.8411 43.8077 11.9362 43.8677 12.0325C44.4029 12.6673 44.8933 13.3199 45.3161 13.9623C45.3263 13.9775 45.3365 13.9927 45.3468 14.0079C46.2779 15.4334 47.2448 17.381 47.8093 18.9686C47.8195 18.9991 47.831 19.0295 47.8413 19.0599C48.4492 20.7984 48.8413 22.8042 48.9933 23.9927C49.001 24.0536 49.0087 24.1157 49.0163 24.1765C49.3625 27.1491 48.9461 29.8683 48.5348 31.6271C48.5259 31.6638 48.5182 31.7006 48.5093 31.7361C47.9153 34.2082 46.5959 37.7916 43.6812 40.8289C43.6518 40.8593 43.6237 40.8884 43.5943 40.9188C42.3081 42.2404 40.6886 43.5709 36.9717 45.7668C36.9462 45.782 36.9194 45.7972 36.8938 45.8124C34.3814 47.2785 31.3109 48.4771 28.6797 49.0169C28.6478 49.0233 28.6159 49.0296 28.5839 49.0359C27.617 49.2285 25.9758 49.482 24.0088 49.482H24.01Z" fill="#FF6D6D"/>
</g>
<g opacity="0.55">
<path d="M22.8029 48.7724C20.9534 48.7724 16.4881 48.4771 12.2884 45.9454C12.1888 45.8859 12.0905 45.8251 11.9921 45.763C9.79523 44.3793 8.22291 42.727 7.09126 41.2723C5.87658 39.914 5.05147 38.6874 4.74109 38.2021C4.72193 38.173 4.70277 38.1426 4.68361 38.1122C3.29906 35.9188 2.07927 32.9373 1.48407 30.9555C1.48151 30.9454 1.47768 30.9365 1.47513 30.9264C0.887584 28.9547 0.24512 25.6108 0.224684 22.9284C0.224684 22.9017 0.224684 22.8751 0.224684 22.8473C0.215743 19.9494 1.0102 15.2775 2.77666 11.869C3.76526 9.96326 5.90212 7.00329 8.68145 4.90242C8.72743 4.8682 8.77214 4.83399 8.81812 4.79978C10.5641 3.50733 13.8224 1.74857 17.2621 1.04026C17.3298 1.02632 17.3988 1.01238 17.4665 0.99971C20.6954 0.375024 23.8183 0.715877 25.0113 0.890739C25.033 0.893273 25.0547 0.897074 25.0764 0.900876C26.3358 1.09094 27.7293 1.42419 28.3667 1.58385C30.7896 2.00706 32.786 2.79267 33.417 3.05877C33.4476 3.07144 33.477 3.08411 33.5076 3.09678C34.9267 3.70373 37.0776 4.85553 38.8568 6.26963C38.8913 6.29751 38.9258 6.32538 38.9616 6.35326C39.521 6.80562 40.0587 7.28332 40.5786 7.79143C41.5033 8.59985 42.4459 9.53878 43.3119 10.5994C43.326 10.6171 43.34 10.6348 43.3554 10.6526C45.1282 12.8434 46.8832 16.0847 47.7236 18.719C47.7338 18.7507 47.744 18.7836 47.7542 18.8153C48.0059 19.6199 48.8246 22.4975 48.7939 25.7173C48.7939 25.7692 48.7939 25.8212 48.7914 25.8719C48.7543 27.936 48.4031 30.0989 47.7772 32.1263C47.7581 32.1871 47.7389 32.248 47.7198 32.3075C47.509 32.9651 47.2306 33.7178 46.8691 34.5224C46.5651 35.246 46.2279 35.9416 45.8626 36.5929C45.8294 36.6512 45.7962 36.7107 45.7617 36.769C44.0949 39.6593 41.5851 42.2379 38.6972 44.0321C38.6499 44.0613 38.6026 44.0904 38.5554 44.1195C37.821 44.5656 36.9703 45.0281 36.0187 45.4982C35.0046 46.0633 34.2625 46.4117 34.0684 46.5017C34.0492 46.5106 34.0313 46.5182 34.0122 46.5271C31.2954 47.7638 28.7652 48.2313 27.1213 48.4062C27.0715 48.4112 27.0217 48.4163 26.9719 48.4214C26.9629 48.4214 26.6513 48.4518 26.1557 48.4835C25.1479 48.6444 24.0878 48.7559 23.0456 48.7711C23.006 48.7711 22.9664 48.7711 22.9255 48.7724C22.8859 48.7724 22.845 48.7724 22.8016 48.7724H22.8029Z" fill="#FF6D6D"/>
</g>
<g opacity="0.55">
<path d="M24.4467 49.4072C23.9933 49.4072 23.5552 49.3945 23.1375 49.3679C23.1069 49.3654 23.0762 49.3641 23.0456 49.3616C22.5168 49.3261 21.6253 49.2425 20.5383 49.0486C20.0529 48.9675 19.5804 48.8687 19.1129 48.7508C17.9965 48.4809 16.7742 48.0983 15.5723 47.5547C15.4803 47.5129 15.3897 47.4711 15.2977 47.428C14.6616 47.1264 14.06 46.7982 13.4955 46.451C12.8121 46.1469 12.1109 45.7959 11.4455 45.3955C11.4084 45.3727 11.3701 45.3499 11.3331 45.3271C7.86018 43.1996 5.64412 40.1915 4.65297 38.6266C3.27991 36.6727 2.35517 34.5503 2.17379 34.122C2.15336 34.0751 2.1342 34.027 2.11504 33.9801C1.13666 31.6043 0.416279 28.8192 0.137835 26.3394C0.13528 26.3128 0.131449 26.2862 0.128894 26.2583C-0.1355 23.7938 -0.0294868 19.9202 0.805844 16.8247C0.816062 16.7854 0.827558 16.7461 0.837776 16.7068C1.42659 14.5844 2.49311 12.2251 3.69119 10.3941C3.72567 10.3421 3.76016 10.2889 3.79464 10.237C6.05285 6.86644 9.07486 4.77951 10.6753 3.83551C10.7315 3.80257 10.7877 3.76962 10.8439 3.73668C12.3395 2.87631 15.0129 1.67888 17.6223 1.13529C17.667 1.12642 17.7117 1.11755 17.7551 1.10868C19.3977 0.780502 20.9815 0.69814 22.3546 0.732352C24.881 0.406704 27.0396 0.582833 28.0065 0.699407C28.0525 0.704476 28.0997 0.710811 28.1457 0.717147C30.8778 1.06814 33.2918 1.98933 33.9675 2.26302C34.0071 2.2795 34.0467 2.29597 34.0863 2.31117C35.5206 2.90545 37.0955 3.74808 38.406 4.62112C38.4277 4.63632 38.4507 4.65026 38.4724 4.66547C39.7714 5.53978 40.9145 6.52305 41.8801 7.47212C42.6541 8.10695 43.4384 8.84694 44.1984 9.71111C44.238 9.75672 44.2775 9.80107 44.3171 9.84669C46.2164 12.0527 48.1093 15.5626 48.7901 17.239C48.8118 17.2922 48.8336 17.3467 48.854 17.3999C50.2194 20.863 50.5808 24.7619 49.8732 28.3782C49.8617 28.4365 49.8503 28.496 49.8375 28.5543C49.7213 29.1169 49.1248 31.7753 47.7479 34.4553C47.3366 35.8276 46.7261 37.4102 45.8243 38.9282C45.7783 39.0067 45.7311 39.084 45.6825 39.1626C43.0999 43.3593 39.2822 45.6553 37.7597 46.4485C37.7316 46.4624 37.7035 46.4776 37.6766 46.4916C36.7021 46.9921 35.1489 47.6877 33.7107 48.1363C33.6558 48.154 33.5996 48.1705 33.5447 48.187C32.6353 48.4607 31.2775 48.8091 28.8201 49.074C27.3461 49.2894 25.8287 49.4072 24.4455 49.4072H24.4467Z" fill="#FF6D6D"/>
</g>
<g opacity="0.55">
<path d="M24.9896 48.2807C24.9462 48.2807 24.9015 48.2807 24.8581 48.2807C24.7942 48.2807 24.7303 48.2807 24.6665 48.2782C23.858 48.2642 23.0699 48.1946 22.3291 48.0945C20.0683 47.8765 18.2316 47.3279 17.2047 46.9629C17.1868 46.9566 17.1689 46.9503 17.151 46.9439C14.6514 46.0455 12.4775 44.8139 10.6894 43.2832C10.6561 43.2554 10.6229 43.2262 10.5897 43.1971C8.63168 41.4966 7.19093 39.435 6.50631 38.3567C6.48588 38.325 6.46672 38.2933 6.44628 38.2617C5.32101 36.4662 4.35923 34.2943 3.80618 32.305C3.8049 32.2986 3.80235 32.2936 3.80107 32.2872C3.64524 31.8273 3.50347 31.361 3.3834 30.8972C3.37318 30.8554 3.36169 30.8136 3.35147 30.7705C2.8048 28.5885 2.59533 26.0112 2.7767 23.6987C2.78053 23.6493 2.78437 23.6012 2.78947 23.5518C3.00916 21.0416 3.75381 17.334 6.05799 13.9255C6.0912 13.8761 6.12441 13.8267 6.1589 13.7773C7.85766 11.3178 10.2104 9.12696 12.7841 7.60895C12.8173 7.58868 12.8518 7.56967 12.885 7.5494C12.9067 7.53673 15.1253 6.26962 17.2481 5.52836C17.2762 5.51822 17.3056 5.50808 17.3337 5.49921C20.486 4.4171 23.5335 4.29672 24.6984 4.29419C24.7214 4.29419 24.7444 4.29419 24.7674 4.29419C27.364 4.30053 31.4028 4.891 34.5729 6.19739C34.6049 6.21006 34.6368 6.224 34.6687 6.23667C36.6561 7.06917 38.9041 8.43385 40.5365 9.79726C40.571 9.8264 40.6067 9.85554 40.6412 9.88596C42.7321 11.6612 44.6327 14.1042 45.8563 16.589C45.8831 16.6422 45.9087 16.6967 45.9355 16.7512C47.0224 19.0193 47.7313 21.6422 47.9318 24.1384C47.9357 24.1929 47.9408 24.2487 47.9446 24.3032C48.0327 25.5538 48.1119 28.842 46.9483 32.3595C46.9343 32.4038 46.919 32.4482 46.9036 32.4925C46.4898 33.7089 45.3914 36.4674 43.1996 39.1524C41.1764 41.8856 38.7368 43.6583 37.2807 44.5605C37.236 44.5884 37.1913 44.6162 37.1453 44.6428C36.3854 45.1053 34.4925 46.1545 32.7669 46.8185C32.7158 46.8387 32.6647 46.8578 32.6123 46.8768C31.4794 47.3012 28.488 48.2782 24.9871 48.2782L24.9896 48.2807Z" fill="#FF6D6D"/>
</g>
<g opacity="0.55">
<path d="M26.5872 50.4716C24.8297 50.4716 22.9981 50.279 21.3939 49.9141C21.3606 49.9065 21.3274 49.8989 21.2942 49.8913C20.1536 49.6239 18.9798 49.2463 17.8775 48.8396C17.1367 48.6723 16.4202 48.4746 15.7675 48.2567C15.7049 48.2364 15.6436 48.2149 15.581 48.1933C11.9344 46.925 9.29433 44.7189 8.32872 43.8307C8.26613 43.7724 8.20355 43.7141 8.14096 43.6545C6.02836 41.6512 4.66552 39.4021 4.04094 38.2402C4.01795 38.1958 3.99368 38.1527 3.97069 38.1084C3.10981 36.4738 2.45713 34.6175 2.13271 33.4251C2.11483 33.3567 2.09567 33.2896 2.07906 33.2211C1.51323 31.0379 1.38423 28.7989 1.35868 28.1641C1.35868 28.1387 1.35613 28.1121 1.35613 28.0868C1.27055 25.7401 1.64096 21.8133 2.65894 18.7355C2.67044 18.6988 2.68321 18.662 2.69598 18.6253C3.15963 17.2555 3.83147 15.825 4.61954 14.4983C4.68085 14.369 4.74344 14.2411 4.8073 14.1143C4.84051 14.0485 4.87499 13.9826 4.90948 13.9167C6.78067 10.327 9.57661 7.91563 10.6917 7.04513C10.7172 7.02485 10.744 7.00458 10.7696 6.98431C10.9893 6.81578 11.237 6.63332 11.5091 6.44325C12.0749 5.99216 12.5271 5.67158 12.7762 5.50052C12.8055 5.48024 12.8362 5.45997 12.8656 5.4397C14.1211 4.592 15.5427 3.86468 16.5134 3.40345C16.5415 3.38951 16.5696 3.37684 16.599 3.3629C19.6734 1.92346 23.2242 1.23162 26.5936 1.41408C26.6575 1.41788 26.7213 1.42168 26.7852 1.42549C29.5722 1.60795 32.5776 2.43791 35.0312 3.70249C35.0849 3.73036 35.1385 3.75824 35.1921 3.78612C36.8769 4.6769 38.8592 6.1252 40.2425 7.47595C40.2718 7.50509 40.3025 7.53423 40.3319 7.56338C41.5389 8.75826 42.6974 10.3599 43.6566 11.8589C45.1293 13.5986 46.2124 15.3409 46.8536 16.48C46.8587 16.4889 46.8638 16.4978 46.8689 16.5079C48.035 18.5873 49.4618 22.0211 49.9701 25.4233C49.9739 25.4537 49.979 25.4829 49.9829 25.5133C50.2294 27.2214 50.2818 29.2791 50.1234 31.0176C50.1195 31.0658 50.1144 31.1152 50.1093 31.1633C49.979 32.4697 49.3276 37.0465 46.4027 41.0874C46.3554 41.1533 46.3069 41.2191 46.2584 41.2838C43.511 44.9711 39.5451 47.0973 37.4248 48.0362C37.398 48.0476 37.3712 48.0603 37.3443 48.0717C35.1245 49.0423 31.285 50.0826 28.9591 50.3449C28.9246 50.3487 28.8901 50.3525 28.8556 50.3563C28.1327 50.4336 27.3676 50.4716 26.5885 50.4716H26.5872Z" fill="#FF6D6D"/>
</g>
<g opacity="0.55">
<path d="M30.7194 48.9599C28.3348 48.9599 25.9386 48.5037 23.6549 47.5775C22.0928 46.9439 20.6252 46.1026 19.2905 45.0787C18.8881 44.7696 18.4998 44.4452 18.1282 44.1081C16.7372 43.1882 15.4472 42.0845 14.2925 40.8098C14.2057 40.7148 14.1201 40.6185 14.0358 40.5209C13.6948 40.1281 13.3704 39.7315 13.0625 39.3273C9.46065 35.2206 7.75167 29.6162 8.74027 23.994C8.84245 22.9904 9.03787 21.883 9.38401 20.6995C9.45298 20.4625 9.52706 20.2269 9.60626 19.9924C10.3739 17.7104 11.5554 15.6336 13.0702 13.8457C14.4049 10.5601 16.6772 7.68878 19.6583 5.61199C24.07 2.54051 29.6044 1.50908 34.8373 2.78506C41.709 4.46018 45.1078 9.24353 46.2242 10.8147C47.0327 11.9539 47.8297 13.2349 48.5283 14.5198C48.5539 14.5654 48.5782 14.611 48.6024 14.6579C48.9843 15.3751 49.3203 16.1049 49.6115 16.8449C51.7011 21.2748 51.8646 25.2497 51.323 28.4073C51.2336 30.2662 50.8709 32.0921 50.2539 33.828C49.8759 35.2611 49.3484 36.6081 48.665 37.8904C48.5845 38.0412 48.5028 38.1907 48.4185 38.339C46.7632 41.247 44.6851 43.102 43.0591 44.392C42.7462 44.6403 42.4192 44.8912 42.1126 45.118C41.9057 45.2713 41.7154 45.4082 41.5302 45.5387C38.2936 47.7992 34.5219 48.9586 30.7207 48.9586L30.7194 48.9599Z" fill="#FF6D6D"/>
</g>
<g opacity="0.55">
<path d="M30.299 49.0144C25.5412 49.0144 20.8013 47.2189 17.1828 43.6761C14.9821 41.5207 13.4264 38.9459 12.5323 36.1963C6.43078 28.2921 7.72081 16.9539 15.5466 10.6082C19.7501 7.19971 25.0009 5.91106 29.9835 6.61177C30.612 6.56742 31.2429 6.55475 31.8764 6.57249C32.358 6.58643 32.8395 6.61937 33.3198 6.67132C37.6752 7.13635 41.7024 9.09911 44.727 12.163C48.3468 15.4702 50.5679 20.1255 50.7519 25.1103C51.0725 27.3937 50.9677 29.7657 50.3853 32.1162C50.1452 33.0868 49.8207 34.0511 49.4235 34.9811C49.3903 35.0584 49.3571 35.1357 49.3226 35.213C49.2728 35.3245 49.2217 35.436 49.1706 35.5475C48.4783 37.2898 47.4067 39.3996 45.7961 41.3243C45.7769 41.3484 45.7565 41.3712 45.7373 41.3953C44.8062 42.4977 43.7652 43.486 42.1469 44.8051C38.6894 47.6231 34.4885 49.0144 30.3016 49.0144H30.299ZM14.194 19.2943C14.194 19.2943 14.1914 19.2981 14.1902 19.3006C14.1902 19.2981 14.1927 19.2968 14.194 19.2943Z" fill="#FF6D6D"/>
</g>
<g opacity="0.55">
<path d="M23.941 38.9371C16.7065 38.9371 9.82079 34.7404 6.78218 27.7282C6.21252 26.4142 5.8089 25.0711 5.56111 23.7216C4.86373 21.1886 4.70024 18.4719 5.1741 15.7286C6.72726 6.71186 14.6552 0.236921 23.7545 0.330688C27.1379 0.0101082 30.3733 0.473871 32.8844 1.29749C33.0249 1.34311 33.1641 1.39126 33.3033 1.44068C35.1681 2.10084 36.9052 3.04358 38.4673 4.241C40.3129 5.65636 41.8393 7.36443 43.0092 9.26636C45.809 13.4618 46.887 18.7659 45.5484 24.0282C43.6657 31.4256 37.5387 36.6499 30.3988 37.7865C28.2773 38.5658 26.0931 38.9371 23.941 38.9371Z" fill="#FF6D6D"/>
</g>
<g opacity="0.55">
<path d="M25.8289 39.5427C18.4029 39.5427 11.3805 35.1167 8.47346 27.8524C8.35085 27.5444 8.03153 26.7424 7.73776 25.9466C6.99567 23.937 4.73619 17.8219 8.03281 10.7894C8.19374 10.446 8.3649 10.1077 8.54627 9.77573C11.2477 4.83273 16.0017 1.38998 21.591 0.330678C27.2237 -0.73623 33.2166 0.810914 37.6245 4.47033C38.8098 5.45361 39.875 6.58008 40.8751 7.91054C43.7566 11.7436 44.9189 16.3216 44.4949 20.735C44.6086 28.2046 40.1279 35.3093 32.7134 38.23C30.4539 39.1195 28.1229 39.5415 25.8302 39.5415L25.8289 39.5427ZM10.9462 30.0533C10.9462 30.0533 10.9514 30.0597 10.9539 30.0635C10.9514 30.0597 10.9488 30.0571 10.9462 30.0533Z" fill="#FF6D6D"/>
</g>
<g opacity="0.55">
<path d="M32.6045 47.3051C26.7853 47.3051 21.2522 44.6112 17.6822 39.8963C17.239 39.3109 16.8328 38.7039 16.465 38.0767C12.0673 32.4444 11.1694 24.5439 14.8186 17.884C16.2363 15.2966 18.1867 13.1767 20.459 11.589C22.1833 10.1572 24.1886 9.01929 26.411 8.26536C32.1268 6.32668 38.2806 7.28335 43.0461 10.5398C44.0756 11.2038 45.045 11.9691 45.9404 12.8333C49.4912 16.2596 51.5131 20.8845 51.6344 25.7388C52.4723 32.3671 49.7581 39.1943 44.1931 43.3922C43.967 43.5633 43.7358 43.7293 43.5021 43.8889C42.691 44.4452 41.8455 44.9318 40.9744 45.3474C39.2833 46.1862 37.4594 46.7729 35.5575 47.0732C34.5715 47.2291 33.5841 47.3051 32.6058 47.3051H32.6045ZM14.6921 25.1306L29.8647 26.9287L30.8304 26.5029L30.7486 26.0632L14.7279 24.9253C14.7151 24.9938 14.7036 25.0622 14.6908 25.1306H14.6921ZM14.8109 24.5097L30.7397 26.0113L30.6975 25.7832L21.597 13.9091C17.9926 16.6283 15.6692 20.4094 14.8109 24.5097ZM24.3419 12.1896C23.6381 12.5495 22.9522 12.9562 22.2893 13.4111L30.6247 25.3866L27.9297 10.8617C26.6741 11.1861 25.4735 11.6333 24.3431 12.1896H24.3419Z" fill="#FF6D6D"/>
</g>
<g opacity="0.55">
<path d="M32.0515 46.9275C26.1454 46.9275 20.3364 44.1538 16.709 38.9789C12.2705 32.6471 12.3676 24.5275 16.3143 18.4124C16.686 17.7091 17.1088 17.0198 17.5814 16.352C21.1232 11.347 26.5835 8.3591 32.5611 8.1551C38.3842 7.95489 44.0514 10.5145 47.7248 14.9988C50.0584 17.8485 51.4544 21.2355 51.8747 25.0672C52.2796 28.7634 51.7073 32.2518 50.1733 35.436C48.7454 38.4011 46.583 40.8707 43.9646 42.6712C43.5622 42.9893 43.1382 43.3035 42.6924 43.6102C39.4443 45.8504 35.73 46.9262 32.0515 46.9262V46.9275ZM48.1361 37.6357C48.1361 37.6357 48.1297 37.6446 48.1272 37.6497C48.1297 37.6459 48.1336 37.6408 48.1361 37.6357Z" fill="#FF6D6D"/>
</g>
<path d="M10.8949 38.25C13.9035 38.25 16.3425 35.9996 16.3425 33.2235C16.3425 30.4475 13.9035 28.1971 10.8949 28.1971C7.88625 28.1971 5.44727 30.4475 5.44727 33.2235C5.44727 35.9996 7.88625 38.25 10.8949 38.25Z" fill="#FF5555" fill-opacity="0.66"/>
<path d="M39.3714 38.9856C42.3801 38.9856 44.8191 36.7351 44.8191 33.9591C44.8191 31.1831 42.3801 28.9327 39.3714 28.9327C36.3628 28.9327 33.9238 31.1831 33.9238 33.9591C33.9238 36.7351 36.3628 38.9856 39.3714 38.9856Z" fill="#FF5555" fill-opacity="0.66"/>
<ellipse cx="13.8665" cy="22.8576" rx="9.06667" ry="8.58808" fill="white"/>
<ellipse cx="13.7945" cy="22.8585" rx="6.09728" ry="5.50017" fill="#2E2C2C"/>
<ellipse cx="37.6754" cy="22.8584" rx="8.63781" ry="8.50027" fill="white"/>
<ellipse cx="37.6756" cy="22.8585" rx="5.58917" ry="5.50017" fill="#2E2C2C"/>
<g clip-path="url(#clip1_937_1722)">
<path d="M20.57 17.3012C17.0085 16.4881 13.5106 15.4178 10.0985 14.098C9.18762 13.7463 8.46339 12.8084 8.79564 11.7721C9.08309 10.872 10.1134 10.0741 11.0915 10.4523C14.5036 11.7721 18.0016 12.8424 21.563 13.6555C22.5149 13.8748 23.1682 15.0434 22.8658 15.9813C22.541 16.9949 21.5928 17.5357 20.57 17.3012Z" fill="#1D1D1B"/>
</g>
<g clip-path="url(#clip2_937_1722)">
<path d="M32.749 33.0275C29.7619 30.5678 25.3807 30.1137 21.6073 31.2629C20.501 31.5995 19.4333 32.0668 18.4419 32.6223C17.9797 32.8811 17.8062 33.5026 18.1238 33.9089C18.4414 34.3152 19.0593 34.4618 19.5541 34.185C19.9474 33.9644 20.3517 33.7583 20.7671 33.5722C20.8221 33.5476 20.8792 33.523 20.9342 33.4984C20.9199 33.5046 20.7914 33.5563 20.8995 33.5129C20.9975 33.4736 21.0974 33.4323 21.1953 33.393C21.4219 33.3039 21.6509 33.2221 21.8841 33.1438C22.3179 32.9998 22.7609 32.876 23.2089 32.7742C23.4185 32.7268 23.6284 32.6867 23.8405 32.6484C23.8796 32.6413 24.0526 32.6101 23.8405 32.6484C23.9003 32.6386 23.9622 32.6305 24.022 32.6225C24.1437 32.6065 24.2654 32.5904 24.3873 32.5781C24.8437 32.5282 25.3011 32.5043 25.7597 32.5064C25.9568 32.5079 26.1541 32.513 26.3516 32.5256C26.4057 32.529 26.4658 32.5285 26.5202 32.5375C26.4847 32.5333 26.2973 32.5166 26.4973 32.5365C26.6098 32.5488 26.7223 32.5592 26.8328 32.5734C27.2519 32.6255 27.6678 32.702 28.0764 32.8011C28.2671 32.8475 28.456 32.8995 28.6429 32.9553C28.6954 32.9719 28.7501 32.9883 28.8026 33.0048C28.7668 32.9932 28.6068 32.9363 28.7879 32.9998C28.8931 33.0366 28.9963 33.0753 29.0996 33.114C29.538 33.2827 29.9611 33.4818 30.3627 33.7115C30.4562 33.7655 30.5498 33.8213 30.6433 33.8772C30.4646 33.7689 30.7117 33.9247 30.7671 33.9616C30.9678 34.0989 31.1585 34.2458 31.3453 34.4003C31.7385 34.7291 32.4396 34.7271 32.8033 34.342C33.167 33.9568 33.1742 33.3774 32.749 33.0275Z" fill="#2A2A2A"/>
<path d="M32.749 33.0275C29.7619 30.5678 25.3807 30.1137 21.6073 31.2629C20.501 31.5995 19.4333 32.0668 18.4419 32.6223C17.9797 32.8811 17.8062 33.5026 18.1238 33.9089C18.4414 34.3152 19.0593 34.4618 19.5541 34.185C19.9474 33.9644 20.3517 33.7583 20.7671 33.5722C20.8221 33.5476 20.8792 33.523 20.9342 33.4984C20.9199 33.5046 20.7914 33.5563 20.8995 33.5129C20.9975 33.4736 21.0974 33.4323 21.1953 33.393C21.4219 33.3039 21.6509 33.2221 21.8841 33.1438C22.3179 32.9998 22.7609 32.876 23.2089 32.7742C23.4185 32.7268 23.6284 32.6867 23.8405 32.6484C23.8796 32.6413 24.0526 32.6101 23.8405 32.6484C23.9003 32.6386 23.9622 32.6305 24.022 32.6225C24.1437 32.6065 24.2654 32.5904 24.3873 32.5781C24.8437 32.5282 25.3011 32.5043 25.7597 32.5064C25.9568 32.5079 26.1541 32.513 26.3516 32.5256C26.4057 32.529 26.4658 32.5285 26.5202 32.5375C26.4847 32.5333 26.2973 32.5166 26.4973 32.5365C26.6098 32.5488 26.7223 32.5592 26.8328 32.5734C27.2519 32.6255 27.6678 32.702 28.0764 32.8011C28.2671 32.8475 28.456 32.8995 28.6429 32.9553C28.6954 32.9719 28.7501 32.9883 28.8026 33.0048C28.7668 32.9932 28.6068 32.9363 28.7879 32.9998C28.8931 33.0366 28.9963 33.0753 29.0996 33.114C29.538 33.2827 29.9611 33.4818 30.3627 33.7115C30.4562 33.7655 30.5498 33.8213 30.6433 33.8772C30.4646 33.7689 30.7117 33.9247 30.7671 33.9616C30.9678 34.0989 31.1585 34.2458 31.3453 34.4003C31.7385 34.7291 32.4396 34.7271 32.8033 34.342C33.167 33.9568 33.1742 33.3774 32.749 33.0275Z" fill="black" fill-opacity="0.2"/>
</g>
<g clip-path="url(#clip3_937_1722)">
<path d="M31.0718 17.3866C34.7307 16.7073 38.3352 15.7668 41.862 14.5716C42.8035 14.2532 43.578 13.3375 43.2804 12.2816C43.0231 11.3644 42.0052 10.521 40.9943 10.8635C37.4674 12.0586 33.863 12.9992 30.204 13.6785C29.2259 13.862 28.5146 15.0127 28.7856 15.9685C29.0765 17.0013 30.0209 17.5826 31.0718 17.3866Z" fill="#1D1D1B"/>
</g>
</g>
<defs>
<clipPath id="clip0_937_1722">
<rect width="52" height="51" fill="white"/>
</clipPath>
<clipPath id="clip1_937_1722">
<rect width="14.227" height="7.00022" fill="white" transform="matrix(-1 0 0 1 22.9404 10.3581)"/>
</clipPath>
<clipPath id="clip2_937_1722">
<rect width="15.0885" height="4.24258" fill="white" transform="matrix(-0.9992 0.0399821 -0.0412843 -0.999148 33.1108 34.5977)"/>
</clipPath>
<clipPath id="clip3_937_1722">
<rect width="14.4994" height="7.05101" fill="white" transform="matrix(0.999265 0.0383279 -0.0390891 0.999236 28.9312 10.3057)"/>
</clipPath>
</defs>
</svg>
