<?xml version="1.0" encoding="UTF-8"?>
<svg id="Capa_1" xmlns="http://www.w3.org/2000/svg" version="1.1" xmlns:xlink="http://www.w3.org/1999/xlink" viewBox="0 0 114 111">
  <!-- Generator: Adobe Illustrator 29.2.1, SVG Export Plug-In . SVG Version: 2.1.0 Build 116)  -->
  <defs>
    <style>
      .st0 {
        fill: #c06dff;
      }

      .st1 {
        fill: #fff;
      }

      .st2 {
        display: none;
        stroke: #000;
      }

      .st2, .st3, .st4 {
        fill: none;
      }

      .st4 {
        stroke: #2e2c2c;
        stroke-linecap: round;
        stroke-width: 5px;
      }

      .st5 {
        opacity: .6;
      }

      .st6 {
        fill: #2e2c2c;
      }

      .st7 {
        fill: #ac4dff;
        fill-opacity: .4;
      }

      .st8 {
        clip-path: url(#clippath);
      }
    </style>
    <clipPath id="clippath">
      <rect class="st3" width="113.2" height="111"/>
    </clipPath>
  </defs>
  <g class="st8">
    <g>
      <g class="st5">
        <path class="st0" d="M56.5,95.3c-24.7,0-45.1-19.7-45.7-44.6C10.2,25.5,30.1,4.6,55.4,4h.4c25.3-.6,46.2,19.3,46.8,44.6.6,25.2-19.4,46.2-44.6,46.8h-.4c-.4,0-.8,0-1.1,0Z"/>
      </g>
      <g class="st5">
        <path class="st0" d="M56.6,96.1c-3,0-6.1-.3-9.2-.9-24.7-5.1-40.7-29.2-35.6-53.9v-.5C16.9,16,41.1,0,65.8,5.1c24.7,5.1,40.7,29.2,35.6,53.9v.5c-4.5,21.6-23.6,36.5-44.9,36.5h0Z"/>
      </g>
      <g class="st5">
        <path class="st0" d="M57.2,97.9c-6.6,0-13.3-1.4-19.6-4.3-.3-.2-.7-.3-1-.5-3-1.5-5.1-2.9-6.3-3.7h0c-20.9-14.2-26.3-42.6-12.1-63.5,7.5-11,19-17.7,31.2-19.5,8.2-1.6,17-.9,25.4,2.4,23.5,9.3,35,35.8,25.7,59.2-1,2.5-2.4,5.8-4.9,9.5-.3.4-.6.9-.9,1.3-8.9,12.3-23.1,19.1-37.6,19.1Z"/>
      </g>
      <g class="st5">
        <path class="st0" d="M55,96.8c-23.5,0-43.5-18-45.5-41.9C7.5,30.6,24.8,9.2,48.7,5.8c.3,0,.6-.1.9-.2,24.8-4.8,48.8,11.3,53.6,36.1,2.9,14.9-1.6,30.2-12.2,40.9-11.7,12-25.2,13.3-29.6,13.7-.8,0-1.8.2-2.6.2-1.3.1-2.6.2-3.9.2h0ZM13.4,59.2h0s0,0,0,0ZM25.6,18.8s0,0,0,0h0Z"/>
      </g>
      <g class="st5">
        <path class="st0" d="M54.8,97.1c-23.6,0-43.7-18.2-45.5-42.1C7.4,32,23,11.6,44.9,6.8c.3-.1.7-.2,1-.3,24.3-6.8,49.6,7.3,56.4,31.6,2,6.9,2.3,14,1,21.1-.1.7-.3,1.4-.4,2-2.7,11.5-9.6,21.4-19.5,27.9-5.8,3.9-12.6,6.4-19.6,7.3-.2,0-.3,0-.5,0-1,.1-3.5.4-4.9.5-1.2,0-2.4.1-3.6.1Z"/>
      </g>
      <g class="st5">
        <path class="st0" d="M56.5,97.4c-2.4,0-4.8-.2-7.2-.5-.2,0-.4,0-.7,0-.7-.1-1.3-.2-2.6-.4h-.3c-24.9-4.4-41.6-28-37.3-52.9C12.6,19.5,34.7,3.2,58.5,5.8c15.2.4,29.9,8.3,38.2,22.3,12.9,21.7,5.8,49.7-15.9,62.6-7.3,4.3-15.6,6.6-24.4,6.6h0Z"/>
      </g>
      <g class="st5">
        <path class="st0" d="M55.2,97.2c-2.2,0-4-.1-5.1-.2-25.2-1.9-44.1-23.8-42.2-49C9.7,25.1,28,7.5,50.2,5.9c11-2,22.8,0,33,6.5,21.3,13.6,27.4,41.9,13.8,63.1-2.4,3.7-5.1,6.9-8.3,9.7-.3.2-.6.5-.8.7-5.9,5-12.8,8.4-20.7,10.1-.3,0-.5.1-.8.2-4,.8-8,1-11.2,1h0ZM20.1,26.1s0,0,0,0c0,0,0,0,0,0ZM56.7,5.9c.1,0,.2,0,.3,0-.1,0-.2,0-.3,0Z"/>
      </g>
      <g class="st5">
        <path class="st0" d="M55.5,102c-3.2,0-6.5-.3-9.5-.8-.1,0-.3,0-.4,0-8.1-1.5-16.1-5.2-22.5-10.4,0,0-.1-.1-.2-.2-4.4-3.6-8.7-8.7-11.6-13.5-.1-.2-.2-.4-.3-.6-3.4-5.9-5.7-13.3-6.2-20.1,0-.2,0-.5,0-.7-.2-2.9-.4-10.5,2.2-18.7,0-.1,0-.3.1-.4,3.8-11.7,12-20.2,13.6-21.8.1-.1.2-.2.4-.4,1.8-1.8,3.8-3.4,5.9-4.8,3.4-2.5,8.2-5.3,13.9-7.1.2,0,.5-.1.7-.2C50.4-.4,58.5.2,62.6.7c.1,0,.3,0,.4,0,6.5.9,11.9,3.1,14.5,4.3,0,0,0,0,.1,0,2,.9,7,3.5,11.9,7.6,0,0,.1.1.2.2,4.1,3.5,7.3,7.6,7.9,8.3.1.2.3.3.4.5,4.5,6,6.8,12.2,7.8,15.3,0,.2,0,.3.1.5,2.5,8.4,2.1,16.1,1.4,21.1,0,.2,0,.4,0,.6-1.6,10.2-6.8,20.1-14.3,27.3-.2.1-.3.3-.5.4-3.2,3-7.1,5.7-11.2,7.9-.4.2-.7.4-1.1.7-6.5,3.7-13.5,5.8-20.6,6.4-.2,0-.3,0-.5,0-1.1,0-2.3.1-3.5.1h0Z"/>
      </g>
      <g class="st5">
        <path class="st0" d="M57.5,102.8c-2.4,0-6.3-.1-10.5-1-.1,0-.3,0-.4,0-2.1-.4-4-1-5.8-1.6-6.2-1.9-12.7-5-17.6-8.8-.1-.1-.3-.2-.4-.3-4-3.1-11.4-9.9-15.6-20.7-.1-.3-.2-.6-.3-.9-4.2-11.4-3-21.8-1.9-27,0-.1,0-.3,0-.4,1.6-7.2,4.7-12.9,7-16.5,0,0,0,0,0-.1,1-1.5,3.7-5.4,7.5-9.1,0,0,.1-.1.2-.1,1.8-1.8,3.9-3.5,6.1-5,2.2-1.6,4.1-2.8,5.5-3.6.1,0,.2-.1.3-.2,6.4-3.5,14-5.7,21.3-6.1h0c1.5,0,6.9-.3,12.7.9.1,0,.3,0,.4,0,5.5,1.1,11.3,3.3,16.1,6.3,0,0,.2.1.3.2,5.2,3.2,10.3,7.8,14.1,12.6.1.1.2.3.3.4,0,0,0,0,0,0,0,0,0,0,.1.1,3.1,3.9,8.5,12.1,10.1,23.5,0,.2,0,.4,0,.7.3,2.1.4,4.8.3,7.8,0,6-1.3,12.2-3.5,17.6,0,.2-.2.4-.2.6-3,7.1-7.6,13.5-13.5,18.5,0,0-.2.1-.2.2-3.5,3-7.3,5.4-11.3,7.2-.1,0-.3.1-.4.2-5.7,2.6-12.3,4.3-18.6,4.6-.2,0-.3,0-.5,0-.4,0-1,0-1.8,0h0Z"/>
      </g>
      <g class="st5">
        <path class="st0" d="M62.4,97.7c-7,0-14.1-1.6-20.5-4.8-1.7-.8-3.3-1.8-4.8-2.8-.3-.2-.5-.3-.8-.5-5.1-3.1-9.7-7.1-13.3-11.9-2.1-2.5-3.9-5.3-5.4-8.3-3.9-7.6-5.5-16.1-4.8-24.6,0,0,0-.1,0-.2,0-1.1.3-3.2.8-5.9,0,0,0-.2,0-.2,1.6-7.9,5.1-15.2,10.3-21.2C30.9,8.7,40.7,2.8,51.5.8c.6-.1,1.2-.2,1.9-.3,6.9-1,13.7-.4,20.1,1.6,4.1,1,8,2.6,11.6,4.7,1.8,1,3.5,2.1,5.3,3.3.4.3.7.6,1.1.8,9.6,7.5,16,18.9,17.5,31.1,0,.3,0,.6.1.9.5,4.4.5,10.4-1.1,17-1,5.1-3,10.1-5.8,14.8-.4.6-.9,1.5-1.6,2.5-8.2,12-18.9,16.9-26.5,18.9-.5.1-1,.3-1.5.4-3.4.8-6.8,1.2-10.2,1.2h0ZM12.9,44.2c0,.1,0,.3,0,.4,0-.1,0-.3,0-.4ZM24.3,27s0,0,0,0c0,0,0,0,0,0ZM53.4,6s0,0,0,0c0,0,0,0,0,0Z"/>
      </g>
      <g class="st5">
        <path class="st0" d="M63,106.2c-7.7,0-15.5-1.9-22.5-5.8-.5-.3-.9-.5-1.4-.8-8.3-5-14.9-12.3-18.9-20.8-5.3-8.3-8-18.3-7.1-28.8,0-.2,0-.4,0-.6,0-3,.2-6.9,1.1-11,0,0,0-.1,0-.2.9-4.3,2.5-8.5,4.6-12.4,5.7-10.8,15.1-18.8,26.4-22.5.4-.1.8-.3,1.2-.4,6.3-1.9,12.9-2.4,19.6-1.6,2,.3,3.9.6,5.8,1.1,9.4,2.5,17.7,7.8,23.8,15.1,2.5,2.7,5.4,6.4,7.8,11.1.3.6.7,1.1,1,1.7.2.4.4.8.6,1.2,4.9,9.5,5.5,18.7,5.1,24.9,0,5.8-.9,11.6-3,17.1-3.7,11.5-11.4,21.2-22,27-.4.2-.8.4-1.3.7-6.6,3.4-13.8,5-21.1,5h0Z"/>
      </g>
      <g class="st5">
        <path class="st0" d="M62.8,104.4c-.3,0-.6,0-1,0-25.3-.5-45.3-21.4-44.8-46.6,0-3.1.2-4.9.4-6.1,0,0,0-.1,0-.2.2-2,.6-4.1,1.1-6.4C24.3,20.5,48.8,5.2,73.4,10.9c23.4,5.4,38.4,27.9,34.9,51.2-1.7,23.8-21.6,42.3-45.6,42.3h0Z"/>
      </g>
      <g class="st5">
        <path class="st0" d="M65.3,105.4c-2.3,0-4.7-.2-7.1-.6-5.4-.8-13.4-2.9-21.3-8.2-.2-.1-.4-.3-.6-.4-5.8-4-13.7-11.4-18.2-23.8-8.5-23.8,3.9-49.9,27.7-58.4,14.9-5.3,30.8-2.5,42.6,6.3,15.7,9.2,24.9,27.4,22,46.4-3.5,22.5-23,38.6-45.1,38.6h0Z"/>
      </g>
      <g class="st5">
        <path class="st0" d="M64.9,104.1c-6.2,0-12.5-1.3-18.6-4-4.4-1.9-8.3-4.4-11.8-7.2,0,0-.1-.1-.2-.2-2.9-2.4-5.4-5.1-8.1-8.6-15.4-20-11.6-48.7,8.5-64,17.9-13.7,42.7-12.1,58.8,2.6,15.9,12.7,21.8,34.9,13.2,54.3-7.6,17-24.3,27.1-41.8,27.1ZM98.8,28.6s0,0,0,0c0,0,0,0,0,0ZM83.5,16.7s0,0,0,0c0,0,0,0,0,0Z"/>
      </g>
      <g class="st5">
        <path class="st0" d="M65.1,104.5c-9.6,0-19.1-2.9-27-8.5-.2-.1-.3-.2-.5-.3-1.8-1.3-3.6-2.7-5.1-4.1-.2-.1-.3-.3-.4-.4-5.3-5-9.4-10.9-12.1-17.7-9.5-23.4,1.8-50,25.3-59.5,15.7-6.3,32.8-3.4,45.3,6.3,6.4,4.1,11.8,9.9,15.6,17,11.8,22.3,3.2,50-19.1,61.7-5.4,2.8-11.2,4.6-17.2,5.2,0,0-.1,0-.2,0-1.5.1-2.9.2-4.4.2h0ZM44.2,18.2s0,0,0,0c0,0,0,0,0,0ZM44.3,18.2h0,0Z"/>
      </g>
      <g class="st5">
        <path class="st0" d="M58.2,104.1c-9.3,0-18.5-2.8-26.5-8.2-.2-.1-.4-.3-.6-.4-1.5-1.1-3-2.2-4.4-3.5-10.5-8.4-16.9-21-17.3-34.5-.2-6.5.9-12.8,3.4-18.8,0,0,0-.2,0-.2.7-1.9,1.5-4,2.8-6.7,0-.1.2-.3.2-.4,1.7-3.3,3.9-6.4,6.4-9.3.6-.8,1.1-1.6,1.7-2.3,5-6.8,10.8-11,15.6-13.6C50.5.3,63.2-.9,75,2.8c11.7,3.7,21.5,11.9,27.1,22.9.4.9.8,1.7,1.2,2.6,0,0,0,0,0,0,.4.9.8,1.6,1.1,2.3.1.3.3.6.4.9,2.7,6.6,4,13.8,3.8,22.1,0,.2,0,.5,0,.7,0,.4,0,.9,0,1.5,0,1.7,0,3.4-.1,5-1.7,19.6-15.6,35.5-33.9,40.3-2.5.9-4.9,1.6-7.2,2-3,.6-6,.9-9,.9h0ZM13.9,36.2s0,0,0,0c0,0,0,0,0,0ZM14,36.1s0,0,0,.1h0Z"/>
      </g>
      <g class="st5">
        <path class="st0" d="M53.9,106.4c-5.2,0-10.3-.9-15.2-2.6-8.8-3.1-16.4-8.8-21.9-16.3-5.2-7.1-8.2-15.5-8.7-24.3-.4-7.1.9-14.4,3.7-20.9.3-.7.6-1.3.9-1.9,4.5-9.2,12.1-16.8,22-21.8,0,0,.1,0,.2-.1,1.2-.6,2.5-1.2,3.8-1.8.6-.3,1.2-.5,1.8-.7,4.5-1.8,9.1-2.8,13.7-3.1,1.5-.2,3-.3,4.5-.4,24.5-.8,45.3,17.8,47.1,42.2,1.5,20-10.1,38.4-28.6,45.8-.8.4-1.6.8-2.3,1.2-.1,0-.3.1-.4.2-3.4,1.6-8.9,3.6-15.1,4.3-.4,0-.7,0-1.1.1-1.5.1-2.9.2-4.4.2h0Z"/>
      </g>
      <g class="st5">
        <path class="st0" d="M49.7,107.2c-11.8,0-23.2-4.4-31.7-12.5-.3-.3-.6-.6-.9-.9-5.6-5.6-12.3-15.2-13.5-29.7,0-.5-.2-1.1-.3-1.8,0,0,0,0,0-.1-.3-1.9-.8-6.8-.4-11.8,0-.5,0-.9.1-1.4,1.1-9.2,4.8-17.8,10.8-24.9.4-.5.8-1,1.3-1.4,6.1-6.6,14-11.3,22.8-13.7,6.3-1.7,12.6-2,18.9-1.1,6,.9,11.7,2.9,16.8,5.9,9.5,2.8,17.7,8.6,23.5,16.4,4,5.1,7,11.2,8.6,18,4.8,20.8-5.5,41.9-24.2,51.1-3.2,1.8-7.3,3.8-12.1,5.1-.1,0-.2,0-.3,0,0,0-.1,0-.2,0-2.9.9-6.3,1.6-9.8,2,0,0,0,0-.1,0-.4,0-.9,0-1.4.1-1.5.2-2.9.3-4,.4-1.3.1-2.5.2-3.8.2h0Z"/>
      </g>
      <g class="st5">
        <path class="st0" d="M54.2,108.3c-3.3,0-6.6-.4-9.9-1.1h-.1c-.6-.1-1-.2-1.1-.3-.1,0-.3,0-.4-.1-6.7-1.6-12.2-4.5-14.8-6.2,0,0-.1,0-.2-.1-1.6-1-4.7-3-7.9-5.7-.3-.2-.5-.5-.8-.7-3.5-3.2-10-10.1-13.4-20.4,0-.2-.1-.3-.2-.5-2.7-8.5-2.2-15.6-2-18.1C5.2,30.3,26.8,11.5,51.9,13c10.7.7,20.3,4.9,27.7,11.6,15.4,10.2,23.6,29.2,19.2,48.2-4.8,21.2-23.7,35.5-44.5,35.5ZM44,107.2c0,0,.2,0,.2,0,0,0-.2,0-.2,0ZM3.4,55.4c0,.1,0,.2,0,.3,0-.1,0-.2,0-.3Z"/>
      </g>
      <g class="st5">
        <path class="st0" d="M54,107.9c-4.4,0-10.8-.6-17.4-3-.1,0-.3-.1-.4-.2-12.8-4.9-22.8-15.1-27.3-28-.2-.6-.4-1.1-.6-1.7-1.6-5.2-2.3-10.7-2.1-16.4,0-1.1,0-2.3.1-3.7,0-.5,0-1,.1-1.4,2.2-19.7,16.9-35.8,36.5-40,.2,0,.4,0,.6-.1.8-.2,1.6-.3,2.5-.4h0c7.9-1.3,15.8-.5,22.8,2,15.8,3.1,29.5,14.4,34.8,30.8,7.4,23-4.3,47.5-26.4,56.4-.7.4-1.4.7-2.2,1.1-.2,0-.4.2-.6.3-7.4,3.3-14.6,4.2-19.2,4.3-.1,0-.3,0-.4,0-.3,0-.5,0-.8,0h0Z"/>
      </g>
      <g class="st5">
        <path class="st0" d="M57.4,107.8c-3.5,0-6.5-.4-8.9-.8-24.9-4-42-27.4-38-52.3,3-19.2,17.6-33.7,35.5-37.5,6.8-2.8,14.4-4,22.3-3.1,25.1,2.8,43.2,25.3,40.5,50.4-.8,7-3.2,14-7.1,20-4.5,7.1-10.9,12.9-18.4,16.7-.2,0-.4.2-.5.3-1.5.7-3,1.4-4.6,2-.2,0-.4.2-.7.3-4.9,1.8-11.6,3.9-19.7,4h-.4ZM17.9,54.5h0s0,0,0,0ZM17.9,54.4h0s0,0,0,0Z"/>
      </g>
      <g class="st5">
        <path class="st0" d="M56.9,108c-.3,0-.5,0-.8,0-.1,0-.3,0-.4,0-.9,0-2,0-2.9-.1-25.2-1-44.9-22.3-43.8-47.5.4-10.7,4.5-20.4,11-27.9,1.6-3,3.6-5.8,5.8-8.3.4-.5.9-1,1.3-1.5,9.6-10,23.1-15.2,37-14.2.5,0,1,0,1.5.1,3.8.4,11.3,1.7,18.9,5.9.2.1.4.3.7.4,6.4,3.8,11.8,9,15.8,15.2,1.5,1.9,2.8,4,4,6.2,6.2,11.5,6.9,24.8,2.9,36.5-4.8,18.9-21.4,32.9-41.2,34.3-3.1.6-6.3.9-9.6.9h0Z"/>
      </g>
      <g class="st5">
        <path class="st0" d="M63.3,106.2c-1.1,0-1.9,0-1.9,0-.2,0-.3,0-.5,0-7.2-.2-14.2-2-20.6-5.2-22.5-11.4-31.6-38.9-20.2-61.4,8.8-17.5,27.4-26.8,45.8-24.8,22.4,0,41.9,16.5,45.2,39.3,3.6,25-13.8,48.1-38.8,51.7-.8.1-1.5.2-2.2.3-.2,0-.4,0-.6,0-2,.2-4.5.2-6.2.2h0ZM81.6,19.3s0,0,0,0c0,0,0,0,0,0Z"/>
      </g>
      <g class="st5">
        <path class="st0" d="M58.5,108.8c-3.5,0-6.8-.3-9.9-.8h-.3c-23.9-3.2-41.2-24.5-39.5-48.5,1.6-22.8,19.7-40.7,42.2-42.4,7.6-2.1,15.9-2.2,24.1,0,11.9,3.3,21.5,11,27.3,21,5.2,8.4,7.7,18.5,6.5,29-2.3,20.4-17.7,36.3-37.3,39.9-1,.3-2,.5-3,.7-.2,0-.4,0-.7.1-3.3.6-6.4.9-9.3.9h0ZM18.7,49.1s0,0,0,0c0,0,0,0,0,0ZM18.7,49h0s0,0,0,0Z"/>
      </g>
      <g class="st5">
        <path class="st0" d="M53.1,109.2c-1.2,0-2.5,0-4.1,0-.2,0-.5,0-.7,0-14.2-.7-23.8-6.5-29.4-11.3-.4-.3-.7-.6-1-.9-3-2.8-5.7-6-8-9.5-5.3-8.2-7.9-17.6-7.4-27.2,0-.5,0-.9,0-1.4,0-.9.2-1.7.3-2.5.6-5.2,2-10.4,4.4-15.2.9-2.8,2.3-6.3,4.7-10.2.2-.3.3-.5.5-.8,5.5-8.5,13.3-14.9,22.8-18.4,4.9-1.9,10.1-2.8,15.4-3,.4,0,1,0,1.2,0,14.7-1.3,28.6,4.5,38,14.9,1.1.9,2.2,1.9,3.3,3,.2.2.5.5.7.7,9.7,10.4,14.2,25.1,12,39.2,0,.3,0,.5-.1.8-1.5,8.4-5.5,16.7-11.2,23.2-.6.7-1.2,1.5-1.9,2.2-.1.1-.2.2-.3.4-2.5,2.7-5.5,5.1-8.7,7.2-5,3.6-10.7,6.3-16.9,7.7-2.5.6-4.9.9-7.5,1.1-1.4.1-3.3.2-5.9.2h0ZM58.9,109h0c0,0-.1,0-.2,0,0,0,.1,0,.2,0h0ZM54.6,8.8h0,0Z"/>
      </g>
      <g class="st5">
        <path class="st0" d="M52.7,111c-.9,0-1.8,0-2.7,0-.2,0-.3,0-.5,0-2-.1-3.9-.3-5.7-.7-8.8-1.1-17.1-4.8-23.8-10.5-.3-.2-.6-.4-.9-.6-.2-.2-.5-.3-.7-.5-9-6.8-15.2-16.8-17.5-28.1-.6-2.9-.9-6-1-9.1,0-.2,0-.3,0-.5,0-5.2.6-10.1,1.8-14.5,0-.1,0-.2.1-.4,3.1-10.8,9.6-18.2,13.2-21.7l.2-.2c11.2-10.6,26-15.3,40.6-12.9,1.1.2,2.2.4,3.2.7,5.8,1.4,11.2,3.9,15.9,7.3,1.1.3,2.1.7,3.2,1.2,1.7.7,3.3,1.5,4.9,2.3.9.5,1.7,1,2.5,1.5,14.1,7.8,23.6,22.8,23.6,40,0,24.7-19.7,44.9-44.3,45.6-3,.6-7.3,1.2-12.1,1.2h0Z"/>
      </g>
      <g class="st5">
        <path class="st0" d="M49.7,109.6c-13.5,0-26.8-5.9-35.8-17.2-2.3-2.9-4.2-5.8-5.7-8.8,0-.2-.2-.3-.2-.5-3.1-6.3-4.3-12.9-4.5-14.1,0-.2,0-.4,0-.6-.5-3.4-.7-6.8-.5-10.9,0-.1,0-.2,0-.3.3-5.3,1.5-13.3,5.8-21.3.2-.3.4-.7.5-1,3.9-6.9,11.4-16.1,25.2-21.3,0,0,.1,0,.2,0h0c23.5-8.9,49.9,2.8,58.9,26.3,3.4,9,3.9,18.3,1.8,27-.8,12.4-6.7,24.4-17.2,32.8-8.4,6.7-18.5,9.9-28.4,9.9h0Z"/>
      </g>
      <g class="st5">
        <path class="st0" d="M51,109.5c-3.1,0-6.6-.1-10.9-1,0,0,0,0-.1,0-5.7-1.2-19.9-5.5-29.5-19.3,0-.1-.2-.2-.2-.3-6.5-9.5-9.2-21.1-7.6-32.6,0-.6.2-1.3.3-1.9.9-4.8,2.4-9.1,5.1-14.4.1-.3.3-.6.4-.8.7-1.3,1.9-3.5,2.4-4.3C23,12.6,50.8,4.5,73,16.7c16.2,8.9,24.9,26.2,23.6,43.5,0,1.2.1,2.4.1,3.6,0,25.2-20.5,45.7-45.7,45.7h0Z"/>
      </g>
      <g class="st5">
        <path class="st0" d="M48.7,110c-3.7,0-7.5-.5-11.2-1.4-5.1-1.3-11.9-3.5-18.8-8.9-.5-.4-.9-.7-1.4-1.1C6.2,89.2.2,75,1.1,60.6c.4-6.9,2.4-13.6,5.8-19.7,0,0,0,0,0,0,.8-1.5,1.6-3.1,2.8-5,.2-.3.3-.5.5-.8,2.6-4,8.4-11.3,18.1-16.3.1,0,.3-.1.4-.2,7.4-3.7,14-4.4,16.3-4.7,25-2.7,47.5,15.2,50.4,40.2.8,7,0,13.8-2.1,20,0,.4-.2.9-.3,1.3-5.2,20.7-23.9,34.5-44.3,34.5h0ZM8.8,37.8h0s0,0,0,0ZM8.8,37.8s0,0,0,0c0,0,0,0,0,0ZM59.8,20s0,0,0,0c0,0,0,0,0,0ZM44.8,13.9s0,0,0,0c0,0,0,0,0,0ZM44.9,13.9h0,0ZM44.9,13.9h0,0Z"/>
      </g>
      <g class="st5">
        <path class="st0" d="M46.6,107c-4.6,0-9.2-.7-13.7-2.1-2-.6-3.9-1.4-5.7-2.2-12.5-5.8-21.6-16.8-25-30.2-.4-1.6-.7-3.3-1-4.9-.5-3.4-.7-6.8-.5-10.2,0-.1,0-.2,0-.4.3-5.5,2.4-19.6,13.9-31.1.3-.3.5-.5.8-.8,6.7-6.4,15.4-10.8,24.6-12.4.3,0,.7-.1,1-.2,4.5-.7,8.6-.6,11.7-.4,22.3.2,41.7,16.8,44.8,39.5,2.7,19.4-7.3,37.7-23.6,46.4-8,5.9-17.6,9-27.3,9h0Z"/>
      </g>
      <g class="st5">
        <path class="st0" d="M53.3,108.6c-.6,0-1.1,0-1.7,0,0,0,0,0-.1,0-.2,0-3.7-.1-6.8-.5-.1,0-.3,0-.4,0-8.4-1.2-16.7-4.8-23.3-10,0,0,0,0,0,0h-.1c-7-5.4-12.1-12.1-15.2-20-.2-.4-.3-.9-.5-1.3-3.4-9.6-3.6-20.2-.4-30,.1-.4.2-.7.4-1.1,2.8-7.9,7.1-13.2,10.2-17,16-19.6,44.8-22.5,64.3-6.6,2.1,1.7,4.1,3.6,5.8,5.6,8.4,7,14.3,17.1,15.9,28.7,3.5,25-14,48.1-39,51.5-3,.4-6.1.6-9,.6h0ZM20.6,97.6c0,0,.1.1.2.2,0,0-.1-.1-.2-.2ZM49.9,17.5c0,0-.1,0-.2,0,0,0,.1,0,.2,0Z"/>
      </g>
      <g class="st5">
        <path class="st0" d="M58.6,109.8h0c-7.6,0-10.5-.2-11.5-.3-.3,0-.6,0-1,0-6.7-.6-12.8-2.3-18.6-5.3C5.1,92.4-3.5,64.8,8.2,42.4c9-17.2,27.3-26.2,45.5-24.3,19.5-3.1,39.5,6.6,48.5,25.3,10.9,22.7,1.4,50-21.3,61l-.5.2c-.2,0-.4.2-.6.3-4.6,2.2-12,4.7-20.9,4.8h-.2ZM69.8,23.1s0,0,0,0c0,0,0,0,0,0ZM69.8,23.1s0,0,0,0c0,0,0,0,0,0Z"/>
      </g>
      <g class="st5">
        <path class="st0" d="M53,108.7c-1.2,0-2.6,0-4.2,0-.2,0-.3,0-.5,0-4.8-.2-9.5-1.1-14.1-2.7C10.4,97.8-2.4,71.8,5.7,47.9c5.9-17.3,21-28.7,38-30.7,15.9-7.2,35.2-5,49.1,7.2,9.5,8.3,15.1,18.5,16.5,30.2.1.8.2,1.7.2,2.5.6,8.5-1.3,17.1-5.3,24.6-2.7,5-6.2,9.3-10.4,13-4.2,3.7-9.1,6.6-14.4,8.6,0,0-.2,0-.3.1-.5.2-1.3.5-1.7.6-.2,0-.4.2-.7.2-2,.6-10.6,3.1-15.6,3.9,0,0,0,0,0,0-1.1.2-3.5.5-8.1.5h0ZM32.6,93.2s0,0,0,0c0,0,0,0,0,0Z"/>
      </g>
      <g class="st5">
        <path class="st0" d="M59.8,110.9c-10,0-20-3.2-28.1-9.4-.4-.3-.8-.6-1.2-.9-2.4-2-4.5-4.1-6.3-6.2-8.4-8.8-13.3-20.9-12.6-34,.5-8.9,3.5-17.1,8.3-23.9,2.2-3.8,5-7.2,8.2-10.2,8.6-8.7,19.9-13.6,32.1-13.9.5,0,1,0,1.5,0,7.1,0,13,1.8,16.7,3.2.6.2,1.2.5,1.7.7,6.6,2.9,12.5,7.3,17.1,12.8,1.7,1.7,3.3,3.6,4.9,5.7.2.2.3.5.5.7,10.2,14.9,10.7,34.6,1.3,50.2-.2.3-.4.6-.6,1-4.2,6.5-9.3,11.8-15.2,15.6-.3.2-.7.4-1,.6-3,1.8-6.1,3.3-9.4,4.4-5.7,2.4-11.8,3.5-17.9,3.5h0Z"/>
      </g>
      <g class="st5">
        <path class="st0" d="M62.2,98.7c-.8,0-1.5,0-2.3,0-2.5,0-5.1-.2-7.5-.7-2.1-.3-4.1-.8-6-1.4-1.9-.3-3.3-.7-4.4-1h0c-1.3-.4-4.5-1.5-7.8-3.4,0,0-.1,0-.2,0-.4-.2-1-.6-1.6-1-4-1.7-7.7-4.3-10.8-7.7-.2-.2-.4-.4-.5-.5,0,0-.1-.1-.2-.2-4.2-4.6-7-10.3-8.1-16.4,0-.1,0-.2,0-.3-.7-4-.4-8.2-.3-9.8,0,0,0,0,0-.1,0-.4,0-.9.2-1.4,0-.2,0-.4,0-.6.1-1.9.5-7.7,3.7-14.1,0-.2.2-.3.2-.5.4-.8,1.2-2.2,2.7-4.6.4-.6.7-1.1,1-1.5,2.8-4.2,6.1-7.2,9.4-9.3,2.5-2.3,5.3-4.1,8.3-5.4.2-.1.5-.3.7-.4,1.5-.9,3.4-2,5.8-3,5.3-2.1,10.9-2.3,12-2.4,0,0,.2,0,.2,0,4.7-.1,8.7.8,11.5,1.8,7.4,2.1,13.7,6.8,17.8,13.3,2.2,2.5,3.8,5,5.1,7.1,0,0,.1.2.2.3.9,1.5,2.2,3.9,3.8,8.5.2.6.4,1.1.6,1.6,1.7,3.6,2.8,7.5,3,11.7.1,1.9.3,5.1-.3,9-.2,1.3-.4,2.5-.7,3.8,0,.2,0,.4-.1.6-.1.5-.5,1.7-.7,2.3-1.1,3.8-3.4,9.4-8.2,14.3,0,0-.2.2-.3.3-1.9,1.9-7,6.2-12.5,8.5-.2,0-.3.1-.5.2-4,1.6-8.4,2.5-13,2.5ZM20.5,82.3s0,0,0,0c0,0,0,0,0,0Z"/>
      </g>
      <g class="st5">
        <path class="st0" d="M49.9,98.8c-1.8,0-3.8,0-5.7-.3,0,0,0,0-.1,0-1.2-.2-7.4-1.1-12.9-3.8,0,0-.1,0-.2,0-1.7-.8-5-2.7-8.1-5.4,0,0-.1-.1-.2-.2-2.9-2.6-5.5-5.8-7.4-9.2,0,0,0,0,0-.1-.4-.8-.8-1.6-1.2-2.3-.6-1.3-1.3-2.8-1.8-4.4-1.8-5.3-2-10.3-1.9-12.9,0,0,0-.1,0-.2.1-3.4.7-6.7,1.8-10.1.2-.7.4-1.4.6-2.1,0,0,0-.2,0-.3.3-.9,1.2-3.5,3.6-7.6,0,0,0,0,0,0,1.5-2.5,3.8-5.6,7-8.5,2.4-2.7,5.3-4.8,8.5-6.5,11.4-6.7,26.2-5.5,36.5,3.7,1.8,1.6,3.4,3.4,4.7,5.3,4.9,5.5,7.8,12.6,7.8,20.2,1.7,3.5,2.7,7.4,3,11.5,1.1,16.8-11.4,31.4-28.2,33-1.6.1-3.6.3-5.7.3h0Z"/>
      </g>
      <g class="st5">
        <path class="st0" d="M55.3,99.8c-6.3,0-10.1-.2-14.2-1.4,0,0-.2,0-.3,0-1.3-.4-3.3-1.1-3.8-1.3-2.6-1-6.4-2.7-10.2-5.7,0,0-.1,0-.2-.1,0,0,0,0,0,0-2.1-1.5-4.7-3.8-7-6.6,0-.1-.2-.2-.3-.4-2.7-2.9-4.4-5.8-5.4-7.5,0,0,0-.1,0-.2-2.5-4.7-3.5-9.3-4.1-13.2,0,0,0-.2,0-.2-.3-1.7-.8-6.3,0-11.2,0-.1,0-.2,0-.3.8-4.7,2.7-8.9,3.5-10.5,0,0,0,0,0,0,1.8-3.6,4.1-6.6,4.8-7.4,0,0,0-.1.1-.2,1.1-1.4,2.4-2.7,3.8-4,7.7-8.3,19.2-11.8,30.2-9.2,11.6,2.8,20.6,11.9,23.2,23.5,1.6,1.4,3.1,3,4.4,4.7,4.9,5.7,7.7,13.2,7.5,21.3-.6,16.7-14.3,29.9-31,30h-.7ZM73.4,41.6s0,0,0,0c0,0,0,0,0,0ZM73.4,41.6s0,0,0,0c0,0,0,0,0,0Z"/>
      </g>
      <g class="st5">
        <path class="st0" d="M41.2,91.6c-8.9,0-17.5-3.8-23.4-10.6-5.3-5-8.8-11.9-9.5-19.6-.2-1.8-.2-3.8,0-6.1.2-3.6.8-9,3.8-14.8,0,0,0-.1,0-.2.2-.4.5-1,1.4-2.5.2-.4.5-.9.7-1.3,0,0,0,0,0-.1,1.4-2.4,3.1-4.6,5.2-6.7,1.6-1.6,3.4-3.1,5.3-4.3.5-.5.9-1,1.4-1.5,0,0,0,0,0,0,1.6-1.6,3.4-3,5.5-4.4,6.1-4,12.8-5.8,19.7-5.3,1.7.1,3.4.4,5.1.8,11.9.6,22.8,8.1,27.4,19.9,5,12.9.8,27.1-9.5,35.4-.7,1.9-1.6,3.7-2.7,5.5-4.4,7-11.2,11.7-18.7,13.6-3.9,1.6-7.9,2.4-11.9,2.4h0Z"/>
      </g>
      <g class="st5">
        <path class="st0" d="M43.3,95.7c-7.4,0-14.5-2.6-20.1-7.4-.6-.5-1.1-.9-1.7-1.4,0,0,0,0-.1-.1-3.2-2.8-7.5-7.5-9.9-14.1,0-.2-.1-.3-.2-.5-.5-1.3-.9-2.7-1.2-4.1-.4-1.5-.7-3-.9-4.5-.3-1.6-.4-3.2-.4-4.8,0-3.6.6-7.1,1.3-9.9,1-4.7,3-9.1,5.9-13,0,0,0-.1.1-.2,1.7-2.2,3.7-4.2,6.1-6.1,1.5-1.2,3.1-2.2,4.7-3.1,0,0,.2-.2.2-.3,1.9-2.7,4.1-5.1,6.7-7.1,4.3-3.5,9.6-5.8,15.5-6.6h.2c1.7-.4,4.7-1.1,8.4-1.1,15.4,0,28.3,11.2,30.7,26,.2.9.3,1.9.4,2.9.2,2.6,0,5.2-.3,7.8.9,2.2,1.4,4,1.6,5,0,0,0,.2,0,.3,1,4.3.9,8.5.7,11.2,0,0,0,.2,0,.2-1,11.9-8.5,22.1-19.4,26.7-5.3,2.2-10.9,2.9-16.2,2.2-.6,0-1.3.1-1.8.2-.2,0-.4.1-.6.2-3.2,1-6.4,1.5-9.6,1.5h0ZM22,29.8c-1.8,1.4-3.4,3-4.7,4.8.5-.6,1-1.2,1.5-1.7,1-1.1,2.1-2.1,3.2-3Z"/>
      </g>
      <g class="st5">
        <path class="st0" d="M64.2,99.7c-2.3,0-4.6-.2-6.8-.8-8.7-1.9-16.1-7.5-20.4-15.1-3.4-.7-6.7-2-9.7-3.9-11.4-7-17.1-20.5-14.1-33.5.3-1.5.8-2.9,1.3-4.3.5-1.7,1.2-3.4,2.1-5,.5-1,1.1-2.1,1.8-3.1.7-1.1,1.9-2.8,3.4-4.5,0,0,.1-.1.2-.2,2.8-3.1,5.8-5.4,8.6-7,1.2-1,2.6-2,4-2.8.1,0,.2-.1.3-.2,1.1-.6,4.9-2.8,8.5-4,2.7-.9,7.6-2,11.3-2.2,0,0,.1,0,.2,0,5.1-.3,9.9.4,14.2,1.9.2,0,.4.1.5.2,6,2.3,10.4,6,13,8.8,0,0,.1.1.2.2,1,1.1,1.9,2.2,2.8,3.4,3.5,3.1,6.3,7,8.1,11.5,1,2.4,1.7,5.1,2.3,8,2.3,4.2,3.6,9,3.7,14,.6,7.1-1.2,14.2-5.2,20.4-.2.3-.3.6-.5.9-1.7,2.8-3.7,5.3-6.1,7.4-.5.5-1.1,1-1.7,1.6,0,0-.1.1-.2.2-6.3,5.3-13.9,8.2-21.6,8.2h0Z"/>
      </g>
      <g class="st5">
        <path class="st0" d="M43.4,85.2c-1.8,0-3.5-.2-5.2-.4-11.5-1.8-21.3-9.8-25.2-20.9,0-.3-.2-.5-.3-.8-1.2-3.8-1.5-7.4-1.5-9.7,0,0,0-.2,0-.3,0-2,.2-3.7.4-5.1,1.2-10.5,7.6-19.8,17.2-24.5.9-.5,1.9-.9,2.9-1.3,3-2,6.2-3.6,9.2-4.6,0,0,.1,0,.2,0,.1,0,.7-.2,1-.3h0c16.4-5.3,33.9,3.7,39.2,20,3.3,10.2,1,20.8-5.1,28.7-.8,1.4-1.8,2.8-2.9,4.1-1.7,2.1-3,3.2-5.2,5-.4.4-.8.7-1.1,1-.2.2-.4.4-.6.5-2.6,2.2-5.5,3.9-8.6,5.1-3.2,1.6-6.6,2.7-10.1,3.2-1.4.2-2.9.3-4.3.3h0ZM11.3,51.8h0s0,0,0,0Z"/>
      </g>
      <g class="st5">
        <path class="st0" d="M45.7,85.1c-15.1,0-28.3-11-30.7-26.3-.4-2.4-.5-4.7-.5-7-.8-10.4,3.6-20.9,12.5-27.5.2-.2.4-.3.6-.5.4-.3.8-.7,1.1-.9.1-.1.2-.2.4-.3.4-.3.8-.6,1.1-.9,3.8-3.2,7.2-5,8.4-5.6,7.8-3.8,16.9-4.2,25-1,8.1,3.2,14.5,9.6,17.7,17.7,1.1,2.8,1.8,5.8,2,8.7,2,10.9-2,22.3-11.1,29.6-.2.1-.4.3-.7.6-.1,0-.3.2-.4.3-4.7,6.6-11.9,11.3-20.6,12.7-1.6.3-3.2.4-4.8.4h0Z"/>
      </g>
      <g class="st5">
        <path class="st0" d="M42,87.1c-2.9,0-5.8-.4-8.6-1.2-1.3-.4-2.6-.8-3.8-1.4-8-3.5-14.2-10.2-17-18.4-2.9-8.5-2-18.6,2.5-27,.3-.6.5-1.2.8-1.8.3-.5.6-1,.9-1.5.9-1.5,1.9-2.9,2.9-4.2,0,0,.1-.1.2-.2,1-1.1,1.9-2.2,2.9-3,.3-.3.8-.8,1.2-1.2,1.7-1.8,2.9-2.9,4.1-4,10.6-9.5,26.3-10.5,38.1-2.6,1.8,1.2,3.4,2.5,4.8,4,3.7,2.4,6.8,5.6,9.2,9.5,7.1,11.4,6.1,26.1-2.6,36.4-1.2,1.5-2.6,2.9-4.2,4.1-.1,0-.2.2-.3.3-1.5,1.4-2.9,2.5-4.2,3.5,0,0,0,0,0,0-1.5,1-2.9,1.9-3.9,2.5-1.2.7-3.4,1.9-6.5,3,0,0,0,0,0,0-.6.3-1.2.5-1.7.7-3.7,1.5-7.7,2.3-11.6,2.3-1,.1-2.1.2-3.1.2h0Z"/>
      </g>
      <g class="st5">
        <path class="st0" d="M45,83.2c-1.3,0-2.7,0-4.1-.3-15-2-26-14.2-27-28.7-.3-2.8-.3-5.6.2-8.3.5-3.8,1.6-7.6,3.6-11.1,1.9-3.4,4-5.9,5.8-7.9h0c0,0,.1-.2.2-.2l1-1.1c.6-.7,1.3-1.3,2-1.9,11.3-11.5,26.5-11.4,36.8-6.1,2.9,1.5,5.5,3.4,7.7,5.6,10.2,9.2,13.2,24.1,7.2,36.5-2,4.2-4.8,7.8-8.5,11.1,0,0,0,0,0,0-5.8,7.5-14.8,12.2-24.7,12.2Z"/>
      </g>
      <g class="st5">
        <path class="st0" d="M45.8,84.4c-1.4,0-2.8,0-4.2-.3-7.4-1-13.9-4.2-18.9-9.3-.3-.3-.6-.6-.9-.9-2-2-3.9-4.2-5.4-6.8-6-10.3-5.5-22.8.6-32.3.4-.7.7-1.3,1.1-2,1.3-2.1,2.8-4.1,4.6-5.9,1.1-1.2,2.4-2.6,3.6-3.7,0,0,0,0,0,0,3.5-3.2,6.9-5.1,9.1-6.2,8.8-4.4,18.8-4.3,27.2-.3,3.3,1.4,6.4,3.4,9.1,5.9.8.7,1.6,1.4,2.3,2.2,11.2,11.5,11.7,29.5,1.4,41.8,0,0-.1.2-.2.2-.9,1-1.5,1.6-3.3,3.4-5.6,8.8-15.4,14.4-26.2,14.4h0Z"/>
      </g>
      <g class="st5">
        <path class="st0" d="M56.4,92h-.2c-.7,0-1.5,0-2.3,0-2.7,0-5.5-.3-8.1-.9-.1,0-.3,0-.4,0-5.8-1.5-11.3-4.6-15.5-8.7,0,0-.2-.2-.3-.3-4.6-4.6-7.8-10.7-9-17,0-.1,0-.3,0-.4-.3-1.5-.4-3-.5-4.4-1.2-6-.6-12.5,2-18.6,1.6-3.6,3.5-6.7,5.8-9.3,0,0,0-.1.1-.2.2-.3.5-.6.8-.8.9-1,1.9-2,2.9-2.9,1.2-2.2,2.7-4.3,4.5-6.3h0c.2-.2.3-.4.5-.5.2-.2.4-.4.6-.6,3.5-3.5,11.1-9.4,22.9-9.4h.1c.2,0,.3,0,.4,0,1.1,0,2.1,0,3.1.2,3.1.2,6.2.9,9.1,2.1.8.3,1.6.6,2.4,1,.2,0,.4.2.6.3,2.1,1,4,2.2,5.7,3.6.9.7,1.9,1.5,2.8,2.4.1.1.2.2.3.3,3,3,5.4,6.5,7,10.4,1.6,3.3,2.7,6.9,3.1,10.5.7,2.3,1.3,5.3,1.4,8.7,0,.4,0,1,0,3.3,0,4.2-.9,8.1-2.4,11.8-1.7,4.6-4.5,8.7-8.1,12,0,0,0,0,0,0-2.9,3.6-7.7,8.3-14.9,10.9-5.7,2.5-11.2,2.9-14.1,2.9h-.2,0Z"/>
      </g>
      <g class="st5">
        <path class="st0" d="M52.2,84.3c-3.3,0-6.5-.5-9.5-1.5-4.2-.7-8.3-2.3-11.9-4.7-5.4-3.6-9.4-8.7-11.7-14.5-2.4-4.2-3.7-9-3.9-14-.7-10.7,4.2-21.3,13.5-27.6l1.9-1.3c.1,0,.2-.2.3-.2.7-.5,1.3-1,1.8-1.4,0,0,0,0,.1,0,4.9-3.4,10-5.1,11.9-5.7,10.9-3.2,22.6-.3,30.7,7.6,8.1,7.9,11.2,19.6,8.2,30.5,0,.3-.2.6-.3.9h0c0,.3,0,.6,0,.9,0,16.4-12.8,30.1-29.4,31.1-.6,0-1.2,0-1.8,0h0Z"/>
      </g>
      <g class="st5">
        <path class="st0" d="M45.2,93.4c-3.9,0-7.8-.7-11.4-2.2-5-1-9.5-3.2-13.3-6.3-7.9-5.7-13-14.9-13-25.3v-.7c0-4.9,1-9.3,2.8-13.6,0,0,0-.2.1-.3.3-.8.7-1.5,1-2.1.5-1,1-1.8,1.5-2.7,2.1-3.5,4.8-6.5,8-8.8,1.9-1.5,3.9-2.8,6.1-3.9,1.9-.9,3.9-1.7,6-2.2,9.9-3,20.8-.9,28.9,5.8,3.8,3.2,6.8,7.1,8.7,11.6,1.8,2.3,3.3,4.9,4.5,7.7,6.4,15.9-1.3,34-17.3,40.5-3.1,1.2-5.8,2-8.7,2.3-.2,0-.4,0-.5,0-1.1.1-2.2.2-3.3.2h0ZM18.3,33.6h0s0,0,0,0Z"/>
      </g>
      <g class="st5">
        <path class="st0" d="M67.8,90.8c-2.3,0-4.5-.3-6.7-.7-1.1-.2-2.2-.4-3.3-.8-15.1-.7-27.9-12.3-29.6-27.7-.3-3.1-.2-6.2.4-9.1,0,0,0,0,0-.1,0-1,0-1.9.1-2.7.8-10.1,5.6-16.7,9.4-20.4.8-.8,1.7-1.6,2.6-2.3,6.4-5,14.4-7.2,22.4-6.4.5,0,1,0,1.6,0,11.7.2,21.8,6.8,26.9,16.5.7.8,1.3,1.6,1.9,2.5,1.8,2.4,3.2,5.2,4.2,8.1,1,2.9,1.6,6,1.8,9.2.5,7.8-1.9,15.2-6.4,21.1-4.7,6.5-11.8,11.1-20.2,12.5-1.7.3-3.4.4-5.1.4h0Z"/>
      </g>
      <g class="st5">
        <path class="st0" d="M64.6,97.9c-10.8,0-21.2-5.6-27-15.5-6-10.3-5.4-22.7.6-32.2,2.7-13.8,14.4-24.4,29-25.1,10.8-.5,20.5,4.5,26.5,12.5,1.8,2.3,3.7,5.3,5,9.2,1.4,3.5,2.1,7.2,2.1,11.2v1c0,3.3-.4,6.4-1.3,9.4,0,.1,0,.2,0,.4,0,.2-.1.4-.2.6-.2.7-.4,1.3-.6,1.8-1.1,4.1-2.9,7.8-5.4,11-5.4,9.5-15.6,15.8-27.1,15.8h0c-.6,0-1.1,0-1.7,0h0Z"/>
      </g>
      <g class="st5">
        <path class="st0" d="M55.9,90c-7.3,0-14.6-2.5-20.5-7.7-2.7-2.3-4.8-5-6.5-7.9-.2-.2-.4-.3-.5-.5-8.3-7.9-11.7-19.7-8.8-30.8,0-.2.1-.5.2-.7.5-1.7,1.6-4.6,3.2-7.8,1.3-3.4,3.2-6.6,5.7-9.4,1.6-1.8,4.4-4.5,8.2-6.8,0,0,0,0,.1,0,.6-.4,1.3-.7,2-1.1,2.1-1.1,4.1-1.8,5.9-2.4h0c2-.7,4-1.2,6-1.5,6.4-1.3,12.9-.6,18.6,1.9,3.3,1,6.4,2.5,9.3,4.5,9.7,6.9,14.5,18.6,12.7,30.1-.2,3.7-1.1,7.4-2.6,11-.4,1.2-1,2.6-1.9,4.2,0,.2-.2.4-.3.5,0,.1-.1.2-.2.3-1.4,5.1-3.9,9.6-7.3,13.5-6.2,7-14.8,10.6-23.4,10.6h0ZM87.9,63.2s0,0,0,0c0,0,0,0,0,0Z"/>
      </g>
      <g class="st5">
        <path class="st0" d="M54.4,81.4c-3.9,0-7.7-.7-11.2-2.1-.9-.2-1.7-.5-2.6-.8-4.4-1.3-8.5-3.5-12.1-6.7-2.5-2.2-4.6-4.8-6.2-7.6-5.8-10-5.6-22.4.7-32.3.5-.8,1-1.5,1.6-2.3,1.3-1.8,2.6-3.4,4-4.7,0,0,.1-.1.2-.2,3-2.9,6.4-5.2,11.3-7.5,1.1-.5,2.3-1,3.5-1.4,4.4-1.5,8.9-1.9,13.3-1.4h.6c10.3.1,19.6,5.3,25.2,13.3.8,1,1.5,2.1,2.1,3.2,6.1,10.6,5.4,23.9-1.7,33.9-.1.2-.3.4-.4.5-1.1,1.4-2.2,2.7-3.3,3.8-4.7,6.2-11.7,10.6-19.9,11.9-1.6.3-3.2.4-4.8.4h0Z"/>
      </g>
      <g class="st5">
        <path class="st0" d="M57.4,85.1c-8.2,0-16.2-3.3-22.1-9.1-2.6-2.1-4.9-4.6-6.7-7.4-1.7-2-3.1-4.1-4.2-6.4-1-1.9-1.8-3.8-2.4-5.9-.9-3.2-1.3-6.4-1.2-9.6,0-8.2,3.3-16.1,9.4-22,.1-.1.2-.2.4-.4,7.5-7.1,17.7-10,28.2-8,4.4.8,8.5,2.6,12.1,5.1.9.6,1.8,1.2,2.7,1.9,1.2.8,2.3,1.8,3.4,2.7,6.2,4.5,10.6,11.2,12.2,18.7.1.5.2,1.1.3,1.7,1.5,9-1.3,16-3.6,20.1-2.9,6.7-8.3,12.5-15.5,15.8-4.2,2-8.7,2.9-13,2.9h0ZM66.7,81.2c-.3,0-1.1.3-2.3.6.8-.2,1.5-.3,2.3-.6ZM67.1,78s0,0,0,0c0,0,0,0,0,0ZM49,21.5s0,0,0,0c0,0,0,0,0,0h0Z"/>
      </g>
      <g class="st5">
        <path class="st0" d="M55.8,85.4c-8,0-16-3-22-9.1-12.1-12.2-12.1-31.9,0-44,1.4-1.4,3-2.7,4.7-3.9,8.4-10,22.6-13.9,35.4-8.8,12.4,5,19.8,16.9,19.5,29.5,0,1.9,0,4.1-.4,6.3-.4,2.8-1.1,5-1.4,6.1,0,.1,0,.3-.1.4-2.3,6.9-6.9,12.7-12.7,16.5-3.6,2.6-7.7,4.4-12.1,5.3-.5.1-1.1.2-1.6.3-3,.9-6.1,1.4-9.2,1.4h0ZM89.4,65.6s0,0,0,0c0,0,0,0,0,0ZM31.8,56.4h0s0,0,0,0ZM31.8,56.4s0,0,0,0c0,0,0,0,0,0,0,0,0,0,0,0Z"/>
      </g>
      <g class="st5">
        <path class="st0" d="M61.8,83.1c-5,0-10-1.2-14.7-3.7-4.7-2.5-8.5-6.1-11.2-10.3-5.2-5.4-8.2-12.3-8.7-19.6-.7-4.5-.4-9.1,1-13.7,4.8-15.5,20.6-24.7,36.5-21.2l1.6.3c5,1.1,9.6,3.4,13.4,6.6,0,0,.2.1.3.2,0,0,.1.1.2.2.2.1.4.3.5.4,3.5,2.3,6.4,5.3,8.7,8.7.1.2.3.5.4.7,5.1,8.2,6.2,18.7,2.8,28,0,.3-.2.5-.3.7-1,2.5-2,4.3-3,6.2-5.6,10.4-16.4,16.4-27.4,16.4h0Z"/>
      </g>
      <g class="st5">
        <path class="st0" d="M48,102c-6,0-12-1.4-17.5-3.9-12.3-5.8-20.7-17.3-22.6-30.6,0-.7-.2-1.3-.2-2-.2-2.2-.2-4.2,0-6.2-.5-5.8.3-11.7,2.5-17.4.8-2.3,1.8-4.5,3-6.8.1-.2.2-.4.3-.6,2.9-5.2,6.2-9.6,10-13,0,0,.2-.1.2-.2.3-.2.8-.7,2.2-1.9,16.1-13.6,40-12.3,54.6,3,6.6,7,10.3,15.7,10.9,24.6,1.1,7.1.3,14.3-2.3,20.9-.4,2.3-.9,4.6-1.7,6.8-3.8,11.1-12.2,19.9-23.1,24.3-.3.1-.7.3-1,.4-5.6,2.1-10.9,2.6-13.6,2.7-.4,0-.7,0-1.1,0h-.4Z"/>
      </g>
      <g class="st5">
        <path class="st0" d="M54.2,103.7c-2.9,0-5.9-.3-9.1-.9,0,0-.2,0-.3,0-1.5-.3-3-.7-4.5-1.1-1.8-.5-3.5-1.1-5.2-1.9-3.3-1.4-6.9-3.4-10.4-6.2-.2-.2-.4-.3-.6-.5-3.9-3.3-6.6-7.1-7.6-8.5-.2-.3-.4-.5-.5-.8-3.7-5.6-7.8-14.9-6.6-27.3,1.8-18.9,16.8-33.9,35.7-35.8,1.2-.1,2.4-.2,3.6-.2,5.4-.2,10.8.7,16,2.7.4.1.8.3,1.1.5,17.9,2.7,32,17.4,33.7,35.9,1.8,20.2-11.9,38.4-31.7,42.5-2,.5-4,.8-5.9,1-2.5.5-5.1.7-7.7.7h0ZM71.1,101s0,0,0,0c0,0,0,0,0,0Z"/>
      </g>
      <g class="st5">
        <path class="st0" d="M54.8,103.8c-.4,0-.8,0-1.2,0-.2,0-.8,0-1.3,0-.2,0-.4,0-.6,0-1.5,0-2.9-.2-4.3-.3-1.8-.2-3.4-.5-5.1-.8,0,0-.2,0-.3,0-5.7-1.3-10.4-3.7-13.7-5.9-2.8-1.6-6.8-4.3-10.1-7.6-.1-.1-.3-.3-.4-.4-6.7-6.9-10.8-16.1-11.4-25.8,0-.3,0-.6,0-.9-.2-5.3.4-10.5,1.9-15.4.7-2.2,1.5-4.4,2.5-6.4,1.1-2.6,2.9-6.6,5.7-10.4,0-.1.2-.2.2-.3,3.3-4.4,7.3-8.1,12.4-11.3l.3-.2c.2-.1.5-.3.8-.5,5-3.3,10.4-5.4,16.2-6.2,21.8-3.3,42.1,11.7,45.4,33.4.2,1.6.4,3.1.4,4.6,2.4,6,3.3,12.7,2.5,19.6-2.3,18.5-17.1,32.7-35.3,34.6-1.5.2-3,.3-4.5.3h0ZM30,17.6c-.1,0-.2.2-.3.2,0,0,0,0,0,0,0,0,.2-.1.2-.2Z"/>
      </g>
      <g class="st5">
        <path class="st0" d="M63.3,99.3c-6,0-11.9-1.4-17.1-3.9-4.3-1.6-8.2-3.9-11.7-6.8-7.7-6.1-13.2-15.2-14.7-25.7-.6-4.6-1.4-10.3.5-17.8.3-1.3.7-2.5,1.1-3.8,3.9-10.9,12.2-19.3,22.4-23.5,2.9-1.3,6-2.2,9.3-2.8,1.6-.3,3.2-.4,4.7-.5,13.2-1.7,26.5,3.2,35.4,13.5,2.1,2.4,3.9,5.1,5.4,8,.1.2.2.4.3.6,1.1,2.2,2,4.4,2.6,6.6,0,.1,0,.2.1.4.6,2,1.1,4.2,1.4,6.4.2,1,.3,2.1.4,3.1,0,0,0,0,0,.1,0,.5,0,1.1,0,1.6.2,2,.2,4.1,0,6.1-.3,5.3-1.7,10.4-4,15-5.3,11.6-16.1,20.4-29.3,22.7-2.4.4-4.7.6-7,.6h0Z"/>
      </g>
      <g class="st5">
        <path class="st0" d="M55.8,100.7c-9.4,0-18.8-3.2-26.2-9-.3-.2-.6-.5-.9-.7-9.7-8-15.3-20.2-15-32.7,0-.2,0-.5,0-.7.2-3.2.6-5.7,1.1-7.7,2.5-11.2,9.5-20.2,18.7-25.6,3.1-2.9,6.3-4.8,8.6-6.1.3-.2.6-.3.9-.5,12.3-6.2,26.8-5.8,38.7,1.1.3.1.5.3.8.4,1.4.9,2.7,1.7,3.8,2.6,3,2.2,5.8,4.9,8.2,7.9,4.5,5.2,7.6,11.6,8.9,18.7.9,3.7,1.6,8.7.9,14.5-.7,5.9-2.6,11.3-5.6,16.1-3.1,5.5-7.4,10.2-12.6,13.8-.3.2-.5.3-.8.5-5.8,3.8-12.3,5.9-19.8,6.6-.2,0-.4,0-.7,0-2.8.2-4.6.3-5.6.4-.2,0-.3,0-.5,0-.2,0-.3,0-.5,0-.9,0-1.8,0-2.7,0h0ZM59.2,100.6s0,0,0,0c0,0,0,0,0,0Z"/>
      </g>
      <g class="st5">
        <path class="st0" d="M54.7,101.7c-2.3,0-4.7-.2-7.2-.5,0,0,0,0,0,0-7.3-1-14.3-3.8-20.1-8.2-.3-.2-.6-.4-.9-.7-6.4-5.1-11.1-11.9-13.6-19.6,0-.2-.1-.4-.2-.6-.5-1.5-.8-3-1.1-4.5-1.2-4.7-1.3-8.9-1.3-11.6,0-.1,0-.2,0-.3.1-3.5.8-10.3,4.1-17.3,0-.2.2-.3.2-.5,2.6-5.4,6.5-10.3,11.1-14.2,3.3-3.5,7.1-6.3,11.2-8.4,5.6-3,11.8-4.7,18.4-4.9,11.9-.2,23.2,4.8,31,13.7,6,4.8,10.7,11.1,13.4,18.3,0,.3.2.5.3.8,2.6,7.4,3.1,15.3,1.4,22.9,0,.2,0,.4-.1.6-2.2,9.4-7.6,17.8-15.2,23.7,0,0-.2.1-.3.2-1.8,1.4-3.7,2.6-4.9,3.4-.1,0-.2.1-.3.2-1.6,1-7.5,4.3-14,6-.1,0-.2,0-.3,0-4.1,1-8,1.3-9.9,1.4-.1,0-.2,0-.3,0-.5,0-1,0-1.5,0h0Z"/>
      </g>
      <g class="st5">
        <path class="st0" d="M61.1,94.6c-4.5,0-9-.7-13.3-2.3-.6-.2-1.2-.5-1.9-.7-1.8-.8-3.5-1.6-5-2.4-2.9-1.6-5.7-3.5-8.3-5.8-2.4-2.2-4.5-4.6-6.2-7.2-1-1.4-2-3-2.9-4.6,0-.2-.2-.3-.3-.5-2.1-4.1-5.5-12.4-4.7-22.7.6-8.8,4.2-16.9,9.7-23.3,3-3.6,6.7-6.7,10.8-9,1.8-1.1,3.8-2,5.7-2.7,2.1-.8,4.2-1.4,6.4-1.9.3,0,.6-.1.9-.2,10.2-2.2,20.9-.3,29.8,5.3,4.9,3.1,9.1,7.2,12.3,12.1.1.2.2.3.3.5.7,1,2.1,3.5,3.6,6.9,2.9,6.2,4.2,12.8,3.8,19.6-.3,6-2,11.8-4.9,16.9-3.3,6.6-8.4,12.2-14.9,16.1-6.4,3.9-13.7,6-21,6h0Z"/>
      </g>
      <g class="st5">
        <path class="st0" d="M60.4,95.5c-1,0-2,0-3.1-.1-.2,0-.5,0-.7,0-4.1-.4-9.8-1.5-15.6-4.5-2.4-1.1-4.7-2.5-6.8-4.1-.4-.3-.8-.6-1.3-1-9.5-7.6-15.1-19-15.2-31.2,0-.3,0-.6,0-.9,0-3.4.5-6.7,1.4-9.9.4-1.6.9-3.4,1.7-5.4,0,0,0-.2.1-.3,2.6-6.5,6.5-11.3,9.3-14.1.2-.2.4-.4.5-.5,3-2.9,9.2-8.1,18.3-10.7.2,0,.4-.1.6-.2,5.1-1.4,10.4-1.8,15.9-1.3.2,0,.3,0,.5,0,12.8,1.4,24,8.3,30.5,19.1,3.1,5.1,5.1,10.9,5.6,16.8.5,5.3,0,10.8-1.6,15.9-2.3,10-8.8,21.4-21.3,27.8-.4.2-.8.4-1.1.6-3,1.4-5.9,2.3-8.7,2.9-3,.7-6,1-9.1,1h0Z"/>
      </g>
      <g class="st5">
        <path class="st0" d="M58.9,96.4c-12.4,0-24.4-5.8-32.1-16.2,0,0,0,0,0,0-3.1-4.1-6.7-10.5-8.2-18.7-1.2-5.5-1.3-11.2-.2-16.8,1.2-5.8,3.6-11.2,7-15.8,3.9-5.6,9.3-10.1,15.7-13.1.7-.3,1.4-.6,2.2-.9,9.7-4.1,20.4-4.2,29.9-.6,3.8,1.3,7.3,3.2,10.6,5.7l.9.7c13.2,9.9,18.7,26.8,14.5,42.3-1.7,9.4-6.7,18.3-14.9,24.6-2.9,2.3-6.1,4.1-9.4,5.4-1.3.6-2.6,1.1-4,1.5-4,1.3-8,1.9-12,1.9ZM26.7,80.1s0,0,0,0c0,0,0,0,0,0Z"/>
      </g>
      <g class="st5">
        <path class="st0" d="M59.8,97.4c-1.9,0-3.8-.1-5.8-.4-.4,0-.8,0-1.2,0-.2,0-.3,0-.5,0-1.2-.1-2.4-.3-3.6-.5-3-.5-5.9-1.3-8.7-2.3-.2,0-.4-.1-.6-.2-3.7-1.5-16.5-7.4-22.9-21.4,0-.2-.2-.3-.2-.5-2.7-6-3.9-12.8-3.5-20,0-.2,0-.3,0-.5.2-3.9.8-7.4,1.8-10.7,0,0,0-.2,0-.2.6-2.1,2.1-6.3,4.5-10.4,0-.1.2-.3.2-.4,5.8-9.6,15.3-16.6,26.1-19.1.2,0,.4-.1.7-.2,6-1.3,11.6-1,14.4-.7,0,0,.2,0,.2,0,4.7.5,9.9,2,14.2,4,.1,0,.3.1.4.2,6,2.9,11.5,7.3,15.6,12.6.1.2.2.3.4.5,1.5,2,3.6,5.2,5.4,9.3,5.7,11.1,6.5,23.2,2.3,34.2-.3.8-.7,1.6-1,2.4-3.8,8.2-10.1,14.6-17.7,18.7-6.1,3.6-13.1,5.7-20.5,5.7h0Z"/>
      </g>
      <g class="st5">
        <path class="st0" d="M54.6,94.7c-2.9,0-5.4-.3-7-.5-.3,0-.5,0-.8-.1-12.3-2.1-23.2-9.8-29.1-20.7-.2-.4-.4-.8-.6-1.2-5.1-10.1-4.6-19.8-3.9-24.7,0-.2,0-.3,0-.5.5-2.8,1.5-7.1,3.6-11.7,5.1-14.4,18.2-25,34.1-26.4,8.7-.8,17.1,1.4,24.1,5.6,5.3,2.7,9.9,6.6,13.7,11.4,4.1,5.3,6.8,11.2,8,17.6,0,.2,0,.4.1.6,1.2,7.1.6,14.7-1.7,21.5,0,.1,0,.3-.1.4-3,8.3-8,14-10.8,16.6,0,0-.2.2-.2.2-3.2,3-9.9,8.4-19.6,10.7-.3,0-.5.1-.8.2-3.3.7-6.4.9-9.1.9h0ZM25.9,21.8c-.3.3-.5.6-.8.8.5-.6,1.1-1.1,1.6-1.6-.3.3-.5.5-.8.8ZM26.8,21s0,0,0,0c0,0,0,0,0,0Z"/>
      </g>
      <g class="st5">
        <path class="st0" d="M53.6,92.9c-2.3,0-4.6-.2-6.9-.6-15.6-2.7-27.4-14.1-31.5-28.4-2.4-7.3-2.6-15.2-.6-22.7,3.5-17.5,18.6-30.9,37-31.8,17.5-.9,33.1,9.6,39.2,25.3,2.5,6,3.6,12.6,2.9,19.3-.2,2.3-.5,4.6-1.1,6.8-3.7,18.9-20.3,32.1-39,32.1h0Z"/>
      </g>
      <g class="st5">
        <path class="st0" d="M56.8,101.6c-1,0-2,0-2.9,0-1.4,0-3,0-4.7-.2-6.4-.1-15.3-1.8-24-8.5-.3-.2-.7-.5-1-.8-1.6-1.3-4.7-3.7-7.7-7.8-.3-.4-.6-.8-.8-1.1-5.7-8.2-8-18-6.9-27.4.4-8.5,3.5-16.4,8.4-22.7,8.2-10.9,21.7-17.1,35.9-15.6,3.5.4,6.9,1.2,10,2.4,2.2.2,4.2.5,5.9.9,3.2.7,6.3,1.9,9.2,3.3,11.9,6.1,20,17.8,21.5,31.1.6,5,.5,13.4-3.9,22.2-1.8,3.6-4.4,7.6-8.3,11.3-1.1,1.1-2.2,2.1-3.4,3.1,0,0-.2.1-.3.2-6.2,5.1-13.9,8.4-21.7,9.4-.2,0-.3,0-.5,0-1.7.2-3.3.3-4.9.3h0Z"/>
      </g>
      <g class="st5">
        <path class="st0" d="M56.5,101.5c-5.8,0-12.6-1.3-19.8-5.2-1.9-1-3.4-2-4.4-2.7-.1,0-.2-.2-.3-.2-16-11.2-21.8-32.1-13.6-49.7,4.9-10.4,13.7-17.9,24.1-21.2.4-.2.9-.3,1.3-.5,2.4-1.1,5.1-2,8.1-2.7.7-.2,1.5-.3,2.2-.4,13.1-2.1,26.3,2.5,35.4,12.1,1.2,1.3,2.4,2.7,3.4,4.2.6.8,1.2,1.6,1.8,2.4,7.6,11.1,9.1,25.1,4.1,37.5-1.9,4.7-4.6,8.9-8.1,12.5-.1.1-.2.3-.4.4-3.2,3.3-6.6,5.6-8.9,7,0,0-.2.1-.3.2-2.8,1.7-8.7,4.7-16.3,5.8-.1,0-.3,0-.4,0-2.2.3-4.4.4-6.8.4-.3,0-.7,0-1,0h0Z"/>
      </g>
      <g class="st5">
        <path class="st0" d="M59.3,102c-2.7,0-5.4-.3-8.1-.8-8.2-1.3-15.9-5.2-21.9-11.3-8.4-8.5-12.5-20.3-11.3-32.1.5-10,4.7-19.9,12.6-27.3,4.8-4.5,10.4-7.5,16.3-9.2,8.2-3,17.2-3.3,25.8-.6,3.4,1.1,6.7,2.6,9.7,4.6,4.6,3,8.5,6.9,11.5,11.4,3,4.3,5.2,9.3,6.3,14.6.3,1.2.5,2.5.6,3.8.5,4.8.2,9.3-.7,13.2-1.2,6.3-3.8,12.3-7.9,17.4-.2.2-.3.4-.5.6-4.1,5-9.3,8.5-11.3,9.8-.3.2-.5.3-.8.5-6.4,3.8-13.4,5.6-20.3,5.6h0ZM86.2,91.5h0s0,0,0,0Z"/>
      </g>
      <g class="st5">
        <path class="st0" d="M60.4,100c-2.7,0-5.4-.3-8-.8-2.8-.6-5.4-1.4-7.9-2.5-20.5-7.2-31.6-29.5-24.6-50.2,2.7-8,7.7-14.7,14-19.4,2.6-2.4,5.5-4.5,8.7-6.1,4.6-2.5,9.8-4.2,15.3-4.8,21.7-2.2,41.1,13.5,43.5,35.2v.2c0,.5.2,1.1.2,1.4.2,2.1.3,4.1.2,6.2,0,1.9-.1,3.8-.4,5.7-2,15.5-12.9,28.1-27.3,32.7-4.3,1.6-9,2.4-13.7,2.4h0Z"/>
      </g>
      <g class="st5">
        <path class="st0" d="M58.3,98.9c-2.3,0-4.6-.2-6.9-.6-19.4-2.5-34.5-18.9-34.7-39,0-4.7.7-9.2,2.1-13.4,4.1-16,17.8-28.2,34.8-29.8,1.5-.1,3-.2,4.5-.2,4.7-.4,9.5,0,14.2,1.3l1.7.5c21.2,5.9,33.6,27.9,27.6,49.1-3,10.6-9.9,18.9-18.8,23.9-.1,0-.3.2-.4.3-.3.2-.6.4-1,.6-.2.1-.5.3-.7.4-6.4,4.4-14,6.9-22.2,7h-.3,0ZM96.5,41s0,0,0,0c0,0,0,0,0,0Z"/>
      </g>
      <g class="st5">
        <path class="st0" d="M56.1,102.2c-.6,0-1.3,0-1.9,0-1.8,0-3.6-.2-5.4-.4,0,0-.1,0-.2,0-7.3-1-13-3.7-16.9-6.1-.9-.5-2.1-1.3-3.5-2.3-.2-.1-.4-.3-.5-.4-2.7-1.9-5.1-4.1-7.1-6.5-.3-.3-.6-.7-.9-1.1-.2-.2-.3-.4-.5-.6-2.6-3.3-4.7-7-6.2-11-5.1-13.9-2.1-29.5,7.9-40.5,5.8-6.4,13.3-10.5,21.2-12.2,3.7-.9,7.5-1.3,11.4-1.1,7,.3,13.5,2.5,19.1,6,13.8,6,23.5,19.6,23.8,35.6.5,21.6-16.5,39.7-38.1,40.6-.8,0-1.5,0-2.3,0h0Z"/>
      </g>
      <g class="st5">
        <path class="st0" d="M55,102.1c-3.4,0-6.8-.4-10.1-1.2-.2,0-.3,0-.5-.1-1.3-.3-2.7-.8-4-1.2-.1,0-.3,0-.4-.1-6.6-2.4-12.5-6.5-17.1-11.7-.1-.1-.3-.3-.4-.4,0,0,0,0,0,0-.2-.2-.4-.5-.6-.7-8.5-9.7-11.7-22.4-9-34.8,1.5-6.7,4.6-12.7,8.8-17.6,3.6-4.3,8.2-7.9,13.7-10.4,2.9-1.4,6-2.3,9-2.9,8.2-1.9,16.9-1.2,24.8,2.3,10.7,3.1,20.1,10.6,25.2,21.5,9.3,19.9.7,43.5-19.2,52.9h0s0,0-.1,0c-2.7,1.3-5.6,2.6-9.3,3.5-.1,0-.3,0-.4.1-3.3.8-6.7,1.2-10,1.2h0Z"/>
      </g>
      <g class="st5">
        <path class="st0" d="M56.2,103.2c-4.8,0-9.5-.9-13.8-2.5-4.2-1.5-7.5-3.3-9.5-4.6,0,0-.2-.1-.3-.2-16.5-10.6-22.9-31.2-15.3-49.2,1.4-3.4,3.3-6.4,5.4-9.2,9.8-14.1,28-20.7,45.1-15.1,6.3,2.1,11.7,5.6,16.1,10,3.9,3.3,7.3,7.3,9.8,11.9,6.9,13,6.1,28.7-2.1,40.9-6.7,9.9-17.4,16.3-29.5,17.4-.4,0-.9,0-1.4.1,0,0-.2,0-.2,0-.3,0-.6,0-.7,0-1.2.1-2.4.2-3.5.2h0Z"/>
      </g>
      <g class="st5">
        <path class="st0" d="M56.8,104.5c-17.4,0-32.7-11.3-37.9-27.6-1.5-4.3-2.4-8.8-2.4-13.6v-1.4c0-2.8.3-5.6.9-8.3,3.5-20.3,22.2-34.8,43.1-32.8,18.4,1.8,32.7,15.8,35.5,33.3,1,4.5,1.2,9,.6,13.5-1.4,19.7-17.1,35.6-37.1,36.9-.9,0-1.8,0-2.7,0h0Z"/>
      </g>
      <g class="st5">
        <path class="st0" d="M55.2,102.4c-1.1,0-2.1,0-3.2-.1-1.1,0-2.3-.2-3.4-.4-.7-.1-1.4-.3-2.1-.4-3.5-.5-7-1.4-10.3-2.9-20.2-8.7-29.5-32.2-20.7-52.4l.4-.9c4.7-10.9,13.9-18.9,24.9-22.2,5.1-1.7,10.6-2.3,16.1-1.9,7.8,0,15.7,2.3,22.6,7.1,18,12.5,22.5,37.3,10,55.3l-.2.3c-.3.4-.6.8-.9,1.3,0,.1-.2.2-.3.4-7.9,10.7-20,16.8-32.8,16.8h0Z"/>
      </g>
      <g class="st5">
        <path class="st0" d="M50.3,103.8c-3.8,0-7.6-.5-11.3-1.6-13.5-4-23.9-14.7-27.3-28.3-1.6-6.2-1.8-12.4-.5-18.5,1-5.1,2.9-9.3,5-12.8,0-.1.1-.2.2-.3,1.1-2.2,2.4-4.3,4-6.5.1-.2.2-.3.3-.5,3.2-4.1,6.6-7,9-8.7.2-.1.4-.3.6-.4.3-.2.6-.4.9-.6,1.4-1,2.9-1.9,4.4-2.7.3-.1.5-.3.8-.4,3.2-1.6,6.3-2.6,8.4-3.2.1,0,.3,0,.4-.1,1-.3,2-.5,3.4-.8h.2c21.5-4.7,42.7,8.9,47.4,30.3,0,0,0,0,0,0,0,0,0,.2,0,.3,0,.1,0,.2,0,.4,2.6,10,1.7,20.5-2.7,29.5,0,.2-.2.4-.3.6-.6,1.1-1,1.9-1.6,2.9,0,.1-.1.2-.2.3-4.4,7.4-11.1,13.4-18.8,16.9-.2.1-.4.2-.7.3-6,2.6-11.9,3.4-16.4,3.5-1.7.2-3.5.4-5.3.4h0ZM11.7,73.9s0,0,0,0c0,0,0,0,0,0ZM11.6,73.3c0,0,0,.2,0,.3,0-.1,0-.2,0-.3Z"/>
      </g>
      <g class="st5">
        <path class="st0" d="M58.7,98.8c-13.3,0-25.8-6.6-33.3-17.8-.3-.4-.5-.8-.8-1.2-4.4-7.1-5.7-14.1-6.1-18.8,0-.1,0-.3,0-.4-.2-2.9,0-5.8.3-9,.3-3.1,1-6.2,2-9.3l.6-1.7c7-20.4,29-31.4,49.6-25,3.4,1.1,6.5,2.5,9.4,4.3,4.7,2.5,8.8,6,12.2,10.1,9.1,9.3,13.3,22.8,10.4,36.1-2.7,12.8-11.5,23.1-22.9,28.1-.9.4-1.8.9-2.7,1.2-2.5,1-5.1,1.8-7.7,2.3-2.7.6-5.4.9-8.1.9,0,0,0,0-.1,0-.9,0-1.9,0-2.8,0h0Z"/>
      </g>
      <g class="st5">
        <path class="st0" d="M58.9,95.2c-11.9,0-23-5.3-30.5-14.2-.5-.4-1.1-.9-1.6-1.4-9-8.3-13.8-20.2-12.9-32.4.3-3.6.9-8.5,3.2-14.1,5.6-14.4,19.3-24.6,35.3-25.3,6.9-.4,13.9,1,20.3,4.2,6.5,3.3,11.8,8.2,15.6,14.1,1.1,1.4,2.1,2.8,3.1,4.3,0,0,.1.2.2.3,3.9,6.4,5.4,12.5,6.1,15.4,5.1,21.4-8.1,42.9-29.5,48-3.1.7-6.2,1.1-9.3,1.1h0Z"/>
      </g>
      <g class="st5">
        <path class="st0" d="M62.6,90.7c-.6,0-1.1,0-1.7,0-3.4-.1-6.7-.7-8.4-1.1-.5,0-.8-.2-1-.2h0c-22-5-35.8-26.9-30.8-48.9,4.9-21.4,25.8-35.1,47.3-31.1,20.8,2.7,36.4,20.9,35.5,42.2-.9,22-19,39.2-40.8,39.2h0ZM69,9.5c0,0,.1,0,.2,0,0,0-.1,0-.2,0ZM64.3,9h0,0ZM64.3,9h0,0ZM64.3,9h0,0Z"/>
      </g>
      <g class="st5">
        <path class="st0" d="M63.3,92.1c-.6,0-1.2,0-1.8,0-4.6-.2-9.1-1.1-13.3-2.6,0,0-.2,0-.3-.1-1.5-.5-3-1.2-5.8-2.6-20.3-10-28.6-34.5-18.6-54.7,9.4-19.1,31.8-27.5,51.3-20.1,17.6,5.2,30.1,21.8,29.3,40.9-.9,22-19,39.1-40.8,39.1h0ZM65,10.5h0,0Z"/>
      </g>
      <g class="st5">
        <path class="st0" d="M60.4,97.1c-5.9,0-10.4-1.3-12.6-1.9-2.1-.6-6.6-1.9-11.6-5-.1,0-.3-.2-.4-.2-8.1-5.1-12.9-12.2-15.5-17.1,0,0,0-.2-.1-.2-2-3.9-4.5-10.1-5.1-17.3-.4-4.4,0-7.9.4-10.2h0c0-.2,0-.4,0-.5.8-4.8,2.1-9.1,4.1-13.1,0,0,0-.1,0-.2,2.8-5.5,6.3-9.6,8.2-11.6.1-.1.2-.2.3-.4,7.9-8.1,18.9-12.8,30.2-12.9h.4c3.2,0,8.6.4,13.5,1.6,0,0,.2,0,.3,0,4.3,1.1,8,2.8,9.9,3.7,0,0,.1,0,.2.1,4.1,2.1,10,5.8,14.8,11.8.2.2.3.4.5.6,6.9,8.8,9.9,20,8.6,31.5,0,.2,0,.4,0,.6-.9,7.3-3.7,14.3-8.1,20.3,0,.1-.2.2-.3.3-1.7,2.3-5.3,6.7-10.4,10.3-.2.1-.4.3-.6.4-.9.6-1.8,1.2-2.7,1.7-6.6,4.6-14.4,7.3-22.3,7.6-.2,0-.5,0-.7,0-.4,0-.7,0-1.1,0h0ZM72.4,62.2l15.8,12.5c1.4-1.7,3.1-3.9,4.7-7.1l-29.7-14.8.3.4-.3-.4h-.2c0-.1,1,1.3,1,1.3l-1-1.4-.5-.3v.3c0,0,10,9.5,10,9.5h0ZM63.2,52.8l29.8,14.6c.3-.6.6-1.2.8-1.7l-30.2-13.2h-.9c0-.1.4.4.4.4h0ZM63.8,52.4l30.1,13c1.4-3.2,2-5.9,2.3-7.5l-32.4-5.4ZM65.7,56.9l5,3.9-8.1-7.9v.5c.1,0,3.1,3.5,3.1,3.5h0ZM96.3,57.5h0s0,0,0,0h0ZM65,52.5l31.3,4.7c0-.2,0-.5,0-.7l-31.4-4.8h-.9c0,0,.5.2.5.2h-.5c0,0-.2,0-.2,0l1,.8h0ZM65.4,51.6l31.1,4.5c.2-1.8.3-4.3,0-7.3l-31.2,2.8ZM62.9,54.7l1.6,1.3-2.5-3.1h0c0,.1.9,1.9.9,1.9h0ZM61.9,54l.7.6-.7-1.4v.8ZM61.6,53.7l.4.3v-.8h0c0-.1-.3.5-.3.5h0ZM61.5,53.6h0s.3-.6.3-.6v-.2c-.1,0-.4.8-.4.8h0ZM61,53.2l.4.3.3-.9h0s-.7.5-.7.5h0ZM62.1,52.7l.6.7v-.5c-.1,0-.5-.3-.5-.3v.2ZM60.7,53h.2c0,.1,0,.1,0,.1v-1.1s-.2.1-.2.1v.5c0,0,0,.3,0,.3ZM61,53h0c0,0,.7-.5.7-.5l-.2-.4-.5.8h0ZM60.9,52v1s0,0,0,0v-1c.1,0,0,0,0,0h0ZM61.9,53h0s0,0,0,0h0ZM61.8,52.7v.2c.1,0,.2,0,.2,0h0c0,0-.1-.2-.1-.2h0ZM61.1,52v.9c-.1,0,.1-.9.1-.9h-.1ZM61.9,52.8h0s0,0,0,0h0ZM60.3,52.7l.2.2h0c0,0-.1-.6-.1-.6v.4ZM61.2,52l-.2.8.4-.7h-.1c0-.1,0-.2,0-.2h0ZM62.9,52.6h.2c0,.1-.4-.4-.4-.4h-.1s.3.4.3.4ZM62.2,52.4l.3.3v-.3c0,0-.2,0-.2,0h0ZM61.9,52.6h0c0,.1,0,0,0,0h-.1c0-.1,0,0,0,0v.2h0ZM60.3,52.7h0s0-.4,0-.4h-.1c0,0,0,.4,0,.4ZM62.4,52.4l.5.2-.3-.4h-.3s0,.1,0,.1h0ZM60,52.5h.2c0,.1,0,0,0,0h-.2c0,0,0,0,0,0ZM61.9,52.5h0c0,0,0,0,0,0h0ZM60.5,52.2v.3c0,0,.1-.4.1-.4h-.1c0,0,0,0,0,0ZM61.7,52.5h0s0,0,0,0h0ZM63.3,52.2l1.7.3-1.1-.8h-1.3c0,.1,0,.2,0,.2l.7.3h0ZM62.1,52.3h.1c0,0,0,0,0,0h0s0,0,0,0h0ZM61.5,52.1l.3.3v-.2c0,0,0-.2,0-.2h-.2s0,0,0,0ZM62.3,52.3h.1c0,0,0-.1,0-.1h0ZM61.9,52.3h0c0,0,0,0,0,0h0ZM60.2,52.2h-.2c0,.1.2,0,.2,0h0s0,0,0,0ZM62.2,52.3h0s0,0,0,0h0s-.1,0-.1,0ZM59.8,52.3h0c0,0,0,0,0,0h0s0,0,0,0ZM59.8,52.3h0s0,0,0,0h0s0,0,0,0ZM61.9,52.2h0c0,0,0,0,0,0h0s0,0,0,0ZM59.9,52.1h-.1c0,.1,0,.1,0,.1l.2-.2h0s0,0,0,0ZM59.7,52.2h0s0,0,0,0h0ZM62,52.2h.1c0,0,0,0,0,0h-.2s0,0,0,0h0ZM60,52.1l-.2.2h0s.2-.2.2-.2h-.1ZM62.7,52.1h.5c0,0-.6-.2-.6-.2h0s.1.2.1.2h0ZM59.6,52.1h.1c0,0,0,0,0,0h0c0,0-.2,0-.2,0h0ZM60.2,52.2h0s0,0,0,0h0ZM61.8,52.1h0s0,0,0,0h0ZM60.2,52.1h0s.1,0,.1,0h0c0,0,0,0,0,0ZM62.6,52.1h0s-.1-.2-.1-.2h0s0,.2,0,.2ZM59.9,52.1h0s0,0,0,0h0ZM62.4,52.1h.1s0,0,0,0h0c0,0,0,0,0,0ZM58.9,51.6l.6.5h.3s.2-.3.2-.3l-1-.2h0ZM60.5,52h0s0,0,0,0h0ZM62,52h.3s0,0,0,0v-.2s-.2,0-.2,0h0c0,.1,0,0,0,0h0s0,0,0,0ZM60,51.8l-.2.2h0l.2-.2h0s0,0,0,0ZM60.4,52h0s0,0,0,0h0ZM60.2,51.9l-.2.2h0s.1-.2.1-.2h0ZM60.1,52h0s.1,0,.1,0h0c0,0,0,0,0,0ZM62.3,51.9v.2s.1,0,.1,0h0c0,0,0,0,0,0ZM61.7,52h.2s0,0,0,0h0c0-.1-.3,0-.3,0h0c0,0,0,0,0,0ZM60.2,51.9h0c0,0,0,0,0,0h0s0,0,0,0h0ZM60.5,52h0s.2,0,.2,0h0c0,0,0,0,0,0h0c0,0,0,0,0,0ZM61.9,51.9h0c0,0,0,0,0,0h0ZM61.6,52h0,0s0,0,0,0h0ZM60.7,51.9h0s0,0,0,0h0ZM61.5,51.9h0s0,0,0,0h0ZM60.2,51.9h0s0,0,0,0h0ZM61.4,51.9h0,0ZM62.5,51.9h0s0,0,0,0h0ZM62.4,51.9h0c0,0,0,0,0,0h0s0,0,0,0h0ZM61.1,51.9h0s0,0,0,0h0s0,0,0,0h0ZM60.2,51.9h0s0,0,0,0h0s0,0,0,0h0s0,0,0,0ZM60.4,51.9h0s0,0,0,0h0ZM62.5,51.9h0s0,0,0,0h0ZM61.3,51.9h0s.1,0,.1,0h0c0,0,0,0,0,0h0c0,0,0,0,0,0ZM60.9,51.7v.2h.2c0,0-.2-.2-.2-.2h0ZM60.7,51.8h.2s0-.1,0-.1h-.1c0,.1,0,.1,0,.1h0ZM61.6,51.9h.3c0,0-.3,0-.3,0ZM60.7,51.8h0s0,0,0,0h0ZM61.4,51.7h.1c0,.1,0,0,0,0v-.2c.1,0,.1,0,.1,0l-.3.2h0ZM61.9,51.8h0s0,0,0,0h0s0,0,0,0h0ZM60.5,51.8h.1c0,0-.1,0-.1,0h0ZM62.1,51.8h0c0,0,.2,0,.2,0h0s0,0,0,0h0s0,0,0,0ZM61.8,51.6v.2c-.1,0,.1,0,.1,0h0c0,0-.1-.1-.1-.1ZM60.4,51.8h0s0,0,0,0v-.2s-.1.2-.1.2h0s0,0,0,0ZM62.3,51.7h0c0,0,0,0,0,0h0c0,0,0,0,0,0ZM62.2,51.8h0s0,0,0,0h0s0,0,0,0ZM60.2,51.8h0s0,0,0,0h0s0,0,0,0ZM62.3,51.7h0c0,0,.1,0,.1,0h0c0-.1-.2,0-.2,0h0ZM60.1,51.7h0s0-.1,0-.1h0ZM62.6,51.6h0c0,.1.2,0,.2,0l.2-.2h-.3ZM60.6,51.5v.2c0,0,.1,0,.1,0h0c0,0-.1-.1-.1-.1h0s0,0,0,0ZM62.2,51.7h0s0,0,0,0h0s0,0,0,0ZM61.9,51.7h0c0,0,0,0,0,0h0ZM58.9,51.6l1.2.2v-.2c.1,0,.1-.2.1-.2l-1.3.2h0s0,0,0,0ZM63,51.5l-.2.2h.9c0-.1-.6-.2-.6-.2h-.1ZM60.9,51.7h.1c0,0,0,0,0,0h0s0,0,0,0ZM60.3,51.7h0s.2-.2.2-.2h0s-.2.2-.2.2ZM61.1,51.6h0c0,0,0,0,0,0h0ZM62.1,51.6h0c0,.1,0,0,0,0h0s0,0,0,0h0ZM60.2,51.6h0c0,0,0,0,0,0h0ZM61.2,51.6h0c0,.1,0,.1,0,.1h-.1c0-.1,0-.1,0-.1ZM62,51.7h0c0-.1,0-.2,0-.2v.2ZM61.9,51.6h0s0-.2,0-.2h0c0,0,0,0,0,0v.2h0ZM62.2,51.6h0c0,0,0,0,0,0h0c0-.1,0,0,0,0ZM62.2,51.5v.2c.1,0,.4,0,.4,0v-.2c0,0-.4,0-.4,0h0c0,.1,0,.1,0,.1ZM60.7,51.6h0c0,0,0,0,0,0h0ZM61.3,51.6h0s.3-.1.3-.1h-.2c0-.1,0,.1,0,.1h0ZM61.8,51.6h.1c0,0,0-.1,0-.1h0c0,0,0,.1,0,.1h0ZM60.3,51.4v.2s.2-.2.2-.2h-.2c0,0,0,0,0,0h0ZM63.2,51.5h.6c0,.1,0,.1,0,.1l-.2-.2h0s.2.2.2.2l-.2-.2h-.3ZM63.6,51.4l.2.2h.7c0,0-.8-.2-.8-.2h0ZM60.7,51.6h0s0,0,0,0h0c0-.1,0-.2,0-.2v.2ZM61.2,51.5h.1c0,.1,0,0,0,0h0s0,0,0,0h0ZM61.1,51.6h0s0,0,0,0h0ZM62.7,51.4h0c0,.1.4,0,.4,0h-.3ZM60.9,51.5h0c0,0,0,0,0,0h0ZM61.7,51.6h0s0,0,0,0h0s0,0,0,0ZM60.6,51.5h0s0-.1,0-.1h-.1c0,.1,0,.1,0,.1ZM63.8,51.4h.9c0,.1,31.7-3.5,31.7-3.5-.1-1.1-.3-2.3-.5-3.6l-30.7,6.8h.7c0,0-.7,0-.7,0l-1.4.3h0ZM61.4,51.4h.3c0,.1.3,0,.3,0h0c0,0-.3-.1-.3-.1h-.2c0,.1,0,.2,0,.2h0ZM60.9,51.3v.2c.1,0,.2,0,.2,0h0s-.2-.2-.2-.2h0c0,0,0,0,0,0ZM60.5,51.5h0s0,0,0,0h0s0,0,0,0ZM62.7,51.4h.3c0,0,.2,0,.2,0h-.4c0,0,0,0,0,0h0ZM63.3,51.4h-.1c0,.1.3,0,.3,0h0s-.2,0-.2,0h0ZM60.6,51.4h0c0,0,.1,0,.1,0h0s0,0,0,0h0ZM60.3,51.4h.2c0,0,.1,0,.1,0h0s-.3,0-.3,0h0s0,0,0,0ZM57.5,50.5l1.2,1h0v-.7l-1.3-.2ZM62.1,51.4h0c0,0,0,0,0,0h0s0,0,0,0ZM58.8,50.7v.7s1.3-.2,1.3-.2l-1-.5h-.3ZM61.1,51.4h0s0,0,0,0h-.1c0,0,0,0,0,0h0ZM62.2,51.3h.5c0,0,0,0,0,0h-.4c0,0-.1,0-.1,0h0s0,0,0,0ZM61.2,51.3h0c0,0,0,0,0,0h0s0,0,0,0ZM62.1,51.3h0c0,0,0,0,0,0h0s0,0,0,0h0ZM63.5,51.4h0s0,0,0,0h0ZM61.3,51.4h0s0,0,0,0h0ZM60.2,51.4h0s0,0,0,0h0ZM63.4,51.3h.2s1.3-.3,1.3-.3h-1.1c0-.1-.4.2-.4.2h0s0,0,0,0ZM60.3,51.3h0,0ZM61.2,51.3h0s.1,0,.1,0h0s0,0,0,0h-.2s0,.1,0,.1h0ZM63.3,51.3h0,0s0,0,0,0ZM62.8,51.2h.5c0,0,0,0,0,0l-.4-.3v.2ZM62,51.3h0s0,0,0,0h0c0,0,0,0,0,0h0c0,0,0,.1,0,.1h0ZM60.9,51.2h0s0,0,0,0h0,0ZM61,51.2h.1c0,0,0,0,0,0h-.1ZM59.1,50.8l1,.5h0,0c0,0,0-.3,0-.3l-.9-.2ZM60.8,51.3h0,0,0ZM60.2,51v.3s.1,0,.1,0v-.2c.1,0-.1,0-.1,0ZM61.7,51.2h.2s0,0,0,0h-.2c0,0,0,0,0,0ZM61.5,51.2h0s0,0,0,0h0ZM62.1,51.2h0c0,0,.1,0,.1,0h-.1s0,0,0,0ZM63,50.9l.3.3.4-.3h-.3s-.4,0-.4,0ZM60.5,51.1v.2c-.1,0,.1,0,.1,0h-.1c0-.1,0-.1,0-.1ZM62,51.2h0s0,0,0,0h0s0,0,0,0h0ZM61.4,51.2h0s0,0,0,0h0ZM62.5,51.2h.3s.1-.2.1-.2h0s0,0,0,0l-.4.2h0ZM61.6,51.2h0s.1,0,.1,0h0s0,0,0,0ZM61.9,51.1h0c0,0,0,0,0,0h0ZM60.7,51.1h0s0,0,0,0h0s0,0,0,0ZM60.9,51.2h0s0,0,0,0h0s0,0,0,0h0ZM61.5,51.2h0s0,0,0,0h0s0,0,0,0ZM61,51.1h0s.1,0,.1,0h0ZM62.3,51.1h0s.3-.2.3-.2h-.3s0,.2,0,.2h0ZM62.1,51.1h.1s0,0,0,0h-.2s0,0,0,0h0ZM60.9,51.1h0s0,0,0,0h0s0,0,0,0ZM61.2,51.1h0s.1,0,.1,0h0s-.2,0-.2,0h0ZM62.9,51l.2.2-.2-.2h0s0,0,0,0ZM62.1,51.1h0c0,0,0,0,0,0h0s0,0,0,0h0ZM62,51.1h0s0,0,0,0h0s0,0,0,0h0ZM61.5,51.1h0s.2,0,.2,0h-.1ZM60.8,51.1h0s0,0,0,0h0ZM61.1,51.1h0s0,0,0,0h0ZM60.8,51.1h0s0,0,0,0h0ZM60.6,51.1h0s0,0,0,0h0s0,0,0,0ZM60.9,51.1h0s0,0,0,0h0s0,0,0,0h0ZM61.8,51.1h0s0,0,0,0h0s0,0,0,0ZM61.8,51h0s0,0,0,0h0c0-.1-.1,0-.1,0ZM61.5,51h.2s0,0,0,0l-.2-.3v.3h0ZM62,51h0s0,0,0,0h0s0,0,0,0ZM60.8,51h0s0,0,0,0h0s0,0,0,0h0ZM63.8,50.9h1.1c0,.1,30.9-7,30.9-7-.6-2.7-1.5-5.7-3-8.7l-29.7,15.3-.2.4h0s1.4-.7,1.4-.7l-1.3.7h.4c0,0,.3,0,.3,0l1.8-1.4-1.8,1.5ZM60.7,51h0s0,0,0,0h0s0,0,0,0h0ZM62.1,51h0s0,0,0,0h0c0,0,0,0,0,0ZM60.9,51h0s0,0,0,0h0s0,0,0,0ZM61.2,51h.2s0-.3,0-.3h0s-.3.3-.3.3ZM62.1,51h0s.2,0,.2,0v-.2c0,0-.1,0-.1,0h0c0,0,0,0,0,0ZM62,50.9h0c0,0,0,0,0,0h0c0,0,0,0,0,0h0ZM62.4,50.8v.2c0,0,.3,0,.3,0h.1c0,0-.2-.2-.2-.2h-.2s-.1,0-.1,0h0ZM60.6,50.9h0c0,0,0,0,0,0h0s0,0,0,0ZM60.6,51h0,0s0,0,0,0h0ZM61.6,50.7l.2.3h.2v-.3h-.4ZM61,51h0s0,0,0,0h0c0,0-.1,0-.1,0h0ZM60.3,50.9h0s0,0,0,0h-.2s0,0,0,0h.1c0,0,0,0,0,0ZM62,50.9h0c0,0,0,0,0,0h0c0-.1,0,0,0,0h0ZM60.9,50.9h0s.2-.2.2-.2h0c0,0-.3-.1-.3-.1v.2s0,.2,0,.2h0ZM60.8,50.9h0s0,0,0,0h0ZM60.2,50.9h0s0,0,0,0h0ZM60.7,50.9h0s0,0,0,0h0ZM60.5,50.9h0s0,0,0,0h0ZM62.9,50.9h0s0,0,0,0h0ZM63,50.9h0s0,0,0,0h0ZM60.6,50.9h0s0-.1,0-.1h0s0,.1,0,.1ZM63,50.9h0s.4,0,.4,0h-.3s0,0,0,0h0ZM60.8,50.8h0c0,0,0,0,0,0v-.2s0,.2,0,.2h0ZM62.1,50.8h0c0,.1,0,.1,0,.1v-.2c0,0,0,0,0,0h0ZM59.2,50.7l.9.2h0s-.9-.2-.9-.2h0ZM62.7,50.8h.1c0,0,0,0,0,0h0c0,0-.1,0-.1,0ZM63.6,50.9h.2s0,0,0,0h-.3s0,0,0,0ZM60.2,50.6l.3.3v-.2c.1,0,0-.1,0-.1h-.4s0,0,0,0h0ZM62.3,50.7h0c0,.1.2,0,.2,0h0s0,0,0,0h0ZM60.2,50.9h.1s-.2-.2-.2-.2v.2ZM62,50.7h0c0,.1,0,.1,0,.1h0ZM61.2,50.8h0c0,0,.2-.1.2-.1h0s-.1.1-.1.1h0ZM62.9,50.8h0s0,0,0,0h0ZM60.1,50.8h0v-.3s0,0,0,0h0v.3h0ZM58.9,50.7l1.1.2-1-.5h-.2s0,.3,0,.3h.1s0,0,0,0ZM62,50.7h0c0,.1.1,0,.1,0h0s-.1,0-.1,0h0ZM59,50.4l1,.4v-.3c0,0-1-.1-1-.1ZM62.9,50.8h.1s.2-.3.2-.3l-.4.2h.1ZM62.4,50.8h0s0,0,0,0h0ZM60.7,50.7h0s0,0,0,0h0ZM62.7,50.7h.1s0,0,0,0h0s0,0,0,0h0ZM62.2,50.7h0s0,0,0,0h0ZM62.4,50.7h0s0,0,0,0h0c0,0,0,0,0,0h0ZM62.3,50.7h0s0,0,0,0h0s0,0,0,0h0s0,0,0,0ZM62.2,50.7h0s0,0,0,0h0c0,0-.2-.2-.2-.2v.2s0,0,0,0ZM62.5,50.6h.1c0,0,0,0,0,0h-.1c0-.1,0,0,0,0h0ZM62,50.7h.2s0-.2,0-.2l-.2-.2v.3h0ZM60.6,50.6h0c0,.1,0,0,0,0h-.1ZM60.9,50.6h0c0,0,0,0,0,0h0ZM61.2,50.6h0s0,0,0,0h0ZM61.6,50.6h.3s0-.2,0-.2l-.3.2ZM57.3,50.4l1.5.3h0s-.7-.4-.7-.4h-1c0-.1.3,0,.3,0ZM58.1,50.3l.7.3v-.3h-.7ZM62.6,50.5h.1c0,.1.5-.1.5-.1l.2-.5-.9.6h0ZM62.4,50.6h0s0,0,0,0h0ZM61.5,50.5h0s0,0,0,0h0c0-.1-.1,0-.1,0ZM61.2,50.6h0s0,0,0,0h0c0-.1,0,0,0,0h0ZM62.4,50.5h0s0,0,0,0h0c0,0,0,0,0,0h0ZM60.9,50.5h.3s0-.2,0-.2l-.2-.2-.2.3h0c0,0,0,0,0,0ZM62.2,50.4h.2c0,.1,0,0,0,0l-.2-.2v.2s0,0,0,0ZM62.5,50.5h0s0,0,0,0h0ZM60.9,50.5h0s0,0,0,0ZM60.6,50.5h.2s0-.2,0-.2v-.4l-.7-.8v.7s.4.7.4.7h0ZM61.9,50.3v.2s0-.2,0-.2h0ZM61.6,50.4h0c0,.1.2-.1.2-.1h0c0,0-.2.1-.2.1h0ZM60.2,50.4h.3s-.4-.6-.4-.6v.6ZM62.5,50.4h0c0,0,.9-.5.9-.5l.7-1.5-.7,1.4h0s0,0,0,0l-.2.5,29.5-15.4c-1.7-3.2-3.7-5.8-5.8-8l-24.1,22.5-.2.7.7-1.1-.7,1.2v.2c0,0,0,0,0,0ZM61.3,50.3v.2c.1,0,.4-.2.4-.2h0c0-.1-.3-.4-.3-.4v.4c0,0,0,0,0,0ZM60.1,50.4h0v-.9s-.2-.2-.2-.2v.2c.1,0,0-.6,0-.6l-.5-.4.5,1.8h.1c0,.1,0,.1,0,.1ZM58.8,50.2h1.1c0,.1,0,.1,0,.1l-1.1-1.1v1h0ZM62.5,50.4h0s0,0,0,0h0ZM62,50.2h.2c0,.1,0,0,0,0h0c0,0-.1,0-.1,0ZM62.2,50.1l.3.3h0c0-.1.3-.9.3-.9l-.6.6h0c0,.1,0,.1,0,.1ZM60.9,50.1v.2c0,0,0,0,0,0v-.2s0,0,0,0ZM61,50v.2s0-.1,0-.1h0ZM60.8,49.9v.4s0-.3,0-.3h0c0,0,0,0,0,0ZM57.8,50.1h1c0,.1,0-.9,0-.9l-1.4-1.3,1.4,1.3v-.4c-.1,0,0,.2,0,.2v-.9l-9.8-7.1,6.6,8.1,1.2,1h.9c0,.1-1.4-.6-1.4-.6l1.5.7ZM58.8,48.9l1.1,1.3-.4-1.7-.7-.5v.9ZM61.1,50.1h0c0,.1,0-.2,0-.2v.2c-.1,0-.1,0-.1,0ZM61.7,50.1h0c0,0,0,0,0,0h0ZM61.9,50.2h0s0,0,0,0h0c0,0,0,0,0,0h0ZM58.8,49.2l1,.9-1-1.2v.3h0ZM62,50h0c0,0,0,0,0,0h0s0,0,0,0ZM61.7,50h0s0,0,0,0v-.2s0,.1,0,.1h0ZM62.2,50.1h0s0,0,0,0h0s0,0,0,0ZM61,50h0c0,0,0,0,0,0h0ZM61.3,49.8l.4.3v-.2s0-.1,0-.1l-.2-.2v.2c-.1,0-.1,0-.1,0ZM61.8,49.8v.2c0,0,.1,0,.1,0h-.1c0-.1,0-.1,0-.1ZM61,49.9h0c0,.1.1,0,.1,0h-.2c0-.1,0,0,0,0ZM62.1,49.9h0s.1,0,.1,0h0c0-.1-.2,0-.2,0h0ZM60.8,49.8h0c0,.1,0,.1,0,.1h0c0-.1,0-.1,0-.1ZM62,49.8h0s.3-.2.3-.2v-1.5c.1,0-.2.5-.2.5v.4c-.1,0-.1.8-.1.8h0ZM62.3,49.7h0c0,.1,24-23.5,24-23.5-.1-.1-.2-.2-.4-.3l-23.7,23.8h0ZM61.8,49.7h.1c0,.1,0-.5,0-.5v.5ZM60.2,49l.6.8h0s-.4-.7-.4-.7h-.2ZM60.8,49.6v.2c.1,0,.2-.2.2-.2h-.2c0-.1,0,0,0,0h0ZM61.1,49.6h.2c0,.1,0,.1,0,.1v-.3s-.1-.2-.1-.2v.3ZM61.7,49.6h0c0,0,.1-.5.1-.5v-.3l-.3.5v.3c0,0,0,0,0,0ZM60.6,49.3l.2.3h0c0-.1-.2-.3-.2-.3ZM61.4,49.4h0c0,.1,0,0,0,0h0ZM62.5,48l-.2,1.6,23.1-24.2c-2-1.9-4-3.3-5.7-4.4l-17.2,27h0ZM60.8,49.4h.2c0,.1,0-.2,0-.2l-.9-.9v.3s.4.5.4.5l.3.2v-.3.3h0ZM61.6,49.4h0c0,0,0,0,0,0h0ZM61.4,49.3h0c0,0,0,0,0,0v-.4c-.1,0-.2.5-.2.5h0ZM61.2,49.1h.1c0,.1,0-.4,0-.4v-.2s-.2.6-.2.6h0ZM61.5,48.6v.6c.1,0,.5-.5.5-.5v-2.5l-.3,1.2-.2,1.3h0ZM62,48.8v.2-.4c0,0,0,.1,0,.1h0ZM61.1,49h0s.2-.7.2-.7l-1.3-5.1v4.8c.1,0,1.1,1,1.1,1v-.6c0,0,0,.6,0,.6h0ZM60.2,48.9h0c0,0,0,0,0,0h0ZM58.2,46.5l1.8,2.3h0c0-.1-1-1.6-1-1.6l-.8-.7ZM59.5,48.4l.4.3-1.1-1.3v.5s.7.5.7.5h0ZM31.3,29.9l23.8,18.7-7.1-8.4-15.9-11.5c-.3.4-.6.8-.8,1.2h0ZM62,46v2.6s.2-.3.2-.3l.2-.6-.2.6.3-.4.6-5.9-1,4h0ZM59.5,47.7l.5.7v-.3s-.5-.5-.5-.5h0ZM61.4,48.3h0c0,.1,0-.3,0-.3v.3ZM60,42.4l1.4,5.7.2-.9.4-3.3V15.4c-.8,0-1.7,0-2.7,0l.7,27ZM48.4,40.2l10.3,7.6v-.5l-1.2-1.4-19.3-18,10.1,12.3ZM58.6,46.4l1.3,1.4-.3-5.8-6.6-26c-3.8.7-8,2-12.4,4.5l17.9,25.9ZM63.3,40.8l-.8,7,16.8-27c-4.4-2.7-8.2-3.9-8.9-4.1-.2,0-.5-.1-.9-.2l-6.1,24.4h0ZM61.9,45l-.2,1.4.2-.7v-.7ZM56.2,43.9l1.7,1.7-17.8-24.7c-.5.3-.9.7-1.3,1l17.4,22h0ZM62,44.6v.8s1.1-4.8,1.1-4.8l2.3-23.6-3.4,27.6ZM62.1,15.4v28c-.1,0,2.9-27.8,2.9-27.8-.9-.1-1.9-.2-2.9-.2h0ZM36.5,23.8l18.5,18.9-16.7-20.5c-.7.5-1.3,1.1-1.8,1.6ZM53.6,15.9l6,25.2-1.1-25.7c-1.5,0-3.1.2-4.9.5ZM35.2,25c-1.5,1.5-2.4,2.7-2.8,3.3l15,11.1-12.2-14.4h0ZM66.1,15.8l-2.6,23.3,5.4-22.8c-.7-.2-1.6-.3-2.7-.5h0Z"/>
      </g>
      <g class="st5">
        <path class="st0" d="M58.8,96.9c-2.2,0-4.8-.1-7.6-.6-.1,0-.2,0-.3,0-4.6-.8-9.5-2.5-13.6-4.7,0,0-.2-.1-.3-.2-3.7-2-10.6-6.5-15.8-14.2-.1-.2-.3-.4-.4-.6-7-10.7-7.3-21.7-6.8-27.3,0-.1,0-.3,0-.4.6-6.5,2.8-13.1,6.1-18.7,0-.1.1-.2.2-.3,2.4-3.9,5.1-7.1,7.6-9.4,2.8-3.1,6.4-6.2,11.1-8.7.3-.2.7-.4,1-.5,8.6-4.3,16.1-4.4,20.1-4.4.3,0,.6,0,.9,0,3.9,0,7.6.5,11,1.3.1,0,.2,0,.3,0,1.8.4,6.3,1.7,10.8,4,0,0,.1,0,.2,0,6.2,3.2,10.5,7.5,12.6,9.8,0,0,.2.2.2.3,5.6,6.3,9.4,14.3,10.7,22.5,0,.2,0,.4,0,.6,1.1,8.1-.2,17-3.5,24.4,0,.2-.1.3-.2.5-3,6.4-7.2,11.1-10.3,14,0,0-.2.1-.2.2-2.5,2.3-5.8,4.7-8.7,6.4-.2.1-.4.2-.6.3-6,3.3-12.7,5.2-19.6,5.5,0,0-.1,0-.2,0-.9,0-2.6.2-4.6.2h0Z"/>
      </g>
      <g class="st5">
        <path class="st0" d="M60.5,97.8h0c-1,0-4.5,0-8.2-.6,0,0-.2,0-.3,0-5.1-.8-10.7-2.8-15.2-5.3-.1,0-.2-.1-.3-.2-3.8-2.2-11-7.2-16.1-15.8-.1-.2-.2-.4-.4-.6-4.3-7.6-6.1-16.9-5.2-25.8.3-5.6,1.6-10.8,3.8-15.7,0-.2.2-.4.2-.5,2.4-5.1,7-12.4,15.4-18,.2-.1.3-.2.5-.3,6.1-3.9,13.5-6.4,20.7-7,.1,0,.3,0,.4,0,3.1-.2,9.2-.3,15.7,1.5.1,0,.3,0,.4.1,6.5,1.9,11.8,5.2,13.8,6.6,0,0,.2.1.2.2,3.6,2.6,6.6,5.5,8,7,0,0,0,.1.1.2,3.5,3.8,8.1,10,10.4,18.4,0,.2,0,.3.1.5,2.3,8.8,1.7,18.7-1.6,27.3,0,.3-.2.5-.3.8-3.8,9.2-10.3,15.1-13.8,17.8,0,0-.2.1-.3.2-4.3,3.3-9.5,5.9-14.7,7.5,0,0,0,0-.1,0-4.1,1.2-8.8,1.9-13.1,2h-.3Z"/>
      </g>
      <g class="st5">
        <path class="st0" d="M60.5,98.7c-3.3,0-8-.3-12.7-1.4,0,0-.1,0-.2,0-4.7-1.1-8.7-3-11-4.2-1.3-.7-2.7-1.5-4.2-2.5-.2-.1-.3-.2-.5-.3-5.4-3.8-9.1-8.3-10.9-10.7l-.3-.4c-1.1-1.6-2.1-3.2-2.9-4.8-.9-1.6-1.7-3.4-2.5-5.3,0-.2-.1-.4-.2-.6-3.8-10.4-2.6-20.8-2.1-23.8,0,0,0-.2,0-.3,1.5-8.7,5.8-17.3,11.8-23.5.2-.2.4-.4.6-.6.6-.5,1.1-1.1,1.7-1.6,3.3-3.1,6.5-5.3,8.5-6.5.1,0,.2-.1.3-.2,3.3-1.9,10-5.3,18.5-6.1.1,0,.3,0,.4,0,6.9-.6,15.5.6,22,3.1,0,0,.1,0,.2,0,1.1.4,4.9,2,8.6,4.3,0,0,0,0,0,0,4,2.5,8,6.1,11,9.8,0,0,.2.2.2.3,4.3,5.3,7.4,11.9,8.9,18.5,0,.1,0,.2,0,.3,1.2,5.6,1.1,10.7.8,13.9,0,0,0,.1,0,.2-.3,3.2-.8,6.1-1.6,8.8,0,.1,0,.3-.1.4-1.8,6.3-5.1,12.6-9.4,17.5-.1.1-.2.3-.4.4-4.8,5.3-10,8.5-13.6,10.3-.2,0-.3.2-.5.2-6.7,3.2-13.3,4.1-16.6,4.4,0,0-.2,0-.3,0-.7,0-2.1.1-3.9.1h0Z"/>
      </g>
      <g class="st5">
        <path class="st0" d="M59.8,101.9c-2.7,0-6.6-.1-10.2-.7,0,0-.2,0-.3,0-4.5-.8-8.9-2.4-11.7-3.7,0,0,0,0-.1,0-4.4-2.1-7.9-4.7-10.1-6.5,0,0,0,0-.1-.1-3.1-2.6-5.9-5.6-8.4-9.2,0-.1-.2-.3-.3-.4-2.5-3.7-5.9-9.7-7.3-17.4,0-.2,0-.4-.1-.6-.4-2.1-.6-4.4-.6-6.8-.2-4.8.1-9.9,1.1-14.2,0,0,0-.1,0-.2,1.4-6,4.5-12.5,6.9-16.2.1-.2.2-.3.3-.5,5.2-7.8,13.2-14,22-17.1.3,0,.5-.2.8-.3,5.6-1.9,10.8-2.2,14.2-2.1.2,0,.4,0,.6,0,6.1.2,12.7,1.8,16.5,3.1,0,0,0,0,.1,0,.2,0,.5.2.8.3,11.9,3,21.7,11.3,26.8,22.1.3.6.6,1.1.9,1.7,0,0,0,.2.1.2,3.2,6.1,4.5,12,4.9,15.8,0,0,0,.1,0,.2.5,3.8.3,7,.1,9.7,0,.1,0,.3,0,.4-.6,7.1-2.3,13.2-5.5,18.8,0,.2-.2.3-.3.5-2,3.5-6.5,10-14.2,15.1,0,0,0,0-.1,0-.7.5-1.8,1.2-5.1,2.9-.1,0-.2.1-.3.2-5.9,3-12.1,4.7-18.7,5,0,0,0,0-.1,0-.6,0-1.6,0-2.9,0h0Z"/>
      </g>
      <g class="st5">
        <path class="st0" d="M55.8,100.1c-4,0-7.9-.6-11.8-1.7-2.9-.8-5.6-2-8.2-3.4-4.6-2.2-8.7-5.4-12.2-9.2-.5-.6-1-1.2-1.5-1.8-7.1-8.7-10.3-19.8-8.9-31.1.4-3,1-6,2.1-9.1,0-.1,0-.2.1-.4.2-.5.4-1.2.8-2.1,1.5-4.2,3.8-8.2,6.7-11.8,1.1-1.4,2.4-2.7,3.7-4,1.1-1.3,2.3-2.6,3.6-3.8.2-.2.4-.4.6-.5,5.8-5.1,13.2-8.7,20.8-10.2.2,0,.4,0,.6-.1,5.9-1,15.4-.8,19.6-.1,0,0,0,0,.1,0,5.1.8,10.3,2.7,13.4,4.2,0,0,.1,0,.2,0,5.7,2.8,9.5,6.3,12.2,9,15.9,16,15.9,41.8-.1,57.8-2,2-4.2,3.7-6.4,5.2-5.4,5.4-12.2,9.3-19.7,11.2-.1,0-.3,0-.4,0-3.7.9-7.2,1.2-10.3,1.2h0c-1.6.2-3.3.3-5,.3h0Z"/>
      </g>
      <g class="st5">
        <path class="st0" d="M55.6,98.8c-1.6,0-3.2,0-4.9-.3-22.5-2.3-38.8-22.4-36.5-44.8,1.6-16,12.4-29,26.6-34.2,10.3-4.6,22.5-4.9,33.6.2,20.5,9.4,29.5,33.7,20.1,54.2-4.4,9.5-11.7,16.7-21.1,21-.3.1-.6.3-1,.4-5.3,2.2-11,3.4-16.8,3.4h0ZM59.1,17.2h0,0Z"/>
      </g>
      <g class="st5">
        <path class="st0" d="M55.5,100.2c-18.3,0-35-12.4-39.6-30.9-3.5-14,.7-28.1,9.8-37.9,9.2-11.9,24.6-18.3,40.3-15.2,22.1,4.3,36.6,25.8,32.3,47.9-1,4.9-2.6,9.5-5,13.7,0,0-.1.2-.2.3-2.1,3.5-4.4,6.3-6,8.1-.1.1-.2.2-.3.3-3.4,3.5-10.6,9.9-21.3,12.5-3.3.8-6.7,1.2-10,1.2h0ZM18,48.5s0,0,0,0h0ZM45.6,19.7s0,0,0,0c0,0,0,0,0,0ZM45.6,19.7s0,0,0,0c0,0,0,0,0,0Z"/>
      </g>
      <g class="st5">
        <path class="st0" d="M55.8,98.9c-2.6,0-5.2-.2-7.8-.7-22.2-4.1-36.9-25.4-32.8-47.6,2.3-12.4,10-22.5,20.2-28.2,11.2-7.4,25.8-9.2,39-3.5,20.7,9,30.2,33.1,21.2,53.7-.9,2-1.9,3.9-3,5.8-5.5,8.7-14.6,15.7-24.3,18.6-.1,0-.2,0-.3,0-4,1.2-8.1,1.8-12.2,1.8h0ZM23.4,34.9s0,0,0,0c0,0,0,0,0,0ZM62.8,17.9s0,0,0,0c0,0,0,0,0,0Z"/>
      </g>
      <g class="st5">
        <path class="st0" d="M56.9,100.3c-.9,0-1.8,0-2.7,0-.1,0-.3,0-.4,0-.8,0-4.8-.4-8.8-1.4-.1,0-.2,0-.4,0-5.5-1.4-9.9-3.7-12.1-5-.2,0-.3-.2-.5-.3-9.4-5.7-16.8-15.3-19.6-25.8,0-.2-.1-.4-.2-.7-.4-1.6-1.7-6.6-1.2-14.4,0-.1,0-.3,0-.4.4-6.1,2.6-17.8,12.7-27.5.4-.4.8-.7,1.1-1.1,1.1-1,2.2-1.9,3.4-2.7,7.9-6.5,18.2-10.1,29.2-9.3,9.1.7,17.3,4.3,23.8,9.9,1.6,1.1,3.1,2.2,4.6,3.5,4.2,3,7.9,6.9,10.7,11.4,7.4,11.9,8.3,26.8,2.2,39.4-5.4,11.3-15.4,19.2-27.7,22.2-1.1.3-2.2.7-3.3.9-3.6.8-7.2,1.3-10.8,1.3h0ZM49.2,19.4s0,0,0,0c0,0,0,0,0,0Z"/>
      </g>
      <g class="st5">
        <path class="st0" d="M58.2,102c-6.6,0-13.1-1.4-19-4.2-.2,0-.3-.2-.5-.2-3.3-1.6-5.9-3.4-8-4.9-3.2-2.3-5.9-4.8-8.3-7.5,0,0,0,0,0,0-.9-1-4-4.8-6.3-9.1,0-.1-.1-.2-.2-.4-2.3-4.4-3.9-9.3-4.8-14.6,0,0,0-.1,0-.2-.3-1.6-.5-3.6-.7-5.8,0,0,0-.1,0-.2-.2-3.5-.1-8.9,1.5-14.9,0-.1,0-.2,0-.3.9-3.1,2.5-7.8,5.4-12.5,0,0,.1-.2.2-.3,3.9-6.2,8.8-10.4,11.4-12.3,0,0,.2-.1.3-.2,4.6-3.4,9.2-5.4,11.5-6.3,0,0,.2,0,.2,0,3.2-1.2,6.6-2.1,10.2-2.6,18.9-2.9,36.8,7.7,43.9,24.5,0,0,.2.2.2.3,8.8,10.2,12,24.1,8.6,37.1,0,.2,0,.3-.1.5-.6,2.7-1.7,6.1-3.6,9.8-.1.2-.2.4-.3.6-5.5,10-14,15.5-18.5,17.9-.1,0-.2.1-.3.2-1,.5-1.9.9-2.9,1.3-.7.3-1.4.6-2.2.9,0,0,0,0,0,0-4.4,1.8-9.1,3-13.9,3.4-.3,0-.6,0-.9,0-1,0-1.9,0-2.9,0h0Z"/>
      </g>
      <g class="st5">
        <path class="st0" d="M57.4,97.1c-.3,0-.6,0-1,0-22.6-.3-40.7-18.8-40.4-41.4.3-21.9,17.7-39.5,39.3-40.3,20.5-1.7,39.4,12.3,43.4,32.9,4.3,22.1-10.1,43.6-32.3,47.9-1.4.3-3.6.6-6.1.8h0c-.4,0-1.3,0-2.9,0h0ZM51.4,16c-.3,0-.5,0-.6.1.2,0,.4,0,.6-.1Z"/>
      </g>
      <g class="st5">
        <path class="st0" d="M59,97.6c-1.1,0-2.1,0-2.9,0-22.5-1.4-39.7-20.7-38.4-43.2,1.2-20.3,17.1-36.2,36.7-38.2,20.1-3.2,39.9,9.1,45.6,29.2,6.2,21.7-6.4,44.3-28.1,50.5-2.9.8-5.5,1.4-8.2,1.6,0,0-.1,0-.2,0-1.6.2-3.2.2-4.6.2h0ZM49.5,17.2s0,0,0,0c0,0,0,0,0,0ZM60.8,15.9c0,0,.1,0,.2,0,0,0-.1,0-.2,0Z"/>
      </g>
      <g class="st5">
        <path class="st0" d="M60.1,97.3c-.4,0-.8,0-1.2,0-22.6-.4-40.5-19.1-40.1-41.7.4-21.8,17.8-39.2,39.3-40,20.2-1.8,39,11.5,43.6,31.8,4.9,22-8.9,43.9-31,48.8-.7.1-1.5.3-2.7.5-2.5.4-5.1.6-7.9.6h0ZM52.8,16.4s0,0,0,0c0,0,0,0,0,0ZM60.4,15.6h0,0Z"/>
      </g>
      <g class="st5">
        <path class="st0" d="M59.8,98.1c-17.2,0-33.2-10.9-38.8-28.1-6.4-19.5,2.6-40.3,20.4-49.3,10.2-5.6,22.4-6.5,33.2-2.7,10.6,3.6,19.6,11.5,24.3,22.4,8.4,19.4.6,42-18,52.1-4.4,2.4-8.7,3.9-12.7,4.6-2.8.6-5.7.9-8.5.9h0ZM90.8,84.6s0,0,0,0c0,0,0,0,0,0ZM90.8,84.6h0s0,0,0,0Z"/>
      </g>
      <g class="st5">
        <path class="st0" d="M57.7,101.7c-5.6,0-11.1-1.1-16.4-3.2-2.3-.9-4.2-1.7-6.3-2.9,0,0-.2,0-.3-.1-6.4-3.5-12.1-8.9-16-15.2,0-.1-.2-.3-.3-.4h0c-1.1-1.9-3.8-6.2-5.4-12.3,0-.2,0-.4-.1-.5-.7-2.6-2.6-12,.1-22.1,0,0,0-.1,0-.2,3-10.8,9.8-18.2,12.6-20.9,0,0,.2-.2.3-.3,1.7-1.5,3.2-2.9,4.8-4.1.1,0,.2-.2.4-.3,4.1-3.1,9.9-6.3,17.6-7.7,0,0,0,0,.1,0,9.6-1.7,19.2,0,27.2,4.3,17.3,4.7,29.8,20.4,30.1,38.9,0,6.7-1.5,12.6-2.5,15.5h0c-1.3,3.8-3.7,9.4-8.4,14.7,0,0-.2.2-.3.3-1.8,2-3.4,3.4-4.7,4.5-6.4,5.7-13,7.9-15.6,8.8-.2,0-.3.1-.5.2-1.1.4-2.2.7-3.2.9-3.4,1-6.7,1.7-10,1.9-.2,0-.5,0-.7,0-.9,0-1.7,0-2.6,0h0ZM92,88.2s0,0,0,0c0,0,0,0,0,0,0,0,0,0,0,0Z"/>
      </g>
      <g class="st5">
        <path class="st0" d="M55.3,101.3c-9.6,0-19.2-3.4-26.7-9.3-.2-.2-.4-.3-.6-.5-1.8-1.5-3.5-3.1-5-4.8-.1-.1-.2-.2-.3-.4-1.7-1.9-3.2-4-4.5-6.1-1.6-2.4-2.9-5-3.9-7.6-.1-.3-.2-.6-.3-.8-.8-2.2-1.4-4.4-1.8-6.6-.7-3.4-.7-6-.8-7.5,0-3-.3-10.8,4.1-19.8.3-.7.7-1.4,1.1-2.1,2.7-4.8,6.4-9.1,10.9-12.6,4.2-3.2,8.8-5.6,13.7-7,12.2-4,26.2-2.1,37.3,6.2.5.4,1,.7,1.4,1.1,6.1,3.5,11.2,8.5,14.8,14.7,7.1,12,7.6,26.6,1.4,39-1.7,3.4-3.9,6.6-6.5,9.5-.4.5-.9,1-1.4,1.4-5.5,5.4-12.2,9.2-19.4,11.1-3.7,1.3-7.6,2-11.6,2.2-.2,0-.5,0-.7,0-.4,0-.8,0-1.2,0h0ZM42.1,98.9s0,0,0,0c0,0,0,0,0,0Z"/>
      </g>
      <g class="st5">
        <path class="st0" d="M58.4,101.4c-3.5,0-6.8-.4-9.9-1-.3,0-.5-.1-.8-.2-6.1-1.5-11.9-4.5-16.9-8.5-.1,0-.3-.2-.4-.3-8.1-5.6-14-13.9-16.6-23.3,0-.3-.2-.6-.2-.8-1.1-4.2-1.5-8.7-1.2-13.3,0-.2,0-.3,0-.4.2-2.6.6-5.1,1.3-8.4,2.3-10.6,8.6-19.4,17-25,5.7-4.2,12.6-7.1,19.5-8.2,0,0,.1,0,.2,0,4.6-.7,9.1-.5,11.3-.3,0,0,.1,0,.2,0,4.3.4,8.5,1.4,12.6,2.9,4.9,1.5,9.5,3.9,13.6,6.9.2.2.5.3.7.5,6.8,5.3,11.8,12.3,14.4,20.5.1.4.2.7.3,1.1,2.4,8.3,2.1,17.4-.7,25.6,0,.2-.2.5-.3.7-.5,1.2-1,2.4-1.5,3.6-1.9,4.8-4.7,9.2-8.2,13,0,0,0,0-.1.1-3.1,3.3-6.5,5.9-9.5,7.8-2.3,1.5-4.7,2.7-7.3,3.7-4.7,1.9-9.7,3-14.6,3.3,0,0-.2,0-.3,0-.9,0-1.7,0-2.6,0ZM13.6,45.3c-.1.5-.2.9-.2.9,0-.2,0-.5.1-.7,0,0,0-.2,0-.2Z"/>
      </g>
      <g class="st5">
        <path class="st0" d="M57.7,103.1c-1.5,0-2.9,0-4.4-.2-1.7-.2-3.4-.5-5-.8-2.6-.5-4.6-1.1-5.7-1.4-.1,0-.2,0-.3-.1-4.9-1.7-17.2-7-24.4-20.3-.2-.4-.4-.8-.6-1.2-1.4-2.8-2.5-5.7-3.2-8.8-3.2-10.9-1.1-20.6.2-24.7,0,0,0-.2,0-.3,1.7-5.5,4.2-9.9,7-13.5.6-.9,1.2-1.8,1.9-2.7,0,0,.1-.1.2-.2,3-3.9,6.4-6.9,7.8-8,0,0,.1,0,.2-.1,2.3-1.9,6.1-4.6,10.8-6.7.2,0,.4-.2.6-.3,10.5-4.5,20.4-3.6,25.3-2.7.2,0,.4,0,.6.1,4.8,1,9.4,2.8,13.8,5.4,9.1,5.4,13.9,12.6,16.3,17.7.2.3.3.7.5,1,1.7,3.7,2.8,7.6,3.3,11.6.3,1.3.5,2.7.7,4.1,0,.2,0,.5,0,.7,0,.3,0,.6,0,1,.5,4.1.4,7.7.2,10.3,0,.1,0,.3,0,.4-.7,6.3-3,13-6.3,18.4-.1.2-.2.3-.3.5-4.1,6.5-10.1,11.9-16.9,15.4-.3.2-.6.3-.9.5-2.7,1.3-5.6,2.3-8.6,3-4,1.3-8.3,2-12.8,2h0Z"/>
      </g>
      <g class="st5">
        <path class="st0" d="M56.4,102.2c-20.3,0-37.8-15-40.5-35.6-2.6-20.4,10.3-39.3,29.6-44.6,17.6-6.1,37.8.5,48.1,17,12,19.1,6.1,44.3-13,56.3-.9.6-2.1,1.3-3.6,2-.2,0-.3.2-.5.2-4.6,2.3-8.9,3.4-11.8,3.9,0,0-.2,0-.2,0-.8.1-1.6.3-2.8.4-1.8.2-3.6.3-5.3.3h0Z"/>
      </g>
      <g class="st5">
        <path class="st0" d="M58.3,101.6c-2.2,0-4.2-.2-5.9-.3-22.5-2.3-38.8-22.4-36.4-44.9,2-19.2,17-33.8,35.3-36.3,12.4-2.7,25.9.5,36,9.6,16.8,15.1,18.1,41,2.9,57.7-6,6.6-14,11.3-22.6,13.2-.2,0-.3,0-.5.1-3.2.7-6.2.9-8.8.9h0ZM29.5,32.6s0,0,0,0c0,0,0,0,0,0ZM29.5,32.6s0,0,0,0c0,0,0,0,0,0Z"/>
      </g>
      <g class="st5">
        <path class="st0" d="M59.3,101.4c-1.7,0-3.5,0-5.3-.2-22.5-1.9-39.2-21.7-37.2-44.2,1.7-19.3,16.5-34.3,34.9-36.9,9.2-2.4,19.3-1.5,28.5,3,11.4,5.7,17.1,14.3,19.8,20.5.2.5.4,1,.6,1.4,4.6,11.6,3.7,24.6-2.5,35.4-3.7,6.4-12.5,17.6-30.4,20.4-.2,0-.4,0-.6,0-2.6.4-5.2.5-7.8.5ZM43.5,96.1s0,0,0,0c0,0,0,0,0,0ZM61,19.7h0,0Z"/>
      </g>
      <g class="st5">
        <path class="st0" d="M62,106.9c-1.6,0-3.3,0-5-.3-4.2-.4-7.9-1.4-11.1-2.6-5.1-1.8-9.7-4.6-13.8-8.3-.2-.2-.5-.4-.7-.6-1.8-1.7-8-8-11.5-16.5,0-.1-.1-.3-.2-.4-2.5-6.2-3.5-12.7-2.9-19.5,1.6-21.4,19.4-37.8,40.8-37.8s.6,0,.9,0c5.3.1,10.4,1.3,15,3.2,16.1,3.1,29.2,15.6,32.5,32.3,2.5,12.8-1.4,26.2-10.4,35.9-.7.7-1.4,1.4-2.1,2.1-2.3,2.1-4.7,4-7.3,5.6,0,0,0,0,0,0-5.3,3.4-11.3,5.6-17.6,6.3-.4,0-.8.1-1.2.2-.3,0-.5,0-.8,0-1.6.2-3.1.3-4.7.3h0Z"/>
      </g>
      <g class="st5">
        <path class="st0" d="M63.1,101.8c-.8,0-1.7,0-2.5,0-.3,0-.6,0-.8,0-6.6-.5-12.6-2-17.7-4.4-.1,0-.3-.1-.4-.2-9.9-4.8-17.3-13.3-20.9-23.4,0-.2-.2-.4-.3-.6,0-.1-.1-.3-.2-.4-.7-1.7-1.8-4.4-2.6-7.8,0,0,0-.1,0-.2-.9-3.5-2.1-10.3-1.2-17.9,0-.7,0-1.3.2-1.8,0,0,0,0,0-.1,0-.1,0-.2,0-.3,0-.8.1-1.8.3-2.9,0-.7.2-1.4.3-2,1.5-8.2,5.3-15.8,11.2-21.9.1-.1.2-.3.4-.4.8-.8,3.8-3.8,7.4-6.3.2-.1.3-.2.5-.3,6.6-4.5,14.4-7,22.4-7.5,0,0,.2,0,.2,0,.3,0,1.2,0,3,0h.7c9,0,17.3,3,24,8,.1,0,.2.1.3.2.8.5,5.2,3,9.1,6.7.2.1.3.3.4.4,1.9,1.8,3.5,3.8,4.9,5.7,2.9,3.6,5.2,7.8,6.8,12.4,1.2,3.5,1.8,7,2.1,10.3.2,1.4.3,2.8.4,4.2,0,1.3,0,2.4,0,3.4,0,1.4,0,2.8,0,4.3,0,1.3-.2,2.6-.4,3.8-.8,5.6-2.7,10.9-5.5,15.6,0,.1-.1.2-.2.3-1.9,3.1-3.9,5.5-4.9,6.6,0,.1-.2.2-.3.3-.2.3-.5.5-.7.7-1.3,1.5-2.6,2.8-4.1,4.1,0,0-.2.2-.3.2-2,1.7-3.8,2.9-5.5,4-3.9,2.6-8.3,4.5-13.1,5.7-1.1.3-2.2.5-3.3.7-3.2.7-6.4,1-9.6,1h0ZM20.1,72.2c0,.1.1.3.2.5,0-.1-.1-.3-.2-.5ZM110.5,62.6s0,0,0,0c0,0,0,0,0,0Z"/>
      </g>
      <g class="st5">
        <path class="st0" d="M55.7,97.9c-.4-.1-1-.3-1.9-.6-.7-.3-1-.3-5.3-2.1-21-8.3-31.3-32-23.1-53s32-31.3,53-23c.9.3,3.3,1.3,3.7,1.5-.1,0-.4-.2-.8-.3-.7-.3-1.3-.5-1.6-.6l-12,39.1-12,39h0ZM81.7,20.5s0,0,0,0c0,0,0,0,0,0ZM81.7,20.5h0,0Z"/>
      </g>
      <g class="st5">
        <path class="st0" d="M66.6,98.8c-3.9,0-7.8-.6-11.7-1.7-7.7-2-14.7-6.3-20-12.2-7-7.5-11-17.4-11-27.9s0-1.5,0-2.3c.3-5.4,1.7-10.7,4-15.6,3.8-7.8,9.8-14,17.4-18.2,9-4.9,19.5-6.2,29.4-3.8,3.6.9,7.2,2.3,10.5,4.2,1.2.7,2.5,1.5,3.8,2.4,17.5,11.4,23.8,34.5,13.8,53.3-7.3,13.9-21.5,21.8-36.2,21.8h0Z"/>
      </g>
      <g class="st5">
        <path class="st0" d="M67.8,99.8c-6.2,0-12.4-1.4-18.1-4.2l-5.2-2.6c-20.2-10-28.5-34.5-18.5-54.7,10-20.1,34.2-28.4,54.4-18.7,9.3,3.1,17.5,9.5,22.7,18.7l.3.6c8.8,15.6,6.4,35.2-5.9,48.2-7.9,8.3-18.7,12.8-29.7,12.8h0Z"/>
      </g>
      <g class="st5">
        <path class="st0" d="M66.6,98.8c-4,0-8.1-.6-12.2-1.9-2.8-.9-5.6-2-8.8-3.7,0,0,0,0-.1,0-3.5-1.8-6.8-4.1-9.8-6.7-17-14.8-18.8-40.7-3.9-57.6,13.4-15.3,35.8-18.3,52.5-7.7,18,8.6,27.5,29.4,21.4,49-5.5,17.5-21.6,28.7-39,28.7h0ZM78.8,18.9s0,0,0,0c0,0,0,0,0,0ZM78.7,18.9s0,0,0,0c0,0,0,0,0,0Z"/>
      </g>
      <g class="st5">
        <path class="st0" d="M65.7,100c-10.1,0-21.3-3.6-30.7-13.7-.2-.2-.3-.4-.5-.6-.9-1-2.5-2.8-3.2-3.6-14.9-16.9-13.3-42.7,3.6-57.7,16.9-14.9,42.8-13.3,57.7,3.6.2.3.5.6.9,1,4.8,4.4,8.6,10,10.9,16.6,7.5,21.3-3.8,44.6-25.1,52.1-4.1,1.4-8.7,2.3-13.7,2.3h0ZM62.9,18.4c-3.4.2-7,.9-10.5,2.2,3.5-1.2,7-1.9,10.5-2.2Z"/>
      </g>
      <g class="st5">
        <path class="st0" d="M66.9,100c-10,0-19.9-3.7-27.6-10.7-2-1.8-3.4-3.1-4.2-4,0,0,0,0,0,0-4.5-4.5-7.9-9.7-10.2-15.5-8.3-21,2-44.7,23.1-53,16.2-6.4,33.9-1.7,45,10.3,9.2,7.6,15.1,19.2,14.9,32.1v.5c-.2,16.1-9.9,30.5-24.7,36.9-5.2,2.3-10.7,3.3-16.2,3.3h0Z"/>
      </g>
      <g class="st5">
        <path class="st0" d="M67.7,99.4c-12.4,0-24.4-5.7-32.3-15.8l-3.8-4.9c-13.9-17.8-10.6-43.5,7.2-57.3,17.8-13.8,43.5-10.6,57.4,7.2l.6.7c8.1,8.1,12.7,19.5,11.8,31.8v.5c-1.3,16.9-12.8,31.2-29,36.1-3.9,1.2-7.9,1.7-11.8,1.7h0Z"/>
      </g>
      <g class="st5">
        <path class="st0" d="M66.5,99c-14.1,0-27.8-7.3-35.4-20.4-.6-1-1.5-2.3-1.9-2.9-12.3-18.9-6.9-44.2,12.1-56.5,19-12.3,44.3-6.9,56.6,12.1.6,1,1.9,2.9,2.6,4,.1.2.2.3.3.5.5.8,1,1.7,1.1,1.9,11.3,19.5,4.6,44.5-14.9,55.8-6.4,3.7-13.5,5.5-20.4,5.5Z"/>
      </g>
      <g class="st5">
        <path class="st0" d="M66.4,98.8c-18.2,0-34.5-12.2-39.4-30.1-8.1-17.8-2.5-39.3,14.2-50.7,18.7-12.7,44.1-7.9,56.8,10.8h0c.3.6.7,1.1,1,1.6,0,0,0,0,0,.1,3.1,4.8,5.3,10.2,6.7,16.6,0,0,0,0,0,.1.3,1.2.4,2,.7,3.2,4.1,22.2-10.5,43.5-32.8,47.6-2.5.5-5,.7-7.5.7h0Z"/>
      </g>
      <g class="st5">
        <path class="st0" d="M67.8,100c-19,0-35.1-13-39.6-30.7-6.9-14.9-4.4-33.1,7.7-45.6,15.7-16.2,41.6-16.6,57.8-.9,3.2,3.1,6.5,6.6,9.3,11.7,0,.1.1.2.2.4,3.2,5.8,4.1,11,4.6,13.8,0,.2,0,.4,0,.5.7,4,.8,7.5.7,9.8,0,22.4-17.9,40.7-40.4,41-.2,0-.3,0-.5,0h0ZM108.7,58.7v.2-.2ZM108.7,58.7h0s0,0,0,0Z"/>
      </g>
      <g class="st5">
        <path class="st0" d="M63.5,104.3c-.6,0-1.2,0-1.8,0,0,0-.2,0-.3,0-3.2-.1-8.2-.7-13.5-2.5,0,0-.1,0-.2,0-1.9-.7-3.6-1.4-5-2.1-.8-.3-1.4-.7-2.1-1-6.3-3-11.7-7.5-15.8-13-.3-.3-.5-.7-.8-1-4.2-6.1-6.8-12.7-7.6-19.8-1.4-11.9,2.5-24.2,11.5-33.3.5-.5.9-.9,1.4-1.4,1.1-2,2.4-4,3.8-5.9,6.4-8.2,15.6-13.5,25.6-15.2,10.4-1.9,21.4.2,30.5,6.3,5,3.4,9.3,7.9,12.6,13.3,3.4,4.7,5.9,10.2,7.2,15.7,0,.2,0,.4.1.5,1.1,4.8,1.1,9.4,1,12.5v.2c0,.8-.1,1.6-.2,2.5,0,.2,0,.4,0,.5,0,0,0,.2,0,.2-.3,4.3-1.7,15-8.9,24.6-3.3,4.9-7.8,9.2-13.2,12.3-4.6,2.7-9.3,4.3-12.3,5.1,0,0-.2,0-.3,0-3.7,1-7.7,1.5-11.7,1.5h0Z"/>
      </g>
      <g class="st5">
        <path class="st0" d="M60.7,102.7c-11.6,0-22.3-4.3-30.2-12.1-.1-.1-.3-.3-.4-.4-2.6-2.7-4.4-5.2-5.5-6.9-12.3-18.8-7.2-44,11.6-56.5,7.2-4.8,15.3-6.9,23.3-6.8,21.7-2.5,41.7,12.6,45,34.4.9,5.8.5,11.9-1.1,17.6-3.5,12.4-12.7,22.7-24.6,27.5-.3.1-.6.2-.9.3-6.4,2.4-12.2,2.8-16.6,2.8-.2,0-.5,0-.7,0h0ZM23.7,66.8s0,0,0,0c0,0,0,0,0,0ZM23.7,66.8h0s0,0,0,0ZM23.7,66.8h0s0,0,0,0Z"/>
      </g>
      <g class="st5">
        <path class="st0" d="M63.5,107.1c-4.8,0-8.9-.4-12.8-1.3-.1,0-.3,0-.4,0-.8-.2-1.6-.4-2.4-.7,0,0,0,0-.1,0,0,0-.1,0-.2,0-1.8-.5-5.2-1.6-9.1-3.5-1.4-.7-2.7-1.4-3.9-2.1-1.7-1-3.4-2.2-5-3.5,0,0-.1-.1-.2-.2-3.3-2.7-6.6-6.4-9-10,0-.1-.1-.2-.2-.3-1.9-2.9-3.5-6.2-4.9-9.9,0,0,0-.1,0-.2-2.2-6-3.1-12.1-2.7-18.1.5-8.4,3.6-16.4,8.9-23,4.5-5.6,10.3-9.8,16.8-12.4,2.9-1.2,6-2.1,9.2-2.7,9.8-1.6,19.5.4,27.5,5.1,1.7.4,3.4,1,5,1.6,9.4,3.2,17.7,9.8,22.8,18.9,9.1,16.4,5.8,36.9-7.9,49.6-3,2.8-6.3,5-9.4,6.6-6,3.7-13.1,5.9-20.7,6-.4,0-.9,0-1.3,0Z"/>
      </g>
      <g class="st5">
        <path class="st0" d="M60.1,104c-4.4,0-8-.6-10.1-1.1,0,0-.1,0-.2,0-4.7-1-8.6-2.8-11.2-4.1,0,0-.2,0-.3-.1-.1,0-.3-.1-.4-.2-5.5-2.8-10.6-6.9-14.4-11.6,0-.1-.2-.2-.3-.3-4.9-6.1-8.1-13.7-9.2-21.4,0-.1,0-.2,0-.3-.5-4.3-.5-9,.2-13.3,0-.1,0-.2,0-.4.1-.6.2-1.3.4-1.9.6-3.5,1.6-6.9,3-10,0-.1.1-.3.2-.4,2.7-6.1,7.1-11.8,12.4-16.1,0,0,.1-.1.2-.2.9-.7,1.8-1.4,2.7-2,6.8-5.1,15.1-8.3,23.7-8.8.1,0,.2,0,.3,0,4.7-.3,9,.3,10.7.6,0,0,.1,0,.2,0,6.1,1,12.8,3.4,17.9,6.5,0,0,.2.1.3.2,5.8,3.5,11.2,8.7,14.8,14.5,0,.1.1.2.2.3,5.5,8.9,6.4,17.9,6.4,22.5v.3c0,4.9-.8,10.1-2.4,14.7,0,0,0,0,0,.1-2,5.8-4.9,10.2-6.5,12.4,0,0-.1.2-.2.3-2.5,3.3-5.8,6.7-9,9.2,0,0-.1.1-.2.2-1.7,1.3-3.3,2.4-4.9,3.3-5.7,3.7-12.3,6.2-19,7-.2,0-.3,0-.5,0-1.7.2-3.3.3-4.8.3h0Z"/>
      </g>
      <g class="st5">
        <path class="st0" d="M60.1,103c-4.1,0-8.2-.6-12.1-1.8h0c-3-.9-5.9-1.8-9.6-3.7-.4-.2-.8-.4-1.1-.6-6.3-3.5-17.3-12-20.7-29.2-4.4-22.1,10-43.6,32.1-48.1,7.8-1.6,15.5-.8,22.5,1.8,10.9,2.5,20.8,9.4,26.7,19.9,11,19.7,3.9,44.6-15.8,55.6-2.9,1.6-6.4,3.4-11.1,4.6-.1,0-.3,0-.4.1-3.4.9-6.9,1.3-10.4,1.3ZM47.6,101.1s0,0,0,0c0,0,0,0,0,0ZM47.6,101.1s0,0,0,0c0,0,0,0,0,0ZM47.6,101.1s0,0,0,0c0,0,0,0,0,0ZM47.5,101.1s0,0,0,0c0,0,0,0,0,0ZM47,100.9s0,0,0,0c0,0,0,0,0,0ZM42.1,25.6s0,0,0,0c0,0,0,0,0,0Z"/>
      </g>
      <g class="st5">
        <path class="st0" d="M62,101.5c-2.5,0-5.1-.2-7.7-.7-7.6-1.1-15.1-4.3-20.9-8.9-.3-.2-.5-.4-.8-.7-11.1-9.2-16.7-23.9-14.6-38.3,0-.3,0-.6.1-.9.1-.8.3-1.5.5-2.6,4.5-21.6,25.3-35.6,46.8-31.9,5.8.3,11.6,1.7,17,4.6,20,10.4,27.9,35.1,17.4,55.1h0c-.8,1.6-1.8,3.4-3.1,5.4-.2.2-.3.5-.5.7-6.4,9.2-16.2,15.7-27.1,17.6-.2,0-.4,0-.6.1-2.2.4-4.4.6-6.7.6h0Z"/>
      </g>
      <g class="st5">
        <path class="st0" d="M60.2,107.5c-3.9,0-7.7-.6-11.3-1.6-2.8-.6-5.4-1.4-8-2.5-20.4-8.4-30.5-31.4-22.8-52.1,2.8-7.5,7.6-13.7,13.5-18.2,1-.8,2-1.5,3.1-2.2.8-.7,1.6-1.4,2.4-2,5.2-6.3,12.2-11,20.4-13.3,1.7-.5,3.4-.8,5.1-1.1,12.1-1.8,24.2,1.8,33.3,9.9,12.3,11,14,25.2,14,32.1.4,4.2.2,8.5-.7,12.7-1.4,7.8-5.1,15.2-10.6,21.1-5.9,8-14.7,13.8-25,15.8h-.4c-2.9.7-5.6,1.1-8.4,1.2-1.5.2-3,.2-4.5.2h0Z"/>
      </g>
      <g class="st5">
        <path class="st0" d="M68.9,100.2c-10.2,0-20.2-3.8-27.9-10.9-1.4-1.3-2.8-2.8-4-4.3-6.5-8.1-8.4-16.4-8.9-22.2-.7-3.8-.9-7.6-.6-11.3-1.2-16.3,7.5-32.2,22.8-39.6,17.9-8.7,39.4-3.3,51,12.7,1.3,1.6,2.4,3.3,3.5,5.2,2.6,4.1,4.5,8.7,5.6,13.7.3,1.1.5,2.3.7,3.4,0,.3.1.6.1.8.5,3,.7,6.1.6,9.1,0,1-.1,1.9-.2,2.9,0,.8-.1,1.7-.3,2.5,0,.2,0,.3,0,.5v.3c-.4,2.9-1.2,8.2-4.4,14.5-.6,1.1-1.2,2.2-1.9,3.2-3.6,5.6-8.3,10-13.7,13.2-2.3,1.4-4.7,2.5-7.2,3.4-2.2.9-4.3,1.5-6.1,1.9-3.1.7-6.1,1-9.2,1h0Z"/>
      </g>
      <g class="st5">
        <path class="st0" d="M58.4,102c-4.2,0-12.6-.6-20.9-4.7,0,0-.1,0-.2-.1-2.5-1.2-4.9-2.8-7.2-4.5-2.8-1.9-5.6-4.3-8.2-7.3-.3-.3-.6-.7-.9-1-4.9-6.1-8.1-13.6-9-21.4-.7-4.4-.7-8.1-.5-10.3,0-.2,0-.3,0-.5.4-5.2,1.8-10.4,3.9-15.1,0,0,0-.2.1-.3,2.9-6.3,7.8-12.3,13.3-16.7.1-.1.3-.2.4-.3,1.5-1.2,3.1-2.2,4.7-3.2,1.4-1,3-1.9,4.6-2.8.2,0,.4-.2.5-.3,7.1-3.5,15.3-5,23.2-4.3.2,0,.3,0,.5,0,2.7.3,6.8,1,11.4,2.7,0,0,0,0,0,0,3.7,1.4,7.5,3.4,10.8,5.7,0,0,.1.1.2.2.5.3.9.7,1.4,1.1,1.4,1,2.8,2.1,4.2,3.3.2.2.5.4.7.6,8.8,8.1,13.8,19.5,13.8,31.5v.4c0,2.7-.3,5.5-.8,8.2-1.3,10.2-6.4,19.8-14.7,26.6-1.8,1.6-3.8,3.1-5.7,4.4,0,0,0,0,0,0-1.2.8-5.4,3.4-10.2,5.2-.2,0-.3.1-.5.2-5.7,2-11.2,2.5-13.2,2.6-.1,0-.3,0-.4,0-.4,0-.9,0-1.4,0h0Z"/>
      </g>
      <g class="st5">
        <path class="st0" d="M51.8,98.8c-21.7,0-39.8-17.1-40.8-38.9-1-21.8,15.3-40.4,36.8-42.6,20.8-2.8,40.7,10.7,45.4,31.6,4.9,22-8.9,43.9-31,48.8-1.6.4-3.2.6-4.7.8-1.2.1-2.3.2-3.8.3-.6,0-1.3,0-1.9,0h0Z"/>
      </g>
      <g class="st5">
        <path class="st0" d="M50.8,99.6c-14.9,0-29.3-8.2-36.5-22.4-10.2-20.1-2.2-44.7,18-54.9l2-1c20.1-10.2,44.8-2.2,55,18,10.2,20.1,2.2,44.7-18,54.9l-2,1c-5.9,3-12.2,4.4-18.5,4.4h0Z"/>
      </g>
      <g class="st5">
        <path class="st0" d="M51.4,98.8c-16.5,0-32.1-10.1-38.3-26.5-7.9-21.1,2.8-44.7,23.9-52.6l1.1-.4c21.1-7.9,44.7,2.8,52.7,23.9,7.9,21.1-2.8,44.7-23.9,52.6l-1.1.4c-4.7,1.8-9.6,2.6-14.4,2.6h0Z"/>
      </g>
      <g class="st5">
        <path class="st0" d="M51,99c-15.1,0-29.6-8.4-36.7-22.8-10-20.2-1.7-44.7,18.6-54.7l2.3-1.2c20.3-10,44.8-1.7,54.8,18.6,10,20.2,1.7,44.7-18.6,54.7l-2.3,1.2c-5.8,2.9-12,4.2-18.1,4.2h0Z"/>
      </g>
      <g class="st5">
        <path class="st0" d="M50.4,99.6c-14.9,0-29.2-8.1-36.4-22.3-10.1-19.8-2.5-44.1,17-54.6.5-.3,1.3-.8,1.8-1,19.5-11.3,44.6-4.7,55.9,14.8,11.3,19.5,4.7,44.5-14.9,55.8-3,1.8-3.1,1.8-3.7,2.1-.2.1-.6.3-1.1.6-6,3-12.3,4.5-18.6,4.5h0ZM31.3,22.6s0,0,0,0c0,0,0,0,.1,0,0,0,0,0,0,0Z"/>
      </g>
      <g class="st5">
        <path class="st0" d="M51.7,98.9c-.5,0-.9,0-1.4,0-.2,0-.4,0-.6,0-7.2-.3-14-2.5-20.1-6.4-19.1-12-24.8-37.3-12.8-56.3,4.8-7.6,11.7-13.1,19.4-16.2,19.2-9.4,42.7-2.4,53.4,16.4,11.2,19.6,4.4,44.5-15.2,55.7-4.5,2.6-11.8,6.8-22.7,6.8h0ZM73.2,23.3s0,0,0,0c0,0,0,0,0,0Z"/>
      </g>
      <g class="st5">
        <path class="st0" d="M51.7,98.8c-1.8,0-3.8-.1-5.8-.4-22.4-3.2-37.9-23.8-34.8-46.2,1.9-13.8,10.5-24.9,22.1-30.8.5-.3,1-.6,1.3-.7,19.7-11,44.6-4,55.7,15.7,11,19.7,4,44.6-15.7,55.6-.4.2-1.4.8-2.1,1.1,0,0,0,0,0,0-2.7,1.5-10.1,5.6-20.6,5.6h0Z"/>
      </g>
      <g class="st5">
        <path class="st0" d="M51.4,99.2c-.3,0-.7,0-1,0-22.6-.5-40.4-19.3-39.9-41.8.4-16,9.9-29.5,23.4-36,19-11.3,43.6-5.5,55.5,13.3,12.1,19.1,6.3,44.3-12.8,56.4l-.4.3c-.4.3-1,.6-1.3.8-.2.2-.5.3-.7.5-7.3,4.3-14.9,6.5-22.7,6.5h0Z"/>
      </g>
      <g class="st5">
        <path class="st0" d="M50.1,99.3c-13.3,0-26.4-6.5-34.3-18.5-12.4-18.9-7.1-44.2,11.8-56.6,1.6-1,3.9-2.5,6.5-3.8,0,0,0,0,0,0,.8-.4,1.9-.9,3.2-1.5,20.7-9.1,44.8.2,53.9,20.9,9,20.4,0,44.2-20.1,53.5-6.6,4-13.9,5.9-21.2,5.9h0ZM72.5,92.6c0,0-.1,0-.2.1,0,0,.1,0,.2-.1h0Z"/>
      </g>
      <g class="st5">
        <path class="st0" d="M49.8,98.1c-17.6,0-33.8-11.4-39.1-29.1-6.5-21.6,5.7-44.4,27.3-50.9.7-.2,1.3-.4,1.9-.5,1.2-.3,1.6-.4,5.7-1.2,22.1-4.6,43.8,9.7,48.3,31.8,4.6,22.1-9.7,43.7-31.8,48.3-.4,0-1.5.3-2.3.5-3.4.9-6.7,1.3-10.1,1.3h0ZM61.7,96.3h0,0Z"/>
      </g>
      <g class="st5">
        <path class="st0" d="M51,93.3c-5.3,0-10.7-1-15.8-3.2l-1.8-.7C12.6,80.6,2.8,56.7,11.5,35.9,20.3,15.1,44.3,5.3,65.1,14.1l1.8.7c20.8,8.7,30.6,32.7,21.9,53.5-6.6,15.6-21.8,25-37.7,25Z"/>
      </g>
      <g class="st5">
        <path class="st0" d="M52.4,93.8c-4.1,0-8.4-.6-12.5-2l-2.9-.9c-1.1-.4-2.3-.8-3.4-1.2C13.9,81.4,3.9,59.3,10.7,39.1c6.8-20.3,28-31.9,48.7-26.7,1.1.3,2.2.6,3.2.9l2.3.7c21.5,6.9,33.3,29.9,26.4,51.4-5.6,17.3-21.6,28.4-38.9,28.4Z"/>
      </g>
      <g class="st5">
        <path class="st0" d="M53.9,93.9c-.7,0-1.4,0-2,0-2.9-.1-10.5-.5-18.8-5,0,0-.1,0-.2-.1-14.4-7.9-22.8-23.5-21.4-39.9,1.9-22.5,21.7-39.2,44.2-37.2,4.5.4,8.7,1.5,12.6,3.1,16.2,6.1,27.4,22.1,26.5,40.3-1.1,21.9-19.2,38.8-40.8,38.8ZM92.9,55.8h0s0,0,0,0ZM92.9,55.8h0s0,0,0,0ZM55.9,12.2h0,0Z"/>
      </g>
      <g class="st5">
        <path class="st0" d="M55.5,94.3c-3.8,0-7.6-.5-11.4-1.6l-3.4-1c-21.7-6.3-34.2-28.9-27.9-50.6C19.1,19.5,41.8,7,63.5,13.2l3.4,1c21.7,6.3,34.2,28.9,27.9,50.6-5.2,17.9-21.5,29.5-39.3,29.5Z"/>
      </g>
      <g class="st5">
        <path class="st0" d="M55.8,94c-2.9,0-5.8-.3-8.7-.9-1.3-.3-2.4-.5-3.7-.9-.1,0-.3,0-.4-.1l-2.2-.6c-21.8-6-34.6-28.4-28.6-50.2C18.1,19.5,40.6,6.7,62.4,12.7l2.1.6c22.1,4.8,36.1,26.5,31.3,48.6-4.1,19.1-21.1,32.2-39.9,32.2Z"/>
      </g>
      <g class="st5">
        <path class="st0" d="M56.1,94.2c-2.3,0-4.6-.2-6.9-.6l-4-.7c-22.3-3.8-37.3-24.9-33.5-47.1C15.5,23.6,36.6,8.6,58.8,12.4l4,.7c22.3,3.8,37.3,24.9,33.5,47.1-3.4,19.9-20.7,34-40.3,34h0Z"/>
      </g>
      <g class="st5">
        <path class="st0" d="M68.2,93.7c-1.5,0-3.1,0-5-.2-22.5-1.8-39.3-21.5-37.5-44,1.8-22.2,21.1-38.9,43.3-37.5,21.8.3,39.7,17.6,40.4,39.6.7,22.6-17,41.4-39.6,42.1-.3,0-.6,0-.7,0-.2,0-.4,0-.7,0h-.3,0Z"/>
      </g>
      <g class="st5">
        <path class="st0" d="M70.3,93.9c-1.2,0-2.5,0-3.7-.2-.3,0-.7,0-.8,0-22.6-1.1-39.9-20.3-38.8-42.9,1.1-22.5,20.3-39.9,42.9-38.7,2.5.1,3,.2,3.9.2,1.3.1,2.4.3,3,.4,22.3,3.7,37.4,24.7,33.7,46.9-3.3,20-20.6,34.2-40.3,34.3h0ZM63.6,93.4h0,0Z"/>
      </g>
      <g class="st5">
        <path class="st0" d="M71.1,94.7c-.5,0-1,0-1.6,0-1,0-1.6,0-3.9-.3-22.5-1.9-39.2-21.7-37.3-44.1,1.9-22.5,21.7-39.2,44.2-37.3.1,0,.3,0,.6,0,21.5.8,38.8,18.2,39.3,40,.5,22.6-17.4,41.2-40,41.7-.3,0-.7,0-1.1,0h0ZM70.5,13h0,0Z"/>
      </g>
      <g class="st5">
        <path class="st0" d="M70.1,94.7c-19.7,0-37-14.2-40.3-34.2-3.7-22.3,11.4-43.3,33.7-47,1.6-.3,3.1-.5,4.4-.6.2,0,.5,0,.9,0h0c22.5-2,42.3,14.6,44.3,37.1,2,22.2-14.3,41.9-36.5,44.2-2.2.4-4.4.5-6.5.5ZM76.1,94.2h0,0Z"/>
      </g>
      <g class="st5">
        <path class="st0" d="M71.6,93.9c-1.5,0-3.1,0-4.7-.3-.2,0-.5,0-.6,0-22.5-1.6-39.5-21.1-38-43.6S49.4,10.5,71.9,12.1c2.2.2,3.3.3,3.8.3.5,0,1,.1,1.5.2,22.4,3.2,37.9,23.8,34.8,46.2-2.9,20.4-20.4,35.1-40.4,35.1h0ZM67.2,93.7s0,0,0,0c0,0,0,0,0,0ZM67.2,93.7h0,0ZM65.8,93.5h0,0Z"/>
      </g>
      <g class="st5">
        <path class="st0" d="M68.8,94.2c-21.8,0-39.9-17.2-40.8-39.2-.9-21.6,15.1-39.9,36.2-42.3,18.9-3.1,37.9,7.4,44.9,26,7.9,21.1-2.8,44.7-23.9,52.6-2.9,1.1-7.5,2.4-13.1,2.8-.1,0-.3,0-.4,0-.1,0-.6,0-.9,0h-.2c-.6,0-1.2,0-1.7,0ZM56.4,14.8s0,0,0,0c0,0,0,0,0,0ZM56.4,14.8s0,0,0,0c0,0,0,0,0,0Z"/>
      </g>
      <g class="st5">
        <path class="st0" d="M68.4,94.1c-22.6,0-40.9-18.3-40.9-40.9S45,13.1,67,12.4c18-1.6,35.5,9,41.9,26.8,7.7,21.2-3.3,44.6-24.5,52.3-2.2.8-4.5,1.4-6.8,1.8-3.5.6-6.5.7-9.2.7h0ZM56.6,14.7s0,0,0,0c0,0,0,0,0,0Z"/>
      </g>
      <g class="st5">
        <path class="st0" d="M68,94.1c-20.8,0-38.7-15.8-40.7-37-2.1-22.5,14.4-42.4,36.9-44.5l1.9-.2c22.5-2.1,42.4,14.4,44.6,36.8,2.1,22.5-14.4,42.4-36.9,44.5l-1.9.2c-1.3.1-2.6.2-3.9.2Z"/>
      </g>
      <g class="st5">
        <path class="st0" d="M67.9,94.3c-.8,0-1.7,0-2.5,0-22.6-1.3-39.8-20.5-38.5-43.1,1.1-20.3,16.9-36.2,36.4-38.3,21.4-3.6,42.1,10.1,46.8,31.5,4.8,22-9.1,43.8-31.2,48.7-2.3.5-3.8.8-5.4,1h0c-1.8.2-3.7.3-5.6.3h0ZM69.9,12.7h0,0ZM69.9,12.7h0,0Z"/>
      </g>
      <g class="st5">
        <path class="st0" d="M67.9,94.4c-21.7,0-39.8-17-40.8-38.9-1.1-22.5,16.4-41.7,38.9-42.7.3,0,.9,0,1.4,0,.1,0,.2,0,.3,0,22.5-1.5,42,15.6,43.5,38.1,1.5,22.5-15.5,41.9-38,43.4h-.4c-.1,0-.3,0-.4,0-.7,0-2,.1-2.5.1-.7,0-1.3,0-2,0h0Z"/>
      </g>
      <g class="st5">
        <path class="st0" d="M67.8,94.6c-21.1,0-39-16.2-40.7-37.7-1.8-22.5,15-42.2,37.6-43.9,0,0,.1,0,.2,0,21.1-3,41.2,10.8,45.7,31.9,4.7,22.1-9.3,43.8-31.4,48.5-1.8.4-3.5.6-4.6.8,0,0,0,0,0,0-.4,0-1,.1-3.4.3-1.1,0-2.2.1-3.3.1ZM62,13.5s0,0,0,0c0,0,0,0,0,0ZM62.1,13.5s0,0,0,0c0,0,0,0,0,0ZM62.1,13.5h0,0Z"/>
      </g>
      <g class="st5">
        <path class="st0" d="M67.8,95c-21.5,0-39.5-16.8-40.8-38.5-1.3-22.5,15.9-41.8,38.4-43.2,19.8-2.4,38.9,10.1,44.3,29.9,5.9,21.8-7,44.2-28.8,50.1-1.7.5-3.3.8-5,1,0,0-.1,0-.2,0-1.8.3-3.1.3-5.6.5-.8,0-1.6,0-2.4,0h0ZM59.5,14.5s0,0,0,0c0,0,0,0,0,0Z"/>
      </g>
      <g class="st5">
        <path class="st0" d="M67.7,94.8c-.7,0-1.5,0-2.2,0-22.6-1.1-39.9-20.4-38.8-42.9,1-20.1,16.4-36,35.7-38.4,21.3-4.4,42.5,8.7,47.9,30,5.5,21.9-7.8,44.1-29.7,49.6-.7.2-1.2.3-2.1.5h0c-.1,0-.3,0-.4.1h0c-2.6.6-6.1,1.2-10.3,1.2ZM60.8,13.8c0,0-.1,0-.2,0,0,0,.1,0,.2,0ZM69.6,13.1h0,0ZM69.6,13.1h0,0Z"/>
      </g>
      <g class="st5">
        <path class="st0" d="M67.7,94.6c-1.7,0-3.4,0-5-.3-22.4-2.6-38.5-22.9-35.8-45.3,2.3-19.3,17.7-33.9,36.2-35.9,21.6-3.8,42.6,10.2,47.1,31.9,4.6,22.1-9.5,43.7-31.6,48.4h0c-.2,0-.3,0-.5.1-.2,0-.3,0-.5.1-3.4.7-6.7,1.1-9.9,1.1ZM72.2,13.2s0,0,0,0c0,0,0,0,0,0ZM72.2,13.2h0,0Z"/>
      </g>
      <g class="st5">
        <path class="st0" d="M67.5,94.5c-2,0-4-.1-6-.4-22.4-3.2-37.9-23.9-34.7-46.2,2.7-18.8,17.8-32.8,35.9-34.9,18.2-3.2,36.9,6.3,44.6,24,9,20.7-.5,44.8-21.2,53.7-2,.9-4,1.6-6.1,2.1-1,.2-1.7.4-2.2.5-.1,0-.2,0-.3,0-3.4.7-6.6,1-9.8,1ZM53.4,15.8s0,0,0,0c0,0,0,0,0,0ZM53.4,15.8s0,0,0,0c0,0,0,0,0,0ZM73,13.2h0,0Z"/>
      </g>
      <g class="st5">
        <path class="st0" d="M67.5,94.6c-20.7,0-38.4-15.6-40.6-36.6-2.4-22.4,13.9-42.6,36.4-44.9l1.8-.2c.1,0,.2,0,.3,0h0c1-.1,1.6-.2,2.3-.2,22.5-1.6,42.1,15.4,43.6,37.9,1.6,22.3-15.1,41.6-37.3,43.5-.1,0-.3,0-.4,0l-1.8.2c-1.5.2-2.9.2-4.4.2ZM73.5,94.2s0,0-.1,0c0,0,0,0,.1,0ZM73.8,94.2c0,0,.1,0,.2,0,0,0-.1,0-.2,0Z"/>
      </g>
      <g class="st5">
        <path class="st0" d="M68,95.1c-21.9,0-40-17.3-40.8-39.3-.8-22.5,16.8-41.5,39.4-42.3,0,0,0,0,.1,0,19.9-2.1,38.8,10.6,43.9,30.5,5.6,21.9-7.6,44.1-29.4,49.7-2.3.6-4.9,1-7.5,1.2,0,0,0,0-.1,0-.8,0-1.4.1-4,.2-.5,0-1,0-1.5,0h0ZM60.9,14.4h0,0ZM60.9,14.4h0,0ZM68,13.3h0,0Z"/>
      </g>
      <g class="st5">
        <path class="st0" d="M69.4,95.5c-2.1,0-4.8-.1-7.7-.6-22.3-3.8-37.2-24.9-33.4-47.1,3.3-19.4,19.9-33.3,38.8-34,11.8-1.2,24,2.7,33.1,11.8,10.8,10.8,14.7,26.7,10.1,41.2-4.6,14.6-16.9,25.3-32,27.9,0,0-.1,0-.2,0-2.6.5-5,.7-7.1.8,0,0,0,0-.1,0-.5,0-1,0-1.6,0h0ZM55.7,16.6c-8.4,3.4-15.3,9.5-19.8,17.3,1.7-3,3.9-5.8,6.5-8.4,3.9-3.9,8.5-6.9,13.4-8.9h0ZM75.4,14.3s0,0,0,0c0,0,0,0,0,0ZM75.4,14.3h0,0Z"/>
      </g>
      <g class="st5">
        <path class="st0" d="M54.5,91.8c-7.8,0-15.5-2.2-22.4-6.7-.8-.5-1.8-1.1-2.8-1.8,0,0,0,0,0,0-1.5-1-2.9-2.2-4.3-3.4-16.8-15.1-18.2-40.9-3.1-57.7,13.4-14.9,35.3-17.7,51.8-7.6.6.4,1.3.8,2.1,1.2,2.3,1.5,4.2,3,5.1,3.7,17.3,14.5,19.7,40.2,5.2,57.5-8.1,9.7-19.7,14.7-31.4,14.7h0ZM28.3,82.3s0,0,.1.1c0,0,0,0-.1-.1ZM79.6,19.1s0,0,0,0c0,0,0,0,0,0Z"/>
      </g>
      <g class="st5">
        <path class="st0" d="M54.1,90.9c-4.3,0-8.7-.7-13-2.1-2.8-.9-5.4-1.8-8.7-3.6-.2-.1-.4-.2-.6-.3-2-1.1-3.8-2.4-5.7-3.9-17.6-14.1-20.5-39.8-6.4-57.4,11.9-14.9,32.1-19.2,48.7-11.8,20.6,7.7,31.5,30.3,24.5,51.3-5.7,17.1-21.7,27.8-38.8,27.8h0ZM77.2,17.1s0,0,0,0c0,0,0,0,0,0Z"/>
      </g>
      <g class="st5">
        <path class="st0" d="M53.3,91.7c-8.5,0-17-2.6-24.4-8.1l-.6-.4C10.4,71.3,4.6,47.4,15.6,28.5,27,9.1,52.1,2.5,71.6,13.9c.8.4,1.9,1.1,3.1,2,0,0,.2.1.3.2.4.3,1,.7,2.1,1.5l.7.5c18.1,13.5,21.9,39,8.5,57.2-8,10.8-20.4,16.5-32.9,16.5h0ZM30.2,84.4s0,0,.1,0c0,0,0,0-.1,0Z"/>
      </g>
      <g class="st5">
        <path class="st0" d="M53.2,92c-7,0-14-1.8-20.5-5.5-2.1-1.2-3.9-2.4-5.9-3.9,0,0,0,0-.1-.1-2.5-1.9-6.1-5.2-9.2-9.9C4.9,53.9,9.9,28.5,28.6,15.9c15.1-10.1,34.5-8.9,48.1,1.8,17.3,12,22.7,35.5,12,54-7.6,13.1-21.3,20.4-35.4,20.4h0ZM85.3,27s0,0,0,0c0,0,0,0,0,0ZM85.3,26.9s0,0,0,0c0,0,0,0,0,0ZM85,26.4s0,0,0,0c0,0,0,0,0,0ZM85,26.4s0,0,0,0c0,0,0,0,0,0Z"/>
      </g>
      <g class="st5">
        <path class="st0" d="M53.1,92.1c-7.7,0-15.4-2.1-22.2-6.5-1.1-.6-2.1-1.2-3.1-1.9-18.8-12.5-23.9-37.9-11.3-56.7C28,9.8,50.3,4.1,68.3,12.9c4.5,2,7.9,4.5,10.1,6.3,17.7,14,20.8,39.6,6.8,57.4-8.1,10.2-20.1,15.6-32.2,15.6h0ZM73.2,15.7h0,0Z"/>
      </g>
      <g class="st5">
        <path class="st0" d="M53.6,91.6c-4,0-8-.6-12-1.8-1.1-.3-1.9-.6-2.5-.8-4.7-1.5-8.8-3.6-12.5-6.4-.1,0-.2-.2-.3-.2-5.8-4.4-10.4-10.4-13.1-17.3-8.5-20.9,1.6-44.7,22.5-53.2,10.5-4.3,21.8-3.9,31.5.3,20.7,7.2,32.1,29.5,25.6,50.6-5.4,17.6-21.6,28.9-39.1,28.9h0ZM88.8,34.3s0,0,0,0c0,0,0,0,0,0ZM88.8,34.3h0s0,0,0,0ZM63.3,11s0,0,0,0c0,0,0,0,0,0Z"/>
      </g>
      <g class="st5">
        <path class="st0" d="M52.9,91.8c-5.8,0-11.6-1.2-17.2-3.8-1.2-.6-2.7-1.3-4.2-2.1-3.2-1.7-6.1-3.9-8.8-6.4-16.5-15.4-17.5-41.2-2.1-57.7,13.6-14.6,35.5-17,51.8-6.7,18.8,10.2,26.8,33.4,17.6,53.1-6.9,14.9-21.7,23.7-37.1,23.7h0ZM78.4,19.6s0,0,0,0c0,0,0,0,0,0Z"/>
      </g>
      <g class="st5">
        <path class="st0" d="M53.9,92.4c-6.8,0-13.5-1.7-19.6-5-4.1-1.9-11.5-6-17.3-14.5-12.7-18.7-7.8-44.1,10.9-56.7,13.1-8.9,29.4-9.1,42.4-2.1,3.2,1.5,7.5,3.9,11.6,7.8,16.5,15.5,17.2,41.3,1.8,57.7-8,8.5-18.9,12.9-29.8,12.9ZM26,81.3s0,0,0,0c0,0,0,0,0,0ZM25.9,81.3s0,0,0,0c0,0,0,0,0,0ZM25.9,81.3s0,0,0,0c0,0,0,0,0,0ZM84.7,26.9s0,0,0,0c0,0,0,0,0,0ZM84.6,26.9s0,0,0,0c0,0,0,0,0,0Z"/>
      </g>
      <g class="st5">
        <path class="st0" d="M50.8,89c-22.5,0-40.8-18.2-40.9-40.7-.1-22.6,18.1-40.9,40.7-41h.3c22.5,0,40.8,18.2,40.9,40.7.1,22.6-18.1,40.9-40.7,41h-.3Z"/>
      </g>
      <g class="st5">
        <path class="st0" d="M51,89.1c-9.8,0-19.7-3.5-27.6-10.7-1.1-1-1.7-1.6-2.4-2.3-.9-.9-1.8-1.9-2.6-2.9C4.2,55.7,6.8,29.9,24.3,15.7c16.5-13.4,40.2-11.9,54.8,2.9,16.1,15.3,17.1,40.7,2,57.2-8.1,8.8-19.1,13.3-30.2,13.3h0ZM81.9,21.6s0,0,0,0c0,0,0,0,0,0Z"/>
      </g>
      <g class="st5">
        <path class="st0" d="M51.5,90c-10.5,0-21-4-29-12.1-1.5-1.5-2-2-2.7-2.8-.4-.4-.8-.9-1.2-1.4C4.2,56.4,6.5,30.6,23.9,16.2c16.8-13.9,41.5-12.2,56.2,3.7.2.2.3.3.4.4,15.9,16,15.8,41.9-.2,57.8-8,7.9-18.4,11.8-28.8,11.8h0ZM81.5,21.5s0,0,0,0c0,0,0,0,0,0Z"/>
      </g>
      <g class="st5">
        <path class="st0" d="M51.7,89.9c-11.6,0-23.1-5-31-14.1-14.2-14.6-15.6-37.9-2.4-54.2C32.6,4.1,58.3,1.4,75.9,15.6c.6.5,1,.8,1.1.9,0,0,.1,0,.2.1,4.4,3.7,7.3,7.8,9.1,10.5,12.1,19,6.5,44.3-12.6,56.4-6.8,4.3-14.4,6.4-21.9,6.4h0ZM17.2,71s0,0,0,0c0,0,0,0,0,0Z"/>
      </g>
      <g class="st5">
        <path class="st0" d="M50.3,89.7c-13.8,0-26.8-7-34.3-18.6-3.1-4.8-9.1-16.4-5.5-31.4.2-.8.4-1.6.6-2.4,1-3.8,2.5-7.5,4.5-10.9,3.2-5.4,7.7-10.1,13-13.5,8.7-5.6,18.7-7.5,28.3-6.1.7,0,1.4.2,2.2.3,22.3,3.8,37.3,24.8,33.5,47.1,0,.5-.2.9-.3,1.4-1.5,8.9-6,17.4-13.3,23.9-7.7,6.8-17.2,10.1-26.7,10.2-.6,0-1.2,0-1.8,0h-.2,0Z"/>
      </g>
      <g class="st5">
        <path class="st0" d="M56.8,104.1c-1.7,0-3.5-.1-5.2-.3-.3,0-.5,0-.8-.1-8.3-1.2-15.8-4.9-21.9-10.4-2.8-2.2-5.3-4.7-7.4-7.4-.4-.5-.7-.9-1-1.3-3.7-4.8-6.3-10.4-7.6-16.4-3.6-17,3.9-34.4,18.7-43.4,8.5-5.2,18.4-7,27.9-5.5,3.3,0,6.6.3,9.9,1.1,4.1,1,10.9,2.6,18.1,8.4.3.2.6.5.9.7,4.3,3.4,8,7.7,10.6,12.7,6.4,11.8,6.3,25.4,1,36.8-.2.6-.5,1.1-.8,1.6-2.7,5.5-10.9,18.8-29.4,22.4-.6.1-1.3.2-2,.4-3.5.6-6.6.8-9.7.7-.5,0-.9,0-1.4,0h0Z"/>
      </g>
      <g class="st5">
        <path class="st0" d="M57.9,103.2c-2.6,0-5.1-.2-7-.4,0,0,0,0-.1,0-1.6-.2-7.3-1.1-12.7-3.5-.2,0-.4-.2-.6-.3-.4-.2-.7-.3-1.1-.5-1.1-.5-2.1-1-3.1-1.6-.1,0-.3-.2-.4-.2-5.2-3.1-10-7.4-13.6-12.3,0,0-.1-.2-.2-.2-4.2-5.9-7.2-13.4-8-20.6,0-.1,0-.3,0-.4-.5-4.3-.2-8.8-.1-9.3,0,0,0-.2,0-.3.3-4.3,1.3-8.2,2-10.6,0,0,0-.2,0-.3,1.5-4.8,3.8-9.6,6.9-13.8,0,0,0-.1.1-.2,2.3-3.1,7.2-8.9,14.9-13,.1,0,.3-.2.4-.2.6-.3,1.2-.6,1.8-.9,1.3-.7,2.7-1.3,4.1-1.9.1,0,.3,0,.4-.1,4.3-1.7,8.9-2.7,13.5-3,0,0,.1,0,.2,0,.9,0,3.6-.2,6.2,0,4.3-.2,8.1.1,11.9,1,.4,0,.8.2,1.2.3,9,2.4,16.8,7.8,22.3,15,4.5,5.1,7.8,11.3,9.5,17.9.2.8.5,1.7.6,2.6,0,.2,0,.3,0,.5,1.2,5.7,1.2,12,0,17.8,0,.1,0,.3,0,.4-1.5,7.3-4.7,13-6.4,15.7,0,.1-.1.2-.2.3-2.1,3.3-5,6.7-7.9,9.3,0,0-.1.1-.2.2-1.6,1.4-5.9,5.1-11.6,7.9,0,0,0,0-.1,0-4.1,1.9-8.8,3.4-13.2,4,0,0,0,0-.1,0-.1,0-.2,0-.3,0-3,.6-6.1.8-9,.8h0Z"/>
      </g>
      <g class="st5">
        <path class="st0" d="M55.5,103.4h-.2c-2.8,0-8.3-.3-14.3-2.2-.2,0-.3-.1-.5-.2-5.8-2-11.6-5.4-16.1-9.6-.1-.1-.2-.2-.3-.3-5.1-4.8-8.1-10-9.8-13.6,0-.1-.1-.3-.2-.4,0,0,0,0,0,0-2.4-5-4-10.5-4.4-16,0-.2,0-.4,0-.6-.3-5.1.3-10.5,1.7-15.3,0-.1,0-.2.1-.4,1.9-6.3,5.1-11.3,6.8-13.6,0,0,0,0,0-.1,2.2-3,5.1-6.2,8-8.7,0,0,.1-.1.2-.2.8-.7,1.9-1.6,3.3-2.5,2.2-1.6,4.2-2.7,5.4-3.4,0,0,.2-.1.3-.2,6.2-3.3,13.9-5.2,21.1-5.4h.1c2.7,0,9.9.1,17.4,2.7,0,0,.1,0,.2,0,4,1.4,8.3,3.6,11.7,6.1,0,0,.1,0,.2.1,2.4,1.7,7.1,5.4,10.9,10.9,0,0,0,.1.1.2,4.9,7,7.6,15.5,7.8,24.1,0,.2,0,.5,0,.7,0,5.5-1.1,11.4-3.2,16.5,0,.1,0,.2-.1.4-2.7,6.5-6.6,11.3-8.7,13.6,0,0-.2.2-.2.3-2.6,2.8-5.4,5-7.4,6.4-4.6,3.7-10.6,6.8-16,8.5-.1,0-.3,0-.4.1-4.2,1.3-9,2-13.4,2h-.1,0Z"/>
      </g>
      <g class="st5">
        <path class="st0" d="M54,102.3c-6.5,0-12.7-1.5-18.4-4.3-.6-.2-1.1-.5-1.7-.8-5.6-2.8-10.4-6.7-14.2-11.5-.3-.3-.5-.7-.8-1-8.5-11.6-10.2-26.4-5-39.4,2.9-9.4,9-17.6,17.5-23,.3-.2.5-.3.8-.5,3.8-2.3,8-4,12.7-5.2,19.5-6.6,41.2,2.4,50.1,21.5.2.5.4,1,.6,1.4,1.5,3.1,2.9,6.8,3.7,10.9,0,.3.1.6.1.8.7,4,2.2,17.9-6.3,30.8-.3.5-.6.9-1,1.4-5.6,7.8-12.9,12.2-19.1,14.7-1.3.6-2.7,1.2-4.1,1.6-.3.1-.6.2-.9.3-1.6.5-3.2.9-4.7,1.2-2.8.6-5.6,1-8.5,1-.3,0-.6,0-.9,0h0Z"/>
      </g>
      <g class="st5">
        <path class="st0" d="M51.9,102.4c-3.5,0-7.1-.5-10.7-1.4-21.8-5.9-34.7-28.3-28.9-50.1,1.3-5,3.6-9.7,6.9-14.6,0-.1.2-.2.2-.4,3.9-5.5,8.9-10,15-13.4,19.7-11,44.6-3.9,55.6,15.9,8.6,15.5,6.1,34.2-5,46.8-7.6,10.7-20,17.1-33.3,17.1ZM74.4,94.1s0,0,0,0c0,0,0,0,0,0ZM91.4,72.3h0s0,0,0,0ZM91.4,72.2s0,0,0,0c0,0,0,0,0,0ZM91.4,72.2s0,0,0,0c0,0,0,0,0,0Z"/>
      </g>
      <g class="st5">
        <path class="st0" d="M52,101.1c-7.3,0-14.6-1.9-21.3-6-19.3-11.7-25.4-36.9-13.6-56.2,1.9-3.1,4.1-5.9,6.7-8.6,0,0,0,0,.1-.1.5-.5,1.1-1.1,2.1-2h0c16.2-15.8,42.1-15.4,57.8.8,15.6,16,15.4,41.6-.4,57.3-7.9,9.6-19.6,14.8-31.5,14.8ZM86.9,81.5s0,0,0,0c0,0,0,0,0,0Z"/>
      </g>
      <g class="st5">
        <path class="st0" d="M56.1,98.4h-.4c-.2,0-.4,0-.6,0-5-.1-12.7-1.2-20.4-5.5-.5-.3-1.1-.6-1.6-1-4-2.5-7.6-5.6-10.6-9.3-5.2-6.4-8.5-14.1-9.4-22.2,0-.1,0-.3,0-.4-.5-5.4.1-10.3.9-13.7.2-2.1.6-4.4,1.3-6.9,0-.1,0-.2,0-.3,1.4-4.9,3.8-10,6.8-14.2,1.2-1.9,2.7-3.8,4.4-5.8.1-.1.2-.2.3-.4,4.2-4.5,9.7-8.4,15.4-10.9,0,0,.2,0,.2-.1,8-3.4,15.8-3.9,19.7-3.9h.2c3.4,0,10.2.5,17.1,3,.1,0,.2,0,.3.1,6.4,2.4,12.5,6.5,17.1,11.4.1.1.2.3.4.4,5.1,5.6,8.9,12.8,10.6,20.2,0,.2,0,.3.1.5,1,4.6,1.1,9,1,12.1,0,6.8-1.5,13.6-4.6,19.6-.1.3-.3.5-.4.7-4.7,8.7-11.9,14.4-15.8,17,0,0-.1,0-.2.1-1.7,1.1-5.4,3.3-10.2,5.1-4,1.6-8.2,2.6-12.3,3.1-3,.7-6.2,1-9.3,1h0Z"/>
      </g>
      <g class="st5">
        <path class="st0" d="M58.5,103.9c-2.6,0-5.1-.2-7.5-.6-.2,0-.3,0-.5,0-3.3-.6-9.8-2.2-16.3-6.2-.1,0-.2-.1-.3-.2-4.9-3.1-9.2-7.4-12.6-12.2-1.8-2.3-3.3-4.8-4.6-7.5-.1-.2-.2-.4-.3-.6-3.8-8.3-4.1-16.3-4-20.4,0-.1,0-.3,0-.4.3-5.4,1.6-11.4,3.7-16.3,0,0,0-.2.1-.3.9-2,2-4.1,3.2-6,1.9-3.4,4.6-7.5,8.6-11.3.2-.1.3-.3.5-.4,4.7-4.4,10.6-7.7,16.8-9.7,2.8-1,5.8-1.8,8.6-2.3,0,0,.1,0,.2,0,6.9-1.1,15.1-.6,21.8,1.5,0,0,.2,0,.2,0,6.1,1.9,12.1,5.3,16.9,9.5.1.1.3.2.4.4,5.6,5.1,9.9,11.9,12.2,19.1,0,0,0,0,0,0,2.4,6.2,3.5,13.2,2.9,19.9,0,.1,0,.3,0,.4-.6,6.5-2.9,13.2-6.3,18.8,0,.1-.2.3-.3.4-2.6,4.2-5.7,7.4-7.9,9.5-1.7,1.8-3.2,3-3.9,3.6,0,0,0,0-.1.1-1.8,1.5-8.4,6.5-16.9,9.2,0,0-.2,0-.2,0-4.4,1.3-9.3,2-14.2,2h0Z"/>
      </g>
      <g class="st5">
        <path class="st0" d="M58.7,101.6c-.3,0-.5,0-.7,0,0,0-.1,0-.2,0-.1,0-.2,0-.3,0-3.8,0-7.6-.6-11.1-1.5-.2,0-.4,0-.5-.1-5.2-1.5-10.2-3.9-14.6-7.2-3.4-2.4-6.6-5.2-9.2-8.3-.1-.1-.2-.3-.3-.4-4.9-6-8.2-13.5-9.4-21.2,0-.1,0-.2,0-.4-.8-5.3-.6-11.2.6-16.4,0-.1,0-.2,0-.3,1.1-4.9,3.1-9.8,5.9-14.1,4.2-7.5,10.7-13.8,18.3-17.6.2,0,.4-.2.6-.3,6.1-3,12.9-4.6,19.8-4.6h.2c1.3,0,3.7,0,5.8.3,2.9.3,5.6.9,7.9,1.5,2,.5,4,1.1,5.9,1.8,5.4,2,10.4,4.9,14.5,8.7.1.1.3.2.4.3,2.7,2.5,5.1,5.4,7.1,8.5,1.1,1.6,2,3.2,2.9,4.9,0,.1.1.3.2.4,3.1,6.4,4.6,13.8,4.3,21,0,.2,0,.4,0,.6-.4,6.5-2.3,13.3-5.4,19.1,0,.1-.2.3-.2.4-4.2,7.4-10.2,12.6-12.6,14.5,0,0,0,0,0,0-2.5,2-9.2,6.7-17.9,9,0,0-.2,0-.3,0-4.7,1.2-8.9,1.4-11.4,1.4h0Z"/>
      </g>
      <g class="st5">
        <path class="st0" d="M57.3,101.5c-3.3,0-6.5-.3-9.5-.9-.1,0-.2,0-.3,0-7.2-1.5-14.2-4.9-19.8-9.5-.2-.1-.3-.3-.5-.4-6.6-5.8-11.5-13.7-13.7-22.2,0-.2,0-.3-.1-.5-.3-1.2-.5-2.3-.7-3.4-.4-2.1-.7-4.2-.8-6.3,0-.1,0-.3,0-.4-.1-2.8,0-8.3,1.6-14.3,0-.1,0-.2.1-.4.2-.7.4-1.4.6-2,.3-1.1.7-2.1,1-3.1,0-.2.1-.4.2-.6,2.6-6.6,7-12.8,12.3-17.5,0,0,.2-.2.3-.2,3.9-3.3,8.9-6.3,13.7-8.2.1,0,.2,0,.4-.1,6-2.2,13.1-3.3,19.5-3,0,0,.1,0,.2,0,2.9.2,8.8.8,15,3.3.1,0,.3.1.4.2,4.1,1.7,8.1,4.2,11.6,7.1,1.9,1.4,3.7,3,5.3,4.6.1.1.2.2.3.3,3,3.1,8.4,9.8,10.9,19.3,0,.1,0,.3.1.4,2.3,8.9,1.1,16.7.3,20.5,0,.2,0,.3-.1.5-1.5,6.4-4.7,12.7-8.9,18,0,0-.1.2-.2.2-4.7,5.7-10.6,9.6-12.3,10.7,0,0,0,0,0,0-1.9,1.2-8.8,5.2-17.2,6.9,0,0-.1,0-.2,0-3,.6-6.3.9-9.6.9h0Z"/>
      </g>
      <g class="st5">
        <path class="st0" d="M58.3,101.2c-3.6,0-7.2-.4-10.6-1.2-.2,0-.3,0-.5-.1-7.3-1.8-14.3-5.6-19.9-10.7-.1-.1-.3-.3-.4-.4-4.9-4.6-9-10.9-11.3-17.1,0-.2-.1-.3-.2-.5-.7-2-1.2-3.9-1.6-5.7-.2-.9-.4-1.9-.5-2.8,0-.2,0-.4,0-.6-.7-5.2-.5-11.2.6-16.4,0-.1,0-.3,0-.4,0-.4.2-.7.3-1.1.2-.6.3-1.3.5-1.9,0,0,0-.2,0-.2,1.2-4,3.1-8.4,5.3-12,0-.1.2-.2.2-.4,2.2-3.4,7-9.9,14.9-14.7.2-.1.3-.2.5-.3.9-.5,1.8-1,2.6-1.4.7-.4,1.4-.7,2.1-1,.2,0,.3-.1.4-.2,7.7-3.3,15-3.7,18.7-3.7.1,0,.2,0,.4,0,1.7,0,4.3.2,7.4.7.9.1,1.9.3,2.9.5.6.1,1.2.2,1.7.4.1,0,.2,0,.4,0,3.1.7,8.4,2.4,13.8,5.9,4.4,2.7,8.3,6.3,11.5,10.4,1.4,1.6,2.8,3.5,4,5.5,0,.1.2.3.3.4,5.1,8.6,7.1,19.2,5.5,29.1,0,.2,0,.4-.1.7-1.4,7.6-4.8,14.6-9.9,20.5,0,.1-.2.2-.3.3-4.3,4.9-9.4,8.5-11.4,9.8,0,0,0,0,0,0-7.1,5.4-15.5,8.1-24,8.3-1.1,0-2.2.1-3.4.1h0Z"/>
      </g>
      <g class="st5">
        <path class="st0" d="M53.7,80.4c-.5,0-.9,0-1.2,0,0,0,0,0,0,0-1.3-.1-2.9-.5-4.9-1,0,0,0,0-.1,0-1.5-.5-2.9-1-3.6-1.3,0,0,0,0,0,0-1.3-.6-2.4-1.2-3.2-1.9-1.3-1.2-2.2-2.1-3.4-3.4,0,0,0,0,0,0-.7-.8-1.2-1.6-1.8-2.6,0,0,0,0,0,0,0-.2-.2-.3-.3-.5,0-.1-.2-.3-.2-.4-.4-.6-.6-1-.8-1.4,0,0,0,0,0,0-.3-.5-.6-1.6-.9-2.3-.4-1-.7-1.9-.9-2.6,0,0,0,0,0,0-.5-2.2-.5-3.1-.5-3.4h0c0-.4,0-1.8.2-2.9,0-.3,0-.5,0-.8,0-1.8,0-2.6,0-2.9,0-2.4,1.6-4.5,3.7-5.4,1.3-.9,3-1.3,4.7-.9,2.8.6,4.8,3.1,4.7,6,0,.6-.1,1.1-.3,2.1-.1.6-.3,1.9-.4,2.9,0,.1,0,.2,0,.4v.3c0,0,0,.2,0,.3.1.4.2.7.2,1.1,0,.1,0,.4,0,.7,0,.4.2.8.3,1.2.3.5.8,1.3,1,1.6.6.8,1,1.8,1.2,2.8.4.4.8.8,1.2,1.2,0,0,0,0,.2,0,.6.2,1.5.6,2.5.9,1.4.4,2.3.6,2.6.6.8,0,3.9-.1,5.3-.2,1.4,0,2-.1,2.4-.1h.2c3.3,0,6,2.7,6,5.9,0,3.3-2.6,6-5.9,6h-.2,0c-.2,0-1.1,0-1.8,0-2.7.1-4.5.2-5.6.2h0Z"/>
      </g>
      <g class="st5">
        <path class="st0" d="M55.3,81.2h-.4c-1.9,0-3.5-.2-5.1-.6,0,0,0,0,0,0-.4,0-.7-.2-1.1-.3-1.6-.4-2.7-.6-3.8-1.1-.3-.2-.5-.3-1.1-.6-.3-.2-.6-.4-.8-.5,0,0,0,0,0,0-1.8-1.1-4.2-3.4-4.2-3.4-.6-.6-2.7-3.2-3.1-3.9,0,0,0,0,0-.1-.4-.8-1.8-4.3-1.9-4.3-.1-.3-1-3-1.3-4.6-.1-1-.2-2.2-.1-4,0-.4,0-.8.1-1.2.6-3.2,3.8-5.3,7-4.7,2.4.5,4.9,2.6,4.8,6.2,0,1.2,0,1.6,0,1.8.1.5.5,1.7.6,2.2.2.4.7,1.7,1,2.5.4.5,1.1,1.4,1.4,1.7.5.5,1.4,1.3,1.8,1.5.3.2.6.4.9.5,0,0,0,0,0,0,.4,0,.9.2,1.3.3.4,0,.8.2,1.2.3.8.2,1.5.3,2.5.3,1.2,0,3.3,0,3.9,0,.3,0,2.1-.2,2.9-.3h.7c0,0,.2-.1.3-.1,3.3-.3,6.2,2,6.6,5.3.3,3.3-2,6.2-5.3,6.5h-.1s0,0,0,0h-.7c-2,.3-2.9.4-3.3.4-1.1,0-3.4.1-4.7.1h0ZM37.1,63.5h0,0ZM37,63.5h0,0ZM37,63.5h0,0ZM37,63.5h0,0ZM32.3,57.8c0,2.8,2,5.1,4.8,5.7-2.8-.6-4.7-3-4.8-5.7Z"/>
      </g>
      <g class="st5">
        <path class="st0" d="M39.1,66.6c-.1,0-.3,0-.4,0-.8,0-2.9-.4-4.4-2.4-.9-.9-1.6-2.1-1.8-3.4h0c-.1-.6-.2-1.1-.3-1.7h0c-.1-.9-.2-3.8-.2-5h0c0-1.9.2-3.7.5-5.2h0c.2-1,1.1-3.5,1.9-5.2,0,0,0,0,0,0l.3-.5c.6-1.1,1-1.9,1.7-2.9,0,0,0,0,0,0,1-1.5,1.9-2.6,2.8-3.6,0,0,0,0,0,0,1.3-1.4,2.5-2.5,3.8-3.3.6-.3,1.6-1,2.9-1.3.4-.1.9-.2,3.4-.8h.4c0-.1,0-.1.1-.1h0c3.2-.7,6.4,1.3,7.1,4.6.7,3.2-1.4,6.4-4.6,7.1,0,0-.1,0-.2,0h-.4c-.6.2-1.9.5-2.5.6-.2.2-.6.5-1.3,1.2-.7.7-1.2,1.4-1.7,2.1-.4.6-.6,1-1.2,2.1l-.2.5c-.2.3-.4.8-.5,1.4.1.5.2,1,.2,1.6h0c0,.6,0,1.4-.2,2.4.9,1.5,1.1,3.4.5,5.1,0,.3,0,.6,0,.9,0,1.7-.6,3.3-1.9,4.4-1.1,1.1-2.6,1.6-4.1,1.6h0Z"/>
      </g>
      <g class="st5">
        <path class="st0" d="M56.9,95.5c-1.5,0-3.1-.1-4.7-.3-4-.3-8-1.4-11.9-3.3,0,0-.1,0-.2-.1-3.2-1.6-7.3-4.6-9.4-6.6,0,0,0,0-.1-.1-1.4-1.3-3.5-3.4-5.2-5.7,0,0-.1-.1-.2-.2-1.2-1.8-2.3-3.8-3.3-5.8-1.1-1.9-2-3.9-2.6-5.9,0,0,0-.1,0-.2,0-.1-.8-2.6-1.3-5,0,0,0-.1,0-.2-.4-2.3-.5-4.7-.5-6.7,0-1.4,0-2.7,0-3.9,0-.3,0-.6,0-.7,0,0,0-.1,0-.2.3-4.3,1.4-7.9,2.1-9.6,0,0,0-.2,0-.2.5-1.4,1.4-3.4,2.3-5.2,0,0,0-.1,0-.2,2.3-4.3,5.5-7.5,7.1-8.9.1-.1.3-.2.4-.3.3-.3.6-.5,1-.8.2-.2.4-.3.5-.5,0,0,0,0,.1,0,.4-.3.7-.6,1.1-.9.7-.6,1.5-1.2,2.4-1.8,11.8-8.1,27.9-5.9,37.1,5.1,4.8,5.8,7,13,6.4,20,2.8,3.5,4.8,7.8,5.7,12.6.2.9.3,1.8.3,2.6.4,2,.6,4,.5,6.1-.3,13.8-10.7,25.3-24.4,27-1.2.1-2.4.2-3.7.2h0Z"/>
      </g>
      <g class="st5">
        <path class="st0" d="M51.2,88.7c-.4,0-.8,0-1.2,0-.1,0-.3,0-.4,0-2.2-.1-4.3-.5-6.3-1.1-7.7-.7-14.6-4.7-19.2-10.5-3.5-3.5-6.1-8-7.3-13.1-1.4-5.7-.8-11.9-.6-13,0-.7.8-6.8,3-11.9,0,0,0-.2.1-.2.5-1.1,1-2.1,1.6-3.1.5-1.1,1-2,1.4-2.8,0,0,0,0,0,0,3.2-5.5,7.8-9.3,9.1-10.4,0,0,0,0,.1,0,.2-.2.5-.4.8-.6,1.2-.9,2.6-2,4.2-2.9,0,0,0,0,.1,0,2.1-1.2,4.2-2,5.7-2.6.1,0,.2,0,.4-.1,4.1-1.4,8.3-1.9,12.7-1.6,12.8,1.1,23.3,10.9,25.2,23.6.7,4.4.2,8.8-1.1,12.8.5,1.3.8,2.6,1.1,3.9,3.1,15-6.6,29.8-21.6,32.9-2.4.5-4.9,1-7.8,1h0Z"/>
      </g>
      <g class="st5">
        <path class="st0" d="M46.8,91.9c-10,0-19.3-5.4-24.2-14.1-.3-.4-.6-.9-.9-1.5-1.6-2.7-2.8-5.2-3.7-7.7,0,0,0-.1,0-.2-1.4-4.5-1.5-8.6-1.5-12.3,0,0,0-.2,0-.3,0-2.4.4-4.4.8-6.2.3-1.4.7-2.8,1.3-4.3,2.6-6.9,7.7-12.2,13.9-15.2,2.9-1.7,6.2-2.9,10-3.4,9.9-1.3,19.8,2.7,25.8,10.6.7.9,1.3,1.9,1.9,2.8,1.2,2.1,2.8,5.4,3.5,9.6,4.2,8,4.5,17.8,0,26.3-2.3,4.2-5.4,7.5-9.1,9.9-2.7,2-5.7,3.5-8.8,4.4-1.4.5-2.8.8-4.2,1.1-1.6.3-3.2.4-4.8.4h0Z"/>
      </g>
      <path class="st7" d="M24.1,78.3c6.7,0,12.2-5.1,12.2-11.3s-5.5-11.3-12.2-11.3-12.2,5.1-12.2,11.3,5.5,11.3,12.2,11.3Z"/>
      <path class="st7" d="M88,80c6.7,0,12.2-5.1,12.2-11.3s-5.5-11.3-12.2-11.3-12.2,5.1-12.2,11.3,5.5,11.3,12.2,11.3Z"/>
      <path class="st1" d="M49.4,43.1c0,9.7-8.2,17.6-18.3,17.6s-18.3-7.9-18.3-17.6,8.2-17.6,18.3-17.6,18.3,7.9,18.3,17.6Z"/>
      <path class="st2" d="M49.4,43.1c0,9.7-8.2,17.6-18.3,17.6s-18.3-7.9-18.3-17.6,8.2-17.6,18.3-17.6,18.3,7.9,18.3,17.6Z"/>
      <path class="st6" d="M43.1,42.3c0,6.6-5.4,12-12,12s-12-5.4-12-12,5.4-12,12-12,12,5.4,12,12Z"/>
      <path class="st2" d="M43.1,42.3c0,6.6-5.4,12-12,12s-12-5.4-12-12,5.4-12,12-12,12,5.4,12,12Z"/>
      <path class="st1" d="M98.9,43.1c0,9.7-8.2,17.6-18.3,17.6s-18.3-7.9-18.3-17.6,8.2-17.6,18.3-17.6,18.3,7.9,18.3,17.6Z"/>
      <path class="st2" d="M98.9,43.1c0,9.7-8.2,17.6-18.3,17.6s-18.3-7.9-18.3-17.6,8.2-17.6,18.3-17.6,18.3,7.9,18.3,17.6Z"/>
      <path class="st6" d="M92.5,42.3c0,6.6-5.4,12-12,12s-12-5.4-12-12,5.4-12,12-12,12,5.4,12,12Z"/>
      <path class="st2" d="M92.5,42.3c0,6.6-5.4,12-12,12s-12-5.4-12-12,5.4-12,12-12,12,5.4,12,12Z"/>
      <path class="st4" d="M41.5,67.1h28.7"/>
    </g>
  </g>
</svg>