<svg width="110" height="105" viewBox="0 0 110 105" fill="none" xmlns="http://www.w3.org/2000/svg">
<g opacity="0.55">
<path d="M63.2197 95.3572C61.5844 95.3572 59.8376 95.267 58.0882 95.0999C57.9501 95.0999 57.8174 95.0999 57.6899 95.1025C54.4831 95.1344 53.0204 95.0654 51.5789 94.9407C51.4727 94.9301 51.3691 94.9222 51.263 94.9116C44.5785 94.2696 38.0718 92.0229 32.4466 88.4182C32.2634 88.3015 32.0802 88.1821 31.897 88.0601C26.6009 84.5375 19.0139 77.1741 15.0637 68.007C14.9575 67.7603 14.854 67.5136 14.7531 67.2643C12.3559 61.373 11.2834 54.617 11.7268 48.243C11.7507 47.9141 11.7772 47.5851 11.8091 47.2589C12.7276 37.6461 16.9751 29.9299 18.759 27.0546C18.8599 26.8901 18.9634 26.7257 19.0696 26.5639C22.518 21.1898 30.3069 11.6009 43.6998 7.76273C43.8006 7.73355 43.9042 7.70437 44.0077 7.6752C48.2021 6.51074 52.3487 6.12877 53.5194 6.04124C53.6097 6.03328 53.6973 6.02798 53.7876 6.02267C58.1147 5.72559 63.0869 6.11816 67.8415 7.06511C70.3979 7.25344 73.1482 7.58501 75.702 8.15C75.7869 8.16857 75.8745 8.18713 75.9595 8.20835C79.7796 9.08104 89.5222 11.967 97.4943 19.8954C97.6642 20.0652 97.8341 20.2349 98.0013 20.41C104.89 27.5214 108.96 36.8689 109.459 46.731C109.475 47.044 109.488 47.3597 109.496 47.6727C109.716 56.0255 107.12 65.312 102.554 72.5163C102.49 72.6171 102.427 72.7152 102.363 72.816C100.361 75.9115 97.627 79.2908 95.0466 81.8558C94.9882 81.9142 94.9298 81.9725 94.8714 82.0282C94.5953 82.2988 94.2157 82.6622 93.7405 83.0919C92.4079 84.4208 90.9903 85.6542 89.4984 86.7816C89.3231 86.9142 89.1453 87.0468 88.9648 87.1768C79.2964 94.2166 68.5051 95.2325 64.3134 95.3439C64.1727 95.3466 64.032 95.3519 63.8913 95.3519C63.6709 95.3545 63.4453 95.3572 63.2197 95.3572Z" fill="#5267EE"/>
</g>
<g opacity="0.55">
<path d="M60.3394 97.2883C59.4049 97.2883 58.6138 97.2617 57.9926 97.2273C57.8493 97.2193 57.7059 97.2113 57.5652 97.2007C51.4488 96.7949 44.7909 94.9726 39.2612 92.2379C33.9545 90.3917 29.0752 87.4421 24.91 83.4951C21.4801 80.5959 18.3609 77.1741 15.8097 73.5057C15.7274 73.3863 15.6451 73.267 15.5628 73.1476C10.142 65.1608 7.33065 55.1794 7.84831 45.7682C7.85893 45.5693 7.87221 45.373 7.88548 45.174C8.05007 42.8212 8.55446 38.8398 9.4252 35.365C9.45705 35.2377 9.49156 35.1077 9.52342 34.9804C10.203 32.3889 12.9612 23.3517 19.9404 15.8636C20.0333 15.7628 20.1289 15.662 20.2218 15.5639C25.7993 9.70708 32.6855 6.33306 35.388 5.15268C35.5606 5.07841 35.7331 5.00414 35.9057 4.92987C41.8787 2.42323 47.727 1.68318 53.2593 1.47363C53.7611 1.4418 54.2655 1.41527 54.7645 1.40201C54.9318 1.3967 55.1017 1.39405 55.2716 1.3914C56.0335 1.37814 56.8644 1.38609 57.7272 1.40997C63.6099 1.4975 70.5466 1.98822 77.6851 4.73093C77.7833 4.76807 77.8842 4.80786 77.9824 4.84499C81.3724 6.17921 87.9003 9.21105 93.5309 14.532C93.6424 14.6381 93.7539 14.7442 93.8654 14.8503C96.3714 17.2747 98.6226 20.0838 100.507 23.105C100.592 23.227 100.677 23.349 100.762 23.4737C100.842 23.5904 100.922 23.7098 101.001 23.8291C105.501 30.5639 108.19 38.7417 108.575 46.8531C108.58 46.9937 108.588 47.1343 108.594 47.2748C108.668 49.3173 108.74 56.5348 106.549 63.6463C106.504 63.7948 106.457 63.9433 106.409 64.0892C104.282 70.7099 100.043 77.6649 95.0706 82.6914C94.9697 82.7922 94.8689 82.893 94.768 82.9938C90.9665 86.7524 85.8429 90.3837 81.0592 92.7047C80.8919 92.7869 80.722 92.8665 80.5521 92.9461C72.6624 96.6384 64.8417 97.2856 60.3394 97.2856V97.2883ZM26.163 84.519C26.378 84.6914 26.5612 84.832 26.7072 84.9434C26.6753 84.9195 26.6408 84.893 26.609 84.8691C26.4603 84.7551 26.3116 84.6384 26.163 84.5217V84.519ZM21.9845 80.4208C22.1969 80.6675 22.4039 80.9036 22.6057 81.1264C22.5154 81.0256 22.4252 80.9222 22.3349 80.8214C22.2181 80.6888 22.1013 80.5561 21.9872 80.4208H21.9845ZM21.958 80.3917C21.958 80.3917 21.9686 80.4049 21.9765 80.4129C21.9712 80.4049 21.9659 80.3996 21.958 80.3917ZM21.9022 80.3254C21.9022 80.3254 21.9049 80.3307 21.9075 80.3307C21.9075 80.3307 21.9049 80.328 21.9022 80.3254ZM21.865 80.2803C21.865 80.2803 21.8783 80.2962 21.8863 80.3068L21.865 80.2803Z" fill="#5267EE"/>
</g>
<g opacity="0.55">
<path d="M58.1809 101.829C55.1971 101.829 51.6265 101.543 48.7435 101.065C48.0692 101.034 47.4321 100.991 46.8773 100.941C46.7844 100.933 46.6888 100.922 46.5959 100.914C39.6831 100.23 33.9065 98.0202 30.2775 96.2881C30.2351 96.2669 30.1926 96.2483 30.1501 96.2271C25.523 93.9964 21.1932 91.0388 17.628 87.6727C17.543 87.5905 17.4554 87.5109 17.3705 87.4287C15.8095 85.9274 13.3725 83.3889 10.2426 78.6992C10.1657 78.5825 10.0887 78.4658 10.0117 78.3491C5.57306 71.5347 3.09093 63.3146 2.83342 54.5771C2.83342 54.5161 2.83077 54.4551 2.82811 54.3941C2.77502 52.288 2.84404 50.0095 3.01129 47.8026C2.83077 43.9829 3.17322 40.1474 4.06254 36.4365C4.17404 35.9749 4.29084 35.5161 4.41827 35.0598C6.43848 27.8025 10.6568 21.5585 12.377 19.211C12.4221 19.15 12.4673 19.089 12.5124 19.0253C16.1706 14.0916 24.2434 5.34886 37.2249 2.20031C37.3894 2.16052 37.5514 2.12338 37.716 2.08359C46.5109 0.0703259 58.0827 1.24805 58.1995 1.26131C58.2606 1.26662 58.3216 1.27457 58.3827 1.27988C60.5144 1.5133 62.5957 1.88996 64.5734 2.35415C65.8184 2.51065 67.0078 2.69102 68.067 2.88731C68.0882 2.88996 68.1094 2.89527 68.1333 2.90057C69.1899 3.09951 72.6967 3.80509 76.9389 5.17114C78.8025 5.69899 81.3059 6.53719 84.0933 7.93773C85.3277 8.51067 86.5489 9.13932 87.7249 9.82633C87.778 9.85816 87.8311 9.88733 87.8842 9.91916C91.2477 11.9059 99.6258 17.5637 104.81 27.1579C104.914 27.3516 105.018 27.5452 105.118 27.7415C108.941 35.1129 109.907 42.593 109.894 48.3198C110.03 51.2588 109.899 53.7575 109.748 55.4684C109.735 55.6196 109.719 55.7734 109.706 55.9246C109.1 61.9008 107.314 67.8239 104.54 73.0546C104.495 73.1369 104.452 73.2191 104.407 73.3013C103.361 75.2403 100.457 80.235 96.1243 84.7284C96.0898 84.7656 96.0526 84.8027 96.0181 84.8398C90.8813 90.1237 82.6598 95.6728 76.0284 98.3306C75.9434 98.3651 75.8585 98.3995 75.7735 98.4314C70.7747 100.394 64.661 101.66 59.4207 101.816C59.2959 101.819 59.1685 101.824 59.0437 101.827C58.7623 101.832 58.4756 101.835 58.1836 101.835L58.1809 101.829Z" fill="#5267EE"/>
</g>
<g opacity="0.55">
<path d="M55.2289 102.633C51.2814 102.633 47.3445 102.026 43.5456 100.816C42.067 100.58 40.6042 100.28 39.2025 99.8983C39.0884 99.8665 38.9742 99.8347 38.8627 99.8028C38.4699 99.6914 37.9814 99.5455 37.4106 99.3625C34.0525 98.5429 29.9908 97.1901 25.9902 94.9699C25.7964 94.8612 25.6026 94.7524 25.4115 94.641C19.6588 91.3174 14.5087 86.4421 10.9116 80.9062C10.7709 80.6914 10.6328 80.4739 10.4975 80.2564C6.62162 74.0256 4.38107 66.5401 4.18727 59.182C4.17931 58.8823 4.174 58.5826 4.174 58.2828C4.16604 55.9539 4.42354 49.4658 7.11008 42.1289C7.2083 41.7867 7.30918 41.4446 7.41537 41.1024C7.73393 39.2562 8.12682 37.7469 8.54095 36.1634C8.58077 36.0148 8.61794 35.8689 8.65245 35.7416C11.2832 24.6832 18.565 15.1368 28.6688 9.51343C28.9369 9.36489 29.2077 9.219 29.4784 9.07576C35.8152 5.74418 47.233 2.63277 57.3261 3.67787C57.5145 3.69643 57.7057 3.71765 57.8942 3.74153C65.3406 4.62217 72.6861 7.5479 78.5768 11.975C78.6432 12.0254 78.7095 12.0758 78.7759 12.1262C79.9652 13.0307 80.8094 13.7787 81.4253 14.3251L81.5554 14.4392C83.0526 15.7283 84.4304 17.1076 85.6807 18.5585C89.6044 22.3384 92.7581 26.9114 94.9084 32.0705C95.0332 32.3703 95.1553 32.67 95.2721 32.9724C96.4402 35.9857 97.1198 38.8504 97.502 41.4499C97.9958 42.5852 98.4418 43.7549 98.832 44.9592C99.2064 46.052 99.8966 48.0706 100.422 50.8186C100.457 50.9937 100.489 51.1687 100.518 51.3411C102.233 61.0441 100.305 70.9168 95.2004 79.3545C90.6158 88.6251 82.373 95.893 71.9428 99.1689C71.2499 99.3864 70.5544 99.5853 69.8296 99.771C65.1149 101.683 60.1639 102.633 55.2262 102.633H55.2289ZM98.9117 45.1899C98.9595 45.3358 99.0046 45.4844 99.0497 45.6329C99.0126 45.5109 98.9674 45.3597 98.9117 45.1899ZM8.45335 36.6276C8.45335 36.6276 8.4507 36.6461 8.44804 36.6541C8.44804 36.6435 8.4507 36.6355 8.45335 36.6276ZM81.2527 14.1792C81.3218 14.2376 81.3908 14.2959 81.4571 14.3516C81.3801 14.2853 81.3111 14.227 81.2527 14.1792Z" fill="#5267EE"/>
</g>
<g opacity="0.55">
<path d="M53.5644 101.36C51.5867 101.36 42.0405 101.209 34.0153 98.4262C33.9304 98.397 33.8455 98.3678 33.7605 98.336C31.7509 97.6224 26.5557 95.6065 21.7374 92.2643C21.5702 92.1476 21.4029 92.0309 21.2384 91.9116C15.8759 88.068 11.0895 82.7311 7.75522 76.8876C7.6623 76.7258 7.57204 76.5614 7.48179 76.3996C6.71193 75.0017 6.05357 73.6118 5.48812 72.2351C1.29106 64.991 -0.540668 56.4393 0.571644 47.8557C0.624738 45.739 0.805256 43.8 1.06011 42.1501C1.08665 41.9804 1.1132 41.8106 1.1424 41.6408C2.84936 31.5347 8.40562 21.9936 16.3803 15.4604C16.4705 15.3861 16.5608 15.3145 16.6511 15.2402C19.2712 13.1341 22.1463 11.3224 25.9743 9.36753C26.9247 8.88211 27.883 8.41527 28.7458 8.02004C33.872 5.66194 38.7194 4.58236 43.1156 4.29589C43.6173 4.20571 44.0501 4.13409 44.4005 4.08104C44.4642 4.07043 44.5252 4.06247 44.589 4.05186C45.1836 3.96433 45.7676 3.8874 46.3437 3.82109C48.6214 3.46035 50.9602 3.29854 53.3468 3.35424L55.3139 3.39934C70.9818 3.75743 84.2977 13.3596 90.1035 26.906C105.177 41.8345 105.445 66.1131 90.6875 81.3704C86.6551 88.4341 80.3794 94.2856 72.3782 97.7392C65.6512 100.644 58.6057 101.309 53.8803 101.355C53.8618 101.355 53.8458 101.355 53.8273 101.355C53.7662 101.355 53.6759 101.355 53.5618 101.355L53.5644 101.36Z" fill="#5267EE"/>
</g>
<g opacity="0.55">
<path d="M56.6703 104.214C54.9155 104.214 52.7891 104.142 51.5043 104.095C51.1963 104.081 50.8857 104.068 50.5778 104.047C45.4091 103.723 40.9439 102.901 36.9274 101.535C36.8584 101.511 36.792 101.49 36.723 101.466C36.1443 101.264 30.9331 99.4341 26.6379 96.9381C26.5582 96.893 26.4812 96.8452 26.4016 96.8001C21.9895 94.1954 17.1845 90.1449 13.8556 86.2245C13.8051 86.1635 13.752 86.1025 13.7016 86.0415C13.4627 85.7577 13.2264 85.4659 12.9901 85.1715C11.7371 83.7736 10.5345 82.3014 9.41161 80.7895C9.37179 80.7364 9.33463 80.6834 9.29481 80.6303C4.86414 74.5958 2.09531 68.5905 0.831677 62.2669C0.791857 62.0626 0.752037 61.861 0.714871 61.6568C-0.681492 54.0334 0.396309 45.7469 0.406928 45.6647C0.43082 45.4843 0.457367 45.304 0.483914 45.1236C1.20333 40.2509 2.75101 35.5427 5.34995 30.3066C5.47206 30.0599 5.59683 29.8158 5.72426 29.5718C8.06304 25.0997 11.2009 21.211 11.8061 20.4763C11.8725 20.3941 11.9415 20.3145 12.0079 20.2323C15.7537 15.7654 19.9215 12.6301 23.3381 10.5452C25.5654 8.89271 27.9254 7.43382 30.3995 6.18448C30.4314 6.16856 30.4633 6.15265 30.4925 6.13673C33.6542 4.55052 40.1608 1.80781 48.2443 1.26138C48.3027 1.25608 48.3638 1.25343 48.4222 1.25077C48.531 1.24282 59.6409 0.661913 68.0456 2.76006C68.1491 2.78659 68.2553 2.81311 68.3589 2.83964C74.1248 4.33036 80.9022 7.30915 86.0497 10.6115C86.0868 10.6354 86.124 10.6593 86.1638 10.6832C88.715 12.333 97.4701 18.4073 103.024 27.2986C103.098 27.418 103.17 27.5347 103.244 27.654C106.852 33.5692 109.188 40.6779 109.825 47.6674C109.828 47.7045 109.83 47.739 109.836 47.7761C110.162 51.487 109.958 56.0387 109.61 58.9061C109.597 59.0228 109.581 59.1422 109.565 59.2589C109.14 62.5109 107.906 68.9433 104.417 75.4738C104.37 75.5667 104.319 75.6568 104.269 75.747C101.667 80.5242 98.2533 84.4234 96.0791 86.6595C95.0676 87.7391 93.9261 88.8744 92.6917 89.9699C92.6333 90.0229 92.5722 90.0733 92.5138 90.1264C87.4832 94.5322 80.1191 98.8797 73.7558 101.201C73.6709 101.233 73.5886 101.262 73.5036 101.291C68.7226 102.996 63.2141 104.028 57.9923 104.193C57.5941 104.206 57.1428 104.211 56.665 104.211L56.6703 104.214ZM55.5288 26.7018C55.5155 26.7018 55.5022 26.7018 55.4863 26.7018C55.4996 26.7018 55.5155 26.7018 55.5288 26.7018Z" fill="#5267EE"/>
</g>
<g opacity="0.55">
<path d="M57.0525 100.126C55.9349 100.126 54.7881 100.097 53.6041 100.039C53.4316 100.031 53.2617 100.02 53.0891 100.01C51.6848 99.9222 50.2645 99.7631 48.8443 99.535C46.6223 99.2007 44.4295 98.7127 42.3191 98.0787C41.8784 97.9912 41.4324 97.8957 40.9837 97.7949C39.9989 97.6251 39.0564 97.4315 38.1724 97.214C38.0609 97.1875 37.9494 97.1583 37.8353 97.1291C35.9637 96.6517 29.3828 94.7816 23.2611 90.8055C23.1655 90.7418 23.0673 90.6782 22.9717 90.6145C18.2623 87.4951 13.8131 83.2087 10.439 78.5455C10.3567 78.4314 10.2717 78.3147 10.1894 78.198C5.32339 71.3121 2.6926 63.1078 2.36873 53.8133C2.36076 53.6144 2.35545 53.4181 2.3528 53.2192C2.34484 52.7762 2.17494 42.2642 4.8774 33.5692C4.89068 33.5242 4.9066 33.4764 4.91988 33.4287C6.44632 28.5851 9.05587 23.5851 10.2213 21.6196C10.2983 21.4923 10.3753 21.3623 10.4522 21.235C14.5537 14.4949 20.6276 8.73627 27.559 5.01212C27.7767 4.89541 27.9944 4.78135 28.2147 4.66729C35.3213 1.02537 41.9129 0.301233 47.424 0.0704634C50.0097 -0.0382902 54.0766 -0.0727731 58.7728 0.356937C58.9374 0.372852 59.1046 0.388767 59.2692 0.404682C66.8005 1.19514 73.4983 3.37817 79.1714 6.89011C79.3253 6.9856 79.4767 7.0811 79.6306 7.17659C82.7154 9.14742 89.5193 14.0891 94.8021 22.2164C97.5312 25.3835 99.8487 28.5719 101.765 32.7284C101.885 32.991 102.004 33.2536 102.118 33.5162C106.241 43.0149 106.623 53.5189 103.244 63.3253C102.193 66.6728 100.061 73.0123 94.7597 79.1556C94.6322 79.3041 94.5022 79.4527 94.3721 79.5986C93.9075 80.1211 93.4191 80.6357 92.912 81.1423C92.5828 81.6384 92.243 82.1344 91.89 82.6304C87.4938 88.7869 82.272 93.2273 75.9273 96.2087C75.715 96.3095 75.4999 96.4076 75.2849 96.5031C69.7605 98.9753 64.0317 100.126 57.0579 100.126H57.0525ZM102.169 66.1158C102.169 66.1158 102.164 66.1264 102.161 66.1317C102.161 66.1264 102.166 66.1211 102.169 66.1158Z" fill="#5267EE"/>
</g>
<g opacity="0.55">
<path d="M53.5592 102.975C51.6106 102.975 49.6727 102.84 47.9153 102.652C47.8861 102.649 47.8543 102.646 47.8251 102.644C47.7613 102.636 47.6976 102.63 47.6313 102.622C47.1322 102.569 46.6384 102.506 46.1526 102.437C43.0811 102.023 40.8778 101.514 40.7132 101.477C40.6176 101.455 40.5247 101.431 40.4291 101.41C34.7083 100.028 28.2945 97.1025 23.694 93.7763C23.5506 93.6728 23.4099 93.5694 23.2692 93.4659C9.35338 83.1131 3.62723 64.4552 9.34542 48.0944C9.53655 47.5507 9.73831 47.0122 9.95068 46.4764C12.6877 39.6382 17.2882 33.7867 23.1445 29.5294C23.6489 28.9883 24.1718 28.4578 24.7081 27.9405C24.9576 27.6991 25.2125 27.4631 25.4673 27.2296C28.1671 24.7681 30.9014 22.914 34.1747 20.8874C44.0926 14.7468 55.7068 13.6142 66.0468 16.7919C67.6316 16.7362 69.2271 16.7734 70.8252 16.906C76.2036 17.3569 81.3431 18.8556 86.1029 21.3675C97.8977 27.5877 105.647 39.1952 106.836 52.4127C106.894 53.052 106.934 53.6939 106.961 54.3385C107.481 67.4154 101.479 79.7073 90.0531 88.954C90.0106 88.9885 89.9655 89.0256 89.9204 89.0601C89.4213 89.4606 88.7284 89.9964 87.8736 90.6171C87.5683 90.8824 87.2577 91.145 86.9418 91.4049C86.8223 91.5031 86.7002 91.6012 86.5808 91.6967C82.0439 95.3227 77.0531 97.7232 75.1205 98.5853C75.0143 98.633 74.9055 98.6808 74.7966 98.7285C70.8704 100.439 64.6478 102.548 57.2996 102.888C57.1908 102.893 57.0793 102.898 56.9704 102.901C56.5669 102.917 56.0625 102.927 55.4865 102.933C55.3405 102.941 55.1918 102.946 55.0458 102.951C54.5494 102.97 54.0503 102.978 53.5539 102.978L53.5592 102.975Z" fill="#5267EE"/>
</g>
<g opacity="0.55">
<path d="M56.9145 97.5429C54.4669 97.5429 52.0352 97.3095 49.6513 96.8559C47.7081 96.6012 45.733 96.2352 43.8402 95.7312C43.7128 95.6967 43.5854 95.6622 43.4606 95.6278C36.6567 93.7365 29.5527 89.7365 24.4557 84.9275C24.3363 84.8161 24.2195 84.702 24.1027 84.5879C23.3965 83.9036 22.6904 83.1688 21.9975 82.3996C21.5011 81.9407 21.0604 81.5163 20.6755 81.1317C20.5268 80.9831 20.3781 80.832 20.2321 80.6808C13.0353 73.2537 8.83293 63.1926 8.39756 52.3465C8.38959 52.121 8.38163 51.8955 8.37632 51.6701C8.27544 47.182 8.84089 35.6037 16.2899 25.0015C16.4067 24.8344 16.5262 24.67 16.6457 24.5029C19.7676 20.2058 23.6832 16.479 28.9554 12.7946C30.8615 11.1527 32.5499 10.0041 33.6808 9.25348C37.3071 6.44445 41.4324 4.27203 45.8896 2.87945C53.2882 0.189787 61.4726 -0.229313 69.4526 1.87414C70.2623 2.08634 71.1038 2.33303 72.025 2.62481C74.4142 3.38078 79.3838 4.95638 84.7463 9.00679C85.102 9.2747 85.4524 9.55056 85.8002 9.83173C87.8469 11.4922 89.684 13.3225 91.3086 15.2933C91.452 15.463 91.5927 15.6328 91.7307 15.8052C92.4103 16.5479 93.1244 17.3782 93.8518 18.2933C100.656 25.601 103.268 33.8636 104.224 38.1846C104.282 38.4446 104.335 38.7045 104.388 38.9645C105.615 45.1104 105.615 55.4685 103.244 63.3677C103.196 63.5269 103.146 63.686 103.098 63.8452C100.427 72.3386 95.1261 78.755 93.5651 80.519C93.5094 80.5826 93.451 80.6463 93.3952 80.7099C90.2069 84.2643 85.4152 88.1795 81.1863 90.6888C81.112 90.7338 81.0377 90.7763 80.9633 90.8214C76.4371 93.466 71.3056 95.3917 66.0944 96.4394C63.0575 97.1821 59.9781 97.5455 56.9252 97.5455L56.9145 97.5429Z" fill="#5267EE"/>
</g>
<path d="M23.6699 72.2999C30.813 72.2999 36.6036 66.8786 36.6036 60.1911C36.6036 53.5036 30.813 48.0823 23.6699 48.0823C16.5269 48.0823 10.7363 53.5036 10.7363 60.1911C10.7363 66.8786 16.5269 72.2999 23.6699 72.2999Z" fill="#3553E5" fill-opacity="0.7"/>
<path d="M86.3394 73.4327C93.4824 73.4327 99.273 68.0114 99.273 61.3239C99.273 54.6364 93.4824 49.2151 86.3394 49.2151C79.1963 49.2151 73.4058 54.6364 73.4058 61.3239C73.4058 68.0114 79.1963 73.4327 86.3394 73.4327Z" fill="#3553E5" fill-opacity="0.7"/>
<path d="M48.9886 39.874C48.9886 49.5137 40.7857 57.3282 30.6669 57.3282C20.5481 57.3282 12.3452 49.5137 12.3452 39.874C12.3452 30.2344 20.5481 22.4199 30.6669 22.4199C40.7857 22.4199 48.9886 30.2344 48.9886 39.874Z" fill="white"/>
<path d="M48.9886 39.874C48.9886 49.5137 40.7857 57.3282 30.6669 57.3282C20.5481 57.3282 12.3452 49.5137 12.3452 39.874C12.3452 30.2344 20.5481 22.4199 30.6669 22.4199C40.7857 22.4199 48.9886 30.2344 48.9886 39.874Z" stroke="black"/>
<path d="M42.11 40.0021C42.11 46.1064 37.0437 51.0549 30.794 51.0549C24.5444 51.0549 19.478 46.1064 19.478 40.0021C19.478 33.8977 24.5444 28.9492 30.794 28.9492C37.0437 28.9492 42.11 33.8977 42.11 40.0021Z" fill="#2E2C2C"/>
<path d="M42.11 40.0021C42.11 46.1064 37.0437 51.0549 30.794 51.0549C24.5444 51.0549 19.478 46.1064 19.478 40.0021C19.478 33.8977 24.5444 28.9492 30.794 28.9492C37.0437 28.9492 42.11 33.8977 42.11 40.0021Z" stroke="black"/>
<path d="M96.2552 39.9407C96.2552 49.4358 88.3231 57.1331 78.5385 57.1331C68.7538 57.1331 60.8218 49.4358 60.8218 39.9407C60.8218 30.4456 68.7538 22.7483 78.5385 22.7483C88.3231 22.7483 96.2552 30.4456 96.2552 39.9407Z" fill="white"/>
<path d="M96.2552 39.9407C96.2552 49.4358 88.3231 57.1331 78.5385 57.1331C68.7538 57.1331 60.8218 49.4358 60.8218 39.9407C60.8218 30.4456 68.7538 22.7483 78.5385 22.7483C88.3231 22.7483 96.2552 30.4456 96.2552 39.9407Z" stroke="black"/>
<path d="M89.6333 40.0218C89.6333 46.0938 84.7123 51.0162 78.6419 51.0162C72.5714 51.0162 67.6504 46.0938 67.6504 40.0218C67.6504 33.9497 72.5714 29.0273 78.6419 29.0273C84.7123 29.0273 89.6333 33.9497 89.6333 40.0218Z" fill="#2E2C2C"/>
<path d="M89.6333 40.0218C89.6333 46.0938 84.7123 51.0162 78.6419 51.0162C72.5714 51.0162 67.6504 46.0938 67.6504 40.0218C67.6504 33.9497 72.5714 29.0273 78.6419 29.0273C84.7123 29.0273 89.6333 33.9497 89.6333 40.0218Z" stroke="black"/>
<g clip-path="url(#clip0_295_1253)">
<path d="M22.7132 74.1194C24.222 68.9535 26.5418 64.0702 29.0136 59.3022C30.6354 63.5249 32.2651 67.7794 33.0137 72.2489C33.384 74.4577 33.4386 76.9969 31.9493 78.6406C30.729 79.9858 28.8186 80.348 27.0447 80.6385C26.2805 80.7619 25.4696 80.8813 24.7522 80.5788C24.0895 80.2963 23.645 79.6714 23.2395 79.0665C22.3233 77.7014 21.9023 75.8587 22.5768 74.3543" fill="#36A9E1"/>
<path d="M24.5929 74.6442C24.9672 73.3707 25.3882 72.109 25.8522 70.8633C26.0783 70.2544 26.3122 69.6495 26.5578 69.0485C26.5656 69.0286 26.7957 68.4714 26.6436 68.8376C26.7021 68.6943 26.7645 68.551 26.823 68.4117C26.9555 68.0973 27.092 67.7869 27.2284 67.4764C28.2967 65.0407 29.4819 62.6607 30.7022 60.3046C29.5131 60.1454 28.3279 59.9862 27.1388 59.831C28.0199 62.1195 28.8971 64.4119 29.6417 66.7521C30.0043 67.8903 30.3318 69.0366 30.6086 70.1947C30.7412 70.7439 30.862 71.2971 30.9712 71.8503C31.0297 72.1608 31.0882 72.4672 31.1389 72.7777C31.1545 72.8772 31.17 72.9767 31.1856 73.0722C31.2636 73.5299 31.1545 72.718 31.1973 73.1438C31.248 73.6254 31.287 74.1069 31.287 74.5965C31.287 74.8233 31.2831 75.0542 31.2675 75.281C31.2675 75.3089 31.2402 75.8024 31.2597 75.4641C31.2753 75.1537 31.2285 75.6472 31.2129 75.7148C31.17 75.9297 31.1194 76.1447 31.0531 76.3556C31.0453 76.3795 30.9049 76.8372 31.0024 76.5267C31.0999 76.2163 30.94 76.6501 30.9244 76.6819C30.8815 76.7655 30.8348 76.8531 30.7841 76.9327C30.7724 76.9526 30.5346 77.3625 30.6944 77.0919C30.8543 76.8212 30.5969 77.2033 30.5696 77.2312C30.4683 77.3426 30.3552 77.4421 30.2499 77.5456C30.1447 77.6491 30.1018 77.7844 30.3006 77.5138C30.2383 77.5973 30.0823 77.665 29.9965 77.7207C29.9458 77.7525 29.478 78.0749 29.4117 78.0351L29.6067 77.9555C29.5365 77.9834 29.4663 78.0112 29.4 78.0391C29.2831 78.0829 29.1661 78.1267 29.0452 78.1625C28.8035 78.2421 28.5618 78.3097 28.3162 78.3694C27.8717 78.4809 27.4234 78.5644 26.975 78.644C26.7177 78.6878 26.4604 78.7356 26.1992 78.7714C26.6007 78.7157 26.3005 78.7595 26.2148 78.7595C26.051 78.7634 25.8795 78.7634 25.7157 78.7794L25.552 78.7714C25.7976 78.8152 25.8093 78.8112 25.5871 78.7634C25.2128 78.5764 25.86 78.9107 25.4701 78.7157C25.2089 78.5883 25.4662 78.7555 25.5013 78.7515C25.4506 78.7555 25.2128 78.449 25.1816 78.4172C24.8463 78.055 25.3181 78.6401 25.1504 78.3853C25.0646 78.254 24.9711 78.1306 24.8853 77.9953C24.7293 77.7525 24.5968 77.5058 24.4681 77.2471C24.2966 76.9048 24.4525 77.2471 24.4798 77.2869C24.4018 77.1715 24.3707 76.9765 24.3317 76.8411C24.2888 76.6899 24.2615 76.5347 24.2225 76.3835C24.1172 75.9815 24.2147 76.7456 24.2108 76.2959C24.2108 76.2442 24.1874 75.5278 24.2225 75.5278C24.2342 75.5278 24.1406 75.9496 24.242 75.5278C24.2693 75.4203 24.4603 74.895 24.2654 75.3527C24.4837 74.8432 24.6124 74.3776 24.4603 73.8204C24.3356 73.3587 23.9847 72.8573 23.5636 72.6304C22.7215 72.1767 21.3296 72.324 20.8969 73.3428C20.2731 74.8114 20.1288 76.3357 20.5733 77.8918C20.9437 79.1813 21.6805 80.5146 22.6318 81.4539C23.934 82.7433 25.5325 82.8548 27.2362 82.6001C28.3396 82.4329 29.4624 82.2498 30.5073 81.8439C31.8835 81.3066 33.0414 80.5265 33.9148 79.2967C34.7023 78.1864 35.022 76.8451 35.1468 75.4999C35.2676 74.2383 35.1039 72.9568 34.8972 71.711C34.6711 70.3459 34.3592 69.0007 33.9888 67.6675C33.1506 64.6348 32.0239 61.6936 30.8971 58.7604C30.6047 58.0003 30.1096 57.4471 29.2753 57.3356C28.5345 57.2361 27.6963 57.5824 27.3337 58.2868C24.7878 63.21 22.4018 68.2525 20.8345 73.5896C20.5421 74.5845 21.1854 75.8024 22.1952 76.0372C23.2049 76.272 24.281 75.7148 24.5929 74.6482V74.6442Z" fill="#36A9E1"/>
</g>
<g clip-path="url(#clip1_295_1253)">
<path d="M66.2356 63.0725C61.3819 58.2318 54.3041 57.2892 48.2281 59.4846C46.4468 60.1278 44.7295 61.0266 43.1365 62.0985C42.3937 62.5978 42.1218 63.809 42.6397 64.6063C43.1576 65.4037 44.1571 65.6978 44.952 65.1637C45.584 64.7381 46.2339 64.3408 46.9021 63.9827C46.9906 63.9355 47.0824 63.8882 47.1708 63.8409C47.1479 63.8528 46.941 63.9521 47.115 63.8687C47.2726 63.7932 47.4334 63.7139 47.591 63.6384C47.9555 63.4673 48.324 63.3105 48.6995 63.1607C49.3979 62.8851 50.1112 62.6489 50.8331 62.456C51.1708 62.366 51.5091 62.2905 51.851 62.2184C52.1928 62.1464 51.914 62.205 51.851 62.2184C51.9473 62.2 52.0471 62.185 52.1436 62.1702C52.3398 62.1404 52.5361 62.1107 52.7327 62.0882C53.4687 61.9965 54.2068 61.9557 54.9469 61.9658C55.2651 61.9711 55.5836 61.9836 55.9027 62.0107C55.9901 62.0181 56.0871 62.0178 56.1749 62.036C56.1176 62.0275 55.8149 61.9924 56.138 62.0339C56.3198 62.0593 56.5014 62.081 56.68 62.1102C57.3572 62.2173 58.0296 62.3719 58.6904 62.5707C58.9988 62.6636 59.3043 62.7676 59.6068 62.8791C59.6918 62.912 59.7802 62.9448 59.8652 62.9777C59.8073 62.9546 59.5483 62.8414 59.8414 62.9678C60.0117 63.0409 60.1789 63.1178 60.346 63.1946C61.0559 63.5296 61.7415 63.9237 62.3926 64.3774C62.5443 64.484 62.696 64.5943 62.8478 64.7045C62.5579 64.4908 62.9588 64.7982 63.0487 64.8709C63.3744 65.1414 63.6842 65.4308 63.9878 65.7349C64.6267 66.3819 65.7583 66.3869 66.3404 65.6396C66.9224 64.8923 66.9264 63.761 66.2356 63.0725Z" fill="#2E2C2C"/>
<path d="M66.2356 63.0725C61.3819 58.2318 54.3041 57.2892 48.2281 59.4846C46.4468 60.1278 44.7295 61.0266 43.1365 62.0985C42.3937 62.5978 42.1218 63.809 42.6397 64.6063C43.1576 65.4037 44.1571 65.6978 44.952 65.1637C45.584 64.7381 46.2339 64.3408 46.9021 63.9827C46.9906 63.9355 47.0824 63.8882 47.1708 63.8409C47.1479 63.8528 46.941 63.9521 47.115 63.8687C47.2726 63.7932 47.4334 63.7139 47.591 63.6384C47.9555 63.4673 48.324 63.3105 48.6995 63.1607C49.3979 62.8851 50.1112 62.6489 50.8331 62.456C51.1708 62.366 51.5091 62.2905 51.851 62.2184C52.1928 62.1464 51.914 62.205 51.851 62.2184C51.9473 62.2 52.0471 62.185 52.1436 62.1702C52.3398 62.1404 52.5361 62.1107 52.7327 62.0882C53.4687 61.9965 54.2068 61.9557 54.9469 61.9658C55.2651 61.9711 55.5836 61.9836 55.9027 62.0107C55.9901 62.0181 56.0871 62.0178 56.1749 62.036C56.1176 62.0275 55.8149 61.9924 56.138 62.0339C56.3198 62.0593 56.5014 62.081 56.68 62.1102C57.3572 62.2173 58.0296 62.3719 58.6904 62.5707C58.9988 62.6636 59.3043 62.7676 59.6068 62.8791C59.6918 62.912 59.7802 62.9448 59.8652 62.9777C59.8073 62.9546 59.5483 62.8414 59.8414 62.9678C60.0117 63.0409 60.1789 63.1178 60.346 63.1946C61.0559 63.5296 61.7415 63.9237 62.3926 64.3774C62.5443 64.484 62.696 64.5943 62.8478 64.7045C62.5579 64.4908 62.9588 64.7982 63.0487 64.8709C63.3744 65.1414 63.6842 65.4308 63.9878 65.7349C64.6267 66.3819 65.7583 66.3869 66.3404 65.6396C66.9224 64.8923 66.9264 63.761 66.2356 63.0725Z" fill="black" fill-opacity="0.2"/>
</g>
<defs>
<clipPath id="clip0_295_1253">
<rect width="14.8698" height="25.3878" fill="white" transform="translate(20.3115 57.3281)"/>
</clipPath>
<clipPath id="clip1_295_1253">
<rect width="24.3478" height="8.28555" fill="white" transform="matrix(-0.999181 0.0404638 -0.0407929 -0.999168 66.8403 66.1426)"/>
</clipPath>
</defs>
</svg>
