<?xml version="1.0" encoding="UTF-8"?>
<svg id="Capa_1" xmlns="http://www.w3.org/2000/svg" version="1.1" xmlns:xlink="http://www.w3.org/1999/xlink" viewBox="0 0 131 125">
  <!-- Generator: Adobe Illustrator 29.2.1, SVG Export Plug-In . SVG Version: 2.1.0 Build 116)  -->
  <defs>
    <style>
      .st0 {
        fill: #ffdb27;
        fill-opacity: .8;
      }

      .st1 {
        opacity: .6;
      }

      .st2 {
        fill: #fff;
      }

      .st3 {
        fill: #ffea4b;
      }

      .st4 {
        fill: none;
      }

      .st5 {
        fill: #2e2c2c;
      }

      .st6 {
        clip-path: url(#clippath);
      }

      .st7 {
        fill-opacity: .2;
      }
    </style>
    <clipPath id="clippath">
      <rect class="st4" width="131" height="125"/>
    </clipPath>
  </defs>
  <g class="st6">
    <g>
      <g class="st1">
        <path class="st3" d="M75.4,102.8c-14.8,0-29.4-6.9-38.8-19.8l-4.9-6.8c-15.4-21.3-10.6-51.1,10.8-66.5C63.9-5.6,93.8-.8,109.2,20.6l4.9,6.8c15.4,21.3,10.6,51.1-10.8,66.5-8.4,6.1-18.2,9-27.9,9h0Z"/>
      </g>
      <g class="st1">
        <path class="st3" d="M77.1,113.3h-2.8c-26.3-1.5-46.4-24-45-50.2l.2-4.3c1.5-26.3,24-46.3,50.4-44.8,26.3,1.5,46.4,24,45,50.2l-.2,4.3c-1.4,25.3-22.5,44.9-47.6,44.9h0Z"/>
      </g>
      <g class="st1">
        <path class="st3" d="M64.7,101.2h-2.3c-5.2,0-10.4-.9-15.4-2.7-2.1-.6-4.2-1.4-6.3-2.4-.4-.2-.8-.4-1.1-.5-17.8-7.3-28.9-25.1-27.4-44.3.5-6.9,2.7-13.4,6.1-19.1.8-2,1.8-3.9,2.8-5.7,0-.1.1-.3.2-.4,2.6-4.5,8.5-13,18.8-18.8h0c1.8-1,3.4-1.7,5.4-2.6C54.8.7,65,.1,74.2,2.6c4.9.9,9.8,2.5,14.7,4.9.3.2.7.3,1,.5.2,0,.4.2.7.3,2.8.9,6.7,2.4,10.8,5.1.3.2.5.3.8.5,10,6.8,16.9,17.5,18.9,29.5,2,12.1-1.1,24.7-8.6,34.5-.3.4-.6.7-.9,1.1-4.4,5.5-10.2,9.9-10.5,10.1,0,0-.2,0-.2.2-5.2,3.9-10.6,6.3-12.7,7.2h0c-6.8,2.8-14.4,4.5-21.4,4.7h-2.2,0Z"/>
      </g>
      <g class="st1">
        <path class="st3" d="M64.9,101.4c-2.4,0-4.7-.2-7-.5-.3,0-.6,0-.9-.2-5.9-1-17.2-4.1-26.5-13.3-.2-.2-.4-.4-.7-.7-3.2-3.3-8.9-10.2-11.7-20.1,0,0,0-.3-.1-.4-3.1-11.2-1.2-22.9,1.5-30,0-.2.2-.5.3-.7,5.9-14.8,18.1-22.4,21.7-24.4.2-.1.4-.2.6-.3,10.1-5.4,20.4-5.9,25.7-5.7h.3c.8,0,1.6,0,2.3,0,1.1,0,2.2.2,3.3.3,1.6.2,3.1.4,4.5.7h.4c4.7,1,16.8,4.3,26.1,14.2.2.2.4.4.6.7,7.1,7.9,11.3,18.4,11.7,29v1.3c0,8.2-2.2,16.6-6.3,23.8,0,.3-.3.5-.5.8-6.7,11-17.2,17-22.1,19.4-1.1.7-2.3,1.3-3.5,1.8-.3,0-.6.3-1,.4-5.8,2.5-12.3,3.8-18.7,3.8h0Z"/>
      </g>
      <g class="st1">
        <path class="st3" d="M76.4,110.2c-6.3,0-17.1-.2-18.4-.3h0c-6.2-.3-15.2-1.4-22.9-5-.2,0-.4-.2-.6-.3-4.9-2.4-14.1-8-20.3-18.7-.2-.3-.4-.7-.6-1-6.2-11.5-7.4-26.1-3.1-38.3.1-.3.2-.7.4-1,2.4-6.2,6-11.6,12.3-18.5.2-.2.5-.7.9-1.1.2-.4.6-.9.8-1.3,4.6-8.7,12-15.7,21.1-19.8C53.1,1.4,61.2.1,69.2.9c.5,0,1,.1,1.5.2,8.6,1.1,16.3,4.6,23.5,10.5.2.1.5.3.9.5.3.2.7.4,1,.6,3.8,2.4,7.6,5.3,10.6,8.3,11,8.2,17.6,21,17.8,34.7,0,.7.2,1.3.3,2,2,13-1.6,26.1-9.9,35.9-.3.4-.7.8-1.1,1.2-8.3,9.1-20,14.6-33.1,15.3h-4.3Z"/>
      </g>
      <g class="st1">
        <path class="st3" d="M74.7,116.4c-2.8,0-6.3,0-9.3-.5h-.4c-1,0-2.2-.2-3.7-.4-3.1-.3-6.9-.6-11.4-1.4h-.4c-1.4-.3-2.8-.5-4-.8-.4,0-1,0-1.6-.2h-.6c-6.2-1.1-12.8-3.7-18.1-7.2-.4-.3-.8-.5-1.1-.8-4.7-3.4-8.7-7.6-11.8-12.5-5.1-7.4-7.9-16.3-7.8-25.3-.3-5.6.3-12.3,2.8-19.1,0-.2.2-.4.2-.6,4.2-10.8,11.3-17.2,16.3-21,3.9-3,8.3-5.4,14.2-7.9.9-1,1.9-2,2.9-3C58.1-.4,84.8-.3,101.8,15.8c0,0,3.1,2.9,4.2,4.1h0c3.2,3.2,9.1,9.8,12.9,18.2,0,0,0,.3.2.4,1.4,3.1,2.4,6.4,3.2,9.8,1.1,4.2,1.6,8.1,1.8,11.2.3,1.7.5,3.4.6,5.3v.4c0,2.1,0,4.8,0,5v.4c0,15.1-7.4,29.1-19.7,37.5-.4.2-.7.5-1.1.7-3.3,2.1-12.3,7-24,7.6-.2,0-2.4,0-5.3,0h0Z"/>
      </g>
      <g class="st1">
        <path class="st3" d="M74.3,124.2c-7.3,0-14.7-1.7-21.2-5.1-.5-.3-1-.5-1.5-.8-5-2.8-12.1-7.9-17.3-16.3,0-.2-.2-.4-.4-.6-1.5-2.5-2.6-5-3.5-7.4-.8-1.4-1.5-2.9-2.2-4.4,0,0-.1-.3-.2-.4-.7-1.8-1.3-3.6-1.8-5.3-.2-.7-.4-1.4-.6-2.2,0-.3-.1-.6-.2-.9-.5-2.3-.9-4.7-1.1-7.1-1.5-8.3-.8-16.9,2-24.6v-.2c3.6-9.6,9.6-16,14-19.6,14-11.6,33.1-13.2,48.3-5.4,4.1,1.4,9.7,3.8,15,7.9,1.6,1.1,3.2,2.4,4.7,3.7.3.2.5.5.8.7,3.9,3.7,7.6,8.8,10.2,14,4.2,6.7,6.6,14.6,6.6,23.1,0,13.3-5.9,25.3-15.3,33.4-2.8,3.5-6.5,7.1-11.2,10.1-.2,0-.4.3-.7.4-7,4.3-15.3,6.8-23.4,7h-1.3.3Z"/>
      </g>
      <g class="st1">
        <path class="st3" d="M54,123c-11,0-21.7-3.9-30.1-11.1-.3-.2-.5-.4-.8-.7-5.5-4.9-9.5-11.1-12.1-17.1-1.1-1.6-2.1-3.2-3-4.9-.2-.3-.4-.7-.5-1.1-4.8-9.7-5.3-19.3-4.8-25.7v-.4c.5-6.8,2.7-16.5,9.4-25.4,2.9-4.5,6.9-9.1,12.4-12.9.3-.2.6-.4.9-.6,8.1-5.3,18-8,27.9-7.5h.9c3.3.2,9.9,1.1,16.7,4.1.2,0,.4.2.5.3,5.2,2.4,10.2,6,14.3,10.2,9.8,4.9,17.5,13.3,21.5,23.8.7,1.9,1.3,3.9,1.8,5.9.2.5.4,1,.5,1.5,2.6,7.9,2.9,16,1.2,23.5-2.8,15-13.2,27.2-26.9,32.7-6,3-12.7,4.6-19.7,4.6s-1.8,0-2.7,0-.9,0-1.3,0h0c-2.1.3-4.1.4-6.2.4h0l.2.3ZM61.1,122.4h-.6c.3,0,.5,0,.7,0h0Z"/>
      </g>
      <g class="st1">
        <path class="st3" d="M67.4,113.1c-4,0-8-.5-11.9-1.6-1.1,0-2.1.2-3.2.2h-.4c-5.9,0-12.2-.8-17.7-2.6-.2,0-.5-.2-.7-.2-6.6-2.3-13-6.3-18-11.2-.1,0-.3-.3-.4-.4-7.9-8-12.6-18.7-13.2-30v-1.3c0-4.1.4-8.4,1.3-12.5,1-5.4,2.8-10.5,5.4-15.1.1-.2.2-.4.4-.6,6.4-10.8,16.3-16.5,20.2-18.5.2,0,.3-.2.5-.3,2.4-1.2,4.9-2.1,7.5-2.9,1.7-1,3.5-2,5.2-2.8,0,0,.2,0,.3-.1,7.3-3.3,16.1-4.9,24.3-4.4h.9c.7,0,1.3.1,1.9.2,4.9.5,9.6,1.8,14,3.7h0c13,3.6,23.6,12.9,29.3,25.3,0,.3.3.6.4.9,2.1,5,3.3,10.1,3.9,16.9.5,6.5.3,11.5-.8,16.5v.3c-1.6,6.8-4.3,11.5-5.7,13.8-1,1.7-1.6,2.7-2.4,3.8-4.5,6.4-10.1,10.9-13.1,13h0c-8.1,6.5-17.9,9.8-27.8,9.8h-.1ZM99.4,99.4h0Z"/>
      </g>
      <g class="st1">
        <path class="st3" d="M72.2,120.1c-5.7,0-11.2-1.1-16.3-3.1-4.7.7-9.6.5-14.3-.3-2.7-.3-5.3-.8-7.9-1.6-11.6-3.4-21.7-11.7-27.7-22.6,0-.2-.2-.4-.3-.5-3.3-6.2-4.4-12-5.1-16.3-.2-1.7-.4-3.3-.5-4.8-.3-4.7,0-9,.9-12.8.4-2.8,1-5.8,2.1-8.9,0-.2,0-.4.2-.6,4.4-12.4,13.2-20,18-23.5,10.7-7.7,24.1-10.1,36.6-7,6.5,0,12.7,1.3,18.3,3.8,3.9-.9,8-1.2,12.1-1,6,.4,11.6,1.9,16.7,4.4,1.2.5,2.3,1.1,3.5,1.8,16.3,9.2,25,27.7,21.7,46.2h0c-.4,2.4-.7,4-1.1,5.5-1.5,7.1-4.5,12.5-7.2,16.5-.8,1.3-1.7,2.5-2.6,3.6l-.2.2c-.7.9-1.4,1.7-2.2,2.6-1.6,1.8-3.2,3.4-4.8,4.9-4.1,3.7-8.6,6.4-13.4,8.3-4.7,2.2-9.7,3.5-14.8,3.9-1.5.4-2.9.6-4.4.9h-.6c-2,.3-4.1.4-6.4.4,0,0-.3,0-.3,0Z"/>
      </g>
      <g class="st1">
        <path class="st3" d="M65.7,106.1c-5.3,0-10.6-1-15.8-2.9-8.9-.7-17.3-4-24.2-9.5-8.8-5.2-15.8-13.5-19.3-23.7C-.2,50.9,7.1,29.9,23.8,18.9c3.6-4,7-6.9,8.7-8.3l1-.8c5.2-4.1,11-6.9,17-8.4,1.5-.4,3.2-.7,4.9-1,4.6-.7,9.2-.6,13.6,0,2.6.2,5.1.7,7.6,1.4,12,3.3,22.1,11.4,27.8,22.5,3.4,6.7,5,14,4.8,21.2,1,3.3,1.6,6.8,1.8,10.3v1.5c.3,10.5-3.2,18.3-5.1,22.5-7.3,16.4-23.5,26.1-40.4,26.1l.2.2Z"/>
      </g>
      <g class="st1">
        <path class="st3" d="M68.1,125c-1.9,0-3.7,0-5.5,0-5.2.3-10.5-.3-15.6-1.8-.3,0-.5-.2-.7-.2-2.4-.7-4.1-1.5-5.1-1.9h-.2c-.8-.3-1.7-.7-2.5-1-3.1-1.1-6.2-2.5-9.1-4.3-3.4-2.2-6.6-4.6-9.6-7.6-.1,0-.2-.2-.3-.3-6.7-6.7-9.4-10.6-11.6-14.6-10.3-19-5.3-42.4,11.3-55.5.4-.6.8-1.2,1.2-1.9,2.1-3.9,4.3-6.8,5.4-8.2,0,0,.1-.2.2-.3,4.3-5.3,9.3-9,11.3-10.4,0,0,.2-.1.3-.2,3.6-2.5,8.1-4.8,12.3-6.4h.2c1.7-.6,7.6-2.7,14.3-3.4h.4c4-.4,8.7-.2,10.9,0h.3c6.3.6,15,2.5,23.3,7.9,5.5,3,15.8,9.9,21.6,22.4,0,0,0,.3.2.4,2.8,6.2,3.7,12.1,4,15.9v1.5c3.3,8.5,4,18,1.6,27.3-.9,3.5-2.2,6.7-3.7,9.5-.3.7-.6,1.4-1,2.2,0,0,0,.2-.2.4-5,10-12.9,16.2-16,18.4,0,0,0,0-.2,0-4.8,3.3-12,6.7-13.6,7.4h-.2c-1.6.7-3.3,1.3-5,1.8-3.1,1.1-6.7,2.1-11,2.6h-.3c-2,.2-3.6.3-5.1.3h-2.3ZM41.3,120.9h0ZM41.1,120.9h0ZM40.9,120.8h0Z"/>
      </g>
      <g class="st1">
        <path class="st3" d="M60,121.4c-5.1,0-10.8-.8-15.6-2.2h0c-1.1-.3-2.3-.7-3.5-1.2-3.1-.8-6.5-2-9.7-3.6,0,0-.1,0-.2,0-4.6-2.3-9.6-5.9-13.3-9.5-.2,0-.3-.3-.4-.4-6.4-6.4-10.8-14.6-12.7-23.7,0-.2,0-.4,0-.7-1.7-8.6-.4-18.3-.4-18.8v-.3c.4-2.7,1-5.5,1.9-8.1.2-1.4.5-2.6.7-3.5v-.2c1.6-6.5,4.7-14,8.3-19.6,0,0,.1-.2.2-.3,2.7-4.2,6.7-8.9,10.5-12.1l.2-.2c5.5-4.7,12.7-8.5,19.8-10.5.2,0,.3,0,.5,0,9.1-2.4,17.4-1.6,20.6-1.1h.5c7,1.1,12.9,3.7,16.2,5.4.3,0,.7.2,1,.2h0c2.8.7,10.1,2.9,17.1,7.7,0,0,0,0,.2.1,2.9,2,10.1,7.6,15.2,16.1,0,.2.3.4.4.7,4.6,8.1,6.9,18.1,6.2,27.4v.5c-.3,4.2-1.3,10.5-4.1,16.9,0,0,0,.3-.2.4-2,4.6-5.5,10.2-9.1,14.7-2,3.1-4.5,5.9-7.3,8.5,0,0-.4.4-.7.6l-.3.3c-2.5,2.2-4.7,4-6.7,5.5h0c-4.3,3-8.5,5-11.3,6.2h-.2c-2.7,1.1-12.4,4.8-22.8,4.9h-.8Z"/>
      </g>
      <g class="st1">
        <path class="st3" d="M80.8,117.5c-2.8,0-6.3,0-9.3-.5h-.4c-1,0-2.2-.2-3.7-.4-3.1-.3-6.9-.6-11.4-1.4h-.4c-1.4-.2-2.8-.5-4-.8-.4,0-1,0-1.6-.2h-.6c-6.2-1.1-12.8-3.7-18.1-7.2-.4-.3-.8-.5-1.1-.8-4.7-3.4-8.7-7.6-11.8-12.5-5.1-7.4-7.9-16.3-7.8-25.3-.3-5.6.3-12.3,2.8-19.1,0-.2.2-.4.2-.6,4.2-10.8,11.3-17.2,16.3-21,3.9-3,8.3-5.4,14.2-7.9.9-1,1.9-2,2.9-3,17.1-16,43.7-16,60.7.1,0,0,3.1,2.9,4.2,4.1h0c3.2,3.2,9.1,9.8,12.9,18.2,0,0,0,.3.2.4,1.4,3.1,2.4,6.4,3.2,9.8,1.1,4.2,1.6,8.1,1.8,11.2.3,1.7.5,3.4.6,5.3v.4c.1,2.1.1,4.8.1,5v.4c0,15.1-7.4,29.1-19.7,37.5-.4.2-.7.5-1.1.7-3.3,2.1-12.3,7-24,7.6-.2,0-2.4,0-5.3,0h.2Z"/>
      </g>
      <g class="st1">
        <path class="st3" d="M77.6,102.6c-14.8,0-29.4-6.9-38.8-19.8l-3.4-4.7c-15.4-21.3-10.6-51.1,10.8-66.5C67.6-3.7,97.5,1.1,112.9,22.4l3.4,4.7c15.4,21.3,10.6,51.1-10.8,66.5-8.4,6.1-18.2,9-27.9,9h0Z"/>
      </g>
      <g class="st1">
        <path class="st3" d="M78.7,109.9h-2.7c-26.3-1.5-46.4-24-45-50.2l.2-3c1.5-26.3,24-46.3,50.4-44.8,26.3,1.5,46.4,24,45,50.2l-.2,3c-1.4,25.3-22.5,44.9-47.6,44.9h-.1Z"/>
      </g>
      <g class="st1">
        <path class="st3" d="M70.1,100.4h-1.6c-4.8,0-9.7-.9-14.4-2.4-2-.6-4.1-1.4-6.3-2.3-.2,0-.4-.2-.7-.3-17.5-7.3-28.4-25-27-44.1.5-6.6,2.5-12.8,5.6-18.3.7-1.5,1.4-3,2.2-4.4,0-.1.1-.3.2-.4,3.1-5.3,8.7-12.8,18.1-18.1h0c1.9-1.1,3.6-1.8,4.9-2.4,9.3-4,19.2-4.6,28.4-2.3,4.4.8,8.9,2.3,13.2,4.5,0,0,.3.1.4.2,2.6.9,6,2.4,9.6,4.7.3.2.6.4.9.6,10,6.8,16.9,17.5,18.8,29.4,2,12-1.1,24.5-8.5,34.3-.3.4-.6.7-.9,1.1-3.9,4.8-8.7,8.6-9.6,9.3,0,0-.2,0-.3.2-4.6,3.5-9.3,5.7-11.7,6.6h0c-6.2,2.5-13.1,4.1-19.5,4.3h-2l.2-.2ZM114.5,40.1h0Z"/>
      </g>
      <g class="st1">
        <path class="st3" d="M70.2,100.5c-2.3,0-4.6-.2-6.9-.5-.3,0-.6,0-.9-.2-5.6-1-16.5-4-25.6-13-.2-.2-.4-.4-.7-.7-3.1-3.2-8.6-9.9-11.4-19.6,0-.2,0-.3-.1-.5-2.5-9.2-2-20.1,1.5-29.1,0-.2.2-.5.3-.7,3.9-9.7,11.8-18.6,21.1-23.7.2-.1.4-.2.6-.3,9.3-5,18.6-5.8,24.7-5.6h.3c.7,0,1.4,0,2,0,.8,0,1.6,0,2.5.2,2.4.2,3.9.5,4.6.7h.3c5.7,1.1,16.5,4.5,25.3,13.9.2.2.4.5.6.7,7.1,7.9,11.2,18,11.6,28.6v1.3c0,8.1-2.2,16.3-6.2,23.3,0,.3-.3.5-.5.8-6.2,10.3-15.5,15.9-20.7,18.4l-3,1.5c-.3,0-.6.3-1,.4-5.7,2.5-12.1,3.7-18.4,3.7v.3Z"/>
      </g>
      <g class="st1">
        <path class="st3" d="M78,106.6c-4.9,0-12.4-.2-13.2-.2h0c-8-.4-15.1-2-21-4.7-.2,0-.4-.2-.6-.3-4.8-2.3-13.8-7.8-19.9-18.3-.2-.3-.4-.7-.6-1-6.2-11.4-7.3-25.4-3-37.6.1-.3.2-.7.4-1,2.2-5.7,5.4-10.8,10.7-16.6,4.6-8.4,11.8-15.1,20.7-19.2,7.2-3.3,15.2-4.6,23.1-3.8.5,0,1,.1,1.4.2,8.1,1.1,15.6,4.3,22.3,9.5.2.1.5.3.7.4,2.4,1.5,5.8,3.8,9.1,7.1,10.3,8,16.4,20.1,16.9,33,2.1,13-1.3,26.1-9.7,36.2-.4.4-.7.8-1.1,1.3-8.1,9-19.6,14.3-32.3,15.1h-3.9ZM102.4,17.2h0Z"/>
      </g>
      <g class="st1">
        <path class="st3" d="M77.2,111c-2.4,0-5.4,0-8.1-.4h-.4c-.4,0-1.3,0-2.1-.2-2.2-.2-5.3-.5-8.9-1.1h-.4c-1-.2-1.9-.3-2.7-.5-.3,0-.6,0-.9,0h-.6c-6.2-1.1-12.5-3.6-17.7-7.1-.4-.3-.8-.5-1.2-.8-4.7-3.3-8.6-7.5-11.7-12.3-4.9-7.3-7.6-15.9-7.6-24.7-.2-5.3.4-11.6,2.8-18,0-.2.2-.4.2-.6,4.6-11.9,12.9-18.3,15.7-20.4,3-2.3,6.2-4.2,10.2-6,.2-.2.4-.4.6-.6,17.1-16,43.7-16,60.7.2.2.2,2.3,2.2,3.2,3.1h0c2.9,2.9,8.2,8.9,11.7,16.6,0,0,0,.3.2.4,1.2,2.8,2.2,5.8,2.9,8.9.9,3.5,1.4,6.8,1.6,9.6.2,1.5.4,2.9.5,4.4v.4c0,1.7,0,3.8,0,4v.4c0,15-7.3,28.8-19.6,37.1-.4.3-.8.5-1.1.7-3.2,2-11.9,6.8-23.2,7.3h-4.3v-.3Z"/>
      </g>
      <g class="st1">
        <path class="st3" d="M76.8,116.3c-7.2,0-14.4-1.7-20.8-5-.5-.2-1-.5-1.4-.8-4.9-2.7-11.9-7.8-17-16.2,0-.2-.2-.4-.4-.6-1.3-2.1-2.3-4.3-3.1-6.3-.6-1.2-1.2-2.3-1.7-3.6,0,0,0-.3-.2-.4-.7-1.8-1.3-3.5-1.8-5.2-.2-.6-.3-1.2-.5-1.8,0-.3-.1-.6-.2-.9-.5-2.1-.8-4.2-1-6.3,0-.3,0-.5-.1-.8-1.1-7.9-.4-15.5,2.3-22.6v-.3c3.5-9.4,9.4-15.6,13.8-19.2,13.7-11.4,32.3-13.1,47.4-5.9,3.9,1.4,8.6,3.6,13.3,7.1,1.5,1.1,3,2.2,4.3,3.5.3.2.5.5.8.8,3.7,3.5,7,8,9.5,12.8,4,6.6,6.3,14.4,6.3,22.7,0,12.9-5.6,24.5-14.4,32.6-2.7,3.1-6,6.2-10.2,8.9-.2,0-.4.3-.7.4-6.9,4.3-14.9,6.7-23,6.9h-1.3v.2ZM101.3,94.2h0Z"/>
      </g>
      <g class="st1">
        <path class="st3" d="M62.7,115.5c-10.8,0-21.4-3.8-29.7-10.9-.3-.2-.5-.4-.8-.7-4.9-4.4-8.6-9.9-11.2-15.2-.8-1.2-1.5-2.5-2.2-3.7-.2-.4-.4-.7-.5-1.1-4.7-9.5-5.2-18.7-4.7-24.8v-.4c.5-6.5,2.5-15.7,9-24.4,2.8-4.3,6.7-8.6,12-12.2.3-.2.6-.4.9-.6,8-5.2,17.7-7.9,27.4-7.4h.9c3.2.2,9.5,1,16.2,4,.2,0,.4.2.6.3,4.4,2.1,8.6,4.9,12.3,8.3,8.8,5,15.8,12.9,19.5,22.7.6,1.6,1.2,3.3,1.6,5,0,.2.2.4.2.7,2.6,7.7,2.9,15.6,1.4,23-2.8,14.9-13,27-26.5,32.6-5.8,2.8-12.4,4.4-19.1,4.4s-.9,0-1.4,0c-1.9.2-3.8.4-5.8.4h0Z"/>
      </g>
      <g class="st1">
        <path class="st3" d="M72.1,108.6c-3.2,0-6.3-.3-9.5-1h-1c-5.6,0-11.5-.8-16.8-2.5-.2,0-.5-.2-.7-.2-6.6-2.3-12.7-6.1-17.6-10.9-.1,0-.3-.3-.4-.4-7.8-7.9-12.4-18.4-13-29.5v-1.3c0-3.8.3-7.8,1.2-11.6,1-5.1,2.7-10,5.3-14.5l.3-.6c6-10.2,14.9-15.7,19.6-18.1.2,0,.3-.2.5-.3,1.8-.9,3.7-1.7,5.7-2.3,1.1-.6,2.3-1.2,3.4-1.8,0,0,.2-.1.3-.2,7.1-3.2,15.4-4.7,23.3-4.3h.9c.6,0,1.2.1,1.7.2,4.5.5,8.8,1.6,12.8,3.3,12.4,3.8,22.6,12.8,28,24.7,0,.3.3.6.4.9,3.9,9.1,5,21.7,2.9,31.4v.3c-1.3,5.8-3.9,11.6-7.7,17-4.1,5.9-9.2,10-12,12-8,6.3-17.7,9.5-27.4,9.5h0l-.2.2ZM104,95h0Z"/>
      </g>
      <g class="st1">
        <path class="st3" d="M75.4,113.5c-4.4,0-8.8-.7-13-2-3.4.2-6.8,0-10.2-.6-2.5-.3-5-.8-7.4-1.5-11.5-3.4-21.4-11.5-27.2-22.2,0-.2-.2-.4-.3-.5-3.3-6.2-4.4-11.9-4.9-15.7-.9-5.9-.7-11.5.4-16.8.4-2.4,1-5.1,1.9-7.9,0-.2.1-.4.2-.6,4.3-12,12.7-19.4,17.4-22.7,10.2-7.3,22.9-9.9,34.9-7.3,4.3.1,8.5.9,12.5,2.2,2.6-.3,5.2-.4,7.8-.2,5.9.3,11.5,1.8,16.5,4.3,1.1.5,2.2,1.1,3.3,1.7,16.3,9.2,25,27.7,21.7,46.2h0c-.3,1.7-.6,3.1-.9,4.7-1.7,7.6-5.1,13-7.1,16-.7,1-1.4,2-2.1,3l-.2.2c-.7.9-1.3,1.6-2.1,2.4-1.4,1.6-2.9,3.1-4.4,4.4-4,3.6-8.4,6.3-13.1,8.2-4.3,1.9-8.8,3.1-13.3,3.6-1.1.2-2.2.4-3.3.6h-.7c-1.9.2-3.9.4-6,.4h-.4Z"/>
      </g>
      <g class="st1">
        <path class="st3" d="M70.8,103.7c-4.7,0-9.4-.7-14-2.3-7.8-.9-15.3-4-21.5-8.7-8.5-5.2-15.1-13.3-18.5-23.2-6.3-18.5.4-38.8,16-50,2.1-2.2,4.3-4.3,6.5-6.1l.6-.5c5.2-4.1,11-6.9,17-8.4,1.5-.4,3.1-.7,4.6-.9,4.4-.7,8.9-.6,13.2,0,2.4.2,4.8.7,7.1,1.3,12,3.3,22.1,11.4,27.8,22.5,3.1,6.1,4.7,12.6,4.8,19,.7,2.7,1.1,5.4,1.2,8.1v1.5c.3,10.3-3.2,18.1-4.7,21.4-7.3,16.4-23.5,26.1-40.4,26.1h0l.3.2Z"/>
      </g>
      <g class="st1">
        <path class="st3" d="M72.5,116.9h-3.9c-4.9.2-9.9-.4-14.6-1.8-.3,0-.6-.2-.8-.3-2.2-.7-3.9-1.4-4.7-1.8-.5-.2-.9-.4-1.4-.6-3-1.1-5.8-2.4-8.6-4.2-3.2-2-6.2-4.3-9-7.1-.1,0-.2-.2-.3-.3-5-5-7.9-8.7-10.4-13.2-9.9-18.2-5.7-40.4,9.3-53.8,1.7-2.9,3.3-5.1,4.5-6.6,0,0,0-.2.2-.3,4.1-5,8.7-8.5,10.5-9.7,0,0,.2-.1.3-.2,3.4-2.4,7.5-4.5,11.4-6h.2c2-.7,7.2-2.5,13.3-3.1h.4c3.9-.4,8.2-.2,10,0h.2c5.8.6,13.9,2.3,21.8,7.3,5.8,3.2,14.9,9.8,20.3,21.5,0,0,0,.3.2.4,2.6,5.7,3.5,11.1,3.9,14.8,2.7,7.9,3.1,16.6.8,25.2-.9,3.3-2.1,6.3-3.4,9-.2.5-.5,1.1-.8,1.7,0,0,0,.2-.2.4-4.7,9.4-11.7,15.1-15.4,17.8,0,0,0,0-.2,0-5,3.5-11.8,6.4-11.8,6.4h-.2c-1.4.6-2.8,1.1-4.3,1.6-2.9,1.1-6.4,2-10.5,2.5h-.3c-1.9.2-3.5.2-4.7.3h-1.8ZM48.7,113.1h-.2.2Z"/>
      </g>
      <g class="st1">
        <path class="st3" d="M66.9,114.4c-4.8,0-10.1-.8-14.6-2.1h0c-.9-.3-1.8-.6-2.7-.9-2.8-.8-5.7-1.8-8.6-3.3,0,0-.2,0-.2,0-4.4-2.2-9-5.5-12.6-9-.2,0-.3-.3-.5-.4-6.3-6.3-10.6-14.3-12.4-23.2,0-.2,0-.4-.1-.7-1.5-7.8-.6-15.8-.4-17.3v-.3c.3-2.3.8-4.6,1.5-6.9.2-.9.3-1.7.5-2.4v-.2c1.4-6,4.2-12.6,7.5-17.7,0,0,.1-.2.2-.3,2.6-4,6.2-8.2,9.8-11.3,0,0,.2-.1.2-.2,5.3-4.6,12.1-8.1,18.9-10.1.2,0,.3,0,.5,0,8.4-2.2,16-1.7,19.7-1.1h.5c5.7.9,10.5,2.7,13.9,4.3,3.5.9,9.6,3,15.6,7.1,0,0,0,0,.2.1,2.7,1.9,9.6,7.2,14.5,15.4,0,.2.3.4.4.7,4.5,8,6.7,17.4,6.1,26.6v.5c-.3,3.9-1.2,9.8-3.9,16,0,0,0,.3-.2.4-1.8,4.1-4.7,8.7-7.8,12.7-2,2.9-4.3,5.6-7,8,0,0-.3.3-.6.5l-.2.2c-3.2,2.8-5.2,4.3-5.9,4.7h0c-3.9,2.8-7.9,4.6-10.4,5.7h-.2c-3.1,1.3-11.5,4.3-20.8,4.4h-.6v.3Z"/>
      </g>
      <g class="st1">
        <path class="st3" d="M81.4,111.7c-2.4,0-5.4,0-8.1-.4h-.4c-.4,0-1.3,0-2.1-.2-2.2-.2-5.3-.5-8.9-1.1h-.4c-1-.2-1.9-.3-2.7-.5-.3,0-.6,0-.9,0-.2,0-.5,0-.7,0-3.6-.6-10.7-2.4-17.7-7.1-.3-.2-.7-.5-1-.7-4.7-3.3-8.6-7.5-11.7-12.3-4.9-7.3-7.6-15.9-7.6-24.7-.2-5.3.4-11.5,2.8-18,0-.2.2-.4.2-.6,4.6-11.9,12.9-18.3,15.7-20.4,3-2.3,6.3-4.2,10.2-6,.2-.2.4-.4.6-.6,17.1-16,43.7-16,60.7.1,0,0,2.2,2.1,3.2,3.1h0c2.9,2.9,8.2,8.9,11.7,16.6,0,0,0,.3.2.4,1.2,2.8,2.2,5.8,2.9,8.9.9,3.5,1.4,6.8,1.6,9.6.2,1.5.4,2.9.5,4.4v.4c0,1.7.1,3.8.1,4v.4c0,15-7.3,28.9-19.6,37.2-.4.2-.7.5-1.1.7-3.2,2-11.9,6.8-23.2,7.4h-4.3v-.4Z"/>
      </g>
      <g class="st1">
        <path class="st3" d="M50.3,102.7c-16.4,0-32.4-8.4-41.2-23.6C-4.2,56.5,3.4,27.3,26.2,14l5-2.9c22.8-13.3,52-5.6,65.3,17.1,13.3,22.7,5.6,51.9-17.1,65.1l-5,2.9c-7.6,4.4-15.9,6.5-24.1,6.5Z"/>
      </g>
      <g class="st1">
        <path class="st3" d="M62.8,99.4c-2.4,0-4.9-.2-7.3-.6l-3-.5c-26.1-4-43.9-28.3-39.9-54.3C16.5,18.1,40.9.3,67,4.3l3,.5c26.1,4,43.9,28.3,39.9,54.3-3.6,23.5-24,40.4-47.1,40.4h0Z"/>
      </g>
      <g class="st1">
        <path class="st3" d="M53.7,109.5c-2.5,0-5-.2-7.6-.7-6.5-1.1-12.6-3.7-17.8-7.3-1.5-.8-2.9-1.7-4.2-2.6-.1,0-.3-.2-.4-.3-5-3.5-11.9-9.8-16.3-19.7h0c-.9-2.1-1.4-3.8-1.9-5.2-3.1-9.6-2.8-19.5.4-28.4,1.3-4.3,3.2-8.6,5.7-12.7,0,0,.2-.3.2-.4,1.2-2.6,3-5.8,5.7-9.2.2-.2.4-.5.6-.7,7.7-9.3,19.1-15.1,31.2-15.9,12.2-.8,24.4,3.4,33.4,11.7.3.3.7.6,1,1,4.5,4.4,7.7,9.5,8.3,10.4,0,0,0,.2.2.2,3,4.9,4.7,9.8,5.5,12.3h0c1.9,6.4,2.8,13.4,2.4,19.8v.3c0,.9,0,1.7-.3,3.3h0c-.5,4.9-1.8,9.6-3.8,14.2-.8,2-1.8,4-2.9,6,0,.2-.3.4-.4.6-7.8,14.4-22.8,23.2-38.9,23.2h0Z"/>
      </g>
      <g class="st1">
        <path class="st3" d="M53.9,106.4c-7.4,0-15-1.7-21.4-4.8-.2,0-.5-.2-.7-.3-9.3-4.8-17.4-13.4-21.7-23.2,0-.2-.2-.4-.3-.6-4.1-9.7-4-19-3.2-25v-.3c0-.7.2-1.4.3-2.1,0-.7.3-1.5.4-2.3.5-2.3.9-3.9,1.1-4.5,0,0,0-.3.1-.4,1.7-5.5,6-15.9,16.3-23.8.3-.2.5-.4.8-.6,8.5-6.3,19.1-9.4,29.7-8.7.5,0,.9,0,1.4.1,8.1.7,16.1,3.7,22.7,8.4.2.2.5.3.7.5,9.6,7.2,14.4,16.9,16.4,22.3.5,1,.9,2.1,1.2,3.1,0,.3.2.7.3,1,2.6,8.1,2.9,17.1.8,25.4,0,.3-.2.6-.2.9-1.5,5.5-5.5,16-15.4,24.1-.2.2-.5.4-.7.6-3.5,2.8-10.7,7.6-20.7,9.4h-.4c-2.5.4-5,.6-7.6.6h0v.2Z"/>
      </g>
      <g class="st1">
        <path class="st3" d="M58.9,112.9c-6.7,0-13.5-1.4-19.6-4.3-.3,0-.6-.3-1-.5-5.5-2.7-10.2-6.4-15.5-12.2-8-5.4-14-13.2-17.2-22.3-2.6-7.5-3.1-15.5-1.6-23.3,0-.5.2-1,.3-1.5,1.8-7.9,5.7-15,11.6-21.2.2-.2.3-.4.5-.6,1.7-2.2,4.4-5.4,7.9-8.4,9-9.4,21.6-14.4,34.6-13.7,13.2-.9,25.9,3.7,35.2,13.1.4.4.8.8,1.2,1.2,8.2,8.9,12.4,20.8,11.9,33.5v.3c-.2,3.4-1.6,15.5-1.7,16.6h0c-1.2,7.9-3.4,14.8-6.7,20.4,0,.2-.2.4-.3.6-2.8,4.5-9.1,12.9-20.2,18-.4.2-.7.3-1.1.5-5.7,2.4-12,3.6-18.2,3.6h0v.2ZM19.9,24h0ZM20,24h0Z"/>
      </g>
      <g class="st1">
        <path class="st3" d="M62.1,115.4c-1.4,0-2.9,0-4.3-.2-5.3-.3-11.5-1.5-17.7-4.5-.2,0-.4-.2-.6-.3-11.4-5.7-17-14.5-18.9-17.5-2-3.2-3.6-6.6-5-10.7-.2-.2-.4-.5-.5-.7C.6,63,3.2,36.5,20.9,21.2c0,0,2.3-2,3.4-2.9h0c3.1-2.6,9.6-7.3,17.6-10,.2,0,.3-.1.5-.1,2.9-1,6-1.6,9.2-2,3.6-.6,6.9-.7,9.7-.7s3,0,4.4,0h.4c1.7,0,3.8.3,4,.3h.4c14.9,1.4,28.1,10,35.2,23,.2.4.4.8.6,1.2,1.7,3.4,5.7,12.4,5.1,23.8,0,1.2-.4,7.3-1.5,12.3v.4c0,.4-.3,1.3-.4,2-.4,2.2-1,5.2-1.9,8.7,0,0,0,.3,0,.4-.3.9-.5,1.8-.8,2.6,0,.3,0,.6-.2.9,0,.2,0,.4-.2.6-1,3.5-3.4,10.4-8.8,16.9-.3.3-.6.7-.9,1-3.8,4.3-8.3,7.8-13.4,10.4-6.5,3.5-13.7,5.3-21.1,5.3h0Z"/>
      </g>
      <g class="st1">
        <path class="st3" d="M61.9,102.1c-7.1,0-13.8-1.5-19.9-4.5,0,0-.2,0-.3,0-9-4.4-14.7-10.8-17.9-15.5-10.1-14.7-10-33.3-1.4-47.6,1.7-3.7,4.4-8.2,8.4-12.5,1.2-1.4,2.5-2.7,3.9-4,.3-.3.6-.5.8-.7,3.8-3.3,8.7-6.2,13.7-8.2,7-3.3,15-4.9,23.3-4.1,12.9,1.2,23.9,7.9,31.1,17.5,2.8,2.9,5.6,6.6,7.9,11,0,.2.2.5.4.7,3.6,7.3,5.2,15.4,4.7,23.4v1c-.7,7.2-3.1,14.3-7,20.4-.3.5-.6,1-1,1.5-3.2,4.6-8.9,11-17.7,15.3-.2,0-.4.2-.7.3-2.2,1-4.4,1.8-6.6,2.4-1.2.5-2.4.9-3.7,1.3-.2,0-.3,0-.4,0-1.8.5-3.6,1-5.3,1.2-.6,0-1.2.2-1.8.3-.3,0-.6,0-.9,0-2.1.3-4.2.4-6.4.4h-3.2v.3ZM96.7,32.4h0Z"/>
      </g>
      <g class="st1">
        <path class="st3" d="M61.7,116.8c-3.2,0-6.1-.3-8.4-.7h-.3c-6.4-1.1-15.4-4-23.5-11.2-4-3.2-7.9-7.5-11-13-.2-.3-.3-.6-.5-.9-4.5-8.4-6.2-18.4-4.8-27.9,0-.3,0-.6.1-.9.5-3.1,1.9-9.4,5.6-15.7.1-.2.2-.4.3-.5,2.5-4.2,5.8-8.1,9.5-11.4,5.8-8.3,14.4-14.4,24.6-17.2,1.7-.5,3.4-.8,5.1-1.1.2,0,.5-.1.7-.2,8.1-1.9,16.1-1.4,23.4,1,14.4,4.3,25.4,15.5,29.7,29.3,2.4,6.5,3.3,13.6,2.4,20.8.4,12.8-4.7,25.3-13.9,34.2-.2.2-.5.4-.7.7-4.9,4.5-10.7,7.6-16.3,9.7-1.3.7-2.6,1.3-4,1.9-.4.2-.7.3-1.1.4-6,2.3-11.8,3-16.8,3v-.3Z"/>
      </g>
      <g class="st1">
        <path class="st3" d="M60.1,117.2h-3.3c-3.8-.3-7.7-1.1-11.5-2.3-5-1.4-9.8-3.7-14-6.6-.2,0-.4-.3-.6-.4-9.6-7-14.2-16.2-16.1-21.1,0-.2-.1-.4-.2-.6-.7-1.9-1.3-3.8-1.7-5.8-.5-1.2-1-2.4-1.4-3.6,0,0,0-.2-.1-.3-2.6-7.4-3.3-15.7-2-23.5,0-.3,0-.6.1-.9.1-.6.2-1.2.3-1.7.9-4.4,2.4-8.6,4.5-12.4,5-12,14.9-21.2,27.3-25.4.3-.1.6-.2,1-.3,9.4-3,22.1-2.9,31.6.1h.3c5.6,1.9,11,4.9,16.1,9.2,5.6,4.7,9.2,10.2,11,13.2,7.4,11.3,8.9,25.1,5,37.4v1c-.4,5.5-1.9,11.4-4.1,16.4,0,.2-.2.5-.3.7-2.9,6.3-7.3,12-12.6,16.5,0,0-.3.2-.4.4-8.1,6.6-18.3,10.1-28.7,10.1h-.2ZM97.8,29.8h0Z"/>
      </g>
      <g class="st1">
        <path class="st3" d="M62.5,118.6c-5,0-9.7-.7-14.1-2-2.4-.6-5-1.5-7.7-2.7-.2,0-.4-.2-.5-.2-11.6-5.4-18.1-14.5-21-19.4-6.4-10.9-7.7-23.7-4-35.4.5-4.3,1.7-8.4,3.4-12.2,0-2.6.1-5.2.5-7.8.9-5.8,2.9-11.2,5.8-16,.6-1.1,1.3-2.1,2-3.1C37.7,4.4,57-2.4,75.1,2.6h0c1.6.5,3,.9,4.5,1.4,7.4,2.4,12.5,6.3,15.3,8.6,1,.8,1.9,1.6,2.8,2.4,0,0,0,.1.2.2.8.8,1.5,1.5,2.2,2.3,1.5,1.5,2.8,3.1,4,4.7,3.2,4.3,5.5,9,6.9,13.8,1.5,4.4,2.3,9,2.3,13.6,0,1.1.2,2.2.3,3.3v.6c0,1.9,0,3.9-.2,6-.4,4.5-1.5,8.9-3.2,13,0,3.4-.7,6.8-1.6,10.1-.5,2.4-1.2,4.8-2.2,7.1-4.5,11.1-13.5,20.2-24.8,25-.2,0-.4.2-.6.2-6.5,2.6-12.3,3.2-16.1,3.4h-2.7l.3.3Z"/>
      </g>
      <g class="st1">
        <path class="st3" d="M53.9,115.1c-15.5,0-30.2-8.2-38.2-21.9-2-2.2-3.8-4.6-5.4-7h0l-.5-.7c-3.7-5.6-5.9-11.7-6.8-18-.2-1.4-.4-2.9-.4-4.4-.2-4.5.2-8.8,1.3-13,.5-2.4,1.1-4.7,2-7,4.4-11.6,13.5-20.9,25.1-25.4,6.3-2.5,13-3.4,19.5-3,2.7-.4,5.5-.6,8.3-.5h1.4c10.3.7,17.8,4.9,20.9,6.7,20,11.3,27.8,35.7,18.6,56.2-1.7,7.7-5.4,14.8-10.7,20.5-6,7.9-14.7,13.7-25,16.2-3.4.8-6.8,1.2-10.2,1.2h.1Z"/>
      </g>
      <g class="st1">
        <path class="st3" d="M65,117.1c-13.8,0-27.1-6.5-35.5-17.9-2.7-1.9-4.8-3.8-6.2-5.1l-.2-.2c-4.6-4.5-7.6-9.5-8.7-11.4,0,0-.1-.2-.2-.3-2-3.6-3.7-7.8-4.9-11.9v-.2c-.5-2-1.8-7.4-1.9-13.5v-.4c0-3.9.6-8.1,1-9.9v-.3c1.1-5.7,3.6-13.6,9.4-20.9,3.7-5.4,11.2-13.9,23.4-18.1,0,0,.3,0,.4,0,5.9-2,11.3-2.4,15-2.4h.2c8.2-1.9,16.9-1.5,25.2,1.6,3.2,1.2,6,2.6,8.6,4.3.5.3,1,.6,1.6.9,0,0,.2.1.4.2,8.9,5.6,14,13,16.2,17,0,0,0,.1,0,.2,3,5.3,5.3,12.3,5.3,12.3v.2c.5,1.4.8,2.9,1.2,4.4.8,3,1.4,6.6,1.5,10.6v.3c0,2,0,3.5-.2,4.7h0v1c0,1.6-.3,3.1-.5,4.7-.3,4.9-1.3,9.7-3.2,14.3,0,.3-.2.5-.3.8-.9,2.2-1.8,3.8-2.3,4.6-.2.4-.5.9-.7,1.3-1.3,2.8-3,5.5-5,8.1-2.3,3-4.9,5.7-7.9,8.2,0,0-.2.2-.4.3-5.5,4.5-9.5,7-14.2,9-5.6,2.4-11.5,3.5-17.3,3.5h0ZM110.6,86.3v.2h0v-.2ZM110.6,86.3h0Z"/>
      </g>
      <g class="st1">
        <path class="st3" d="M64.9,116.3c-6.3,0-11.9-1.2-13.1-1.5h-.3c-2.3-.5-4.6-1.3-6.8-2.2-.9-.2-1.7-.5-2.3-.7h-.2c-5.8-2-12.1-5.4-16.9-9.1,0,0-.2,0-.3-.2-3.8-3-7.6-6.9-10.3-10.8,0,0-.1-.2-.2-.2-4.1-5.8-7-12.8-8.2-19.8v-.5c-1.4-8.6,0-16,.8-19.7,0-.2,0-.3,0-.5,1.4-5.5,3.7-10.2,5.6-13.4,1.3-3.3,3.9-9.2,8.6-14.8l.2-.2c2.1-2.5,8.1-8.9,16.7-12.9.2-.1.5-.2.7-.3,8.4-3.7,18-5,27.1-3.5h.5c3.9.7,9.7,2.2,15.6,5.4,0,0,.3.1.4.2,3.9,2.2,8.3,5.5,11.9,8.9,2.7,2.2,5.1,4.8,7.3,7.7,0,.1.3.4.5.6l.2.2c2.5,3.4,3.8,5.6,4.2,6.3h0c2.4,4.2,3.9,8.2,4.7,10.9v.2c1,3.2,3.2,11.8,2.4,21.1v.2c-.4,4.9-1.7,10.2-3.5,14.7h0c-.3.9-.7,1.8-1.1,2.7-1,2.7-2.4,5.5-4.1,8.3,0,0,0,.2-.2.2-2.7,4.2-6.4,8.4-10.2,11.6-.2,0-.3.3-.5.4-6.9,5.7-15.3,9.2-24.4,10.1h-.6c-1.4,0-2.8.2-4.2.2h0v.4Z"/>
      </g>
      <g class="st1">
        <path class="st3" d="M63.2,111.2c-1.4,0-2.9,0-4.3-.2-5.3-.3-11.5-1.5-17.7-4.5-.2,0-.4-.2-.6-.3-11.4-5.7-17-14.6-18.9-17.6-2-3.2-3.6-6.6-5-10.7-.2-.2-.4-.5-.5-.7C1.7,58.9,4.3,32.4,22,17.1c0,0,2.3-2,3.4-2.9h0c3.1-2.6,9.6-7.3,17.6-10,.2,0,.3,0,.5,0,2.9-1,6-1.6,9.2-2,3.6-.6,6.9-.7,9.7-.7s3-.1,4.4,0h.4c1.7,0,3.8.3,4,.3h.4c14.9,1.4,28.1,10,35.2,23,.2.4.4.7.6,1.1,1.7,3.4,5.7,12.5,5.1,23.8,0,1.2-.4,7.3-1.5,12.3v.4c0,.4-.3,1.3-.4,2-.4,2.2-1,5.2-1.9,8.7,0,0,0,.3,0,.4-.3.9-.5,1.8-.8,2.6,0,.3-.2.6-.2,1s0,.3,0,.5c-1.7,6.1-4.8,12.1-8.8,16.9-.3.4-.6.7-.9,1-3.8,4.3-8.3,7.8-13.4,10.4-6.5,3.5-13.7,5.3-21.1,5.3h0Z"/>
      </g>
      <path class="st0" d="M28.3,89.3c8.8,0,15.9-6.7,15.9-14.9s-7.1-14.9-15.9-14.9-15.9,6.7-15.9,14.9,7.1,14.9,15.9,14.9Z"/>
      <path class="st0" d="M105.4,90.7c8.8,0,15.9-6.7,15.9-14.9s-7.1-14.9-15.9-14.9-15.9,6.7-15.9,14.9,7.1,14.9,15.9,14.9Z"/>
      <path class="st2" d="M49.4,49.4c0,11.2-9.5,20.2-21.1,20.2S7.2,60.5,7.2,49.4s9.5-20.2,21.1-20.2,21.1,9,21.1,20.2Z"/>
      <path class="st5" d="M37.9,48.5c0,7.6-6.2,13.8-13.8,13.8s-13.8-6.2-13.8-13.8,6.2-13.8,13.8-13.8,13.8,6.2,13.8,13.8Z"/>
      <path class="st2" d="M107.7,49.8c0,11.2-9.5,20.2-21.1,20.2s-21.1-9-21.1-20.2,9.5-20.2,21.1-20.2,21.1,9,21.1,20.2Z"/>
      <path class="st5" d="M95.4,49.7c0,7.6-6.2,13.8-13.8,13.8s-13.8-6.2-13.8-13.8,6.2-13.8,13.8-13.8,13.8,6.2,13.8,13.8Z"/>
      <g>
        <path class="st5" d="M41,73.6c6.7,6.7,16.7,8.3,25.6,5.7,2.6-.8,5.1-1.9,7.4-3.2,1.1-.6,1.6-2.2.9-3.3-.7-1.1-2.1-1.5-3.3-.9-.9.5-1.9,1-2.9,1.5,0,0-.3,0-.4.2,0,0,.3,0,0,0-.2,0-.5.2-.7.3-.5.2-1.1.4-1.6.6-1,.3-2.1.6-3.1.8-.5,0-1,.2-1.5.3,0,0-.5,0,0,0h-4.4c-.5,0-.9,0-1.4,0h-.4s.5,0,0,0-.5,0-.8,0c-1-.2-1.9-.4-2.9-.7-.4,0-.9-.3-1.3-.5,0,0-.2,0-.4,0,0,0,.4.2,0,0s-.5-.2-.7-.3c-1-.5-2-1-2.9-1.7-.2,0-.4-.3-.6-.5.4.3-.2,0-.3-.2-.5-.4-.9-.8-1.3-1.2-.9-.9-2.5-1-3.4,0s-.9,2.5,0,3.4h.4Z"/>
        <path class="st7" d="M41,73.6c6.7,6.7,16.7,8.3,25.6,5.7,2.6-.8,5.1-1.9,7.4-3.2,1.1-.6,1.6-2.2.9-3.3-.7-1.1-2.1-1.5-3.3-.9-.9.5-1.9,1-2.9,1.5,0,0-.3,0-.4.2,0,0,.3,0,0,0-.2,0-.5.2-.7.3-.5.2-1.1.4-1.6.6-1,.3-2.1.6-3.1.8-.5,0-1,.2-1.5.3,0,0-.5,0,0,0h-4.4c-.5,0-.9,0-1.4,0h-.4s.5,0,0,0-.5,0-.8,0c-1-.2-1.9-.4-2.9-.7-.4,0-.9-.3-1.3-.5,0,0-.2,0-.4,0,0,0,.4.2,0,0s-.5-.2-.7-.3c-1-.5-2-1-2.9-1.7-.2,0-.4-.3-.6-.5.4.3-.2,0-.3-.2-.5-.4-.9-.8-1.3-1.2-.9-.9-2.5-1-3.4,0s-.9,2.5,0,3.4h.4Z"/>
      </g>
    </g>
  </g>
</svg>