<?xml version="1.0" encoding="UTF-8"?>
<svg id="Capa_1" xmlns="http://www.w3.org/2000/svg" version="1.1" xmlns:xlink="http://www.w3.org/1999/xlink" viewBox="0 0 52 50">
  <!-- Generator: Adobe Illustrator 29.2.1, SVG Export Plug-In . SVG Version: 2.1.0 Build 116)  -->
  <defs>
    <style>
      .st0 {
        fill: #ffdb27;
        fill-opacity: .8;
      }

      .st1 {
        fill: #fff;
      }

      .st2 {
        fill: #ffea4b;
      }

      .st3 {
        display: none;
        stroke: #000;
      }

      .st3, .st4 {
        fill: none;
      }

      .st5 {
        clip-path: url(#clippath-1);
      }

      .st6 {
        opacity: .6;
      }

      .st7 {
        fill: #2e2c2c;
      }

      .st8 {
        clip-path: url(#clippath);
      }

      .st9 {
        fill-opacity: .2;
      }
    </style>
    <clipPath id="clippath">
      <rect class="st4" x=".2" y=".2" width="51.5" height="48.9" transform="translate(-.2 .2) rotate(-.5)"/>
    </clipPath>
    <clipPath id="clippath-1">
      <rect class="st4" x="18.3" y="27.6" width="13.7" height="4.3" transform="translate(-.3 .2) rotate(-.5)"/>
    </clipPath>
  </defs>
  <g class="st8">
    <g>
      <g class="st6">
        <path class="st2" d="M30,40.4c-5.8,0-11.6-2.6-15.3-7.6l-1.9-2.6c-6.1-8.3-4.3-20,4-26.1C25.1-2,36.9-.2,43,8.1l1.9,2.6c6.1,8.3,4.3,20-4,26.1-3.3,2.4-7.1,3.6-10.9,3.6h0Z"/>
      </g>
      <g class="st6">
        <path class="st2" d="M30.7,44.6c-.4,0-.7,0-1.1,0-10.4-.5-18.3-9.2-17.8-19.5v-1.7c.6-10.3,9.4-18.2,19.7-17.7,10.4.5,18.3,9.2,17.8,19.5v1.7c-.6,9.9-8.8,17.7-18.6,17.7Z"/>
      </g>
      <g class="st6">
        <path class="st2" d="M25.8,39.9c-.2,0-.5,0-.9,0h0c-2.1,0-4.1-.3-6.1-1-.8-.2-1.7-.5-2.5-.9-.1,0-.3-.1-.4-.2-7-2.8-11.5-9.7-10.9-17.3.2-2.7,1-5.3,2.3-7.5.3-.8.7-1.5,1.1-2.2,0,0,0-.1,0-.2,1-1.8,3.3-5.1,7.3-7.4,0,0,0,0,0,0,.7-.4,1.3-.7,2.1-1,3.7-1.6,7.7-1.9,11.3-.9,1.9.3,3.9.9,5.8,1.9.1,0,.3.1.4.2,0,0,.2,0,.3.1,1.1.3,2.6.9,4.3,2,.1,0,.2.1.3.2,4,2.6,6.7,6.8,7.5,11.5.8,4.7-.4,9.7-3.2,13.5-.1.1-.2.3-.3.4-1.7,2.2-4,3.9-4.1,4,0,0,0,0,0,0-2,1.5-4.1,2.5-5,2.9,0,0,0,0,0,0-2.7,1.1-5.6,1.8-8.4,1.9,0,0,0,0-.1,0-.2,0-.4,0-.7,0h0Z"/>
      </g>
      <g class="st6">
        <path class="st2" d="M25.8,39.9c-.9,0-1.9,0-2.8-.2-.1,0-.2,0-.4,0-2.3-.4-6.8-1.6-10.5-5.1,0,0-.2-.2-.3-.3-1.2-1.3-3.5-4-4.7-7.8,0,0,0-.1,0-.2-1.2-4.4-.6-8.9.5-11.8,0,0,0-.2.1-.3,2.3-5.8,7-8.8,8.4-9.6,0,0,.2,0,.2-.1,4-2.1,8-2.4,10.1-2.3,0,0,0,0,.1,0,.3,0,.6,0,.9,0,.4,0,.8,0,1.3.1.6,0,1.2.1,1.8.2,0,0,.1,0,.2,0,1.9.4,6.6,1.6,10.3,5.5,0,0,.2.2.2.3,2.8,3.1,4.5,7.2,4.7,11.3,0,.2,0,.3,0,.5,0,3.2-.8,6.5-2.4,9.3,0,.1-.1.2-.2.3-2.6,4.3-6.7,6.7-8.6,7.7-.4.3-.9.5-1.4.7-.1,0-.3.1-.4.2-2.3,1-4.8,1.5-7.3,1.5h0Z"/>
      </g>
      <g class="st6">
        <path class="st2" d="M30.4,43.3c-2.5,0-6.7,0-7.2,0,0,0,0,0,0,0-2.4,0-6-.5-9-1.9,0,0-.2,0-.2-.1-1.9-.9-5.6-3.1-8-7.2,0-.1-.2-.3-.2-.4-2.5-4.5-3-10.2-1.3-15,0-.1,0-.3.1-.4.9-2.4,2.3-4.6,4.8-7.3,0,0,.2-.3.3-.4,0-.1.2-.3.3-.5,1.8-3.4,4.6-6.2,8.2-7.8,2.8-1.3,6-1.9,9.2-1.6.2,0,.4,0,.6,0,3.4.4,6.4,1.7,9.3,4,0,0,.2.1.3.2.1,0,.3.1.4.2,1.5.9,3,2.1,4.2,3.2,4.4,3.2,7,8.2,7.1,13.5,0,.3,0,.5.1.8.8,5.1-.5,10.2-3.8,14.1-.1.2-.3.3-.4.5-3.2,3.6-7.8,5.8-13,6.1,0,0,0,0-.1,0-.3,0-.8,0-1.5,0h0Z"/>
      </g>
      <g class="st6">
        <path class="st2" d="M29.8,45.8c-1.1,0-2.5,0-3.6-.2,0,0-.1,0-.2,0-.4,0-.9,0-1.5-.1-1.2-.1-2.7-.2-4.5-.5,0,0-.1,0-.2,0-.6,0-1.1-.2-1.6-.3-.2,0-.4,0-.6,0,0,0-.1,0-.2,0-2.5-.4-5.1-1.4-7.1-2.8-.1,0-.3-.2-.4-.3-1.9-1.3-3.4-2.9-4.7-4.8-2-2.9-3.1-6.3-3.1-9.9-.1-2.2,0-4.8,1-7.5,0,0,0-.2,0-.2,1.6-4.3,4.4-6.8,6.3-8.3,1.5-1.2,3.2-2.2,5.6-3.1.4-.4.7-.8,1.1-1.2C22.8,0,33.3,0,40.1,6.3c0,0,1.2,1.1,1.7,1.6,0,0,0,0,0,0,1.3,1.2,3.6,3.8,5.1,7.1,0,0,0,.1,0,.2.5,1.2,1,2.5,1.3,3.8.5,1.6.7,3.2.7,4.4.1.7.2,1.3.3,2.1,0,0,0,0,0,.1,0,.8,0,1.9,0,1.9,0,0,0,0,0,.1,0,5.9-2.8,11.4-7.6,14.7-.1,0-.3.2-.4.3-1.3.8-4.8,2.8-9.4,3.1,0,0-.9,0-2.1,0h0Z"/>
      </g>
      <g class="st6">
        <path class="st2" d="M29.6,48.8c-2.9,0-5.8-.6-8.4-1.9-.2-.1-.4-.2-.6-.3-2-1.1-4.8-3.1-6.8-6.3,0,0,0-.2-.1-.2-.6-1-1-2-1.4-2.9-.3-.6-.6-1.1-.9-1.7,0,0,0-.1,0-.2-.3-.7-.5-1.4-.7-2.1,0-.3-.2-.6-.2-.8,0-.1,0-.2,0-.3-.2-.9-.4-1.8-.4-2.8-.6-3.2-.4-6.6.7-9.6,0,0,0,0,0,0,1.4-3.8,3.7-6.3,5.5-7.7,5.5-4.6,13-5.3,19-2.3,1.6.5,3.8,1.5,5.9,3,.6.4,1.3.9,1.9,1.5.1,0,.2.2.3.3,1.5,1.4,3,3.4,4.1,5.4,1.7,2.6,2.6,5.7,2.7,9,0,5.2-2.2,9.9-5.9,13.1-1.1,1.4-2.5,2.8-4.4,4,0,0-.2.1-.3.2-2.7,1.7-6,2.7-9.2,2.8-.1,0-.3,0-.4,0,0,0,0,0-.1,0h0Z"/>
      </g>
      <g class="st6">
        <path class="st2" d="M21.6,48.4c-4.3,0-8.5-1.4-11.9-4.2-.1,0-.2-.2-.3-.3-2.2-1.9-3.8-4.3-4.8-6.7-.4-.6-.8-1.2-1.2-1.9,0-.1-.1-.3-.2-.4-1.9-3.8-2.1-7.5-2-10h0c.2-2.8,1-6.6,3.6-10.1,1.1-1.8,2.7-3.6,4.8-5.1.1,0,.2-.2.3-.2,3.2-2.1,7-3.2,10.9-3,.1,0,.2,0,.4,0,1.3,0,3.9.4,6.6,1.6,0,0,.1,0,.2,0,2,.9,4,2.3,5.7,4,3.9,1.9,6.9,5.1,8.5,9.2.3.8.5,1.5.7,2.3,0,.2.1.4.2.6,1.1,3.1,1.2,6.2.6,9.2-1.1,5.9-5.1,10.7-10.5,12.9-2.3,1.2-5,1.9-7.7,1.9-.3,0-.7,0-1,0-.2,0-.3,0-.5,0h0c-.8.1-1.6.2-2.4.2h0ZM24.4,48.2c0,0-.1,0-.2,0,0,0,0,0,0,0,.1,0,.2,0,.3,0h0Z"/>
      </g>
      <g class="st6">
        <path class="st2" d="M26.9,44.5c-1.6,0-3.2-.2-4.7-.6-.4,0-.8,0-1.2,0,0,0-.1,0-.2,0-2.3,0-4.8-.3-7-1,0,0-.2,0-.3,0-2.6-.9-5.1-2.4-7.1-4.3,0,0-.1-.1-.2-.2-3.1-3.1-5-7.3-5.3-11.7,0-.2,0-.3,0-.5,0-1.6.1-3.3.5-4.9.4-2.1,1.1-4.1,2.1-5.9,0,0,0-.2.1-.2,2.5-4.2,6.3-6.5,7.9-7.3,0,0,.1,0,.2,0,.9-.5,1.9-.8,3-1.1.7-.4,1.4-.8,2-1.1,0,0,0,0,.1,0,2.9-1.3,6.3-2,9.5-1.8.1,0,.2,0,.4,0,.3,0,.5,0,.8,0,1.9.2,3.8.7,5.5,1.4,0,0,0,0,0,0,5.1,1.4,9.3,5,11.6,9.8,0,.1.1.2.2.4.9,2,1.3,3.9,1.6,6.6.2,2.6.2,4.5-.3,6.5,0,0,0,0,0,.1-.6,2.7-1.7,4.5-2.2,5.4-.4.7-.6,1.1-.9,1.5-1.7,2.5-3.9,4.3-5.1,5.1,0,0,0,0,0,0,0,0,0,0,0,0-3.1,2.6-7,3.9-10.9,3.9h0ZM39.4,39s0,0,0,0c0,0,0,0,0,0Z"/>
      </g>
      <g class="st6">
        <path class="st2" d="M28.8,47.2c-2.2,0-4.4-.4-6.4-1.2-1.9.3-3.8.2-5.6,0-1,0-2.1-.3-3.1-.6-4.6-1.3-8.6-4.5-11-8.8,0,0,0-.1-.1-.2-1.3-2.4-1.8-4.7-2-6.4-.1-.6-.2-1.3-.2-1.9-.1-1.8,0-3.5.3-5,.1-1.1.4-2.3.8-3.5,0,0,0-.1,0-.2,1.7-4.9,5.1-7.9,7-9.3,4.2-3.1,9.5-4,14.4-2.9,2.5,0,5,.5,7.2,1.4,1.5-.4,3.1-.5,4.8-.4,2.3.1,4.6.7,6.6,1.6.5.2.9.4,1.4.7,6.5,3.6,9.9,10.8,8.7,18h0c-.2.9-.3,1.6-.4,2.2-.6,2.8-1.7,4.9-2.8,6.5-.3.5-.6,1-1,1.4,0,0,0,0,0,0-.3.4-.6.7-.9,1-.6.7-1.2,1.3-1.9,1.9-1.6,1.4-3.4,2.5-5.2,3.3-1.8.9-3.8,1.4-5.8,1.6-.6.1-1.1.3-1.7.3,0,0-.2,0-.2,0-.8.1-1.6.2-2.5.2,0,0,0,0-.1,0h0Z"/>
      </g>
      <g class="st6">
        <path class="st2" d="M26.2,41.7c-2.1,0-4.2-.3-6.2-1.1-3.5-.2-6.8-1.5-9.6-3.6-3.5-2-6.3-5.2-7.7-9.2-2.6-7.4.2-15.7,6.7-20,1.4-1.6,2.7-2.7,3.4-3.3l.4-.3c2-1.6,4.3-2.7,6.6-3.3.6-.2,1.2-.3,1.9-.4,1.8-.3,3.6-.3,5.4,0,1,0,2,.2,3,.5,4.7,1.2,8.7,4.4,11,8.7,1.4,2.6,2,5.5,2,8.3.4,1.3.7,2.7.8,4,0,.2,0,.4,0,.6.1,4.1-1.2,7.2-1.9,8.8-2.8,6.4-9.1,10.3-15.8,10.4Z"/>
      </g>
      <g class="st6">
        <path class="st2" d="M27.2,49.2c-.7,0-1.4,0-2.2,0-2.1.1-4.1,0-6.1-.6,0,0-.2,0-.3,0-.9-.3-1.6-.6-2-.7,0,0,0,0,0,0-.3-.1-.7-.3-1-.4-1.2-.4-2.4-1-3.6-1.7-1.4-.8-2.6-1.8-3.8-2.9,0,0,0,0-.1-.1-2.7-2.6-3.7-4.1-4.6-5.7C-.7,29.4,1.2,20.3,7.7,15.1c.1-.2.3-.5.5-.7.8-1.5,1.7-2.7,2.1-3.2,0,0,0,0,0-.1,1.7-2.1,3.6-3.6,4.4-4.1,0,0,0,0,.1,0,1.4-1,3.2-1.9,4.8-2.6,0,0,0,0,0,0,.7-.2,3-1.1,5.6-1.4,0,0,0,0,.1,0,1.6-.2,3.4-.1,4.3,0,0,0,0,0,.1,0,2.5.2,5.9.9,9.2,3,2.2,1.1,6.2,3.8,8.6,8.7,0,0,0,0,0,.1,1.1,2.4,1.5,4.7,1.6,6.2,0,.1,0,.2,0,.3,0,0,0,.2,0,.3,1.3,3.3,1.6,7,.7,10.7-.4,1.4-.9,2.6-1.4,3.7-.1.3-.2.5-.4.9,0,0,0,0,0,.1-1.9,3.9-5,6.4-6.2,7.3,0,0,0,0,0,0-1.9,1.3-4.7,2.7-5.3,2.9,0,0,0,0,0,0-.6.3-1.3.5-1.9.7-1.2.5-2.6.9-4.3,1.1,0,0,0,0-.1,0-.8,0-1.4.1-2,.1h0c-.1,0-.3,0-.4,0-.1,0-.3,0-.4,0h0ZM16.6,47.7s0,0,0,0c0,0,0,0,0,0ZM16.6,47.6s0,0,0,0c0,0,0,0,0,0,0,0,0,0,0,0ZM16.5,47.6s0,0,0,0c0,0,0,0,0,0h0Z"/>
      </g>
      <g class="st6">
        <path class="st2" d="M24,47.8c-2,0-4.2-.3-6.1-.8,0,0,0,0,0,0-.4-.1-.9-.3-1.4-.4-1.2-.3-2.5-.8-3.8-1.4,0,0,0,0,0,0-1.8-.9-3.8-2.3-5.3-3.7,0,0-.1-.1-.2-.2-2.5-2.5-4.3-5.7-5.1-9.2,0,0,0-.2,0-.3-.7-3.4-.2-7.2-.2-7.3,0,0,0,0,0,0,.1-1.1.4-2.1.7-3.2,0-.5.2-1,.3-1.4,0,0,0,0,0,0,.6-2.6,1.8-5.5,3.2-7.7h0c1.1-1.8,2.6-3.6,4.1-4.9,0,0,0,0,0,0,2.1-1.9,5-3.4,7.8-4.2,0,0,.1,0,.2,0,3.6-1,6.9-.7,8.1-.5,0,0,.1,0,.2,0,2.8.4,5.1,1.4,6.4,2,.1,0,.3,0,.4,0h0c1.1.3,4,1.1,6.7,2.9,0,0,0,0,0,0,1.1.8,4,2.9,6,6.2,0,0,.1.2.2.3,1.8,3.1,2.8,7,2.5,10.7,0,0,0,.1,0,.2-.1,1.6-.5,4.1-1.6,6.6,0,0,0,.1,0,.2-.8,1.8-2.1,4-3.5,5.8-.8,1.2-1.7,2.3-2.9,3.4,0,0-.2.1-.3.2h-.1c-1,1-1.9,1.7-2.6,2.3,0,0,0,0,0,0-1.7,1.2-3.3,2-4.4,2.5,0,0,0,0,0,0-1.1.4-4.9,1.9-9,2,0,0,0,0,0,0,0,0-.1,0-.2,0h0Z"/>
      </g>
      <g class="st6">
        <path class="st2" d="M32.2,46.2c-1.1,0-2.5,0-3.6-.2,0,0-.1,0-.2,0-.4,0-.9,0-1.5-.1-1.2-.1-2.7-.2-4.5-.5,0,0-.1,0-.2,0-.6,0-1.1-.2-1.6-.3-.2,0-.4,0-.6,0,0,0-.1,0-.2,0-2.5-.4-5.1-1.4-7.1-2.8-.1,0-.3-.2-.4-.3-1.9-1.3-3.4-2.9-4.7-4.8-2-2.9-3.1-6.3-3.1-9.9-.1-2.2,0-4.8,1-7.5,0,0,0-.2,0-.2,1.6-4.3,4.4-6.8,6.3-8.3,1.5-1.2,3.2-2.2,5.6-3.1.4-.4.7-.8,1.1-1.2,6.7-6.3,17.1-6.4,23.9-.2,0,0,1.2,1.1,1.7,1.6,0,0,0,0,0,0,1.3,1.2,3.6,3.8,5.1,7.1,0,0,0,.1,0,.2.5,1.2,1,2.5,1.3,3.8.5,1.6.7,3.2.7,4.4.1.7.2,1.3.3,2.1,0,0,0,0,0,.1,0,.8,0,1.9,0,1.9,0,0,0,0,0,.1,0,5.9-2.8,11.4-7.6,14.7-.1,0-.3.2-.4.3-1.3.8-4.8,2.8-9.4,3.1,0,0-.9,0-2.1,0h0Z"/>
      </g>
      <g class="st6">
        <path class="st2" d="M30.9,40.3c-5.8,0-11.6-2.6-15.3-7.6l-1.3-1.8c-6.1-8.3-4.3-20,4-26.1,8.4-6.1,20.1-4.3,26.2,4l1.4,1.8c6.1,8.3,4.3,20-4,26.1-3.3,2.4-7.1,3.6-10.9,3.6h0Z"/>
      </g>
      <g class="st6">
        <path class="st2" d="M31.3,43.2c-.4,0-.7,0-1.1,0-10.4-.5-18.3-9.2-17.8-19.5v-1.2c.6-10.3,9.3-18.2,19.7-17.7,10.4.5,18.3,9.2,17.8,19.5v1.2c-.5,9.9-8.7,17.7-18.6,17.7Z"/>
      </g>
      <g class="st6">
        <path class="st2" d="M27.9,39.5c-.2,0-.4,0-.6,0h0c-1.9,0-3.8-.3-5.7-.9-.8-.2-1.6-.5-2.5-.9,0,0-.2,0-.3-.1-6.9-2.8-11.3-9.7-10.8-17.2.2-2.6.9-5,2.1-7.2.3-.6.5-1.2.9-1.7,0,0,0-.1,0-.2,1.2-2.1,3.4-5,7.1-7.1,0,0,0,0,0,0,.8-.4,1.4-.7,1.9-1,3.6-1.6,7.5-1.9,11.1-1,1.7.3,3.5.9,5.2,1.7,0,0,.1,0,.2,0,1,.3,2.4.9,3.8,1.8.1,0,.2.1.3.2,4,2.6,6.7,6.8,7.5,11.5.8,4.7-.4,9.6-3.2,13.4-.1.1-.2.3-.3.4-1.5,1.9-3.4,3.4-3.7,3.7,0,0,0,0,0,0-1.8,1.4-3.7,2.2-4.6,2.6,0,0,0,0,0,0-2.4,1-5.1,1.6-7.6,1.7,0,0,0,0-.1,0-.2,0-.4,0-.7,0ZM45.1,15.8s0,0,0,0c0,0,0,0,0,0Z"/>
      </g>
      <g class="st6">
        <path class="st2" d="M28,39.6c-.9,0-1.8,0-2.7-.2-.1,0-.2,0-.4,0-2.2-.4-6.5-1.5-10.1-5,0,0-.2-.2-.3-.3-1.2-1.2-3.4-3.9-4.5-7.6,0,0,0-.1,0-.2-1-3.6-.8-7.9.5-11.4,0,0,0-.2.1-.3,1.5-3.8,4.6-7.3,8.2-9.4,0,0,.2,0,.2-.1,3.6-2,7.3-2.3,9.7-2.3,0,0,0,0,.1,0,.3,0,.5,0,.8,0,.3,0,.6,0,1,0,.9,0,1.5.2,1.8.2,0,0,0,0,.1,0,2.2.4,6.5,1.7,10,5.4,0,0,.2.2.2.3,2.8,3.1,4.4,7,4.6,11.2,0,.2,0,.3,0,.5,0,3.2-.8,6.4-2.4,9.2,0,.1-.1.2-.2.3-2.4,4-6,6.3-8.1,7.3-.4.2-.8.4-1.2.6-.1,0-.2.1-.4.2-2.2,1-4.7,1.5-7.2,1.5Z"/>
      </g>
      <g class="st6">
        <path class="st2" d="M31,41.9c-1.9,0-4.9,0-5.2,0,0,0,0,0,0,0-3.2-.1-5.9-.7-8.3-1.8,0,0-.2,0-.2-.1-1.9-.9-5.4-3-7.9-7.1,0-.1-.2-.3-.2-.4-2.5-4.4-3-9.9-1.3-14.7,0-.1,0-.3.1-.4.8-2.3,2.1-4.2,4.1-6.5,1.8-3.3,4.6-6,8.1-7.6,2.8-1.3,6-1.9,9.1-1.6.2,0,.4,0,.6,0,3.2.4,6.1,1.6,8.8,3.7,0,0,.2.1.3.2.9.6,2.3,1.5,3.6,2.7,4.1,3.1,6.5,7.8,6.8,12.9.9,5.1-.4,10.2-3.7,14.2-.1.2-.3.3-.4.5-3.2,3.6-7.7,5.7-12.6,6,0,0,0,0-.1,0-.3,0-.8,0-1.4,0h0ZM40.3,6.8s0,0,0,0c0,0,0,0,0,0Z"/>
      </g>
      <g class="st6">
        <path class="st2" d="M30.7,43.6c-.9,0-2.1,0-3.2-.1,0,0-.1,0-.2,0-.2,0-.5,0-.8,0-.9,0-2.1-.2-3.5-.4,0,0-.1,0-.2,0-.4,0-.7-.1-1.1-.2-.1,0-.2,0-.4,0,0,0-.2,0-.2,0-2.4-.4-4.9-1.4-7-2.7-.2-.1-.3-.2-.5-.3-1.8-1.3-3.4-2.9-4.6-4.8-2-2.8-3-6.2-3.1-9.7,0-2.1.1-4.5,1-7.1,0,0,0-.2,0-.3,1.8-4.7,5-7.2,6.1-8.1,1.2-.9,2.4-1.7,4-2.4,0,0,.2-.2.2-.2,6.7-6.3,17.1-6.4,23.9-.1,0,0,.9.8,1.3,1.2,0,0,0,0,0,0,1.1,1.1,3.2,3.4,4.6,6.4,0,0,0,.1,0,.2.5,1.1.9,2.3,1.2,3.5.4,1.4.6,2.7.7,3.7,0,.6.2,1.1.2,1.7,0,0,0,0,0,.1,0,.7,0,1.5,0,1.6,0,0,0,0,0,.1,0,5.9-2.8,11.3-7.6,14.6-.1.1-.3.2-.4.3-1.3.8-4.6,2.7-9.1,3-.2,0-.9,0-1.7,0h0Z"/>
      </g>
      <g class="st6">
        <path class="st2" d="M30.6,45.7c-2.8,0-5.7-.6-8.2-1.9-.2,0-.4-.2-.6-.3-2-1.1-4.7-3-6.8-6.3,0,0,0-.2-.1-.2-.5-.8-.9-1.7-1.2-2.5-.2-.5-.5-.9-.7-1.4,0,0,0-.1,0-.2-.3-.7-.5-1.4-.7-2,0-.2-.1-.5-.2-.7,0-.1,0-.2,0-.3-.2-.8-.3-1.6-.4-2.5,0-.1,0-.2,0-.3-.5-3.1-.2-6.1.8-8.9,0,0,0,0,0,0,1.4-3.7,3.7-6.2,5.3-7.6,5.3-4.5,12.6-5.2,18.6-2.5,1.5.5,3.4,1.4,5.2,2.7.6.4,1.2.9,1.7,1.3.1,0,.2.2.3.3,1.4,1.4,2.8,3.1,3.8,5,1.6,2.6,2.5,5.6,2.6,8.9,0,5.1-2.1,9.6-5.6,12.8-1,1.2-2.3,2.5-4,3.5,0,0-.2.1-.3.2-2.7,1.7-5.8,2.7-9,2.8-.1,0-.3,0-.4,0,0,0,0,0-.1,0h0ZM40.1,37h0s0,0,0,0Z"/>
      </g>
      <g class="st6">
        <path class="st2" d="M25.1,45.5c-4.3,0-8.4-1.4-11.7-4.2-.1,0-.2-.2-.3-.3-2-1.7-3.4-3.8-4.4-5.9-.3-.5-.6-1-.9-1.5,0-.1-.1-.3-.2-.4-1.9-3.7-2.1-7.3-1.9-9.7,0,0,0,0,0-.1.2-2.5.9-6.2,3.4-9.6,1.1-1.7,2.6-3.4,4.7-4.8.1,0,.2-.2.3-.2,3.1-2.1,6.9-3.1,10.7-3,.1,0,.2,0,.3,0,1.3,0,3.8.4,6.4,1.5,0,0,.2,0,.2.1,1.7.8,3.4,1.9,4.9,3.2,3.5,1.9,6.2,5,7.7,8.8.3.6.5,1.3.6,2,0,0,0,.2,0,.3,1,3,1.2,6.1.6,9-1,5.9-5,10.6-10.3,12.9-2.3,1.1-4.8,1.8-7.5,1.8-.2,0-.4,0-.5,0-.8.1-1.5.2-2.3.2h0Z"/>
      </g>
      <g class="st6">
        <path class="st2" d="M28.7,42.7c-1.2,0-2.5-.1-3.7-.4,0,0-.2,0-.2,0,0,0-.1,0-.2,0-2.2,0-4.5-.3-6.6-.9,0,0-.2,0-.3,0-2.6-.9-5-2.3-7-4.2,0,0-.1-.1-.2-.2-3.1-3.1-4.9-7.2-5.2-11.5,0-.2,0-.3,0-.5,0-1.5,0-3.1.4-4.5.4-2,1-3.9,2-5.7,0,0,0-.2.1-.2,2.3-4,5.8-6.2,7.6-7.1,0,0,.1,0,.2-.1.7-.4,1.5-.7,2.2-.9.4-.3.9-.5,1.3-.7,0,0,0,0,.1,0,2.8-1.3,6-1.9,9.1-1.8.1,0,.2,0,.4,0,.2,0,.5,0,.7,0,1.8.2,3.5.6,5.1,1.2,4.9,1.4,8.9,4.9,11.1,9.6,0,.1.1.2.2.4,1.5,3.5,2,8.5,1.2,12.3,0,0,0,0,0,.1-.5,2.3-1.5,4.5-3,6.7-1.6,2.3-3.6,4-4.7,4.8-3.1,2.5-6.9,3.8-10.8,3.8h0ZM41.2,37.3s0,0,0,0c0,0,0,0,0,0Z"/>
      </g>
      <g class="st6">
        <path class="st2" d="M30,44.6c-1.7,0-3.5-.2-5.1-.7-1.3,0-2.7,0-4-.2-1-.1-2-.3-2.9-.6-4.5-1.3-8.5-4.4-10.8-8.6,0,0,0-.1-.1-.2-1.3-2.4-1.8-4.7-2-6.1-.4-2.3-.3-4.5,0-6.6.1-1,.4-2,.7-3.1,0,0,0-.2,0-.2,1.7-4.7,4.9-7.6,6.7-8.9,4-2.9,9-3.9,13.7-3,1.7,0,3.4.3,4.9.8,1-.1,2-.2,3.1-.1,2.3.1,4.5.7,6.5,1.6.4.2.9.4,1.3.7,6.5,3.6,9.9,10.8,8.7,18h0c-.1.7-.2,1.2-.4,1.8-.7,3-1.9,5.1-2.7,6.3-.3.4-.5.8-.8,1.2,0,0,0,0,0,0-.3.3-.5.6-.8,1-.5.6-1.1,1.2-1.7,1.8-1.6,1.4-3.3,2.5-5.1,3.3-1.7.8-3.4,1.2-5.2,1.5-.4,0-.9.2-1.3.2,0,0-.2,0-.3,0-.8.1-1.5.2-2.4.2,0,0,0,0-.1,0h0Z"/>
      </g>
      <g class="st6">
        <path class="st2" d="M28.2,40.8c-1.8,0-3.7-.3-5.5-.8-3.1-.3-6-1.5-8.5-3.3-3.3-2-6-5.2-7.4-9-2.5-7.2,0-15.2,6.1-19.6.8-.9,1.7-1.7,2.6-2.4l.2-.2c2-1.6,4.3-2.7,6.7-3.3.6-.2,1.2-.3,1.8-.4,1.7-.3,3.5-.3,5.2,0,.9,0,1.9.3,2.8.5,4.7,1.2,8.7,4.4,11,8.7,1.2,2.4,1.9,4.9,2,7.4.3,1,.4,2.1.5,3.2,0,.2,0,.4,0,.6.1,4-1.2,7.1-1.8,8.4-2.8,6.4-9.1,10.3-15.8,10.4h0Z"/>
      </g>
      <g class="st6">
        <path class="st2" d="M28.9,46c-.5,0-1,0-1.5,0-1.9,0-3.9-.1-5.8-.7-.1,0-.2,0-.3,0-.9-.3-1.5-.5-1.9-.7-.2,0-.4-.1-.6-.2-1.2-.4-2.3-.9-3.4-1.6-1.3-.8-2.4-1.7-3.5-2.7,0,0,0,0-.1-.1-2-2-3.1-3.4-4.1-5.1-4-7.1-2.4-15.8,3.5-21.1.6-1.1,1.3-2,1.7-2.6,0,0,0,0,0,0,1.6-2,3.4-3.3,4.1-3.8,0,0,0,0,.1,0,1.3-.9,2.9-1.8,4.5-2.4,0,0,0,0,0,0,.8-.3,2.8-1,5.2-1.3,0,0,.1,0,.2,0,1.5-.2,3.2,0,3.9,0,0,0,0,0,0,0,2.3.2,5.5.9,8.6,2.8,2.3,1.2,5.9,3.8,8.1,8.4,0,0,0,.1,0,.2,1,2.2,1.4,4.3,1.6,5.8,1.1,3.1,1.3,6.5.4,9.8-.3,1.3-.8,2.5-1.3,3.5,0,.2-.2.4-.3.7,0,0,0,0,0,.1-1.8,3.7-4.5,6-6,7,0,0,0,0,0,0-2,1.4-4.6,2.5-4.6,2.6,0,0,0,0,0,0-.5.2-1.1.4-1.7.6-1.1.4-2.5.8-4.1,1,0,0,0,0-.1,0-.8,0-1.4.1-1.9.1h0c-.1,0-.2,0-.4,0-.1,0-.2,0-.3,0h0ZM19.5,44.6s0,0,0,0c0,0,0,0,0,0,0,0,0,0,0,0h0Z"/>
      </g>
      <g class="st6">
        <path class="st2" d="M26.7,45c-1.9,0-4-.3-5.8-.8,0,0,0,0,0,0-.3,0-.7-.2-1.1-.3-1.1-.3-2.3-.7-3.4-1.3,0,0,0,0,0,0-1.7-.9-3.6-2.1-5-3.5,0,0-.1-.1-.2-.2-2.5-2.5-4.2-5.6-5-9,0,0,0-.2,0-.3-.6-3-.3-6.2-.2-6.8,0,0,0,0,0-.1.1-.9.3-1.8.6-2.7,0-.4.1-.7.2-.9,0,0,0,0,0,0,.5-2.3,1.6-4.9,2.9-6.9,0,0,0,0,0-.1,1-1.6,2.4-3.2,3.8-4.5,0,0,0,0,0,0,2.1-1.8,4.7-3.2,7.4-4,0,0,.1,0,.2,0,3.3-.9,6.3-.7,7.7-.5,0,0,.1,0,.2,0,2.2.3,4.1,1,5.5,1.6,1.4.4,3.8,1.1,6.1,2.7,0,0,0,0,0,0,1.1.7,3.8,2.8,5.8,6,0,0,.1.2.2.3,1.8,3.1,2.7,6.8,2.5,10.4,0,0,0,.1,0,.2-.1,1.5-.5,3.9-1.5,6.3,0,0,0,.1,0,.2-.7,1.6-1.8,3.4-3,5-.8,1.1-1.7,2.2-2.7,3.2,0,0-.1.1-.2.2h0c-1.2,1.2-2,1.8-2.3,1.9,0,0,0,0,0,0-1.5,1.1-3.1,1.8-4.1,2.3,0,0,0,0,0,0-1.2.5-4.5,1.7-8.2,1.8,0,0,0,0,0,0,0,0-.1,0-.2,0Z"/>
      </g>
      <g class="st6">
        <path class="st2" d="M32.4,43.9c-.9,0-2.1,0-3.2-.1,0,0-.1,0-.2,0-.2,0-.5,0-.8,0-.9,0-2.1-.2-3.5-.4,0,0-.1,0-.2,0-.4,0-.7-.1-1.1-.2-.1,0-.2,0-.4,0,0,0-.2,0-.3,0-1.4-.2-4.2-.9-7-2.7-.1,0-.3-.2-.4-.3-1.9-1.3-3.4-2.9-4.6-4.8-2-2.8-3-6.2-3.1-9.7,0-2.1.1-4.5,1-7.1,0,0,0-.2,0-.3,1.8-4.7,5-7.2,6.1-8.1,1.2-.9,2.4-1.7,4-2.4,0,0,.2-.2.2-.2,6.7-6.3,17.1-6.4,23.9-.2,0,0,.9.8,1.3,1.2,0,0,0,0,0,0,1.1,1.1,3.2,3.4,4.6,6.4,0,0,0,.1,0,.2.5,1.1.9,2.3,1.2,3.5.4,1.4.6,2.7.7,3.7,0,.6.2,1.1.2,1.7,0,0,0,0,0,.1,0,.7,0,1.5,0,1.6,0,0,0,0,0,.1,0,5.9-2.8,11.3-7.6,14.6-.1,0-.3.2-.4.3-1.3.8-4.6,2.7-9.1,3-.2,0-.9,0-1.7,0h0Z"/>
      </g>
      <g class="st6">
        <path class="st2" d="M20.1,40.5c-6.4,0-12.8-3.2-16.3-9.1C-1.5,22.6,1.4,11.1,10.3,5.9l2-1.2c8.9-5.3,20.4-2.4,25.7,6.5,5.3,8.8,2.4,20.3-6.5,25.6l-2,1.2c-3,1.8-6.2,2.6-9.4,2.6Z"/>
      </g>
      <g class="st6">
        <path class="st2" d="M25,39.1c-.9,0-1.9,0-2.9-.2l-1.2-.2c-10.3-1.5-17.4-10.9-15.9-21.1C6.6,7.5,16.1.4,26.3,1.9l1.2.2c10.3,1.5,17.4,10.9,15.9,21.1-1.3,9.2-9.3,15.9-18.4,16h0Z"/>
      </g>
      <g class="st6">
        <path class="st2" d="M21.5,43.1c-1,0-2,0-3-.2-2.6-.4-5-1.4-7-2.8-.6-.3-1.1-.7-1.7-1,0,0-.1,0-.2-.1-2-1.4-4.7-3.8-6.5-7.7,0,0,0,0,0,0-.4-.8-.6-1.4-.8-2-1.3-3.8-1.2-7.6,0-11.1.5-1.7,1.2-3.4,2.2-5,0,0,0,0,0-.1.5-1,1.1-2.3,2.2-3.6,0,0,.1-.2.2-.3,3-3.7,7.5-6,12.2-6.3,4.8-.4,9.6,1.3,13.2,4.5.1.1.3.2.4.4,1.8,1.7,3.1,3.7,3.3,4.1,0,0,0,0,0,0,1.2,1.9,1.9,3.8,2.2,4.8,0,0,0,0,0,0,.8,2.5,1.1,5.2,1,7.7,0,0,0,0,0,.1,0,.4,0,.7-.1,1.3h0c-.2,1.9-.7,3.8-1.4,5.6-.3.8-.7,1.6-1.1,2.4,0,0,0,.2-.1.3-3,5.7-8.9,9.2-15.2,9.2h0Z"/>
      </g>
      <g class="st6">
        <path class="st2" d="M21.5,41.9c-2.9,0-5.9-.6-8.4-1.8,0,0-.2,0-.3-.1-3.7-1.8-6.9-5.2-8.6-9,0,0,0-.2-.1-.3-1.6-3.8-1.6-7.4-1.3-9.8,0,0,0,0,0-.1,0-.3,0-.6.1-.8,0-.3,0-.6.2-.9.2-.9.3-1.5.4-1.8,0,0,0,0,0-.1.6-2.2,2.3-6.3,6.3-9.4,0,0,.2-.2.3-.2,3.3-2.5,7.5-3.7,11.6-3.5.2,0,.4,0,.5,0,3.2.3,6.3,1.4,9,3.2,0,0,.2.1.3.2,3.8,2.8,5.7,6.6,6.5,8.7.2.4.3.8.5,1.2,0,.1,0,.3.1.4,1.1,3.2,1.2,6.7.4,9.9,0,.1,0,.2,0,.4-.6,2.2-2.1,6.3-6,9.5,0,0-.2.2-.3.2-1.4,1.1-4.2,3-8.1,3.8,0,0-.1,0-.2,0-1,.2-2,.3-3,.3h0Z"/>
      </g>
      <g class="st6">
        <path class="st2" d="M23.5,44.4c-2.7,0-5.3-.5-7.7-1.6-.1,0-.3-.1-.4-.2-2.2-1.1-4-2.5-6.1-4.7-3.2-2.1-5.5-5.1-6.8-8.7-1-2.9-1.3-6.1-.7-9.1,0-.2,0-.4.1-.6.7-3.1,2.2-5.9,4.5-8.3,0,0,.1-.2.2-.3.7-.9,1.7-2.1,3.1-3.3,3.5-3.7,8.5-5.7,13.5-5.5,5.2-.4,10.2,1.4,13.9,5,.2.2.3.3.5.5,3.3,3.5,5,8.1,4.8,13.1,0,0,0,0,0,.1,0,1.3-.6,6.1-.6,6.5,0,0,0,0,0,0-.4,3.1-1.3,5.8-2.6,8,0,0,0,.1-.1.2-1.1,1.8-3.5,5.1-7.9,7.1-.1,0-.3.1-.4.2-2.2,1-4.7,1.5-7.1,1.5h0ZM7.9,9.8s0,0,0,0c0,0,0,0,0,0ZM7.9,9.8s0,0,0,0c0,0,0,0,0,0Z"/>
      </g>
      <g class="st6">
        <path class="st2" d="M24.8,45.4c-.6,0-1.1,0-1.7,0-2.1-.1-4.5-.5-7-1.7,0,0-.2,0-.2-.1-4.5-2.2-6.7-5.6-7.5-6.8-.8-1.3-1.4-2.6-2-4.2,0,0-.1-.2-.2-.3C.4,25.1,1.4,14.7,8.3,8.7c0,0,.9-.8,1.3-1.1,0,0,0,0,0,0,1.2-1,3.8-2.9,6.9-4,0,0,.1,0,.2,0,1.1-.4,2.4-.7,3.6-.8,1.4-.2,2.7-.3,3.8-.3.6,0,1.2,0,1.7,0,0,0,.1,0,.2,0,.7,0,1.5,0,1.6,0,0,0,0,0,.1,0,5.9.5,11.1,3.8,13.9,8.9,0,.2.2.3.2.5.7,1.3,2.3,4.9,2.1,9.3,0,.5-.1,2.8-.6,4.8,0,0,0,.1,0,.2,0,.2,0,.5-.2.8-.2.9-.4,2-.7,3.4,0,0,0,.1,0,.2,0,.4-.2.7-.3,1,0,.1,0,.2,0,.3,0,0,0,.2,0,.2-.4,1.4-1.3,4.1-3.4,6.7-.1.1-.2.3-.3.4-1.5,1.7-3.2,3.1-5.2,4.1-2.5,1.4-5.4,2.1-8.3,2.2h0Z"/>
      </g>
      <g class="st6">
        <path class="st2" d="M24.7,40.2c-2.8,0-5.4-.5-7.8-1.7,0,0,0,0,0,0-3.6-1.7-5.8-4.2-7.1-6-4-5.7-4-13-.7-18.6.7-1.5,1.7-3.2,3.3-4.9.5-.5,1-1.1,1.5-1.6.1,0,.2-.2.3-.3,1.5-1.3,3.4-2.4,5.3-3.3,2.7-1.3,5.9-2,9.1-1.7,5.1.4,9.4,3,12.3,6.7,1.1,1.1,2.2,2.5,3.2,4.3,0,0,0,.2.1.3,1.4,2.8,2.1,6,1.9,9.2,0,.1,0,.3,0,.4-.2,2.8-1.2,5.6-2.7,8-.1.2-.3.4-.4.6-1.2,1.8-3.4,4.3-6.9,6,0,0-.2,0-.3.1-.9.4-1.7.7-2.6,1-.5.2-1,.4-1.4.5,0,0-.1,0-.2,0-.7.2-1.4.4-2.1.5-.2,0-.5,0-.7.1-.1,0-.2,0-.4,0-.8.1-1.7.2-2.5.2-.1,0-.2,0-.3,0-.3,0-.6,0-.9,0h0ZM38.1,12.8s0,0,0,0c0,0,0,0,0,0Z"/>
      </g>
      <g class="st6">
        <path class="st2" d="M24.7,46c-1.3,0-2.4,0-3.3-.2,0,0,0,0-.1,0-2.5-.4-6.1-1.5-9.3-4.3-1.6-1.2-3.1-2.9-4.4-5.1,0-.1-.1-.2-.2-.4-1.8-3.3-2.5-7.2-2-10.9,0-.1,0-.2,0-.4.2-1.2.7-3.7,2.1-6.2,0,0,0-.1.1-.2,1-1.7,2.2-3.2,3.7-4.5,2.3-3.3,5.6-5.7,9.6-6.8.7-.2,1.3-.3,2-.4,0,0,.2,0,.3,0,3.2-.8,6.3-.6,9.2.3,5.7,1.6,10,6,11.8,11.4,1,2.5,1.3,5.3,1,8.1.2,5-1.7,9.9-5.4,13.4,0,0-.2.2-.3.3-1.9,1.8-4.2,3-6.4,3.8-.5.3-1,.5-1.5.7-.1,0-.3.1-.4.2-2.4.9-4.6,1.2-6.6,1.2Z"/>
      </g>
      <g class="st6">
        <path class="st2" d="M24,46.1c-.3,0-.5,0-.8,0-.2,0-.3,0-.5,0-1.5,0-3-.4-4.5-.9-2-.5-3.9-1.4-5.5-2.6,0,0-.1-.1-.2-.2-3.8-2.7-5.6-6.3-6.4-8.2,0,0,0-.1,0-.2-.3-.7-.5-1.5-.7-2.3-.2-.5-.4-.9-.6-1.4,0,0,0,0,0-.1-1-2.9-1.3-6.1-.9-9.2,0-.1,0-.2,0-.3,0-.2,0-.5.1-.7.3-1.7.9-3.4,1.7-4.9,1.9-4.7,5.8-8.4,10.7-10.1.1,0,.3,0,.4-.1,3.7-1.2,8.7-1.2,12.4,0,0,0,0,0,.1,0,2.2.7,4.4,1.9,6.4,3.5,2.2,1.8,3.7,4,4.4,5.1,2.9,4.4,3.6,9.8,2.1,14.6,0,0,0,.2,0,.2,0,0,0,.1,0,.2-.1,2.2-.7,4.5-1.5,6.4,0,0,0,.2-.1.3-1.1,2.5-2.8,4.7-4.9,6.5,0,0-.1,0-.2.1-3.2,2.6-7.2,4-11.3,4.1h0ZM38.5,11.8s0,0,0,0c0,0,0,0,0,0Z"/>
      </g>
      <g class="st6">
        <path class="st2" d="M25,46.7c-2,0-3.8-.2-5.5-.8-.9-.2-2-.6-3-1,0,0-.1,0-.2,0-4.6-2.1-7.2-5.6-8.3-7.5-2.5-4.2-3.1-9.3-1.7-13.8.2-1.7.6-3.3,1.3-4.8,0-1,0-2,.2-3,.3-2.3,1.1-4.4,2.2-6.3.2-.4.5-.8.8-1.2C14.8,2.1,22.4-.7,29.5,1.2h0c.6.2,1.2.3,1.8.5,2.9.9,4.9,2.4,6,3.3.4.3.7.6,1.1.9,0,0,0,0,0,0,.3.3.6.6.9.9.6.6,1.1,1.2,1.6,1.8,1.3,1.7,2.2,3.5,2.8,5.4.6,1.7.9,3.5,1,5.3,0,.4,0,.9.1,1.3,0,0,0,.2,0,.2,0,.8,0,1.5,0,2.4-.1,1.8-.6,3.5-1.2,5.1,0,1.3-.2,2.7-.6,4-.2.9-.5,1.9-.8,2.8-1.7,4.4-5.2,8-9.6,9.9,0,0-.2,0-.2,0-2.5,1.1-4.8,1.3-6.3,1.4-.4,0-.7,0-1,0h0Z"/>
      </g>
      <g class="st6">
        <path class="st2" d="M21.6,45.3c-6.1,0-11.9-3.1-15.1-8.4-.8-.9-1.5-1.8-2.1-2.7h0s0,0,0,0l-.2-.3c-1.5-2.2-2.4-4.6-2.7-7,0-.6-.2-1.1-.2-1.7-.1-1.7,0-3.5.5-5.1.2-.9.4-1.8.8-2.7,1.7-4.6,5.2-8.2,9.8-10,2.5-1,5.1-1.4,7.6-1.2,1.1-.2,2.2-.2,3.3-.2.2,0,.4,0,.6,0,4.1.2,7,1.9,8.3,2.6,7.9,4.3,11,13.9,7.5,22-.6,3-2.1,5.8-4.2,8.1-2.3,3.1-5.7,5.4-9.8,6.4-1.3.3-2.7.5-4,.5h0Z"/>
      </g>
      <g class="st6">
        <path class="st2" d="M26,46.1c-5.4,0-10.7-2.4-14-6.9-1.1-.7-1.9-1.5-2.4-2,0,0,0,0,0,0-1.8-1.8-3-3.7-3.5-4.4,0,0,0,0,0-.1-.8-1.4-1.5-3.1-2-4.6,0,0,0,0,0,0-.2-.8-.7-2.9-.8-5.3,0,0,0-.1,0-.2,0-1.5.2-3.2.3-3.9,0,0,0,0,0-.1.4-2.2,1.4-5.3,3.6-8.2,1.4-2.1,4.4-5.5,9.2-7.2,0,0,.1,0,.2,0,2.3-.8,4.4-1,5.9-1,0,0,0,0,0,0,3.2-.8,6.6-.6,9.9.5,1.3.5,2.4,1,3.4,1.6.2.1.4.2.6.4,0,0,0,0,.1,0,3.5,2.1,5.5,5.1,6.4,6.6,0,0,0,0,0,0,1.2,2.1,2.1,4.8,2.1,4.8,0,0,0,0,0,0,.2.6.3,1.1.5,1.7.3,1.2.6,2.6.6,4.2,0,0,0,0,0,.1,0,.8,0,1.4,0,1.9h0c0,.2,0,.3,0,.4,0,.6-.1,1.2-.2,1.8,0,1.9-.5,3.8-1.2,5.6,0,0,0,.2-.1.3-.4.9-.7,1.5-.9,1.8,0,.2-.2.3-.3.5-.5,1.1-1.2,2.2-1.9,3.2-.9,1.2-1.9,2.3-3.1,3.2,0,0,0,0-.1.1-2.1,1.8-3.7,2.8-5.5,3.6-2.2,1-4.5,1.4-6.8,1.4h0ZM43.8,33.9s0,0,0,0c0,0,0,0,0,0,0,0,0,0,0,0h0ZM43.8,33.8s0,0,0,0c0,0,0,0,0,0Z"/>
      </g>
      <g class="st6">
        <path class="st2" d="M25.9,45.8c-2.5,0-4.7-.4-5.2-.5,0,0,0,0-.1,0-.9-.2-1.8-.5-2.7-.8-.4,0-.7-.2-.9-.3,0,0,0,0,0,0-2.3-.8-4.8-2.1-6.7-3.5,0,0,0,0-.1,0-1.5-1.2-3-2.7-4.1-4.2,0,0,0,0,0,0-1.6-2.2-2.8-5-3.3-7.7,0,0,0-.1,0-.2-.6-3.3-.1-6.3.2-7.7,0,0,0-.1,0-.2.5-2.2,1.4-4,2.2-5.3.5-1.3,1.5-3.6,3.3-5.8,0,0,0,0,0,0,.8-1,3.1-3.5,6.5-5.1,0,0,.2,0,.3-.1,3.3-1.5,7.1-2,10.7-1.5,0,0,.1,0,.2,0,1.5.3,3.8.8,6.1,2.1,0,0,.1,0,.2,0,1.6.8,3.3,2.1,4.7,3.4,1.1.9,2,1.9,2.9,3,0,0,.1.1.2.2h0c1,1.4,1.5,2.3,1.7,2.5,0,0,0,0,0,0,1,1.6,1.5,3.2,1.9,4.3,0,0,0,0,0,0,.4,1.3,1.3,4.6,1,8.3,0,0,0,0,0,0-.2,1.9-.6,4-1.3,5.8,0,0,0,0,0,0-.1.3-.3.7-.4,1-.4,1.1-.9,2.2-1.6,3.2,0,0,0,0,0,0-1,1.6-2.5,3.3-4,4.6,0,0-.1.1-.2.2-2.7,2.2-6,3.6-9.5,4.1,0,0-.2,0-.2,0-.6,0-1.1,0-1.7,0h0Z"/>
      </g>
      <g class="st6">
        <path class="st2" d="M25.2,43.8c-.6,0-1.1,0-1.7,0-2.1-.1-4.5-.5-7-1.7,0,0-.2,0-.2-.1-4.5-2.2-6.7-5.6-7.5-6.8-.8-1.2-1.4-2.6-2-4.2,0,0-.1-.2-.2-.3C.9,23.5,1.8,13.1,8.7,7.1c0,0,.9-.8,1.3-1.1,0,0,0,0,0,0,1.2-1,3.8-2.9,6.9-4,0,0,.1,0,.2,0,1.1-.4,2.4-.7,3.6-.8,1.4-.2,2.7-.3,3.8-.3.6,0,1.2,0,1.7,0,0,0,.1,0,.2,0,.7,0,1.5,0,1.6,0,0,0,0,0,.1,0,5.9.5,11.1,3.8,13.9,8.9,0,.1.2.3.2.4.7,1.3,2.3,4.9,2.1,9.3,0,.5-.1,2.8-.6,4.8,0,0,0,.1,0,.2,0,.2,0,.5-.2.8-.2.9-.4,2-.7,3.4,0,0,0,.1,0,.2,0,.4-.2.7-.3,1,0,.1,0,.2,0,.4,0,0,0,.1,0,.2-.6,2.4-1.8,4.7-3.4,6.7-.1.1-.2.3-.3.4-1.5,1.7-3.2,3.1-5.2,4.1-2.5,1.4-5.4,2.1-8.3,2.2h0Z"/>
      </g>
      <path class="st0" d="M11.4,35.3c3.5,0,6.2-2.7,6.2-5.9s-2.9-5.8-6.3-5.8c-3.5,0-6.2,2.7-6.2,5.9,0,3.2,2.9,5.8,6.3,5.8Z"/>
      <path class="st0" d="M41.7,35.6c3.5,0,6.2-2.7,6.2-5.9,0-3.2-2.9-5.8-6.3-5.8-3.5,0-6.2,2.7-6.2,5.9,0,3.2,2.9,5.8,6.3,5.8Z"/>
      <path class="st1" d="M22.5,19.7c0,4.4-3.6,7.9-8.2,8-4.6,0-8.3-3.5-8.4-7.8,0-4.4,3.6-7.9,8.2-8,4.6,0,8.3,3.5,8.4,7.8Z"/>
      <path class="st3" d="M22.5,19.7c0,4.4-3.6,7.9-8.2,8-4.6,0-8.3-3.5-8.4-7.8,0-4.4,3.6-7.9,8.2-8,4.6,0,8.3,3.5,8.4,7.8Z"/>
      <path class="st7" d="M19.7,19.3c0,3-2.4,5.4-5.4,5.4-3,0-5.4-2.4-5.5-5.3,0-3,2.4-5.4,5.4-5.4,3,0,5.4,2.4,5.5,5.3Z"/>
      <path class="st3" d="M19.7,19.3c0,3-2.4,5.4-5.4,5.4-3,0-5.4-2.4-5.5-5.3,0-3,2.4-5.4,5.4-5.4,3,0,5.4,2.4,5.5,5.3Z"/>
      <path class="st1" d="M44.9,19.5c0,4.4-3.6,7.9-8.2,8-4.6,0-8.3-3.5-8.4-7.8,0-4.4,3.6-7.9,8.2-8,4.6,0,8.3,3.5,8.4,7.8Z"/>
      <path class="st3" d="M44.9,19.5c0,4.4-3.6,7.9-8.2,8-4.6,0-8.3-3.5-8.4-7.8,0-4.4,3.6-7.9,8.2-8,4.6,0,8.3,3.5,8.4,7.8Z"/>
      <path class="st7" d="M42,19.1c0,3-2.4,5.4-5.4,5.4-3,0-5.4-2.4-5.5-5.3,0-3,2.4-5.4,5.4-5.4,3,0,5.4,2.4,5.5,5.3Z"/>
      <path class="st3" d="M42,19.1c0,3-2.4,5.4-5.4,5.4-3,0-5.4-2.4-5.5-5.3,0-3,2.4-5.4,5.4-5.4,3,0,5.4,2.4,5.5,5.3Z"/>
      <g class="st5">
        <g>
          <path class="st7" d="M18.6,29.2c2.6,2.6,6.6,3.2,10.1,2.2,1-.3,2-.7,2.9-1.3.4-.2.6-.9.3-1.3-.3-.4-.8-.6-1.3-.3-.4.2-.7.4-1.1.6,0,0-.1,0-.2,0,0,0,.1,0,0,0,0,0-.2,0-.3.1-.2,0-.4.2-.6.2-.4.1-.8.2-1.2.3-.2,0-.4,0-.6.1-.2,0,0,0,0,0,0,0-.1,0-.2,0-.1,0-.2,0-.3,0-.4,0-.8,0-1.2,0-.2,0-.4,0-.5,0,0,0-.1,0-.2,0,0,0,.2,0,0,0-.1,0-.2,0-.3,0-.4,0-.8-.2-1.1-.3-.2,0-.3-.1-.5-.2,0,0,0,0-.1,0,0,0,.2,0,0,0,0,0-.2,0-.3-.1-.4-.2-.8-.4-1.1-.6,0,0-.2-.1-.3-.2.2.1,0,0-.1,0-.2-.1-.3-.3-.5-.5-.3-.3-1-.4-1.3,0-.3.4-.4,1,0,1.3Z"/>
          <path class="st9" d="M18.6,29.2c2.6,2.6,6.6,3.2,10.1,2.2,1-.3,2-.7,2.9-1.3.4-.2.6-.9.3-1.3-.3-.4-.8-.6-1.3-.3-.4.2-.7.4-1.1.6,0,0-.1,0-.2,0,0,0,.1,0,0,0,0,0-.2,0-.3.1-.2,0-.4.2-.6.2-.4.1-.8.2-1.2.3-.2,0-.4,0-.6.1-.2,0,0,0,0,0,0,0-.1,0-.2,0-.1,0-.2,0-.3,0-.4,0-.8,0-1.2,0-.2,0-.4,0-.5,0,0,0-.1,0-.2,0,0,0,.2,0,0,0-.1,0-.2,0-.3,0-.4,0-.8-.2-1.1-.3-.2,0-.3-.1-.5-.2,0,0,0,0-.1,0,0,0,.2,0,0,0,0,0-.2,0-.3-.1-.4-.2-.8-.4-1.1-.6,0,0-.2-.1-.3-.2.2.1,0,0-.1,0-.2-.1-.3-.3-.5-.5-.3-.3-1-.4-1.3,0-.3.4-.4,1,0,1.3Z"/>
        </g>
      </g>
    </g>
  </g>
</svg>