<svg width="51" height="49" viewBox="0 0 51 49" fill="none" xmlns="http://www.w3.org/2000/svg">
<g clip-path="url(#clip0_937_4825)">
<g opacity="0.55">
<path d="M29.3512 40.2907C23.5824 40.2907 17.8975 37.603 14.2648 32.5454L12.3627 29.8985C6.35864 21.5403 8.23919 9.8764 16.5625 3.84717C24.887 -2.18335 36.5009 -0.294902 42.5049 8.06329L44.4071 10.7102C50.4111 19.0684 48.5306 30.7323 40.2073 36.7615C36.9192 39.1428 33.1174 40.2894 29.3512 40.2894V40.2907Z" fill="#FFEA4B"/>
</g>
<g opacity="0.55">
<path d="M29.9973 44.4225C29.6425 44.4225 29.2865 44.4123 28.9267 44.3919C18.6796 43.8071 10.8446 34.9931 11.427 24.703L11.5236 22.9985C12.1047 12.7084 20.8831 4.84052 31.1302 5.42531C41.3772 6.01011 49.2122 14.8241 48.6299 25.1142L48.5332 26.8188C47.9725 36.7475 39.7777 44.4225 29.9973 44.4225Z" fill="#FFEA4B"/>
</g>
<g opacity="0.55">
<path d="M25.1716 39.6881C24.9351 39.6881 24.6541 39.6868 24.2917 39.6829H24.2752C22.2408 39.6676 20.2356 39.3152 18.2801 38.6296C17.4727 38.3908 16.6475 38.0869 15.8197 37.7038C15.6735 37.6362 15.5273 37.5659 15.3836 37.4944C8.47296 34.6509 4.11934 27.6589 4.69787 20.1269C4.9064 17.4098 5.7405 14.8599 7.06159 12.628C7.38583 11.8542 7.74948 11.0983 8.13347 10.4076C8.16144 10.3565 8.19069 10.3054 8.21993 10.2543C9.23332 8.47315 11.5309 5.14954 15.5273 2.8972C15.54 2.88953 15.554 2.88187 15.5667 2.87549C16.2622 2.48605 16.8814 2.19876 17.6558 1.86168C21.3469 0.255414 25.2924 0.0511197 28.9009 1.01513C30.7955 1.35094 32.7129 1.99319 34.6227 2.93167C34.7498 2.99423 34.877 3.05935 35.0041 3.12447C35.0652 3.15639 35.1555 3.20236 35.2584 3.25343C36.3443 3.59435 37.8549 4.18808 39.4811 5.24658C39.5841 5.31425 39.6871 5.38193 39.7888 5.45087C43.6923 8.11309 46.3739 12.3279 47.1445 17.0152C47.9252 21.7599 46.7122 26.6911 43.8157 30.5433C43.7063 30.6876 43.5957 30.8319 43.4825 30.9723C41.7673 33.1111 39.4926 34.8578 39.3959 34.9318C39.3654 34.9548 39.3362 34.9778 39.3056 35.0008C37.2916 36.5189 35.1809 37.4715 34.3671 37.8111C34.357 37.8149 34.3468 37.82 34.3366 37.8239C31.6957 38.9181 28.742 39.5757 26.0197 39.6753C25.9816 39.6766 25.9421 39.6778 25.904 39.6791C25.6815 39.6855 25.4602 39.6881 25.1729 39.6881H25.1716Z" fill="#FFEA4B"/>
</g>
<g opacity="0.55">
<path d="M25.257 39.7442C24.339 39.7442 23.4222 39.6765 22.5194 39.5386C22.3987 39.5208 22.2779 39.5003 22.1583 39.4799C19.8671 39.0803 15.4804 37.8685 11.8477 34.2538C11.76 34.167 11.6735 34.0776 11.5871 33.9895C10.3601 32.7139 8.13747 29.9968 7.04652 26.1203C7.03127 26.0654 7.01601 26.0092 7.00075 25.9531C5.81317 21.5671 6.52394 16.9935 7.58564 14.1755C7.61997 14.0823 7.65685 13.9904 7.69245 13.8984C9.99006 8.10413 14.7404 5.10866 16.1416 4.32851C16.223 4.28254 16.3043 4.23786 16.387 4.19444C20.3299 2.08255 24.3441 1.88336 26.3861 1.95487C26.4242 1.95614 26.4637 1.95742 26.5018 1.9587C26.807 1.97146 27.107 1.98679 27.3995 2.00722C27.8102 2.03148 28.2387 2.06723 28.6723 2.11958C29.2991 2.1898 29.8891 2.27791 30.4358 2.38516C30.4854 2.39538 30.5363 2.40431 30.5859 2.41453C32.4321 2.7912 37.1189 4.08847 40.7439 7.99432C40.824 8.08114 40.9041 8.16924 40.983 8.25735C43.7294 11.3422 45.3925 15.4894 45.5451 19.6365C45.5515 19.8102 45.5553 19.9838 45.5566 20.1575C45.5782 23.3726 44.7008 26.6834 43.0873 29.4797C43.0301 29.5793 42.9716 29.6789 42.9118 29.7772C40.304 34.0955 36.2288 36.45 34.2923 37.3795C33.846 37.6349 33.3895 37.8698 32.9203 38.0869C32.7945 38.1443 32.6686 38.2018 32.5414 38.2567C30.2756 39.2373 27.7631 39.7442 25.2583 39.7442H25.257Z" fill="#FFEA4B"/>
</g>
<g opacity="0.55">
<path d="M29.7291 43.1942C27.2751 43.1942 23.0715 43.1125 22.582 43.0895C22.5705 43.0895 22.5603 43.0895 22.5489 43.0882C20.1407 42.972 16.6351 42.5354 13.6166 41.1193C13.5378 41.0823 13.4589 41.0453 13.3814 41.007C11.4703 40.0736 7.90118 37.8826 5.47897 33.6843C5.40141 33.5502 5.32639 33.4162 5.25264 33.2808C2.82026 28.7915 2.35743 23.0329 4.04726 18.2512C4.0943 18.1196 4.14262 17.9881 4.19221 17.8566C5.11913 15.423 6.5127 13.3021 8.9756 10.5914C9.05062 10.4956 9.17269 10.336 9.30747 10.1496C9.40156 10.0053 9.53125 9.8023 9.63679 9.63631C11.4309 6.21566 14.2905 3.49216 17.8367 1.86547C20.6671 0.564368 23.8102 0.0408641 26.9241 0.349859C27.1136 0.369012 27.3018 0.390718 27.49 0.414978C30.8467 0.860595 33.85 2.21149 36.627 4.53023C36.7223 4.58769 36.8355 4.65536 36.9677 4.73197C37.0949 4.80603 37.2221 4.88264 37.3467 4.96053C38.8419 5.88879 40.2965 7.04305 41.4727 8.23179C45.7716 11.4469 48.3172 16.4815 48.3922 21.8314C48.4418 22.0881 48.4863 22.3434 48.5244 22.5988C49.2975 27.6844 47.8925 32.8199 44.6692 36.6874C44.5332 36.8509 44.3933 37.013 44.2509 37.1714C41.0353 40.7516 36.4528 42.8801 31.3477 43.1674C31.307 43.1699 31.2663 43.1712 31.2256 43.1738C30.9256 43.1891 30.389 43.1942 29.7265 43.1942H29.7291Z" fill="#FFEA4B"/>
</g>
<g opacity="0.55">
<path d="M29.098 45.6445C28.0033 45.6445 26.6504 45.6074 25.4933 45.4619C25.4412 45.4555 25.3903 45.4491 25.3382 45.4414C24.9682 45.3917 24.4672 45.3444 23.8849 45.2908C22.6807 45.1771 21.1829 45.0367 19.4308 44.7443C19.3774 44.7354 19.3227 44.7264 19.2693 44.7162C18.7137 44.6179 18.1961 44.517 17.7219 44.4161C17.5502 44.3944 17.3455 44.3651 17.1179 44.328C17.0467 44.3166 16.9755 44.3038 16.903 44.291C14.4745 43.8607 11.9124 42.8265 9.87543 41.4526C9.72794 41.353 9.58298 41.2521 9.4393 41.1487C7.60452 39.8272 6.05329 38.1698 4.83901 36.2635C2.85292 33.3613 1.7785 29.8895 1.8052 26.3323C1.70475 24.1412 1.91073 21.5122 2.88343 18.8538C2.91395 18.7721 2.94446 18.6904 2.97498 18.6087C4.59996 14.3644 7.37057 11.8784 9.3236 10.3743C10.8392 9.20473 12.557 8.24838 14.8585 7.29203C15.2107 6.88982 15.5858 6.50039 15.9812 6.12627C22.6248 -0.160885 33.0041 -0.136624 39.6197 6.18118C39.6312 6.19267 40.8162 7.32523 41.2739 7.78744C41.2841 7.79766 41.2943 7.80787 41.3045 7.81809C42.548 9.07833 44.8519 11.678 46.3129 14.9352C46.3383 14.9914 46.3625 15.0476 46.3867 15.1037C46.9131 16.3116 47.3276 17.6153 47.6175 18.9521C48.0638 20.5929 48.2532 22.1149 48.3193 23.3559C48.4338 24.0097 48.519 24.7056 48.5622 25.441C48.5647 25.487 48.5673 25.5342 48.5698 25.5802C48.6105 26.4038 48.6207 27.4763 48.6207 27.5223C48.6207 27.5695 48.6207 27.618 48.6207 27.6653C48.6207 33.5885 45.7484 39.0764 40.937 42.3464C40.7946 42.4434 40.6509 42.5379 40.5047 42.6298C39.2166 43.4496 35.7289 45.3802 31.1668 45.6023C31.1019 45.6062 30.2386 45.647 29.0955 45.647L29.098 45.6445Z" fill="#FFEA4B"/>
</g>
<g opacity="0.55">
<path d="M28.9126 48.6718C26.0581 48.6718 23.2048 47.9862 20.6529 46.6864C20.452 46.5842 20.2536 46.4782 20.0566 46.3672C18.0972 45.2704 15.3406 43.2683 13.3341 39.9612C13.2858 39.8821 13.2375 39.8016 13.1904 39.7212C12.6157 38.738 12.1694 37.7549 11.8236 36.81C11.5121 36.2418 11.2311 35.6609 10.9844 35.071C10.9628 35.0199 10.9424 34.9688 10.9208 34.9177C10.6347 34.2142 10.4071 33.5221 10.2266 32.8582C10.1401 32.576 10.0625 32.2913 9.99007 32.0053C9.9621 31.8942 9.9354 31.7818 9.90997 31.6695C9.70017 30.754 9.56285 29.818 9.498 28.8732C8.93345 25.63 9.17504 22.2413 10.2851 19.2215C10.2965 19.1909 10.3079 19.1615 10.3181 19.1309C11.7206 15.3783 14.0665 12.8756 15.7869 11.4354C21.234 6.87833 28.657 6.27694 34.5987 9.31326C36.2085 9.85337 38.3573 10.7995 40.4489 12.4173C41.0885 12.8603 41.7039 13.3506 42.2901 13.8869C42.3918 13.9801 42.4922 14.0733 42.5914 14.1691C44.1121 15.6272 45.5324 17.6038 46.5687 19.6506C48.1898 22.2847 49.1244 25.39 49.1244 28.7136C49.1244 33.9384 46.8128 38.6218 43.161 41.7884C42.0536 43.1636 40.618 44.5655 38.7833 45.7517C38.6968 45.8079 38.6116 45.8615 38.5239 45.9164C35.8181 47.598 32.5809 48.5748 29.4072 48.6655C29.2762 48.6693 29.1453 48.6718 29.0143 48.6718C28.98 48.6718 28.9444 48.6718 28.91 48.6718H28.9126Z" fill="#FFEA4B"/>
</g>
<g opacity="0.55">
<path d="M21.0232 48.2122C16.7523 48.2122 12.5932 46.6902 9.31651 43.8684C9.21733 43.7829 9.11815 43.696 9.02025 43.6079C6.89048 41.6876 5.3367 39.2399 4.29407 36.8879C3.86939 36.2776 3.48031 35.6417 3.13319 34.9816C3.06071 34.845 2.99078 34.7071 2.92212 34.5692C1.04156 30.7591 0.859738 26.9937 1.03775 24.5051C1.04156 24.4566 1.04538 24.4081 1.04919 24.3596C1.26153 21.7025 2.08165 17.9077 4.70858 14.3938C5.83767 12.6229 7.39654 10.834 9.54665 9.34138C9.65854 9.2635 9.7717 9.18688 9.88487 9.11283C13.042 7.0303 16.8934 5.98457 20.7308 6.16971C20.8478 6.17482 20.966 6.18248 21.083 6.19014C22.371 6.27824 24.9306 6.60767 27.5956 7.80917C27.6668 7.8411 27.738 7.87429 27.8093 7.90749C29.8246 8.8498 31.7827 10.2671 33.3759 11.9129C37.1726 13.8218 40.2026 17.1122 41.7589 21.2377C42.0475 22.0012 42.2802 22.7788 42.4595 23.5628C42.532 23.7582 42.6019 23.9561 42.668 24.1553C43.698 27.2452 43.8086 30.4207 43.1499 33.3843C42.0488 39.2794 37.9978 44.0497 32.6677 46.2063C30.337 47.3746 27.7253 48.0207 25.0094 48.0207C24.6648 48.0207 24.319 48.0105 23.9719 47.9888C23.7951 48.0105 23.6311 48.0296 23.4785 48.0462L23.4327 48.0513C22.6291 48.1599 21.8243 48.2135 21.0232 48.2135V48.2122ZM23.7938 47.9964C23.7366 48.0054 23.6794 48.0143 23.6222 48.022C23.5904 48.0271 23.5599 48.0309 23.5294 48.0347C23.6349 48.0207 23.7239 48.0066 23.7951 47.9952L23.7938 47.9964Z" fill="#FFEA4B"/>
</g>
<g opacity="0.55">
<path d="M26.2547 44.3179C24.692 44.3179 23.1268 44.1046 21.6086 43.6782C21.189 43.7203 20.7771 43.7471 20.374 43.7599C20.3155 43.7612 20.257 43.7637 20.1998 43.765C17.9098 43.8122 15.4597 43.4509 13.2994 42.7422C13.2066 42.7116 13.1125 42.6797 13.0196 42.6478C10.4385 41.7514 7.94634 40.1898 6.00349 38.2516C5.94881 38.198 5.89541 38.1431 5.842 38.0882C2.7637 34.9331 0.940359 30.7616 0.707674 26.34C0.698774 26.174 0.692416 26.008 0.688602 25.8433C0.650456 24.2383 0.83101 22.549 1.20356 20.9479C1.58883 18.813 2.2996 16.8275 3.31934 15.0335C3.36512 14.9531 3.41089 14.8739 3.45794 14.7935C5.95263 10.5672 9.79256 8.30587 11.3273 7.52955C11.3934 7.49635 11.4595 7.46316 11.5256 7.43123C12.4564 6.9754 13.4367 6.60129 14.4641 6.30889C15.1214 5.90286 15.8093 5.51725 16.4959 5.19677C16.5379 5.17761 16.5786 5.15846 16.6205 5.13931C19.4649 3.83693 22.9069 3.20106 26.0678 3.39514C26.1861 3.40281 26.3043 3.41047 26.4226 3.42068C26.6756 3.44111 26.9273 3.46792 27.1778 3.49857C29.0965 3.68626 30.9275 4.18934 32.6148 4.95927C32.6237 4.96183 32.6326 4.96438 32.6415 4.96693C37.6881 6.39699 41.8395 10.0143 44.0303 14.8931C44.0837 15.0118 44.1359 15.1306 44.1855 15.2493C45.0157 17.2144 45.4646 19.1973 45.6858 21.8787C45.8982 24.4413 45.8028 26.3795 45.3705 28.3574C45.3616 28.3995 45.3527 28.4404 45.3425 28.4812C44.7386 31.1473 43.6578 32.9872 43.1377 33.872C42.7385 34.5526 42.502 34.9293 42.2146 35.3468C40.4739 37.8724 38.2806 39.6216 37.1248 40.4414C37.1121 40.4503 37.0994 40.4592 37.0854 40.4695C37.0778 40.4746 37.0701 40.4797 37.0625 40.4861C33.927 43.0359 30.0934 44.3204 26.2534 44.3204L26.2547 44.3179ZM38.6951 38.9717C38.6951 38.9717 38.69 38.9768 38.6875 38.9794C38.69 38.9768 38.6926 38.9743 38.6951 38.9717Z" fill="#FFEA4B"/>
</g>
<g opacity="0.55">
<path d="M28.1205 47.0796C25.9208 47.0796 23.7656 46.657 21.7604 45.8552C19.9218 46.1118 18.0413 46.0697 16.1963 45.7185C15.1613 45.6113 14.1276 45.4083 13.1066 45.1057C8.5711 43.7637 4.63961 40.5358 2.32039 36.2482C2.28224 36.1767 2.2441 36.1052 2.20595 36.0337C0.928091 33.5898 0.483065 31.326 0.238937 29.6278C0.144845 28.9766 0.0787272 28.3471 0.0393105 27.7572C-0.0814823 25.9058 0.0710981 24.2306 0.390245 22.738C0.531382 21.6476 0.779325 20.4805 1.20019 19.2458C1.22562 19.1718 1.25105 19.0977 1.27775 19.0236C3.00573 14.1768 6.41844 11.1724 8.29773 9.8138C12.4708 6.79663 17.6929 5.85815 22.5347 7.08009C25.0511 7.05966 27.4682 7.59593 29.6641 8.5842C31.1835 8.24712 32.7704 8.11433 34.3877 8.21137C36.7069 8.34926 38.9054 8.9481 40.8927 9.9185C41.3479 10.1266 41.7968 10.3565 42.2392 10.608C48.6006 14.224 51.9891 21.4841 50.6884 28.7072L50.6782 28.7647C50.518 29.6546 50.3997 30.2739 50.2535 30.8778C49.6508 33.6511 48.4887 35.7822 47.4499 37.3361C47.132 37.8328 46.7988 38.3065 46.4555 38.7483C46.4339 38.7764 46.411 38.8045 46.3894 38.8338C46.1148 39.1837 45.8363 39.5105 45.5261 39.8566C44.9221 40.5537 44.2978 41.1947 43.6621 41.7731C42.0828 43.2057 40.3104 44.291 38.4374 45.0316C36.6039 45.8794 34.6522 46.3889 32.675 46.5549C32.1092 46.694 31.537 46.8051 30.9585 46.8881C30.8809 46.8996 30.8033 46.9098 30.727 46.92C29.9374 47.0222 29.1224 47.0745 28.2324 47.0809C28.1955 47.0809 28.1573 47.0809 28.1205 47.0809V47.0796Z" fill="#FFEA4B"/>
</g>
<g opacity="0.55">
<path d="M25.5644 41.5726C23.5072 41.5726 21.4219 41.1998 19.4015 40.4184C15.9455 40.1605 12.6612 38.8581 9.97454 36.7104C6.53894 34.6688 3.81538 31.4333 2.4536 27.4163C-0.0817758 19.943 2.75876 11.7303 9.27776 7.42612C10.6726 5.84795 11.9962 4.71156 12.6701 4.1689L13.0579 3.85735C15.0631 2.24726 17.3213 1.15812 19.6698 0.577153C20.2699 0.421379 20.8993 0.291141 21.5592 0.191547C23.3482 -0.0778658 25.1334 -0.0587132 26.8588 0.220915C27.8557 0.310294 28.85 0.487774 29.8303 0.755911C34.5146 2.03403 38.4435 5.24145 40.6458 9.58526C41.9808 12.2181 42.595 15.0718 42.5174 17.8937C42.9103 19.2024 43.1519 20.5584 43.2333 21.94C43.2447 22.1353 43.2523 22.3294 43.2574 22.5248C43.3604 26.6413 42.0075 29.6904 41.2802 31.3286C38.4295 37.7562 32.147 41.5726 25.5644 41.5726Z" fill="#FFEA4B"/>
</g>
<g opacity="0.55">
<path d="M26.5272 49C25.8012 49 25.0917 48.9923 24.3886 48.9604C22.3541 49.0779 20.2969 48.8493 18.3197 48.2594C18.2218 48.2301 18.1251 48.2007 18.0285 48.1701C17.1105 47.8789 16.4467 47.584 16.0513 47.4078C16.0271 47.3976 16.0017 47.3861 15.975 47.3733C15.6584 47.2456 15.3316 47.1103 14.9998 46.9634C13.7791 46.5408 12.5928 45.9752 11.4624 45.2627C10.1197 44.4174 8.89783 43.4432 7.72423 42.2864C7.67973 42.243 7.63523 42.1983 7.59072 42.1536C4.97015 39.5131 3.91862 38.0115 3.0718 36.4461C-0.953779 29.0124 1.00688 19.8434 7.47502 14.6888C7.61997 14.4436 7.77128 14.1997 7.93021 13.9571C8.75288 12.4339 9.58953 11.309 10.0409 10.7459C10.0676 10.7127 10.0943 10.6795 10.121 10.6463C11.8096 8.56632 13.7575 7.09923 14.5166 6.56551C14.5522 6.53998 14.5891 6.51444 14.6247 6.49018C16.0386 5.51085 17.7831 4.59152 19.4119 3.96842C19.4399 3.95821 19.4678 3.94672 19.4958 3.9365C20.1417 3.69263 22.4533 2.878 25.0459 2.61625C25.0955 2.61114 25.1438 2.60604 25.1934 2.6022C26.7319 2.4592 28.5756 2.52304 29.439 2.59965C29.4771 2.60348 29.514 2.60604 29.5521 2.60987C31.9871 2.84353 35.401 3.58665 38.6243 5.7228C40.7719 6.88728 44.7746 9.59929 47.0175 14.5113C47.0404 14.5611 47.0633 14.6109 47.0849 14.6607C48.1707 17.0982 48.5357 19.4029 48.6514 20.907C48.659 21.013 48.6666 21.1189 48.673 21.2249C48.6781 21.3168 48.6832 21.4126 48.687 21.5096C49.9826 24.832 50.2586 28.5642 49.3011 32.2096C48.94 33.5847 48.4352 34.8258 47.8503 35.9367C47.741 36.1946 47.6113 36.4844 47.4574 36.7985C47.4345 36.8458 47.4104 36.893 47.3875 36.9403C45.423 40.8716 42.3803 43.2964 41.1635 44.1557C41.1368 44.1748 41.1101 44.1927 41.0834 44.2119C39.2117 45.5193 36.3966 46.8383 35.799 47.095C35.7749 47.1052 35.7507 47.1154 35.7265 47.1256C35.1035 47.3899 34.4589 47.6248 33.7989 47.8279C32.6101 48.2722 31.1746 48.6693 29.5216 48.8621C29.4771 48.8672 29.4339 48.8723 29.3894 48.8774C28.615 48.9617 27.992 48.977 27.3893 48.9923H27.3334C27.2075 48.9975 27.0816 48.9987 26.957 48.9987C26.8133 48.9987 26.6709 48.9987 26.5285 48.9987L26.5272 49ZM16.064 47.4091C16.0716 47.4129 16.0793 47.4154 16.0869 47.418C16.0793 47.4154 16.0716 47.4116 16.064 47.4091ZM16.0144 47.3886C16.0144 47.3886 16.0233 47.3925 16.0284 47.3937C16.0182 47.3899 16.0093 47.3861 15.9992 47.3822C16.0043 47.3848 16.0093 47.3861 16.0144 47.3886ZM15.9076 47.3452C15.9178 47.349 15.928 47.3542 15.9394 47.358C15.9292 47.3542 15.9191 47.349 15.9089 47.3452H15.9076Z" fill="#FFEA4B"/>
</g>
<g opacity="0.55">
<path d="M23.3756 47.5955C21.387 47.5955 19.1847 47.2801 17.3067 46.726C17.2902 46.7209 17.2724 46.7158 17.2559 46.7107C16.8287 46.583 16.3658 46.4247 15.903 46.251C14.6773 45.9241 13.3905 45.4696 12.1444 44.8427C12.1152 44.8286 12.0872 44.8133 12.058 44.7992C10.2563 43.8799 8.31848 42.483 6.87405 41.0645C6.81556 41.007 6.75707 40.9483 6.69986 40.8908C4.20771 38.3704 2.50262 35.1604 1.77024 31.6095C1.75244 31.5239 1.73591 31.4397 1.71938 31.3541C1.07345 27.9679 1.56044 24.163 1.58205 24.0021C1.58587 23.9689 1.59096 23.9357 1.59604 23.9025C1.74354 22.8261 1.98766 21.7561 2.31826 20.7129C2.40726 20.1664 2.49881 19.7017 2.58146 19.348C2.58781 19.3199 2.59417 19.2918 2.6018 19.2637C3.21212 16.7075 4.44548 13.7618 5.82379 11.5746C5.84668 11.5388 5.86956 11.5031 5.89245 11.4673C6.95161 9.81383 8.51811 7.99178 9.98288 6.71239C10.0109 6.68813 10.0388 6.66387 10.0668 6.63961C12.2093 4.79202 15.0218 3.28918 17.7823 2.51797C17.8497 2.49882 17.9171 2.48094 17.9832 2.46307C21.5205 1.52076 24.7743 1.83359 26.0089 2.01234C26.0712 2.02128 26.1348 2.03022 26.1971 2.04043C28.9194 2.46435 31.2208 3.47433 32.5114 4.13828C32.6385 4.16765 32.7644 4.19829 32.889 4.23021L32.931 4.24043C34.0295 4.52133 36.8764 5.37682 39.5797 7.23717C39.6064 7.25632 39.6343 7.27548 39.661 7.29335C40.7838 8.07478 43.6078 10.2556 45.5812 13.6022C45.6307 13.6865 45.6803 13.772 45.7287 13.8576C47.5227 17.0216 48.4077 20.9377 48.1572 24.6009C48.1521 24.6711 48.1471 24.7401 48.142 24.8103C48.011 26.4408 47.627 28.9154 46.545 31.4512C46.5221 31.5061 46.4979 31.561 46.4738 31.6159C45.6778 33.429 44.3211 35.6009 42.9199 37.3591C42.1303 38.5632 41.1754 39.6868 40.059 40.6968C40.0031 40.7478 39.9014 40.8385 39.7984 40.9304L39.6661 41.0492C38.7023 41.9161 37.8199 42.635 37.043 43.1866C37.029 43.1968 37.0163 43.2057 37.0023 43.216C35.3468 44.3843 33.6862 45.1785 32.5839 45.6407C32.5584 45.6509 32.5317 45.6624 32.5063 45.6726C31.4471 46.1106 27.6758 47.5419 23.6147 47.5955C23.588 47.5955 23.5613 47.5955 23.5333 47.5955C23.4812 47.5955 23.4303 47.5955 23.3782 47.5955H23.3756Z" fill="#FFEA4B"/>
</g>
<g opacity="0.55">
<path d="M31.4747 46.0441C30.3799 46.0441 29.027 46.0071 27.87 45.8615C27.8178 45.8551 27.767 45.8488 27.7148 45.8411C27.3448 45.7913 26.8439 45.7441 26.2615 45.6904C25.0574 45.5768 23.5596 45.4363 21.8074 45.1439C21.754 45.135 21.6994 45.1261 21.646 45.1159C21.0903 45.0175 20.5728 44.9167 20.0985 44.8158C19.9269 44.7941 19.7222 44.7647 19.4946 44.7277C19.4234 44.7162 19.3522 44.7034 19.2797 44.6907C16.8511 44.2604 14.289 43.2261 12.2521 41.8522C12.1046 41.7527 11.9596 41.6518 11.816 41.5484C9.98118 40.2268 8.43122 38.5708 7.21693 36.6644C5.22957 33.7609 4.15515 30.2892 4.18313 26.7306C4.08268 24.5396 4.28866 21.9106 5.26136 19.2522C5.29188 19.1705 5.32239 19.0888 5.35291 19.007C6.97789 14.7628 9.7485 12.2768 11.7015 10.7727C13.2172 9.60311 14.935 8.64676 17.2364 7.69041C17.5886 7.2882 17.9637 6.89876 18.3591 6.52465C25.0027 0.237492 35.382 0.261752 41.9976 6.57955C42.0091 6.59105 43.1941 7.7236 43.6519 8.18582C43.662 8.19603 43.6722 8.20625 43.6824 8.21646C44.9259 9.4767 47.2299 12.0763 48.6908 15.3336C48.7163 15.3897 48.7404 15.4459 48.7646 15.5021C49.291 16.71 49.7055 18.0137 49.9954 19.3505C50.4417 20.9912 50.6311 22.5132 50.6973 23.7543C50.8117 24.4081 50.8969 25.1039 50.9401 25.8394C50.9427 25.8854 50.9452 25.9313 50.9478 25.9773C50.9884 26.8009 50.9986 27.8734 50.9986 27.9194C50.9986 27.9666 50.9986 28.0151 50.9986 28.0624C50.9986 33.9856 48.1263 39.4735 43.3149 42.7435C43.1725 42.8405 43.0288 42.935 42.8826 43.0269C41.5946 43.8467 38.1068 45.7773 33.5447 45.9994C33.4798 46.0033 32.6165 46.0441 31.4734 46.0441H31.4747Z" fill="#FFEA4B"/>
</g>
<g opacity="0.55">
<path d="M30.2077 40.2026C24.4388 40.2026 18.754 37.5149 15.1213 32.4573L13.8002 30.6187C7.79614 22.2605 9.67669 10.5965 18 4.5673C26.3245 -1.46194 37.9397 0.42523 43.9437 8.7847L45.2648 10.6233C51.2688 18.9815 49.3883 30.6455 41.065 36.6747C37.7769 39.056 33.9751 40.2026 30.2089 40.2026H30.2077Z" fill="#FFEA4B"/>
</g>
<g opacity="0.55">
<path d="M30.6563 43.0717C30.3016 43.0717 29.9455 43.0615 29.587 43.0411C19.3399 42.4575 11.5049 33.6422 12.086 23.3535L12.1534 22.1698C12.7345 11.8798 21.5117 4.00935 31.7587 4.59542C42.0058 5.17893 49.8408 13.9942 49.2597 24.283L49.1923 25.4666C48.6316 35.3966 40.4367 43.0717 30.6563 43.0717Z" fill="#FFEA4B"/>
</g>
<g opacity="0.55">
<path d="M27.3074 39.3574C27.1293 39.3574 26.9234 39.3574 26.6652 39.3535H26.6309C24.7516 39.3382 22.8609 39.0165 21.0338 38.4074C20.2365 38.1725 19.4189 37.8724 18.5976 37.4906C18.5111 37.451 18.4259 37.4102 18.3407 37.3693C11.542 34.4888 7.271 27.5568 7.84318 20.0937C8.04153 17.5055 8.80698 15.0693 10.02 12.9166C10.2845 12.3139 10.5744 11.7266 10.8821 11.1737C10.91 11.1239 10.938 11.0728 10.9673 11.023C12.1561 8.93539 14.3456 6.01142 18.0254 3.93528C18.0368 3.9289 18.0483 3.92251 18.0597 3.91613C18.8074 3.49733 19.4456 3.21131 19.9848 2.97638C23.606 1.39948 27.4726 1.17092 31.0252 2.07237C32.7507 2.40052 34.4748 2.98404 36.171 3.81909C36.2244 3.8459 36.2778 3.87144 36.3312 3.89825C37.3548 4.25321 38.681 4.82013 40.0796 5.72924C40.1915 5.80202 40.3021 5.87608 40.4115 5.95013C44.3035 8.60851 46.975 12.8119 47.743 17.4826C48.5173 22.1941 47.3132 27.0882 44.4409 30.9098C44.3315 31.0554 44.2196 31.1996 44.1052 31.3414C42.5794 33.2426 40.7217 34.7007 40.3657 34.9727C40.3326 34.9982 40.3008 35.0225 40.2678 35.0468C38.4597 36.4091 36.63 37.2621 35.7005 37.6502C35.6891 37.6553 35.6789 37.6592 35.6675 37.6643C33.272 38.6564 30.5764 39.2539 28.0779 39.3446C28.0397 39.3459 28.0016 39.3472 27.9634 39.3484C27.7524 39.3548 27.5566 39.3574 27.3074 39.3574ZM44.5566 15.7346C44.5566 15.7346 44.5578 15.7422 44.5591 15.746C44.5591 15.7422 44.5578 15.7384 44.5566 15.7346Z" fill="#FFEA4B"/>
</g>
<g opacity="0.55">
<path d="M27.3461 39.3944C26.4484 39.3944 25.5546 39.328 24.6721 39.1939C24.5501 39.1748 24.4267 39.1556 24.3047 39.1339C22.1062 38.7496 17.8887 37.5775 14.3463 34.0521C14.2611 33.9666 14.1759 33.881 14.092 33.7942C12.8967 32.5531 10.7314 29.9037 9.6595 26.1012C9.64297 26.0412 9.62644 25.9825 9.60991 25.9225C8.63085 22.3026 8.84192 18.0316 10.1745 14.496C10.2101 14.4028 10.2457 14.3096 10.2825 14.2164C11.7944 10.4076 14.8587 6.92948 18.4812 4.91335C18.5613 4.86866 18.6414 4.82525 18.7215 4.78183C22.3529 2.83465 25.9475 2.5231 28.3252 2.6061C28.362 2.6061 28.3989 2.60865 28.4371 2.60993C28.7168 2.62142 28.9813 2.63674 29.2292 2.65334C29.5382 2.67249 29.8586 2.69931 30.1854 2.73634C31.1085 2.83338 31.7074 2.95085 31.9642 3.00064C32.01 3.00958 32.0545 3.01852 32.1003 3.02746C34.3101 3.4769 38.5303 4.78311 41.957 8.47573C42.0396 8.56383 42.121 8.65321 42.2011 8.74387C44.9501 11.8325 46.5471 15.8188 46.6984 19.9673C46.7047 20.1409 46.7086 20.3146 46.7098 20.4882C46.7302 23.6459 45.8694 26.8954 44.2863 29.6368C44.2279 29.7389 44.1681 29.8398 44.1071 29.9407C41.6772 33.9589 38.0916 36.1666 36.0419 37.1689C35.6605 37.3821 35.2714 37.5787 34.8747 37.7626C34.7513 37.8201 34.6267 37.875 34.5021 37.9299C32.2745 38.8952 29.8039 39.3944 27.3461 39.3944Z" fill="#FFEA4B"/>
</g>
<g opacity="0.55">
<path d="M30.3783 41.7923C28.457 41.7923 25.5695 41.7285 25.2567 41.7131C25.2478 41.7131 25.2389 41.7131 25.23 41.7131C22.1097 41.5625 19.3582 40.9381 17.0517 39.8553C16.9728 39.8183 16.894 39.7813 16.8164 39.743C14.9499 38.8313 11.4621 36.6862 9.07933 32.5569C9.00304 32.4241 8.92802 32.2913 8.85555 32.1573C6.43588 27.6934 5.99721 22.1851 7.68449 17.4225C7.73027 17.2936 7.77731 17.1659 7.82563 17.0382C8.68262 14.7871 9.9376 12.8182 11.9834 10.5327C13.7737 7.23207 16.5723 4.60306 20.0244 3.01978C22.8319 1.73145 25.9458 1.21177 29.0305 1.51566C29.2161 1.53354 29.4005 1.55524 29.5849 1.5795C32.7484 1.99703 35.6563 3.25344 38.2565 5.32064C38.3455 5.37299 38.4333 5.42662 38.521 5.48152C39.4441 6.05483 40.7677 6.97926 42.0761 8.24971C46.0737 11.3856 48.4769 16.1291 48.6714 21.1905C49.5068 26.3017 48.1831 31.409 44.8811 35.3762C44.7425 35.5422 44.6013 35.7056 44.4564 35.8678C41.2891 39.3944 36.8248 41.4897 31.885 41.768C31.8443 41.7706 31.8024 41.7731 31.7617 41.7744C31.4553 41.7897 30.9619 41.7948 30.3796 41.7948L30.3783 41.7923ZM39.8484 6.72517C39.8484 6.72517 39.8535 6.73027 39.8573 6.73283C39.8548 6.73027 39.8523 6.72772 39.8484 6.72517Z" fill="#FFEA4B"/>
</g>
<g opacity="0.55">
<path d="M30.0417 43.4943C29.1097 43.4943 27.9386 43.4598 26.8731 43.3258C26.8223 43.3194 26.7714 43.313 26.7205 43.3053C26.5667 43.2849 26.2221 43.253 25.9182 43.2236C25.0472 43.1419 23.8546 43.0295 22.4521 42.7959C22.3987 42.7869 22.3466 42.778 22.2932 42.7691C21.9232 42.7039 21.5709 42.6363 21.2365 42.5673C21.1285 42.552 21.0128 42.5341 20.8894 42.515C20.8131 42.5022 20.7381 42.4894 20.6618 42.4767C18.246 42.0515 15.7983 41.0645 13.7665 39.6995C13.6126 39.5961 13.46 39.4901 13.31 39.3816C11.4905 38.0703 9.95704 36.4359 8.76055 34.5603C6.85075 31.7129 5.81066 28.3305 5.81829 24.8627C5.74328 22.8031 5.96197 20.335 6.8889 17.7979C6.91942 17.7136 6.9512 17.6306 6.98299 17.5476C8.76818 12.8859 12.0029 10.3795 13.1002 9.53674C14.2712 8.63402 15.53 7.88196 17.0698 7.17331C17.1525 7.09287 17.2351 7.01243 17.319 6.93327C23.9665 0.647383 34.3483 0.675473 40.9614 6.99711C41.0516 7.08266 41.8476 7.84493 42.2087 8.21011C42.2176 8.21904 42.2265 8.22798 42.2354 8.23692C43.3493 9.36437 45.4193 11.7086 46.7721 14.7271C46.7963 14.782 46.8217 14.8382 46.8459 14.8931C47.3252 15.9924 47.7067 17.1748 47.9813 18.3865C48.3501 19.7706 48.5281 21.0577 48.6031 22.1417C48.6934 22.7163 48.7557 23.2934 48.79 23.8757C48.7926 23.9229 48.7951 23.9714 48.7976 24.0187C48.8307 24.6903 48.8383 25.4998 48.8396 25.5904C48.8396 25.6377 48.8396 25.6837 48.8396 25.7309C48.8396 31.5929 45.9851 37.036 41.203 40.2894C41.0567 40.389 40.9092 40.4861 40.7592 40.5818C39.5131 41.3747 36.1373 43.2415 31.7214 43.4573C31.5077 43.4675 30.8682 43.4956 30.0417 43.4956V43.4943Z" fill="#FFEA4B"/>
</g>
<g opacity="0.55">
<path d="M29.8989 45.596C27.0965 45.596 24.2953 44.9244 21.7905 43.6488C21.601 43.553 21.4141 43.4522 21.2285 43.35C19.3047 42.2788 16.5913 40.3099 14.5912 37.0143C14.5455 36.9377 14.4984 36.8611 14.4539 36.7832C13.9656 35.9482 13.5715 35.1157 13.2549 34.3062C13.0184 33.8516 12.7997 33.3868 12.6026 32.9131C12.581 32.8608 12.5581 32.8072 12.5377 32.7535C12.2567 32.0615 12.033 31.3822 11.8537 30.7297C11.7863 30.4999 11.7227 30.2701 11.6655 30.039C11.6363 29.9241 11.6096 29.8091 11.5828 29.6929C11.3972 28.8834 11.2713 28.0586 11.2014 27.2261C11.1849 27.1201 11.1683 27.0141 11.1531 26.9082C10.7106 23.8233 11.0069 20.8419 12.0342 18.0456C12.0469 18.0124 12.0584 17.9792 12.0711 17.946C13.4507 14.2623 15.7445 11.8134 17.4267 10.4063C22.7606 5.94756 29.9866 5.2785 35.8622 8.10287C37.3804 8.64297 39.2177 9.50867 41.0283 10.894C41.6145 11.309 42.1803 11.7648 42.722 12.259C42.8275 12.356 42.933 12.4543 43.036 12.5539C44.4576 13.9189 45.7545 15.6886 46.7297 17.5553C48.2911 20.155 49.1901 23.2028 49.1901 26.4613C49.1901 31.5214 47.0222 36.0733 43.5675 39.2322C42.5351 40.4503 41.2305 41.6735 39.5992 42.7295C39.5152 42.7844 39.43 42.838 39.3449 42.8904C36.6518 44.5656 33.557 45.4989 30.3947 45.5909C30.265 45.5947 30.1341 45.5973 30.0044 45.5973C29.9701 45.5973 29.9345 45.5973 29.8989 45.5973V45.596ZM39.4428 36.9326C39.4428 36.9326 39.4428 36.9326 39.4415 36.9339C39.4415 36.9339 39.4428 36.9339 39.4428 36.9326Z" fill="#FFEA4B"/>
</g>
<g opacity="0.55">
<path d="M24.4198 45.2768C20.2086 45.2768 16.1055 43.7752 12.872 40.9917C12.7703 40.9036 12.6699 40.8155 12.5694 40.7248C10.6431 38.9871 9.21518 36.8547 8.22086 34.7518C7.90934 34.2768 7.61944 33.7865 7.3537 33.2821C7.28122 33.1442 7.21002 33.0063 7.14136 32.8672C5.31166 29.1579 5.12984 25.5407 5.30022 23.1594C5.30403 23.1121 5.30658 23.0649 5.31039 23.0163C5.51256 20.4818 6.29708 16.862 8.80702 13.4566C9.9056 11.7814 11.4085 10.0935 13.4595 8.66978C13.5726 8.59061 13.6871 8.514 13.8028 8.43739C16.9167 6.38424 20.7032 5.35383 24.4681 5.53514C24.5826 5.54024 24.6983 5.54791 24.8127 5.55557C26.0562 5.64111 28.5306 5.95777 31.1257 7.12608C31.2046 7.16183 31.2834 7.19758 31.3622 7.23461C33.0877 8.04413 34.7266 9.16902 36.1418 10.5008C39.5647 12.4531 42.2832 15.5647 43.7289 19.3952C43.973 20.0413 44.1764 20.6976 44.3417 21.359C44.371 21.4433 44.4002 21.5288 44.4295 21.6144C45.4365 24.6341 45.5662 27.7368 44.9571 30.6429C43.8789 36.4908 39.8966 41.2356 34.6414 43.4292C32.3642 44.5337 29.8262 45.1414 27.1904 45.1414C27.015 45.1414 26.8382 45.1389 26.6615 45.1338C25.9138 45.2295 25.1636 45.2768 24.4185 45.2768H24.4198Z" fill="#FFEA4B"/>
</g>
<g opacity="0.55">
<path d="M28.0532 42.5712C26.8185 42.5712 25.5826 42.4384 24.3696 42.1728C24.292 42.1766 24.2145 42.1792 24.1369 42.1817C24.081 42.183 24.0238 42.1856 23.9678 42.1869C21.7999 42.2354 19.4781 41.8893 17.4297 41.2177C17.3344 41.1871 17.2403 41.1552 17.1462 41.122C14.5879 40.2333 12.2178 38.7496 10.2928 36.8305C10.2356 36.7731 10.1784 36.7156 10.1224 36.6581C7.09115 33.549 5.29578 29.4414 5.06691 25.0887C5.05801 24.9227 5.05166 24.7554 5.04784 24.5894C5.01224 23.0994 5.17245 21.5327 5.50431 20.0388C5.87559 18.0393 6.56602 16.101 7.56669 14.3428C7.60992 14.2662 7.65442 14.1909 7.69893 14.1155C10.0499 10.1254 13.4868 7.96882 15.3254 7.03929C15.3915 7.00609 15.4576 6.97289 15.525 6.93969C16.2371 6.59111 16.9733 6.29106 17.7324 6.0408C18.1634 5.79309 18.6097 5.55687 19.0611 5.3462C19.1043 5.32577 19.1475 5.30661 19.1908 5.28618C21.9627 4.01828 25.1796 3.42455 28.2477 3.61225C28.3647 3.61991 28.4816 3.62757 28.5986 3.63778C28.8262 3.65694 29.0526 3.67992 29.2776 3.70673C31.0336 3.88549 32.7145 4.32983 34.2784 4.9989C39.1165 6.48258 43.0785 9.99772 45.1879 14.6927C45.2413 14.8114 45.2935 14.9314 45.3443 15.0515C46.8447 18.6049 47.2935 23.5463 46.4607 27.3474C46.4518 27.387 46.4429 27.4266 46.434 27.4662C45.9165 29.7543 44.9018 31.9951 43.418 34.1287C41.8045 36.4487 39.8336 38.0537 38.7338 38.8441C35.6224 41.325 31.841 42.5737 28.0544 42.5737L28.0532 42.5712ZM40.4935 37.2263C40.4935 37.2263 40.4885 37.2314 40.4859 37.2353C40.4885 37.2327 40.491 37.2302 40.4935 37.2263Z" fill="#FFEA4B"/>
</g>
<g opacity="0.55">
<path d="M29.3484 44.4903C27.6166 44.4903 25.9115 44.2285 24.2865 43.7254C22.9616 43.8033 21.6266 43.7254 20.3067 43.4931C19.3379 43.3794 18.3715 43.1828 17.4166 42.898C12.9473 41.5701 9.08445 38.4036 6.81609 34.2117C6.77794 34.1415 6.7398 34.07 6.70292 33.9985C5.42888 31.5635 5.00038 29.3227 4.78804 27.8505C4.45618 25.5432 4.50577 23.3445 4.93426 21.2658C5.07794 20.3082 5.3119 19.2727 5.68445 18.1784C5.70988 18.1031 5.73658 18.0278 5.76328 17.9524C7.44294 13.2409 10.7171 10.354 12.5188 9.05158C16.5049 6.17103 21.4473 5.18659 26.1023 6.17103C27.7883 6.22466 29.426 6.52599 30.9759 7.04567C31.9702 6.9282 32.9849 6.89755 34.0135 6.95756C36.3048 7.09419 38.4791 7.68026 40.4461 8.63022C40.8835 8.83196 41.3158 9.05414 41.7405 9.29546C48.1018 12.9102 51.4916 20.169 50.1922 27.3921L50.1858 27.4266C50.0739 28.0471 49.9684 28.6192 49.8171 29.2359C49.1432 32.1956 47.8488 34.3496 47.0515 35.5154C46.7858 35.9176 46.5099 36.3057 46.2225 36.6747C46.2022 36.7003 46.1818 36.7258 46.1615 36.7526C45.8996 37.0872 45.6402 37.3923 45.3617 37.7026C44.815 38.3308 44.2466 38.913 43.6617 39.4442C42.1143 40.8487 40.38 41.9187 38.5477 42.658C36.8859 43.4062 35.1312 43.8774 33.3511 44.0689C32.9277 44.1634 32.5005 44.2413 32.0707 44.3026C31.9817 44.3153 31.8927 44.3281 31.8037 44.3396C31.0509 44.4354 30.2855 44.4852 29.4628 44.4915C29.4247 44.4915 29.3853 44.4915 29.3471 44.4915L29.3484 44.4903Z" fill="#FFEA4B"/>
</g>
<g opacity="0.55">
<path d="M27.5711 40.6674C25.758 40.6674 23.9232 40.3776 22.1304 39.7736C19.08 39.4059 16.1899 38.2222 13.7626 36.3644C10.472 34.3138 7.87173 31.1537 6.55064 27.2567C4.0941 20.0094 6.69305 12.0662 12.7988 7.66875C13.5999 6.80943 14.4645 5.99864 15.3482 5.28872L15.5923 5.09209C17.5987 3.47688 19.862 2.38518 22.213 1.80167C22.803 1.64973 23.4031 1.52843 24.0135 1.43649C25.7402 1.17602 27.4643 1.18496 29.1338 1.43777C30.0671 1.53226 30.9966 1.70463 31.9146 1.95489C36.6001 3.23301 40.529 6.4417 42.73 10.7868C43.9316 13.1592 44.5495 15.709 44.6042 18.2525C44.861 19.2918 45.0238 20.3567 45.0886 21.4382C45.1001 21.6374 45.109 21.8353 45.1141 22.0345C45.2145 26.0808 43.8655 29.1222 43.2895 30.4208C40.4388 36.8496 34.1563 40.6674 27.5737 40.6674H27.5711Z" fill="#FFEA4B"/>
</g>
<g opacity="0.55">
<path d="M28.2392 45.8233C27.7356 45.8233 27.2321 45.8182 26.7223 45.799C24.8125 45.8743 22.8874 45.6407 21.0335 45.0865C20.9242 45.0546 20.8161 45.0201 20.708 44.9857C19.8447 44.7086 19.1962 44.4238 18.8707 44.2783C18.6927 44.2055 18.5083 44.1302 18.3202 44.0485C17.1707 43.6348 16.0531 43.0921 14.985 42.4192C13.7275 41.6263 12.587 40.7197 11.4985 39.6459C11.4553 39.6038 11.4121 39.5604 11.3689 39.517C9.41074 37.5442 8.28037 36.0937 7.33437 34.3458C3.48299 27.2248 5.11814 18.5129 10.948 13.2613C11.5965 12.1249 12.2424 11.2439 12.6976 10.6744C12.7243 10.6412 12.751 10.608 12.7764 10.5761C14.362 8.62382 16.1726 7.2576 16.8783 6.76091C16.9151 6.73409 16.9533 6.70856 16.9902 6.68174C18.3214 5.75987 19.8968 4.92864 21.4264 4.34385C21.4531 4.33364 21.4811 4.32342 21.5078 4.31321C22.2745 4.02464 24.3153 3.32621 26.6803 3.08616C26.7312 3.08106 26.7807 3.07595 26.8316 3.07084C28.3612 2.92911 30.0078 3.00317 30.7389 3.06829C30.7707 3.07084 30.8025 3.0734 30.8343 3.07723C33.0976 3.29429 36.2598 3.98251 39.3228 5.94884C41.5734 7.19759 45.1362 9.78191 47.2418 14.3887C47.2672 14.4437 47.2914 14.4986 47.3155 14.5535C48.3098 16.7892 48.6837 18.8985 48.8184 20.3554C49.8522 23.4607 50.0136 26.8762 49.1376 30.2177C48.7981 31.5124 48.3327 32.6833 47.7949 33.7367C47.7059 33.9384 47.6054 34.1593 47.4897 34.3968C47.4668 34.4441 47.4439 34.49 47.4211 34.5373C45.5888 38.2044 42.8742 40.4746 41.4196 41.5012C41.3979 41.5165 41.3751 41.5331 41.3534 41.5484C39.389 42.921 36.7773 44.06 36.7506 44.0714C36.7264 44.0817 36.701 44.0931 36.6769 44.1034C36.1339 44.3345 35.5706 44.5413 34.9959 44.7239C33.8605 45.1376 32.4911 45.5092 30.9208 45.6918C30.8763 45.6969 30.8305 45.702 30.7847 45.7071C30.0282 45.7888 29.4267 45.8041 28.9436 45.8156H28.9207C28.7999 45.8194 28.6791 45.8207 28.557 45.8207C28.4502 45.8207 28.3434 45.8207 28.2366 45.8207L28.2392 45.8233ZM18.9775 44.323C18.9775 44.323 18.9839 44.3255 18.9877 44.3268C18.9623 44.3166 18.9368 44.3064 18.9114 44.2949C18.9343 44.3038 18.9572 44.314 18.9775 44.3217V44.323Z" fill="#FFEA4B"/>
</g>
<g opacity="0.55">
<path d="M26.0586 44.8478C24.1933 44.8478 22.1271 44.5515 20.3597 44.0306C20.3406 44.0255 20.3228 44.0191 20.3037 44.014C19.963 43.9118 19.612 43.7944 19.2636 43.6692C18.1714 43.3628 17.0271 42.9453 15.898 42.3771C15.8687 42.3618 15.8382 42.3464 15.809 42.3324C14.0848 41.4526 12.3034 40.1681 10.9213 38.8109C10.8628 38.7534 10.8043 38.6947 10.7458 38.6359C8.29438 36.1576 6.61981 33.014 5.90396 29.5436C5.88616 29.4567 5.86835 29.3686 5.85183 29.2805C5.26948 26.2238 5.63058 23.0968 5.70815 22.5005C5.71323 22.466 5.71705 22.4316 5.72213 22.3971C5.84801 21.4841 6.04382 20.575 6.30702 19.6838C6.3706 19.3263 6.43545 19.0122 6.49648 18.7504C6.50283 18.7236 6.50919 18.6968 6.51555 18.67C7.07247 16.3347 8.15833 13.7439 9.42094 11.7393C9.44382 11.7036 9.46671 11.6678 9.4896 11.6321C10.5043 10.0475 11.8927 8.43357 13.299 7.20397C13.3283 7.17843 13.3575 7.1529 13.3868 7.12736C15.4682 5.33212 18.0862 3.93271 20.7577 3.18576C20.8238 3.16788 20.8899 3.14873 20.956 3.13213C24.2276 2.26005 27.1686 2.48477 28.6308 2.69545C28.6918 2.70439 28.7529 2.71333 28.8139 2.72226C31.0174 3.06573 32.898 3.78587 34.2165 4.4128C35.5605 4.7767 37.9395 5.58621 40.2778 7.19631C40.3007 7.21163 40.3235 7.22823 40.3477 7.24483C41.412 7.9854 44.0923 10.0552 45.9919 13.2779C46.0428 13.3647 46.0936 13.4515 46.1419 13.5384C47.9093 16.659 48.7485 20.3618 48.5019 23.9638C48.4968 24.034 48.4917 24.1042 48.4866 24.1744C48.3633 25.7003 48.0009 28.028 46.9672 30.4463C46.9443 30.4986 46.9214 30.551 46.8985 30.6033C46.189 32.2185 45.0802 34.0253 43.8799 35.5651C43.117 36.6939 42.2066 37.7485 41.1526 38.7023C41.1068 38.7445 41.0191 38.8224 40.9351 38.8977L40.8601 38.9654C39.6306 40.0698 38.8372 40.6329 38.5765 40.8181C38.5612 40.8283 38.5473 40.8385 38.532 40.85C36.9948 41.934 35.474 42.6631 34.4683 43.0844C34.4428 43.0947 34.4161 43.1062 34.3907 43.1164C33.1688 43.6207 29.9316 44.8005 26.2811 44.8478C26.2595 44.8478 26.2391 44.8478 26.2188 44.8478C26.1654 44.8478 26.112 44.8478 26.0586 44.8478Z" fill="#FFEA4B"/>
</g>
<g opacity="0.55">
<path d="M31.6915 43.7727C30.7595 43.7727 29.5884 43.7382 28.5229 43.6041C28.4721 43.5977 28.4212 43.5914 28.3703 43.5837C28.2165 43.5633 27.8719 43.5301 27.568 43.502C26.697 43.4203 25.5056 43.3079 24.1044 43.0742C24.051 43.0653 23.9976 43.0564 23.9442 43.0474C23.5742 42.9823 23.2207 42.9146 22.8876 42.8457C22.7795 42.8304 22.6638 42.8125 22.5405 42.7933C22.4502 42.778 22.3599 42.7627 22.2697 42.7474C20.8697 42.4971 18.1144 41.8012 15.3794 39.9511C15.2433 39.8592 15.1073 39.7647 14.9738 39.6676C13.1492 38.355 11.6107 36.7169 10.4116 34.8373C8.50183 31.99 7.46301 28.6076 7.47064 25.1397C7.39562 23.0815 7.61432 20.6134 8.54124 18.0763C8.57176 17.992 8.60355 17.909 8.63533 17.826C10.4193 13.1694 13.6501 10.6617 14.7462 9.81895C15.9185 8.91367 17.1798 8.16033 18.7222 7.45041C18.8035 7.37125 18.8849 7.29208 18.9676 7.21292C25.6112 0.92576 35.9905 0.95002 42.6061 7.26655C42.615 7.27421 43.4771 8.09905 43.856 8.48082C43.8661 8.49104 43.8763 8.50125 43.8865 8.51274C45.0003 9.64019 47.0703 11.9845 48.4245 15.0042C48.4499 15.0604 48.4753 15.1178 48.4995 15.174C48.9776 16.2721 49.359 17.4532 49.6324 18.6636C50.0012 20.049 50.1792 21.336 50.2542 22.4201C50.3445 22.9947 50.4068 23.5718 50.4398 24.154C50.4424 24.2013 50.4449 24.2498 50.4475 24.297C50.4805 24.9687 50.4881 25.7782 50.4894 25.8688C50.4894 25.9161 50.4894 25.962 50.4894 26.0093C50.4894 31.8751 47.6323 37.3195 42.8451 40.5729C42.7053 40.6674 42.5641 40.7606 42.4217 40.8525C41.1744 41.648 37.796 43.5199 33.3712 43.7356C33.1575 43.7459 32.518 43.7739 31.6915 43.7739V43.7727Z" fill="#FFEA4B"/>
</g>
<g opacity="0.55">
<path d="M19.594 40.2741C13.2072 40.2741 6.99084 36.9658 3.53489 31.0298C-1.64648 22.1328 1.33647 10.7038 10.1963 5.50064L12.1455 4.35659C21.0054 -0.845254 32.3866 2.14894 37.568 11.046C42.7493 19.943 39.7664 31.372 30.9066 36.5751L28.9573 37.7191C26.0087 39.4505 22.7804 40.2741 19.594 40.2741Z" fill="#FFEA4B"/>
</g>
<g opacity="0.55">
<path d="M24.4357 38.9564C23.4973 38.9564 22.5462 38.8849 21.59 38.7368L20.4228 38.5568C10.2787 36.9914 3.31853 27.4649 4.87739 17.2783C6.43752 7.09163 15.9242 0.102206 26.0683 1.66761L27.2355 1.84765C37.3796 3.41305 44.3398 12.9396 42.7809 23.1262C41.3695 32.3526 33.4532 38.9552 24.4369 38.9552L24.4357 38.9564Z" fill="#FFEA4B"/>
</g>
<g opacity="0.55">
<path d="M20.9185 42.9249C19.9407 42.9249 18.9528 42.8406 17.9623 42.6682C15.4129 42.2226 13.0683 41.2254 11.0479 39.8043C10.4782 39.4838 9.92511 39.139 9.40761 38.7802C9.35802 38.7458 9.30716 38.71 9.25757 38.6755C7.30327 37.2876 4.61532 34.8208 2.91023 30.9443C2.9026 30.9277 2.89624 30.9123 2.88861 30.8958C2.54785 30.1143 2.32661 29.4542 2.14606 28.8949C0.927956 25.1244 1.07164 21.2377 2.30499 17.7737C2.79452 16.0793 3.53962 14.4092 4.53013 12.7927C4.56064 12.7429 4.59116 12.6931 4.62295 12.6433C5.07814 11.6423 5.77874 10.3527 6.83536 9.02349C6.90656 8.93411 6.97777 8.84601 7.05152 8.75791C10.0599 5.12274 14.4822 2.85508 19.1867 2.53587C23.9333 2.2141 28.6671 3.88676 32.179 7.12355C32.3125 7.24613 32.4434 7.37126 32.5719 7.49767C34.3125 9.20735 35.5802 11.2056 35.8167 11.5887C35.8371 11.6206 35.8562 11.6538 35.8765 11.6857C37.0539 13.6227 37.7253 15.5341 38.0215 16.5007C38.0253 16.5122 38.0279 16.5236 38.0317 16.5351C38.787 19.025 39.1214 21.7766 38.9726 24.283C38.9701 24.3213 38.9675 24.3596 38.965 24.3979C38.9408 24.7593 38.9103 25.0734 38.848 25.6837L38.8429 25.7271C38.6484 27.6053 38.1487 29.4657 37.3705 31.2341C37.0615 32.0079 36.6864 32.7944 36.23 33.5784C36.1817 33.6627 36.1321 33.7457 36.0812 33.8287C33.0487 39.4672 27.1947 42.9261 20.9185 42.9261V42.9249Z" fill="#FFEA4B"/>
</g>
<g opacity="0.55">
<path d="M20.9667 41.7016C18.0994 41.7016 15.1343 41.0415 12.6294 39.803C12.5417 39.7596 12.454 39.7149 12.3675 39.6702C8.73354 37.7958 5.57766 34.3994 3.92344 30.5829C3.88656 30.4987 3.85096 30.4144 3.81536 30.3288C2.23361 26.5136 2.26794 22.8912 2.57564 20.524C2.58073 20.4844 2.58582 20.4448 2.59217 20.4052C2.63159 20.1179 2.67228 19.8473 2.71424 19.5944C2.76128 19.302 2.81596 18.9994 2.87953 18.6917C3.06517 17.7724 3.2381 17.1812 3.31312 16.9297C3.3271 16.8799 3.34236 16.8314 3.35762 16.7816C4.01499 14.6199 5.7099 10.5353 9.68716 7.46447C9.78507 7.38913 9.88552 7.3138 9.9847 7.23974C13.3071 4.78821 17.4077 3.57266 21.5312 3.81398C21.7067 3.8242 21.8834 3.83696 22.0589 3.85356C25.1931 4.13575 28.3338 5.30661 30.9035 7.15292C30.995 7.21931 31.0866 7.28571 31.1768 7.35338C34.9329 10.1663 36.7791 13.9649 37.5776 16.1112C37.7531 16.5147 37.912 16.9246 38.0557 17.3395C38.1002 17.4672 38.1421 17.5949 38.1841 17.7226C39.2 20.8879 39.3106 24.4196 38.4969 27.6679C38.4664 27.7892 38.4346 27.9118 38.4015 28.0318C37.8103 30.1909 36.2476 34.2909 32.4178 37.4945C32.325 37.5723 32.2309 37.649 32.1356 37.7256C30.789 38.8045 27.951 40.7198 24.073 41.4259C24.0221 41.4348 23.9712 41.4437 23.9191 41.4527C22.9629 41.6174 21.9712 41.6991 20.9667 41.6991V41.7016Z" fill="#FFEA4B"/>
</g>
<g opacity="0.55">
<path d="M22.9121 44.2426C20.2864 44.2426 17.6633 43.6859 15.2958 42.575C15.1699 42.5163 15.044 42.455 14.9207 42.3937C12.7719 41.3211 10.9409 39.8796 8.87215 37.617C5.76968 35.5115 3.43139 32.4612 2.19167 28.8592C1.18464 25.9327 0.965944 22.7725 1.56101 19.7221C1.59788 19.5306 1.63857 19.3404 1.6818 19.1514C2.39893 16.0384 3.91965 13.2575 6.21344 10.8596C6.27447 10.7753 6.33677 10.6923 6.39908 10.6093C7.05517 9.74107 8.09908 8.50509 9.48502 7.31763C12.9766 3.62118 17.9062 1.67144 22.9426 1.96384C28.0884 1.61654 33.0256 3.42965 36.6418 7.1095C36.7956 7.26656 36.9469 7.42616 37.0944 7.58832C40.2834 11.0907 41.9312 15.7512 41.7342 20.7091C41.7329 20.7487 41.7303 20.7883 41.7291 20.8291C41.668 22.1443 41.1086 26.9197 41.0501 27.327C41.0488 27.3372 41.0475 27.3474 41.045 27.3589C40.5974 30.4616 39.715 33.1507 38.4232 35.3519C38.3799 35.426 38.3354 35.4988 38.2922 35.5715C37.2114 37.3515 34.7536 40.6329 30.433 42.6222C30.2894 42.6886 30.1457 42.7525 30.0007 42.8138C27.7667 43.7688 25.3381 44.2438 22.9121 44.2438V44.2426ZM7.75323 9.40526C7.75323 9.40526 7.74687 9.41037 7.74433 9.41292C7.74687 9.41037 7.75069 9.40782 7.75323 9.40526ZM7.76721 9.39377C7.76721 9.39377 7.75831 9.40143 7.7545 9.40399C7.75831 9.40016 7.7634 9.39632 7.76721 9.39377Z" fill="#FFEA4B"/>
</g>
<g opacity="0.55">
<path d="M24.1609 45.2283C23.604 45.2283 23.0458 45.2015 22.4876 45.1465C20.4392 45.0252 18.0132 44.5694 15.5871 43.4011C15.5083 43.3628 15.4295 43.3245 15.3519 43.2849C10.9029 41.0568 8.7261 37.5851 7.99499 36.4066C7.21047 35.1476 6.58362 33.8159 6.02924 32.2083C5.95804 32.1202 5.88811 32.0309 5.81817 31.9415C0.221014 24.698 1.23567 14.3262 8.13104 8.31611C8.13994 8.30845 9.03762 7.52702 9.45594 7.181C9.46739 7.17206 9.47756 7.16312 9.489 7.15418C10.7135 6.14931 13.2336 4.30428 16.3564 3.23939C16.4149 3.21897 16.4734 3.19981 16.5319 3.18066C17.666 2.80782 18.874 2.53841 20.0997 2.38136C21.5073 2.14514 22.8004 2.09152 23.8824 2.11961C24.4571 2.08385 25.0319 2.07747 25.6079 2.09918C25.6587 2.10045 25.7096 2.10301 25.7604 2.10556C26.4254 2.13621 27.2303 2.20643 27.3193 2.21409C27.3689 2.21792 27.4172 2.22303 27.4668 2.22814C33.2776 2.78995 38.3979 6.16591 41.166 11.2567C41.2486 11.4086 41.3287 11.5618 41.4076 11.7176C42.0751 13.0404 43.6073 16.5964 43.3975 21.036C43.3758 21.4905 43.2461 23.8821 42.8049 25.8663C42.7935 25.9161 42.782 25.9671 42.7706 26.0169C42.735 26.1689 42.6702 26.5098 42.6129 26.8111C42.4489 27.6743 42.2239 28.8554 41.8577 30.2343C41.8437 30.2867 41.8297 30.339 41.8157 30.3914C41.7153 30.754 41.6148 31.1 41.5144 31.4282C41.4889 31.5354 41.461 31.6491 41.4292 31.7717C41.4076 31.8534 41.3859 31.9364 41.3631 32.0181C40.9829 33.3945 40.0305 36.0861 37.9351 38.6487C37.8257 38.7828 37.7138 38.9143 37.6007 39.0445C36.127 40.7402 34.3571 42.1179 32.3824 43.1355C29.8648 44.5056 27.0345 45.2308 24.1622 45.2308L24.1609 45.2283Z" fill="#FFEA4B"/>
</g>
<g opacity="0.55">
<path d="M24.0877 40.0328C21.3374 40.0328 18.7321 39.4467 16.3315 38.2848C16.2985 38.2695 16.2667 38.2529 16.2336 38.2376C12.7166 36.5087 10.508 33.9844 9.27468 32.1713C5.35845 26.4128 5.38515 19.1207 8.747 13.5141C9.42726 12.0483 10.4623 10.2939 12.0097 8.61617C12.475 8.07224 12.976 7.55384 13.5151 7.06226C13.6232 6.96394 13.7326 6.8669 13.8432 6.77114C15.3334 5.47898 17.2127 4.35153 19.1593 3.5535C21.8867 2.24091 24.993 1.63441 28.2213 1.94596C33.2374 2.42989 37.5415 5.03208 40.3413 8.78727C41.4501 9.93643 42.5397 11.3575 43.4298 13.0902C43.4768 13.1809 43.5226 13.2728 43.5671 13.3635C44.967 16.2108 45.5952 19.3889 45.3854 22.5542C45.3765 22.6869 45.3663 22.821 45.3536 22.9538C45.0993 25.7884 44.1622 28.5604 42.6427 30.9698C42.5194 31.1664 42.391 31.3605 42.26 31.5508C41.0152 33.3588 38.8104 35.8652 35.3723 37.5379C35.2871 37.5787 35.2019 37.6196 35.1167 37.6592C34.2483 38.0639 33.3887 38.3755 32.5623 38.6142C32.0905 38.807 31.6112 38.9794 31.1242 39.1314C31.0657 39.1492 31.0085 39.1671 30.95 39.185C30.2379 39.3995 29.545 39.5578 28.8813 39.674C28.6486 39.72 28.4146 39.7596 28.1794 39.7966C28.0624 39.8145 27.9454 39.8311 27.8272 39.8464C27.0071 39.9536 26.1768 40.0009 25.3452 39.992C25.2397 39.9983 25.1329 40.0047 25.0261 40.0098C24.7107 40.0252 24.3979 40.0328 24.0864 40.0328H24.0877ZM37.6623 12.6842C37.6623 12.6842 37.6686 12.6931 37.6712 12.6982C37.6686 12.6931 37.6648 12.6893 37.6623 12.6842Z" fill="#FFEA4B"/>
</g>
<g opacity="0.55">
<path d="M24.0208 45.7773C22.776 45.7773 21.6635 45.6573 20.7442 45.5002C20.6997 45.4926 20.6539 45.4849 20.6094 45.4772C18.1172 45.0329 14.6041 43.9029 11.4686 41.0696C9.91224 39.8106 8.38262 38.1469 7.16706 35.9609C7.09967 35.8396 7.03356 35.7183 6.96998 35.5958C5.23311 32.2875 4.5732 28.4021 5.11359 24.6571C5.13012 24.5396 5.14919 24.4221 5.16826 24.3047C5.3717 23.07 5.92481 20.6274 7.33236 18.1465C7.37178 18.0775 7.41119 18.0086 7.45061 17.9409C8.41822 16.2887 9.69227 14.7539 11.152 13.463C13.419 10.2224 16.7707 7.80024 20.7149 6.72387C21.3723 6.54511 22.0348 6.40466 22.6997 6.30379C22.79 6.28208 22.879 6.26037 22.9693 6.23867C26.1061 5.51087 29.2404 5.69601 32.0962 6.61916C37.7187 8.28672 41.9859 12.6867 43.6465 18.1005C44.5836 20.644 44.9333 23.43 44.576 26.2493C44.7285 31.2852 42.7603 36.1512 39.1454 39.6433C39.0538 39.7315 38.9623 39.8196 38.8682 39.9051C36.9597 41.6684 34.7053 42.8955 32.5208 43.6909C32.0211 43.9565 31.5075 44.2004 30.9823 44.4174C30.8399 44.4762 30.6975 44.5336 30.5538 44.5885C28.2079 45.4874 25.9548 45.7773 24.0208 45.7773Z" fill="#FFEA4B"/>
</g>
<g opacity="0.55">
<path d="M23.4114 45.9382C23.1571 45.9382 22.9028 45.9331 22.6472 45.9216C22.4756 45.9139 22.3052 45.905 22.1348 45.8922C20.6573 45.7849 19.1239 45.476 17.6769 45.001C15.7303 44.4392 13.8751 43.5632 12.2273 42.3949C12.1535 42.3426 12.0798 42.2902 12.0073 42.2366C8.28306 39.5067 6.47626 35.8703 5.72988 33.9461C5.70191 33.8733 5.67394 33.8018 5.64724 33.729C5.37132 32.9859 5.14499 32.2224 4.96952 31.4409C4.76481 30.9864 4.57409 30.5178 4.40879 30.0466C4.39353 30.0019 4.377 29.9572 4.36175 29.9126C3.3687 27.0205 3.0877 23.748 3.56706 20.6976C3.58486 20.584 3.60393 20.4716 3.62427 20.3592C3.66496 20.1294 3.70946 19.9021 3.75905 19.6761C4.1049 17.9384 4.70505 16.3014 5.51754 14.8024C7.45023 10.1113 11.3105 6.48637 16.1626 4.82648C16.2872 4.78435 16.4118 4.74221 16.5364 4.70263C20.2034 3.54198 25.1457 3.56497 28.8356 4.76136C28.8725 4.77286 28.9081 4.78562 28.945 4.79712C31.1383 5.52491 33.2439 6.73664 35.2059 8.40036C37.384 10.2454 38.8055 12.3969 39.4908 13.583C42.3581 18.0213 42.9646 23.4313 41.421 28.259C41.4172 28.3369 41.4134 28.4135 41.4083 28.4902C41.4045 28.5489 41.4006 28.6076 41.3956 28.6664C41.2341 30.8357 40.6721 33.1225 39.81 35.1055C39.7706 35.1961 39.7312 35.2855 39.6905 35.3761C38.5639 37.8545 36.8614 40.0864 34.7685 41.8293C34.7125 41.8753 34.6566 41.9212 34.6006 41.9672C31.4282 44.5426 27.4802 45.9382 23.4101 45.9382H23.4114ZM38.0579 11.6665C38.0579 11.6665 38.0629 11.6716 38.0655 11.6755C38.0629 11.6729 38.0604 11.6691 38.0579 11.6665Z" fill="#FFEA4B"/>
</g>
<g opacity="0.55">
<path d="M24.3189 46.4885C22.3837 46.4885 20.554 46.2204 18.8362 45.6879C17.8991 45.4517 16.8946 45.1197 15.8456 44.6409C15.7757 44.609 15.7057 44.5771 15.6371 44.5439C11.1283 42.4154 8.57896 38.8683 7.46004 36.9428C4.98442 32.682 4.48091 27.6462 5.90118 23.0853C6.11479 21.4063 6.57126 19.7974 7.23371 18.2984C7.2121 17.2923 7.27822 16.2734 7.43715 15.2506C7.7919 12.9766 8.57896 10.8608 9.70679 8.98644C9.94837 8.56763 10.2103 8.15777 10.49 7.75556C14.6796 1.74293 22.1968 -0.95376 29.2307 1.03173L29.26 1.03939C29.8677 1.21048 30.4297 1.37264 31.0299 1.58332C33.8984 2.53967 35.9099 4.03868 36.9882 4.94652C37.3633 5.2504 37.7205 5.56451 38.06 5.88627C38.0855 5.91053 38.1096 5.93479 38.1351 5.95777C38.4415 6.25272 38.7187 6.54001 38.9997 6.84773C39.568 7.45295 40.0894 8.07477 40.5585 8.70809C41.8033 10.3897 42.6985 12.2271 43.2567 14.1295C43.839 15.8622 44.1378 17.6613 44.1582 19.4591C44.2116 19.8958 44.2484 20.3324 44.2688 20.7717C44.2726 20.8547 44.2764 20.9389 44.279 21.0219C44.3031 21.7842 44.279 22.5554 44.2065 23.3803C44.0488 25.1538 43.6216 26.875 42.9528 28.4889C42.9032 29.8206 42.6998 31.1485 42.3425 32.4445C42.139 33.392 41.8555 34.3291 41.4893 35.2472C39.7486 39.6012 36.2367 43.1713 31.8526 45.0418C31.7775 45.0738 31.7013 45.1057 31.625 45.1363C29.0909 46.1744 26.8327 46.3889 25.3526 46.4604C25.0055 46.477 24.6609 46.4859 24.3189 46.4859V46.4885Z" fill="#FFEA4B"/>
</g>
<g opacity="0.55">
<path d="M20.9697 45.1108C14.9186 45.1108 9.21591 41.888 6.11344 36.5279C5.34418 35.6532 4.6296 34.7186 4.01292 33.7763L4.01038 33.7737L4.00275 33.7622L3.82347 33.4877C2.39175 31.2941 1.52077 28.8873 1.17874 26.4421C1.09355 25.8739 1.03633 25.2981 1.00581 24.7184C0.912995 22.9691 1.08719 21.2492 1.49661 19.6059C1.67971 18.6828 1.93783 17.7698 2.2735 16.8773C3.98749 12.3164 7.54134 8.69659 12.0577 6.90901C14.5257 5.93351 17.1145 5.55812 19.6422 5.74709C20.7052 5.58748 21.7847 5.52747 22.8719 5.56833C23.0588 5.57472 23.2444 5.58493 23.4313 5.59898C27.4569 5.88371 30.3458 7.52445 31.5804 8.22543C39.3594 12.6433 42.3958 22.2336 38.8279 30.2662C38.1719 33.2809 36.7223 36.0567 34.6485 38.3065C32.3026 41.3977 28.9229 43.6948 24.9342 44.6435C23.6106 44.9576 22.2806 45.1095 20.9671 45.1095L20.9697 45.1108Z" fill="#FFEA4B"/>
</g>
<g opacity="0.55">
<path d="M25.3186 45.9165C19.9426 45.9165 14.7587 43.373 11.4808 38.9092C10.4178 38.152 9.60659 37.4242 9.08528 36.9148C9.05349 36.8841 9.0217 36.8522 8.99119 36.8216C7.20854 35.0493 6.02858 33.1098 5.6039 32.3577C5.58101 32.3181 5.5594 32.2786 5.53651 32.2377C4.74945 30.8191 4.0781 29.1656 3.64452 27.5823C3.63689 27.5517 3.62799 27.5223 3.62036 27.4917C3.40802 26.6988 2.91213 24.5958 2.89941 22.2132C2.89941 22.1596 2.89941 22.106 2.89941 22.0524C2.90577 20.5163 3.13464 18.8832 3.26942 18.1605C3.27578 18.1235 3.28341 18.0878 3.28977 18.0507C3.72081 15.8099 4.70622 12.7174 6.94661 9.84704C8.39867 7.71728 11.3028 4.40005 16.0747 2.73505C16.1281 2.71717 16.1803 2.69802 16.2337 2.68014C18.5173 1.90893 20.6216 1.73018 22.0762 1.73018C22.0966 1.73018 22.1156 1.73018 22.136 1.73018C25.3186 0.992163 28.7262 1.15943 31.9609 2.35966C33.2044 2.82187 34.3157 3.39645 35.3037 4.03104C35.4931 4.13702 35.6991 4.25832 35.9191 4.39366C35.9661 4.42303 36.0132 4.4524 36.0602 4.48177C39.5162 6.66133 41.5061 9.58785 42.3847 11.1379C42.4012 11.166 42.4165 11.1941 42.433 11.2235C43.6053 13.32 44.4839 16.0372 44.4928 16.064C44.5005 16.0882 44.5081 16.1112 44.5157 16.1355C44.6937 16.7024 44.845 17.2846 44.9709 17.8784C45.2723 19.0505 45.51 20.4538 45.5406 22.0383C45.5406 22.0766 45.5418 22.1149 45.5418 22.1532C45.552 22.927 45.5088 23.5309 45.4744 24.0149L45.4719 24.0468C45.463 24.1706 45.4528 24.2932 45.4414 24.4171C45.3854 25.0274 45.3244 25.6364 45.243 26.2519C45.1349 28.1671 44.7204 30.0671 43.9944 31.8649C43.9537 31.9645 43.913 32.0628 43.8711 32.1624C43.51 33.0115 43.1616 33.6384 42.9848 33.9551C42.8958 34.1261 42.803 34.3024 42.7051 34.4824C42.1851 35.5894 41.5429 36.6543 40.775 37.6553C39.8696 38.8377 38.8601 39.8924 37.6903 40.8781C37.6432 40.9177 37.5962 40.9572 37.5492 40.9955C35.4067 42.764 33.8605 43.7561 32.0372 44.5349C29.8489 45.4683 27.5666 45.9127 25.3198 45.9139L25.3186 45.9165ZM43.0395 33.8491C43.0268 33.8733 43.0141 33.8976 43.0014 33.9231C43.0064 33.9129 43.0115 33.9027 43.0179 33.8925C43.0255 33.8784 43.0331 33.8644 43.0408 33.8491H43.0395ZM43.0599 33.8108C43.0599 33.8108 43.0599 33.8082 43.0611 33.8069C43.0611 33.8069 43.0611 33.8095 43.0599 33.8108Z" fill="#FFEA4B"/>
</g>
<g opacity="0.55">
<path d="M25.2495 45.6088C22.7789 45.6088 20.6187 45.1427 20.138 45.0316C20.1037 45.024 20.0681 45.015 20.0338 45.0074C19.1412 44.7954 18.26 44.512 17.403 44.1634C17.0546 44.0664 16.7495 43.9719 16.4964 43.885C16.4697 43.8761 16.443 43.8672 16.4163 43.857C14.1556 43.0768 11.6914 41.7438 9.82486 40.2895C9.79053 40.2626 9.7562 40.2358 9.72187 40.209C8.2482 39.0433 6.78215 37.5008 5.69756 35.9788C5.67467 35.9469 5.65179 35.915 5.63017 35.8831C4.04969 33.6282 2.9117 30.8766 2.42853 28.1339C2.41708 28.0701 2.40691 28.0063 2.39547 27.9424C1.84236 24.5882 2.34588 21.668 2.69554 20.2265C2.70953 20.1665 2.72479 20.1065 2.74004 20.0477C3.2906 17.8771 4.18447 16.064 4.93339 14.805C5.42164 13.4975 6.45156 11.1979 8.26854 9.01583C8.29016 8.99029 8.3105 8.96603 8.33211 8.94049C9.16749 7.94839 11.4765 5.47004 14.8486 3.88038C14.9376 3.83824 15.0266 3.79738 15.1169 3.75652C18.3821 2.28688 22.1356 1.80296 25.6856 2.39414C25.7517 2.40563 25.8191 2.41712 25.8852 2.42861C27.3843 2.69675 29.6527 3.28154 31.9477 4.54306C32.0012 4.57242 32.0533 4.60179 32.1067 4.63116C33.6401 5.4943 35.3249 6.77625 36.7362 8.12331C37.7789 8.99157 38.735 9.99899 39.578 11.1405C39.6162 11.1928 39.6874 11.2886 39.7548 11.3831L39.8158 11.4661C40.7936 12.8004 41.2793 13.6533 41.4382 13.9342C41.4459 13.947 41.4522 13.9597 41.4599 13.9712C42.3881 15.612 42.9666 17.2029 43.2883 18.2499C43.2959 18.2767 43.3048 18.3036 43.3124 18.3304C43.6964 19.5995 44.556 22.9474 44.2534 26.5992C44.2508 26.6247 44.2495 26.6503 44.247 26.6745C44.0817 28.5808 43.582 30.6851 42.8763 32.4484C42.87 32.465 42.8623 32.4816 42.856 32.4982C42.7225 32.8289 42.5724 33.1673 42.4148 33.5031C42.0066 34.5628 41.4853 35.666 40.8152 36.7386C40.7949 36.7705 40.7758 36.8024 40.7555 36.8331C39.7179 38.4712 38.2747 40.1286 36.7973 41.3799C36.7362 41.4322 36.6752 41.4833 36.6129 41.5344C33.9211 43.751 30.6419 45.1249 27.13 45.5079C27.0474 45.5168 26.9647 45.5258 26.8833 45.5334C26.3328 45.5858 25.7822 45.6075 25.2482 45.6075L25.2495 45.6088Z" fill="#FFEA4B"/>
</g>
<g opacity="0.55">
<path d="M24.5931 43.6054C24.0362 43.6054 23.478 43.5786 22.9198 43.5237C20.8714 43.4011 18.4454 42.9466 16.0194 41.7782C15.9418 41.7412 15.8643 41.7029 15.7867 41.6646C11.3301 39.434 9.15327 35.9546 8.4247 34.7812C7.64145 33.5248 7.01587 32.193 6.4615 30.588C6.39029 30.4986 6.31909 30.4093 6.24916 30.3173C0.651999 23.0713 1.67047 12.6982 8.56711 6.69069C8.60398 6.65877 9.4775 5.89777 9.88947 5.55814C9.90091 5.5492 9.91109 5.54026 9.92253 5.53132C11.147 4.52645 13.6671 2.68142 16.7899 1.61653C16.8484 1.5961 16.9069 1.57695 16.9654 1.5578C18.0996 1.18496 19.3075 0.915546 20.5332 0.758495C21.9408 0.522279 23.2339 0.467375 24.3159 0.496743C24.8907 0.460991 25.4654 0.454607 26.0414 0.476313C26.0922 0.47759 26.1431 0.480144 26.1952 0.482697C26.8602 0.513342 27.6651 0.583568 27.7541 0.591229C27.8024 0.595059 27.852 0.600167 27.9003 0.605274C33.7111 1.16708 38.8327 4.54305 41.5995 9.63508C41.6783 9.78064 41.7546 9.9262 41.8296 10.073C42.501 11.3984 44.0408 14.9608 43.8297 19.4144C43.8081 19.869 43.6784 22.2605 43.2372 24.2447C43.2257 24.2945 43.2143 24.3456 43.2029 24.3954C43.1673 24.5473 43.1024 24.8882 43.0452 25.1895C42.8812 26.0514 42.6561 27.2338 42.2899 28.6115C42.2759 28.6638 42.2619 28.7162 42.248 28.7685C42.1475 29.1324 42.0471 29.4784 41.9466 29.8053C41.9186 29.9228 41.8869 30.0492 41.8513 30.1845C41.8347 30.2471 41.8182 30.3084 41.8017 30.371C41.1468 32.751 39.9313 35.1093 38.3775 37.0118C38.2643 37.1497 38.1499 37.2863 38.0329 37.4204C36.5593 39.116 34.7893 40.4937 32.8147 41.5114C30.2971 42.8814 27.4667 43.6067 24.5944 43.6067L24.5931 43.6054Z" fill="#FFEA4B"/>
</g>
<path d="M11.0024 35.0031C14.4237 35.0031 17.1971 32.3935 17.1971 29.1744C17.1971 25.9552 14.4237 23.3456 11.0024 23.3456C7.58111 23.3456 4.80762 25.9552 4.80762 29.1744C4.80762 32.3935 7.58111 35.0031 11.0024 35.0031Z" fill="#FFDB27" fill-opacity="0.8"/>
<path d="M41.019 35.5496C44.4403 35.5496 47.2137 32.9399 47.2137 29.7208C47.2137 26.5017 44.4403 23.892 41.019 23.892C37.5977 23.892 34.8242 26.5017 34.8242 29.7208C34.8242 32.9399 37.5977 35.5496 41.019 35.5496Z" fill="#FFDB27" fill-opacity="0.8"/>
<ellipse cx="13.937" cy="19.4361" rx="8.21926" ry="7.91842" fill="white"/>
<ellipse cx="13.9366" cy="19.0762" rx="5.36039" ry="5.39892" fill="#2E2C2C"/>
<ellipse cx="36.0933" cy="19.4361" rx="8.21926" ry="7.91842" fill="white"/>
<ellipse cx="36.0928" cy="19.0762" rx="5.36039" ry="5.39892" fill="#2E2C2C"/>
<g clip-path="url(#clip1_937_4825)">
<path d="M18.1348 28.9665C20.7295 31.5902 24.6523 32.2305 28.0882 31.2151C29.0955 30.9177 30.0729 30.4858 30.9851 29.961C31.4104 29.7167 31.5894 29.0915 31.319 28.6653C31.0485 28.2391 30.4982 28.0648 30.0431 28.3262C29.6812 28.5346 29.31 28.7278 28.9295 28.9002C28.8791 28.9229 28.8269 28.9457 28.7765 28.9684C28.7896 28.9627 28.9071 28.9154 28.8082 28.9551C28.7187 28.9911 28.6273 29.029 28.5378 29.065C28.3307 29.1465 28.1218 29.2203 27.9091 29.2904C27.5137 29.4193 27.1108 29.5272 26.7041 29.6125C26.5139 29.6523 26.3236 29.6845 26.1315 29.7148C26.096 29.7205 25.9393 29.7451 26.1315 29.7148C26.0774 29.7223 26.0214 29.728 25.9673 29.7337C25.8573 29.7451 25.7472 29.7564 25.6372 29.764C25.2249 29.7962 24.8127 29.8019 24.4004 29.7811C24.2232 29.7716 24.046 29.7583 23.8688 29.7375C23.8203 29.7318 23.7662 29.7299 23.7177 29.7186C23.7494 29.7242 23.9173 29.7489 23.7382 29.7205C23.6375 29.7034 23.5368 29.6882 23.4379 29.6693C23.063 29.5992 22.6918 29.5045 22.3281 29.387C22.1583 29.3321 21.9904 29.2715 21.8244 29.2071C21.7778 29.1881 21.7293 29.1692 21.6826 29.1503C21.7144 29.1635 21.8561 29.2279 21.6957 29.1559C21.6024 29.1143 21.511 29.0707 21.4196 29.0271C21.0316 28.8377 20.6586 28.6179 20.306 28.3679C20.224 28.3092 20.1419 28.2485 20.0598 28.1879C20.2165 28.3054 20.0001 28.1368 19.9516 28.097C19.7763 27.9492 19.6103 27.792 19.448 27.6272C19.1066 27.2767 18.4761 27.2502 18.1348 27.6272C17.7934 28.0042 17.7654 28.5933 18.1348 28.9665Z" fill="#2E2C2C"/>
<path d="M18.1348 28.9665C20.7295 31.5902 24.6523 32.2305 28.0882 31.2151C29.0955 30.9177 30.0729 30.4858 30.9851 29.961C31.4104 29.7167 31.5894 29.0915 31.319 28.6653C31.0485 28.2391 30.4982 28.0648 30.0431 28.3262C29.6812 28.5346 29.31 28.7278 28.9295 28.9002C28.8791 28.9229 28.8269 28.9457 28.7765 28.9684C28.7896 28.9627 28.9071 28.9154 28.8082 28.9551C28.7187 28.9911 28.6273 29.029 28.5378 29.065C28.3307 29.1465 28.1218 29.2203 27.9091 29.2904C27.5137 29.4193 27.1108 29.5272 26.7041 29.6125C26.5139 29.6523 26.3236 29.6845 26.1315 29.7148C26.096 29.7205 25.9393 29.7451 26.1315 29.7148C26.0774 29.7223 26.0214 29.728 25.9673 29.7337C25.8573 29.7451 25.7472 29.7564 25.6372 29.764C25.2249 29.7962 24.8127 29.8019 24.4004 29.7811C24.2232 29.7716 24.046 29.7583 23.8688 29.7375C23.8203 29.7318 23.7662 29.7299 23.7177 29.7186C23.7494 29.7242 23.9173 29.7489 23.7382 29.7205C23.6375 29.7034 23.5368 29.6882 23.4379 29.6693C23.063 29.5992 22.6918 29.5045 22.3281 29.387C22.1583 29.3321 21.9904 29.2715 21.8244 29.2071C21.7778 29.1881 21.7293 29.1692 21.6826 29.1503C21.7144 29.1635 21.8561 29.2279 21.6957 29.1559C21.6024 29.1143 21.511 29.0707 21.4196 29.0271C21.0316 28.8377 20.6586 28.6179 20.306 28.3679C20.224 28.3092 20.1419 28.2485 20.0598 28.1879C20.2165 28.3054 20.0001 28.1368 19.9516 28.097C19.7763 27.9492 19.6103 27.792 19.448 27.6272C19.1066 27.2767 18.4761 27.2502 18.1348 27.6272C17.7934 28.0042 17.7654 28.5933 18.1348 28.9665Z" fill="black" fill-opacity="0.2"/>
</g>
</g>
<defs>
<clipPath id="clip0_937_4825">
<rect width="51" height="49" fill="white"/>
</clipPath>
<clipPath id="clip1_937_4825">
<rect width="13.5796" height="4.31914" fill="white" transform="translate(17.8682 27.3546)"/>
</clipPath>
</defs>
</svg>
