<svg width="52" height="50" viewBox="0 0 52 50" fill="none" xmlns="http://www.w3.org/2000/svg">
<g clip-path="url(#clip0_349_6878)">
<g opacity="0.55">
<path d="M29.9883 40.4346C24.1633 40.4853 18.3995 37.8507 14.6874 32.8309L12.7437 30.2038C6.60836 21.9081 8.40576 10.2411 16.7577 4.14561C25.111 -1.95116 36.8546 -0.167057 42.9899 8.12866L44.9336 10.7558C51.069 19.0515 49.2716 30.7185 40.9196 36.814C37.6201 39.2214 33.7912 40.4002 29.9883 40.4333L29.9883 40.4346Z" fill="#FFEA4B"/>
</g>
<g opacity="0.55">
<path d="M30.6764 44.5559C30.3182 44.559 29.9587 44.552 29.5951 44.5347C19.2431 44.0408 11.255 35.3058 11.7535 25.0226L11.8362 23.3191C12.3334 13.0358 21.129 5.09982 31.4811 5.5938C41.8331 6.08778 49.8212 14.8227 49.3228 25.106L49.24 26.8094C48.7602 36.7316 40.5522 44.4699 30.6764 44.5559Z" fill="#FFEA4B"/>
</g>
<g opacity="0.55">
<path d="M25.7627 39.8693C25.5238 39.8714 25.2401 39.8726 24.8741 39.8719L24.8575 39.8721C22.8031 39.8747 20.7753 39.5403 18.7947 38.8726C17.9773 38.6413 17.1414 38.345 16.3023 37.9696C16.154 37.9033 16.0058 37.8345 15.8601 37.7643C8.85732 34.9849 4.4004 28.0393 4.91904 20.5108C5.10596 17.795 5.92601 15.2408 7.24057 12.9998C7.56123 12.2241 7.92185 11.4659 8.30358 10.7725C8.33138 10.7213 8.36046 10.67 8.38955 10.6187C9.39732 8.83068 11.6884 5.4907 15.7041 3.2058C15.7169 3.19804 15.731 3.19027 15.7437 3.18378C16.4426 2.78867 17.0654 2.49627 17.8444 2.15276C21.5576 0.515886 25.5397 0.277123 29.1918 1.20828C31.1078 1.52704 33.0495 2.15168 34.9861 3.07227C35.115 3.13365 35.244 3.19757 35.3729 3.2615C35.4348 3.29284 35.5264 3.33796 35.6308 3.38807C36.7303 3.71904 38.2607 4.2988 39.912 5.34177C40.0166 5.40846 40.1212 5.47515 40.2245 5.54312C44.1893 8.16792 46.9337 12.3543 47.7525 17.0294C48.5821 21.7618 47.4002 26.6979 44.509 30.5712C44.3998 30.7162 44.2894 30.8613 44.1763 31.0026C42.4629 33.1539 40.1812 34.9186 40.0843 34.9935C40.0537 35.0167 40.0244 35.0399 39.9937 35.0631C37.9732 36.5972 35.8503 37.5672 35.0315 37.9136C35.0213 37.9175 35.011 37.9227 35.0008 37.9267C32.3437 39.0429 29.3669 39.7257 26.6189 39.8491C26.5804 39.8507 26.5406 39.8523 26.5021 39.8539C26.2775 39.8623 26.0541 39.8668 25.7639 39.8693L25.7627 39.8693Z" fill="#FFEA4B"/>
</g>
<g opacity="0.55">
<path d="M25.8491 39.9247C24.9221 39.9328 23.9958 39.8733 23.083 39.7435C22.9609 39.7267 22.8388 39.7073 22.7179 39.688C20.4008 39.3089 15.9608 38.1372 12.2612 34.5586C12.1719 34.4726 12.0838 34.3841 11.9957 34.2969C10.7457 33.0336 8.47778 30.3392 7.34246 26.4768C7.32657 26.4221 7.31068 26.3661 7.29478 26.3101C6.05745 21.9397 6.73536 17.3651 7.7829 14.541C7.81675 14.4476 7.85319 14.3554 7.88834 14.2633C10.1579 8.45548 14.9285 5.42169 16.3366 4.63012C16.4184 4.58349 16.5002 4.53814 16.5832 4.49405C20.5462 2.34991 24.5978 2.11565 26.6604 2.16911C26.6989 2.17005 26.7387 2.17098 26.7772 2.17191C27.0855 2.18198 27.3886 2.19465 27.6841 2.21248C28.099 2.2331 28.532 2.26504 28.9703 2.31352C29.6038 2.37815 30.2003 2.46096 30.7533 2.56328C30.8035 2.57305 30.8549 2.58153 30.9051 2.5913C32.7726 2.95129 37.5164 4.20583 41.2108 8.07528C41.2924 8.1613 41.374 8.2486 41.4544 8.33591C44.2545 11.393 45.9699 15.5208 46.1601 19.6618C46.168 19.8352 46.1734 20.0086 46.1762 20.1821C46.226 23.3932 45.3689 26.708 43.7639 29.5152C43.707 29.6152 43.6488 29.7152 43.5893 29.8139C40.9936 34.1501 36.8992 36.5378 34.9519 37.4833C34.5035 37.7423 34.0446 37.9809 33.5727 38.2019C33.4461 38.2604 33.3195 38.3189 33.1916 38.3748C30.9122 39.3742 28.3796 39.9027 25.8504 39.9247L25.8491 39.9247Z" fill="#FFEA4B"/>
</g>
<g opacity="0.55">
<path d="M30.3946 43.3314C27.9167 43.353 23.6714 43.3083 23.1769 43.2897C23.1653 43.2898 23.1551 43.2899 23.1435 43.2887C20.7108 43.1938 17.1673 42.7885 14.107 41.4007C14.027 41.3644 13.9471 41.3281 13.8685 41.2905C11.9306 40.375 8.30765 38.2179 5.82528 34.0458C5.7458 33.9126 5.66888 33.7793 5.59324 33.6448C3.09807 29.182 2.58062 23.4342 4.24532 18.6431C4.29168 18.5113 4.33932 18.3795 4.38825 18.2477C5.30304 15.8087 6.69175 13.6781 9.15508 10.9488C9.23 10.8525 9.35186 10.692 9.48634 10.5046C9.58009 10.3597 9.70928 10.1558 9.8144 9.98903C11.5962 6.55655 14.46 3.81105 18.0267 2.15504C20.8733 0.830549 24.0426 0.280002 27.1895 0.561249C27.381 0.578713 27.5712 0.598739 27.7615 0.621316C31.1548 1.03689 34.1992 2.35981 37.0234 4.65144C37.1202 4.708 37.235 4.77459 37.3692 4.84995C37.4983 4.92281 37.6273 4.99821 37.7538 5.07491C39.2718 5.98895 40.7506 7.12908 41.9485 8.3061C46.3174 11.4797 48.9316 16.486 49.0539 21.8291C49.1062 22.085 49.1533 22.3397 49.1941 22.5945C50.019 27.6674 48.6449 32.8093 45.4239 36.7007C45.2879 36.8652 45.1481 37.0284 45.0057 37.1878C41.7898 40.7922 37.1812 42.9585 32.0288 43.2904C31.9877 43.2933 31.9467 43.2949 31.9056 43.2978C31.6027 43.3158 31.061 43.3256 30.3921 43.3314L30.3946 43.3314Z" fill="#FFEA4B"/>
</g>
<g opacity="0.55">
<path d="M29.7794 45.7844C28.674 45.794 27.3076 45.7689 26.138 45.6337C26.0853 45.6278 26.0339 45.6218 25.9812 45.6147C25.6071 45.5682 25.1008 45.5254 24.5123 45.4769C23.2955 45.374 21.7818 45.2469 20.0101 44.9703C19.9561 44.9618 19.9008 44.9534 19.8468 44.9436C19.2849 44.8503 18.7614 44.7541 18.2817 44.6575C18.1081 44.6374 17.9012 44.6098 17.671 44.5748C17.599 44.564 17.527 44.5519 17.4537 44.5397C14.9977 44.1313 12.4017 43.1208 10.3329 41.7664C10.1831 41.6682 10.0359 41.5688 9.88988 41.4667C8.0257 40.1629 6.44492 38.5211 5.20221 36.6277C3.1715 33.7462 2.05639 30.288 2.0524 26.7346C1.93191 24.5469 2.11702 21.9191 3.07608 19.2553C3.10618 19.1734 3.13629 19.0915 3.16639 19.0096C4.77029 14.756 7.54628 12.2485 9.50527 10.7289C11.0255 9.54735 12.7517 8.577 15.0673 7.6015C15.4194 7.19667 15.7948 6.80438 16.1908 6.42722C22.8445 0.0888899 33.3252 0.0218242 40.0603 6.27413C40.072 6.28551 41.2785 7.40634 41.7447 7.86399C41.755 7.8741 41.7654 7.88422 41.7758 7.89433C43.0424 9.14218 45.3914 11.7186 46.895 14.9592C46.9212 15.015 46.946 15.071 46.9709 15.1269C47.513 16.3287 47.9429 17.6272 48.2472 18.96C48.7121 20.5949 48.9167 22.1135 48.9943 23.3525C49.1155 24.0045 49.2076 24.6988 49.2576 25.4331C49.2606 25.479 49.2636 25.5261 49.2665 25.572C49.3148 26.3943 49.3344 27.4655 49.3348 27.5114C49.3352 27.5586 49.3356 27.607 49.336 27.6542C49.3876 33.5706 46.535 39.0774 41.7051 42.386C41.5622 42.4841 41.4179 42.5798 41.2711 42.6729C39.9776 43.503 36.4727 45.462 31.868 45.7241C31.8025 45.7285 30.9311 45.7769 29.7769 45.7869L29.7794 45.7844Z" fill="#FFEA4B"/>
</g>
<g opacity="0.55">
<path d="M29.6184 48.8099C26.736 48.835 23.849 48.1752 21.2609 46.8994C21.0571 46.7991 20.8559 46.695 20.6559 46.5858C18.6679 45.5075 15.867 43.5319 13.8122 40.2464C13.7627 40.1677 13.7132 40.0878 13.665 40.0079C13.0762 39.0309 12.617 38.0528 12.2595 37.1121C11.94 36.5473 11.6512 35.9695 11.397 35.3824C11.3747 35.3316 11.3537 35.2808 11.3315 35.2299C11.0365 34.5297 10.8006 33.8405 10.6125 33.1789C10.5228 32.8978 10.442 32.6141 10.3663 32.329C10.3371 32.2183 10.3092 32.1063 10.2825 31.9943C10.0627 31.0817 9.91589 30.1481 9.84219 29.2049C9.24392 25.9704 9.45837 22.5835 10.5529 19.5575C10.5642 19.5268 10.5755 19.4973 10.5855 19.4666C11.969 15.706 14.3161 13.1857 16.0406 11.7319C21.5012 7.13223 28.9914 6.46624 35.0175 9.44679C36.6477 9.97211 38.8257 10.8983 40.9518 12.4957C41.6014 12.9327 42.2271 13.417 42.8237 13.9475C42.9272 14.0397 43.0294 14.1319 43.1304 14.2267C44.6786 15.6698 46.13 17.6315 47.1941 19.6668C48.854 22.2837 49.8247 25.3771 49.8536 28.6969C49.8991 33.9157 47.6057 38.6141 43.9459 41.8091C42.8396 43.1924 41.4023 44.6054 39.5599 45.8063C39.4731 45.8632 39.3875 45.9175 39.2994 45.9731C36.5819 47.6766 33.3216 48.6807 30.1178 48.7992C29.9856 48.8041 29.8533 48.8079 29.7211 48.809C29.6864 48.8093 29.6505 48.8096 29.6158 48.8099L29.6184 48.8099Z" fill="#FFEA4B"/>
</g>
<g opacity="0.55">
<path d="M21.6477 48.4201C17.335 48.4577 13.1221 46.974 9.78896 44.1843C9.68807 44.0997 9.58717 44.0139 9.48754 43.9267C7.32029 42.0273 5.73007 39.5961 4.6568 37.2561C4.22267 36.6502 3.82426 36.0185 3.46801 35.3622C3.39364 35.2263 3.32182 35.0892 3.25129 34.9521C1.31925 31.1629 1.10289 27.4035 1.26098 24.9162C1.26441 24.8677 1.26784 24.8192 1.27127 24.7707C1.46256 22.1149 2.25766 18.3173 4.87963 14.7843C6.00433 13.0055 7.56283 11.205 9.72092 9.69518C9.83322 9.6164 9.94682 9.53888 10.0604 9.46391C13.2303 7.35602 17.1101 6.27762 20.9865 6.4288C21.1047 6.43287 21.2242 6.43948 21.3424 6.4461C22.6437 6.52277 25.2311 6.8293 27.9326 8.00598C28.0048 8.03724 28.077 8.06977 28.1491 8.1023C30.1923 9.02579 32.1819 10.4242 33.8049 12.0542C37.6553 13.9274 40.7434 17.1874 42.3508 21.2944C42.6489 22.0545 42.8907 22.8292 43.0785 23.6107C43.1534 23.8052 43.2257 24.0022 43.2942 24.2006C44.3611 27.2779 44.5004 30.4488 43.8611 33.4147C42.8006 39.3127 38.7515 44.1131 33.3882 46.3141C31.045 47.5016 28.4134 48.1699 25.671 48.1938C25.3231 48.1968 24.9738 48.1896 24.6231 48.171C24.4448 48.1942 24.2793 48.2148 24.1254 48.2327L24.0792 48.2382C23.2688 48.3537 22.4565 48.4144 21.6477 48.4214L21.6477 48.4201ZM24.4434 48.1802C24.3857 48.1897 24.328 48.1991 24.2703 48.2072C24.2382 48.2126 24.2075 48.2167 24.1767 48.2208C24.2831 48.2059 24.3729 48.191 24.4447 48.1789L24.4434 48.1802Z" fill="#FFEA4B"/>
</g>
<g opacity="0.55">
<path d="M26.8971 44.4842C25.3192 44.498 23.7368 44.2988 22.2001 43.8862C21.7768 43.9319 21.3611 43.9623 20.9542 43.9786C20.8951 43.9804 20.8361 43.9835 20.7783 43.9853C18.4664 44.0526 15.9892 43.7132 13.8017 43.0244C13.7077 42.9946 13.6124 42.9636 13.5184 42.9325C10.9043 42.0599 8.37425 40.522 6.39558 38.6031C6.3399 38.55 6.2855 38.4957 6.2311 38.4413C3.09532 35.317 1.2179 31.1664 0.944475 26.7518C0.934043 26.5861 0.926179 26.4204 0.920894 26.2559C0.868412 24.6531 1.03603 22.9642 1.39828 21.3616C1.76873 19.2258 2.46915 17.2364 3.48323 15.4355C3.52875 15.3548 3.57429 15.2753 3.62109 15.1945C6.10334 10.9511 9.96105 8.65869 11.504 7.86977C11.5704 7.83603 11.6369 7.80229 11.7034 7.76982C12.6392 7.30633 13.6259 6.92402 14.6607 6.62293C15.321 6.21158 16.0122 5.82037 16.7027 5.49421C16.7449 5.47472 16.7859 5.45523 16.8281 5.43573C19.6888 4.10984 23.1588 3.44443 26.3523 3.61048C26.4718 3.61709 26.5912 3.6237 26.7107 3.63287C26.9664 3.65105 27.2208 3.67562 27.474 3.70402C29.4131 3.87462 31.2663 4.36101 32.9767 5.11521C32.9857 5.11769 32.9947 5.12016 33.0037 5.12263C38.112 6.50665 42.3354 10.0832 44.59 14.9371C44.645 15.0553 44.6987 15.1734 44.7498 15.2916C45.6053 17.2471 46.0757 19.2238 46.3225 21.9001C46.5592 24.4579 46.4797 26.3947 46.0604 28.3741C46.0518 28.4162 46.0432 28.4571 46.0332 28.498C45.4466 31.1663 44.3713 33.0136 43.8539 33.902C43.4566 34.5853 43.2211 34.9636 42.9346 35.3832C41.1989 37.9211 38.9994 39.6877 37.8395 40.5166C37.8267 40.5257 37.8139 40.5347 37.7999 40.545C37.7922 40.5502 37.7846 40.5554 37.7769 40.5618C34.633 43.1363 30.7732 44.453 26.8958 44.4868L26.8971 44.4842ZM39.4123 39.0349C39.4123 39.0349 39.4072 39.04 39.4046 39.0426C39.4072 39.04 39.4097 39.0374 39.4123 39.0349Z" fill="#FFEA4B"/>
</g>
<g opacity="0.55">
<path d="M28.8044 47.2265C26.5833 47.2458 24.4034 46.8426 22.3717 46.0594C20.5174 46.3319 18.6181 46.3063 16.7521 45.9718C15.7061 45.8738 14.6605 45.6801 13.6269 45.3868C9.03555 44.0863 5.03763 40.8968 2.65849 36.6345C2.61935 36.5634 2.58021 36.4923 2.54107 36.4213C1.22948 33.9915 0.760418 31.7341 0.499132 30.0401C0.398457 29.3905 0.326217 28.7623 0.281283 28.1734C0.143203 26.3252 0.282695 24.6506 0.591967 23.1569C0.724992 22.0665 0.965199 20.8986 1.37943 19.6616C1.40446 19.5874 1.4295 19.5132 1.45581 19.439C3.15846 14.5825 6.57832 11.5516 8.46411 10.1781C12.6516 7.12768 17.9164 6.14436 22.8162 7.32229C25.3569 7.27975 27.8022 7.79414 30.0281 8.76196C31.5595 8.4119 33.1606 8.2653 34.7946 8.348C37.1376 8.46534 39.3627 9.04415 41.3779 9.99594C41.8393 10.1998 42.2945 10.4254 42.7435 10.6728C49.1984 14.2287 52.6831 21.4506 51.4326 28.6768L51.4228 28.7342C51.2688 29.6246 51.1547 30.2442 51.0123 30.8487C50.4279 33.6241 49.273 35.7629 48.2375 37.3242C47.9209 37.8231 47.5886 38.2992 47.2458 38.7435C47.2242 38.7717 47.2014 38.8 47.1798 38.8295C46.9055 39.1814 46.6272 39.5103 46.3169 39.8586C45.7131 40.5603 45.0883 41.206 44.4514 41.7894C42.8693 43.2342 41.0889 44.3339 39.2042 45.0901C37.3602 45.953 35.3938 46.4791 33.3988 46.6622C32.8287 46.8062 32.2519 46.9222 31.6684 47.0102C31.5902 47.0224 31.512 47.0333 31.435 47.0441C30.6386 47.1531 29.8161 47.2126 28.9174 47.2268C28.8802 47.2271 28.8417 47.2274 28.8044 47.2278L28.8044 47.2265Z" fill="#FFEA4B"/>
</g>
<g opacity="0.55">
<path d="M26.1757 41.7483C24.0983 41.7664 21.9895 41.4124 19.9426 40.6496C16.4507 40.4224 13.123 39.1504 10.3914 37.0289C6.90455 35.0198 4.12628 31.812 2.71627 27.8117C0.0911384 20.3693 2.88792 12.1411 9.43304 7.78453C10.8278 6.19592 12.1544 5.0492 12.8302 4.50124L13.219 4.18664C15.2297 2.56077 17.5005 1.45302 19.8668 0.852073C20.4714 0.6912 21.1058 0.555576 21.7713 0.450293C23.5754 0.165455 25.3782 0.168883 27.1229 0.43301C28.1302 0.513517 29.1358 0.682047 30.128 0.94125C34.869 2.17669 38.8642 5.34584 41.1257 9.66526C42.4967 12.2833 43.1417 15.1283 43.0879 17.9476C43.496 19.2514 43.7518 20.6037 43.846 21.9829C43.8592 22.1779 43.8686 22.3717 43.8755 22.5668C44.0153 26.6777 42.6757 29.7352 41.9556 31.3778C39.133 37.8231 32.8224 41.6904 26.1757 41.7483Z" fill="#FFEA4B"/>
</g>
<g opacity="0.55">
<path d="M27.2125 49.1587C26.4794 49.165 25.7629 49.1636 25.0527 49.1379C22.9994 49.2732 20.9201 49.063 18.9185 48.4911C18.8194 48.4627 18.7216 48.4342 18.6237 48.4044C17.6942 48.1217 17.0214 47.8329 16.6206 47.6604C16.5961 47.6504 16.5703 47.6392 16.5433 47.6267C16.2225 47.5019 15.8913 47.3696 15.555 47.2258C14.3187 46.8144 13.1159 46.2599 11.9683 45.5582C10.6052 44.7257 9.36287 43.7633 8.16776 42.6182C8.12245 42.5752 8.07712 42.531 8.0318 42.4867C5.3627 39.8723 4.28785 38.3817 3.41915 36.8256C-0.710374 29.4358 1.18962 20.2602 7.67599 15.0547C7.82022 14.8085 7.97088 14.5636 8.12926 14.3199C8.94669 12.7911 9.78171 11.6602 10.2326 11.0938C10.2593 11.0604 10.2859 11.027 10.3126 10.9936C11.9995 8.90116 13.9537 7.41863 14.7156 6.87885C14.7513 6.85303 14.7883 6.8272 14.824 6.80265C16.2432 5.81201 17.9967 4.87841 19.636 4.2417C19.6642 4.23125 19.6923 4.21953 19.7205 4.20908C20.3706 3.9598 22.6976 3.12579 25.3132 2.84153C25.3632 2.836 25.412 2.83047 25.462 2.82621C27.0143 2.66983 28.8765 2.71738 29.7489 2.78631C29.7875 2.7898 29.8247 2.79203 29.8633 2.79552C32.324 3.00749 35.7778 3.71972 39.051 5.82506C41.2297 6.9693 45.295 9.64296 47.6025 14.5296C47.6261 14.5791 47.6496 14.6286 47.6719 14.6782C48.7896 17.1033 49.1781 19.4021 49.308 20.9035C49.3166 21.0093 49.3253 21.1151 49.3326 21.2209C49.3385 21.3126 49.3445 21.4082 49.3492 21.5051C50.6864 24.8122 50.9975 28.5377 50.0624 32.1873C49.7098 33.564 49.2109 34.8081 48.6299 35.9228C48.5218 36.1814 48.3933 36.4721 48.2407 36.7872C48.218 36.8346 48.194 36.882 48.1713 36.9293C46.2219 40.8735 43.1706 43.3222 41.9494 44.1912C41.9226 44.2105 41.8958 44.2286 41.869 44.248C39.9905 45.5704 37.1594 46.9126 36.5582 47.1742C36.5339 47.1847 36.5096 47.1951 36.4853 47.2055C35.8585 47.475 35.2096 47.7153 34.545 47.9239C33.3484 48.3782 31.9023 48.7874 30.2349 48.9946C30.19 49.0001 30.1464 49.0055 30.1015 49.011C29.3204 49.102 28.6914 49.1228 28.083 49.1434L28.0265 49.1439C27.8994 49.1501 27.7723 49.1525 27.6465 49.1536C27.5014 49.1549 27.3576 49.1561 27.2138 49.1574L27.2125 49.1587ZM16.6335 47.6616C16.6412 47.6653 16.6489 47.6678 16.6566 47.6703C16.6489 47.6678 16.6412 47.6641 16.6335 47.6616ZM16.5832 47.6416C16.5832 47.6416 16.5922 47.6454 16.5974 47.6466C16.5871 47.6429 16.5781 47.6391 16.5677 47.6354C16.5729 47.6379 16.5781 47.6391 16.5832 47.6416ZM16.475 47.5992C16.4853 47.6029 16.4956 47.6079 16.5072 47.6117C16.4969 47.6079 16.4866 47.6029 16.4763 47.5992L16.475 47.5992Z" fill="#FFEA4B"/>
</g>
<g opacity="0.55">
<path d="M24.0172 47.7834C22.0092 47.8009 19.7827 47.5053 17.8816 46.9683C17.8648 46.9634 17.8468 46.9584 17.8301 46.9534C17.3976 46.8297 16.9289 46.6756 16.46 46.5062C15.2195 46.1905 13.9162 45.7478 12.6525 45.1326C12.6229 45.1188 12.5945 45.1037 12.5649 45.0899C10.7376 44.1875 8.76875 42.8093 7.29789 41.4051C7.23833 41.3482 7.17876 41.2901 7.12049 41.2332C4.58211 38.7375 2.83246 35.5463 2.06204 32.0059C2.04332 31.9206 2.02589 31.8366 2.00846 31.7513C1.32677 28.3747 1.7854 24.5699 1.80582 24.409C1.80939 24.3758 1.81423 24.3426 1.81908 24.3094C1.95865 23.2329 2.19585 22.162 2.52059 21.1172C2.6057 20.5705 2.6941 20.1055 2.77448 19.7515C2.78065 19.7234 2.78683 19.6952 2.79429 19.6671C3.38832 17.1085 4.60807 14.1554 5.98079 11.9585C6.00359 11.9226 6.02639 11.8867 6.04919 11.8508C7.10429 10.1899 8.67021 8.35617 10.1381 7.06537C10.1662 7.0409 10.1942 7.01642 10.2222 6.99194C12.3695 5.12764 15.1965 3.6018 17.9771 2.8072C18.045 2.78748 18.1129 2.76903 18.1795 2.75059C21.7431 1.77826 25.0313 2.0621 26.2796 2.22979C26.3425 2.23817 26.4068 2.24654 26.4698 2.2562C29.2223 2.65567 31.555 3.64424 32.8639 4.29608C32.9926 4.32429 33.12 4.35379 33.2461 4.38458L33.2885 4.39441C34.4002 4.66533 37.2824 5.49478 40.0281 7.32921C40.0552 7.34811 40.0837 7.36699 40.1108 7.38461C41.2513 8.15526 44.1218 10.3087 46.1435 13.6341C46.1943 13.7178 46.2451 13.8029 46.2947 13.8879C48.1338 17.0325 49.0615 20.9362 48.8404 24.5974C48.8359 24.6676 48.8314 24.7365 48.8268 24.8067C48.7088 26.4365 48.3426 28.9116 47.272 31.4539C47.2494 31.509 47.2255 31.564 47.2016 31.6191C46.4136 33.4371 45.0626 35.6184 43.663 37.3869C42.8762 38.5965 41.9218 39.7273 40.8033 40.7459C40.7472 40.7974 40.6453 40.8889 40.5421 40.9816L40.4096 41.1014C39.444 41.9758 38.5592 42.7016 37.7795 43.2594C37.7655 43.2697 37.7527 43.2788 37.7387 43.2891C36.0772 44.4706 34.4074 45.2785 33.2982 45.7499C33.2726 45.7603 33.2458 45.772 33.2202 45.7824C32.1545 46.2292 28.3589 47.6921 24.2586 47.7813C24.2316 47.7816 24.2047 47.7818 24.1764 47.7821C24.1238 47.7825 24.0724 47.783 24.0198 47.7834L24.0172 47.7834Z" fill="#FFEA4B"/>
</g>
<g opacity="0.55">
<path d="M32.1824 46.1626C31.077 46.1723 29.7106 46.1472 28.541 46.012C28.4883 46.0061 28.4369 46.0001 28.3842 45.9929C28.0101 45.9464 27.5039 45.9037 26.9154 45.8552C25.6985 45.7523 24.1849 45.6252 22.4131 45.3485C22.3591 45.3401 22.3038 45.3316 22.2498 45.3219C21.6879 45.2286 21.1645 45.1324 20.6847 45.0358C20.5112 45.0156 20.3042 44.9881 20.0741 44.9531C20.0021 44.9423 19.93 44.9301 19.8568 44.918C17.4008 44.5096 14.8047 43.4991 12.7359 42.1447C12.5861 42.0465 12.4389 41.9471 12.2929 41.845C10.4287 40.5411 8.84924 38.9006 7.60653 37.0072C5.57452 34.1245 4.45942 30.6662 4.4567 27.1116C4.3362 24.9239 4.52132 22.2961 5.48038 19.6323C5.51048 19.5504 5.54058 19.4685 5.57068 19.3866C7.17458 15.133 9.95058 12.6255 11.9096 11.1059C13.4298 9.92437 15.156 8.95401 17.4716 7.97852C17.8237 7.57368 18.1991 7.18139 18.5951 6.80423C25.2488 0.465905 35.7295 0.398839 42.4646 6.65115C42.4763 6.66252 43.6828 7.78335 44.149 8.241C44.1593 8.25112 44.1697 8.26123 44.1801 8.27134C45.4467 9.51919 47.7957 12.0956 49.2993 15.3362C49.3255 15.3921 49.3503 15.448 49.3752 15.5039C49.9173 16.7057 50.3472 18.0042 50.6515 19.337C51.1164 20.9719 51.321 22.4905 51.3986 23.7295C51.5198 24.3815 51.6119 25.0758 51.6619 25.8101C51.6649 25.856 51.6679 25.9019 51.6708 25.9477C51.7191 26.77 51.7387 27.8412 51.7391 27.8871C51.7395 27.9343 51.7399 27.9828 51.7403 28.03C51.7919 33.9464 48.9393 39.4532 44.1094 42.7617C43.9665 42.8599 43.8222 42.9555 43.6754 43.0486C42.3819 43.8787 38.877 45.8378 34.2723 46.0998C34.2068 46.1042 33.3354 46.1526 32.1812 46.1627L32.1824 46.1626Z" fill="#FFEA4B"/>
</g>
<g opacity="0.55">
<path d="M30.853 40.339C25.028 40.3897 19.2643 37.7551 15.5521 32.7353L14.2022 30.9104C8.06685 22.6147 9.86425 10.9477 18.2162 4.85225C26.5695 -1.24324 38.3144 0.539576 44.4497 8.83657L45.7997 10.6615C51.935 18.9572 50.1376 30.6242 41.7856 36.7197C38.4861 39.1271 34.6573 40.3059 30.8543 40.339L30.853 40.339Z" fill="#FFEA4B"/>
</g>
<g opacity="0.55">
<path d="M31.331 43.2008C30.9728 43.2039 30.6132 43.1969 30.2509 43.1796C19.8989 42.6869 11.9108 33.9507 12.408 23.6687L12.4657 22.4858C12.9629 12.2026 21.7573 4.26403 32.1093 4.75929C42.4614 5.252 50.4495 13.9882 49.9523 24.2702L49.8945 25.453C49.4147 35.3765 41.2068 43.1148 31.331 43.2008Z" fill="#FFEA4B"/>
</g>
<g opacity="0.55">
<path d="M27.917 39.5202C27.7373 39.5218 27.5293 39.5236 27.2686 39.5221L27.2339 39.5224C25.3362 39.5236 23.4242 39.2188 21.574 38.6266C20.7669 38.3989 19.9387 38.1064 19.106 37.7323C19.0184 37.6935 18.932 37.6534 18.8456 37.6134C11.9555 34.796 7.58258 27.9096 8.09539 20.45C8.27316 17.8631 9.02487 15.423 10.231 13.2621C10.4928 12.6578 10.7804 12.0686 11.0863 11.5136C11.1141 11.4636 11.1419 11.4124 11.171 11.3624C12.3533 9.26669 14.5387 6.32685 18.2363 4.22074C18.2478 4.21426 18.2593 4.20779 18.2708 4.20131C19.0221 3.77641 19.6641 3.48512 20.2064 3.24571C23.8493 1.63878 27.7516 1.37648 31.3467 2.24564C33.0918 2.55823 34.8379 3.1259 36.5579 3.94507C36.612 3.97138 36.6662 3.99642 36.7203 4.02273C37.757 4.36828 39.101 4.92288 40.5212 5.81863C40.6348 5.89035 40.7472 5.96334 40.8582 6.03635C44.8114 8.65743 47.5454 12.8324 48.3616 17.491C49.1844 22.1902 48.0112 27.0893 45.1441 30.9317C45.0349 31.0781 44.9232 31.2232 44.8089 31.3657C43.2848 33.2782 41.4217 34.751 41.0645 35.0258C41.0314 35.0516 40.9995 35.0761 40.9663 35.1006C39.1525 36.4773 37.3124 37.3454 36.3772 37.7413C36.3657 37.7465 36.3554 37.7504 36.3439 37.7556C33.9337 38.7676 31.217 39.3882 28.6949 39.5007C28.6564 39.5023 28.6179 39.5039 28.5794 39.5055C28.3663 39.5138 28.1686 39.518 27.917 39.5202ZM45.1289 15.773C45.1289 15.773 45.1302 15.7806 45.1316 15.7845C45.1315 15.7806 45.1302 15.7768 45.1289 15.773Z" fill="#FFEA4B"/>
</g>
<g opacity="0.55">
<path d="M27.9561 39.5569C27.0496 39.5648 26.1465 39.5063 25.2543 39.3802C25.1308 39.3621 25.0061 39.3441 24.8827 39.3235C22.6595 38.9589 18.3906 37.8252 14.7829 34.3351C14.6962 34.2504 14.6094 34.1657 14.5239 34.0797C13.3063 32.8506 11.0967 30.2233 9.9813 26.4347C9.96408 26.3749 9.94688 26.3163 9.92967 26.2565C8.90957 22.6495 9.08553 18.3816 10.4003 14.8383C10.4354 14.7449 10.4706 14.6515 10.507 14.5581C12.0004 10.7404 15.0644 7.23934 18.7047 5.19367C18.7852 5.14833 18.8657 5.10426 18.9462 5.0602C22.5961 3.08332 26.2229 2.74052 28.6246 2.8025C28.6618 2.80218 28.699 2.8044 28.7376 2.80534C29.0201 2.81436 29.2873 2.82734 29.5378 2.84174C29.85 2.85815 30.1738 2.88211 30.504 2.91623C31.437 3.00503 32.0427 3.1171 32.3025 3.16458C32.3488 3.1731 32.3938 3.18164 32.4401 3.19016C34.6755 3.61965 38.9481 4.88723 42.4404 8.54544C42.5246 8.63271 42.6075 8.72128 42.6892 8.81112C45.4919 11.872 47.1391 15.8397 47.328 19.982C47.336 20.1554 47.3413 20.3288 47.3441 20.5023C47.3921 23.6561 46.5512 26.9094 44.9766 29.6616C44.9184 29.7641 44.859 29.8654 44.7982 29.9667C42.3796 34.0016 38.7782 36.2383 36.7173 37.2575C36.334 37.4738 35.9428 37.6736 35.5438 37.8608C35.4198 37.9192 35.2945 37.9752 35.1691 38.0311C32.9281 39.0149 30.4378 39.5353 27.9561 39.5569Z" fill="#FFEA4B"/>
</g>
<g opacity="0.55">
<path d="M31.0388 41.9254C29.0988 41.9423 26.1825 41.9039 25.8665 41.8913C25.8576 41.8914 25.8486 41.8915 25.8396 41.8916C22.6876 41.7685 19.9038 41.1691 17.5654 40.1079C17.4854 40.0716 17.4055 40.0353 17.3269 39.9977C15.4341 39.1035 11.8937 36.9916 9.45177 32.888C9.37359 32.756 9.29668 32.6241 9.22233 32.4908C6.74022 28.0534 6.24935 22.5553 7.91165 17.7834C7.95674 17.6542 8.00314 17.5262 8.05082 17.3983C8.89658 15.1422 10.1467 13.1646 12.1926 10.8637C13.9716 7.55113 16.7746 4.90054 20.2466 3.28873C23.0703 1.97719 26.21 1.43073 29.3274 1.70713C29.515 1.72335 29.7014 1.74341 29.8877 1.76602C33.0857 2.15524 36.0329 3.38462 38.6765 5.42656C38.7668 5.47807 38.8559 5.53086 38.945 5.58493C39.8821 6.14945 41.2267 7.06117 42.5588 8.31865C46.6227 11.4158 49.0906 16.1326 49.331 21.1864C50.219 26.2844 48.9269 31.3975 45.6272 35.3891C45.4887 35.5561 45.3476 35.7206 45.2026 35.8838C42.0351 39.4342 37.5456 41.5664 32.56 41.8879C32.5189 41.8908 32.4766 41.8937 32.4355 41.8953C32.1262 41.9133 31.6281 41.9228 31.0401 41.9279L31.0388 41.9254ZM40.2962 6.81546C40.2962 6.81546 40.3014 6.82051 40.3052 6.82303C40.3026 6.8205 40.3001 6.81797 40.2962 6.81546Z" fill="#FFEA4B"/>
</g>
<g opacity="0.55">
<path d="M30.7132 43.6283C29.7721 43.6365 28.5893 43.6123 27.5123 43.4878C27.4609 43.4818 27.4094 43.4759 27.358 43.4687C27.2025 43.4497 26.8543 43.4208 26.5472 43.3941C25.667 43.3202 24.4617 43.2184 23.0435 42.9974C22.9895 42.9889 22.9368 42.9805 22.8828 42.972C22.5086 42.9102 22.1524 42.8457 21.8141 42.7798C21.7049 42.7654 21.5879 42.7486 21.4632 42.7306C21.386 42.7185 21.3102 42.7064 21.233 42.6943C18.7899 42.2909 16.3098 41.3265 14.2462 39.981C14.09 39.8791 13.935 39.7746 13.7826 39.6675C11.9339 38.3737 10.3713 36.7547 9.1468 34.8917C7.1936 32.0645 6.11394 28.6952 6.09146 25.2312C5.99779 23.1747 6.19715 20.7075 7.11104 18.1652C7.14112 18.0808 7.1725 17.9976 7.20387 17.9144C8.96591 13.2424 12.2103 10.7104 13.311 9.85897C14.4856 8.94699 15.7502 8.18472 17.2988 7.46335C17.3816 7.38228 17.4643 7.3012 17.5484 7.22139C24.2059 0.884303 34.6892 0.821041 41.4218 7.0772C41.5137 7.16185 42.3241 7.91624 42.6919 8.27782C42.7009 8.28667 42.71 8.29552 42.7191 8.30437C43.8536 9.42072 45.9642 11.7441 47.3565 14.7471C47.3814 14.8018 47.4075 14.8577 47.4324 14.9123C47.926 16.0062 48.3215 17.1838 48.6093 18.3917C48.9937 19.7709 49.1847 21.0549 49.2698 22.1371C49.366 22.7102 49.4339 23.2861 49.4737 23.8674C49.4766 23.9145 49.4796 23.963 49.4826 24.0101C49.5218 24.6807 49.5366 25.4892 49.5387 25.5798C49.5391 25.6269 49.5395 25.6729 49.5399 25.72C49.5909 31.5752 46.7559 37.0372 41.9554 40.3289C41.8086 40.4297 41.6606 40.5279 41.5099 40.6249C40.2586 41.4278 36.866 43.3221 32.4089 43.5765C32.1933 43.5886 31.5478 43.6223 30.7132 43.6295L30.7132 43.6283Z" fill="#FFEA4B"/>
</g>
<g opacity="0.55">
<path d="M30.5877 45.7288C27.7579 45.7535 24.9237 45.1073 22.3833 43.8552C22.1911 43.7613 22.0015 43.6621 21.8132 43.5617C19.8613 42.5086 17.1043 40.5659 15.0561 37.2918C15.0092 37.2157 14.961 37.1395 14.9154 37.0621C14.4151 36.2323 14.0099 35.4043 13.6831 34.5985C13.4404 34.1465 13.2155 33.6842 13.0124 33.2128C12.9901 33.1607 12.9665 33.1073 12.9455 33.0539C12.6557 32.3652 12.4239 31.6886 12.2372 31.0385C12.1671 30.8095 12.1009 30.5805 12.0411 30.3502C12.0106 30.2357 11.9826 30.1211 11.9547 30.0053C11.7602 29.1983 11.6259 28.3756 11.548 27.5446C11.5304 27.4389 11.5128 27.3332 11.4965 27.2275C11.0228 24.1501 11.296 21.1695 12.3091 18.3675C12.3217 18.3342 12.3329 18.3009 12.3455 18.2677C13.7065 14.5761 16.0013 12.1098 17.6877 10.6895C23.0348 6.18903 30.3254 5.45718 36.2829 8.2266C37.8206 8.75272 39.6834 9.60126 41.5237 10.9691C42.1192 11.3784 42.6945 11.8288 43.2458 12.3176C43.3532 12.4136 43.4606 12.5108 43.5654 12.6094C45.0127 13.9603 46.3377 15.7165 47.3387 17.5725C48.938 20.1554 49.8722 23.1918 49.9005 26.4466C49.9446 31.5008 47.7951 36.0666 44.3342 39.2522C43.3023 40.478 41.9957 41.7112 40.3576 42.7803C40.2734 42.8359 40.1878 42.8902 40.1022 42.9433C37.3975 44.6402 34.2806 45.5997 31.0883 45.7194C30.9574 45.7243 30.8252 45.728 30.6942 45.7292C30.6596 45.7295 30.6236 45.7298 30.5877 45.7301L30.5877 45.7288ZM40.1493 36.9916C40.1493 36.9916 40.1493 36.9916 40.148 36.9928C40.148 36.9928 40.1493 36.9928 40.1493 36.9916Z" fill="#FFEA4B"/>
</g>
<g opacity="0.55">
<path d="M25.0528 45.4582C20.8005 45.4952 16.6443 44.0315 13.3551 41.2796C13.2517 41.1925 13.1495 41.1054 13.0473 41.0158C11.087 39.2969 9.62664 37.1796 8.60433 35.0879C8.28564 34.6162 7.98864 34.129 7.71592 33.6275C7.64154 33.4904 7.56844 33.3533 7.4979 33.2149C5.61808 29.5261 5.40301 25.9146 5.55433 23.5345C5.55778 23.4873 5.55993 23.4401 5.56336 23.3916C5.74545 20.8582 6.50612 17.2357 9.01092 13.8122C10.1056 12.1292 11.6085 10.43 13.6671 8.98992C13.7806 8.90985 13.8955 8.83232 14.0117 8.75478C17.1381 6.6766 20.9526 5.61408 24.7558 5.76206C24.8714 5.76616 24.9883 5.77279 25.1039 5.77944C26.3603 5.85395 28.8616 6.14848 31.4922 7.29261C31.5721 7.32762 31.652 7.36264 31.7319 7.39893C33.4812 8.19233 35.146 9.30151 36.5866 10.6193C40.0598 12.5392 42.8319 15.6233 44.325 19.4367C44.5771 20.0799 44.7883 20.7337 44.9609 21.3928C44.9912 21.4768 45.0215 21.5619 45.0517 21.6471C46.0949 24.6545 46.2528 27.7525 45.6631 30.6606C44.6252 36.5112 40.6454 41.2855 35.3581 43.5228C33.0682 44.6461 30.5108 45.2754 27.8493 45.2986C27.6721 45.3002 27.4936 45.2992 27.3151 45.2956C26.561 45.3979 25.8039 45.4516 25.0516 45.4582L25.0528 45.4582Z" fill="#FFEA4B"/>
</g>
<g opacity="0.55">
<path d="M28.6974 42.7238C27.4507 42.7346 26.2016 42.6129 24.9745 42.3583C24.8962 42.3628 24.8179 42.366 24.7396 42.3692C24.6831 42.371 24.6254 42.3741 24.5689 42.3758C22.3802 42.4434 20.0328 42.1182 17.9586 41.4653C17.8621 41.4356 17.7668 41.4045 17.6715 41.3722C15.0805 40.507 12.6744 39.0459 10.7139 37.146C10.6556 37.0891 10.5973 37.0322 10.5403 36.9753C7.45247 33.8965 5.60386 29.8094 5.33488 25.4637C5.32445 25.298 5.31657 25.131 5.31128 24.9652C5.26236 23.4772 5.4105 21.9109 5.7326 20.4158C6.0901 18.4153 6.7704 16.4732 7.76553 14.7083C7.80852 14.6313 7.8528 14.5557 7.89708 14.4801C10.2363 10.4739 13.6879 8.28956 15.5364 7.34492C15.6028 7.31118 15.6693 7.27744 15.7371 7.24369C16.453 6.88925 17.1938 6.58307 17.9581 6.32642C18.3912 6.07521 18.8398 5.83534 19.2937 5.62093C19.3372 5.60015 19.3807 5.58064 19.4242 5.55985C22.212 4.26903 25.4552 3.64769 28.5549 3.80818C28.673 3.8148 28.7912 3.82143 28.9094 3.8306C29.1394 3.84773 29.3681 3.8687 29.5956 3.8935C31.3703 4.0566 33.0714 4.48565 34.6565 5.14018C39.5546 6.5796 43.5859 10.0558 45.7567 14.7268C45.8117 14.8449 45.8653 14.9643 45.9177 15.0838C47.4637 18.6199 47.9599 23.5516 47.152 27.3557C47.1434 27.3953 47.1347 27.4349 47.1261 27.4746C46.6234 29.7646 45.6184 32.0117 44.1386 34.1559C42.5295 36.4875 40.5535 38.1079 39.4498 38.9071C36.3296 41.4125 32.5222 42.693 28.6987 42.7263L28.6974 42.7238ZM41.2126 37.2757C41.2126 37.2757 41.2075 37.2808 41.205 37.2847C41.2075 37.2821 41.2101 37.2795 41.2126 37.2757Z" fill="#FFEA4B"/>
</g>
<g opacity="0.55">
<path d="M30.0224 44.6292C28.2737 44.6445 26.5497 44.398 24.9045 43.9098C23.5674 43.9993 22.2186 43.9332 20.8839 43.7127C19.9045 43.6077 18.9271 43.4198 17.9604 43.1438C13.4359 41.8567 9.50785 38.7278 7.18089 34.5607C7.14176 34.4909 7.10262 34.4198 7.06477 34.3487C5.75711 31.9278 5.30494 29.6933 5.07771 28.2247C4.72254 25.923 4.75348 23.7264 5.16807 21.6464C5.30482 20.6886 5.53205 19.6522 5.89871 18.5559C5.92373 18.4805 5.95004 18.405 5.97634 18.3295C7.63138 13.6086 10.9123 10.6962 12.7203 9.37953C16.7202 6.46724 21.7022 5.44047 26.4112 6.38283C28.1141 6.42156 29.7704 6.70814 31.34 7.21358C32.343 7.0875 33.3672 7.04797 34.4064 7.09886C36.7212 7.21517 38.9218 7.78144 40.9163 8.713C41.3597 8.91066 41.7981 9.12878 42.2291 9.36608C48.6839 12.9207 52.1699 20.1413 50.9206 27.3675L50.9145 27.402C50.8069 28.0228 50.7053 28.5951 50.5579 29.2124C49.9032 32.1746 48.6149 34.3375 47.8201 35.509C47.5552 35.913 47.28 36.3032 46.9931 36.6743C46.9727 36.7 46.9524 36.7257 46.9321 36.7526C46.6705 37.0891 46.4113 37.3962 46.1328 37.7085C45.5862 38.3408 45.0174 38.9274 44.4314 39.4631C42.8811 40.8796 41.1392 41.9636 39.2955 42.7182C37.6239 43.4801 35.8562 43.9662 34.0604 44.1731C33.6337 44.2712 33.203 44.3528 32.7696 44.4178C32.6798 44.4313 32.5901 44.4449 32.5003 44.4571C31.741 44.5594 30.9686 44.6159 30.1379 44.6295C30.0994 44.6298 30.0596 44.6302 30.0211 44.6305L30.0224 44.6292Z" fill="#FFEA4B"/>
</g>
<g opacity="0.55">
<path d="M28.194 40.8264C26.3632 40.8424 24.508 40.569 22.6924 39.9815C19.6092 39.6411 16.6805 38.4842 14.2134 36.6499C10.8728 34.6306 8.21974 31.497 6.85186 27.6162C4.30829 20.3988 6.86348 12.4419 12.9905 7.99586C13.7919 7.1305 14.6579 6.31304 15.544 5.59616L15.7888 5.39761C17.8008 3.76662 20.0766 2.65628 22.4455 2.05276C23.0399 1.8958 23.6448 1.76936 24.2603 1.67217C26.0016 1.3968 27.7426 1.39057 29.4306 1.6284C30.3738 1.71457 31.3139 1.87857 32.243 2.12046C36.9853 3.35589 40.9805 6.52632 43.2407 10.847C44.4747 13.2061 45.1208 15.7475 45.1982 18.2876C45.4666 19.3235 45.6402 20.3857 45.7151 21.4654C45.7283 21.6642 45.7391 21.8618 45.7459 22.0607C45.8826 26.1015 44.5468 29.1513 43.9765 30.4534C41.1539 36.8999 34.8434 40.7685 28.1966 40.8264L28.194 40.8264Z" fill="#FFEA4B"/>
</g>
<g opacity="0.55">
<path d="M28.9142 45.9705C28.4058 45.9749 27.8973 45.9743 27.3823 45.9596C25.4545 46.0517 23.5087 45.8352 21.6319 45.298C21.5212 45.2671 21.4118 45.2336 21.3024 45.2001C20.4282 44.9309 19.7709 44.6522 19.441 44.5097C19.2606 44.4386 19.0738 44.365 18.883 44.285C17.7188 43.8819 16.5855 43.3497 15.5012 42.687C14.2245 41.906 13.065 41.0106 11.9566 39.9475C11.9126 39.9058 11.8685 39.8629 11.8245 39.8199C9.83013 37.8667 8.67612 36.4278 7.70569 34.6901C3.75478 27.6113 5.33008 18.8951 11.1711 13.5983C11.816 12.4575 12.4605 11.5718 12.9152 10.999C12.9419 10.9656 12.9686 10.9322 12.994 10.9001C14.578 8.93612 16.3944 7.55555 17.1026 7.05323C17.1396 7.02612 17.1779 7.00028 17.2149 6.97317C18.5512 6.04065 20.1347 5.19653 21.6741 4.59896C21.701 4.58852 21.7292 4.57807 21.756 4.56763C22.5277 4.27265 24.5823 3.55708 26.9683 3.29651C27.0196 3.29096 27.0696 3.28542 27.1209 3.27987C28.6642 3.12485 30.3275 3.18434 31.0663 3.24295C31.0985 3.24522 31.1306 3.2475 31.1627 3.25104C33.45 3.44795 36.649 4.10755 39.759 6.04467C42.0424 7.27218 45.6624 9.82218 47.8286 14.4052C47.8548 14.4598 47.8797 14.5144 47.9045 14.569C48.928 16.7935 49.3238 18.8971 49.4726 20.3511C50.5434 23.4437 50.7362 26.8538 49.8807 30.1992C49.5491 31.4954 49.0894 32.669 48.5555 33.7259C48.4674 33.9282 48.3679 34.1497 48.2531 34.3879C48.2304 34.4353 48.2077 34.4814 48.185 34.5288C46.3668 38.2078 43.6454 40.4993 42.1855 41.5375C42.1639 41.553 42.1409 41.5697 42.1192 41.5852C40.1475 42.9735 37.5203 44.1341 37.4934 44.1458C37.4691 44.1562 37.4435 44.168 37.4192 44.1784C36.873 44.414 36.306 44.6255 35.7273 44.813C34.5844 45.2362 33.2049 45.6194 31.6208 45.8155C31.5759 45.821 31.5298 45.8265 31.4836 45.832C30.7204 45.9203 30.1132 45.9409 29.6254 45.9567L29.6023 45.9569C29.4804 45.9617 29.3584 45.9641 29.2352 45.9651C29.1273 45.9661 29.0195 45.967 28.9116 45.968L28.9142 45.9705ZM19.5492 44.5534C19.5492 44.5534 19.5556 44.5559 19.5595 44.5572C19.5337 44.5472 19.508 44.5372 19.4822 44.5259C19.5054 44.5347 19.5286 44.5447 19.5492 44.5521L19.5492 44.5534Z" fill="#FFEA4B"/>
</g>
<g opacity="0.55">
<path d="M26.7039 45.0153C24.8204 45.0317 22.7315 44.754 20.9423 44.2492C20.923 44.2443 20.905 44.238 20.8857 44.2331C20.5407 44.1341 20.1853 44.0198 19.8325 43.8979C18.7269 43.6014 17.5678 43.1945 16.4227 42.6369C16.3931 42.6218 16.3621 42.6068 16.3325 42.593C14.5838 41.7294 12.7739 40.4621 11.3665 39.1185C11.3069 39.0617 11.2474 39.0035 11.1878 38.9454C8.69086 36.4914 6.97261 33.3662 6.21958 29.9061C6.20085 29.8195 6.18211 29.7317 6.16465 29.6438C5.55002 26.5957 5.88744 23.4692 5.96057 22.8729C5.96541 22.8384 5.96896 22.8039 5.9738 22.7695C6.09296 21.8565 6.28277 20.9467 6.54078 20.0542C6.60187 19.6965 6.66461 19.3822 6.72396 19.1202C6.73015 19.0934 6.73634 19.0665 6.74252 19.0397C7.28455 16.7022 8.35846 14.1049 9.61594 12.0915C9.63873 12.0556 9.66153 12.0196 9.68433 11.9837C10.6951 10.3921 12.0831 8.76781 13.4924 7.52726C13.5217 7.5015 13.551 7.47573 13.5803 7.44997C15.6664 5.6385 18.2978 4.21767 20.9888 3.44809C21.0554 3.42965 21.122 3.40994 21.1886 3.39278C24.4845 2.49292 27.4561 2.69152 28.9345 2.88909C28.9962 2.89748 29.0579 2.90587 29.1196 2.91426C31.3476 3.23795 33.2527 3.94072 34.5896 4.55532C35.9498 4.90698 38.3591 5.69464 40.7342 7.2823C40.7574 7.2974 40.7807 7.31378 40.8052 7.33015C41.8863 8.0605 44.6108 10.1043 46.5569 13.3066C46.6091 13.3929 46.6612 13.4792 46.7107 13.5655C48.5225 16.6669 49.4021 20.3581 49.1843 23.958C49.1798 24.0282 49.1753 24.0984 49.1708 24.1686C49.0595 25.6938 48.7139 28.0219 47.6911 30.4466C47.6684 30.4991 47.6458 30.5515 47.6231 30.604C46.9208 32.2236 45.8169 34.038 44.6183 35.5867C43.8578 36.7208 42.9477 37.7822 41.8916 38.7442C41.8458 38.7867 41.7579 38.8653 41.6738 38.9413L41.5986 39.0095C40.3667 40.1235 39.5704 40.6929 39.3089 40.8801C39.2935 40.8905 39.2795 40.9008 39.2642 40.9124C37.7214 42.0087 36.1922 42.7503 35.1803 43.1801C35.1547 43.1905 35.1278 43.2022 35.1022 43.2126C33.8728 43.7271 30.6142 44.9341 26.9286 45.0133C26.9067 45.0135 26.8862 45.0137 26.8657 45.0139C26.8117 45.0144 26.7578 45.0148 26.7039 45.0153Z" fill="#FFEA4B"/>
</g>
<g opacity="0.55">
<path d="M32.3821 43.8919C31.441 43.9001 30.2582 43.8759 29.1811 43.7514C29.1297 43.7455 29.0783 43.7395 29.0269 43.7323C28.8713 43.7133 28.5231 43.6832 28.216 43.6578C27.3358 43.5838 26.1318 43.4821 24.7149 43.261C24.6609 43.2525 24.6069 43.2441 24.5529 43.2356C24.1787 43.1738 23.8212 43.1093 23.4843 43.0434C23.375 43.029 23.258 43.0122 23.1333 42.9942C23.042 42.9797 22.9507 42.9651 22.8594 42.9506C21.4437 42.713 18.6554 42.0421 15.8776 40.2182C15.7394 40.1276 15.6012 40.0344 15.4656 39.9386C13.6118 38.6436 12.044 37.0209 10.8169 35.1541C8.86371 32.3268 7.78533 28.9575 7.76286 25.4935C7.6692 23.4383 7.86856 20.9711 8.78245 18.4288C8.81253 18.3444 8.8439 18.2612 8.87528 18.178C10.6361 13.5111 13.8767 10.9778 14.976 10.1265C16.1519 9.21191 17.419 8.44835 18.9702 7.72568C19.0517 7.64589 19.1332 7.5661 19.2159 7.4863C25.8696 1.14797 36.3503 1.08091 43.0854 7.33194C43.0945 7.33952 43.9722 8.15582 44.3581 8.53382C44.3684 8.54393 44.3788 8.55404 44.3892 8.56543C45.5237 9.68178 47.6343 12.0051 49.0279 15.0095C49.0541 15.0654 49.0803 15.1225 49.1051 15.1784C49.5974 16.271 49.9929 17.4474 50.2795 18.654C50.6638 20.0346 50.8548 21.3186 50.94 22.4007C51.0361 22.9738 51.1041 23.5497 51.1425 24.131C51.1455 24.1782 51.1485 24.2266 51.1515 24.2738C51.1907 24.9443 51.2054 25.7528 51.2075 25.8434C51.2079 25.8906 51.2083 25.9365 51.2087 25.9837C51.2598 31.8427 48.4222 37.306 43.6166 40.5977C43.4762 40.6933 43.3345 40.7877 43.1915 40.8807C41.9389 41.6863 38.5439 43.5857 34.0778 43.8401C33.8622 43.8522 33.2166 43.8859 32.3821 43.8932L32.3821 43.8919Z" fill="#FFEA4B"/>
</g>
<g opacity="0.55">
<path d="M20.1351 40.5038C13.686 40.56 7.38023 37.3102 3.83893 31.4114C-1.47039 22.5703 1.4422 11.1282 10.3432 5.85319L12.3014 4.69332C21.2024 -0.580445 32.7207 2.31017 38.03 11.1513C43.3393 19.9925 40.4267 31.4345 31.5258 36.7095L29.5675 37.8694C26.6052 39.6247 23.3525 40.4758 20.1351 40.5038Z" fill="#FFEA4B"/>
</g>
<g opacity="0.55">
<path d="M25.013 39.145C24.0655 39.1533 23.1045 39.0902 22.1377 38.9507L20.9575 38.7811C10.7009 37.3068 3.58993 27.8525 5.07536 17.6639C6.56207 7.47535 16.0805 0.410556 26.3371 1.88492L27.5173 2.05448C37.7739 3.52885 44.8848 12.9831 43.3994 23.1717C42.0546 32.3999 34.1184 39.0644 25.0143 39.1437L25.013 39.145Z" fill="#FFEA4B"/>
</g>
<g opacity="0.55">
<path d="M21.4963 43.1398C20.5089 43.1484 19.5106 43.0729 18.509 42.9094C15.9309 42.4868 13.5547 41.5113 11.5022 40.1096C10.9242 39.7945 10.3627 39.455 9.83703 39.1012C9.78666 39.0672 9.73499 39.0319 9.68462 38.9979C7.69918 37.6288 4.96355 35.1885 3.2081 31.3315C3.20025 31.3149 3.1937 31.2997 3.18585 31.2832C2.83497 30.5057 2.60582 29.8482 2.41864 29.2912C1.15586 25.5358 1.26712 21.6523 2.48236 18.1814C2.96192 16.4847 3.69976 14.81 4.68585 13.1866C4.71624 13.1366 4.74662 13.0866 4.77828 13.0366C5.22921 12.0327 5.92542 10.7384 6.98077 9.40148C7.0519 9.31158 7.12303 9.22295 7.19673 9.1343C10.2028 5.47688 14.6485 3.17294 19.3962 2.81271C24.1862 2.44957 28.9807 4.07866 32.555 7.28081C32.6909 7.40207 32.8242 7.52591 32.955 7.65104C34.7275 9.34344 36.025 11.3282 36.2671 11.7088C36.2879 11.7405 36.3075 11.7735 36.3283 11.8052C37.534 13.7295 38.2286 15.6328 38.5361 16.5957C38.5401 16.6071 38.5427 16.6186 38.5467 16.63C39.331 19.1104 39.6926 21.8558 39.5642 24.3607C39.562 24.399 39.5597 24.4372 39.5575 24.4755C39.5363 24.8367 39.5082 25.1507 39.4506 25.7608L39.4458 25.8042C39.2657 27.682 38.7773 29.5446 38.007 31.3178C37.7017 32.0934 37.3298 32.8824 36.8757 33.6694C36.8277 33.754 36.7783 33.8374 36.7277 33.9207C33.7146 39.5794 27.8336 43.0859 21.4963 43.1411L21.4963 43.1398Z" fill="#FFEA4B"/>
</g>
<g opacity="0.55">
<path d="M21.5342 41.9175C18.639 41.9428 15.6392 41.3095 13.0991 40.0944C13.0102 40.0518 12.9212 40.008 12.8335 39.9641C9.1478 38.1238 5.9316 34.7591 4.22804 30.9616C4.19007 30.8777 4.15339 30.7939 4.1167 30.7087C2.48632 26.9119 2.48947 23.2934 2.77958 20.9261C2.78437 20.8866 2.78916 20.847 2.79523 20.8074C2.83254 20.5201 2.87126 20.2493 2.91143 19.9964C2.95639 19.704 3.00897 19.4012 3.07049 19.0933C3.24994 18.1734 3.4194 17.5814 3.49297 17.3295C3.50666 17.2796 3.52164 17.231 3.53661 17.1812C4.18158 15.0162 5.85749 10.9214 9.84682 7.81916C9.94502 7.74305 10.0458 7.66692 10.1453 7.59208C13.4788 5.11415 17.6088 3.86394 21.7746 4.06871C21.9519 4.07737 22.1305 4.08857 22.3078 4.10361C25.4751 4.35789 28.6565 5.49977 31.2673 7.32135C31.3603 7.38686 31.4534 7.45237 31.5451 7.51917C35.3622 10.2958 37.2595 14.0737 38.0845 16.2106C38.2652 16.6121 38.4292 17.0201 38.5779 17.4333C38.624 17.5604 38.6674 17.6876 38.7109 17.8148C39.7643 20.9675 39.9067 24.4941 39.1133 27.7458C39.0835 27.8673 39.0525 27.99 39.0202 28.1101C38.4419 30.272 36.8997 34.3809 33.0605 37.6145C32.9674 37.6931 32.8731 37.7705 32.7774 37.8478C31.4272 38.9373 28.5782 40.8754 24.6684 41.6147C24.6171 41.6241 24.5658 41.6335 24.5133 41.6429C23.5492 41.8158 22.5485 41.9062 21.5342 41.915L21.5342 41.9175Z" fill="#FFEA4B"/>
</g>
<g opacity="0.55">
<path d="M23.5206 44.4384C20.8693 44.4615 18.2158 43.9286 15.8155 42.8398C15.6878 42.7823 15.5602 42.7221 15.4351 42.662C13.256 41.6096 11.3946 40.1858 9.28604 37.9441C6.135 35.8683 3.74736 32.842 2.46421 29.2551C1.4219 26.3408 1.17357 23.1862 1.74789 20.1342C1.78346 19.9425 1.82289 19.7521 1.8649 19.563C2.56193 16.4474 4.07328 13.6562 6.36858 11.2409C6.42948 11.1562 6.49167 11.0728 6.55385 10.9893C7.20879 10.1163 8.25212 8.87258 9.64125 7.6743C13.1347 3.95141 18.0954 1.96056 23.1835 2.20832C28.3764 1.81616 33.3776 3.58375 37.061 7.22754C37.2178 7.38305 37.3719 7.54114 37.5223 7.70182C40.7728 11.1721 42.4773 15.8127 42.3214 20.7666C42.3205 20.8062 42.3182 20.8458 42.3173 20.8866C42.2671 22.2007 41.7438 26.9755 41.6882 27.3829C41.6871 27.3931 41.6859 27.4033 41.6834 27.4148C41.2585 30.5179 40.3908 33.2116 39.1055 35.4216C39.0625 35.496 39.0182 35.5691 38.9752 35.6422C37.8994 37.4295 35.4461 40.7288 31.1007 42.7538C30.9562 42.8214 30.8117 42.8865 30.6659 42.949C28.4184 43.9226 25.9703 44.4184 23.5206 44.4397L23.5206 44.4384ZM7.91073 9.77475C7.91073 9.77475 7.90436 9.77991 7.90181 9.78248C7.90436 9.77991 7.90819 9.77732 7.91073 9.77475ZM7.92476 9.76315C7.92476 9.76315 7.91584 9.77088 7.91201 9.77346C7.91583 9.7696 7.92093 9.76573 7.92476 9.76315Z" fill="#FFEA4B"/>
</g>
<g opacity="0.55">
<path d="M24.7904 45.412C24.228 45.4169 23.6642 45.395 23.1001 45.3451C21.0306 45.2419 18.577 44.808 16.1171 43.6624C16.0372 43.6248 15.9573 43.5872 15.8786 43.5484C11.3668 41.362 9.13859 37.9134 8.39009 36.7427C7.58697 35.4921 6.94242 34.1674 6.36865 32.5666C6.29598 32.4792 6.22459 32.3906 6.1532 32.3019C0.438429 25.116 1.37274 14.7473 8.28305 8.6835C8.29197 8.67577 9.19161 7.88735 9.611 7.53804C9.62248 7.52902 9.63267 7.52 9.64415 7.51097C10.8718 6.49649 13.4004 4.63142 16.5444 3.5403C16.6033 3.51938 16.6622 3.49973 16.7211 3.48009C17.8631 3.09771 19.0805 2.81798 20.3168 2.65033C21.736 2.402 23.0413 2.33706 24.1341 2.3556C24.7141 2.31484 25.2944 2.30341 25.8762 2.32002C25.9276 2.32085 25.979 2.32295 26.0303 2.32506C26.7021 2.34982 27.5154 2.41288 27.6053 2.41975C27.6554 2.42314 27.7043 2.42782 27.7544 2.43248C33.6267 2.94253 38.8264 6.26955 41.6657 11.3301C41.7505 11.4811 41.8327 11.6335 41.9137 11.7884C42.5992 13.1038 44.1773 16.6422 44.0041 21.0785C43.9862 21.5327 43.8761 23.9226 43.4478 25.9084C43.4367 25.9582 43.4256 26.0093 43.4144 26.0592C43.3798 26.2113 43.3173 26.5523 43.2622 26.8538C43.104 27.7174 42.8871 28.8991 42.5293 30.2797C42.5156 30.3321 42.502 30.3846 42.4883 30.437C42.39 30.8001 42.2916 31.1466 42.193 31.4752C42.1683 31.5826 42.141 31.6963 42.11 31.819C42.0889 31.9008 42.0678 31.9839 42.0454 32.0658C41.6735 33.4439 40.7353 36.1408 38.6417 38.7189C38.5324 38.8538 38.4206 38.9861 38.3075 39.1172C36.8342 40.8238 35.059 42.2155 33.0739 43.2493C30.5437 44.64 27.692 45.3893 24.7917 45.4145L24.7904 45.412Z" fill="#FFEA4B"/>
</g>
<g opacity="0.55">
<path d="M24.6706 40.2232C21.8935 40.2474 19.2577 39.6849 16.8236 38.5455C16.7901 38.5305 16.7578 38.5142 16.7243 38.4991C13.158 36.8032 10.9059 34.3013 9.64474 32.5011C5.64021 26.7837 5.60372 19.4998 8.94958 13.8701C9.62371 12.4 10.6535 10.6386 12.2015 8.94913C12.6666 8.40173 13.168 7.87953 13.7081 7.38377C13.8164 7.28462 13.9259 7.18673 14.0368 7.0901C15.5303 5.78633 17.4181 4.64365 19.3768 3.82942C22.1193 2.49436 25.2506 1.86124 28.5132 2.14403C33.5824 2.58327 37.9511 5.1446 40.8109 8.87082C41.9404 10.0089 43.0531 11.4188 43.9669 13.1416C44.0152 13.2318 44.0622 13.3232 44.108 13.4134C45.5463 16.2451 46.2082 19.414 46.0239 22.5774C46.0161 22.7101 46.007 22.8441 45.9953 22.9769C45.7632 25.8104 44.8411 28.5875 43.3278 31.0075C43.2049 31.205 43.077 31.4 42.9464 31.5911C41.7052 33.408 39.5007 35.9309 36.0436 37.6319C35.9579 37.6735 35.8722 37.715 35.7865 37.7553C34.9132 38.1672 34.0479 38.486 33.2155 38.7317C32.7408 38.9285 32.2583 39.1049 31.7679 39.2609C31.709 39.2793 31.6514 39.2976 31.5925 39.316C30.8753 39.5365 30.177 39.7008 29.5078 39.8227C29.2733 39.8706 29.0374 39.9122 28.8002 39.9513C28.6822 39.9702 28.5642 39.9878 28.445 40.0041C27.6178 40.1185 26.7798 40.173 25.94 40.1713C25.8335 40.1787 25.7257 40.186 25.6179 40.192C25.2997 40.2101 24.9839 40.2205 24.6693 40.2232L24.6706 40.2232ZM38.1396 12.7868C38.1396 12.7868 38.1461 12.7957 38.1487 12.8007C38.1461 12.7957 38.1422 12.7919 38.1396 12.7868Z" fill="#FFEA4B"/>
</g>
<g opacity="0.55">
<path d="M24.6536 45.9616C23.3966 45.9726 22.2722 45.8625 21.3425 45.7137C21.2975 45.7065 21.2513 45.6992 21.2063 45.6919C18.6859 45.27 15.1287 44.1722 11.9379 41.3698C10.3555 40.126 8.79646 38.4776 7.55002 36.3049C7.48092 36.1843 7.4131 36.0638 7.34784 35.9419C5.56524 32.6527 4.86509 28.7776 5.37816 25.0322C5.39383 24.9147 5.41207 24.7972 5.4303 24.6797C5.62499 23.4446 6.16223 21 7.56192 18.5096C7.60113 18.4403 7.64033 18.3711 7.67954 18.3032C8.64221 16.6444 9.91533 15.1002 11.378 13.7979C13.639 10.5411 17.0023 8.09226 20.9756 6.98244C21.6378 6.7981 22.3055 6.65199 22.9761 6.54538C23.0671 6.52291 23.1568 6.50044 23.2478 6.47797C26.4088 5.72342 29.5752 5.88078 32.4669 6.77775C38.1589 8.39391 42.5059 12.7513 44.2298 18.1442C45.1982 20.6765 45.5755 23.4563 45.2392 26.2754C45.4371 31.3041 43.492 36.1818 39.8722 39.7018C39.7806 39.7906 39.6889 39.8794 39.5946 39.9656C37.6828 41.7437 35.4171 42.9892 33.2183 43.8029C32.7161 44.0726 32.1995 44.3207 31.6711 44.5421C31.5278 44.6021 31.3845 44.6607 31.2399 44.7168C28.8789 45.6353 26.6064 45.9446 24.6536 45.9616Z" fill="#FFEA4B"/>
</g>
<g opacity="0.55">
<path d="M24.0388 46.1277C23.782 46.1299 23.5252 46.1271 23.2671 46.1178C23.0937 46.1117 22.9215 46.1043 22.7494 46.093C21.2566 45.9989 19.7055 45.7037 18.2403 45.242C16.2697 44.698 14.3889 43.8394 12.7148 42.6869C12.6399 42.6353 12.5649 42.5837 12.4913 42.5307C8.70698 39.8368 6.85091 36.2204 6.08052 34.305C6.05164 34.2326 6.02277 34.1614 5.99518 34.0889C5.7101 33.3491 5.47493 32.5884 5.29095 31.8094C5.08028 31.3572 4.88362 30.8908 4.71261 30.4217C4.69682 30.3772 4.67974 30.3327 4.66394 30.2882C3.63605 27.4082 3.32383 24.1419 3.78132 21.0909C3.79831 20.9772 3.81659 20.8648 3.83615 20.7524C3.87524 20.5225 3.9182 20.295 3.9663 20.0689C4.30041 18.3301 4.89217 16.6898 5.69954 15.1853C7.61025 10.4827 11.4766 6.82794 16.3616 5.12729C16.487 5.0841 16.6125 5.04092 16.738 5.00029C20.4306 3.80873 25.4214 3.78821 29.1577 4.95077C29.195 4.96192 29.2311 4.97436 29.2684 4.98552C31.4895 5.69318 33.6262 6.88498 35.6217 8.52952C37.8371 10.3533 39.2912 12.4897 39.9935 13.6685C42.9274 18.0765 43.5869 23.4749 42.0702 28.3106C42.067 28.3884 42.0638 28.465 42.0594 28.5415C42.056 28.6002 42.0527 28.6589 42.0481 28.7177C41.9039 30.8859 41.3563 33.175 40.5031 35.1633C40.4641 35.2542 40.425 35.3438 40.3847 35.4347C39.2688 37.9201 37.569 40.1644 35.4709 41.9237C35.4148 41.9701 35.3587 42.0165 35.3026 42.0629C32.1217 44.6632 28.1473 46.0919 24.0375 46.1277L24.0388 46.1277ZM38.5299 11.7668C38.5299 11.7668 38.5351 11.7719 38.5377 11.7757C38.5351 11.7731 38.5325 11.7693 38.5299 11.7668Z" fill="#FFEA4B"/>
</g>
<g opacity="0.55">
<path d="M24.9605 46.6694C23.0064 46.6864 21.1566 46.4347 19.4174 45.918C18.4691 45.6903 17.4519 45.3675 16.3885 44.8985C16.3176 44.8672 16.2467 44.8359 16.1771 44.8034C11.6059 42.717 9.00078 39.1965 7.85419 37.2831C5.31736 33.0489 4.76512 28.0233 6.15955 23.4552C6.36064 21.7763 6.80756 20.1653 7.46343 18.6622C7.43285 17.6574 7.49075 16.6391 7.64234 15.6161C7.98076 13.3416 8.75709 11.2214 9.8796 9.3392C10.1199 8.91876 10.3808 8.50706 10.6598 8.10286C14.8379 2.06032 22.4049 -0.699369 29.5247 1.22195L29.5543 1.22934C30.1695 1.3949 30.7384 1.55193 31.3462 1.75708C34.2511 2.6871 36.2952 4.16668 37.3919 5.06398C37.7733 5.36422 38.1368 5.67481 38.4824 5.99322C38.5083 6.01723 38.5329 6.04125 38.5588 6.06398C38.8708 6.35589 39.1531 6.64041 39.4396 6.9453C40.0187 7.54483 40.5505 8.16134 41.0298 8.7898C42.3014 10.4585 43.2212 12.2859 43.8014 14.1813C44.4045 15.9068 44.7219 17.7012 44.7581 19.4967C44.8158 19.9324 44.8568 20.3683 44.8812 20.8068C44.8858 20.8897 44.8904 20.9738 44.8937 21.0567C44.9247 21.8179 44.907 22.5884 44.841 23.4129C44.6972 25.1858 44.2808 26.9087 43.6195 28.5267C43.581 29.8573 43.3872 31.1855 43.0377 32.4831C42.8405 33.4312 42.5623 34.3698 42.2005 35.29C40.4808 39.6543 36.9657 43.2512 32.5551 45.1581C32.4796 45.1907 32.4028 45.2232 32.3261 45.2545C29.7763 46.3137 27.4979 46.5478 26.0041 46.6322C25.6537 46.6519 25.3059 46.6638 24.9605 46.6668L24.9605 46.6694Z" fill="#FFEA4B"/>
</g>
<g opacity="0.55">
<path d="M21.5664 45.3228C15.4563 45.376 9.66996 42.2071 6.4906 36.8805C5.70623 36.0136 4.97654 35.0863 4.34565 34.1505L4.34306 34.148L4.33526 34.1366L4.15184 33.864C2.68708 31.6855 1.78666 29.2891 1.42001 26.8498C1.32905 26.283 1.26626 25.7083 1.2304 25.1295C1.12146 23.3831 1.28239 21.6637 1.68151 20.0187C1.85836 19.095 2.11105 18.1808 2.44223 17.2864C4.13325 12.7157 7.69026 9.06879 12.2351 7.24355C14.7187 6.24747 17.3295 5.84974 19.8835 6.01626C20.9555 5.84749 22.045 5.77805 23.1431 5.8093C23.3319 5.81403 23.5194 5.8226 23.7082 5.83499C27.7756 6.08398 30.7069 7.69741 31.9596 8.38673C39.853 12.7311 43.0024 22.2836 39.4697 30.3383C38.8334 33.3552 37.3939 36.1406 35.3194 38.406C32.9775 41.5143 29.5849 43.8384 25.5656 44.8211C24.2317 45.1465 22.8901 45.31 21.5638 45.3215L21.5664 45.3228Z" fill="#FFEA4B"/>
</g>
<g opacity="0.55">
<path d="M25.9646 46.0893C20.5362 46.1366 15.2796 43.6416 11.9309 39.2118C10.851 38.4649 10.0255 37.745 9.49467 37.2408C9.4623 37.2104 9.42993 37.1788 9.39885 37.1485C7.58339 35.394 6.37506 33.4671 5.93969 32.7196C5.91623 32.6803 5.89406 32.6409 5.8706 32.6003C5.06352 31.1903 4.37123 29.5446 3.91964 27.967C3.91167 27.9364 3.90243 27.9072 3.89446 27.8766C3.67315 27.0865 3.15413 24.9903 3.12056 22.6106C3.12009 22.5571 3.11962 22.5035 3.11916 22.4499C3.11221 20.9156 3.3291 19.2824 3.45891 18.5594C3.46501 18.5223 3.4724 18.4865 3.4785 18.4495C3.89424 16.2074 4.86236 13.1098 7.09962 10.2231C8.54731 8.08304 11.4509 4.7441 16.2549 3.03905C16.3086 3.02073 16.3611 3.00114 16.4149 2.98281C18.7141 2.19241 20.8374 1.99535 22.3062 1.98255C22.3267 1.98237 22.346 1.9822 22.3665 1.98203C25.5737 1.21687 29.016 1.35397 32.2927 2.52436C33.5524 2.9751 34.6795 3.53924 35.6826 4.16441C35.8749 4.2686 36.0839 4.38794 36.3072 4.5212C36.355 4.55012 36.4027 4.57904 36.4505 4.60796C39.9591 6.7546 41.9939 9.66023 42.8945 11.2008C42.9115 11.2287 42.9271 11.2566 42.9441 11.2858C44.1461 13.3697 45.0569 16.0759 45.0661 16.1026C45.074 16.1268 45.0819 16.1497 45.0898 16.1738C45.2745 16.7385 45.4324 17.3188 45.5646 17.9107C45.8791 19.0788 46.1314 20.4784 46.176 22.0608C46.1764 22.0991 46.178 22.1373 46.1783 22.1756C46.1953 22.9484 46.1569 23.552 46.1265 24.0357L46.1242 24.0676C46.1163 24.1914 46.1071 24.3139 46.0966 24.4377C46.0454 25.0478 45.9891 25.6567 45.9123 26.2721C45.8198 28.1861 45.4178 30.0875 44.7003 31.8896C44.6601 31.9895 44.6199 32.088 44.5783 32.1879C44.2211 33.0392 43.8748 33.6684 43.6991 33.9863C43.6107 34.158 43.5185 34.3348 43.4212 34.5155C42.9057 35.6258 42.2666 36.6951 41.4998 37.7017C40.596 38.8907 39.5857 39.953 38.4131 40.9479C38.366 40.9878 38.3188 41.0278 38.2716 41.0664C36.1237 42.8517 34.5711 43.8562 32.7367 44.6502C30.5352 45.6018 28.2345 46.0657 25.9659 46.0867L25.9646 46.0893ZM43.7534 33.8799C43.7407 33.9043 43.7281 33.9286 43.7155 33.9542C43.7205 33.944 43.7256 33.9338 43.7319 33.9235C43.7395 33.9094 43.7471 33.8953 43.7546 33.8799L43.7534 33.8799ZM43.7736 33.8415C43.7736 33.8415 43.7735 33.8389 43.7748 33.8377C43.7748 33.8377 43.7748 33.8402 43.7736 33.8415Z" fill="#FFEA4B"/>
</g>
<g opacity="0.55">
<path d="M25.8924 45.7825C23.3978 45.8042 21.2124 45.3577 20.7261 45.251C20.6914 45.2436 20.6554 45.235 20.6206 45.2277C19.7175 45.0238 18.8253 44.7484 17.9569 44.4078C17.6043 44.3139 17.2953 44.2222 17.0391 44.1377C17.012 44.129 16.985 44.1203 16.9579 44.1104C14.6684 43.351 12.1686 42.0412 10.2711 40.605C10.2362 40.5785 10.2013 40.552 10.1664 40.5255C8.66825 39.3741 7.17449 37.8464 6.06608 36.3357C6.04269 36.304 6.0193 36.2723 5.9972 36.2406C4.38168 34.0022 3.20865 31.2638 2.6969 28.5286C2.68479 28.4649 2.67396 28.4012 2.66185 28.3376C2.07417 24.9921 2.55719 22.0709 2.89772 20.6279C2.91132 20.5678 2.9262 20.5078 2.9411 20.449C3.47814 18.276 4.36495 16.4571 5.11021 15.193C5.59186 13.8828 6.61181 11.5768 8.42752 9.38119C8.44912 9.35549 8.46945 9.33108 8.49106 9.30538C9.32595 8.30708 11.636 5.81128 15.027 4.1938C15.1165 4.15093 15.2061 4.10933 15.2969 4.06773C18.5811 2.57106 22.367 2.05468 25.9568 2.61395C26.0237 2.62484 26.0918 2.63573 26.1587 2.64663C27.6747 2.90127 29.9703 3.46543 32.2987 4.7053C32.3529 4.73417 32.4058 4.76304 32.46 4.7919C34.0159 5.64056 35.7282 6.90621 37.1651 8.2393C38.2254 9.09738 39.1997 10.0952 40.0608 11.228C40.0998 11.2799 40.1725 11.375 40.2414 11.4688L40.3038 11.5511C41.3027 12.8753 41.8006 13.7229 41.9635 14.0021C41.9713 14.0148 41.9778 14.0275 41.9857 14.0389C42.9372 15.6696 43.5352 17.2536 43.8691 18.2966C43.8771 18.3233 43.8863 18.35 43.8942 18.3767C44.293 19.641 45.1901 22.9775 44.9163 26.6277C44.9139 26.6532 44.9129 26.6787 44.9105 26.703C44.7602 28.6086 44.2739 30.7148 43.5767 32.4823C43.5704 32.4989 43.5629 32.5155 43.5566 32.5322C43.4246 32.8637 43.2761 33.203 43.1198 33.5398C42.7169 34.6019 42.2001 35.7084 41.5328 36.7856C41.5125 36.8177 41.4936 36.8497 41.4733 36.8805C40.4399 38.5259 38.9971 40.194 37.5161 41.4569C37.4549 41.5097 37.3937 41.5613 37.3312 41.6128C34.6325 43.8505 31.3333 45.2517 27.7905 45.6652C27.7071 45.6748 27.6237 45.6845 27.5416 45.6929C26.9861 45.75 26.4304 45.7765 25.8912 45.7812L25.8924 45.7825Z" fill="#FFEA4B"/>
</g>
<g opacity="0.55">
<path d="M25.2124 43.7872C24.65 43.7921 24.0862 43.7703 23.5221 43.7203C21.4526 43.6159 18.999 43.1832 16.5391 42.0376C16.4605 42.0013 16.3818 41.9637 16.3032 41.9261C11.7837 39.7373 9.55539 36.2811 8.8095 35.1154C8.00768 33.8673 7.36442 32.5426 6.79067 30.9444C6.71799 30.8557 6.64532 30.7671 6.5739 30.6759C0.859111 23.4874 1.79726 13.1174 8.70888 7.05616C8.74583 7.02395 9.62125 6.25615 10.0343 5.91328C10.0458 5.90425 10.056 5.89524 10.0674 5.88621C11.2951 4.87173 13.8237 3.00666 16.9677 1.91554C17.0266 1.89461 17.0855 1.87497 17.1444 1.85532C18.2864 1.47294 19.5038 1.19322 20.7401 1.02556C22.1593 0.777241 23.4646 0.711025 24.5574 0.730841C25.1374 0.690075 25.7177 0.678643 26.2995 0.695258C26.3509 0.696086 26.4022 0.698189 26.4549 0.700281C27.1266 0.725041 27.94 0.788106 28.0299 0.794975C28.0787 0.798376 28.1288 0.803042 28.1777 0.807718C34.05 1.31777 39.2509 4.64478 42.089 9.70659C42.1699 9.85129 42.2482 9.99601 42.3252 10.142C43.0147 11.4599 44.6005 15.0047 44.4261 19.455C44.4082 19.9092 44.2981 22.2991 43.8698 24.2849C43.8587 24.3347 43.8476 24.3859 43.8365 24.4357C43.8018 24.5878 43.7393 24.9289 43.6842 25.2304C43.526 26.0927 43.3091 27.2756 42.9513 28.655C42.9376 28.7074 42.924 28.7598 42.9103 28.8122C42.812 29.1766 42.7136 29.5231 42.615 29.8505C42.5878 29.968 42.5568 30.0946 42.522 30.2301C42.5059 30.2927 42.4897 30.3541 42.4736 30.4167C41.8331 32.7998 40.6262 35.166 39.0738 37.08C38.9608 37.2187 38.8464 37.3562 38.7294 37.4912C37.2561 39.1978 35.4809 40.5895 33.4959 41.6233C30.9657 43.0139 28.114 43.7632 25.2137 43.7885L25.2124 43.7872Z" fill="#FFEA4B"/>
</g>
<path d="M11.4142 35.3144C14.8689 35.2843 17.6467 32.6533 17.6187 29.4379C17.5907 26.2225 14.7674 23.6403 11.3128 23.6704C7.85815 23.7005 5.08032 26.3315 5.10833 29.5469C5.13634 32.7623 7.95959 35.3445 11.4142 35.3144Z" fill="#FFDB27" fill-opacity="0.8"/>
<path d="M41.7282 35.5963C45.1828 35.5662 47.9607 32.9352 47.9327 29.7198C47.9046 26.5043 45.0814 23.9221 41.6268 23.9522C38.1721 23.9823 35.3943 26.6133 35.4223 29.8287C35.4503 33.0442 38.2736 35.6264 41.7282 35.5963Z" fill="#FFDB27" fill-opacity="0.8"/>
<path d="M22.5413 19.6674C22.5793 24.0355 18.8944 27.609 14.3108 27.6489C9.72711 27.6889 5.98049 24.1801 5.94243 19.812C5.90438 15.4438 9.58931 11.8703 14.173 11.8304C18.7566 11.7905 22.5032 15.2992 22.5413 19.6674Z" fill="white"/>
<path d="M22.5413 19.6674C22.5793 24.0355 18.8944 27.609 14.3108 27.6489C9.72711 27.6889 5.98049 24.1801 5.94243 19.812C5.90438 15.4438 9.58931 11.8703 14.173 11.8304C18.7566 11.7905 22.5032 15.2992 22.5413 19.6674Z" stroke="black"/>
<path d="M19.6516 19.333C19.6775 22.3113 17.2752 24.7468 14.2859 24.7729C11.2966 24.7989 8.85222 22.4056 8.82627 19.4273C8.80033 16.4491 11.2026 14.0136 14.192 13.9875C17.1813 13.9615 19.6257 16.3548 19.6516 19.333Z" fill="#2E2C2C"/>
<path d="M19.6516 19.333C19.6775 22.3113 17.2752 24.7468 14.2859 24.7729C11.2966 24.7989 8.85222 22.4056 8.82627 19.4273C8.80033 16.4491 11.2026 14.0136 14.192 13.9875C17.1813 13.9615 19.6257 16.3548 19.6516 19.333Z" stroke="black"/>
<path d="M44.9138 19.4725C44.9519 23.8407 41.2669 27.4141 36.6833 27.4541C32.0997 27.494 28.353 23.9853 28.315 19.6171C28.2769 15.2489 31.9619 11.6755 36.5455 11.6355C41.1292 11.5956 44.8758 15.1043 44.9138 19.4725Z" fill="white"/>
<path d="M44.9138 19.4725C44.9519 23.8407 41.2669 27.4141 36.6833 27.4541C32.0997 27.494 28.353 23.9853 28.315 19.6171C28.2769 15.2489 31.9619 11.6755 36.5455 11.6355C41.1292 11.5956 44.8758 15.1043 44.9138 19.4725Z" stroke="black"/>
<path d="M42.0237 19.1381C42.0496 22.1164 39.6473 24.5519 36.658 24.5779C33.6687 24.604 31.2243 22.2107 31.1983 19.2324C31.1724 16.2541 33.5747 13.8186 36.564 13.7926C39.5534 13.7665 41.9977 16.1598 42.0237 19.1381Z" fill="#2E2C2C"/>
<path d="M42.0237 19.1381C42.0496 22.1164 39.6473 24.5519 36.658 24.5779C33.6687 24.604 31.2243 22.2107 31.1983 19.2324C31.1724 16.2541 33.5747 13.8186 36.564 13.7926C39.5534 13.7665 41.9977 16.1598 42.0237 19.1381Z" stroke="black"/>
<g clip-path="url(#clip1_349_6878)">
<path d="M18.564 29.2221C21.2068 31.8199 25.1734 32.4249 28.6341 31.3805C29.6486 31.0746 30.6318 30.6346 31.5483 30.1024C31.9756 29.8546 32.151 29.2286 31.8742 28.8052C31.5973 28.3819 31.0402 28.2126 30.5829 28.4778C30.2193 28.6891 29.8461 28.8853 29.4634 29.0609C29.4127 29.084 29.3602 29.1072 29.3095 29.1303C29.3227 29.1245 29.4409 29.0762 29.3414 29.1168C29.2513 29.1536 29.1594 29.1922 29.0693 29.2289C28.8609 29.3121 28.6506 29.3878 28.4365 29.4596C28.0383 29.5918 27.6324 29.7032 27.2225 29.7919C27.0308 29.8333 26.8389 29.8672 26.6452 29.8991C26.4515 29.9311 26.6095 29.9051 26.6452 29.8991C26.5906 29.9072 26.5342 29.9133 26.4796 29.9195C26.3686 29.9318 26.2575 29.9441 26.1465 29.9527C25.7305 29.9885 25.3143 29.9978 24.8979 29.9806C24.7188 29.9727 24.5398 29.961 24.3607 29.9417C24.3117 29.9365 24.257 29.9351 24.2079 29.9241C24.24 29.9295 24.4097 29.9527 24.2287 29.9258C24.1268 29.9097 24.025 29.8955 23.925 29.8774C23.5458 29.8107 23.1701 29.7193 22.8018 29.6052C22.63 29.5519 22.4599 29.4928 22.2917 29.4299C22.2445 29.4114 22.1953 29.3929 22.1481 29.3744C22.1802 29.3874 22.3239 29.4504 22.1613 29.38C22.0668 29.3391 21.9741 29.2964 21.8814 29.2537C21.488 29.0679 21.1094 28.8517 20.7512 28.605C20.6678 28.5471 20.5844 28.4873 20.501 28.4274C20.6603 28.5434 20.4403 28.3769 20.391 28.3376C20.2127 28.1915 20.0437 28.0359 19.8784 27.8727C19.5306 27.5257 18.8938 27.5047 18.5523 27.8843C18.2109 28.2638 18.1878 28.8525 18.564 29.2221Z" fill="#2E2C2C"/>
<path d="M18.564 29.2221C21.2068 31.8199 25.1734 32.4249 28.6341 31.3805C29.6486 31.0746 30.6318 30.6346 31.5483 30.1024C31.9756 29.8546 32.151 29.2286 31.8742 28.8052C31.5973 28.3819 31.0402 28.2126 30.5829 28.4778C30.2193 28.6891 29.8461 28.8853 29.4634 29.0609C29.4127 29.084 29.3602 29.1072 29.3095 29.1303C29.3227 29.1245 29.4409 29.0762 29.3414 29.1168C29.2513 29.1536 29.1594 29.1922 29.0693 29.2289C28.8609 29.3121 28.6506 29.3878 28.4365 29.4596C28.0383 29.5918 27.6324 29.7032 27.2225 29.7919C27.0308 29.8333 26.8389 29.8672 26.6452 29.8991C26.4515 29.9311 26.6095 29.9051 26.6452 29.8991C26.5906 29.9072 26.5342 29.9133 26.4796 29.9195C26.3686 29.9318 26.2575 29.9441 26.1465 29.9527C25.7305 29.9885 25.3143 29.9978 24.8979 29.9806C24.7188 29.9727 24.5398 29.961 24.3607 29.9417C24.3117 29.9365 24.257 29.9351 24.2079 29.9241C24.24 29.9295 24.4097 29.9527 24.2287 29.9258C24.1268 29.9097 24.025 29.8955 23.925 29.8774C23.5458 29.8107 23.1701 29.7193 22.8018 29.6052C22.63 29.5519 22.4599 29.4928 22.2917 29.4299C22.2445 29.4114 22.1953 29.3929 22.1481 29.3744C22.1802 29.3874 22.3239 29.4504 22.1613 29.38C22.0668 29.3391 21.9741 29.2964 21.8814 29.2537C21.488 29.0679 21.1094 28.8517 20.7512 28.605C20.6678 28.5471 20.5844 28.4873 20.501 28.4274C20.6603 28.5434 20.4403 28.3769 20.391 28.3376C20.2127 28.1915 20.0437 28.0359 19.8784 27.8727C19.5306 27.5257 18.8938 27.5047 18.5523 27.8843C18.2109 28.2638 18.1878 28.8525 18.564 29.2221Z" fill="black" fill-opacity="0.2"/>
</g>
</g>
<defs>
<clipPath id="clip0_349_6878">
<rect width="51.4993" height="48.9452" fill="white" transform="translate(0 0.448608) rotate(-0.499103)"/>
</clipPath>
<clipPath id="clip1_349_6878">
<rect width="13.7126" height="4.31431" fill="white" transform="translate(18.2803 27.6144) rotate(-0.499103)"/>
</clipPath>
</defs>
</svg>
