<svg width="118" height="116" viewBox="0 0 118 116" fill="none" xmlns="http://www.w3.org/2000/svg">
<g clip-path="url(#clip0_892_1820)">
<g opacity="0.55">
<path d="M55.4618 103.66C45.0814 103.66 35.1331 99.7323 27.3729 92.4051C27.0273 92.0801 26.6872 91.7467 26.3527 91.4104C24.4433 89.4832 18.6316 83.6142 14.0407 70.7457C14.0184 70.6835 13.9961 70.6185 13.9738 70.5564C11.8024 64.3793 8.66652 52.0279 12.0755 38.7016C12.1815 38.2891 12.293 37.8765 12.41 37.4668C15.0135 28.3566 20.5437 19.7493 27.5792 13.8576C27.7855 13.6852 27.9917 13.5157 28.2008 13.3462C28.3429 13.2331 28.4851 13.1201 28.6301 13.0071C31.7408 10.1107 35.2195 7.68617 38.9324 5.8127C42.1546 3.95618 45.5609 2.48962 48.9476 1.53734C49.2319 1.45822 49.5162 1.38192 49.8005 1.30845C54.9768 -0.0281307 60.2896 -0.330486 66.5251 0.356172C71.8156 0.938277 76.4595 2.09401 80.7214 3.89401C80.9026 3.97031 81.0838 4.04943 81.2622 4.12855C85.8224 6.13201 97.1784 12.1509 104.144 24.7226C104.261 24.9346 104.378 25.1493 104.493 25.3641C105.995 28.1814 107.104 31.0015 107.924 33.6888C108.019 33.9431 108.111 34.2002 108.2 34.4574C108.345 34.8699 108.481 35.2853 108.615 35.7007C110.536 41.7506 111.01 47.4643 110.934 51.9799C111.634 64.8935 107.23 77.6123 98.4885 86.8496C98.1679 87.1887 97.839 87.525 97.5073 87.8528C95.3052 90.0314 92.8913 91.9501 90.2934 93.5947C89.2537 94.3633 87.991 95.2365 86.4886 96.1209C80.0636 99.9075 73.5104 101.371 70.1766 101.908C70.0261 101.934 69.8728 101.956 69.7223 101.979C68.3954 102.177 67.0714 102.301 65.7836 102.372C64.7746 102.623 63.7711 102.838 62.776 103.013C60.3286 103.448 57.8813 103.663 55.459 103.663L55.4618 103.66ZM83.6315 97.028C83.6315 97.028 83.6231 97.0308 83.6203 97.0337C83.6231 97.0337 83.6287 97.0308 83.6315 97.028Z" fill="#5267EE"/>
</g>
<g opacity="0.55">
<path d="M60.2835 108.953C56.7657 108.953 53.5017 108.642 51.2411 108.263C51.1073 108.24 50.9707 108.218 50.8369 108.192C41.4516 106.522 34.0148 101.854 31.2552 99.9243C31.1883 99.8791 31.1215 99.831 31.0546 99.783C29.3375 98.5679 24.3201 94.7673 19.7125 88.8784C13.4241 81.9355 9.22624 72.8564 8.259 62.6695C8.20047 62.0366 8.15308 61.4036 8.11684 60.7706C7.50082 49.2783 11.2192 41.1232 13.215 36.7433C14.8875 33.0726 16.0833 30.7837 17.4826 28.5712C17.5467 28.4695 17.6108 28.3677 17.6749 28.2688C17.6833 28.2547 17.6944 28.2406 17.7028 28.2264C19.509 25.2594 21.7836 22.1285 23.3278 20.2409C23.4114 20.1391 23.4951 20.0346 23.5815 19.9328C27.3333 15.4314 35.4169 7.39216 47.4195 4.13971C47.7122 4.06059 48.0077 3.9843 48.3031 3.91083C54.4438 2.39622 60.1998 2.5912 63.082 2.84269C63.2493 2.85682 63.4165 2.87378 63.5838 2.89073C65.7942 3.11114 68.0464 3.50392 70.2847 4.05212C73.2729 4.61444 76.5704 5.43956 79.4386 6.49357C79.5195 6.52182 79.5975 6.55291 79.6784 6.58116C82.5606 7.6606 85.3201 9.04522 88.6288 11.0741C92.9632 13.7303 98.014 17.3219 102.605 23.8239C102.794 24.0924 102.981 24.3636 103.165 24.6377C107.307 30.7894 109.833 37.899 110.638 45.2318C111.001 47.4077 111.215 49.6117 111.279 51.8187C111.293 52.2651 111.299 52.7144 111.299 53.1609C111.299 54.9496 111.196 56.7835 110.998 58.6202C110.981 59.0554 110.959 59.4623 110.934 59.8381C110.925 59.9512 110.92 60.0642 110.911 60.1772C110.407 67.1032 108.319 74.8231 105.328 80.8307C105.242 81.0058 105.153 81.181 105.063 81.3534C103.424 84.5409 97.1639 95.4511 85.4651 101.981C85.2449 102.103 85.0246 102.224 84.8044 102.343C83.3355 103.129 81.8721 103.801 80.4282 104.383C76.8157 106.121 72.4952 107.681 67.6952 108.427C67.4639 108.464 67.2297 108.498 66.9984 108.529C64.7852 108.831 62.4828 108.955 60.2835 108.955V108.953Z" fill="#5267EE"/>
</g>
<g opacity="0.55">
<path d="M59.3137 112.996C57.7694 112.996 56.6433 112.943 56.189 112.917C56.1277 112.914 56.0663 112.909 56.0078 112.906C49.2594 112.488 42.4052 110.374 37.1453 108.082C32.3147 106.209 27.5203 103.9 22.5225 99.3565C21.9957 98.8789 21.4828 98.3844 20.9782 97.8786C15.4536 92.3175 11.4341 85.1571 9.27943 77.3693C7.70175 72.3507 7.12196 67.7872 6.92963 64.5149C6.91848 64.3058 6.90733 64.0967 6.89618 63.8876C6.62859 57.8716 7.38955 51.6832 9.08152 45.8254C10.4167 40.0778 12.6578 34.5704 15.7267 29.566C15.8327 29.3936 15.9386 29.2213 16.0473 29.0489C16.4877 28.3509 17.0145 27.571 17.6082 26.7403C18.7511 24.9798 20.0417 23.2279 21.4939 21.5437C21.664 21.3487 21.834 21.1538 22.0068 20.9616C23.6988 19.0712 25.5524 17.322 27.5398 15.7368C29.1398 14.3409 31.314 12.6059 34.0568 10.9161C36.4819 9.29124 39.1718 7.83033 42.1432 6.65481C42.4163 6.54744 42.6923 6.44006 42.9682 6.33833C49.0364 4.08903 54.497 3.74429 58.0733 3.6793C59.3053 3.65669 61.7332 3.64821 64.1108 3.84036C64.2279 3.84884 64.3422 3.86014 64.4593 3.86862C69.5714 4.32639 76.2138 6.00489 80.9887 8.04791C81.0974 8.09312 81.2061 8.14116 81.312 8.1892C84.2472 9.47492 86.6973 10.9274 90.1955 13.1597L90.2178 13.1738C90.2764 13.2106 90.3349 13.2473 90.3935 13.284C94.3683 15.8357 97.8638 18.9751 100.791 22.5695C105.688 27.4778 110.862 34.5083 113.585 43.9011C113.705 44.3108 113.816 44.7205 113.925 45.1331C115.89 52.6892 116.043 61.7174 114.337 69.2848C114.243 69.7087 114.14 70.1297 114.034 70.5507C111.949 78.7087 107.478 86.6095 101.627 92.5718C100.983 93.3687 100.314 94.1401 99.6254 94.8833C99.4052 95.1207 99.1822 95.3552 98.9564 95.5869C96.6234 97.986 94.0561 100.128 90.0868 102.976C90.0004 103.038 89.914 103.101 89.8248 103.163C86.4186 105.567 79.4612 109.888 71.1212 111.807C70.9679 111.841 70.8118 111.877 70.6585 111.911C66.5275 112.81 62.1959 112.996 59.3165 112.996H59.3137Z" fill="#5267EE"/>
</g>
<g opacity="0.55">
<path d="M50.4888 114.833C47.9048 114.833 45.4017 114.666 42.9934 114.333C42.8233 114.31 42.6561 114.285 42.4861 114.259C33.9984 112.968 25.3741 109.009 18.8181 103.397C18.6508 103.253 18.4808 103.106 18.3163 102.959C12.5798 97.8869 7.39519 90.5427 4.44331 83.3145C4.38756 83.1788 4.33181 83.0404 4.27885 82.9047C1.90118 76.917 -0.735723 67.6541 0.189702 57.5125C0.206426 57.3317 0.223151 57.148 0.242663 56.9671C1.58899 43.9376 7.98055 32.1485 17.7783 24.6207C20.6104 22.4449 23.6682 20.6732 26.8709 19.3253C31.2026 15.7818 36.7914 12.292 43.523 10.297C43.7488 10.2292 43.9746 10.1642 44.2031 10.102C49.6832 8.58459 55.5479 8.12682 62.667 8.66654C62.8203 8.67784 62.9708 8.68914 63.1214 8.70327C65.2036 8.88412 72.554 9.71207 79.6675 12.7017C79.7985 12.7554 79.9295 12.8119 80.0605 12.8684C81.3205 13.4138 82.7253 14.0863 85.4793 15.5896C86.6472 16.2254 88.1803 17.0647 89.9224 18.2063C97.8722 21.4163 104.782 27.1667 109.613 34.7935C114.625 42.7112 117.298 52.0023 117.34 61.6664C117.34 61.7963 117.34 61.9263 117.34 62.0563C117.309 69.96 115.55 77.4341 112.116 84.2752C108.526 91.4216 103.202 97.2652 96.8241 101.312C94.5105 103.129 92.0465 104.72 89.4765 106.048C89.3538 106.11 89.2339 106.172 89.1113 106.234C86.4772 107.562 83.5142 108.684 80.7156 109.591C77.3094 111.346 73.7136 112.666 70.0537 113.496C69.7777 113.559 69.5018 113.618 69.2258 113.674C64.2754 114.686 59.612 114.675 57.8392 114.627C57.6608 114.621 57.4852 114.615 57.3068 114.607C57.0448 114.596 56.7242 114.579 56.3535 114.553C54.3605 114.737 52.4037 114.83 50.4888 114.83V114.833ZM116.241 59.807C116.241 59.807 116.241 59.824 116.241 59.8325C116.241 59.824 116.241 59.8155 116.241 59.807Z" fill="#5267EE"/>
</g>
<g opacity="0.55">
<path d="M52.0385 116C47.5117 116 42.5223 115.237 37.1119 113.341C36.9641 113.29 36.8192 113.237 36.6714 113.183C33.5718 112.055 28.1754 109.665 22.765 105.259C21.9427 104.669 21.126 104.036 20.3204 103.361C20.1643 103.231 20.0082 103.098 19.8549 102.965C18.4138 101.722 17.402 100.69 16.4264 99.6928L16.3567 99.6221C10.1324 93.462 5.75334 85.6233 3.66556 76.8889C3.65999 76.8607 3.65163 76.8324 3.64605 76.807C3.45093 75.9819 2.99937 74.0773 2.66209 71.1187C2.40007 69.3385 2.23283 67.5413 2.16593 65.7413C2.15757 65.5492 2.15199 65.3542 2.14642 65.162C1.97917 58.4791 3.01609 51.1322 4.98959 45.0059C5.0314 44.8731 5.076 44.7375 5.1206 44.6047C6.85159 39.3968 10.0571 33.005 13.0982 28.6985C13.1818 28.577 13.2682 28.4583 13.3546 28.3397C19.8661 19.3057 28.3343 14.6291 32.8053 12.6454C32.8471 12.6285 32.8889 12.6087 32.9279 12.5917C34.7147 11.8062 43.4087 8.34462 50.2323 7.02782C50.341 7.00804 50.4469 6.98543 50.5556 6.96565C53.4712 6.42876 58.7534 5.89187 67.361 6.39485C67.4474 6.4005 67.5338 6.40615 67.623 6.41181C74.7058 6.8724 81.7664 9.17539 88.0409 13.0665C88.1775 13.1512 88.314 13.236 88.4478 13.3236C93.4513 16.5082 98.2401 21.2611 99.5892 22.6429C99.6812 22.739 99.7731 22.8323 99.8651 22.9283C100.501 23.5896 101.209 24.3666 101.958 25.2568C110.184 33.0106 115.464 44.1723 115.829 56.6537C115.896 58.9171 115.871 60.9771 115.759 62.7828C115.745 62.9947 115.731 63.2066 115.714 63.4157C115.466 66.6851 114.898 69.703 114.128 72.4694C114.109 72.5542 114.089 72.639 114.07 72.7209C113.287 75.9847 112.216 78.9885 111.037 81.6758C110.775 82.3031 110.496 82.9304 110.201 83.5605C110.087 83.8035 109.97 84.0466 109.85 84.2867C109.125 85.7533 108.358 87.1181 107.561 88.3897C105.847 91.2409 104.25 93.3659 103.252 94.5979C103.168 94.7025 103.085 94.8042 103.001 94.9059C102.064 96.0419 98.7056 99.8962 95.6394 102.609C91.0736 106.65 83.3831 111.685 72.5177 112.951C69.393 113.875 65.8669 114.573 61.945 114.734C58.9513 115.514 55.6399 115.997 52.0357 115.997L52.0385 116Z" fill="#5267EE"/>
</g>
<g opacity="0.55">
<path d="M56.4124 110.792C51.5511 110.792 46.4139 110.171 43.6515 109.577C43.554 109.557 43.4592 109.535 43.3616 109.512C35.7854 107.822 27.9555 103.496 23.557 99.9583C23.4873 99.9017 23.4176 99.8452 23.3479 99.7887C21.4831 98.2685 19.741 96.5928 18.1355 94.7843C9.76482 87.1463 4.22899 76.1993 3.05549 64.625C3.02204 64.3057 2.99417 63.9893 2.96908 63.6699C2.39487 56.5547 3.57395 49.9848 5.12376 44.7685C5.82898 41.2391 6.81851 37.7521 8.03383 34.5534C8.07564 34.4403 8.12024 34.3273 8.16205 34.2171C11.9808 24.3948 18.6874 15.9769 27.0524 10.5147C27.2392 10.3932 27.4287 10.2717 27.6183 10.1502C29.667 8.8588 37.0732 4.53258 46.3191 3.03493C46.3888 3.02362 46.4557 3.01232 46.5254 3.00102C51.2138 2.26632 56.5991 2.34262 60.2423 2.66193C61.36 2.62519 62.4862 2.62802 63.629 2.6704C63.7321 2.67323 63.8353 2.67888 63.9356 2.68453C68.2645 2.87951 72.2672 3.43336 75.8351 4.32912C75.8881 4.34325 75.9411 4.35455 75.994 4.36868C77.9508 4.86884 84.8301 6.796 91.1743 10.6588C91.2914 10.7295 91.4085 10.8029 91.5255 10.8736C100.955 16.7398 106.711 25.1719 109.304 29.6761C109.396 29.8372 109.488 29.9983 109.58 30.1622C113.836 37.7804 116.088 46.1248 116.272 54.9723C116.275 55.122 116.278 55.2718 116.281 55.4216C116.345 61.09 115.679 69.6295 112.141 78.1293C112.066 78.313 111.988 78.4967 111.91 78.6775C106.787 90.5513 97.9171 97.5959 94.3408 100.071C94.2544 100.131 94.1652 100.193 94.0788 100.252C91.3276 102.128 88.2587 103.77 83.8183 105.74C79.6288 107.599 75.7404 109.204 70.5585 110.004C70.4442 110.021 70.3272 110.038 70.2101 110.055C67.9384 110.385 64.5238 110.555 60.9949 110.569C60.9336 110.575 60.8694 110.583 60.8081 110.589C59.4228 110.73 57.9315 110.792 56.4096 110.792H56.4124Z" fill="#5267EE"/>
</g>
<g opacity="0.55">
<path d="M57.8644 114.635C51.6902 114.635 45.1565 113.53 39.0632 111.425C38.9657 111.391 38.8709 111.357 38.7733 111.323C35.5929 110.196 31.1497 108.238 26.5672 104.997C21.377 101.724 17.3241 97.8277 14.5367 94.6996C14.3304 94.4679 14.1241 94.2333 13.9207 93.996C9.98203 89.3787 3.26156 79.5338 2.48665 65.4643C2.48386 65.3965 2.47829 65.3287 2.4755 65.2609C2.1661 59.1459 3.13612 54.5541 3.71591 51.8131C4.27896 49.1541 5.04829 45.5145 7.11656 40.9481C7.18067 40.8096 7.242 40.6712 7.30889 40.5327C11.7966 30.8856 18.7262 24.9261 22.4585 22.2303C22.5756 22.1455 22.6927 22.0608 22.8125 21.9788C22.8767 21.9336 22.9408 21.8884 23.0077 21.8432C25.3742 18.814 28.6912 15.1264 32.7609 12.0293C32.8501 11.9615 32.9393 11.8937 33.0285 11.8287C37.1594 8.74016 43.9412 4.69086 52.7996 2.95019C52.9195 2.92759 53.0366 2.90498 53.1564 2.88237C54.5334 2.62523 59.7961 1.85098 63.6762 1.77468C63.7319 1.77468 63.7877 1.77468 63.8406 1.77185C74.1792 1.61644 82.9819 4.94235 88.7044 7.46292C105.554 14.8833 115.333 32.6799 114.165 50.9145C114.198 51.1378 114.229 51.361 114.26 51.5871C114.293 51.8414 114.324 52.0929 114.354 52.3472C114.686 55.1814 114.764 58.0241 114.619 61.853C114.538 63.9893 114.402 66.2584 114.056 68.7139C113.66 72.314 112.883 76.3548 111.444 80.3758C111.324 80.7121 111.202 81.0455 111.074 81.3762C106.048 94.4509 96.0242 102.253 93.0751 104.333C92.8828 104.468 92.6877 104.604 92.4926 104.737C87.4111 108.187 81.5798 110.637 75.6259 111.821C75.4279 111.86 75.23 111.897 75.0321 111.934C74.0621 112.112 73.0949 112.256 72.1053 112.366C69.1005 113.361 66.0065 114.045 62.957 114.378C62.6811 114.409 62.4023 114.435 62.1264 114.46C60.7354 114.582 59.3139 114.641 57.87 114.641L57.8644 114.635Z" fill="#5267EE"/>
</g>
<g opacity="0.55">
<path d="M64.5739 105.517C54.7148 105.517 45.0146 101.911 37.1735 95.3382C25.4803 91.125 16.2177 81.6135 11.8358 69.5504C10.5592 66.6568 9.57803 63.605 8.91184 60.4486C6.93834 52.0618 7.33416 43.1126 10.247 34.6778C11.0442 32.372 12.0393 30.0887 13.2073 27.8903C13.9599 26.4718 14.8045 25.0504 15.7856 23.5471C16.6553 22.2134 17.5194 20.9898 18.088 20.1986C29.7032 4.08335 49.9929 -1.30537 67.1523 6.31286C75.8908 8.48022 83.7932 13.6061 89.5938 20.9813C93.2147 23.2363 96.5735 26.1186 99.5198 29.614C114.761 47.6988 113.251 75.4138 96.1498 91.5291C95.9937 91.676 95.7707 91.8908 95.5617 92.0942C94.7338 92.8911 94.1847 93.4195 93.4182 94.0949C88.4566 98.4691 80.2838 103.912 69.3571 105.228C68.7773 105.299 68.1976 105.355 67.615 105.401C66.6004 105.477 65.5857 105.517 64.5739 105.517ZM89.9255 66.2697C89.9255 66.2697 89.92 66.2895 89.9144 66.2979C89.9172 66.2866 89.9199 66.2782 89.9255 66.2697Z" fill="#5267EE"/>
</g>
<g opacity="0.55">
<path d="M48.5377 96.8725C39.8604 96.8725 31.2807 94.0524 24.1031 88.6891C19.777 86.0555 16.4489 82.9048 13.9792 80.0027C3.8274 68.0922 0.602354 51.1998 5.7117 35.9832C9.09563 25.9037 15.9053 17.514 24.6132 12.3514C38.1824 1.54852 52.2561 2.94444 58.2881 4.26125C59.2971 4.48165 60.295 4.74162 61.279 5.03833C72.2168 6.71117 82.4997 12.9674 89.34 23.2899C102.491 43.1351 97.928 70.4913 79.152 84.3883L78.9513 84.5381C74.667 87.7086 74.2015 88.042 73.5855 88.4687C71.4196 89.972 67.0545 92.7412 61.8922 94.5723C61.2205 94.8097 60.5431 95.0301 59.8602 95.2335C56.139 96.3328 52.3286 96.8697 48.5377 96.8697V96.8725Z" fill="#5267EE"/>
</g>
<g opacity="0.55">
<path d="M54.4134 99.961C51.7012 99.961 48.6713 99.6841 45.4072 98.9296C45.1145 98.8618 44.8219 98.7912 44.5292 98.7149C43.8936 98.551 43.2609 98.3729 42.6365 98.1808C32.1391 97.6269 22.0402 92.874 14.6285 84.7754C8.42088 77.9908 4.47111 69.2705 3.18889 60.019C1.17637 49.8208 2.65092 39.1169 7.47595 29.871C8.45433 27.9975 9.49683 26.2258 10.5811 24.601C19.7796 10.817 32.2478 7.02198 38.8623 5.98493C41.385 5.58932 43.9215 5.44804 46.4386 5.54694C61.1534 4.08885 75.8626 10.8763 84.8297 23.7674C90.4854 29.4019 94.7084 36.78 96.6679 45.3618C102.037 68.8466 88.4227 92.4841 66.2488 98.2571L66.2209 98.2627C64.0216 98.8505 59.8572 99.9638 54.4134 99.9638V99.961Z" fill="#5267EE"/>
</g>
<g opacity="0.55">
<path d="M66.6025 110.035C65.6297 110.035 64.8019 110.007 64.1468 109.97C64.0576 109.964 63.9684 109.959 63.8792 109.956C62.2737 109.857 60.5845 109.639 58.9956 109.382C55.6061 109.139 51.5532 108.529 47.4724 107.173C47.3275 107.124 47.1825 107.076 47.0376 107.026C38.1875 103.968 29.5409 97.4802 23.9076 89.6726C23.7738 89.4861 23.64 89.2996 23.509 89.1131C18.3383 81.7096 15.2331 72.5853 14.7648 63.427C14.7481 63.0992 14.7342 62.7714 14.7258 62.4437C14.5892 57.897 15.1662 53.5086 15.3446 52.2709C15.3864 51.9771 15.4338 51.6832 15.4812 51.3921C16.5404 44.9777 18.8205 39.2923 20.6045 35.5623C21.8895 32.2448 23.6232 28.6702 25.9591 25.2228C26.1682 24.9148 26.38 24.6125 26.5946 24.3101C32.1054 16.6099 40.175 10.56 48.7351 7.70598C49.025 7.60991 49.3177 7.51666 49.6104 7.42623C51.241 6.92608 52.9246 6.52199 54.6584 6.22246C61.4709 3.76971 68.7516 3.13109 75.8233 4.38007C76.1076 4.43094 76.392 4.48462 76.6763 4.54114C81.1222 5.42843 84.4392 6.87239 86.6079 7.93204C93.6656 10.9245 100.729 16.0872 105.724 21.9393C105.844 22.0778 105.961 22.2191 106.078 22.3603C109.415 26.3729 117.25 37.3877 117.955 52.9915C117.966 53.2402 117.975 53.4888 117.983 53.7347C118.025 55.1956 118.017 57.8688 117.624 61.2597C117.568 62.1385 117.493 62.9269 117.417 63.6079C117.387 63.8735 117.356 64.1419 117.322 64.4076C116.793 68.519 114.791 79.1326 107.678 88.9012C107.575 89.0425 107.469 89.1838 107.366 89.325C102.786 95.4569 96.099 101.185 89.4733 104.649C89.3284 104.725 89.1862 104.799 89.0413 104.872C80.364 109.278 71.5976 110.032 66.6053 110.032L66.6025 110.035ZM84.849 7.23126C84.849 7.23126 84.8657 7.23691 84.8741 7.23973C84.8657 7.23691 84.8574 7.23408 84.849 7.23126Z" fill="#5267EE"/>
</g>
<path d="M24.6616 86.0285C32.075 86.0285 38.0848 80.2423 38.0848 73.1046C38.0848 65.9669 32.075 60.1807 24.6616 60.1807C17.2481 60.1807 11.2383 65.9669 11.2383 73.1046C11.2383 80.2423 17.2481 86.0285 24.6616 86.0285Z" fill="#3553E5" fill-opacity="0.7"/>
<path d="M92.4018 86.6588C99.2981 86.6588 104.889 81.0137 104.889 74.0501C104.889 67.0865 99.2981 61.4414 92.4018 61.4414C85.5056 61.4414 79.915 67.0865 79.915 74.0501C79.915 81.0137 85.5056 86.6588 92.4018 86.6588Z" fill="#3553E5" fill-opacity="0.7"/>
<ellipse cx="34.7707" cy="46.6368" rx="18.2619" ry="18.3902" fill="white"/>
<ellipse cx="34.2089" cy="46.3539" rx="12.081" ry="11.8829" fill="#2E2C2C"/>
<ellipse cx="84.361" cy="46.6369" rx="18.446" ry="18.5749" fill="white"/>
<ellipse cx="84.2863" cy="46.4001" rx="11.8" ry="11.3171" fill="#2E2C2C"/>
<g clip-path="url(#clip1_892_1820)">
<path d="M74.5211 71.6129C68.1651 66.1708 58.8428 65.166 50.8134 67.7085C48.4595 68.4534 46.1877 69.4873 44.0782 70.7164C43.0946 71.2888 42.7255 72.6638 43.4012 73.5628C44.077 74.4617 45.3919 74.7861 46.4446 74.1737C47.2815 73.6856 48.1417 73.2296 49.0258 72.8178C49.1428 72.7635 49.2643 72.709 49.3813 72.6547C49.3509 72.6683 49.0774 72.7827 49.3075 72.6866C49.5159 72.5997 49.7286 72.5084 49.937 72.4215C50.4191 72.2242 50.9062 72.0433 51.4025 71.8702C52.3256 71.5516 53.2681 71.2775 54.2214 71.0525C54.6675 70.9474 55.1142 70.8588 55.5654 70.7741C55.6487 70.7582 56.0167 70.6894 55.5654 70.7741C55.6926 70.7523 55.8243 70.7344 55.9516 70.7168C56.2106 70.6813 56.4696 70.6458 56.7289 70.6185C57.7 70.5081 58.6734 70.4552 59.649 70.4599C60.0685 70.4631 60.4882 70.4745 60.9087 70.5023C61.0237 70.5099 61.1517 70.5087 61.2672 70.5286C61.1918 70.5194 60.7931 70.4824 61.2186 70.5265C61.458 70.5536 61.6973 70.5766 61.9325 70.608C62.8243 70.7234 63.7093 70.8926 64.5788 71.1118C64.9845 71.2145 65.3863 71.3296 65.7841 71.4531C65.8959 71.4897 66.0121 71.526 66.1239 71.5626C66.0478 71.5369 65.7074 71.411 66.0925 71.5515C66.3165 71.6329 66.5361 71.7185 66.7558 71.8041C67.6888 72.1773 68.589 72.6178 69.4435 73.1261C69.6424 73.2456 69.8415 73.3691 70.0407 73.4927C69.6604 73.2531 70.1861 73.5979 70.3041 73.6795C70.7311 73.9831 71.1368 74.3082 71.5344 74.6501C72.3711 75.3776 73.8628 75.3732 74.6367 74.5211C75.4105 73.669 75.4258 72.3869 74.5211 71.6129Z" fill="#2A2A2A"/>
<path d="M74.5211 71.6129C68.1651 66.1708 58.8428 65.166 50.8134 67.7085C48.4595 68.4534 46.1877 69.4873 44.0782 70.7164C43.0946 71.2888 42.7255 72.6638 43.4012 73.5628C44.077 74.4617 45.3919 74.7861 46.4446 74.1737C47.2815 73.6856 48.1417 73.2296 49.0258 72.8178C49.1428 72.7635 49.2643 72.709 49.3813 72.6547C49.3509 72.6683 49.0774 72.7827 49.3075 72.6866C49.5159 72.5997 49.7286 72.5084 49.937 72.4215C50.4191 72.2242 50.9062 72.0433 51.4025 71.8702C52.3256 71.5516 53.2681 71.2775 54.2214 71.0525C54.6675 70.9474 55.1142 70.8588 55.5654 70.7741C55.6487 70.7582 56.0167 70.6894 55.5654 70.7741C55.6926 70.7523 55.8243 70.7344 55.9516 70.7168C56.2106 70.6813 56.4696 70.6458 56.7289 70.6185C57.7 70.5081 58.6734 70.4552 59.649 70.4599C60.0685 70.4631 60.4882 70.4745 60.9087 70.5023C61.0237 70.5099 61.1517 70.5087 61.2672 70.5286C61.1918 70.5194 60.7931 70.4824 61.2186 70.5265C61.458 70.5536 61.6973 70.5766 61.9325 70.608C62.8243 70.7234 63.7093 70.8926 64.5788 71.1118C64.9845 71.2145 65.3863 71.3296 65.7841 71.4531C65.8959 71.4897 66.0121 71.526 66.1239 71.5626C66.0478 71.5369 65.7074 71.411 66.0925 71.5515C66.3165 71.6329 66.5361 71.7185 66.7558 71.8041C67.6888 72.1773 68.589 72.6178 69.4435 73.1261C69.6424 73.2456 69.8415 73.3691 70.0407 73.4927C69.6604 73.2531 70.1861 73.5979 70.3041 73.6795C70.7311 73.9831 71.1368 74.3082 71.5344 74.6501C72.3711 75.3776 73.8628 75.3732 74.6367 74.5211C75.4105 73.669 75.4258 72.3869 74.5211 71.6129Z" fill="black" fill-opacity="0.2"/>
</g>
</g>
<defs>
<clipPath id="clip0_892_1820">
<rect width="118" height="116" fill="white"/>
</clipPath>
<clipPath id="clip1_892_1820">
<rect width="32.1078" height="9.38603" fill="white" transform="matrix(-0.999136 0.0415701 -0.0397072 -0.999211 75.291 75.0867)"/>
</clipPath>
</defs>
</svg>
