<?xml version="1.0" encoding="UTF-8"?>
<svg id="Capa_1" xmlns="http://www.w3.org/2000/svg" version="1.1" xmlns:xlink="http://www.w3.org/1999/xlink" viewBox="0 0 53 50">
  <!-- Generator: Adobe Illustrator 29.2.1, SVG Export Plug-In . SVG Version: 2.1.0 Build 116)  -->
  <defs>
    <style>
      .st0 {
        fill: #ac4dff;
        fill-opacity: .4;
      }

      .st1 {
        fill: #c06dff;
      }

      .st2 {
        fill: #fff;
      }

      .st3 {
        display: none;
        stroke: #000;
      }

      .st3, .st4 {
        fill: none;
      }

      .st5 {
        clip-path: url(#clippath-1);
      }

      .st6 {
        opacity: .6;
      }

      .st7 {
        clip-path: url(#clippath-2);
      }

      .st8 {
        fill: #2e2c2c;
      }

      .st9 {
        clip-path: url(#clippath);
      }
    </style>
    <clipPath id="clippath">
      <rect class="st4" x="18.4" y="27.5" width="15.7" height="9.3"/>
    </clipPath>
    <clipPath id="clippath-1">
      <rect class="st4" x="13" y="5.7" width="6.2" height="11.3" transform="translate(3.8 26.8) rotate(-86.9)"/>
    </clipPath>
    <clipPath id="clippath-2">
      <rect class="st4" x="31.5" y="8.2" width="11.3" height="6.2" transform="translate(-.6 2) rotate(-3.1)"/>
    </clipPath>
  </defs>
  <g class="st6">
    <path class="st1" d="M26.3,42.9c-11.5,0-21-8.9-21.3-20.1C4.7,11.5,14,2.1,25.8,1.8h.2c11.8-.3,21.5,8.7,21.8,20.1.3,11.4-9,20.8-20.8,21.1h-.2c-.2,0-.4,0-.5,0h0Z"/>
  </g>
  <g class="st6">
    <path class="st1" d="M26.4,43.3c-1.4,0-2.9-.1-4.3-.4-11.5-2.3-19-13.1-16.6-24.3v-.2C7.9,7.2,19.1,0,30.7,2.3c11.5,2.3,19,13.1,16.6,24.3v.2c-2.1,9.7-11,16.5-20.9,16.5h0Z"/>
  </g>
  <g class="st6">
    <path class="st1" d="M26.7,44.1c-3.1,0-6.2-.6-9.1-2-.2,0-.3-.1-.5-.2-1.4-.7-2.4-1.3-2.9-1.7h0C4.4,33.9,1.9,21.1,8.5,11.7c3.5-5,8.9-8,14.6-8.8,3.8-.7,7.9-.4,11.8,1.1,10.9,4.2,16.3,16.1,12,26.7-.5,1.1-1.1,2.6-2.3,4.3-.1.2-.3.4-.4.6-4.2,5.6-10.8,8.6-17.5,8.6h0Z"/>
  </g>
  <g class="st6">
    <path class="st1" d="M25.7,43.6c-11,0-20.3-8.1-21.2-18.9C3.5,13.8,11.6,4.1,22.7,2.6c.1,0,.3,0,.4,0,11.6-2.2,22.8,5.1,25,16.3,1.4,6.7-.8,13.6-5.7,18.4-5.5,5.4-11.7,6-13.8,6.2-.4,0-.9,0-1.2.1-.6,0-1.2,0-1.8,0h0ZM6.3,26.7h0s0,0,0,0ZM11.9,8.5s0,0,0,0c0,0,0,0,0,0Z"/>
  </g>
  <g class="st6">
    <path class="st1" d="M25.5,43.7c-11,0-20.4-8.2-21.2-19C3.5,14.4,10.7,5.2,20.9,3.1c.1,0,.3,0,.4-.1,11.3-3.1,23.1,3.3,26.3,14.2.9,3.1,1.1,6.3.5,9.5,0,.3-.1.6-.2,1-1.3,5.2-4.5,9.6-9.1,12.6-2.7,1.7-5.9,2.9-9.1,3.3,0,0-.1,0-.2,0-.5,0-1.7.2-2.3.2-.6,0-1.1,0-1.7,0h0Z"/>
  </g>
  <g class="st6">
    <path class="st1" d="M26.3,43.9c-1.1,0-2.2,0-3.4-.2-.1,0-.2,0-.3,0-.3,0-.6,0-1.2-.2h-.1C9.7,41.4,1.9,30.8,3.9,19.6,5.9,8.8,16.2,1.4,27.3,2.6c7.1.2,13.9,3.7,17.8,10,6,9.8,2.7,22.4-7.4,28.2-3.4,2-7.3,3-11.4,3h0ZM15.9,5.5s0,0,0,0c0,0,0,0,0,0Z"/>
  </g>
  <g class="st6">
    <path class="st1" d="M25.7,43.8c-1,0-1.9,0-2.4,0-11.7-.9-20.5-10.7-19.7-22.1C4.5,11.3,13,3.4,23.4,2.6c5.1-.9,10.7,0,15.4,2.9,9.9,6.1,12.8,18.9,6.4,28.4-1.1,1.7-2.4,3.1-3.8,4.3-.1.1-.3.2-.4.4-2.7,2.2-6,3.8-9.6,4.5-.1,0-.3,0-.4,0-1.9.4-3.7.4-5.2.4h0ZM9.4,11.7s0,0,0,0c0,0,0,0,0,0ZM26.4,2.6c0,0,.1,0,.2,0,0,0,0,0-.2,0Z"/>
  </g>
  <g class="st6">
    <path class="st1" d="M25.9,46c-1.5,0-3-.1-4.4-.4,0,0-.1,0-.2,0-3.8-.7-7.5-2.3-10.5-4.7,0,0,0,0-.1,0-2-1.6-4.1-3.9-5.4-6.1,0,0-.1-.2-.2-.3-1.6-2.7-2.6-6-2.9-9,0-.1,0-.2,0-.3,0-1.3-.2-4.7,1-8.4,0,0,0-.1,0-.2,1.8-5.3,5.6-9.1,6.4-9.8,0,0,.1-.1.2-.2.9-.8,1.8-1.5,2.7-2.2,1.6-1.1,3.8-2.4,6.5-3.2.1,0,.2,0,.3,0C23.5-.2,27.3,0,29.2.3c0,0,.1,0,.2,0,3,.4,5.5,1.4,6.7,1.9,0,0,0,0,0,0,.9.4,3.3,1.6,5.5,3.4,0,0,0,0,0,0,1.9,1.6,3.4,3.4,3.7,3.8,0,0,.1.2.2.2,2.1,2.7,3.2,5.5,3.6,6.9,0,0,0,.1,0,.2,1.2,3.8,1,7.3.7,9.5,0,0,0,.2,0,.3-.8,4.6-3.2,9.1-6.7,12.3,0,0-.1.1-.2.2-1.5,1.3-3.3,2.6-5.2,3.5-.2,0-.3.2-.5.3-3,1.7-6.3,2.6-9.6,2.9,0,0-.2,0-.2,0-.5,0-1.1,0-1.6,0h0Z"/>
  </g>
  <g class="st6">
    <path class="st1" d="M26.8,46.3c-1.1,0-3,0-4.9-.4,0,0-.1,0-.2,0-1-.2-1.9-.4-2.7-.7-2.9-.8-5.9-2.3-8.2-4,0,0-.1-.1-.2-.2-1.9-1.4-5.3-4.5-7.3-9.3,0-.1-.1-.3-.2-.4-2-5.1-1.4-9.8-.9-12.2,0,0,0-.1,0-.2.8-3.3,2.2-5.8,3.3-7.4,0,0,0,0,0,0,.5-.7,1.7-2.5,3.5-4.1,0,0,0,0,0,0,.8-.8,1.8-1.6,2.8-2.3,1-.7,1.9-1.3,2.6-1.6,0,0,0,0,.1,0,3-1.6,6.5-2.6,9.9-2.8h0c.7,0,3.2-.1,5.9.4,0,0,.1,0,.2,0,2.6.5,5.3,1.5,7.5,2.8,0,0,0,0,.1,0,2.4,1.4,4.8,3.5,6.6,5.7,0,0,0,.1.1.2,0,0,0,0,0,0,0,0,0,0,0,0,1.4,1.8,4,5.5,4.7,10.6,0,0,0,.2,0,.3.1,1,.2,2.2.2,3.5,0,2.7-.6,5.5-1.6,7.9,0,0,0,.2-.1.3-1.4,3.2-3.6,6.1-6.3,8.3,0,0,0,0-.1,0-1.7,1.3-3.4,2.4-5.3,3.3,0,0-.1,0-.2,0-2.7,1.2-5.8,1.9-8.7,2.1,0,0-.2,0-.2,0-.2,0-.5,0-.8,0h0Z"/>
  </g>
  <g class="st6">
    <path class="st1" d="M29.1,44c-3.3,0-6.6-.7-9.5-2.2-.8-.4-1.5-.8-2.3-1.3-.1,0-.2-.1-.3-.2-2.4-1.4-4.5-3.2-6.2-5.4-1-1.1-1.8-2.4-2.5-3.7-1.8-3.4-2.6-7.3-2.3-11.1,0,0,0,0,0,0,0-.5.1-1.5.4-2.7,0,0,0,0,0-.1.7-3.6,2.4-6.9,4.8-9.6C14.4,3.9,19,1.3,24,.3c.3,0,.6,0,.9-.1,3.2-.4,6.4-.2,9.4.7,1.9.5,3.7,1.2,5.4,2.1.8.4,1.6.9,2.4,1.5.2.1.3.2.5.4,4.5,3.4,7.5,8.5,8.2,14,0,.1,0,.3,0,.4.2,2,.2,4.7-.5,7.7-.5,2.3-1.4,4.5-2.7,6.6-.2.3-.4.7-.8,1.2-3.8,5.4-8.8,7.6-12.4,8.5-.2,0-.5.1-.7.2-1.6.3-3.2.5-4.8.5h0ZM6,19.9c0,0,0,.1,0,.2,0,0,0-.1,0-.2ZM11.3,12.2s0,0,0,0c0,0,0,0,0,0ZM24.9,2.7s0,0,0,0c0,0,0,0,0,0Z"/>
  </g>
  <g class="st6">
    <path class="st1" d="M29.4,47.8c-3.6,0-7.2-.9-10.5-2.6-.2-.1-.4-.2-.6-.4-3.9-2.2-7-5.5-8.8-9.4-2.5-3.7-3.7-8.3-3.3-13,0,0,0-.2,0-.3,0-1.3,0-3.1.5-5,0,0,0,0,0,0,.4-1.9,1.1-3.8,2.1-5.6C11.5,6.7,15.8,3.1,21.1,1.4c.2,0,.4-.1.6-.2,2.9-.9,6-1.1,9.1-.7.9.1,1.8.3,2.7.5,4.4,1.1,8.3,3.5,11.1,6.8,1.2,1.2,2.5,2.9,3.6,5,.2.3.3.5.5.8.1.2.2.4.3.5,2.3,4.3,2.5,8.4,2.4,11.2,0,2.6-.4,5.2-1.4,7.7-1.7,5.2-5.3,9.5-10.2,12.1-.2.1-.4.2-.6.3-3.1,1.5-6.5,2.3-9.8,2.3h0Z"/>
  </g>
  <g class="st6">
    <path class="st1" d="M29.3,47c-.1,0-.3,0-.4,0-11.8-.2-21.1-9.6-20.9-21,0-1.4.1-2.2.2-2.8,0,0,0,0,0,0,.1-.9.3-1.8.5-2.9h0c2.7-11.1,14.1-18,25.6-15.4,10.9,2.4,17.9,12.5,16.3,23-.8,10.7-10.1,19.1-21.3,19.1h0ZM50.2,29.7h0s0,0,0,0Z"/>
  </g>
  <g class="st6">
    <path class="st1" d="M30.5,47.5c-1.1,0-2.2,0-3.3-.2-2.5-.4-6.2-1.3-9.9-3.7,0,0-.2-.1-.3-.2-2.7-1.8-6.4-5.1-8.5-10.7-4-10.7,1.8-22.5,12.9-26.3,6.9-2.4,14.3-1.1,19.9,2.8,7.3,4.2,11.6,12.3,10.2,20.9-1.6,10.2-10.7,17.4-21,17.4h0Z"/>
  </g>
  <g class="st6">
    <path class="st1" d="M30.2,46.9c-2.9,0-5.8-.6-8.6-1.8-2-.9-3.9-2-5.5-3.3,0,0,0,0,0,0-1.3-1.1-2.5-2.3-3.8-3.9-7.2-9-5.4-21.9,4-28.8,8.3-6.2,19.9-5.5,27.4,1.2,7.4,5.7,10.2,15.7,6.2,24.4-3.5,7.7-11.3,12.2-19.5,12.2h0ZM46.1,12.9s0,0,0,0c0,0,0,0,0,0ZM38.9,7.5s0,0,0,0c0,0,0,0,0,0Z"/>
  </g>
  <g class="st6">
    <path class="st1" d="M30.3,47.1c-4.5,0-8.9-1.3-12.6-3.8,0,0-.1,0-.2-.1-.8-.6-1.7-1.2-2.4-1.9,0,0-.1-.1-.2-.2-2.5-2.2-4.4-4.9-5.7-8-4.4-10.5.8-22.5,11.8-26.8,7.3-2.9,15.3-1.5,21.1,2.8,3,1.9,5.5,4.5,7.3,7.7,5.5,10.1,1.5,22.5-9,27.8-2.5,1.3-5.2,2.1-8,2.3,0,0,0,0-.1,0-.7,0-1.4,0-2,0h0ZM20.6,8.2s0,0,0,0c0,0,0,0,0,0Z"/>
  </g>
  <g class="st6">
    <path class="st1" d="M27.2,46.9c-4.3,0-8.6-1.3-12.3-3.7,0,0-.2-.1-.3-.2-.7-.5-1.4-1-2.1-1.6-4.9-3.8-7.9-9.5-8.1-15.6,0-2.9.4-5.8,1.6-8.5,0,0,0,0,0-.1.3-.9.7-1.8,1.3-3,0,0,0-.1,0-.2.8-1.5,1.8-2.9,3-4.2.3-.4.5-.7.8-1,2.3-3.1,5-5,7.2-6.1C23.5.2,29.5-.4,34.9,1.3c5.5,1.7,10,5.4,12.6,10.3.2.4.4.8.6,1.2,0,0,0,0,0,0,.2.4.4.7.5,1,0,.1.1.3.2.4,1.3,3,1.8,6.2,1.8,10,0,.1,0,.2,0,.3,0,.2,0,.4,0,.7,0,.7,0,1.5,0,2.3-.8,8.8-7.3,16-15.8,18.2-1.2.4-2.3.7-3.4.9-1.4.3-2.7.4-4.1.4h0ZM6.5,16.2s0,0,0,0c0,0,0,0,0,0Z"/>
  </g>
  <g class="st6">
    <path class="st1" d="M25.1,47.9c-2.4,0-4.8-.4-7.1-1.2-4.1-1.4-7.7-3.9-10.2-7.4-2.4-3.2-3.8-7-4-10.9-.2-3.2.4-6.5,1.7-9.4.1-.3.3-.6.4-.9,2.1-4.2,5.7-7.6,10.3-9.8,0,0,0,0,0,0,.5-.3,1.1-.5,1.8-.8.3-.1.6-.2.8-.3,2.1-.8,4.2-1.3,6.4-1.4.7,0,1.4-.2,2.2-.2,11.4-.3,21.1,8.1,21.9,19.1.7,9-4.7,17.3-13.3,20.6-.4.2-.7.4-1.1.5,0,0-.1,0-.2,0-1.6.7-4.1,1.6-7.1,1.9-.2,0-.4,0-.5,0-.7,0-1.4,0-2,0h0Z"/>
  </g>
  <g class="st6">
    <path class="st1" d="M23.2,48.3c-5.5,0-10.8-2-14.8-5.6-.2-.1-.3-.3-.4-.4-2.6-2.5-5.7-6.8-6.3-13.4,0-.2,0-.5-.1-.8,0,0,0,0,0,0-.1-.8-.4-3.1-.2-5.3,0-.2,0-.4,0-.6.5-4.2,2.2-8,5-11.2.2-.2.4-.4.6-.6,2.8-3,6.5-5.1,10.6-6.2,2.9-.7,5.9-.9,8.8-.5,2.8.4,5.5,1.3,7.8,2.7,4.4,1.3,8.3,3.9,11,7.4,1.9,2.3,3.3,5.1,4,8.1,2.2,9.4-2.6,18.9-11.3,23-1.5.8-3.4,1.7-5.6,2.3,0,0-.1,0-.2,0,0,0,0,0,0,0-1.4.4-2.9.7-4.6.9,0,0,0,0,0,0-.2,0-.4,0-.6,0-.7,0-1.3.1-1.8.2-.6,0-1.2,0-1.8,0h0Z"/>
  </g>
  <g class="st6">
    <path class="st1" d="M25.3,48.8c-1.5,0-3.1-.2-4.6-.5h0c-.3,0-.5-.1-.6-.1,0,0-.1,0-.2,0-3.1-.7-5.7-2.1-6.9-2.8,0,0,0,0,0,0-.7-.4-2.2-1.3-3.7-2.6-.1-.1-.3-.2-.4-.3-1.6-1.4-4.6-4.5-6.2-9.2,0,0,0-.2,0-.2-1.3-3.8-1-7-.9-8.1C2.4,13.7,12.5,5.2,24.2,5.9c5,.3,9.5,2.2,12.9,5.2,7.2,4.6,11,13.1,9,21.7-2.3,9.5-11,16-20.8,16h0ZM20.5,48.3s0,0,.1,0c0,0,0,0-.1,0ZM1.6,25c0,0,0,.1,0,.2,0,0,0-.1,0-.2Z"/>
  </g>
  <g class="st6">
    <path class="st1" d="M25.2,48.6c-2.1,0-5-.3-8.1-1.4,0,0-.1,0-.2,0-6-2.2-10.6-6.8-12.7-12.6,0-.3-.2-.5-.3-.8-.7-2.3-1.1-4.8-1-7.4,0-.5,0-1,0-1.6,0-.2,0-.4,0-.6,1-8.9,7.8-16.1,17-18,0,0,.2,0,.3,0,.4,0,.7-.1,1.2-.2h0c3.7-.6,7.3-.2,10.7.9,7.4,1.4,13.7,6.5,16.2,13.9,3.5,10.3-2,21.4-12.3,25.4-.3.2-.7.3-1,.5,0,0-.2,0-.3.1-3.5,1.5-6.8,1.9-9,1.9,0,0-.1,0-.2,0-.1,0-.3,0-.4,0h0ZM33.9,46.7h0,0Z"/>
  </g>
  <g class="st6">
    <path class="st1" d="M26.8,48.6c-1.6,0-3-.2-4.2-.3-11.6-1.8-19.6-12.3-17.7-23.5,1.4-8.6,8.2-15.2,16.6-16.9,3.2-1.3,6.7-1.8,10.4-1.4,11.7,1.2,20.2,11.4,18.9,22.7-.4,3.2-1.5,6.3-3.3,9-2.1,3.2-5.1,5.8-8.6,7.5,0,0-.2,0-.3.1-.7.3-1.4.6-2.1.9-.1,0-.2,0-.3.1-2.3.8-5.4,1.8-9.2,1.8h-.2ZM8.3,24.5h0s0,0,0,0Z"/>
  </g>
  <g class="st6">
    <path class="st1" d="M26.5,48.7c-.1,0-.2,0-.4,0,0,0-.1,0-.2,0-.3,0-.8,0-1.3,0-11.8-.5-20.9-10.1-20.4-21.4.2-4.8,2.1-9.2,5.1-12.6.8-1.3,1.7-2.6,2.7-3.7.2-.2.4-.4.6-.7,4.5-4.5,10.8-6.9,17.2-6.4.2,0,.5,0,.7,0,1.8.2,5.3.8,8.8,2.7.1,0,.2.1.3.2,3,1.7,5.5,4.1,7.4,6.8.7.9,1.3,1.8,1.8,2.7,2.9,5.2,3.3,11.2,1.4,16.5-2.2,8.5-10,14.8-19.2,15.4-1.5.3-3,.4-4.5.4h0Z"/>
  </g>
  <g class="st6">
    <path class="st1" d="M29.5,47.8c-.5,0-.9,0-.9,0,0,0-.2,0-.2,0-3.4-.1-6.6-.9-9.6-2.4-10.5-5.1-14.7-17.5-9.4-27.7,4.1-7.9,12.8-12.1,21.4-11.2,10.4,0,19.6,7.4,21.1,17.7,1.7,11.3-6.5,21.7-18.1,23.3-.4,0-.7,0-1,.1,0,0,0,0,0,0-1,0-2.2.1-3.1.1ZM38,8.7s0,0,0,0c0,0,0,0,0,0ZM27.7,6.8h0,0Z"/>
  </g>
  <g class="st6">
    <path class="st1" d="M27.3,49c-1.7,0-3.2-.2-4.6-.3h-.1c-11.1-1.5-19.2-11-18.4-21.8.7-10.3,9.2-18.3,19.7-19.1,3.6-.9,7.4-1,11.2,0,5.6,1.5,10,5,12.7,9.4,2.4,3.8,3.6,8.3,3,13.1-1.1,9.2-8.3,16.4-17.4,18-.5.1-.9.2-1.4.3,0,0-.2,0-.3,0-1.5.3-3,.4-4.3.4h0ZM8.7,22.1h0s0,0,0,0ZM8.7,22.1h0s0,0,0,0Z"/>
  </g>
  <g class="st6">
    <path class="st1" d="M24.7,49.2c-.6,0-1.2,0-1.9,0-.1,0-.2,0-.3,0-6.6-.3-11.1-3-13.7-5.1-.2-.1-.3-.3-.5-.4-1.4-1.2-2.7-2.7-3.7-4.3-2.5-3.7-3.7-7.9-3.5-12.2,0-.2,0-.4,0-.6,0-.4,0-.8.1-1.1.3-2.3.9-4.7,2-6.8.4-1.3,1.1-2.8,2.2-4.6,0-.1.2-.3.2-.4,2.5-3.8,6.2-6.7,10.6-8.3,2.3-.8,4.7-1.3,7.2-1.3.2,0,.4,0,.6,0,6.8-.6,13.3,2,17.7,6.7.5.4,1,.9,1.5,1.4.1.1.2.2.3.3,4.5,4.7,6.6,11.3,5.6,17.7,0,.1,0,.2,0,.3-.7,3.8-2.6,7.5-5.2,10.5-.3.3-.6.7-.9,1,0,0-.1.1-.2.2-1.2,1.2-2.6,2.3-4.1,3.3-2.3,1.6-5,2.8-7.9,3.5-1.1.3-2.3.4-3.5.5-.7,0-1.5,0-2.8,0h0ZM27.5,49.1h0s0,0,0,0c0,0,0,0,0,0h0ZM25.4,4s0,0,.1,0c0,0,0,0-.1,0ZM25.3,4h0,0Z"/>
  </g>
  <g class="st6">
    <path class="st1" d="M24.6,50c-.4,0-.8,0-1.3,0,0,0-.1,0-.2,0-.9,0-1.8-.2-2.7-.3-4.1-.5-8-2.2-11.1-4.7-.1,0-.3-.2-.4-.3-.1,0-.2-.2-.3-.2-4.2-3.1-7.1-7.6-8.1-12.6C.2,30.4,0,29,0,27.6c0,0,0-.2,0-.2,0-2.3.3-4.5.9-6.5,0,0,0-.1,0-.2,1.5-4.9,4.5-8.2,6.2-9.8,0,0,0,0,0,0,5.2-4.8,12.1-6.9,18.9-5.8.5,0,1,.2,1.6.3,2.7.6,5.2,1.8,7.4,3.3.5.2,1,.3,1.5.5.8.3,1.5.7,2.3,1.1.4.2.8.4,1.2.7,6.6,3.5,11,10.3,11,18,0,11.1-9.2,20.2-20.7,20.5-1.4.3-3.4.5-5.6.5h0Z"/>
  </g>
  <g class="st6">
    <path class="st1" d="M23.2,49.4c-6.3,0-12.5-2.7-16.7-7.8-1.1-1.3-1.9-2.6-2.6-3.9,0,0,0-.2-.1-.2-1.4-2.8-2-5.8-2.1-6.3,0,0,0-.2,0-.3-.2-1.5-.3-3.1-.2-4.9,0,0,0-.1,0-.2.1-2.4.7-6,2.7-9.6,0-.1.2-.3.3-.4,1.8-3.1,5.3-7.3,11.7-9.6,0,0,0,0,0,0h0c11-4,23.2,1.3,27.5,11.9,1.6,4,1.8,8.2.8,12.2-.4,5.6-3.1,11-8,14.8-3.9,3-8.6,4.5-13.3,4.5h0Z"/>
  </g>
  <g class="st6">
    <path class="st1" d="M23.8,49.3c-1.5,0-3.1,0-5.1-.5,0,0,0,0,0,0-2.6-.5-9.3-2.5-13.7-8.7,0,0,0-.1-.1-.2C1.8,35.7.5,30.5,1.3,25.3c0-.3,0-.6.1-.8.4-2.2,1.1-4.1,2.4-6.5,0-.1.1-.3.2-.4.3-.6.9-1.6,1.1-2C10.7,5.7,23.7,2,34,7.5c7.6,4,11.6,11.8,11,19.6,0,.5,0,1.1,0,1.6,0,11.4-9.5,20.6-21.3,20.6h0Z"/>
  </g>
  <g class="st6">
    <path class="st1" d="M22.7,49.5c-1.7,0-3.5-.2-5.2-.6-2.4-.6-5.5-1.6-8.8-4-.2-.2-.4-.3-.7-.5C2.9,40.2,0,33.8.5,27.3c.2-3.1,1.1-6.1,2.7-8.9,0,0,0,0,0,0,.4-.7.8-1.4,1.3-2.3,0-.1.2-.2.2-.3,1.2-1.8,3.9-5.1,8.5-7.3,0,0,.1,0,.2,0,3.5-1.7,6.5-2,7.6-2.1,11.6-1.2,22.2,6.9,23.5,18.1.4,3.1,0,6.2-1,9,0,.2,0,.4-.1.6-2.4,9.3-11.1,15.6-20.7,15.6ZM4.1,17.1s0,0,0,0c0,0,0,0,0,0ZM4.1,17s0,0,0,0c0,0,0,0,0,0ZM27.9,9h0,0ZM21,6.3s0,0,0,0c0,0,0,0,0,0Z"/>
  </g>
  <g class="st6">
    <path class="st1" d="M21.7,48.2c-2.1,0-4.3-.3-6.4-.9-.9-.3-1.8-.6-2.7-1-5.8-2.6-10-7.6-11.6-13.6-.2-.7-.3-1.5-.5-2.2-.2-1.5-.3-3.1-.2-4.6,0,0,0-.1,0-.2.2-2.5,1.1-8.8,6.5-14,.1-.1.2-.2.3-.3,3.1-2.9,7.2-4.9,11.4-5.6.2,0,.3,0,.5,0,2.1-.3,4-.3,5.4-.2,10.4,0,19.5,7.5,20.9,17.8,1.2,8.7-3.4,17-11,20.9-3.7,2.7-8.2,4-12.7,4h0Z"/>
  </g>
  <g class="st6">
    <path class="st1" d="M24.8,48.9c-.3,0-.5,0-.8,0h0c0,0-1.7,0-3.2-.2,0,0-.1,0-.2,0-3.9-.6-7.8-2.2-10.8-4.5,0,0,0,0,0,0h0c-3.3-2.5-5.7-5.5-7.2-9.2,0-.1-.1-.3-.2-.4-1.6-4.3-1.7-9.1-.2-13.5,0-.2.1-.3.2-.5,1.3-3.6,3.3-5.9,4.7-7.7,7.4-8.8,20.9-10.1,30-3,1,.8,1.9,1.6,2.7,2.5,3.9,3.2,6.7,7.7,7.4,12.9,1.6,11.3-6.5,21.7-18.2,23.2-1,.1-2.5.3-4.2.3h0ZM9.6,44s0,0,0,0c0,0,0,0,0,0ZM23.2,7.9s0,0,0,0c0,0,0,0,0,0Z"/>
  </g>
  <g class="st6">
    <path class="st1" d="M27.3,49.4h0c-3.6,0-4.9,0-5.4-.1-.2,0-.3,0-.5,0-3.1-.3-6-1.1-8.7-2.4C2.4,41.6-1.6,29.2,3.8,19.1c4.2-7.7,12.7-11.8,21.2-10.9,9.1-1.4,18.4,3,22.6,11.4,5.1,10.2.6,22.5-10,27.5h-.2c-.1.1-.2.2-.3.2-2.2,1-5.6,2.1-9.7,2.2h0ZM32.6,10.4s0,0,0,0c0,0,0,0,0,0ZM32.5,10.4s0,0,0,0h0Z"/>
  </g>
  <g class="st6">
    <path class="st1" d="M24.7,49c-.6,0-1.2,0-1.9,0,0,0-.2,0-.2,0-2.2-.1-4.4-.5-6.6-1.2C4.9,44-1.1,32.4,2.7,21.6c2.7-7.8,9.8-12.9,17.7-13.8,7.4-3.3,16.4-2.3,22.9,3.2,4.4,3.8,7,8.3,7.7,13.6,0,.4,0,.7.1,1.1.3,3.8-.6,7.7-2.5,11.1-1.2,2.2-2.9,4.2-4.9,5.9-2,1.7-4.2,3-6.7,3.9,0,0,0,0-.1,0-.2,0-.6.2-.8.3,0,0-.2,0-.3,0-1,.3-5.1,1.4-7.3,1.7,0,0,0,0,0,0-.5,0-1.6.2-3.8.2h0ZM15.2,42s0,0,0,0c0,0,0,0,0,0Z"/>
  </g>
  <g class="st6">
    <path class="st1" d="M27.9,50c-4.7,0-9.3-1.5-13.1-4.3-.2-.1-.4-.3-.6-.4-1.1-.9-2.1-1.8-2.9-2.8-3.9-4-6.2-9.4-5.9-15.3.2-4,1.6-7.7,3.9-10.7,1-1.7,2.3-3.2,3.8-4.6,4-3.9,9.3-6.1,15-6.3.2,0,.5,0,.7,0,3.3,0,6,.8,7.8,1.4.3.1.6.2.8.3,3.1,1.3,5.8,3.3,7.9,5.8.8.8,1.6,1.6,2.3,2.6,0,.1.2.2.2.3,4.7,6.7,5,15.6.6,22.6,0,.2-.2.3-.3.4-1.9,2.9-4.3,5.3-7.1,7-.2,0-.3.2-.5.3-1.4.8-2.9,1.5-4.4,2-2.5,1-5.1,1.5-7.7,1.6-.2,0-.4,0-.6,0h0Z"/>
  </g>
  <g class="st6">
    <path class="st1" d="M29,44.5c-.4,0-.7,0-1.1,0-1.2,0-2.4,0-3.5-.3-1-.1-1.9-.3-2.8-.6-.9-.1-1.5-.3-2.1-.5,0,0,0,0,0,0-.6-.2-2.1-.7-3.6-1.5,0,0,0,0,0,0-.2-.1-.5-.3-.8-.5-1.9-.8-3.6-2-5-3.5,0,0-.2-.2-.2-.2,0,0,0,0,0,0-2-2.1-3.3-4.6-3.8-7.4,0,0,0-.1,0-.2-.3-1.8-.2-3.7-.1-4.4,0,0,0,0,0,0,0-.2,0-.4,0-.6,0,0,0-.2,0-.3,0-.9.2-3.5,1.7-6.3,0,0,0-.1.1-.2.2-.4.6-1,1.3-2.1.2-.3.3-.5.4-.7,1.3-1.9,2.8-3.2,4.4-4.2,1.2-1,2.5-1.8,3.9-2.4.1,0,.2-.1.3-.2.7-.4,1.6-.9,2.7-1.3,0,0,0,0,0,0,2.5-.9,5-1,5.5-1.1,0,0,0,0,.1,0,2.2,0,4.1.4,5.4.8,3.4.9,6.4,3.1,8.3,6,1,1.1,1.8,2.2,2.4,3.2,0,0,0,0,0,.1.4.7,1,1.8,1.8,3.8,0,.3.2.5.3.7.8,1.6,1.3,3.4,1.4,5.3,0,.8.1,2.3-.2,4,0,.6-.2,1.1-.3,1.7,0,0,0,.2,0,.2,0,.2-.2.8-.3,1-.5,1.7-1.6,4.2-3.8,6.4,0,0,0,0-.1.1-.9.9-3.3,2.8-5.8,3.8,0,0-.2,0-.2,0-1.9.7-3.9,1.1-6,1.1h0ZM9.5,37s0,0,0,0c0,0,0,0,0,0Z"/>
  </g>
  <g class="st6">
    <path class="st1" d="M23.3,44.5c-.9,0-1.8,0-2.7-.2,0,0,0,0,0,0-.6,0-3.5-.5-6-1.7,0,0,0,0,0,0-.8-.4-2.3-1.2-3.8-2.4,0,0,0,0,0,0-1.3-1.2-2.6-2.6-3.5-4.1,0,0,0,0,0,0-.2-.4-.4-.7-.6-1-.3-.6-.6-1.3-.9-2-.8-2.4-.9-4.6-.9-5.8,0,0,0,0,0,0,0-1.5.3-3,.8-4.6,0-.3.2-.6.3-.9,0,0,0,0,0-.1.1-.4.6-1.6,1.7-3.4,0,0,0,0,0,0,.7-1.1,1.8-2.5,3.2-3.8,1.1-1.2,2.5-2.2,3.9-2.9,5.3-3,12.2-2.5,17,1.7.8.7,1.6,1.5,2.2,2.4,2.3,2.5,3.6,5.7,3.7,9.1.8,1.6,1.3,3.3,1.4,5.2.5,7.6-5.3,14.1-13.1,14.8-.7,0-1.7.1-2.7.1h0Z"/>
  </g>
  <g class="st6">
    <path class="st1" d="M25.8,45c-2.9,0-4.7-.1-6.7-.6,0,0,0,0-.1,0-.6-.2-1.5-.5-1.8-.6-1.2-.4-3-1.2-4.8-2.6,0,0,0,0,0,0,0,0,0,0,0,0-1-.7-2.2-1.7-3.3-3,0,0,0-.1-.1-.2-1.3-1.3-2.1-2.6-2.5-3.4,0,0,0,0,0,0-1.2-2.1-1.6-4.2-1.9-5.9,0,0,0,0,0-.1-.1-.8-.4-2.8,0-5.1,0,0,0,0,0-.1.4-2.1,1.2-4,1.6-4.7h0c.8-1.7,1.9-3,2.2-3.4,0,0,0,0,0,0,.5-.6,1.1-1.2,1.7-1.8,3.6-3.7,8.9-5.3,14.1-4.1,5.4,1.2,9.6,5.4,10.8,10.6.8.6,1.5,1.3,2.1,2.1,2.3,2.6,3.6,6,3.5,9.6-.3,7.5-6.7,13.5-14.5,13.5h-.3,0ZM34.2,18.8s0,0,0,0c0,0,0,0,0,0ZM34.2,18.7s0,0,0,0c0,0,0,0,0,0Z"/>
  </g>
  <g class="st6">
    <path class="st1" d="M19.2,41.2c-4.1,0-8.1-1.7-10.9-4.8-2.5-2.3-4.1-5.4-4.4-8.8,0-.8,0-1.7,0-2.7,0-1.6.4-4.1,1.8-6.7,0,0,0,0,0,0,0-.2.2-.4.7-1.1.1-.2.2-.4.4-.6,0,0,0,0,0,0,.7-1.1,1.5-2.1,2.4-3,.8-.7,1.6-1.4,2.5-1.9.2-.2.4-.4.7-.7,0,0,0,0,0,0,.8-.7,1.6-1.4,2.5-2,2.9-1.8,5.9-2.6,9.2-2.4.8,0,1.6.2,2.4.4,5.5.3,10.6,3.6,12.8,8.9,2.3,5.8.4,12.2-4.4,15.9-.3.8-.8,1.7-1.3,2.5-2.1,3.2-5.2,5.3-8.7,6.1-1.8.7-3.7,1.1-5.6,1.1Z"/>
  </g>
  <g class="st6">
    <path class="st1" d="M20.2,43.1c-3.4,0-6.8-1.2-9.4-3.3-.3-.2-.5-.4-.8-.7,0,0,0,0,0,0-1.5-1.2-3.5-3.4-4.6-6.3,0,0,0-.1,0-.2-.2-.6-.4-1.2-.5-1.8-.2-.7-.3-1.3-.4-2-.1-.7-.2-1.4-.2-2.2,0-1.6.3-3.2.6-4.4.5-2.1,1.4-4.1,2.7-5.8,0,0,0,0,0,0,.8-1,1.7-1.9,2.8-2.8.7-.5,1.4-1,2.2-1.4,0,0,0,0,.1-.1.9-1.2,1.9-2.3,3.1-3.2,2-1.6,4.5-2.6,7.2-3h0c.8-.2,2.2-.5,3.9-.5,7.2,0,13.2,5,14.3,11.7,0,.4.1.9.2,1.3.1,1.2,0,2.4-.2,3.5.4,1,.6,1.8.8,2.3,0,0,0,0,0,.1.4,1.9.4,3.8.3,5,0,0,0,0,0,.1-.5,5.3-4,9.9-9.1,12-2.5,1-5.1,1.3-7.6,1-.3,0-.6,0-.9,0,0,0-.2,0-.3,0-1.5.5-3,.7-4.5.7h0ZM10.2,13.4c-.8.6-1.6,1.4-2.2,2.2.2-.3.5-.6.7-.8.5-.5,1-1,1.5-1.4Z"/>
  </g>
  <g class="st6">
    <path class="st1" d="M29.9,44.9c-1.1,0-2.1-.1-3.2-.3-4.1-.9-7.5-3.4-9.5-6.8-1.6-.3-3.1-.9-4.5-1.7-5.3-3.1-8-9.2-6.6-15.1.2-.7.4-1.3.6-1.9.3-.8.6-1.5,1-2.2.3-.5.5-.9.9-1.4.3-.5.9-1.3,1.6-2,0,0,0,0,0,0,1.3-1.4,2.7-2.4,4-3.1.6-.5,1.2-.9,1.9-1.3,0,0,0,0,.1,0,.5-.3,2.3-1.2,3.9-1.8,1.3-.4,3.6-.9,5.3-1,0,0,0,0,0,0,2.4-.1,4.6.2,6.6.9,0,0,.2,0,.2,0,2.8,1,4.8,2.7,6.1,4,0,0,0,0,0,0,.5.5.9,1,1.3,1.5,1.6,1.4,2.9,3.1,3.8,5.2.5,1.1.8,2.3,1.1,3.6,1.1,1.9,1.7,4.1,1.7,6.3.3,3.2-.6,6.4-2.4,9.2,0,.1-.2.3-.2.4-.8,1.3-1.7,2.4-2.9,3.3-.3.2-.5.5-.8.7,0,0,0,0,0,0-2.9,2.4-6.5,3.7-10.1,3.7h0Z"/>
  </g>
  <g class="st6">
    <path class="st1" d="M20.2,38.4c-.8,0-1.6,0-2.4-.2-5.4-.8-9.9-4.4-11.7-9.4,0-.1,0-.3-.1-.4-.6-1.7-.7-3.3-.7-4.4,0,0,0,0,0-.1,0-.9,0-1.7.2-2.3.5-4.7,3.5-8.9,8-11,.4-.2.9-.4,1.4-.6,1.4-.9,2.9-1.6,4.3-2.1,0,0,0,0,0,0,0,0,.3-.1.5-.1h0c7.6-2.4,15.8,1.7,18.3,9,1.5,4.6.5,9.4-2.4,12.9-.4.6-.8,1.3-1.3,1.8-.8.9-1.4,1.4-2.4,2.3-.2.2-.4.3-.5.4-.1,0-.2.2-.3.2-1.2,1-2.6,1.7-4,2.3-1.5.7-3.1,1.2-4.7,1.5-.7,0-1.3.1-2,.1h0ZM5.3,23.3h0s0,0,0,0ZM5.3,23.3h0s0,0,0,0Z"/>
  </g>
  <g class="st6">
    <path class="st1" d="M21.3,38.3c-7,0-13.2-4.9-14.3-11.9-.2-1.1-.2-2.1-.2-3.1-.4-4.7,1.7-9.4,5.8-12.4,0,0,.2-.1.3-.2.2-.2.4-.3.5-.4,0,0,.1,0,.2-.1.2-.1.4-.3.5-.4,1.8-1.4,3.4-2.3,3.9-2.5,3.6-1.7,7.9-1.9,11.7-.5,3.8,1.4,6.8,4.3,8.2,8,.5,1.3.8,2.6.9,3.9.9,4.9-1,10-5.2,13.4,0,0-.2.2-.3.3,0,0-.1,0-.2.1-2.2,3-5.6,5.1-9.6,5.7-.8.1-1.5.2-2.2.2h0Z"/>
  </g>
  <g class="st6">
    <path class="st1" d="M19.6,39.2c-1.4,0-2.7-.2-4.1-.6-.6-.2-1.1-.4-1.7-.6-3.7-1.6-6.6-4.6-8-8.3-1.4-3.9-.9-8.5,1.2-12.3,0,0,0,0,0,0,.5-1.2,1.2-2.3,2.1-3.3,0,0,0,0,0,0,.4-.5.9-1,1.3-1.4.2-.1.4-.4.6-.5.8-.8,1.4-1.3,1.9-1.8,5-4.3,12.3-4.7,17.8-1.2.8.5,1.6,1.1,2.2,1.8,1.7,1.1,3.2,2.5,4.3,4.3,3.3,5.2,2.8,11.7-1.2,16.4-.6.7-1.2,1.3-1.9,1.9,0,0,0,0-.1.1-.7.6-1.3,1.1-2,1.6,0,0,0,0,0,0-.7.5-1.4.9-1.8,1.1-.5.3-1.6.9-3,1.3,0,0,0,0,0,0-.3.1-.5.2-.8.3-1.7.7-3.6,1-5.4,1-.5,0-1,0-1.4,0h0Z"/>
  </g>
  <g class="st6">
    <path class="st1" d="M21,37.5c-.6,0-1.3,0-1.9-.1-7-.9-12.1-6.4-12.6-12.9-.1-1.2-.1-2.5,0-3.8.2-1.7.8-3.4,1.7-5,.9-1.5,1.9-2.7,2.7-3.5h0s0,0,0,0l.5-.5c.3-.3.6-.6.9-.9,5.3-5.2,12.4-5.1,17.2-2.7,1.3.7,2.5,1.5,3.6,2.5,4.8,4.2,6.1,10.9,3.4,16.5-.9,1.9-2.2,3.5-4,5,0,0,0,0,0,0-2.7,3.4-6.9,5.5-11.5,5.5Z"/>
  </g>
  <g class="st6">
    <path class="st1" d="M21.3,38c-.6,0-1.3,0-2-.1-3.5-.5-6.5-1.9-8.8-4.2-.1-.1-.3-.3-.4-.4-1-.9-1.8-1.9-2.5-3.1-2.8-4.6-2.6-10.3.3-14.6.2-.3.3-.6.5-.9.6-.9,1.3-1.8,2.1-2.6.5-.6,1.1-1.2,1.7-1.7,0,0,0,0,0,0,1.6-1.4,3.2-2.3,4.2-2.8,4.1-2,8.8-1.9,12.7-.1,1.5.6,3,1.5,4.3,2.7.4.3.7.6,1.1,1,5.2,5.2,5.5,13.3.6,18.8,0,0,0,0,0,.1-.4.5-.7.7-1.6,1.5-2.6,3.9-7.2,6.5-12.2,6.5h0Z"/>
  </g>
  <g class="st6">
    <path class="st1" d="M26.3,41.5h-.1c-.3,0-.7,0-1.1,0-1.3,0-2.6-.1-3.7-.4,0,0-.1,0-.2,0-2.7-.7-5.3-2.1-7.2-3.9,0,0,0,0-.1-.1-2.1-2.1-3.6-4.8-4.2-7.7,0,0,0-.1,0-.2-.1-.7-.2-1.3-.2-2-.6-2.7-.3-5.6.9-8.4.7-1.6,1.6-3,2.7-4.2,0,0,0,0,0,0,.1-.1.2-.3.4-.4.4-.5.9-.9,1.3-1.3.6-1,1.3-2,2.1-2.8,0,0,.2-.2.2-.2,0,0,.2-.2.3-.3,1.6-1.6,5.2-4.3,10.7-4.2,0,0,.1,0,.2,0,.5,0,1,0,1.4,0,1.4.1,2.9.4,4.3,1,.4.1.7.3,1.1.5,0,0,.2,0,.3.1,1,.5,1.9,1,2.7,1.6.4.3.9.7,1.3,1.1,0,0,0,0,.1.1,1.4,1.4,2.5,2.9,3.3,4.7.8,1.5,1.3,3.1,1.4,4.7.3,1,.6,2.4.7,3.9,0,.2,0,.4,0,1.5,0,1.9-.4,3.7-1.1,5.3-.8,2.1-2.1,3.9-3.8,5.4,0,0,0,0,0,0-1.3,1.6-3.6,3.7-6.9,4.9-2.7,1.1-5.2,1.3-6.6,1.3h0,0Z"/>
  </g>
  <g class="st6">
    <path class="st1" d="M24.3,38c-1.5,0-3-.2-4.4-.7-2-.3-3.8-1-5.6-2.1-2.5-1.6-4.4-3.9-5.5-6.5-1.1-1.9-1.7-4.1-1.8-6.3-.3-4.8,2-9.6,6.3-12.4l.9-.6c0,0,.1,0,.2-.1.3-.2.6-.4.8-.6,0,0,0,0,0,0,2.3-1.5,4.7-2.3,5.6-2.6,5.1-1.5,10.5-.2,14.3,3.4,3.8,3.6,5.2,8.8,3.8,13.8,0,.1,0,.3-.1.4h0c0,.1,0,.3,0,.4,0,7.4-5.9,13.6-13.7,14-.3,0-.6,0-.8,0h0Z"/>
  </g>
  <g class="st6">
    <path class="st1" d="M21.1,42.1c-1.8,0-3.6-.3-5.3-1-2.3-.5-4.4-1.4-6.2-2.8-3.7-2.5-6-6.7-6-11.4v-.2h0c0-2.3.4-4.3,1.3-6.3,0,0,0,0,0-.1.2-.3.3-.7.5-1,.2-.4.4-.8.7-1.2,1-1.6,2.3-2.9,3.7-4,1.8-1.4,3.8-2.3,5.9-2.8,4.6-1.3,9.6-.3,13.3,2.7,1.8,1.4,3.2,3.2,4,5.2.8,1,1.6,2.2,2.1,3.5,3,7.2-.6,15.3-8,18.2-1.4.6-2.7.9-4.1,1.1,0,0-.2,0-.2,0-.5,0-1,0-1.5,0h0ZM8.5,15.2h0s0,0,0,0Z"/>
  </g>
  <g class="st6">
    <path class="st1" d="M31.6,40.9c-1.1,0-2.1-.1-3.1-.3-.5,0-1-.2-1.5-.3-7-.3-13-5.5-13.8-12.5-.2-1.4,0-2.8.2-4.1,0,0,0,0,0,0,0-.5,0-.8,0-1.2.4-4.5,2.6-7.5,4.4-9.2.4-.4.8-.7,1.2-1,3-2.2,6.7-3.3,10.5-2.9.2,0,.5,0,.7,0,5.5,0,10.2,3.1,12.6,7.4.3.4.6.7.9,1.1.8,1.1,1.5,2.3,2,3.6.5,1.3.8,2.7.8,4.1.2,3.5-.9,6.9-3,9.5-2.2,2.9-5.5,5-9.4,5.6-.8.1-1.6.2-2.4.2h0Z"/>
  </g>
  <g class="st6">
    <path class="st1" d="M30.1,44.1c-5,0-9.9-2.5-12.6-7-2.8-4.6-2.5-10.2.3-14.5,1.2-6.2,6.7-11,13.5-11.3,5-.2,9.5,2,12.3,5.6,1.2,1.5,2,2.9,2.5,4.3.6,1.5.9,3.2.9,4.9v.4c0,1.5-.2,2.9-.6,4.2,0,0,0,.1,0,.2,0,0,0,.2,0,.3,0,.3-.2.6-.3.8-.5,1.8-1.4,3.5-2.5,4.9-2.5,4.3-7.3,7.1-12.6,7.1h0c-.3,0-.5,0-.8,0Z"/>
  </g>
  <g class="st6">
    <path class="st1" d="M26,40.5c-3.4,0-6.8-1.1-9.6-3.5-1.2-1-2.2-2.3-3-3.6,0,0-.2-.1-.2-.2-3.9-3.6-5.4-8.9-4.1-13.9,0-.1,0-.2,0-.3.2-.8.7-2.1,1.5-3.5.6-1.5,1.5-2.9,2.7-4.2.8-.8,2-2,3.8-3.1,0,0,0,0,0,0,.3-.2.6-.3.9-.5,1-.5,1.9-.8,2.7-1.1h0c.9-.3,1.9-.5,2.8-.7,3-.6,6-.2,8.7.9,1.5.4,3,1.1,4.3,2,4.5,3.1,6.8,8.4,5.9,13.6-.1,1.7-.5,3.3-1.2,4.9-.2.5-.5,1.2-.9,1.9,0,0,0,.2-.1.3,0,0,0,.1,0,.2-.7,2.3-1.8,4.3-3.4,6.1-2.9,3.1-6.9,4.8-10.9,4.8h0ZM41,28.5s0,0,0,0c0,0,0,0,0,0Z"/>
  </g>
  <g class="st6">
    <path class="st1" d="M25.4,36.7c-1.8,0-3.6-.3-5.2-.9-.4-.1-.8-.2-1.2-.4-2-.6-4-1.6-5.7-3-1.1-1-2.1-2.1-2.9-3.4-2.7-4.5-2.6-10.1.3-14.6.2-.3.5-.7.7-1,.6-.8,1.2-1.5,1.9-2.1,0,0,0,0,0,0,1.4-1.3,3-2.4,5.2-3.4.5-.2,1.1-.5,1.6-.6,2.1-.7,4.2-.8,6.2-.6h.3c4.8,0,9.1,2.4,11.7,6,.4.5.7.9,1,1.4,2.8,4.8,2.5,10.8-.8,15.3,0,0-.1.2-.2.2-.5.6-1,1.2-1.5,1.7-2.2,2.8-5.5,4.8-9.3,5.3-.8.1-1.5.2-2.2.2h0Z"/>
  </g>
  <g class="st6">
    <path class="st1" d="M26.8,38.4c-3.8,0-7.6-1.5-10.3-4.1-1.2-.9-2.3-2.1-3.1-3.3-.8-.9-1.4-1.9-2-2.9-.5-.8-.8-1.7-1.1-2.7-.4-1.4-.6-2.9-.6-4.3,0-3.7,1.5-7.3,4.4-9.9,0,0,.1-.1.2-.2,3.5-3.2,8.3-4.5,13.1-3.6,2.1.4,4,1.2,5.6,2.3.4.3.9.5,1.3.9.6.4,1.1.8,1.6,1.2,2.9,2,4.9,5,5.7,8.4,0,.2,0,.5.1.7.7,4.1-.6,7.2-1.7,9.1-1.4,3-3.8,5.6-7.2,7.1-2,.9-4.1,1.3-6.1,1.3ZM31.1,36.6c-.1,0-.5.1-1.1.3.4,0,.7-.2,1.1-.3Z"/>
  </g>
  <g class="st6">
    <path class="st1" d="M26,38.5c-3.7,0-7.4-1.4-10.3-4.1-5.7-5.5-5.6-14.3,0-19.8.7-.6,1.4-1.2,2.2-1.7,3.9-4.5,10.5-6.3,16.5-4,5.8,2.2,9.2,7.6,9.1,13.3,0,.9,0,1.8-.2,2.8-.2,1.3-.5,2.3-.7,2.8,0,0,0,.1,0,.2-1.1,3.1-3.2,5.7-5.9,7.4-1.7,1.2-3.6,2-5.7,2.4-.2,0-.5,0-.7.1-1.4.4-2.8.6-4.3.6h0ZM41.7,29.6s0,0,0,0c0,0,0,0,0,0Z"/>
  </g>
  <g class="st6">
    <path class="st1" d="M28.8,37.4c-2.3,0-4.7-.5-6.9-1.7-2.2-1.1-4-2.7-5.2-4.6-2.4-2.4-3.8-5.6-4-8.8-.3-2-.2-4.1.5-6.2,2.2-7,9.6-11.1,17-9.6l.7.2c2.3.5,4.5,1.5,6.2,3,0,0,0,0,.1,0,0,0,0,0,0,0,0,0,.2.1.2.2,1.6,1.1,3,2.4,4.1,4,0,0,.1.2.2.3,2.4,3.7,2.9,8.4,1.3,12.6,0,.1,0,.2-.1.3-.5,1.1-.9,1.9-1.4,2.8-2.6,4.7-7.6,7.4-12.8,7.4h0Z"/>
  </g>
  <g class="st6">
    <path class="st1" d="M22.4,46c-2.8,0-5.6-.6-8.1-1.8-5.7-2.6-9.7-7.8-10.5-13.8,0-.3,0-.6-.1-.9,0-1,0-1.9,0-2.8-.2-2.6.1-5.3,1.1-7.8.4-1,.8-2,1.4-3,0,0,.1-.2.2-.3,1.3-2.3,2.9-4.3,4.6-5.9,0,0,0,0,.1,0,.2-.2.4-.4,1-.8,7.5-6.1,18.7-5.5,25.5,1.3,3.1,3.1,4.8,7.1,5.1,11.1.5,3.2.1,6.4-1.1,9.4-.2,1-.4,2.1-.8,3.1-1.8,5-5.7,9-10.8,10.9-.2,0-.3.1-.5.2-2.6.9-5.1,1.2-6.4,1.2-.2,0-.3,0-.5,0h-.2,0Z"/>
  </g>
  <g class="st6">
    <path class="st1" d="M25.3,46.7c-1.4,0-2.8-.1-4.2-.4,0,0,0,0-.1,0-.7-.1-1.4-.3-2.1-.5-.8-.2-1.6-.5-2.4-.8-1.6-.6-3.2-1.5-4.9-2.8,0,0-.2-.2-.3-.2-1.8-1.5-3.1-3.2-3.6-3.8,0-.1-.2-.2-.3-.4-1.7-2.5-3.6-6.7-3.1-12.3.8-8.5,7.8-15.3,16.6-16.1.6,0,1.1,0,1.7,0,2.5,0,5,.3,7.4,1.2.2,0,.4.1.5.2,8.3,1.2,14.9,7.8,15.7,16.2.8,9.1-5.5,17.3-14.8,19.1-.9.2-1.9.4-2.7.5-1.2.2-2.4.3-3.6.3h0Z"/>
  </g>
  <g class="st6">
    <path class="st1" d="M25.5,46.7c-.2,0-.4,0-.6,0-.1,0-.4,0-.6,0,0,0-.2,0-.3,0-.7,0-1.4,0-2-.2-.9,0-1.6-.2-2.4-.4,0,0,0,0-.1,0-2.6-.6-4.8-1.7-6.4-2.6-1.3-.7-3.2-1.9-4.7-3.4,0,0-.1-.1-.2-.2-3.1-3.1-5-7.3-5.3-11.6,0-.1,0-.3,0-.4,0-2.4.2-4.7.9-7,.3-1,.7-2,1.2-2.9.5-1.2,1.4-3,2.7-4.7,0,0,0,0,.1-.1,1.5-2,3.4-3.6,5.8-5.1h.1c.1-.1.2-.2.3-.3,2.3-1.5,4.9-2.4,7.5-2.8,10.1-1.5,19.6,5.3,21.1,15,.1.7.2,1.4.2,2.1,1.1,2.7,1.6,5.7,1.2,8.8-1.1,8.3-8,14.7-16.4,15.6-.7,0-1.4.1-2.1.1h0ZM14,7.9c0,0-.1,0-.1,0,0,0,0,0,0,0,0,0,0,0,0,0Z"/>
  </g>
  <g class="st6">
    <path class="st1" d="M29.5,44.7c-2.8,0-5.5-.6-8-1.7-2-.7-3.8-1.8-5.5-3.1-3.6-2.8-6.2-6.8-6.8-11.6-.3-2.1-.7-4.6.2-8,.2-.6.3-1.2.5-1.7,1.8-4.9,5.7-8.7,10.5-10.5,1.4-.6,2.8-1,4.3-1.3.7-.1,1.5-.2,2.2-.2,6.1-.8,12.3,1.4,16.5,6.1,1,1.1,1.8,2.3,2.5,3.6,0,0,.1.2.2.3.5,1,.9,2,1.2,3,0,0,0,.1,0,.2.3.9.5,1.9.6,2.9,0,.5.1.9.2,1.4,0,0,0,0,0,0,0,.2,0,.5,0,.7,0,.9,0,1.8,0,2.7-.2,2.4-.8,4.7-1.9,6.8-2.5,5.2-7.5,9.2-13.6,10.2-1.1.2-2.2.3-3.3.3h0Z"/>
  </g>
  <g class="st6">
    <path class="st1" d="M26,45.4c-4.4,0-8.8-1.4-12.2-4-.1-.1-.3-.2-.4-.3-4.5-3.6-7.1-9.1-7-14.7,0-.1,0-.2,0-.3,0-1.4.3-2.6.5-3.5,1.2-5,4.4-9.1,8.7-11.5,1.5-1.3,2.9-2.2,4-2.7.1,0,.3-.1.4-.2,5.7-2.8,12.5-2.6,18,.5.1,0,.2.1.4.2.7.4,1.2.8,1.8,1.2,1.4,1,2.7,2.2,3.8,3.6,2.1,2.4,3.6,5.2,4.2,8.4.4,1.6.8,3.9.4,6.5-.3,2.6-1.2,5.1-2.6,7.3-1.4,2.5-3.5,4.6-5.9,6.2-.1,0-.2.2-.4.2-2.7,1.7-5.7,2.7-9.2,3-.1,0-.2,0-.3,0-1.3,0-2.1.1-2.6.2,0,0-.2,0-.2,0,0,0-.1,0-.2,0-.4,0-.8,0-1.3,0h0ZM27.6,45.3h0s0,0,0,0Z"/>
  </g>
  <g class="st6">
    <path class="st1" d="M25.5,45.8c-1.1,0-2.2,0-3.3-.2,0,0,0,0,0,0-3.4-.4-6.6-1.7-9.4-3.7-.1,0-.3-.2-.4-.3-3-2.3-5.2-5.3-6.3-8.8,0,0,0-.2,0-.2-.2-.7-.4-1.4-.5-2-.5-2.1-.6-4-.6-5.2,0,0,0,0,0-.1,0-1.6.4-4.7,1.9-7.8,0,0,0-.2.1-.2,1.2-2.5,3-4.6,5.2-6.4,1.5-1.6,3.3-2.8,5.2-3.8,2.6-1.4,5.5-2.1,8.6-2.2,5.6-.1,10.8,2.2,14.4,6.2,2.8,2.1,5,5,6.2,8.2,0,.1,0,.2.1.4,1.2,3.3,1.4,6.9.7,10.3,0,0,0,.2,0,.3-1,4.2-3.5,8-7.1,10.7,0,0,0,0-.1,0-.8.6-1.7,1.2-2.3,1.5,0,0,0,0-.1,0-.8.4-3.5,1.9-6.5,2.7,0,0,0,0-.1,0-1.9.5-3.7.6-4.6.6,0,0-.1,0-.2,0-.2,0-.5,0-.7,0h0Z"/>
  </g>
  <g class="st6">
    <path class="st1" d="M28.5,42.6c-2.1,0-4.2-.3-6.2-1-.3,0-.6-.2-.9-.3-.9-.3-1.6-.7-2.3-1.1-1.4-.7-2.7-1.6-3.9-2.6-1.1-1-2.1-2.1-2.9-3.3-.5-.6-.9-1.3-1.3-2.1,0,0,0-.2-.1-.2-1-1.8-2.6-5.6-2.2-10.2.3-4,1.9-7.6,4.5-10.5,1.4-1.6,3.1-3,5-4.1.9-.5,1.8-.9,2.7-1.2,1-.4,2-.7,3-.9.1,0,.3,0,.4,0,4.8-1,9.7-.2,13.9,2.4,2.3,1.4,4.2,3.2,5.7,5.4,0,0,.1.2.2.2.3.5,1,1.6,1.7,3.1,1.4,2.8,2,5.8,1.8,8.9-.2,2.7-.9,5.3-2.3,7.6-1.5,3-3.9,5.5-6.9,7.3-3,1.8-6.4,2.7-9.8,2.7h0Z"/>
  </g>
  <g class="st6">
    <path class="st1" d="M28.1,43c-.5,0-.9,0-1.4,0-.1,0-.2,0-.3,0-1.9-.2-4.5-.7-7.3-2-1.1-.5-2.2-1.1-3.2-1.8-.2-.1-.4-.3-.6-.4-4.4-3.4-7-8.6-7.1-14,0-.1,0-.3,0-.4,0-1.5.2-3,.6-4.5.2-.7.4-1.5.8-2.4,0,0,0,0,0-.1,1.2-2.9,3-5.1,4.3-6.4,0,0,.2-.2.3-.2,1.4-1.3,4.3-3.6,8.5-4.8,0,0,.2,0,.3,0,2.4-.6,4.8-.8,7.4-.6,0,0,.1,0,.2,0,6,.6,11.2,3.7,14.2,8.6,1.4,2.3,2.4,4.9,2.6,7.6.3,2.4,0,4.9-.8,7.2-1.1,4.5-4.1,9.6-9.9,12.5-.2,0-.4.2-.6.3-1.6.7-3.1,1.2-4.6,1.4-1.2.2-2.5.4-3.7.4h0Z"/>
  </g>
  <g class="st6">
    <path class="st1" d="M27.5,43.4c-5.8,0-11.4-2.6-14.9-7.3-1.4-1.9-3.1-4.7-3.8-8.4-.6-2.5-.6-5.1-.1-7.6.5-2.6,1.7-5,3.2-7.1,1.8-2.5,4.3-4.6,7.4-5.9.3-.1.7-.3,1-.4,4.5-1.9,9.5-1.9,13.9-.3,1.7.6,3.4,1.5,5,2.6l.4.3c6.2,4.5,8.7,12.1,6.8,19-.8,4.2-3.1,8.2-7,11.1-1.4,1-2.9,1.8-4.4,2.4-.6.3-1.2.5-1.9.7-1.8.6-3.7.8-5.6.8ZM12.6,36.2s0,0,0,0h0ZM12.4,36.1s0,0,0,0c0,0,0,0,0,0Z"/>
  </g>
  <g class="st6">
    <path class="st1" d="M27.9,43.9c-.9,0-1.8,0-2.7-.2-.2,0-.4,0-.6,0,0,0-.1,0-.2,0-.6,0-1.1-.1-1.7-.2-1.4-.2-2.7-.6-4.1-1,0,0-.2,0-.3-.1-1.7-.7-7.7-3.3-10.7-9.6,0,0,0-.1-.1-.2-1.3-2.7-1.8-5.7-1.7-9,0,0,0-.1,0-.2.1-1.7.4-3.3.8-4.8,0,0,0,0,0-.1.3-1,1-2.8,2.1-4.7,0,0,0-.1.1-.2,2.7-4.3,7.2-7.5,12.2-8.6.1,0,.2,0,.3,0,2.8-.6,5.4-.5,6.7-.3,0,0,0,0,.1,0,2.2.2,4.6.9,6.6,1.8,0,0,.1,0,.2,0,2.8,1.3,5.4,3.3,7.3,5.7,0,0,.1.1.2.2.7.9,1.7,2.3,2.5,4.2,2.7,5,3,10.4,1.1,15.4-.1.4-.3.7-.5,1.1-1.8,3.7-4.7,6.6-8.3,8.4-2.8,1.6-6.1,2.6-9.5,2.6h0Z"/>
  </g>
  <g class="st6">
    <path class="st1" d="M25.4,42.7c-1.4,0-2.5-.1-3.3-.2-.1,0-.2,0-.4,0-5.7-.9-10.8-4.4-13.6-9.3-.1-.2-.2-.4-.3-.6-2.4-4.5-2.1-8.9-1.8-11.1,0,0,0-.1,0-.2.2-1.3.7-3.2,1.7-5.3,2.4-6.5,8.5-11.3,15.9-11.9,4.1-.3,8,.6,11.3,2.5,2.5,1.2,4.6,3,6.4,5.2,1.9,2.4,3.2,5.1,3.7,8,0,0,0,.2,0,.2.6,3.2.3,6.6-.8,9.7,0,0,0,.1,0,.2-1.4,3.7-3.7,6.3-5,7.5,0,0,0,0-.1.1-1.5,1.4-4.6,3.8-9.1,4.8-.1,0-.2,0-.3,0-1.5.3-3,.4-4.3.4h0ZM12.1,9.8c-.1.1-.2.2-.4.4.2-.2.5-.5.7-.7-.1.1-.2.2-.4.3ZM12.5,9.4s0,0,0,0h0Z"/>
  </g>
  <g class="st6">
    <path class="st1" d="M25,41.9c-1.1,0-2.1,0-3.2-.3-7.3-1.2-12.8-6.4-14.7-12.8-1.1-3.3-1.2-6.8-.3-10.2,1.7-7.9,8.7-13.9,17.2-14.3,8.2-.4,15.4,4.3,18.3,11.4,1.2,2.7,1.7,5.7,1.4,8.7,0,1-.3,2.1-.5,3.1-1.7,8.5-9.5,14.5-18.2,14.5h0Z"/>
  </g>
  <g class="st6">
    <path class="st1" d="M26.5,45.8c-.5,0-.9,0-1.4,0-.6,0-1.4,0-2.2,0-3,0-7.1-.8-11.2-3.8-.1-.1-.3-.2-.5-.4-.8-.6-2.2-1.7-3.6-3.5-.1-.2-.3-.3-.4-.5-2.7-3.7-3.7-8.1-3.2-12.3.2-3.8,1.6-7.4,3.9-10.2,3.8-4.9,10.1-7.7,16.7-7,1.6.2,3.2.5,4.7,1.1,1,0,2,.2,2.8.4,1.5.3,3,.8,4.3,1.5,5.5,2.8,9.3,8,10,14,.3,2.2.2,6-1.8,9.9-.8,1.7-2.1,3.5-3.9,5.2-.5.5-1,.9-1.6,1.4,0,0,0,0-.1.1-2.9,2.3-6.5,3.8-10.1,4.2,0,0-.1,0-.2,0-.8,0-1.5.1-2.3.1h0Z"/>
  </g>
  <g class="st6">
    <path class="st1" d="M26.3,45.7c-2.7,0-5.9-.6-9.2-2.3-.9-.5-1.6-.9-2.1-1.2,0,0-.1,0-.2-.1-7.5-5-10.2-14.5-6.3-22.4,2.3-4.7,6.4-8.1,11.2-9.5.2,0,.4-.1.6-.2,1.1-.5,2.4-.9,3.8-1.2.3,0,.7-.1,1-.2,6.1-.9,12.3,1.1,16.5,5.5.6.6,1.1,1.2,1.6,1.9.3.4.6.7.8,1.1,3.5,5,4.2,11.3,1.9,16.9-.9,2.1-2.2,4-3.8,5.6,0,0-.1.1-.2.2-1.5,1.5-3.1,2.5-4.2,3.1,0,0,0,0-.1,0-1.3.8-4.1,2.1-7.6,2.6,0,0-.1,0-.2,0-1,.1-2.1.2-3.2.2-.2,0-.3,0-.5,0h0Z"/>
  </g>
  <g class="st6">
    <path class="st1" d="M27.6,45.9c-1.3,0-2.5-.1-3.8-.4-3.8-.6-7.4-2.4-10.2-5.1-3.9-3.8-5.8-9.1-5.2-14.5.2-4.5,2.2-9,5.9-12.3,2.2-2,4.8-3.4,7.6-4.1,3.8-1.4,8-1.5,12-.3,1.6.5,3.1,1.2,4.5,2.1,2.2,1.3,4,3.1,5.4,5.1,1.4,2,2.4,4.2,3,6.6.1.5.2,1.1.3,1.6.3,2.2,0,4.2-.3,5.9-.5,2.8-1.8,5.5-3.7,7.9,0,0-.1.2-.2.3-1.9,2.3-4.3,3.8-5.3,4.4-.1,0-.2.1-.4.2-3,1.7-6.2,2.5-9.5,2.5h0Z"/>
  </g>
  <g class="st6">
    <path class="st1" d="M28.1,45c-1.2,0-2.5-.1-3.8-.4-1.3-.3-2.5-.6-3.7-1.1-9.6-3.2-14.7-13.3-11.5-22.6,1.3-3.6,3.6-6.6,6.5-8.7,1.2-1.1,2.5-2,4-2.7,2.2-1.2,4.6-1.9,7.2-2.2,10.1-1,19.1,6.1,20.3,15.8h0c0,.3,0,.6,0,.7.1.9.1,1.9,0,2.8,0,.9,0,1.7-.2,2.6-1,7-6,12.7-12.7,14.7-2,.7-4.2,1.1-6.4,1.1h0Z"/>
  </g>
  <g class="st6">
    <path class="st1" d="M27.2,44.5c-1.1,0-2.2,0-3.2-.3-9-1.1-16.1-8.5-16.2-17.6,0-2.1.3-4.1,1-6,1.9-7.2,8.3-12.7,16.2-13.4.7,0,1.4,0,2.1,0,2.2-.2,4.4,0,6.6.6l.8.2c9.9,2.7,15.6,12.6,12.9,22.1-1.4,4.8-4.6,8.5-8.8,10.8,0,0-.1,0-.2.1-.1,0-.3.2-.4.3-.1,0-.2.1-.3.2-3,2-6.5,3.1-10.3,3.1h-.2,0ZM45,18.5h0s0,0,0,0Z"/>
  </g>
  <g class="st6">
    <path class="st1" d="M26.2,46.1c-.3,0-.6,0-.9,0-.9,0-1.7,0-2.5-.2,0,0,0,0,0,0-3.4-.4-6.1-1.7-7.9-2.7-.4-.2-1-.6-1.6-1,0,0-.2-.1-.2-.2-1.3-.9-2.4-1.9-3.3-2.9-.1-.2-.3-.3-.4-.5,0,0-.2-.2-.2-.3-1.2-1.5-2.2-3.2-2.9-5-2.4-6.3-1-13.3,3.7-18.2,2.7-2.9,6.2-4.7,9.9-5.5,1.7-.4,3.5-.6,5.3-.5,3.3.2,6.3,1.1,8.9,2.7,6.4,2.7,11,8.8,11.1,16,.2,9.7-7.7,17.9-17.8,18.3-.4,0-.7,0-1.1,0h0Z"/>
  </g>
  <g class="st6">
    <path class="st1" d="M25.6,46c-1.6,0-3.2-.2-4.7-.6,0,0-.1,0-.2,0-.6-.2-1.3-.4-1.9-.6,0,0-.1,0-.2,0-3.1-1.1-5.8-2.9-8-5.3,0,0-.1-.1-.2-.2,0,0,0,0,0,0-.1-.1-.2-.2-.3-.3-3.9-4.4-5.5-10.1-4.2-15.7.7-3,2.1-5.7,4.1-7.9,1.7-1.9,3.8-3.5,6.4-4.7,1.4-.6,2.8-1.1,4.2-1.3,3.8-.8,7.9-.5,11.6,1,5,1.4,9.4,4.8,11.7,9.7,4.3,9,.3,19.6-8.9,23.8h0s0,0,0,0c-1.2.6-2.6,1.2-4.3,1.6,0,0-.1,0-.2,0-1.5.4-3.1.5-4.7.5h0Z"/>
  </g>
  <g class="st6">
    <path class="st1" d="M26.2,46.5c-2.2,0-4.4-.4-6.4-1.1-2-.7-3.5-1.5-4.4-2.1,0,0,0,0-.1,0-7.7-4.8-10.7-14.1-7.1-22.2.7-1.5,1.5-2.9,2.5-4.1,4.6-6.3,13.1-9.3,21-6.8,2.9.9,5.5,2.5,7.5,4.5,1.8,1.5,3.4,3.3,4.5,5.4,3.2,5.8,2.9,12.9-1,18.4-3.1,4.5-8.1,7.3-13.8,7.9-.2,0-.4,0-.7,0,0,0,0,0-.1,0-.2,0-.3,0-.3,0-.6,0-1.1,0-1.6,0Z"/>
  </g>
  <g class="st6">
    <path class="st1" d="M26.5,47.1c-8.1,0-15.2-5.1-17.7-12.4-.7-1.9-1.1-4-1.1-6.1v-.6c0-1.3.1-2.5.4-3.7,1.6-9.2,10.4-15.7,20.1-14.8,8.6.8,15.3,7.1,16.6,15,.5,2,.5,4.1.3,6.1-.6,8.9-8,16-17.3,16.6-.4,0-.8,0-1.2,0Z"/>
  </g>
  <g class="st6">
    <path class="st1" d="M25.7,46.1c-.5,0-1,0-1.5,0-.5,0-1-.1-1.6-.2-.3,0-.7-.1-1-.2-1.6-.2-3.2-.7-4.8-1.3-9.4-3.9-13.7-14.5-9.7-23.6l.2-.4c2.2-4.9,6.5-8.5,11.6-10,2.4-.8,4.9-1.1,7.5-.8,3.6,0,7.3,1.1,10.5,3.2,8.4,5.6,10.5,16.8,4.7,24.9h0c-.1.3-.2.5-.4.7,0,0,0,.1-.1.2-3.7,4.8-9.3,7.6-15.3,7.6h0ZM43.5,23.4s0,0,0,0c0,0,0,0,0,0Z"/>
  </g>
  <g class="st6">
    <path class="st1" d="M23.5,46.7c-1.8,0-3.5-.2-5.3-.7-6.3-1.8-11.1-6.7-12.7-12.8-.7-2.8-.8-5.6-.2-8.3.5-2.3,1.3-4.2,2.3-5.8,0,0,0,0,0-.1.5-1,1.1-2,1.8-2.9,0,0,.1-.1.2-.2,1.5-1.8,3.1-3.1,4.2-3.9,0,0,.2-.1.3-.2.1,0,.3-.2.4-.3.6-.4,1.3-.8,2-1.2.1,0,.2-.1.4-.2,1.5-.7,2.9-1.2,3.9-1.4,0,0,.1,0,.2,0,.4-.1.8-.2,1.6-.4h0c10-2.1,19.9,4,22.1,13.7h0s0,0,0,.1c0,0,0,.1,0,.2,1.2,4.5.8,9.2-1.3,13.3,0,0,0,.2-.1.3-.3.5-.5.9-.7,1.3,0,0,0,.1,0,.2-2.1,3.3-5.2,6-8.8,7.6-.1,0-.2,0-.3.1-2.8,1.2-5.5,1.5-7.6,1.6-.8.1-1.6.2-2.5.2h0ZM5.5,33.3s0,0,0,0c0,0,0,0,0,0ZM5.4,33s0,.1,0,.2c0,0,0-.1,0-.2Z"/>
  </g>
  <g class="st6">
    <path class="st1" d="M27.4,44.5c-6.2,0-12-3-15.5-8-.1-.2-.2-.4-.4-.5-2-3.2-2.7-6.4-2.9-8.5,0,0,0-.1,0-.2,0-1.3,0-2.6.2-4.1.1-1.4.4-2.8.9-4.2l.3-.8c3.3-9.2,13.5-14.2,23.1-11.3,1.6.5,3,1.1,4.4,1.9,2.2,1.1,4.1,2.7,5.7,4.5,4.2,4.2,6.2,10.2,4.9,16.2-1.3,5.8-5.4,10.4-10.7,12.7-.4.2-.8.4-1.3.6-1.2.5-2.4.8-3.6,1.1-1.2.3-2.5.4-3.8.4,0,0,0,0,0,0-.4,0-.9,0-1.3,0h0Z"/>
  </g>
  <g class="st6">
    <path class="st1" d="M27.5,42.9c-5.5,0-10.7-2.4-14.2-6.4-.3-.2-.5-.4-.7-.6-4.2-3.7-6.4-9.1-6-14.6.1-1.6.4-3.8,1.5-6.3,2.6-6.5,9-11.1,16.5-11.4,3.2-.2,6.5.4,9.5,1.9,3,1.5,5.5,3.7,7.3,6.3.5.6,1,1.3,1.4,1.9,0,0,0,0,0,.1,1.8,2.9,2.5,5.6,2.8,7,2.4,9.6-3.8,19.3-13.8,21.6-1.4.3-2.9.5-4.3.5h0Z"/>
  </g>
  <g class="st6">
    <path class="st1" d="M29.2,40.8c-.3,0-.5,0-.8,0-1.6,0-3.1-.3-3.9-.5-.2,0-.4,0-.5-.1h0c-10.3-2.3-16.7-12.1-14.4-22,2.3-9.7,12-15.8,22-14,9.7,1.2,17,9.4,16.6,19-.4,9.9-8.9,17.6-19,17.6h0ZM32.2,4.3s0,0,.1,0c0,0,0,0-.1,0ZM30,4.1h0,0ZM30,4.1h0,0ZM30,4.1h0,0Z"/>
  </g>
  <g class="st6">
    <path class="st1" d="M29.5,41.5c-.3,0-.5,0-.8,0-2.1,0-4.2-.5-6.2-1.2,0,0,0,0-.1,0-.7-.2-1.4-.5-2.7-1.2-9.4-4.5-13.3-15.5-8.7-24.6C15.4,5.9,25.8,2.1,34.9,5.4c8.2,2.3,14,9.8,13.7,18.4-.4,9.9-8.9,17.6-19,17.6h0ZM30.3,4.7h0,0Z"/>
  </g>
  <g class="st6">
    <path class="st1" d="M28.1,43.7c-2.8,0-4.9-.6-5.9-.9-1-.3-3.1-.9-5.4-2.2,0,0-.1,0-.2-.1-3.8-2.3-6-5.5-7.2-7.7,0,0,0,0,0-.1-.9-1.8-2.1-4.5-2.4-7.8-.2-2,0-3.6.2-4.6h0c0,0,0-.2,0-.2.4-2.2,1-4.1,1.9-5.9,0,0,0,0,0,0,1.3-2.5,2.9-4.3,3.8-5.2,0,0,.1-.1.2-.2,3.7-3.6,8.8-5.7,14.1-5.8h.2c1.5,0,4,.2,6.3.7,0,0,0,0,.1,0,2,.5,3.7,1.3,4.6,1.7,0,0,0,0,0,0,1.9.9,4.6,2.6,6.9,5.3,0,0,.1.2.2.3,3.2,4,4.6,9,4,14.2,0,0,0,.2,0,.3-.4,3.3-1.7,6.4-3.8,9.1,0,0,0,.1-.1.2-.8,1-2.5,3-4.8,4.6,0,0-.2.1-.3.2-.4.3-.8.5-1.2.8-3.1,2.1-6.7,3.3-10.4,3.4-.1,0-.2,0-.3,0-.2,0-.3,0-.5,0ZM33.8,28l7.4,5.6c.7-.7,1.4-1.8,2.2-3.2l-13.8-6.6.2.2-.2-.2h-.1c0,0,.4.6.4.6l-.5-.6h-.2c0-.1,0,0,0,0l4.6,4.3h0ZM29.5,23.8l13.9,6.6c.1-.3.3-.5.4-.8l-14.1-6h-.4c0,0,.2.2.2.2ZM29.8,23.6l14,5.8c.6-1.4.9-2.7,1.1-3.4l-15.1-2.4ZM30.6,25.6l2.3,1.7-3.8-3.6v.2c0,0,1.5,1.6,1.5,1.6h0ZM44.9,25.9h0s0,0,0,0h0ZM30.3,23.6l14.6,2.1c0,0,0-.2,0-.3l-14.6-2.2h-.4s.2,0,.2,0h-.2s0,0,0,0l.5.3h0ZM30.5,23.2l14.5,2c0-.8.1-1.9,0-3.3l-14.5,1.3ZM29.3,24.7l.8.6-1.2-1.4h0c0,0,.4.8.4.8h0ZM28.9,24.3l.3.3-.3-.6v.4h0ZM28.7,24.2h.2c0,.1,0-.2,0-.2h0s-.1.2-.1.2h0ZM28.7,24.2h0s.2-.3.2-.3h0c0-.1-.1.3-.1.3h0ZM28.4,24l.2.2v-.4c.1,0,.1,0,.1,0l-.3.3ZM28.9,23.7l.3.3v-.2c0,0-.2-.2-.2-.2h0c0,0,0,0,0,0ZM28.3,23.9h0c0,0,0,0,0,0v-.5s0,0,0,0v.2s0,.2,0,.2h0ZM28.4,23.9h0s.3-.2.3-.2v-.2c0,0-.3.4-.3.4ZM28.4,23.4v.4s0,0,0,0v-.4c0,0,0,0,0,0h0ZM28.9,23.9h0s0,0,0,0h0ZM28.8,23.7h0c0,.1,0,0,0,0h0s0-.1,0-.1h0ZM28.5,23.4v.4c0,0,0-.4,0-.4h0ZM28.9,23.8h0s0,0,0,0h0ZM28.1,23.7h0c0,0,0,0,0,0v-.2c0,0-.1.2-.1.2ZM28.5,23.4v.4c0,0,0-.3,0-.3h0c0,0,0,0,0,0ZM29.3,23.7h.1c0,0-.2-.2-.2-.2h0s.1.2.1.2ZM29,23.6h.1c0,.1,0,0,0,0h0s0,0,0,0h0ZM28.9,23.7h0s0,0,0,0h0c0,0,0,0,0,0h0c0,0,0,0,0,0ZM28.1,23.7h0s0-.2,0-.2h0s0,.2,0,.2h0ZM29.1,23.6h.2c0,.1-.1,0-.1,0h-.1s0,0,0,0h0ZM28,23.6h0c0,0,0,0,0,0h0ZM28.8,23.6h0s0,0,0,0h0ZM28.2,23.5h0c0,.1,0,0,0,0h0ZM28.7,23.6h0s0,0,0,0h0ZM29.5,23.5h.8c0,.1-.5-.2-.5-.2h-.6c0,0,0,0,0,0h.4c0,.1,0,.1,0,.1ZM28.9,23.6h0s0,0,0,0h0s0,0,0,0h0ZM28.7,23.5v.2c.1,0,.2,0,.2,0h0c0,0,0,0,0,0h0s0,0,0,0ZM29,23.6h0s0,0,0,0h0ZM28.9,23.6h0s0,0,0,0h0ZM28,23.5h0c0,0,0,0,0,0h0s0,0,0,0h0ZM29,23.5h0s0,0,0,0h0s0,0,0,0ZM27.9,23.6h0s0,0,0,0h0ZM27.9,23.5h0s0,0,0,0h0ZM28.9,23.5h0s0,0,0,0h0s0,0,0,0ZM27.9,23.5h0c0,0,0,0,0,0h0c0,0,0,0,0,0h0s0,0,0,0ZM27.8,23.5h0s0,0,0,0h0ZM28.9,23.5h0s0,0,0,0h0s0,0,0,0ZM28,23.5h0c0,0,0,0,0,0h.1c0,0,0,0,0,0h0ZM29.2,23.5h.2s-.3,0-.3,0h0s0,0,0,0h0ZM27.8,23.5h0s0,0,0,0h0s-.1,0-.1,0ZM28.1,23.5h0s0,0,0,0h0ZM28.8,23.5h0s0,0,0,0h0ZM29.2,23.5h0s0,0,0,0h0s0,0,0,0ZM28.1,23.5h0s0,0,0,0h0s0,0,0,0h0ZM29.1,23.5h0s0,0,0,0h0ZM27.9,23.5h0s0,0,0,0h0ZM27.5,23.3l.3.2h.1s0-.1,0-.1h-.5c0,0,0,0,0,0ZM28.9,23.4h.1s0,0,0,0h0c0,0,0,0,0,0h0c0,0,0,0,0,0h0ZM28.2,23.4h0s0,0,0,0h0ZM28,23.3h0c0,.1,0,.1,0,.1h.1c0-.1,0-.1,0-.1ZM28.2,23.4h0s0,0,0,0h0ZM28,23.4h0c0,0,0,0,0,0h0ZM28,23.4h0s0,0,0,0h0s0,0,0,0h0ZM29,23.4h0c0,0,0,0,0,0h0s0,0,0,0ZM28.8,23.4h.1s0,0,0,0h0c0,0-.1,0-.1,0h0ZM28.1,23.4h0s0,0,0,0h0s0,0,0,0ZM28.2,23.4h0s0,0,0,0h0s0,0,0,0h0s0,0,0,0ZM28.9,23.4h0s0,0,0,0h0ZM28.7,23.4h0,0s0,0,0,0h0ZM28.3,23.4h0s0,0,0,0h0ZM28.7,23.4h0s0,0,0,0h0ZM28,23.4h0s0,0,0,0h0s0,0,0,0ZM28.6,23.4h0s0,0,0,0h0ZM29.1,23.4h0s0,0,0,0h0ZM29.1,23.4h0s0,0,0,0h0ZM28.5,23.4h0s0,0,0,0h0s0,0,0,0ZM28.1,23.4h0s0,0,0,0h0s0,0,0,0h0ZM28.1,23.4h0s0,0,0,0h0ZM29.1,23.4h0s0,0,0,0h0ZM28.6,23.4h0s0,0,0,0h0s0,0,0,0h0s0,0,0,0ZM28.4,23.3h0c0,0,0,0,0,0h0s0,0,0,0ZM28.3,23.4h0s0,0,0,0h0s0,0,0,0ZM28.7,23.4h0s.1,0,.1,0h0s-.1,0-.1,0h0ZM28.3,23.3h0s0,0,0,0ZM28.6,23.3h0s0,0,0,0h0c0-.1,0-.1,0-.1h-.1c0,0,0,0,0,0ZM28.9,23.3h0s0,0,0,0h0s0,0,0,0h0ZM28.2,23.3h0s0,0,0,0h0ZM28.9,23.3h0s0,0,0,0h0s0,0,0,0h0ZM28.8,23.2h0c0,0,.1,0,.1,0h0s0,0,0,0h0ZM28.1,23.3h0s0,0,0,0h0c0,0,0,0,0,0h0s0,0,0,0ZM29,23.3h0s0,0,0,0h0s0,0,0,0ZM28.1,23.3h0s0,0,0,0h0s0,0,0,0ZM29.1,23.3h0s0,0,0,0h0c0,0-.1,0-.1,0h0ZM29,23.3h0s0,0,0,0h0ZM29.2,23.3h0c0,0,0,0,0,0h.1c0,0-.1,0-.1,0ZM28,23.3h0s0,0,0,0h0c0,0,0,0,0,0ZM28.2,23.2h0c0,0,0,0,0,0h0s0,0,0,0h0s0,0,0,0ZM29,23.3h0s0,0,0,0h0ZM27.4,23.2h.5c0,0,0,0,0,0h0c0,0-.6,0-.6,0h0s0,0,0,0ZM28.9,23.3h0s0,0,0,0h0ZM29.4,23.2h-.1c0,0,.4,0,.4,0h-.3s0,0,0,0h0ZM28.4,23.3h0s0,0,0,0h0ZM28.1,23.3h0s.1,0,.1,0h0s0,0,0,0ZM28.5,23.3h0s0,0,0,0h0ZM29,23.2h0s0,0,0,0h0s0,0,0,0h0ZM28.1,23.2h0s0,0,0,0h0ZM28.5,23.2h0c0,0,0,0,0,0h0ZM28.9,23.3h0c0,0,0,0,0,0h0ZM28.9,23.3h0s0,0,0,0h0s0,0,0,0h0c0,0,0,0,0,0ZM29,23.2h0s0,0,0,0h0s0,0,0,0h0ZM29,23.2h0c0,0,.1,0,.1,0h0c0,0-.2-.1-.2-.1h0c0,0,0,0,0,0ZM28.3,23.2h0s0,0,0,0h0ZM28.6,23.2h0s.1,0,.1,0h-.1s0,0,0,0ZM28.8,23.2h0s0,0,0,0h0s0,0,0,0ZM29.5,23.2h.3s0,0,0,0h-.1c0,0,0,0,0,0h0c0,0,0,0,0,0h-.1s0,0,0,0ZM28.1,23.2h0c0,0,0,0,0,0h0s0,0,0,0h0ZM29.6,23.2h.1c0,0,.3,0,.3,0h-.4c0,0,0,0,0,0h0ZM28.3,23.2h0s0,0,0,0h0c0,0,0,0,0,0h0ZM28.5,23.2h0c0,0,0,0,0,0h0s0,0,0,0h0ZM28.5,23.2h0s0,0,0,0h0s0,0,0,0ZM29.2,23.2h0c0,0,.2,0,.2,0h-.1s0,0,0,0ZM28.4,23.2h0s0,0,0,0h0ZM28.3,23.2h0s0,0,0,0h0c0,0,0,0,0,0ZM28.8,23.2h0s0,0,0,0h0ZM29.8,23.1h.4c0,0,14.8-1.5,14.8-1.5,0-.5-.1-1-.2-1.6l-14.3,3.1h.3s-.3,0-.3,0h-.6c0,.1,0,.1,0,.1ZM28.6,23.1h.1s.1,0,.1,0h0s-.2,0-.2,0h-.1s0,0,0,0h0ZM28.4,23.1h0c0,0,0,0,0,0h0s0,0,0,0h0ZM28.2,23.2h0s0,0,0,0h0ZM29.2,23.2h.2s0,0,0,0h-.2s0,0,0,0h0ZM29.5,23.1h0s.1,0,.1,0h0s0,0,0,0h0ZM28.3,23.1h0s0,0,0,0h0s0,0,0,0h0ZM28.1,23.1h0s0,0,0,0h0s-.1,0-.1,0h0ZM28.9,23.1h0s0,0,0,0h0ZM26.8,22.7l.6.4h0v-.3h-.6c0-.1,0-.1,0-.1ZM27.4,22.8v.3s.6,0,.6,0l-.5-.2h-.1ZM28.5,23.1h0s0,0,0,0h0s0,0,0,0h0ZM29,23.1h.2s0,0,0,0h-.2s0,0,0,0h0ZM28.5,23.1h0s0,0,0,0h0ZM29,23.1h0s0,0,0,0h0s0,0,0,0h0ZM29.6,23.1h0s0,0,0,0h0ZM28.6,23.1h0s0,0,0,0h0ZM28.1,23.1h0s0,0,0,0h0ZM29.6,23.1h.1s.6-.1.6-.1h-.5c0,0-.2.1-.2.1h0s0,0,0,0ZM28.1,23.1h0,0,0ZM28.5,23.1h0s0,0,0,0h0s0,0,0,0h0s0,0,0,0h0ZM29.5,23.1h0,0s0,0,0,0ZM29.3,23.1h.2s0,0,0,0h-.2c0-.1,0,0,0,0ZM28.9,23.1h0s0,0,0,0h0s0,0,0,0h0ZM28.4,23.1h0s0,0,0,0h0ZM28.4,23.1h0s0,0,0,0h0ZM27.6,22.9l.5.2h0,0s0-.1,0-.1h-.4ZM28.7,23.1h.1s0,0,0,0h0s0,0,0,0ZM28.1,23h0c0,.1,0,.1,0,.1h0c0,0-.1-.1-.1-.1h0ZM29,23.1h0s0,0,0,0h0s0,0,0,0ZM28.7,23.1h0s0,0,0,0h0ZM29.4,22.9h.1c0,.1.2,0,.2,0h-.1s-.2,0-.2,0h0ZM28.2,23h0c0,0,.1,0,.1,0h0c0,0,0,0,0,0ZM28.9,23.1h0s0,0,0,0h0s0,0,0,0h0ZM28.6,23.1h0s0,0,0,0h0ZM29.1,23h.2s0,0,0,0h0s0,0,0,0h-.2c0,0,0,0,0,0ZM28.7,23.1h0s0,0,0,0h0ZM28.9,23h0s0,0,0,0h0ZM28.3,23h0s0,0,0,0h0s0,0,0,0ZM28.4,23h0s0,0,0,0h0s0,0,0,0h0s0,0,0,0ZM28.6,23h0s0,0,0,0h0ZM28.4,23h0s0,0,0,0h0ZM29,23h0s.2,0,.2,0h-.2s0,0,0,0ZM29,23h0s0,0,0,0h0s0,0,0,0h0ZM28.4,23h0s0,0,0,0h0ZM28.5,23h0s0,0,0,0h0s-.1,0-.1,0h0s0,0,0,0ZM29.3,22.9h.1c0,0,0,0,0,0h0ZM28.9,23h0s0,0,0,0h0s0,0,0,0h0ZM28.9,23h0s0,0,0,0h0s0,0,0,0ZM28.3,23h0s0,0,0,0h0ZM28.6,23h0s0,0,0,0h0ZM28.5,23h0s0,0,0,0h0ZM28.3,23h0s0,0,0,0h0ZM28.3,23h0s0,0,0,0h0s0,0,0,0ZM28.4,23h0s0,0,0,0h0s0,0,0,0h0ZM28.8,23h0s0,0,0,0h0ZM28.7,23h0s0,0,0,0h0c0-.1,0,0,0,0h0ZM28.8,23h0s0,0,0,0h0c0,0,0,0,0,0ZM28.4,23h0s0,0,0,0h0s0,0,0,0ZM28.9,23h0s0,0,0,0h0ZM29.8,22.9h.5c0,0,14.4-3.2,14.4-3.2-.3-1.2-.7-2.6-1.4-3.9l-13.8,6.9v.2c0,0,0,0,0,0l.6-.3-.6.3h.2s.1,0,.1,0l.8-.6-.8.7h0ZM28.3,23h0s0,0,0,0h0s0,0,0,0h0ZM28.9,23h0s0,0,0,0h0s0,0,0,0h0ZM28.4,23h0s0,0,0,0h0s0,0,0,0ZM28.5,23h.1s0-.1,0-.1h0s-.1.1-.1.1h0ZM29,23h0s0,0,0,0h0s0,0,0,0ZM28.9,22.9h0s0,0,0,0h0s0,0,0,0ZM29.1,22.9h0c0,0,.2,0,.2,0h0s0,0,0,0h0s0,0,0,0ZM28.3,22.9h0s0,0,0,0h0s0,0,0,0ZM28.2,23h0,0s0,0,0,0h0ZM28.7,22.8h.1c0,.1,0,0,0,0h0c0,0-.2,0-.2,0ZM28.5,23h0s0,0,0,0h0s0,0,0,0ZM28.1,22.9h0s0,0,0,0h0s0,0,0,0h0ZM28.9,22.9h0s0,0,0,0h0c0,0,0,0,0,0h0ZM28.4,22.9h0s.1-.1.1-.1h0s-.1,0-.1,0h0v.2h0ZM28.4,22.9h0s0,0,0,0ZM28.1,22.9h0s0,0,0,0h0ZM28.3,22.9h0s0,0,0,0h0ZM29.3,22.9h0s0,0,0,0ZM29.3,22.9h0s0,0,0,0h0s0,0,0,0ZM28.3,22.9h0s0,0,0,0h0s0,0,0,0ZM29.4,22.9h0s.2,0,.2,0h-.2s0,0,0,0ZM28.3,22.9h0s0,0,0,0h0c0,0,0,0,0,0ZM29,22.9h0c0,0,0,0,0,0h0c0,0,0,0,0,0h0s0,0,0,0ZM27.6,22.8h.4c0,0,0,0,0,0h-.4c0,0,0,0,0,0ZM29.2,22.9h0s0,0,0,0h0s0,0,0,0ZM29.6,22.9h0s0,0,0,0h-.1ZM28.1,22.8h.2c0,.1,0,0,0,0h0c0,0-.2,0-.2,0h0s0,0,0,0ZM29,22.9h0c0,0,0,0,0,0h0s0,0,0,0h0ZM28.1,22.9h0s0,0,0,0h0c0,0,0,0,0,0ZM28.9,22.9h0c0,0,0,0,0,0h0ZM28.5,22.9h0s.1,0,.1,0h0s0,0,0,0ZM29.3,22.9h0s0,0,0,0h0s0,0,0,0ZM28,22.9h0,0c0-.1,0-.2,0-.2h0v.2h0ZM27.5,22.8h.5c0,0-.5-.1-.5-.1h0s0,.1,0,.1h0s0,0,0,0ZM28.9,22.8h0c0,0,0,0,0,0h0s0,0,0,0ZM27.5,22.7l.5.2v-.2s-.5,0-.5,0h0ZM29.3,22.9h0s0-.2,0-.2h-.2c0,.1,0,.2,0,.2h0ZM29.1,22.9h0s0,0,0,0h0ZM28.3,22.9h0s0,0,0,0h0s0,0,0,0ZM29.2,22.9h0s0,0,0,0h0s0,0,0,0h0ZM29,22.9h0s0,0,0,0h0ZM29.1,22.8h0s0,0,0,0h0s0,0,0,0ZM29,22.8h0s0,0,0,0h0s0,0,0,0ZM29,22.8h0s0,0,0,0h0s0,0,0,0h0ZM29.1,22.8h0s0,0,0,0h0c0,0,0,0,0,0h0ZM28.9,22.8h0s0-.1,0-.1h0c0,0,0,0,0,0h0ZM28.3,22.8h0c0,0,0,0,0,0h0ZM28.4,22.8h0s0,0,0,0h0ZM28.5,22.8h0s0,0,0,0h0ZM27.4,22.8h0,0s0,0,0,0ZM28.7,22.8h.2s0-.1,0-.1h-.1ZM26.7,22.7h.7c0,.1,0,.1,0,.1l-.3-.2h-.5c0,0,.1,0,.1,0h0ZM27.1,22.6l.3.2h0c0-.1-.3-.2-.3-.2ZM29.2,22.7h0c0,0,.2,0,.2,0v-.2c.1,0-.3.3-.3.3ZM29.1,22.8h0s0,0,0,0h0ZM28.7,22.8h0s0,0,0,0h0s0,0,0,0h0ZM28.5,22.8h0s0,0,0,0h0c0,0,0,0,0,0ZM29.1,22.8h0s0,0,0,0h0s0,0,0,0h0ZM28.4,22.8h.1s0,0,0,0h0c0,0,0,0,0,0h0s0,0,0,0ZM29,22.7h0c0,0,0,0,0,0h-.1c0,0,0,0,0,0h0ZM29.1,22.7h0s0,0,0,0h0ZM28.4,22.8h0s0,0,0,0ZM28.2,22.7h.1s0,0,0,0v-.2l-.3-.4v.3s.2.3.2.3h0ZM28.9,22.7h0c0,0,0,0,0,0h0ZM28.7,22.7h0s.1,0,.1,0h0s0,0,0,0ZM28.1,22.7h.2s-.2-.3-.2-.3v.3ZM29.1,22.7h0s.4-.2.4-.2l.3-.7-.3.6h0s0,0,0,0v.2c-.1,0,13.6-6.9,13.6-6.9-.8-1.4-1.7-2.6-2.7-3.6l-11.2,10.2v.3c-.1,0,.2-.5.2-.5l-.3.5h0ZM28.6,22.6h0c0,0,.1,0,.1,0h0c0,0-.2-.2-.2-.2v.2s0,0,0,0ZM28,22.7h0v-.4s0-.1,0-.1h0c0,.1,0-.2,0-.2l-.2-.2.2.8h0c0,0,0,0,0,0ZM27.4,22.6h.5c0,0,0,0,0,0l-.5-.5v.5ZM29.1,22.7h0s0,0,0,0h0s0,0,0,0ZM28.9,22.6h0c0,0,0,0,0,0h0s0,0,0,0h0ZM29,22.6h.1c0,.1,0,0,0,0v-.4c.1,0-.1.3-.1.3h0ZM28.4,22.6h0c0,0,0,0,0,0h0ZM28.4,22.5h0c0,0,0,0,0,0h0s0,0,0,0ZM26.9,22.6h.5c0,0,0-.4,0-.4l-.6-.6.6.6h0c0-.1,0-.2,0-.2h0c0,0,0-.3,0-.3l-4.6-3.2,3.1,3.7.6.4h.4c0,0-.7-.3-.7-.3l.7.3ZM28.4,22.5v.2s0-.1,0-.1h0ZM27.4,22l.5.6-.2-.8-.3-.2v.4s0,0,0,0ZM28.5,22.5h0c0,0,0,0,0,0h0c0,0,0,0,0,0ZM28.8,22.6h0s0,0,0,0h0ZM28.8,22.6h0s0,0,0,0h0s0,0,0,0h0ZM27.4,22.2l.4.4-.4-.5h0c0,.1,0,.1,0,.1ZM28.9,22.5h0s0,0,0,0h0s0,0,0,0ZM28.8,22.5h0s0,0,0,0h0c0,0,0,0,0,0h0ZM29,22.5h0s0,0,0,0h0ZM28.4,22.5h0s0,0,0,0h0ZM28.6,22.4h.2c0,.1,0,0,0,0h0c0,0-.1-.2-.1-.2h0ZM28.8,22.4h0c0,0,0,0,0,0h0ZM28.4,22.5h0c0,0,0,0,0,0h0c0,0,0,0,0,0ZM28.9,22.5h0s0,0,0,0h0s0,0,0,0h0ZM28.4,22.4h0s0,0,0,0h0c0,0,0,0,0,0h0ZM28.9,22.4h0s.1-.1.1-.1v-.7c0,0,0,.2,0,.2v.2c0,0,0,.4,0,.4h0ZM29,22.4h0s11.2-10.6,11.2-10.6c0,0-.1-.1-.2-.2l-11,10.7ZM28.8,22.4h0c0,0,0-.2,0-.2v.2ZM28.1,22.1l.3.3h0s-.2-.3-.2-.3h0ZM28.4,22.3h0c0,0,0,0,0,0h0c0,0,0,0,0,0h0ZM28.5,22.3h0c0,0,0,0,0,0h0c0-.1,0-.2,0-.2v.2ZM28.8,22.3h0s0-.2,0-.2h0c0-.1-.1,0-.1,0h0ZM28.3,22.2h0c0,.1,0,0,0,0h0ZM28.6,22.3h0c0,0,0,0,0,0h0ZM29.1,21.6v.7c0,0,10.7-10.9,10.7-10.9-.9-.8-1.9-1.5-2.6-2l-8,12.2ZM28.4,22.2h0c0,0,0,0,0,0l-.4-.4v.2s.2.2.2.2h.1c0,0,0,0,0,0h0c0,.1,0,.1,0,.1ZM28.7,22.3h0s0,0,0,0h0ZM28.6,22.2h0s0,0,0,0v-.2c0,0,0,.2,0,.2h0ZM28.5,22.1h0c0,0,0-.2,0-.2h0c0,0,0,.2,0,.2ZM28.7,21.9v.3c0,0,.2-.2.2-.2v-1.1.5c-.1,0-.2.6-.2.6ZM28.9,22h0c0,0,0,0,0,0h0ZM28.5,22.1h0s0-.3,0-.3l-.6-2.3v2.2c0,0,.5.5.5.5v-.3s0,.3,0,.3h0ZM28,22h0s0,0,0,0h0s0,0,0,0ZM27.1,20.9l.9,1h0c0,0-.5-.7-.5-.7l-.4-.3ZM27.7,21.8h.2c0,.1-.5-.5-.5-.5v.2s.3.2.3.2h0s0,0,0,0h0ZM14.6,13.5l11.1,8.4-3.3-3.8-7.4-5.2c-.1.2-.3.4-.4.5ZM28.9,20.7v1.2s0-.1,0-.1v-.3c0,0,0,.3,0,.3v-.2c.1,0,.4-2.7.4-2.7l-.5,1.8h0ZM27.7,21.5l.2.3h0c0-.1-.2-.3-.2-.3ZM28.6,21.7h0c0,0,0-.1,0-.1h0c0,.1,0,.1,0,.1ZM28,19.1l.6,2.6v-.4c.1,0,.3-1.5.3-1.5V6.9c-.4,0-.8,0-1.3,0l.3,12.1h0ZM22.6,18.1l4.8,3.5v-.2l-.5-.6-9-8.2,4.7,5.6h0ZM27.3,20.9l.6.6v-2.6c-.1,0-3.2-11.7-3.2-11.7-1.8.3-3.7.9-5.8,2l8.4,11.7ZM29.5,18.4l-.4,3.1,7.8-12.2c-2-1.2-3.8-1.8-4.2-1.9,0,0-.2,0-.4-.1l-2.9,11h0ZM28.9,20.2v.6c0,0,0-.3,0-.3v-.3ZM26.2,19.7l.8.8-8.3-11.1c-.2.2-.4.3-.6.5l8.1,9.9h0ZM28.9,20.1v.4l.5-2.2,1.1-10.6-1.6,12.4h0ZM29,6.9v12.6c0,0,1.4-12.5,1.4-12.5-.4,0-.9,0-1.4-.1h0ZM17,10.7l8.6,8.5-7.8-9.3c-.3.2-.6.5-.9.7h0ZM25,7.2l2.8,11.3-.5-11.6c-.7,0-1.5,0-2.3.2h0ZM16.4,11.3c-.7.7-1.1,1.2-1.3,1.5l7,5-5.7-6.5ZM30.8,7.1l-1.2,10.5,2.5-10.3c-.3,0-.8-.1-1.3-.2Z"/>
  </g>
  <g class="st6">
    <path class="st1" d="M27.4,43.7c-1,0-2.3,0-3.6-.3,0,0-.1,0-.2,0-2.2-.4-4.4-1.1-6.3-2.1,0,0,0,0-.1,0-1.7-.9-4.9-2.9-7.4-6.4,0,0-.1-.2-.2-.3-3.3-4.8-3.4-9.8-3.2-12.3,0,0,0-.1,0-.2.3-2.9,1.3-5.9,2.8-8.4,0,0,0-.1,0-.2,1.1-1.8,2.4-3.2,3.5-4.2,1.3-1.4,3-2.8,5.2-3.9.2,0,.3-.2.5-.2,4-2,7.5-2,9.4-2,.1,0,.3,0,.4,0,1.8,0,3.5.2,5.1.6,0,0,.1,0,.2,0,.8.2,2.9.8,5,1.8,0,0,0,0,0,0,2.9,1.5,4.9,3.4,5.9,4.4,0,0,0,0,.1.1,2.6,2.8,4.4,6.4,5,10.1,0,0,0,.2,0,.3.5,3.7,0,7.7-1.6,11,0,0,0,.1-.1.2-1.4,2.9-3.4,5-4.8,6.3,0,0,0,0-.1,0-1.2,1-2.7,2.1-4,2.9-.1,0-.2.1-.3.2-2.8,1.5-5.9,2.3-9.1,2.5,0,0,0,0,0,0-.4,0-1.2,0-2.1,0h0Z"/>
  </g>
  <g class="st6">
    <path class="st1" d="M28.2,44c-.5,0-2.1,0-3.8-.3,0,0,0,0-.1,0-2.4-.4-5-1.3-7.1-2.4,0,0,0,0-.1,0-1.8-1-5.2-3.2-7.5-7.1,0,0-.1-.2-.2-.3-2-3.4-2.9-7.6-2.4-11.6.2-2.5.8-4.9,1.8-7.1,0,0,0-.2.1-.3,1.1-2.3,3.3-5.6,7.2-8.1,0,0,.2,0,.2-.1,2.8-1.8,6.3-2.9,9.7-3.2,0,0,.1,0,.2,0,1.4-.1,4.3-.1,7.3.7,0,0,.1,0,.2,0,3,.9,5.5,2.4,6.4,3,0,0,0,0,.1,0,1.7,1.2,3.1,2.5,3.7,3.2,0,0,0,0,0,0,1.6,1.7,3.8,4.5,4.9,8.3,0,0,0,.1,0,.2,1.1,4,.8,8.4-.8,12.3,0,.1,0,.2-.1.3-1.8,4.1-4.8,6.8-6.4,8,0,0,0,0-.1,0-2,1.5-4.4,2.7-6.8,3.4,0,0,0,0,0,0-1.9.6-4.1.9-6.1.9h-.2,0Z"/>
  </g>
  <g class="st6">
    <path class="st1" d="M28.2,44.5c-1.5,0-3.7-.1-5.9-.6,0,0,0,0,0,0-2.2-.5-4-1.4-5.1-1.9-.6-.3-1.3-.7-2-1.1,0,0-.1,0-.2-.1-2.5-1.7-4.3-3.8-5.1-4.8,0,0,0-.1-.1-.2-.5-.7-1-1.4-1.4-2.1-.4-.7-.8-1.5-1.1-2.4,0,0,0-.2,0-.2-1.8-4.7-1.2-9.4-1-10.7,0,0,0,0,0-.1.7-3.9,2.7-7.8,5.5-10.6,0,0,.2-.2.3-.3.3-.2.5-.5.8-.7,1.5-1.4,3-2.4,3.9-2.9,0,0,0,0,.1,0,1.5-.9,4.7-2.4,8.6-2.8,0,0,.1,0,.2,0,3.2-.3,7.2.3,10.2,1.4,0,0,0,0,0,0,.5.2,2.3.9,4,2,0,0,0,0,0,0,1.9,1.1,3.7,2.7,5.1,4.4,0,0,0,0,.1.1,2,2.4,3.5,5.3,4.1,8.3,0,0,0,.1,0,.2.6,2.5.5,4.8.4,6.3,0,0,0,0,0,.1-.1,1.4-.4,2.7-.7,4,0,0,0,.1,0,.2-.8,2.9-2.4,5.7-4.4,7.9,0,0-.1.1-.2.2-2.2,2.4-4.7,3.8-6.3,4.7,0,0-.2,0-.2.1-3.1,1.5-6.2,1.9-7.7,2,0,0,0,0-.1,0-.3,0-1,0-1.8,0h0Z"/>
  </g>
  <g class="st6">
    <path class="st1" d="M27.9,45.9c-1.3,0-3.1,0-4.7-.3,0,0-.1,0-.2,0-2.1-.4-4.2-1.1-5.5-1.7,0,0,0,0,0,0-2.1-.9-3.7-2.1-4.7-2.9,0,0,0,0,0,0-1.5-1.2-2.7-2.5-3.9-4.2,0,0,0-.1-.1-.2-1.2-1.7-2.7-4.4-3.4-7.9,0,0,0-.2,0-.2-.2-.9-.3-2-.3-3.1-.1-2.2,0-4.5.5-6.4,0,0,0,0,0,0,.7-2.7,2.1-5.6,3.2-7.3,0,0,.1-.2.2-.2,2.4-3.5,6.2-6.3,10.3-7.7.1,0,.3,0,.4-.1,2.6-.8,5-1,6.6-1,0,0,.2,0,.3,0,2.8,0,5.9.8,7.7,1.4,0,0,0,0,0,0,.1,0,.2,0,.4.1,5.6,1.4,10.1,5.1,12.5,10,.2.2.3.5.4.8,0,0,0,0,0,0,1.5,2.7,2.1,5.4,2.3,7.1,0,0,0,0,0,0,.2,1.7.1,3.2,0,4.4,0,0,0,.1,0,.2-.3,3.2-1.1,6-2.5,8.5,0,0,0,.2-.1.2-.9,1.6-3,4.5-6.6,6.8,0,0,0,0,0,0-.3.2-.9.5-2.4,1.3,0,0,0,0-.1,0-2.7,1.4-5.7,2.1-8.7,2.2,0,0,0,0,0,0-.3,0-.7,0-1.3,0h0Z"/>
  </g>
  <g class="st6">
    <path class="st1" d="M26,45.1c-1.9,0-3.7-.3-5.5-.8-1.3-.4-2.6-.9-3.8-1.5-2.1-1-4.1-2.4-5.7-4.2-.2-.3-.5-.5-.7-.8-3.3-3.9-4.8-8.9-4.1-14,.2-1.4.5-2.7,1-4.1,0,0,0-.1,0-.2,0-.2.2-.5.3-.9.7-1.9,1.8-3.7,3.1-5.3.5-.6,1.1-1.2,1.7-1.8.5-.6,1.1-1.2,1.7-1.7,0,0,.2-.2.3-.2,2.7-2.3,6.2-3.9,9.7-4.6,0,0,.2,0,.3,0,2.7-.5,7.2-.4,9.2,0,0,0,0,0,0,0,2.4.4,4.8,1.2,6.2,1.9,0,0,0,0,0,0,2.6,1.3,4.4,2.8,5.7,4.1,7.4,7.2,7.4,18.8,0,26-.9.9-1.9,1.7-3,2.4-2.5,2.4-5.7,4.2-9.2,5,0,0-.1,0-.2,0-1.7.4-3.4.6-4.8.6h0c-.8,0-1.5.1-2.3.1h0Z"/>
  </g>
  <g class="st6">
    <path class="st1" d="M25.9,44.5c-.7,0-1.5,0-2.3-.1-10.5-1-18.1-10.1-17-20.2.8-7.2,5.8-13,12.4-15.4,4.8-2.1,10.5-2.2,15.7.1,9.6,4.2,13.8,15.2,9.4,24.4-2,4.3-5.4,7.5-9.9,9.5-.1,0-.3.1-.4.2-2.5,1-5.1,1.5-7.9,1.5h0ZM27.6,7.8h0,0Z"/>
  </g>
  <g class="st6">
    <path class="st1" d="M25.9,45.1c-8.5,0-16.3-5.6-18.5-13.9-1.6-6.3.3-12.7,4.6-17.1,4.3-5.4,11.5-8.2,18.8-6.8,10.3,2,17.1,11.6,15,21.6-.4,2.2-1.2,4.3-2.3,6.1,0,0,0,0,0,.1-1,1.6-2.1,2.8-2.8,3.6,0,0,0,0-.1.1-1.6,1.6-5,4.4-9.9,5.7-1.6.4-3.1.6-4.6.6h0ZM8.4,21.8s0,0,0,0h0ZM21.3,8.9s0,0,0,0c0,0,0,0,0,0ZM21.3,8.9s0,0,0,0c0,0,0,0,0,0Z"/>
  </g>
  <g class="st6">
    <path class="st1" d="M26,44.6c-1.2,0-2.4-.1-3.6-.3-10.4-1.8-17.2-11.4-15.3-21.4,1.1-5.6,4.7-10.1,9.4-12.7,5.2-3.3,12-4.2,18.2-1.6,9.7,4,14.1,14.9,9.9,24.2-.4.9-.9,1.8-1.4,2.6,0,0,0,0,0,0-2.6,3.9-6.8,7.1-11.3,8.4,0,0,0,0-.1,0-1.8.5-3.8.8-5.7.8ZM29.3,8s0,0,0,0c0,0,0,0,0,0Z"/>
  </g>
  <g class="st6">
    <path class="st1" d="M26.5,45.2c-.4,0-.9,0-1.3,0,0,0-.1,0-.2,0-.4,0-2.3-.2-4.1-.6,0,0,0,0-.1,0-2.6-.6-4.6-1.7-5.6-2.2,0,0-.1,0-.2-.1-4.4-2.6-7.8-6.9-9.1-11.6,0-.1,0-.2,0-.3-.2-.7-.8-3-.6-6.5,0,0,0-.1,0-.2.2-2.8,1.2-8,5.9-12.4.2-.2.3-.3.5-.5.5-.4,1-.8,1.6-1.2,3.7-2.9,8.5-4.5,13.6-4.2,4.2.3,8.1,2,11.1,4.5.7.5,1.5,1,2.1,1.6,2,1.4,3.7,3.1,5,5.2,3.5,5.4,3.9,12.1,1,17.8-2.5,5.1-7.2,8.6-12.9,10-.5.2-1,.3-1.5.4-1.7.4-3.4.6-5,.6h0ZM22.9,8.7s0,0,0,0c0,0,0,0,0,0Z"/>
  </g>
  <g class="st6">
    <path class="st1" d="M27.1,45.9c-3.1,0-6.1-.6-8.9-1.9,0,0-.2,0-.2-.1-1.6-.7-2.8-1.5-3.7-2.2-1.5-1-2.8-2.2-3.9-3.4,0,0,0,0,0,0-.4-.5-1.9-2.1-2.9-4.1,0,0,0-.1,0-.2-1.1-2-1.8-4.2-2.2-6.6,0,0,0,0,0-.1-.1-.7-.2-1.6-.3-2.6,0,0,0,0,0,0,0-1.6,0-4,.7-6.7,0,0,0,0,0-.1.4-1.4,1.2-3.5,2.5-5.6,0,0,0,0,0-.1,1.8-2.8,4.1-4.7,5.3-5.5,0,0,0,0,.1,0,2.1-1.5,4.3-2.4,5.4-2.8,0,0,0,0,.1,0,1.5-.5,3.1-.9,4.8-1.2,8.8-1.3,17.2,3.5,20.5,11.1,0,0,0,0,.1.1,4.1,4.6,5.6,10.9,4,16.7,0,0,0,.1,0,.2-.3,1.2-.8,2.7-1.7,4.4,0,0-.1.2-.2.3-2.6,4.5-6.5,7-8.6,8,0,0-.1,0-.2,0-.4.2-.9.4-1.3.6-.3.1-.6.3-1,.4,0,0,0,0,0,0-2.1.8-4.2,1.3-6.5,1.5-.1,0-.3,0-.4,0-.4,0-.9,0-1.3,0h0Z"/>
  </g>
  <g class="st6">
    <path class="st1" d="M26.8,43.7c-.1,0-.3,0-.5,0-10.5-.1-19-8.5-18.8-18.6.1-9.8,8.3-17.8,18.3-18.1,9.5-.7,18.4,5.5,20.2,14.8,2,10-4.7,19.6-15.1,21.6-.7.1-1.7.3-2.9.3-.2,0-.6,0-1.4,0h0ZM24,7.2c-.1,0-.2,0-.3,0,0,0,.2,0,.3,0ZM25.9,7h0,0Z"/>
  </g>
  <g class="st6">
    <path class="st1" d="M27.5,44c-.5,0-1,0-1.4,0-10.5-.6-18.5-9.3-17.9-19.5.6-9.1,8-16.3,17.1-17.2,9.4-1.4,18.6,4.1,21.3,13.2,2.9,9.8-3,20-13.1,22.7-1.4.4-2.6.6-3.8.7,0,0,0,0-.1,0-.8,0-1.5,0-2.1,0h0ZM23.1,7.7h0,0ZM28.4,7.2s0,0,0,0c0,0,0,0,0,0ZM28.4,7.2h0,0Z"/>
  </g>
  <g class="st6">
    <path class="st1" d="M28,43.8c-.2,0-.4,0-.6,0-10.5-.2-18.9-8.6-18.7-18.8.2-9.8,8.3-17.7,18.3-18,9.4-.8,18.2,5.2,20.3,14.3,2.3,9.9-4.1,19.8-14.4,22-.3,0-.7.2-1.3.2-1.2.2-2.4.3-3.7.3h0ZM24.6,7.4s0,0,0,0c0,0,0,0,0,0ZM28.2,7h0,0Z"/>
  </g>
  <g class="st6">
    <path class="st1" d="M27.9,44.2c-8,0-15.5-4.9-18.1-12.6-3-8.8,1.2-18.2,9.5-22.2,4.8-2.5,10.4-2.9,15.5-1.2,4.9,1.6,9.1,5.2,11.3,10.1,3.9,8.7.3,18.9-8.4,23.5-2.1,1.1-4.1,1.7-5.9,2.1-1.3.3-2.6.4-4,.4h0ZM42.3,38.1s0,0,0,0c0,0,0,0,0,0Z"/>
  </g>
  <g class="st6">
    <path class="st1" d="M26.9,45.8c-2.6,0-5.2-.5-7.7-1.4-1.1-.4-2-.8-3-1.3,0,0,0,0-.1,0-3-1.6-5.7-4-7.5-6.8,0,0,0-.1-.1-.2h0c-.5-.8-1.8-2.8-2.5-5.6,0,0,0-.2,0-.2-.3-1.2-1.2-5.4,0-10,0,0,0,0,0,0,1.4-4.9,4.6-8.2,5.9-9.4,0,0,0,0,0,0,.9-.9,1.8-1.5,2.5-2,1.9-1.4,4.6-2.8,8.2-3.5,0,0,0,0,0,0,4.5-.8,8.9,0,12.7,1.9,8,2.1,13.9,9.2,14,17.5,0,3-.7,5.7-1.2,7h0c-.6,1.7-1.7,4.2-3.9,6.6,0,0,0,0-.1.1-.8.9-1.6,1.5-2.2,2-3,2.6-6.1,3.6-7.3,4,0,0-.2,0-.2,0-.5.2-1,.3-1.5.4-1.6.5-3.1.8-4.7.9-.1,0-.2,0-.3,0-.4,0-.8,0-1.2,0h0ZM42.9,39.7s0,0,0,0h0s0,0,0,0h0Z"/>
  </g>
  <g class="st6">
    <path class="st1" d="M25.8,45.6c-4.5,0-9-1.5-12.4-4.2,0,0-.2-.2-.3-.2-.8-.7-1.6-1.4-2.3-2.2,0,0,0-.1-.1-.2-.8-.9-1.5-1.8-2.1-2.8-.7-1.1-1.4-2.2-1.8-3.4,0-.1,0-.2-.1-.4-.4-1-.7-2-.8-3-.3-1.5-.3-2.7-.4-3.4,0-1.3-.1-4.8,1.8-8.8.2-.4.4-.7.6-1.1,1.3-2.2,3-4.1,5.1-5.7,1.9-1.5,4.1-2.5,6.4-3.1,5.7-1.8,12.2-1,17.4,2.8.2.2.5.3.7.5,2.8,1.6,5.2,3.8,6.9,6.6,3.3,5.4,3.5,12,.6,17.6-.8,1.5-1.8,3-3,4.3-.2.2-.4.4-.6.6-2.5,2.4-5.7,4.2-9,5-1.7.6-3.5.9-5.4,1-.1,0-.2,0-.3,0-.2,0-.4,0-.6,0h0ZM19.6,44.5s0,0,0,0c0,0,0,0,0,0Z"/>
  </g>
  <g class="st6">
    <path class="st1" d="M27.2,45.7c-1.6,0-3.2-.2-4.6-.5-.1,0-.3,0-.4,0-2.8-.7-5.5-2-7.9-3.8,0,0-.1,0-.2-.1-3.8-2.5-6.5-6.2-7.7-10.5,0-.1,0-.3-.1-.4-.5-1.9-.7-3.9-.6-6,0,0,0-.1,0-.2,0-1.2.3-2.3.6-3.8,1.1-4.8,4-8.7,7.9-11.3,2.6-1.9,5.9-3.2,9.1-3.7,0,0,0,0,0,0,2.2-.3,4.2-.2,5.2-.2,0,0,0,0,0,0,2,.2,4,.6,5.9,1.3,2.3.7,4.5,1.8,6.4,3.1.1,0,.2.2.3.2,3.2,2.4,5.5,5.6,6.7,9.2,0,.2.1.3.2.5,1.1,3.7,1,7.8-.3,11.5,0,.1,0,.2-.1.3-.2.5-.4,1.1-.7,1.6-.9,2.1-2.2,4.1-3.8,5.9,0,0,0,0,0,0-1.4,1.5-3,2.7-4.4,3.5-1.1.7-2.2,1.2-3.4,1.7-2.2.8-4.5,1.4-6.8,1.5,0,0,0,0,0,0-.4,0-.8,0-1.2,0h0ZM6.3,20.4c0,.2,0,.4,0,.4,0,0,0-.2,0-.3,0,0,0,0,0-.1h0Z"/>
  </g>
  <g class="st6">
    <path class="st1" d="M26.9,46.4c-.7,0-1.4,0-2.1-.1-.8,0-1.6-.2-2.3-.4-1.2-.2-2.1-.5-2.6-.6,0,0-.1,0-.2,0-2.3-.8-8-3.2-11.4-9.1-.1-.2-.2-.4-.3-.5-.6-1.3-1.1-2.6-1.5-4-1.5-4.9-.5-9.3,0-11.1,0,0,0,0,0-.1.8-2.5,2-4.4,3.2-6.1.3-.4.6-.8.9-1.2,0,0,0,0,0,0,1.4-1.8,3-3.1,3.6-3.6,0,0,0,0,0,0,1.1-.8,2.8-2.1,5-3,0,0,.2,0,.3-.1,4.9-2,9.5-1.6,11.8-1.2,0,0,.2,0,.3,0,2.2.4,4.4,1.2,6.4,2.4,4.2,2.4,6.5,5.7,7.6,8,0,.2.2.3.2.5.8,1.7,1.3,3.4,1.5,5.2.1.6.3,1.2.3,1.9,0,.1,0,.2,0,.3,0,.1,0,.3,0,.4.2,1.9.2,3.5,0,4.6,0,0,0,.1,0,.2-.3,2.8-1.4,5.9-2.9,8.3,0,0,0,.1-.1.2-1.9,2.9-4.7,5.4-7.9,6.9-.1,0-.3.1-.4.2-1.3.6-2.6,1-4,1.4-1.9.6-3.9.9-6,.9h0Z"/>
  </g>
  <g class="st6">
    <path class="st1" d="M26.3,46c-9.4,0-17.6-6.8-18.9-16-1.2-9.2,4.8-17.7,13.8-20.1,8.2-2.8,17.6.2,22.4,7.6,5.6,8.6,2.9,20-6.1,25.4-.4.3-1,.6-1.7.9,0,0-.1,0-.2,0-2.1,1-4.2,1.5-5.5,1.8,0,0,0,0,0,0-.4,0-.7.1-1.3.2-.8.1-1.7.2-2.5.2ZM17.3,11.7h0,0Z"/>
  </g>
  <g class="st6">
    <path class="st1" d="M27.2,45.7c-1,0-1.9,0-2.7-.2-10.5-1.1-18.1-10.1-17-20.2.9-8.6,7.9-15.2,16.4-16.3,5.8-1.2,12.1.2,16.8,4.3,7.8,6.8,8.4,18.4,1.4,26-2.8,3-6.5,5.1-10.6,5.9,0,0-.1,0-.2,0-1.5.3-2.9.4-4.1.4h0ZM13.7,14.7s0,0,0,0c0,0,0,0,0,0ZM13.8,14.7s0,0,0,0h0Z"/>
  </g>
  <g class="st6">
    <path class="st1" d="M27.6,45.7c-.8,0-1.6,0-2.5-.1-10.5-.9-18.3-9.8-17.4-19.9.8-8.7,7.7-15.4,16.3-16.6,4.3-1.1,9-.7,13.3,1.4,5.3,2.6,8,6.4,9.2,9.2.1.2.2.4.3.7,2.1,5.2,1.7,11.1-1.2,16-1.7,2.9-5.8,7.9-14.2,9.2,0,0-.2,0-.3,0-1.2.2-2.4.2-3.6.2ZM20.3,43.3h0s0,0,0,0ZM28.4,8.9h0,0Z"/>
  </g>
  <g class="st6">
    <path class="st1" d="M28.9,48.2c-.8,0-1.5,0-2.3-.1-1.9-.2-3.7-.6-5.2-1.2-2.4-.8-4.5-2.1-6.4-3.7-.1,0-.2-.2-.3-.3-.8-.8-3.7-3.6-5.4-7.4,0,0,0-.1,0-.2-1.2-2.8-1.6-5.7-1.4-8.8.8-9.8,9.3-17.2,19.5-17,2.5,0,4.8.6,7,1.4,7.5,1.4,13.6,7,15.1,14.5,1.2,5.8-.6,11.8-4.8,16.2-.3.3-.6.6-1,.9-1.1,1-2.2,1.8-3.4,2.5,0,0,0,0,0,0-2.5,1.5-5.3,2.5-8.2,2.9-.2,0-.4,0-.6,0-.1,0-.2,0-.4,0-.7,0-1.5.1-2.2.1Z"/>
  </g>
  <g class="st6">
    <path class="st1" d="M29.4,45.9c-.4,0-.8,0-1.2,0-.1,0-.3,0-.4,0-3.1-.2-5.9-.9-8.3-2,0,0-.1,0-.2,0-4.6-2.2-8.1-6-9.8-10.6,0,0,0-.2-.1-.3,0,0,0-.1,0-.2-.3-.8-.8-2-1.2-3.5,0,0,0,0,0-.1-.4-1.6-1-4.6-.6-8.1,0-.3,0-.6,0-.8,0,0,0,0,0,0,0,0,0,0,0-.1,0-.4,0-.9.1-1.4,0-.3,0-.6.1-.8.7-3.7,2.5-7.1,5.2-9.9,0,0,.1-.1.2-.2.4-.4,1.8-1.7,3.5-2.8,0,0,.2-.1.2-.2,3.1-2,6.7-3.2,10.4-3.4,0,0,0,0,.1,0,.2,0,.5,0,1.4,0h.3c4.2,0,8.1,1.4,11.2,3.6,0,0,0,0,.1,0,.4.2,2.4,1.4,4.2,3,0,0,.1.1.2.2.9.8,1.6,1.7,2.3,2.6,1.4,1.6,2.4,3.5,3.2,5.6.6,1.6.8,3.1,1,4.6,0,.6.2,1.2.2,1.9,0,.6,0,1.1,0,1.5,0,.6,0,1.3,0,1.9,0,.6-.1,1.2-.2,1.7-.4,2.5-1.3,4.9-2.6,7.1,0,0,0,0,0,.1-.9,1.4-1.8,2.5-2.3,3,0,0,0,0-.1.1-.1.1-.2.2-.3.3-.6.7-1.2,1.3-1.9,1.8,0,0,0,0-.1,0-.9.8-1.8,1.3-2.5,1.8-1.8,1.1-3.8,2-5.9,2.5-.6.1-1.2.3-1.7.3-1.5.3-3,.4-4.5.4h0ZM9.4,32.5c0,0,0,.1,0,.2,0,0,0-.1,0-.2ZM51.5,28.2h0s0,0,0,0Z"/>
  </g>
  <g class="st6">
    <path class="st1" d="M31.6,44.9c-1.9,0-3.8-.3-5.6-.8h0c-.1,0-.5-.1-.8-.3-.3-.1-.4-.2-2.5-.9-9.8-3.7-14.6-14.4-10.8-23.9,3.9-9.5,14.9-14.1,24.7-10.4.3.1,1,.4,1.4.5,9.6,3.3,14.9,13.3,11.8,22.8-2.5,7.9-10.1,13-18.2,13h0Z"/>
  </g>
  <g class="st6">
    <path class="st1" d="M31,44.5c-1.8,0-3.7-.3-5.4-.8-3.6-.9-6.9-2.8-9.3-5.5-3.2-3.3-5.1-7.8-5.1-12.5,0-.4,0-.8,0-1.1.1-2.4.8-4.8,1.9-7,1.8-3.5,4.5-6.3,8.1-8.2,4.2-2.2,9.1-2.8,13.7-1.7,1.7.4,3.3,1,4.8,1.9.6.3,1.2.7,1.8,1.1,8.2,5.1,11.1,15.5,6.4,24-3.4,6.2-10,9.8-16.9,9.8h0Z"/>
  </g>
  <g class="st6">
    <path class="st1" d="M31.6,44.9c-2.9,0-5.8-.6-8.5-1.9l-2.4-1.2c-9.4-4.5-13.3-15.6-8.6-24.7,4.6-9,16-12.8,25.4-8.4,4.3,1.4,8.2,4.3,10.6,8.4l.2.3c4.1,7,3,15.8-2.8,21.7-3.7,3.8-8.7,5.8-13.9,5.8h0Z"/>
  </g>
  <g class="st6">
    <path class="st1" d="M31,44.5c-1.9,0-3.8-.3-5.7-.8-1.3-.4-2.6-.9-4.1-1.7,0,0,0,0,0,0-1.6-.8-3.2-1.8-4.6-3-7.9-6.7-8.7-18.3-1.8-26,6.3-6.9,16.7-8.2,24.5-3.5,8.4,3.9,12.8,13.2,10,22.1-2.5,7.9-10.1,12.9-18.2,12.9ZM36.7,8.5h0,0ZM36.7,8.5s0,0,0,0c0,0,0,0,0,0Z"/>
  </g>
  <g class="st6">
    <path class="st1" d="M30.6,45.1c-4.7,0-9.9-1.6-14.3-6.2,0,0-.2-.2-.2-.3-.4-.5-1.2-1.3-1.5-1.6-7-7.6-6.2-19.2,1.7-26,7.9-6.7,19.9-6,26.9,1.6.1.1.3.3.4.5,2.2,2,4,4.5,5.1,7.5,3.5,9.6-1.8,20.1-11.7,23.4-1.9.6-4.1,1-6.4,1ZM29.4,8.3c-1.6.1-3.3.4-4.9,1,1.6-.6,3.3-.9,4.9-1Z"/>
  </g>
  <g class="st6">
    <path class="st1" d="M31.2,45c-4.7,0-9.3-1.7-12.9-4.8-.9-.8-1.6-1.4-2-1.8,0,0,0,0,0,0-2.1-2-3.7-4.4-4.8-7-3.9-9.5,1-20.1,10.8-23.9,7.5-2.9,15.8-.8,21,4.6,4.3,3.4,7,8.7,6.9,14.5v.2c-.1,7.2-4.6,13.8-11.5,16.6-2.4,1-5,1.5-7.6,1.5h0Z"/>
  </g>
  <g class="st6">
    <path class="st1" d="M31.6,44.8c-5.8,0-11.4-2.6-15.1-7.1l-1.8-2.2c-6.5-8-4.9-19.6,3.4-25.8,8.3-6.2,20.3-4.8,26.8,3.3l.3.3c3.8,3.6,5.9,8.8,5.5,14.3v.2c-.6,7.6-6,14.1-13.5,16.3-1.8.5-3.7.8-5.5.8h0Z"/>
  </g>
  <g class="st6">
    <path class="st1" d="M31,44.6c-6.6,0-13-3.3-16.5-9.2-.3-.4-.7-1-.9-1.3-5.7-8.5-3.2-19.9,5.6-25.4,8.8-5.5,20.6-3.1,26.4,5.4.3.5.9,1.4,1.2,1.8,0,0,0,.1.1.2.2.3.4.7.5.8,5.3,8.8,2.2,20.1-6.9,25.1-3,1.7-6.3,2.5-9.5,2.5Z"/>
  </g>
  <g class="st6">
    <path class="st1" d="M31,44.5c-8.5,0-16.1-5.5-18.4-13.5-3.8-8-1.1-17.7,6.6-22.8,8.7-5.7,20.6-3.5,26.5,4.9h0c.2.3.3.5.5.7,0,0,0,0,0,0,1.4,2.1,2.5,4.6,3.1,7.5,0,0,0,0,0,0,.1.5.2.9.3,1.4,1.9,10-4.9,19.6-15.3,21.4-1.2.2-2.3.3-3.5.3h0Z"/>
  </g>
  <g class="st6">
    <path class="st1" d="M31.6,45.1c-8.9,0-16.4-5.9-18.5-13.8-3.2-6.7-2-14.9,3.6-20.5,7.3-7.3,19.4-7.5,27-.4,1.5,1.4,3,3,4.3,5.3,0,0,0,0,0,.1,1.5,2.6,1.9,5,2.2,6.2,0,0,0,.2,0,.3.3,1.8.3,3.4.3,4.4,0,10.1-8.4,18.3-18.8,18.5,0,0-.2,0-.2,0h0ZM50.7,26.4h0c0,0,0,0,0,0Z"/>
  </g>
  <g class="st6">
    <path class="st1" d="M29.6,47c-.3,0-.6,0-.9,0,0,0,0,0-.1,0-1.5,0-3.8-.3-6.3-1.1,0,0,0,0,0,0-.9-.3-1.7-.6-2.3-.9-.4-.2-.7-.3-1-.4-2.9-1.4-5.5-3.4-7.4-5.9-.1-.2-.2-.3-.4-.5-2-2.8-3.2-5.8-3.6-9.1h0c-.6-5.3,1.2-10.7,5.3-14.8.2-.2.5-.5.7-.7.5-.9,1.1-1.8,1.8-2.6,3-3.7,7.3-6.1,11.9-6.8,4.9-.9,10,0,14.2,2.9,2.3,1.5,4.3,3.5,5.9,6,1.6,2.1,2.7,4.6,3.3,7.1,0,0,0,.2,0,.2.5,2.2.5,4.2.5,5.6,0,0,0,0,0,0,0,.4,0,.7,0,1.1,0,0,0,.2,0,.2,0,0,0,0,0,.1-.1,1.9-.8,6.8-4.1,11.1-1.6,2.2-3.6,4.1-6.1,5.6-2.2,1.2-4.3,1.9-5.8,2.3,0,0,0,0-.1,0-1.7.4-3.6.7-5.5.7h0Z"/>
  </g>
  <g class="st6">
    <path class="st1" d="M28.3,46.3c-5.4,0-10.4-1.9-14.1-5.4,0,0-.1-.1-.2-.2-1.3-1.2-2.1-2.4-2.6-3.1-5.8-8.5-3.3-19.8,5.4-25.4,3.3-2.1,7.1-3.1,10.9-3,10.1-1.1,19.4,5.7,21,15.5.4,2.6.2,5.4-.5,7.9-1.6,5.6-5.9,10.2-11.5,12.4-.1,0-.3.1-.4.2-3,1.1-5.7,1.2-7.7,1.3-.1,0-.2,0-.3,0h0ZM11,30.1s0,0,0,0c0,0,0,0,0,0ZM11,30.1h0s0,0,0,0ZM11,30.1h0s0,0,0,0Z"/>
  </g>
  <g class="st6">
    <path class="st1" d="M29.6,48.3c-2.3,0-4.2-.2-6-.6,0,0-.1,0-.2,0-.4,0-.7-.2-1.1-.3,0,0,0,0,0,0,0,0,0,0,0,0-.8-.2-2.4-.7-4.2-1.6-.6-.3-1.2-.6-1.8-1-.8-.5-1.6-1-2.3-1.6,0,0,0,0,0,0-1.5-1.2-3.1-2.9-4.2-4.5,0,0,0,0,0-.1-.9-1.3-1.7-2.8-2.3-4.4,0,0,0,0,0,0-1-2.7-1.4-5.4-1.3-8.1.2-3.8,1.7-7.4,4.2-10.4,2.1-2.5,4.8-4.4,7.8-5.6,1.4-.5,2.8-1,4.3-1.2,4.6-.7,9.1.2,12.8,2.3.8.2,1.6.4,2.3.7,4.4,1.4,8.2,4.4,10.6,8.5,4.2,7.4,2.7,16.6-3.7,22.4-1.4,1.3-2.9,2.2-4.4,3-2.8,1.7-6.1,2.6-9.7,2.7-.2,0-.4,0-.6,0h0Z"/>
  </g>
  <g class="st6">
    <path class="st1" d="M28,46.9c-2,0-3.7-.3-4.7-.5,0,0,0,0-.1,0-2.2-.5-4-1.2-5.2-1.8,0,0,0,0-.1,0,0,0-.1,0-.2,0-2.5-1.3-4.9-3.1-6.7-5.2,0,0,0-.1-.1-.2-2.3-2.7-3.8-6.2-4.3-9.6,0,0,0,0,0-.1-.3-1.9-.2-4,.1-6,0,0,0-.1,0-.2,0-.3.1-.6.2-.9.3-1.6.8-3.1,1.4-4.5,0,0,0-.1,0-.2,1.3-2.7,3.3-5.3,5.8-7.3,0,0,0,0,0,0,.4-.3.8-.6,1.3-.9,3.1-2.3,7.1-3.7,11-4,0,0,.1,0,.2,0,2.2-.1,4.2.1,5,.3,0,0,0,0,0,0,2.8.5,6,1.5,8.4,2.9,0,0,0,0,.1,0,2.7,1.6,5.2,3.9,6.9,6.5,0,0,0,0,0,.1,2.6,4,3,8.1,3,10.1h0c0,2.3-.4,4.7-1.1,6.7,0,0,0,0,0,0-.9,2.6-2.3,4.6-3,5.6,0,0,0,0,0,.1-1.2,1.5-2.7,3-4.2,4.1,0,0,0,0,0,0-.8.6-1.6,1.1-2.3,1.5-2.6,1.7-5.8,2.8-8.9,3.2,0,0-.1,0-.2,0-.8,0-1.5.1-2.3.1h0Z"/>
  </g>
  <g class="st6">
    <path class="st1" d="M28,46.4c-1.9,0-3.8-.3-5.7-.8h0c-1.4-.4-2.7-.8-4.5-1.7-.2,0-.3-.2-.5-.3-2.9-1.6-8-5.4-9.7-13.2-2.1-10,4.6-19.7,15-21.6,3.6-.7,7.2-.4,10.5.8,5.1,1.1,9.7,4.2,12.4,9,5.1,8.9,1.8,20.1-7.4,25-1.3.7-3,1.5-5.2,2.1,0,0-.1,0-.2,0-1.6.4-3.2.6-4.8.6ZM22.1,45.5c0,0,0,0,.1,0,0,0,0,0-.1,0,0,0,0,0,0,0ZM21.8,45.4s0,0,0,0c0,0,0,0,0,0ZM21.8,45.4s0,0,0,0c0,0,0,0,0,0ZM19.6,11.5s0,0,0,0c0,0,0,0,0,0Z"/>
  </g>
  <g class="st6">
    <path class="st1" d="M28.9,45.7c-1.2,0-2.4-.1-3.6-.3-3.5-.5-7-1.9-9.8-4-.1,0-.3-.2-.4-.3-5.2-4.2-7.8-10.8-6.8-17.3,0-.1,0-.3,0-.4,0-.3.1-.6.2-1.2,2.1-9.7,11.8-16,21.8-14.4,2.7.1,5.4.8,7.9,2.1,9.3,4.7,13,15.8,8.1,24.8h0c-.4.7-.8,1.6-1.4,2.4,0,.1-.1.2-.2.3-3,4.2-7.6,7.1-12.6,7.9,0,0-.2,0-.2,0-1.1.2-2.1.3-3.1.3h0ZM27.7,45.6h0,0Z"/>
  </g>
  <g class="st6">
    <path class="st1" d="M28.1,48.4c-1.8,0-3.6-.3-5.3-.7-1.3-.3-2.5-.6-3.7-1.1-9.5-3.8-14.2-14.1-10.6-23.4,1.3-3.4,3.5-6.2,6.3-8.2.5-.4.9-.7,1.4-1,.4-.3.7-.6,1.1-.9,2.4-2.8,5.7-5,9.5-6,.8-.2,1.5-.4,2.3-.5,5.6-.8,11.3.8,15.5,4.5,5.8,5,6.5,11.4,6.5,14.5.2,1.9,0,3.8-.3,5.7-.6,3.5-2.4,6.9-5,9.5-2.8,3.6-6.8,6.2-11.6,7.1h-.2c-1.3.3-2.6.5-3.9.5-.7,0-1.4.1-2.1.1h0Z"/>
  </g>
  <g class="st6">
    <path class="st1" d="M32.1,45.1c-4.8,0-9.4-1.7-13-4.9-.7-.6-1.3-1.2-1.9-1.9-3.1-3.7-3.9-7.4-4.2-10-.3-1.7-.4-3.4-.3-5.1-.5-7.3,3.5-14.5,10.6-17.9,8.4-3.9,18.4-1.5,23.8,5.7.6.7,1.1,1.5,1.6,2.3,1.2,1.8,2.1,3.9,2.6,6.1.1.5.2,1,.3,1.5,0,.1,0,.2,0,.4.2,1.4.3,2.8.3,4.1,0,.4,0,.9-.1,1.3,0,.4,0,.7-.1,1.1,0,0,0,.1,0,.2h0c-.2,1.4-.5,3.8-2,6.7-.3.5-.5,1-.9,1.4-1.7,2.5-3.9,4.5-6.4,6-1.1.6-2.2,1.1-3.3,1.5-1,.4-2,.7-2.8.9-1.4.3-2.9.5-4.3.5h0Z"/>
  </g>
  <g class="st6">
    <path class="st1" d="M27.2,46c-2,0-5.9-.3-9.7-2.1,0,0,0,0-.1,0-1.2-.6-2.3-1.2-3.4-2-1.3-.9-2.6-1.9-3.8-3.3-.1-.2-.3-.3-.4-.5-2.3-2.7-3.8-6.1-4.2-9.7-.3-2-.3-3.7-.2-4.6,0,0,0-.1,0-.2.2-2.3.8-4.7,1.8-6.8,0,0,0,0,0-.1,1.4-2.8,3.6-5.6,6.2-7.5,0,0,.1,0,.2-.1.7-.5,1.4-1,2.2-1.4.7-.4,1.4-.9,2.2-1.2,0,0,.2,0,.3-.1,3.3-1.6,7.1-2.3,10.8-1.9,0,0,.2,0,.2,0,1.3.1,3.2.4,5.3,1.2,0,0,0,0,0,0,1.7.6,3.5,1.5,5,2.6,0,0,0,0,.1,0,.2.2.4.3.7.5.7.5,1.3,1,2,1.5.1,0,.2.2.3.3,4.1,3.6,6.4,8.8,6.4,14.2v.2c0,1.2-.1,2.5-.4,3.7-.6,4.6-3,8.9-6.9,12-.8.7-1.8,1.4-2.7,2,0,0,0,0,0,0-.5.3-2.5,1.5-4.7,2.3,0,0-.1,0-.2,0-2.7.9-5.2,1.1-6.2,1.2,0,0-.1,0-.2,0-.2,0-.4,0-.6,0h0Z"/>
  </g>
  <g class="st6">
    <path class="st1" d="M24.1,44.5c-10.1,0-18.6-7.7-19-17.6-.5-9.8,7.1-18.2,17.1-19.2,9.7-1.3,19,4.8,21.1,14.2,2.3,9.9-4.1,19.8-14.4,22-.7.2-1.5.3-2.2.4-.6,0-1.1.1-1.8.1-.3,0-.6,0-.9,0Z"/>
  </g>
  <g class="st6">
    <path class="st1" d="M23.7,44.9c-7,0-13.7-3.7-17-10.1C1.9,25.7,5.6,14.6,15,10.1l.9-.4c9.4-4.6,20.9-1,25.6,8.1,4.8,9.1,1,20.1-8.4,24.7l-.9.4c-2.8,1.4-5.7,2-8.6,2Z"/>
  </g>
  <g class="st6">
    <path class="st1" d="M24,44.5c-7.7,0-15-4.6-17.9-11.9-3.7-9.5,1.3-20.1,11.1-23.7l.5-.2c9.9-3.6,20.8,1.2,24.6,10.8,3.7,9.5-1.3,20.1-11.1,23.7l-.5.2c-2.2.8-4.5,1.2-6.7,1.2Z"/>
  </g>
  <g class="st6">
    <path class="st1" d="M23.8,44.6c-7,0-13.8-3.8-17.1-10.3-4.7-9.1-.8-20.1,8.7-24.6l1.1-.5c9.4-4.5,20.9-.7,25.5,8.4,4.7,9.1.8,20.1-8.7,24.6l-1.1.5c-2.7,1.3-5.6,1.9-8.4,1.9h0Z"/>
  </g>
  <g class="st6">
    <path class="st1" d="M23.5,44.9c-6.9,0-13.6-3.7-17-10-4.7-8.9-1.2-19.8,7.9-24.6.3-.1.6-.3.8-.5,9.1-5.1,20.8-2.1,26.1,6.7,5.3,8.8,2.2,20.1-6.9,25.2-1.4.8-1.4.8-1.7.9,0,0-.3.1-.6.3-2.8,1.4-5.7,2-8.7,2h0ZM14.8,10.1s0,0,0,0c0,0,0,0,0,0Z"/>
  </g>
  <g class="st6">
    <path class="st1" d="M24.1,44.5c-.2,0-.4,0-.6,0-.1,0-.2,0-.4,0-3.3-.2-6.5-1.1-9.4-2.9-8.9-5.4-11.6-16.8-6-25.4,2.2-3.4,5.5-5.9,9.1-7.3,9-4.2,19.9-1.1,24.9,7.4,5.2,8.8,2.1,20.1-7.1,25.1-2.1,1.2-5.5,3-10.6,3h0ZM34.1,10.5s0,0,0,0c0,0,0,0,0,0Z"/>
  </g>
  <g class="st6">
    <path class="st1" d="M24.1,44.5c-.8,0-1.7,0-2.6-.2-10.4-1.3-17.8-10.6-16.4-20.7.9-6.3,4.9-11.3,10.3-14,.2-.1.5-.3.6-.3,9.2-5,20.8-1.8,26,7.1,5.1,8.9,1.9,20.1-7.3,25-.2.1-.7.4-1,.5,0,0,0,0,0,0-1.3.7-4.7,2.5-9.6,2.5Z"/>
  </g>
  <g class="st6">
    <path class="st1" d="M23.9,44.7c-.2,0-.3,0-.5,0-10.5-.3-18.8-8.7-18.6-18.9.2-7.2,4.6-13.3,10.9-16.2,8.8-5.1,20.3-2.5,25.9,6,5.6,8.6,3,20-5.9,25.4h-.2c-.2.2-.5.4-.6.5-.1,0-.2.1-.3.2-3.4,2-6.9,2.9-10.6,2.9Z"/>
  </g>
  <g class="st6">
    <path class="st1" d="M23.4,44.7c-6.2,0-12.3-2.9-16-8.3-5.8-8.5-3.3-19.9,5.5-25.5.7-.5,1.8-1.1,3-1.7,0,0,0,0,0,0,.4-.2.9-.4,1.5-.7,9.6-4.1,20.9.1,25.1,9.4,4.2,9.2,0,19.9-9.4,24.1-3.1,1.8-6.5,2.7-9.9,2.7h0ZM33.8,41.7s0,0,0,0c0,0,0,0,0,0Z"/>
  </g>
  <g class="st6">
    <path class="st1" d="M23.2,44.2c-8.2,0-15.7-5.1-18.2-13.1-3.1-9.7,2.6-20,12.7-22.9.3,0,.6-.2.9-.2.5-.1.7-.2,2.7-.6,10.3-2,20.4,4.4,22.5,14.3,2.1,10-4.5,19.7-14.8,21.7-.2,0-.7.1-1,.2-1.6.4-3.1.6-4.7.6h0ZM28.3,43.5h0s0,0,0,0c0,0,0,0,0,0h0ZM28.8,43.4s0,0,0,0c0,0,0,0,0,0Z"/>
  </g>
  <g class="st6">
    <path class="st1" d="M23.8,42c-2.5,0-5-.5-7.4-1.4l-.8-.3c-9.7-3.9-14.3-14.7-10.2-24.1C9.5,6.8,20.6,2.4,30.3,6.3l.8.3c9.7,3.9,14.3,14.7,10.2,24.1-3.1,7-10.1,11.3-17.6,11.3h0Z"/>
  </g>
  <g class="st6">
    <path class="st1" d="M24.4,42.2c-1.9,0-3.9-.3-5.8-.9l-1.3-.4c-.4-.1-.8-.2-1.1-.4-9.3-3.5-14.3-13.5-11.2-22.7C7.9,8.6,17.8,3.2,27.6,5.5c.5.1,1.1.3,1.6.5l1.1.3c10,3.1,15.5,13.5,12.3,23.1-2.6,7.8-10.1,12.8-18.1,12.8h0Z"/>
  </g>
  <g class="st6">
    <path class="st1" d="M25.1,42.3c-.3,0-.6,0-1,0-1.3,0-4.9-.2-8.8-2.2,0,0,0,0-.1,0-6.7-3.5-10.6-10.6-10-18C6.2,11.9,15.4,4.4,25.9,5.2c2.1.2,4.1.7,5.9,1.4,7.6,2.7,12.8,9.9,12.3,18.1-.5,9.8-8.9,17.5-19,17.5h0ZM43.3,25.1h0s0,0,0,0ZM43.3,25.1h0s0,0,0,0ZM26,5.5h0,0Z"/>
  </g>
  <g class="st6">
    <path class="st1" d="M25.9,42.5c-1.8,0-3.5-.2-5.3-.7l-1.6-.4c-10.1-2.8-15.9-13-13-22.8,2.9-9.8,13.5-15.4,23.6-12.6l1.6.4c10.1,2.8,15.9,13,13,22.8-2.4,8.1-10,13.3-18.3,13.3Z"/>
  </g>
  <g class="st6">
    <path class="st1" d="M26,42.4c-1.3,0-2.7-.1-4.1-.4-.6-.1-1.1-.2-1.7-.4,0,0-.1,0-.2,0l-1-.3c-10.2-2.7-16.1-12.8-13.3-22.6,2.8-9.8,13.3-15.6,23.4-12.9l1,.3c10.3,2.2,16.8,11.9,14.6,21.9-1.9,8.6-9.8,14.5-18.6,14.5h0Z"/>
  </g>
  <g class="st6">
    <path class="st1" d="M26.1,42.4c-1.1,0-2.1,0-3.2-.3l-1.9-.3c-10.4-1.7-17.4-11.2-15.6-21.2C7.2,10.6,17,3.9,27.4,5.6l1.9.3c10.4,1.7,17.4,11.2,15.6,21.2-1.6,9-9.6,15.3-18.8,15.3Z"/>
  </g>
  <g class="st6">
    <path class="st1" d="M31.8,42.2c-.7,0-1.4,0-2.3,0-10.5-.8-18.3-9.7-17.5-19.8.8-10,9.9-17.5,20.2-16.9,10.2.1,18.5,7.9,18.8,17.8.3,10.2-7.9,18.6-18.5,19-.1,0-.2,0-.3,0-.1,0-.2,0-.3,0h-.1Z"/>
  </g>
  <g class="st6">
    <path class="st1" d="M32.8,42.3c-.6,0-1.1,0-1.7,0-.2,0-.3,0-.4,0-10.5-.5-18.6-9.2-18.1-19.3.5-10.1,9.5-18,20-17.5,1.2,0,1.4,0,1.9.1.6,0,1.1.1,1.4.2,10.4,1.6,17.4,11.1,15.8,21.1-1.5,9-9.6,15.4-18.8,15.4h0ZM29.7,42.1s0,0,0,0c0,0,0,0,0,0Z"/>
  </g>
  <g class="st6">
    <path class="st1" d="M33.2,42.7c-.2,0-.5,0-.8,0-.5,0-.7,0-1.8-.1-10.5-.9-18.3-9.8-17.4-19.9.9-10.1,10.1-17.6,20.6-16.8,0,0,.2,0,.3,0,10,.4,18.1,8.2,18.3,18,.2,10.2-8.1,18.6-18.7,18.8-.1,0-.3,0-.5,0h0ZM32.9,5.9h0,0Z"/>
  </g>
  <g class="st6">
    <path class="st1" d="M32.7,42.7c-9.2,0-17.2-6.4-18.8-15.4-1.7-10,5.3-19.5,15.7-21.2.7-.1,1.4-.2,2-.3.1,0,.2,0,.4,0h0c10.5-.9,19.7,6.6,20.7,16.7.9,10-6.7,18.9-17,19.9-1,.2-2,.2-3.1.2ZM35.5,42.4h0,0Z"/>
  </g>
  <g class="st6">
    <path class="st1" d="M33.4,42.3c-.7,0-1.4,0-2.2-.1-.1,0-.2,0-.3,0-10.5-.7-18.4-9.5-17.7-19.6.7-10.1,9.8-17.8,20.3-17.1,1.1,0,1.5.1,1.8.1.3,0,.5,0,.7,0,10.4,1.4,17.7,10.7,16.2,20.8-1.3,9.2-9.5,15.8-18.9,15.8h0ZM31.3,42.2s0,0,0,0c0,0,0,0,0,0ZM31.3,42.2h0,0ZM30.7,42.1h0,0Z"/>
  </g>
  <g class="st6">
    <path class="st1" d="M32.1,42.4c-10.2,0-18.6-7.7-19-17.6-.4-9.7,7-18,16.9-19,8.8-1.4,17.7,3.3,20.9,11.7,3.7,9.5-1.3,20.1-11.1,23.7-1.3.5-3.5,1.1-6.1,1.2,0,0-.1,0-.2,0,0,0-.3,0-.4,0h0c-.3,0-.5,0-.8,0h0ZM26.3,6.7s0,0,0,0c0,0,0,0,0,0ZM26.3,6.7s0,0,0,0c0,0,0,0,0,0Z"/>
  </g>
  <g class="st6">
    <path class="st1" d="M31.9,42.4c-10.5,0-19.1-8.2-19.1-18.4S21,5.9,31.2,5.6c8.4-.7,16.5,4.1,19.6,12.1,3.6,9.6-1.5,20.1-11.4,23.6-1,.4-2.1.6-3.2.8-1.6.3-3,.3-4.3.3h0ZM26.4,6.6s0,0,0,0c0,0,0,0,0,0Z"/>
  </g>
  <g class="st6">
    <path class="st1" d="M31.7,42.4c-9.7,0-18-7.1-19-16.7-1-10.1,6.7-19.1,17.2-20.1h.9c10.5-1,19.8,6.4,20.8,16.5,1,10.1-6.7,19.1-17.2,20.1h-.9c-.6.1-1.2.2-1.8.2h0Z"/>
  </g>
  <g class="st6">
    <path class="st1" d="M31.6,42.5c-.4,0-.8,0-1.2,0-10.5-.6-18.6-9.3-18-19.4.5-9.1,7.9-16.3,17-17.3,10-1.6,19.6,4.6,21.8,14.2,2.3,9.9-4.3,19.7-14.5,21.9-1.1.2-1.8.3-2.5.4-.9,0-1.7.1-2.6.1h0ZM29.7,5.8s0,0,0,0c0,0,0,0,0,0ZM32.6,5.7h0,0Z"/>
  </g>
  <g class="st6">
    <path class="st1" d="M31.7,42.5c-10.1,0-18.6-7.7-19-17.5-.5-10.2,7.6-18.8,18.2-19.2.1,0,.4,0,.6,0h.1c10.5-.7,19.6,7,20.3,17.1.7,10.1-7.2,18.9-17.7,19.6h-.2c0,0-.1,0-.2,0-.3,0-.9,0-1.2,0-.3,0-.6,0-.9,0Z"/>
  </g>
  <g class="st6">
    <path class="st1" d="M31.6,42.6c-9.8,0-18.2-7.3-19-17-.8-10.1,7-19,17.5-19.8,0,0,0,0,.1,0,9.8-1.3,19.2,4.9,21.3,14.4,2.2,9.9-4.4,19.7-14.7,21.8-.8.2-1.6.3-2.2.3-.2,0-.5,0-1.6.1-.5,0-1,0-1.5,0ZM28.9,6.1s0,0,0,0c0,0,0,0,0,0ZM28.9,6.1s0,0,0,0c0,0,0,0,0,0Z"/>
  </g>
  <g class="st6">
    <path class="st1" d="M31.6,42.8c-10,0-18.4-7.6-19-17.3-.6-10.1,7.4-18.8,17.9-19.4,9.2-1.1,18.1,4.5,20.6,13.5,2.8,9.8-3.2,19.9-13.4,22.6-.8.2-1.6.4-2.3.5,0,0,0,0,0,0-.8.1-1.4.2-2.6.2-.4,0-.8,0-1.1,0ZM27.8,6.5s0,0,0,0c0,0,0,0,0,0Z"/>
  </g>
  <g class="st6">
    <path class="st1" d="M31.6,42.7c-.3,0-.7,0-1,0-10.5-.5-18.6-9.2-18.1-19.3.5-9,7.6-16.2,16.6-17.3,9.9-2,19.8,3.9,22.3,13.5,2.6,9.9-3.6,19.9-13.9,22.3-.3,0-.6.1-1,.2h0c0,0-.1,0-.2,0-1.2.3-2.9.5-4.8.5h0ZM28.3,6.2s0,0,0,0c0,0,0,0,0,0ZM32.4,5.9h0,0ZM32.4,5.9h0,0Z"/>
  </g>
  <g class="st6">
    <path class="st1" d="M31.6,42.6c-.8,0-1.6,0-2.3-.1-10.5-1.2-17.9-10.3-16.7-20.4,1.1-8.7,8.2-15.3,16.9-16.1,10.1-1.7,19.8,4.6,22,14.4,2.2,9.9-4.4,19.7-14.8,21.8h0c0,0-.1,0-.2,0,0,0-.2,0-.2,0-1.6.3-3.1.5-4.6.5h0ZM33.7,5.9s0,0,0,0c0,0,0,0,0,0ZM33.6,5.9h0,0Z"/>
  </g>
  <g class="st6">
    <path class="st1" d="M31.5,42.6c-.9,0-1.9,0-2.8-.2-10.4-1.4-17.7-10.7-16.2-20.8,1.2-8.5,8.3-14.8,16.7-15.7,8.5-1.4,17.2,2.9,20.8,10.8,4.2,9.3-.3,20.2-9.9,24.2-.9.4-1.8.7-2.8.9-.5.1-.9.2-1.1.2,0,0-.1,0-.2,0-1.6.3-3.1.5-4.6.5h0ZM24.9,7.1s0,0,0,0c0,0,0,0,0,0ZM24.9,7.1s0,0,0,0c0,0,0,0,0,0ZM34,5.9h0,0Z"/>
  </g>
  <g class="st6">
    <path class="st1" d="M31.5,42.6c-9.6,0-17.9-7-18.9-16.5-1.1-10.1,6.5-19.2,16.9-20.2h.9c0,0,0,0,.1-.1h0c.5,0,.7,0,1.1,0,10.5-.7,19.6,6.9,20.3,17.1.7,10-7,18.7-17.4,19.6,0,0-.1,0-.2,0h-.8c-.7.2-1.4.2-2,.2h0ZM34.3,42.4s0,0,0,0c0,0,0,0,0,0ZM34.4,42.4s0,0,0,0c0,0,0,0,0,0Z"/>
  </g>
  <g class="st6">
    <path class="st1" d="M31.7,42.8c-10.2,0-18.7-7.8-19-17.7-.4-10.2,7.8-18.7,18.4-19.1,0,0,0,0,0,0,9.3-1,18.1,4.8,20.5,13.7,2.6,9.8-3.5,19.9-13.7,22.4-1.1.3-2.3.5-3.5.6,0,0,0,0,0,0-.3,0-.6,0-1.9,0-.2,0-.5,0-.7,0h0ZM28.4,6.5h0,0ZM28.4,6.5h0,0ZM28.4,6.5h0,0Z"/>
  </g>
  <g class="st6">
    <path class="st1" d="M32.3,43c-1,0-2.2,0-3.6-.3-10.4-1.7-17.4-11.2-15.6-21.2,1.5-8.7,9.3-15,18.1-15.3,5.5-.5,11.2,1.2,15.4,5.3,5,4.8,6.8,12,4.7,18.5-2.1,6.6-7.8,11.4-14.8,12.6,0,0-.2,0-.3,0-1.8.3-2.8.3-3.2.3,0,0,0,0,0,0-.2,0-.5,0-.7,0h0ZM25.5,7.6c-3.7,1.5-6.7,4.2-8.7,7.5.8-1.3,1.8-2.5,2.9-3.6,1.7-1.7,3.7-2.9,5.8-3.8h0ZM35.1,6.4s0,0,0,0c0,0,0,0,0,0ZM35.1,6.4h0,0Z"/>
  </g>
  <g class="st6">
    <path class="st1" d="M25.4,41.3c-3.6,0-7.2-1-10.4-3-.4-.2-.8-.5-1.3-.8,0,0,0,0,0,0-.7-.5-1.3-1-2-1.5-7.8-6.8-8.5-18.4-1.4-26,6.2-6.7,16.4-8,24.1-3.4.3.2.6.4,1,.6,1.1.7,1.9,1.3,2.3,1.7,8.1,6.5,9.2,18.1,2.4,25.9-3.8,4.4-9.2,6.6-14.6,6.6h0ZM13.2,37.1s0,0,0,0c0,0,0,0,0,0ZM37.1,8.6s0,0,0,0c0,0,0,0,0,0Z"/>
  </g>
  <g class="st6">
    <path class="st1" d="M25.2,40.9c-2,0-4.1-.3-6.1-1-1.3-.4-2.5-.8-4-1.6,0,0-.2-.1-.3-.2-.9-.5-1.8-1.1-2.6-1.7C4,30.1,2.6,18.5,9.2,10.6,14.7,3.9,24.1,1.9,31.9,5.3c9.6,3.4,14.7,13.7,11.4,23.1-2.7,7.7-10.1,12.5-18.1,12.5ZM36,7.7s0,0,0,0c0,0,0,0,0,0Z"/>
  </g>
  <g class="st6">
    <path class="st1" d="M24.8,41.3c-4,0-7.9-1.2-11.4-3.6l-.3-.2C4.8,32.1,2.2,21.3,7.3,12.9,12.6,4.1,24.3,1.1,33.4,6.2c.4.2.9.5,1.4.9,0,0,.1,0,.2.1.2.2.5.3.9.7l.3.2c8.5,6.1,10.2,17.6,3.9,25.7-3.7,4.9-9.5,7.4-15.3,7.4h0ZM14.1,38s0,0,0,0c0,0,0,0,0,0Z"/>
  </g>
  <g class="st6">
    <path class="st1" d="M24.8,41.5c-3.2,0-6.5-.8-9.5-2.5-1-.6-1.8-1.1-2.8-1.8,0,0,0,0,0,0-1.2-.9-2.8-2.4-4.3-4.4C2.3,24.3,4.6,12.8,13.3,7.2c7-4.6,16.1-4,22.4.8,8.1,5.4,10.6,16,5.6,24.3-3.5,5.9-9.9,9.2-16.5,9.2h0ZM39.8,12.2s0,0,0,0c0,0,0,0,0,0ZM39.8,12.1s0,0,0,0c0,0,0,0,0,0ZM39.8,12.1s0,0,0,0c0,0,0,0,0,0ZM39.6,11.9c0,0,0,.1.1.2,0,0,0-.1-.1-.2ZM39.6,11.9s0,0,0,0c0,0,0,0,0,0Z"/>
  </g>
  <g class="st6">
    <path class="st1" d="M24.8,41.5c-3.6,0-7.2-1-10.3-2.9-.5-.3-1-.6-1.5-.9C4.2,32,1.9,20.6,7.7,12.2,13.1,4.4,23.4,1.9,31.9,5.8c2.1.9,3.7,2,4.7,2.8,8.3,6.3,9.7,17.9,3.2,25.8-3.8,4.6-9.3,7-15,7h0ZM13,37.5s0,0,0,0c0,0,0,0,0,0ZM34.1,7.1s0,0,0,0c0,0,0,0,0,0Z"/>
  </g>
  <g class="st6">
    <path class="st1" d="M25,41.3c-1.9,0-3.7-.3-5.6-.8-.5-.1-.9-.3-1.2-.4-2.2-.7-4.1-1.6-5.8-2.9,0,0-.1,0-.2-.1-2.7-2-4.8-4.7-6.1-7.8-4-9.4.7-20.1,10.5-24,4.9-1.9,10.2-1.7,14.7.1,9.6,3.2,15,13.3,12,22.8-2.5,7.9-10.1,13-18.2,13h0ZM41.4,15.5s0,0,0,0c0,0,0,0,0,0ZM41.4,15.5h0s0,0,0,0ZM29.5,5h0,0ZM29.5,5s0,0,0,0c0,0,0,0,0,0Z"/>
  </g>
  <g class="st6">
    <path class="st1" d="M24.7,41.3c-2.7,0-5.4-.5-8-1.7-.6-.3-1.2-.6-1.9-.9-1.5-.8-2.8-1.7-4.1-2.9-7.7-6.9-8.1-18.6-1-26,6.4-6.6,16.5-7.7,24.1-3,8.8,4.6,12.5,15,8.2,23.9-3.2,6.7-10.1,10.7-17.3,10.7h0ZM36.6,8.8s0,0,0,0c0,0,0,0,0,0Z"/>
  </g>
  <g class="st6">
    <path class="st1" d="M25.1,41.6c-3.2,0-6.3-.7-9.2-2.3-1.9-.9-5.4-2.7-8.1-6.6C2,24.4,4.3,12.9,13,7.2c6.1-4,13.7-4.1,19.8-1,1.5.7,3.5,1.7,5.4,3.5,7.7,7,8,18.6.8,26-3.8,3.8-8.8,5.8-13.9,5.8h0ZM12.1,36.6s0,0,0,0c0,0,0,0,0,0ZM12.1,36.6s0,0,0,0c0,0,0,0,0,0ZM12.1,36.6s0,0,0,0h0ZM39.5,12.1s0,0,0,0c0,0,0,0,0,0ZM39.5,12.1s0,0,0,0c0,0,0,0,0,0Z"/>
  </g>
  <g class="st6">
    <path class="st1" d="M23.7,40.1c-10.5,0-19-8.2-19.1-18.3,0-10.2,8.4-18.4,19-18.5h.1c10.5,0,19,8.2,19.1,18.3,0,10.2-8.4,18.4-19,18.5h-.1Z"/>
  </g>
  <g class="st6">
    <path class="st1" d="M23.8,40.1c-4.6,0-9.2-1.6-12.9-4.8-.4-.4-.8-.7-1.1-1-.4-.4-.8-.9-1.2-1.3C1.9,25.1,3.2,13.5,11.4,7.1c7.7-6,18.7-5.3,25.6,1.3,7.5,6.9,8,18.3,1,25.8-3.8,4-8.9,6-14.1,6ZM38.2,9.7s0,0,0,0c0,0,0,0,0,0Z"/>
  </g>
  <g class="st6">
    <path class="st1" d="M24,40.5c-4.9,0-9.8-1.8-13.5-5.4-.7-.6-.9-.9-1.3-1.3-.2-.2-.4-.4-.5-.6C1.9,25.4,3,13.8,11.1,7.3c7.8-6.3,19.4-5.5,26.2,1.7,0,0,.2.2.2.2,7.4,7.2,7.4,18.9-.1,26-3.7,3.6-8.6,5.3-13.4,5.3h0ZM38,9.7s0,0,0,0c0,0,0,0,0,0Z"/>
  </g>
  <g class="st6">
    <path class="st1" d="M24.1,40.5c-5.4,0-10.7-2.2-14.4-6.4-6.6-6.6-7.3-17.1-1.1-24.4C15.2,1.8,27.2.6,35.4,7c.2.2.4.3.6.4,0,0,0,0,0,0,2,1.7,3.4,3.5,4.2,4.7,5.6,8.6,3,20-5.9,25.4-3.2,1.9-6.7,2.9-10.2,2.9h0ZM8,32s0,0,0,0c0,0,0,0,0,0Z"/>
  </g>
  <g class="st6">
    <path class="st1" d="M23.4,40.4c-6.5,0-12.5-3.2-16-8.4-1.4-2.2-4.2-7.4-2.6-14.2,0-.4.2-.7.3-1,.4-1.7,1.1-3.3,2.1-4.9,1.5-2.4,3.6-4.5,6.1-6.1,4-2.5,8.8-3.4,13.2-2.8.3,0,.7,0,1,.1,10.4,1.7,17.4,11.2,15.6,21.2,0,.2,0,.4-.1.6-.7,4-2.8,7.9-6.2,10.8-3.6,3-8,4.5-12.5,4.6-.3,0-.5,0-.8,0h0,0Z"/>
  </g>
  <g class="st6">
    <path class="st1" d="M26.5,46.9c-.8,0-1.6,0-2.4-.1-.1,0-.3,0-.4,0-3.8-.5-7.4-2.2-10.2-4.7-1.3-1-2.5-2.1-3.5-3.4-.2-.2-.3-.4-.4-.6-1.7-2.2-3-4.7-3.5-7.4-1.7-7.6,1.8-15.5,8.7-19.5,4-2.3,8.6-3.2,13-2.5,1.5,0,3.1.2,4.6.5,1.9.4,5.1,1.2,8.4,3.8.1.1.3.2.4.3,2,1.5,3.7,3.5,4.9,5.7,3,5.3,3,11.5.5,16.6,0,.2-.2.4-.3.6-2.6,5.3-7.6,9.1-13.7,10.2-.3,0-.6.1-.9.2-1.6.3-3.1.4-4.5.3-.2,0-.4,0-.7,0h0Z"/>
  </g>
  <g class="st6">
    <path class="st1" d="M27,46.5c-1.5,0-2.8-.1-3.3-.2,0,0,0,0,0,0-.8,0-3.4-.5-5.9-1.6-.1,0-.2,0-.3-.1-.2,0-.3-.2-.5-.2-.5-.2-1-.5-1.4-.7,0,0-.1,0-.2-.1-2.4-1.4-4.7-3.4-6.3-5.5,0,0,0,0,0-.1-2-2.7-3.3-6.1-3.7-9.3,0,0,0-.1,0-.2-.2-2,0-4,0-4.2,0,0,0,0,0-.1.2-1.9.6-3.7.9-4.8,0,0,0,0,0-.1.7-2.2,1.8-4.3,3.2-6.2,0,0,0,0,0,0,1.1-1.4,3.4-4,7-5.9,0,0,.1,0,.2-.1.3-.1.6-.3.9-.4.6-.3,1.3-.6,1.9-.8,0,0,.1,0,.2,0,2-.7,4.2-1.2,6.3-1.4,0,0,0,0,0,0,.4,0,1.7,0,2.9,0,2,0,3.8,0,5.5.5.2,0,.4,0,.6.1,4.2,1.1,7.8,3.5,10.4,6.8,2.1,2.3,3.6,5.1,4.4,8.1.1.4.2.8.3,1.2,0,0,0,.1,0,.2.5,2.6.6,5.4,0,8,0,0,0,.1,0,.2-.7,3.3-2.2,5.8-3,7.1,0,0,0,.1-.1.2-1,1.5-2.3,3-3.7,4.2,0,0,0,0,0,0-.7.7-2.8,2.3-5.4,3.5,0,0,0,0,0,0-1.9.9-4.1,1.5-6.2,1.8,0,0,0,0,0,0,0,0-.1,0-.2,0-1.5.3-2.9.3-4.2.3h0Z"/>
  </g>
  <g class="st6">
    <path class="st1" d="M25.9,46.6h-.1c-1.3,0-3.9-.1-6.7-1,0,0-.2,0-.2,0-2.7-.9-5.4-2.4-7.5-4.3,0,0,0,0-.1-.1-2.4-2.2-3.8-4.5-4.6-6.1,0,0,0-.1,0-.2,0,0,0,0,0,0-1.1-2.3-1.8-4.7-2-7.2,0,0,0-.2,0-.3-.1-2.3.1-4.7.8-6.9,0,0,0-.1,0-.2.9-2.8,2.4-5.1,3.2-6.1,0,0,0,0,0,0,1-1.4,2.4-2.8,3.7-3.9,0,0,0,0,0,0,.4-.3.9-.7,1.5-1.1,1-.7,1.9-1.2,2.5-1.5,0,0,0,0,.1,0,2.9-1.5,6.5-2.4,9.9-2.4h0c1.3,0,4.6,0,8.1,1.2,0,0,0,0,0,0,1.9.6,3.8,1.6,5.4,2.7,0,0,0,0,0,0,1.1.8,3.3,2.5,5.1,4.9,0,0,0,0,0,0,2.3,3.1,3.6,7,3.6,10.9,0,.1,0,.2,0,.3,0,2.5-.5,5.1-1.5,7.4,0,0,0,.1,0,.2-1.2,2.9-3.1,5.1-4,6.1,0,0,0,0-.1.1-1.2,1.3-2.5,2.3-3.4,2.9-2.2,1.7-4.9,3.1-7.5,3.8,0,0-.1,0-.2,0-2,.6-4.2.9-6.2.9h0,0Z"/>
  </g>
  <g class="st6">
    <path class="st1" d="M25.2,46.1c-3,0-5.9-.7-8.6-1.9-.3-.1-.5-.2-.8-.4-2.6-1.3-4.8-3-6.6-5.2-.1-.2-.3-.3-.4-.5-4-5.2-4.7-11.9-2.3-17.7,1.3-4.2,4.2-7.9,8.2-10.4.1,0,.2-.1.4-.2,1.8-1,3.7-1.8,5.9-2.3,9.1-3,19.2,1.1,23.4,9.7.1.2.2.4.3.6.7,1.4,1.4,3,1.7,4.9,0,.1,0,.3,0,.4.3,1.8,1,8.1-3,13.9-.1.2-.3.4-.4.6-2.6,3.5-6,5.5-8.9,6.6-.6.3-1.3.5-1.9.7-.1,0-.3,0-.4.1-.8.2-1.5.4-2.2.5-1.3.3-2.6.4-4,.5-.1,0-.3,0-.4,0Z"/>
  </g>
  <g class="st6">
    <path class="st1" d="M24.2,46.1c-1.6,0-3.3-.2-5-.6-10.2-2.6-16.2-12.7-13.5-22.6.6-2.2,1.7-4.4,3.2-6.6,0,0,0-.1.1-.2,1.8-2.5,4.2-4.5,7-6,9.2-4.9,20.8-1.7,25.9,7.1,4,7,2.8,15.4-2.3,21.1-3.5,4.8-9.3,7.7-15.5,7.7h0ZM34.7,42.4s0,0,0,0c0,0,0,0,0,0ZM42.6,32.5h0s0,0,0,0ZM42.6,32.5s0,0,0,0c0,0,0,0,0,0ZM42.6,32.5s0,0,0,0c0,0,0,0,0,0Z"/>
  </g>
  <g class="st6">
    <path class="st1" d="M24.2,45.5c-3.4,0-6.8-.9-9.9-2.7-9-5.3-11.8-16.6-6.4-25.3.9-1.4,1.9-2.7,3.1-3.8,0,0,0,0,0,0,.2-.2.5-.5,1-.9h0c7.6-7.1,19.6-7,27,.3,7.3,7.2,7.2,18.7-.2,25.8-3.7,4.3-9.1,6.7-14.7,6.7ZM38.2,39.5h0s0,0,0,0ZM40.5,36.7s0,0,0,0c0,0,0,0,0,0Z"/>
  </g>
  <g class="st6">
    <path class="st1" d="M26.1,44.3h-.2c0,0-.2,0-.3,0-2.4,0-5.9-.5-9.5-2.5-.2-.1-.5-.3-.7-.4-1.9-1.1-3.5-2.5-4.9-4.2-2.4-2.9-4-6.3-4.4-10,0,0,0-.1,0-.2-.2-2.5,0-4.6.4-6.2.1-.9.3-2,.6-3.1,0,0,0-.1,0-.2.6-2.2,1.8-4.5,3.1-6.4.6-.8,1.3-1.7,2.1-2.6,0,0,0-.1.1-.2,2-2,4.5-3.8,7.2-4.9,0,0,0,0,.1,0,3.7-1.5,7.3-1.7,9.2-1.7h0c1.6,0,4.8.2,8,1.4,0,0,0,0,.1,0,3,1.1,5.8,2.9,8,5.2,0,0,.1.1.2.2,2.4,2.5,4.1,5.8,4.9,9.1,0,0,0,.1,0,.2.5,2.1.5,4.1.5,5.5,0,3.1-.7,6.1-2.1,8.8,0,.1-.1.2-.2.3-2.2,3.9-5.6,6.5-7.4,7.7,0,0,0,0,0,0-.8.5-2.5,1.5-4.7,2.3-1.8.7-3.8,1.2-5.8,1.4-1.4.3-2.9.5-4.3.5h0Z"/>
  </g>
  <g class="st6">
    <path class="st1" d="M27.3,46.8c-1.2,0-2.4,0-3.5-.3,0,0-.2,0-.2,0-1.5-.3-4.6-1-7.6-2.8,0,0,0,0-.1,0-2.3-1.4-4.3-3.3-5.9-5.5-.8-1.1-1.5-2.2-2.1-3.4,0,0,0-.2-.1-.3-1.8-3.7-1.9-7.4-1.9-9.2,0,0,0-.1,0-.2.1-2.4.8-5.1,1.7-7.3,0,0,0,0,0-.1.4-.9.9-1.8,1.5-2.7.9-1.5,2.2-3.4,4-5.1,0,0,.1-.1.2-.2,2.2-2,4.9-3.5,7.8-4.4,1.3-.5,2.7-.8,4-1,0,0,0,0,.1,0,3.2-.5,7-.2,10.1.7,0,0,0,0,.1,0,2.9.9,5.7,2.4,7.9,4.3,0,0,.1.1.2.2,2.6,2.3,4.6,5.4,5.7,8.6,0,0,0,0,0,0,1.1,2.8,1.6,5.9,1.3,8.9,0,0,0,.1,0,.2-.3,2.9-1.3,5.9-2.9,8.5,0,0,0,.1-.1.2-1.2,1.9-2.6,3.3-3.7,4.3-.8.8-1.5,1.4-1.8,1.6,0,0,0,0,0,0-.8.7-3.9,2.9-7.9,4.1,0,0,0,0-.1,0-2,.6-4.3.9-6.6.9h0Z"/>
  </g>
  <g class="st6">
    <path class="st1" d="M27.4,45.7c-.1,0-.2,0-.3,0,0,0,0,0,0,0,0,0,0,0-.2,0-1.8,0-3.6-.3-5.2-.7,0,0-.2,0-.3,0-2.4-.7-4.8-1.8-6.8-3.3-1.6-1.1-3.1-2.3-4.3-3.7,0,0-.1-.1-.2-.2-2.3-2.7-3.8-6.1-4.4-9.5,0,0,0-.1,0-.2-.4-2.4-.3-5.1.3-7.4,0,0,0,0,0-.1.5-2.2,1.5-4.4,2.7-6.4,2-3.4,5-6.2,8.5-7.9,0,0,.2,0,.3-.1,2.8-1.3,6-2.1,9.2-2.1h0c.7,0,1.8,0,2.7.1,1.3.1,2.6.4,3.7.7.9.2,1.8.5,2.7.8,2.5.9,4.8,2.2,6.8,3.9,0,0,.1.1.2.2,1.3,1.1,2.4,2.4,3.3,3.8.5.7.9,1.5,1.3,2.2,0,0,0,.1.1.2,1.4,2.9,2.1,6.2,2,9.4,0,0,0,.2,0,.3-.2,3-1.1,6-2.5,8.6,0,0,0,.1-.1.2-2,3.3-4.7,5.7-5.9,6.5,0,0,0,0,0,0-1.2.9-4.3,3-8.3,4,0,0,0,0-.1,0-2.2.5-4.2.6-5.3.6Z"/>
  </g>
  <g class="st6">
    <path class="st1" d="M26.7,45.7c-1.5,0-3-.1-4.4-.4,0,0-.1,0-.2,0-3.4-.7-6.6-2.2-9.2-4.3,0,0-.2-.1-.2-.2-3.1-2.6-5.4-6.2-6.4-10,0,0,0-.2,0-.2-.1-.5-.2-1-.3-1.5-.2-.9-.3-1.9-.4-2.8,0,0,0-.1,0-.2,0-1.2,0-3.7.8-6.5,0,0,0-.1,0-.2,0-.3.2-.6.3-.9.1-.5.3-.9.5-1.4,0,0,0-.2.1-.3,1.2-3,3.3-5.8,5.8-7.9,0,0,0,0,.1-.1,1.8-1.5,4.1-2.8,6.4-3.7,0,0,.1,0,.2,0,2.8-1,6.1-1.5,9.1-1.3,0,0,0,0,0,0,1.4,0,4.1.4,7,1.5,0,0,.1,0,.2,0,1.9.8,3.8,1.9,5.4,3.2.9.6,1.7,1.3,2.5,2.1,0,0,.1.1.2.2,1.4,1.4,3.9,4.4,5.1,8.7,0,0,0,.1,0,.2,1,4,.5,7.5.1,9.2,0,0,0,.2,0,.2-.7,2.9-2.2,5.7-4.1,8.1,0,0,0,0,0,.1-2.2,2.6-4.9,4.3-5.7,4.8,0,0,0,0,0,0-.9.5-4.1,2.4-8,3.1,0,0,0,0-.1,0-1.4.3-3,.4-4.5.4h0Z"/>
  </g>
  <g class="st6">
    <path class="st1" d="M27.2,45.6c-1.7,0-3.4-.2-4.9-.5,0,0-.2,0-.2,0-3.4-.8-6.7-2.5-9.3-4.8,0,0-.1-.1-.2-.2-2.3-2.1-4.2-4.9-5.3-7.7,0,0,0-.1,0-.2-.3-.9-.6-1.8-.8-2.6,0-.4-.2-.8-.2-1.2,0,0,0-.2,0-.3-.3-2.3-.2-5,.3-7.4,0,0,0-.1,0-.2,0-.2,0-.3.1-.5,0-.3.1-.6.2-.8,0,0,0,0,0-.1.5-1.8,1.4-3.8,2.5-5.4,0,0,0-.1.1-.2,1-1.5,3.2-4.5,6.9-6.6,0,0,.2,0,.2-.1.4-.2.8-.4,1.2-.6.3-.2.6-.3,1-.5,0,0,.1,0,.2,0,3.6-1.5,7-1.7,8.7-1.7,0,0,.1,0,.2,0,.8,0,2,0,3.4.3.4,0,.9.1,1.4.2.3,0,.5,0,.8.2,0,0,.1,0,.2,0,1.5.3,3.9,1.1,6.5,2.6,2.1,1.2,3.9,2.8,5.3,4.7.7.7,1.3,1.6,1.9,2.5,0,0,0,.1.1.2,2.4,3.9,3.3,8.7,2.5,13.1,0,.1,0,.2,0,.3-.7,3.4-2.2,6.6-4.6,9.2,0,0,0,0-.1.1-2,2.2-4.3,3.8-5.3,4.4-3.3,2.5-7.3,3.7-11.3,3.8-.5,0-1,0-1.5,0h0Z"/>
  </g>
  <g class="st6">
    <path class="st1" d="M25,36.2c-.2,0-.4,0-.6,0,0,0,0,0,0,0-.6,0-1.4-.2-2.3-.5,0,0,0,0,0,0-.7-.2-1.3-.5-1.7-.6,0,0,0,0,0,0-.6-.2-1.1-.5-1.5-.9-.6-.5-1-.9-1.6-1.5,0,0,0,0,0,0-.3-.4-.6-.7-.8-1.2,0,0,0,0,0,0,0,0,0-.1-.1-.2,0,0,0-.1-.1-.2-.2-.3-.3-.5-.4-.6,0,0,0,0,0,0-.1-.2-.3-.7-.4-1-.2-.5-.3-.9-.4-1.2,0,0,0,0,0,0-.2-1-.2-1.4-.2-1.5h0c0-.2,0-.8,0-1.3,0-.1,0-.2,0-.4,0-.8,0-1.2,0-1.3,0-1.1.7-2,1.7-2.4.6-.4,1.4-.6,2.2-.4,1.3.3,2.2,1.4,2.2,2.7,0,.3,0,.5-.1.9,0,.3-.2.9-.2,1.3,0,0,0,0,0,.1v.2s0,0,0,.1c0,.2,0,.3,0,.5,0,0,0,.2,0,.3,0,.2,0,.4.1.5.1.2.4.6.5.7.3.4.5.8.5,1.2.2.2.4.3.6.5,0,0,0,0,0,0,.3.1.7.3,1.2.4.7.2,1.1.2,1.2.3.4,0,1.8,0,2.5,0,.6,0,.9,0,1.1,0h0c1.5,0,2.8,1.2,2.8,2.7,0,1.5-1.2,2.7-2.8,2.7h0c-.1,0-.5,0-.8,0-1.3,0-2.1,0-2.6,0h0Z"/>
  </g>
  <g class="st6">
    <path class="st1" d="M25.8,36.6h-.2c-.9,0-1.6,0-2.4-.3,0,0,0,0,0,0-.2,0-.3,0-.5-.1-.7-.2-1.3-.3-1.8-.5-.1,0-.2-.1-.5-.3-.1,0-.3-.2-.4-.2,0,0,0,0,0,0-.8-.5-1.9-1.5-1.9-1.6-.3-.3-1.3-1.5-1.4-1.8,0,0,0,0,0,0-.2-.3-.9-1.9-.9-1.9,0-.1-.5-1.3-.6-2.1,0,0,0,0,0,0,0-.4,0-1,0-1.8,0-.2,0-.3,0-.5.3-1.5,1.8-2.4,3.3-2.1,1.1.2,2.3,1.2,2.2,2.8,0,.5,0,.7,0,.8,0,.2.2.8.3,1,0,.2.3.8.5,1.1.2.2.5.6.6.8.2.2.7.6.8.7.1,0,.3.2.4.2,0,0,0,0,0,0,.2,0,.4,0,.6.1.2,0,.4,0,.6.1.4,0,.7.1,1.2.1.5,0,1.5,0,1.8,0,.1,0,1-.1,1.4-.1h.3s0,0,.1,0c1.5-.1,2.9.9,3.1,2.4.2,1.5-1,2.8-2.5,2.9h0s0,0,0,0h-.3c-.9.1-1.4.2-1.6.2-.5,0-1.6,0-2.2,0h0ZM17.3,28.6h0,0ZM15,26.1c0,.2,0,.4.1.6,0-.2,0-.4-.1-.6Z"/>
  </g>
  <g class="st6">
    <path class="st1" d="M18.2,30c0,0-.1,0-.2,0-.4,0-1.4-.2-2.1-1.1-.4-.4-.7-.9-.8-1.5h0c0-.3-.1-.5-.1-.7,0,0,0,0,0,0,0-.4,0-1.7-.1-2.2h0c0-.8,0-1.7.2-2.3,0,0,0,0,0,0,.1-.4.5-1.6.9-2.3,0,0,0,0,0,0v-.2c.4-.5.6-.9.9-1.3,0,0,0,0,0,0,.4-.7.9-1.2,1.3-1.6,0,0,0,0,0,0,.6-.6,1.2-1.1,1.8-1.5.3-.2.8-.4,1.4-.6.2,0,.4-.1,1.6-.4h.2c0,0,0,0,0,0h0c1.5-.3,3,.6,3.3,2.1.3,1.5-.6,2.9-2.1,3.2,0,0,0,0,0,0h-.2c-.3,0-.9.2-1.2.3-.1,0-.3.2-.6.5-.3.3-.6.6-.8.9-.2.3-.3.5-.6.9v.2c-.2.1-.3.4-.4.6,0,.2,0,.5,0,.7h0c0,.3,0,.7,0,1.1.4.7.5,1.5.2,2.3,0,.1,0,.3,0,.4,0,.7-.3,1.5-.9,2-.5.5-1.2.8-1.9.8h0Z"/>
  </g>
  <g class="st6">
    <path class="st1" d="M26.5,43c-.7,0-1.4,0-2.2-.2-1.9-.1-3.7-.6-5.5-1.5,0,0,0,0,0,0-1.5-.7-3.4-2.1-4.4-3,0,0,0,0,0,0-.7-.6-1.6-1.5-2.4-2.6,0,0,0,0,0,0-.6-.8-1.1-1.7-1.5-2.6-.5-.9-.9-1.8-1.2-2.7,0,0,0,0,0,0,0,0-.4-1.2-.6-2.3,0,0,0,0,0,0-.2-1-.2-2.1-.2-3,0-.6,0-1.2,0-1.8,0-.1,0-.3,0-.3,0,0,0,0,0,0,.1-1.9.7-3.5,1-4.3,0,0,0,0,0-.1.2-.6.6-1.5,1.1-2.3,0,0,0,0,0,0,1.1-2,2.5-3.4,3.3-4,0,0,.1-.1.2-.2.1-.1.3-.2.5-.4,0,0,.2-.1.3-.2,0,0,0,0,0,0,.2-.1.4-.3.5-.4.3-.3.7-.5,1.1-.8,5.5-3.7,13-2.7,17.3,2.3,2.3,2.6,3.2,5.8,3,9,1.3,1.6,2.3,3.5,2.6,5.7,0,.4.1.8.2,1.2.2.9.3,1.8.2,2.8-.2,6.2-5,11.4-11.4,12.1-.6,0-1.1,0-1.7,0h0Z"/>
  </g>
  <g class="st6">
    <path class="st1" d="M23.9,40c-.2,0-.4,0-.6,0,0,0-.1,0-.2,0-1,0-2-.2-2.9-.5-3.6-.3-6.8-2.1-8.9-4.7-1.6-1.6-2.8-3.6-3.4-5.9-.6-2.6-.4-5.3-.3-5.9,0-.3.4-3.1,1.4-5.4,0,0,0,0,0-.1.2-.5.5-1,.7-1.4.2-.5.5-.9.7-1.3,0,0,0,0,0,0,1.5-2.5,3.6-4.2,4.3-4.7,0,0,0,0,0,0,0,0,.2-.2.4-.3.6-.4,1.2-.9,2-1.3,0,0,0,0,0,0,1-.5,2-.9,2.7-1.2,0,0,.1,0,.2,0,1.9-.6,3.9-.9,5.9-.7,6,.5,10.8,4.9,11.7,10.6.3,2,.1,4-.5,5.8.2.6.4,1.2.5,1.8,1.4,6.8-3.1,13.4-10.1,14.8-1.1.2-2.3.4-3.6.4h0Z"/>
  </g>
  <g class="st6">
    <path class="st1" d="M21.8,41.4c-4.7,0-9-2.4-11.3-6.3-.1-.2-.3-.4-.4-.7-.8-1.2-1.3-2.3-1.7-3.5,0,0,0,0,0,0-.7-2-.7-3.9-.7-5.5,0,0,0,0,0-.1,0-1.1.2-2,.4-2.8.1-.6.3-1.3.6-2,1.2-3.1,3.6-5.5,6.5-6.9,1.3-.7,2.9-1.3,4.6-1.5,4.6-.6,9.2,1.2,12,4.7.3.4.6.9.9,1.3.6.9,1.3,2.4,1.6,4.3,2,3.6,2.1,8,0,11.9-1.1,1.9-2.5,3.4-4.2,4.5-1.3.9-2.6,1.6-4.1,2-.6.2-1.3.4-2,.5-.8.1-1.5.2-2.3.2h0Z"/>
  </g>
  <path class="st0" d="M11.9,35.1c3,0,5.5-2.2,5.5-5s-2.5-5-5.5-5-5.5,2.2-5.5,5,2.5,5,5.5,5Z"/>
  <path class="st0" d="M41.1,36.2c3,0,5.5-2.2,5.5-5s-2.5-5-5.5-5-5.5,2.2-5.5,5,2.5,5,5.5,5Z"/>
  <path class="st2" d="M23.6,20.6c0,4.3-3.6,7.8-8.1,7.8s-8.1-3.5-8.1-7.8,3.6-7.8,8.1-7.8,8.1,3.5,8.1,7.8Z"/>
  <path class="st3" d="M23.6,20.6c0,4.3-3.6,7.8-8.1,7.8s-8.1-3.5-8.1-7.8,3.6-7.8,8.1-7.8,8.1,3.5,8.1,7.8Z"/>
  <path class="st8" d="M20.7,20.2c0,2.9-2.4,5.3-5.3,5.3s-5.3-2.4-5.3-5.3,2.4-5.3,5.3-5.3,5.3,2.4,5.3,5.3Z"/>
  <path class="st3" d="M20.7,20.2c0,2.9-2.4,5.3-5.3,5.3s-5.3-2.4-5.3-5.3,2.4-5.3,5.3-5.3,5.3,2.4,5.3,5.3Z"/>
  <path class="st2" d="M45.4,20.5c0,4.3-3.6,7.8-8.1,7.8s-8.1-3.5-8.1-7.8,3.6-7.8,8.1-7.8,8.1,3.5,8.1,7.8Z"/>
  <path class="st3" d="M45.4,20.5c0,4.3-3.6,7.8-8.1,7.8s-8.1-3.5-8.1-7.8,3.6-7.8,8.1-7.8,8.1,3.5,8.1,7.8Z"/>
  <path class="st8" d="M42.6,20.2c0,2.9-2.4,5.3-5.3,5.3s-5.3-2.4-5.3-5.3,2.4-5.3,5.3-5.3,5.3,2.4,5.3,5.3Z"/>
  <path class="st3" d="M42.6,20.2c0,2.9-2.4,5.3-5.3,5.3s-5.3-2.4-5.3-5.3,2.4-5.3,5.3-5.3,5.3,2.4,5.3,5.3Z"/>
  <g class="st9">
    <path class="st8" d="M21.1,34.6c0-.1,0-.2.1-.3-.1.3,0,0,0,0,0-.2.2-.4.3-.6.2-.4.5-.9.8-1.3-.2.3,0,0,0,0,0,0,.1-.2.2-.3.1-.1.3-.3.4-.4.2-.2.3-.3.5-.5.3-.2-.2.1,0,0,.1,0,.2-.2.4-.2,0,0,.2-.1.3-.2.3-.2-.2,0,.1,0,.2,0,.4-.1.7-.2.1,0,.2,0,.3,0-.3,0,0,0,.1,0,.2,0,.5,0,.7,0,.5,0,1,0,1.4,0,.2,0,.5,0,.7,0,0,0,.4,0,0,0,.1,0,.3,0,.4,0,0,0,.4.2,0,0,0,0,.2.1.3.2-.2-.2,0,0,0,0,0,0,.1.1.2.2.2.2.3.3.5.5,0,0,.3.3,0,0,0,.1.2.2.3.4.3.4.5.8.7,1.2.2.3,0-.3,0,0,0,.1,0,.2.1.3,0,.2.1.4.2.7,0,.1,0,.2,0,.3,0,.3,0,0,0-.2l.2-.4c.2-.1.2-.1,0,0,.3-.2,0,0,0,0-.1,0-.2,0-.3,0,0,0-.5,0-.2,0-.3,0-.6,0-.9,0-1.1,0-2.1,0-3.2,0s-2.4,0-3.6,0h-1.9c-.3,0-.6,0-.9,0,0,0-.4,0,0,0-.1,0-.1,0,0,0,.1.1.2.1,0,0-.5-.6-1.5-.5-1.9,0-.5.6-.5,1.4,0,2,.5.6,1.2.7,1.9.7.7,0,1.3,0,2,0,1.3,0,2.5,0,3.8,0,1.3,0,2.5,0,3.8,0,1.3,0,3.2-.1,3.7-1.7.2-.7,0-1.4-.2-2-.2-.6-.4-1.2-.7-1.8-.5-1-1.2-2-2.1-2.7-.6-.5-1.2-.8-1.9-.9-.6,0-1.3-.2-1.9-.2-1.2,0-2.4,0-3.5.3-2.6.9-4.4,3.5-5.3,6-.2.7.3,1.5,1,1.7.8.2,1.4-.2,1.7-1Z"/>
  </g>
  <g class="st5">
    <path class="st8" d="M11.3,13.7c3.4,1.6,7.4,0,10-2.5.6-.6.7-1.6.1-2.2-.6-.6-1.5-.7-2.1-.1-.3.3-.6.6-.9.8,0,0-.2.1-.2.2-.2.1.3-.2,0,0-.2.1-.3.2-.5.3-.3.2-.6.4-1,.5,0,0-.2,0-.3.1-.3.1.2,0,0,0-.2,0-.4.1-.5.2-.3,0-.7.2-1,.2-.3,0,.2,0,0,0,0,0-.2,0-.3,0-.2,0-.4,0-.5,0-.2,0-.4,0-.5,0-.2,0,0,0,0,0,0,0-.2,0-.3,0-.3,0-.7-.2-1-.4-.7-.3-1.7.2-1.9,1-.2.9.2,1.6.9,2Z"/>
  </g>
  <g class="st7">
    <path class="st8" d="M41.9,13.7c-3.4,1.6-7.4,0-10-2.5-.6-.6-.7-1.6-.1-2.2.6-.6,1.5-.7,2.1-.1.3.3.6.6.9.8,0,0,.2.1.2.2.2.1-.3-.2,0,0,.2.1.3.2.5.3.3.2.6.4,1,.5,0,0,.2,0,.3.1.3.1-.2,0,0,0,.2,0,.4.1.5.2.3,0,.7.2,1,.2.3,0-.2,0,0,0,0,0,.2,0,.3,0,.2,0,.4,0,.5,0,.2,0,.4,0,.5,0,.2,0,0,0,0,0,0,0,.2,0,.3,0,.3,0,.7-.2,1-.4.7-.3,1.7.2,1.9,1,.2.9-.2,1.6-.9,2Z"/>
  </g>
</svg>