<svg width="362" height="374" viewBox="0 0 362 374" fill="none" xmlns="http://www.w3.org/2000/svg">
<circle opacity="0.75" cx="24.5" cy="24.5" r="24.5" transform="matrix(-1 0 0 1 212 92)" fill="#5267EE"/>
<circle cx="18" cy="18" r="18" transform="matrix(-1 0 0 1 345 321)" fill="#5267EE"/>
<ellipse cx="34" cy="33.5" rx="34" ry="33.5" transform="matrix(-1 0 0 1 114 272)" fill="#C06DFF"/>
<circle opacity="0.6" cx="25.5" cy="25.5" r="25.5" transform="matrix(-1 0 0 1 100 90)" fill="#593C6F"/>
<circle opacity="0.95" cx="15.5" cy="15.5" r="15.5" transform="matrix(-1 0 0 1 151 170)" fill="#FFEA4B"/>
<circle opacity="0.55" cx="15.5" cy="15.5" r="15.5" transform="matrix(-1 0 0 1 49 20)" fill="#3A3827"/>
<circle cx="22" cy="22" r="22" transform="matrix(-1 0 0 1 256 231)" fill="#C06DFF"/>
</svg>
