<svg width="204" height="202" viewBox="0 0 204 202" fill="none" xmlns="http://www.w3.org/2000/svg">
<g clip-path="url(#clip0_662_5113)">
<g opacity="0.55">
<path d="M99.5096 175.501C74.7963 175.501 50.9298 162.071 38.7084 138.608L36.4736 134.322C18.9708 100.721 31.9739 59.2716 65.5213 41.736C99.0686 24.2055 140.453 37.2292 157.961 70.8298L160.195 75.1158C177.698 108.716 164.695 150.166 131.148 167.702C121.026 172.992 110.188 175.501 99.5096 175.501Z" fill="#FF6D6D"/>
</g>
<g opacity="0.55">
<path d="M99.7847 201.403C98.1863 201.403 96.5778 201.368 95.0044 201.282C94.9192 201.282 94.8391 201.272 94.7539 201.267C84.4867 200.67 72.3005 198.126 62.9553 194.612C62.815 194.557 62.6747 194.507 62.5344 194.452C59.9488 193.458 56.8421 192.073 53.54 190.351C51.3653 189.428 49.2808 188.439 47.3316 187.405C47.031 187.245 46.7353 187.084 46.4397 186.924C29.5132 177.584 19.7571 163.431 14.5509 153.208C14.4858 153.077 14.4206 152.947 14.3555 152.816C13.8644 151.832 9.47495 142.939 7.06976 133.489C7.04471 133.384 7.01465 133.278 6.98959 133.173C6.38829 130.769 5.91227 128.289 5.52644 125.83C3.82777 118.859 2.70535 111.723 2.27943 106.724C2.27442 106.639 2.2644 106.558 2.25939 106.473C1.93369 102.458 1.41256 91.9085 3.63736 80.7619C3.64738 80.7016 3.66242 80.6464 3.67244 80.5862C4.25369 75.713 5.61663 68.4659 7.83642 61.816C7.90156 61.6153 7.97171 61.4196 8.03685 61.2238C10.2667 54.7245 15.4679 42.2579 25.2039 31.7637C25.3993 31.5529 25.5997 31.3421 25.7952 31.1314C31.1868 25.4652 37.5705 20.6422 45.3072 16.3862C53.986 11.6134 62.0333 8.77279 70.6319 7.46289C71.2783 7.36252 71.9246 7.2772 72.571 7.1969C72.7464 7.17682 72.9218 7.15173 73.0972 7.13165C80.0271 4.64235 87.4832 3.2371 95.255 3.12167L96.2722 3.10661C101.473 3.03133 107.08 3.0765 112.973 3.86946C113.134 3.88954 113.289 3.91463 113.449 3.93471C125.024 5.58086 137.261 10.2031 147.017 16.6121C147.227 16.7526 147.438 16.8931 147.648 17.0337C156.086 22.7099 163.607 30.489 167.832 35.8741C167.922 35.9845 168.007 36.0999 168.097 36.2103C174.185 44.0697 178.665 53.4297 179.161 54.4686C179.201 54.5589 179.246 54.6442 179.286 54.7346C183.936 64.7018 187.293 77.048 188.346 87.9738C190.24 95.507 191.793 104.747 191.808 113.529C191.808 113.66 191.808 113.785 191.808 113.916C191.773 121.615 190.631 130.237 188.661 137.569C188.596 137.81 188.531 138.046 188.466 138.287C186.667 144.706 182.223 157.208 172.622 168.831C172.406 169.087 172.196 169.348 171.975 169.599C166.063 176.545 158.411 182.964 150.429 187.666C150.319 187.732 150.208 187.797 150.098 187.857C145.794 190.361 140.332 192.996 135.492 194.903C135.366 194.954 135.241 195.004 135.111 195.049C128.507 197.609 120.65 199.611 113.559 200.545C113.489 200.555 113.419 200.565 113.344 200.575C110.082 200.996 105.001 201.393 99.7847 201.393V201.403Z" fill="#FF6D6D"/>
</g>
<g opacity="0.55">
<path d="M100.286 198.944C98.0564 198.944 95.9018 198.863 93.8574 198.703C93.7271 198.693 93.5968 198.683 93.4666 198.673C93.2511 198.653 92.9254 198.627 92.5045 198.582C90.9211 198.552 89.483 198.482 88.2553 198.392C88.12 198.382 87.9797 198.371 87.8444 198.361C80.9646 197.819 72.3109 196.133 65.8019 194.055C65.6415 194.005 65.4762 193.95 65.3158 193.9C59.5484 192.013 48.3192 187.596 37.8967 179.185C37.6963 179.024 37.4958 178.859 37.3004 178.698C27.9703 170.994 21.7719 161.82 18.2243 155.501C13.4139 149.173 9.64075 142.016 7.15038 134.257C6.89984 133.479 6.66433 132.701 6.44385 131.913C1.87901 115.773 3.76307 94.96 4.38441 89.4142C4.02864 83.2863 4.38441 76.5963 5.74234 69.3442C8.29785 55.7183 14.8169 43.5428 24.0769 34.0523C34.0835 23.2268 47.2068 16.0299 61.3924 13.2897C66.1176 11.1166 71.1434 9.25461 75.8786 7.94471C75.9889 7.9146 76.0991 7.88449 76.2093 7.85437C83.951 5.75653 93.2561 4.57713 101.088 4.70761C101.213 4.70761 101.334 4.70761 101.459 4.71263C113.374 4.97361 128.632 8.22074 139.426 12.7928C139.576 12.8581 139.726 12.9183 139.872 12.9835C147.889 16.4465 156.643 22.0424 163.282 27.9445C163.498 28.1352 163.713 28.3309 163.929 28.5266C169.771 33.8566 175.549 40.8126 179.783 47.608C179.808 47.6431 179.828 47.6832 179.853 47.7184C182.313 51.6832 185.455 57.6555 187.324 61.9114C187.374 62.0269 187.429 62.1473 187.479 62.2627C189.313 66.5086 193.798 77.7155 195.737 89.9563C195.752 90.0616 195.767 90.162 195.787 90.2674C197.666 102.498 197.045 117.414 194.159 129.198C194.129 129.328 194.094 129.459 194.064 129.584C192.6 135.406 189.92 142.744 187.234 148.279C187.154 148.445 187.073 148.61 186.988 148.781C181.206 160.44 173.148 168.982 169.952 172.108C169.811 172.244 169.671 172.379 169.531 172.515C161.493 180.254 152.449 185.408 148.931 187.265C148.841 187.31 148.751 187.36 148.661 187.405C141.545 191.124 133.854 193.704 133.002 193.985C132.897 194.02 132.791 194.055 132.681 194.09C123.276 197.147 110.969 198.944 100.286 198.944Z" fill="#FF6D6D"/>
</g>
<g opacity="0.55">
<path d="M96.5582 202C94.8345 202 93.191 201.955 91.6977 201.865C85.0835 201.453 76.054 199.827 69.7404 197.91C69.3997 197.804 69.0589 197.699 68.7232 197.594C48.3793 191.054 35.8924 176.881 29.4084 167.205C25.5401 162.171 22.2229 156.56 18.8306 149.363C18.7905 149.278 18.7504 149.188 18.7103 149.102C13.6745 139.938 10.1268 129.755 8.34797 122.518C8.32793 122.443 8.3129 122.367 8.29285 122.297C7.75169 120.069 7.22054 117.414 6.74451 114.498C3.9084 105.71 3.56766 98.5985 3.38727 94.8546V94.7692C3.35721 94.2372 3.33215 93.7002 3.31712 93.1682C3.01647 82.8296 4.9757 72.4558 9.14469 62.333C10.8383 58.2226 12.8176 54.3331 15.0675 50.6945C16.0245 48.7472 17.0467 46.8853 18.1391 45.0835C18.2744 44.8627 18.4097 44.6368 18.55 44.416C23.4255 36.5918 30.2001 29.3347 38.6784 22.8454C38.7936 22.7551 38.9139 22.6647 39.0291 22.5794C50.9749 13.5607 65.842 8.06515 75.7684 5.92716C75.9237 5.89203 76.0791 5.86192 76.2344 5.82678C84.387 4.13044 93.0607 3.78415 102.762 4.75779C103.042 4.7879 103.318 4.81801 103.598 4.84813C106.865 5.21952 115.359 6.36379 123.597 9.04381C123.792 9.10905 123.992 9.1743 124.188 9.23954C126.227 9.92209 128.372 10.7502 130.542 11.6787C130.662 11.7188 130.777 11.759 130.897 11.7991C131.038 11.8493 131.183 11.8945 131.323 11.9447C141.169 15.3323 150.875 20.8881 158.652 27.5831C158.858 27.7588 159.058 27.9344 159.258 28.1101C159.334 28.1803 167.045 35.0058 172.692 42.534C172.758 42.6193 172.823 42.7096 172.888 42.795C177.217 48.6268 185.43 62.5689 189.038 75.1559C189.098 75.3717 189.158 75.5825 189.218 75.7983C192.465 87.5673 192.48 98.729 192.335 102.98C192.33 103.141 192.325 103.301 192.315 103.467C192.174 106.869 191.794 110.322 191.278 113.61C191.217 119.366 190.671 124.009 190.33 126.352C190.295 126.578 190.265 126.804 190.23 127.03C189.444 132.124 185.936 149.93 173.965 165.117C173.75 165.393 173.529 165.664 173.309 165.94C167.181 173.478 160.226 178.798 155.465 181.935C155.34 182.015 155.22 182.096 155.094 182.176C154.874 182.321 154.649 182.467 154.423 182.608C152.739 183.792 151.076 184.886 149.437 185.945C142.848 190.201 139.481 191.897 138.213 192.54C138.108 192.595 138.003 192.645 137.892 192.7C130.211 196.52 120.981 199.491 112.568 200.851C112.442 200.871 112.322 200.891 112.197 200.911C107.632 201.624 101.754 202.025 96.5683 202.025L96.5582 202Z" fill="#FF6D6D"/>
</g>
<g opacity="0.55">
<path d="M94.1927 195.988C90.6801 195.988 86.907 195.782 82.9985 195.25C82.7179 195.21 82.4373 195.169 82.1567 195.129C68.5123 193.102 55.1284 187.32 44.4754 178.843C44.3051 178.708 44.1397 178.577 43.9744 178.442C40.7875 175.857 37.9614 173.122 35.4911 170.442C32.1188 167.586 28.7816 164.264 25.6949 160.42C25.4945 160.169 25.2941 159.918 25.0936 159.662C18.4543 151.16 13.9947 141.017 13.1679 139.07C13.1228 138.964 13.0777 138.854 13.0326 138.749C9.11417 129.384 6.1127 118.297 5.01032 109.098C4.99529 108.982 4.98527 108.867 4.97024 108.751C3.64237 97.1431 5.10052 84.9475 6.76411 76.7167C7.37542 73.1133 8.25232 69.3141 9.51003 65.5299C9.57016 65.3493 9.63029 65.1636 9.69543 64.9829C12.4664 56.8676 16.6705 49.3595 22.5532 42.0321C22.8889 41.6155 23.2246 41.204 23.5653 40.7975C26.9627 36.7624 30.5855 33.3246 34.1582 30.4137C36.6385 28.2506 39.189 26.2732 41.7997 24.5016C41.9199 24.4213 42.0402 24.341 42.1605 24.2607C46.5449 21.3247 53.3496 17.6209 55.4541 16.5719C55.5794 16.5067 55.7047 16.4465 55.8299 16.3863C63.7019 12.5068 73.6333 9.38006 82.3972 8.01998C82.5676 7.99489 82.738 7.96979 82.9083 7.9447C87.1575 7.31736 95.0094 6.69503 99.9351 6.77533C100.01 6.77533 100.085 6.77533 100.161 6.77533C112.818 7.00619 123.611 10.3537 128.913 12.3311C129.118 12.4064 129.318 12.4867 129.524 12.562C139.616 16.4264 147.493 20.9132 154.327 26.6747C154.558 26.8654 154.783 27.0611 155.009 27.2569C162.806 34.0121 168.613 42.2278 171.379 46.5239C171.62 46.9003 171.86 47.2767 172.096 47.6581C174.195 50.1725 176.119 52.7572 177.778 55.3017C177.818 55.3619 177.858 55.4222 177.898 55.4824C181.551 61.1285 185.344 68.8423 187.559 75.1308C187.599 75.2513 187.644 75.3717 187.684 75.4922C190.069 82.3779 191.608 90.3226 192.204 95.0302C192.234 95.2711 192.264 95.517 192.294 95.7579C193.652 107.532 192.019 118.302 190.405 125.268C190.37 125.414 190.34 125.559 190.305 125.7C187.975 135.491 182.799 149.684 171.364 161.714C171.249 161.835 171.139 161.95 171.023 162.071C165.978 167.305 159.624 172.575 145.042 181.273C144.942 181.333 144.837 181.393 144.737 181.453C134.88 187.26 122.834 192.008 112.512 194.146C112.387 194.171 112.262 194.196 112.136 194.221C108.343 194.984 101.904 195.988 94.1877 195.988H94.1927Z" fill="#FF6D6D"/>
</g>
<g opacity="0.55">
<path d="M89.4572 193.177C82.2015 193.177 64.6838 192.008 48.2082 181.98C47.8174 181.744 47.4316 181.503 47.0457 181.257C38.4271 175.777 32.2588 169.233 27.8193 163.471C23.054 158.091 19.817 153.233 18.5994 151.311C18.5242 151.195 18.449 151.075 18.3739 150.954C12.9422 142.267 8.15684 130.458 5.82181 122.608C5.81179 122.568 5.79675 122.533 5.78673 122.493C3.48176 114.684 0.961325 101.439 0.881152 90.8144C0.881152 90.709 0.881152 90.6036 0.881152 90.4932C0.846076 79.0153 3.9628 60.5112 10.8927 47.0107C14.7711 39.4625 23.1542 27.7387 34.0577 19.4176C34.2381 19.2821 34.4135 19.1466 34.5939 19.0111C41.4436 13.8919 54.2262 6.9259 67.7203 4.12041C67.9859 4.06521 68.2565 4.01 68.522 3.95981C81.1894 1.48556 93.4408 2.83561 98.1209 3.5282C98.2061 3.53824 98.2913 3.55329 98.3764 3.56835C103.317 4.32116 108.784 5.6411 111.284 6.27346C120.79 7.94972 128.622 11.0614 131.097 12.1153C131.217 12.1655 131.333 12.2157 131.453 12.2659C137.02 14.6698 145.458 19.2319 152.438 24.8328C152.573 24.9432 152.709 25.0536 152.849 25.1641C155.044 26.9558 157.153 28.8478 159.193 30.8604C162.82 34.0623 166.518 37.7812 169.916 41.9819C169.971 42.0522 170.026 42.1224 170.086 42.1927C177.041 50.8701 183.926 63.7081 187.223 74.1421C187.263 74.2676 187.303 74.3981 187.343 74.5235C188.33 77.7105 191.542 89.1081 191.422 101.861C191.422 102.066 191.422 102.272 191.412 102.473C191.267 110.649 189.889 119.216 187.434 127.246C187.358 127.486 187.283 127.727 187.208 127.963C186.381 130.568 185.289 133.549 183.871 136.736C182.678 139.602 181.355 142.357 179.922 144.937C179.792 145.168 179.662 145.403 179.526 145.634C172.987 157.082 163.141 167.295 151.812 174.402C151.626 174.517 151.441 174.633 151.255 174.748C148.374 176.515 145.037 178.347 141.304 180.209C137.325 182.447 134.414 183.827 133.653 184.183C133.577 184.219 133.507 184.249 133.432 184.284C122.774 189.182 112.848 191.034 106.399 191.727C106.203 191.747 106.008 191.767 105.812 191.787C105.777 191.787 104.555 191.907 102.611 192.033C98.657 192.67 94.4981 193.112 90.4092 193.172C90.2539 193.172 90.0986 193.172 89.9382 193.177C89.7829 193.177 89.6226 193.177 89.4522 193.177H89.4572Z" fill="#FF6D6D"/>
</g>
<g opacity="0.55">
<path d="M95.9065 195.691C94.1276 195.691 92.4089 195.641 90.7704 195.536C90.6501 195.526 90.5299 195.521 90.4096 195.511C88.3351 195.37 84.8376 195.039 80.5734 194.271C78.6693 193.95 76.8153 193.558 74.9813 193.092C70.6019 192.023 65.8065 190.507 61.0914 188.354C60.7306 188.188 60.3748 188.023 60.014 187.852C57.5187 186.658 55.1586 185.358 52.9438 183.983C50.263 182.778 47.5121 181.388 44.9015 179.802C44.7561 179.712 44.6058 179.621 44.4605 179.531C30.8361 171.105 22.1424 159.19 18.254 152.992C12.8674 145.253 9.23954 136.846 8.528 135.15C8.44783 134.964 8.37267 134.774 8.2975 134.588C4.45923 125.178 1.63313 114.147 0.540774 104.325C0.530753 104.22 0.51572 104.114 0.505699 104.004C-0.531538 94.2423 -0.115642 78.8999 3.16143 66.6391C3.20151 66.4835 3.24661 66.3279 3.2867 66.1723C5.59668 57.7659 9.7807 48.421 14.4808 41.1689C14.6161 40.9631 14.7514 40.7523 14.8867 40.5466C23.7458 27.1967 35.6014 18.9308 41.8799 15.1918C42.1004 15.0613 42.3209 14.9308 42.5414 14.8003C48.409 11.3926 58.8966 6.64987 69.1337 4.49682C69.3091 4.46169 69.4845 4.42656 69.6548 4.39143C76.0987 3.09157 82.3121 2.76535 87.6988 2.90086C97.6101 1.61104 106.078 2.30864 109.872 2.77037C110.052 2.79045 110.237 2.81554 110.418 2.84063C121.136 4.23083 130.606 7.87947 133.257 8.96352C133.412 9.02876 133.568 9.09401 133.723 9.15423C139.35 11.508 145.529 14.8455 150.67 18.3034C150.755 18.3637 150.845 18.4189 150.93 18.4791C156.026 21.942 160.511 25.8366 164.299 29.5956C167.336 32.11 170.412 35.041 173.394 38.4638C173.549 38.6445 173.704 38.8201 173.86 39.0008C181.311 47.7384 188.737 61.6404 191.407 68.2802C191.493 68.491 191.578 68.7068 191.658 68.9176C197.015 82.6339 198.433 98.0766 195.657 112.4C195.612 112.631 195.566 112.867 195.516 113.098C195.06 115.326 192.72 125.855 187.319 136.47C185.705 141.905 183.31 148.174 179.772 154.186C179.592 154.497 179.407 154.804 179.216 155.115C169.084 171.737 154.107 180.831 148.134 183.973C148.024 184.028 147.914 184.088 147.808 184.143C143.985 186.126 137.892 188.881 132.25 190.658C132.034 190.728 131.814 190.793 131.598 190.858C128.031 191.942 122.704 193.323 113.063 194.372C107.281 195.225 101.328 195.691 95.9015 195.691H95.9065Z" fill="#FF6D6D"/>
</g>
<g opacity="0.55">
<path d="M98.0359 191.23C97.8655 191.23 97.6901 191.23 97.5198 191.23C97.2692 191.23 97.0187 191.23 96.7681 191.22C93.5963 191.165 90.5046 190.888 87.5984 190.492C78.7292 189.629 71.5237 187.456 67.495 186.01C67.4248 185.985 67.3547 185.96 67.2845 185.935C57.4784 182.377 48.95 177.498 41.9349 171.436C41.8046 171.325 41.6743 171.21 41.544 171.095C33.8625 164.359 28.2103 156.194 25.5245 151.923C25.4443 151.797 25.3691 151.672 25.289 151.546C20.8744 144.435 17.1013 135.833 14.9316 127.953C14.9266 127.928 14.9166 127.908 14.9116 127.883C14.3003 126.061 13.7441 124.214 13.273 122.377C13.233 122.212 13.1879 122.046 13.1478 121.876C11.0032 113.233 10.1814 103.025 10.8929 93.8658C10.9079 93.6701 10.923 93.4794 10.943 93.2837C11.8049 83.3415 14.7262 68.6566 23.7657 55.1562C23.896 54.9604 24.0262 54.7647 24.1615 54.569C30.8259 44.8276 40.0558 36.1501 50.1526 30.1376C50.2829 30.0573 50.4182 29.9821 50.5484 29.9018C50.6336 29.8516 59.3374 24.8328 67.6654 21.8968C67.7756 21.8567 67.8909 21.8165 68.0011 21.7814C80.3678 17.4954 92.3235 17.0186 96.8934 17.0086C96.9836 17.0086 97.0738 17.0086 97.164 17.0086C107.351 17.0337 123.195 19.3724 135.632 24.5468C135.757 24.5969 135.882 24.6521 136.008 24.7023C143.805 27.9997 152.624 33.4049 159.027 38.805C159.163 38.9205 159.303 39.0359 159.438 39.1564C167.641 46.1876 175.097 55.8638 179.897 65.7056C180.003 65.9164 180.103 66.1322 180.208 66.348C184.472 75.3316 187.253 85.7204 188.04 95.6074C188.055 95.8232 188.075 96.044 188.09 96.2598C188.436 101.213 188.747 114.237 184.182 128.169C184.127 128.345 184.066 128.52 184.006 128.696C182.383 133.514 178.073 144.44 169.475 155.075C161.538 165.9 151.967 172.921 146.255 176.495C146.079 176.605 145.904 176.716 145.724 176.821C142.742 178.653 135.316 182.808 128.547 185.438C128.346 185.518 128.146 185.594 127.94 185.669C123.496 187.35 111.76 191.22 98.0258 191.22L98.0359 191.23Z" fill="#FF6D6D"/>
</g>
<g opacity="0.55">
<path d="M104.305 199.907C97.4097 199.907 90.2242 199.144 83.9306 197.699C83.8003 197.669 83.6701 197.639 83.5398 197.609C79.0651 196.55 74.4602 195.054 70.1359 193.443C67.2296 192.781 64.4185 191.998 61.858 191.134C61.6125 191.054 61.372 190.969 61.1264 190.883C46.8206 185.86 36.4632 177.122 32.6751 173.604C32.4295 173.373 32.184 173.142 31.9385 172.906C23.6506 164.972 18.3041 156.063 15.8538 151.461C15.7636 151.285 15.6684 151.115 15.5782 150.939C12.2009 144.465 9.64038 137.113 8.36764 132.39C8.29749 132.119 8.22232 131.853 8.15718 131.582C5.9374 122.935 5.4313 114.066 5.33109 111.552C5.33109 111.452 5.32107 111.346 5.32107 111.246C4.98534 101.951 6.43848 86.3979 10.4321 74.2074C10.4772 74.0618 10.5273 73.9163 10.5774 73.7707C12.3963 68.3455 15.032 62.6793 18.1237 57.4246C18.3642 56.9127 18.6097 56.4058 18.8603 55.904C18.9905 55.643 19.1258 55.382 19.2611 55.121C26.602 40.9029 37.5706 31.3522 41.9451 27.9043C42.0453 27.824 42.1505 27.7437 42.2507 27.6634C43.1126 26.9959 44.0847 26.2732 45.152 25.5204C47.3718 23.7337 49.1456 22.464 50.1227 21.7864C50.2379 21.7061 50.3582 21.6258 50.4735 21.5455C55.3991 18.188 60.9761 15.3072 64.7843 13.4804C64.8946 13.4252 65.0048 13.375 65.12 13.3198C77.1811 7.61848 91.1111 4.87824 104.33 5.60094C104.58 5.616 104.831 5.63105 105.081 5.64611C116.015 6.36881 127.805 9.6561 137.431 14.6648C137.641 14.7752 137.852 14.8856 138.062 14.9961C144.672 18.5242 152.448 24.2607 157.875 29.6107C157.99 29.7261 158.111 29.8415 158.226 29.957C162.961 34.6897 167.506 41.0334 171.269 46.9706C177.046 53.8613 181.296 60.7621 183.811 65.274C183.831 65.3091 183.851 65.3442 183.871 65.3844C188.446 73.6202 194.043 87.221 196.037 100.696C196.052 100.817 196.072 100.932 196.088 101.053C197.055 107.818 197.26 115.968 196.639 122.854C196.624 123.045 196.604 123.241 196.584 123.431C196.072 128.606 193.517 146.733 182.042 162.738C181.857 162.999 181.666 163.26 181.476 163.516C170.698 178.121 155.139 186.542 146.821 190.261C146.716 190.306 146.611 190.357 146.506 190.402C137.797 194.246 122.734 198.366 113.61 199.405C113.474 199.42 113.339 199.435 113.204 199.45C110.368 199.757 107.366 199.907 104.31 199.907H104.305Z" fill="#FF6D6D"/>
</g>
<g opacity="0.55">
<path d="M120.514 193.92C111.159 193.92 101.759 192.113 92.7996 188.444C86.6714 185.935 80.914 182.603 75.6777 178.547C74.0993 177.323 72.576 176.038 71.1178 174.703C65.6611 171.059 60.6002 166.688 56.0704 161.639C55.7297 161.263 55.3939 160.881 55.0632 160.495C53.7253 158.939 52.4526 157.368 51.245 155.767C37.1145 139.501 30.41 117.303 34.2884 95.0352C34.6893 91.0604 35.4559 86.674 36.8139 81.9865C37.0844 81.0479 37.3751 80.1144 37.6857 79.186C40.6972 70.1472 45.3322 61.9215 51.2751 54.84C56.5113 41.8263 65.4256 30.4538 77.1208 22.2281C94.4281 10.0626 116.14 5.97736 136.669 11.0312C163.627 17.666 176.961 36.6119 181.341 42.8351C184.512 47.347 187.639 52.4209 190.38 57.51C190.48 57.6906 190.576 57.8713 190.671 58.057C192.169 60.8976 193.487 63.7884 194.629 66.7194C202.827 84.265 203.468 100.009 201.344 112.516C200.993 119.878 199.57 127.11 197.15 133.986C195.666 139.662 193.597 144.997 190.916 150.076C190.601 150.673 190.28 151.265 189.949 151.853C183.455 163.371 175.303 170.718 168.924 175.827C167.696 176.811 166.413 177.805 165.211 178.703C164.399 179.31 163.652 179.852 162.926 180.369C150.228 189.323 135.432 193.915 120.519 193.915L120.514 193.92Z" fill="#FF6D6D"/>
</g>
<g opacity="0.55">
<path d="M118.866 194.136C100.201 194.136 81.6057 187.024 67.4101 172.992C58.7765 164.455 52.6733 154.257 49.1657 143.366C25.2291 112.059 30.29 67.151 60.9912 42.0171C77.4818 28.5166 98.0813 23.4125 117.628 26.1879C120.094 26.0122 122.569 25.9621 125.054 26.0323C126.944 26.0875 128.833 26.218 130.717 26.4238C147.803 28.2657 163.603 36.0397 175.468 48.1751C189.669 61.274 198.383 79.713 199.104 99.4567C200.362 108.501 199.951 117.896 197.666 127.205C196.724 131.05 195.451 134.869 193.893 138.553C193.763 138.859 193.632 139.165 193.497 139.471C193.302 139.913 193.101 140.355 192.901 140.796C190.185 147.697 185.981 156.053 179.662 163.677C179.587 163.772 179.507 163.862 179.432 163.958C175.779 168.324 171.695 172.239 165.346 177.463C151.782 188.625 135.302 194.136 118.876 194.136H118.866ZM55.6848 76.4206C55.6848 76.4206 55.6748 76.4357 55.6698 76.4457C55.6698 76.4357 55.6798 76.4307 55.6848 76.4206Z" fill="#FF6D6D"/>
</g>
<g opacity="0.55">
<path d="M93.9225 154.221C65.5413 154.221 38.528 137.599 26.6073 109.825C24.3725 104.621 22.7891 99.3012 21.817 93.9562C19.0811 83.9237 18.4397 73.1635 20.2987 62.2978C26.3918 26.5844 57.4939 0.938503 93.1909 1.30989C106.465 0.0401452 119.157 1.87701 129.008 5.1392C129.559 5.31988 130.106 5.51059 130.652 5.70632C137.967 8.3211 144.782 12.0551 150.91 16.7978C158.151 22.4037 164.139 29.169 168.729 36.7022C179.713 53.3193 183.942 74.3278 178.69 95.1707C171.304 124.47 147.268 145.163 119.257 149.664C110.934 152.751 102.366 154.221 93.9225 154.221Z" fill="#FF6D6D"/>
</g>
<g opacity="0.55">
<path d="M101.328 156.62C72.1956 156.62 44.6462 139.09 33.2416 110.317C32.7606 109.098 31.5079 105.921 30.3554 102.769C27.4441 94.8093 18.58 70.5888 31.5129 42.7347C32.1442 41.3746 32.8157 40.0346 33.5272 38.7197C44.1251 19.1415 62.7753 5.50557 84.7026 1.30989C106.8 -2.91591 130.311 3.212 147.603 17.7062C152.253 21.6007 156.432 26.0624 160.356 31.3321C171.66 46.5138 176.22 64.6466 174.556 82.1269C175.002 111.713 157.424 139.853 128.337 151.421C119.473 154.944 110.328 156.615 101.333 156.615L101.328 156.62ZM42.9425 119.035C42.9425 119.035 42.9626 119.06 42.9726 119.075C42.9626 119.06 42.9525 119.05 42.9425 119.035Z" fill="#FF6D6D"/>
</g>
<g opacity="0.55">
<path d="M127.91 187.365C105.081 187.365 83.3743 176.695 69.3691 158.021C67.6304 155.702 66.0369 153.298 64.5938 150.814C47.3416 128.505 43.819 97.2133 58.1349 70.8348C63.6969 60.5864 71.3484 52.1901 80.2626 45.9016C87.0272 40.2304 94.8942 35.7235 103.613 32.7374C126.036 25.0587 150.178 28.8478 168.874 41.746C172.912 44.3759 176.716 47.4072 180.228 50.83C194.158 64.4007 202.09 82.7192 202.566 101.946C205.853 128.199 195.206 155.24 173.373 171.867C172.487 172.545 171.58 173.202 170.663 173.835C167.481 176.038 164.164 177.965 160.746 179.611C154.112 182.934 146.956 185.257 139.495 186.447C135.627 187.064 131.754 187.365 127.915 187.365H127.91ZM57.6388 99.537L117.162 106.659L120.95 104.972L120.63 103.231L57.7791 98.724C57.729 98.995 57.6839 99.266 57.6338 99.537H57.6388ZM58.1048 97.0778L120.595 103.025L120.429 102.122L84.7272 55.0909C70.5867 65.8612 61.4721 80.8371 58.1048 97.0778ZM95.4955 48.2805C92.7345 49.7058 90.0437 51.3168 87.4431 53.1185L120.144 100.551L109.571 43.0208C104.645 44.3056 99.935 46.0772 95.5005 48.2805H95.4955Z" fill="#FF6D6D"/>
</g>
<g opacity="0.55">
<path d="M125.74 185.87C102.57 185.87 79.7813 174.884 65.5506 154.387C48.138 129.308 48.5188 97.1481 64.0022 72.9276C65.4604 70.1422 67.1189 67.412 68.9729 64.7671C82.8679 44.943 104.289 33.1087 127.74 32.3007C150.584 31.5078 172.817 41.6456 187.228 59.407C196.383 70.6942 201.86 84.1094 203.508 99.2861C205.097 113.926 202.852 127.742 196.834 140.355C191.232 152.098 182.748 161.88 172.476 169.012C170.898 170.271 169.234 171.516 167.485 172.731C154.743 181.604 140.172 185.865 125.74 185.865V185.87ZM188.841 149.067C188.841 149.067 188.816 149.102 188.806 149.122C188.816 149.107 188.831 149.087 188.841 149.067Z" fill="#FF6D6D"/>
</g>
<path d="M42.7425 151.5C54.5456 151.5 64.1139 142.587 64.1139 131.591C64.1139 120.596 54.5456 111.683 42.7425 111.683C30.9394 111.683 21.3711 120.596 21.3711 131.591C21.3711 142.587 30.9394 151.5 42.7425 151.5Z" fill="#FF5555" fill-opacity="0.66"/>
<path d="M154.456 154.413C166.26 154.413 175.828 145.5 175.828 134.505C175.828 123.51 166.26 114.596 154.456 114.596C142.653 114.596 133.085 123.51 133.085 134.505C133.085 145.5 142.653 154.413 154.456 154.413Z" fill="#FF5555" fill-opacity="0.66"/>
<ellipse cx="54.4003" cy="90.5337" rx="35.5692" ry="34.0155" fill="white"/>
<ellipse cx="54.1174" cy="90.5376" rx="23.9201" ry="21.785" fill="#2E2C2C"/>
<ellipse cx="147.805" cy="90.5372" rx="33.8868" ry="33.6677" fill="white"/>
<ellipse cx="147.805" cy="90.5376" rx="21.9268" ry="21.785" fill="#2E2C2C"/>
<g clip-path="url(#clip1_662_5113)">
<path d="M80.6985 68.5269C66.7268 65.3064 53.0041 61.0673 39.6182 55.8396C36.0447 54.4465 33.2035 50.7317 34.5069 46.6274C35.6346 43.0624 39.6768 39.9018 43.5139 41.3997C56.8997 46.6274 70.6225 50.8665 84.5942 54.087C88.3287 54.9558 90.8917 59.5844 89.7054 63.2992C88.4312 67.3136 84.7113 69.4556 80.6985 68.5269Z" fill="#1D1D1B"/>
</g>
<g clip-path="url(#clip2_662_5113)">
<path d="M128.479 130.815C116.76 121.072 99.5726 119.274 84.7689 123.825C80.429 125.159 76.2405 127.009 72.3512 129.21C70.5377 130.235 69.8572 132.696 71.103 134.305C72.3489 135.915 74.7733 136.495 76.7141 135.399C78.2571 134.525 79.8431 133.709 81.4731 132.972C81.6888 132.875 81.9127 132.777 82.1284 132.68C82.0725 132.704 81.5682 132.909 81.9924 132.737C82.3767 132.581 82.7688 132.418 83.153 132.262C84.0419 131.909 84.94 131.585 85.8551 131.275C87.557 130.705 89.2947 130.214 91.0522 129.811C91.8746 129.623 92.6982 129.465 93.5302 129.313C94.3622 129.161 93.6836 129.285 93.5302 129.313C93.7646 129.274 94.0074 129.242 94.2421 129.211C94.7197 129.147 95.1972 129.083 95.6753 129.035C97.4657 128.837 99.2603 128.742 101.059 128.751C101.832 128.756 102.606 128.777 103.382 128.827C103.594 128.84 103.83 128.838 104.043 128.874C103.904 128.857 103.168 128.791 103.953 128.87C104.394 128.918 104.836 128.96 105.269 129.016C106.913 129.222 108.545 129.525 110.148 129.918C110.896 130.101 111.637 130.308 112.37 130.529C112.576 130.594 112.791 130.659 112.997 130.725C112.857 130.679 112.229 130.453 112.939 130.705C113.352 130.85 113.757 131.004 114.162 131.157C115.882 131.825 117.542 132.614 119.117 133.524C119.484 133.738 119.851 133.959 120.218 134.18C119.517 133.751 120.486 134.368 120.704 134.514C121.491 135.058 122.239 135.64 122.972 136.252C124.515 137.554 127.265 137.546 128.692 136.021C130.119 134.495 130.147 132.2 128.479 130.815Z" fill="#2A2A2A"/>
<path d="M128.479 130.815C116.76 121.072 99.5726 119.274 84.7689 123.825C80.429 125.159 76.2405 127.009 72.3512 129.21C70.5377 130.235 69.8572 132.696 71.103 134.305C72.3489 135.915 74.7733 136.495 76.7141 135.399C78.2571 134.525 79.8431 133.709 81.4731 132.972C81.6888 132.875 81.9127 132.777 82.1284 132.68C82.0725 132.704 81.5682 132.909 81.9924 132.737C82.3767 132.581 82.7688 132.418 83.153 132.262C84.0419 131.909 84.94 131.585 85.8551 131.275C87.557 130.705 89.2947 130.214 91.0522 129.811C91.8746 129.623 92.6982 129.465 93.5302 129.313C94.3622 129.161 93.6836 129.285 93.5302 129.313C93.7646 129.274 94.0074 129.242 94.2421 129.211C94.7197 129.147 95.1972 129.083 95.6753 129.035C97.4657 128.837 99.2603 128.742 101.059 128.751C101.832 128.756 102.606 128.777 103.382 128.827C103.594 128.84 103.83 128.838 104.043 128.874C103.904 128.857 103.168 128.791 103.953 128.87C104.394 128.918 104.836 128.96 105.269 129.016C106.913 129.222 108.545 129.525 110.148 129.918C110.896 130.101 111.637 130.308 112.37 130.529C112.576 130.594 112.791 130.659 112.997 130.725C112.857 130.679 112.229 130.453 112.939 130.705C113.352 130.85 113.757 131.004 114.162 131.157C115.882 131.825 117.542 132.614 119.117 133.524C119.484 133.738 119.851 133.959 120.218 134.18C119.517 133.751 120.486 134.368 120.704 134.514C121.491 135.058 122.239 135.64 122.972 136.252C124.515 137.554 127.265 137.546 128.692 136.021C130.119 134.495 130.147 132.2 128.479 130.815Z" fill="black" fill-opacity="0.2"/>
</g>
<g clip-path="url(#clip3_662_5113)">
<path d="M121.899 68.8651C136.253 66.1747 150.394 62.4493 164.23 57.7156C167.923 56.4544 170.962 52.8276 169.794 48.6453C168.785 45.0126 164.792 41.6721 160.825 43.0284C146.989 47.7621 132.849 51.4875 118.495 54.1779C114.657 54.9051 111.867 59.4626 112.93 63.2483C114.071 67.339 117.776 69.6416 121.899 68.8651Z" fill="#1D1D1B"/>
</g>
</g>
<defs>
<clipPath id="clip0_662_5113">
<rect width="204" height="202" fill="white"/>
</clipPath>
<clipPath id="clip1_662_5113">
<rect width="55.8136" height="27.7264" fill="white" transform="matrix(-1 0 0 1 89.998 41.026)"/>
</clipPath>
<clipPath id="clip2_662_5113">
<rect width="59.1943" height="16.8037" fill="white" transform="matrix(-0.999185 0.0403658 -0.040892 -0.999164 129.897 137.034)"/>
</clipPath>
<clipPath id="clip3_662_5113">
<rect width="56.883" height="27.9271" fill="white" transform="matrix(0.999251 0.0386957 -0.0387176 0.99925 113.5 40.8187)"/>
</clipPath>
</defs>
</svg>
