<svg width="231" height="225" viewBox="0 0 231 225" fill="none" xmlns="http://www.w3.org/2000/svg">
<g opacity="0.55">
<path d="M99.7116 176.63C123.352 176.63 146.649 165.714 161.536 145.174L169.331 134.425C193.936 100.48 186.23 53.1105 152.12 28.6244C118.006 4.1331 70.412 11.8025 45.8072 45.747L38.012 56.4966C13.4072 90.4411 21.1138 137.811 55.2229 162.297C68.6977 171.968 84.2776 176.625 99.7116 176.625V176.63Z" fill="#FFEA4B"/>
</g>
<g opacity="0.55">
<path d="M97.0646 193.41C98.5183 193.41 99.9773 193.369 101.452 193.286C143.445 190.911 175.553 155.115 173.166 113.325L172.77 106.402C170.389 64.612 134.415 32.6587 92.4218 35.0337C50.4291 37.4087 18.3209 73.2044 20.7074 114.995L21.1034 121.917C23.4013 162.24 56.9841 193.41 97.0646 193.41Z" fill="#FFEA4B"/>
</g>
<g opacity="0.55">
<path d="M116.839 174.182C117.808 174.182 118.96 174.177 120.445 174.162H120.513C128.85 174.099 137.067 172.668 145.081 169.883C148.39 168.914 151.771 167.68 155.164 166.124C155.763 165.849 156.362 165.564 156.951 165.274C185.271 153.725 203.112 125.329 200.741 94.7399C199.887 83.7051 196.469 73.3496 191.055 64.2853C189.726 61.1428 188.236 58.073 186.662 55.2676C186.547 55.0602 186.428 54.8528 186.308 54.6454C182.155 47.4115 172.739 33.9136 156.362 24.7663C156.31 24.7352 156.253 24.7041 156.201 24.6782C153.35 23.0966 150.813 21.9298 147.639 20.5609C132.513 14.0375 116.344 13.2078 101.556 17.1228C93.7923 18.4866 85.9346 21.095 78.1082 24.9063C77.5871 25.1604 77.0661 25.4249 76.545 25.6893C76.2949 25.819 75.9249 26.0057 75.5029 26.2131C71.053 27.5976 64.8627 30.0089 58.1982 34.3077C57.7762 34.5825 57.3541 34.8574 56.9373 35.1374C40.9405 45.9492 29.9512 63.0667 26.7935 82.1028C23.5942 101.372 28.5651 121.399 40.4351 137.043C40.8832 137.629 41.3365 138.215 41.8002 138.786C48.8294 147.472 58.1513 154.565 58.5473 154.866C58.6724 154.959 58.7922 155.053 58.9173 155.146C67.171 161.312 75.8207 165.18 79.1555 166.56C79.1972 166.575 79.2389 166.596 79.2806 166.611C90.1032 171.055 102.208 173.726 113.364 174.13C113.52 174.136 113.681 174.141 113.838 174.146C114.75 174.172 115.656 174.182 116.834 174.182H116.839Z" fill="#FFEA4B"/>
</g>
<g opacity="0.55">
<path d="M116.49 174.41C120.252 174.41 124.009 174.136 127.709 173.576C128.204 173.503 128.699 173.42 129.188 173.337C138.578 171.714 156.555 166.793 171.442 152.113C171.801 151.76 172.156 151.397 172.51 151.039C177.538 145.859 186.646 134.824 191.117 119.081C191.18 118.858 191.242 118.63 191.305 118.401C196.172 100.589 193.259 82.0146 188.908 70.5701C188.767 70.1916 188.616 69.8182 188.47 69.4449C179.055 45.9129 159.587 33.7476 153.845 30.5793C153.512 30.3926 153.178 30.2111 152.84 30.0348C136.681 21.4579 120.231 20.649 111.863 20.9394C111.707 20.9446 111.545 20.9498 111.389 20.9549C110.138 21.0068 108.908 21.069 107.71 21.152C106.027 21.2505 104.271 21.3957 102.494 21.6083C99.9253 21.8935 97.5075 22.2513 95.2669 22.6869C95.0637 22.7284 94.8553 22.7647 94.6521 22.8062C87.0862 24.3359 67.8796 29.6044 53.024 45.467C52.6957 45.8196 52.3675 46.1774 52.0444 46.5352C40.7893 59.0634 33.9738 75.906 33.3485 92.7486C33.3225 93.4539 33.3068 94.1591 33.3016 94.8643C33.213 107.922 36.8084 121.368 43.4207 132.724C43.6552 133.128 43.8949 133.533 44.1398 133.932C54.8269 151.47 71.5271 161.032 79.463 164.807C81.2919 165.844 83.1625 166.798 85.0853 167.68C85.6011 167.913 86.117 168.146 86.6381 168.369C95.9235 172.352 106.22 174.41 116.485 174.41H116.49Z" fill="#FFEA4B"/>
</g>
<g opacity="0.55">
<path d="M98.164 188.422C108.221 188.422 125.447 188.09 127.453 187.997C127.5 187.997 127.542 187.997 127.589 187.991C137.458 187.519 151.824 185.746 164.194 179.995C164.517 179.845 164.84 179.694 165.158 179.539C172.989 175.748 187.616 166.85 197.542 149.8C197.86 149.255 198.167 148.711 198.469 148.161C208.437 129.929 210.334 106.542 203.409 87.1224C203.216 86.5883 203.018 86.0542 202.815 85.52C199.017 75.6364 193.306 67.0232 183.213 56.0144C182.905 55.6254 182.405 54.9772 181.853 54.2202C181.467 53.6342 180.936 52.8097 180.503 52.1356C173.151 38.2435 161.432 27.1828 146.899 20.5764C135.3 15.2924 122.42 13.1663 109.659 14.4212C108.882 14.499 108.111 14.5871 107.34 14.6857C93.5839 16.4954 81.2763 21.9817 69.8962 31.3986C69.5054 31.632 69.0416 31.9068 68.4997 32.218C67.9786 32.5187 67.4576 32.8298 66.9469 33.1462C60.8192 36.916 54.8581 41.6038 50.0383 46.4315C32.421 59.4887 21.9892 79.9352 21.6818 101.663C21.4786 102.705 21.2962 103.742 21.1399 104.779C17.9718 125.433 23.7296 146.289 36.9387 161.996C37.4962 162.66 38.0694 163.319 38.653 163.962C51.8308 178.502 70.61 187.146 91.5309 188.313C91.6976 188.323 91.8643 188.328 92.0311 188.339C93.2608 188.401 95.4597 188.422 98.1745 188.422H98.164Z" fill="#FFEA4B"/>
</g>
<g opacity="0.55">
<path d="M100.749 198.373C105.235 198.373 110.779 198.222 115.521 197.631C115.734 197.605 115.943 197.579 116.156 197.548C117.673 197.346 119.726 197.154 122.112 196.936C127.047 196.475 133.185 195.904 140.365 194.717C140.584 194.681 140.808 194.644 141.027 194.603C143.304 194.204 145.425 193.794 147.368 193.384C148.072 193.296 148.911 193.177 149.843 193.027C150.135 192.98 150.427 192.928 150.724 192.876C160.676 191.129 171.176 186.928 179.523 181.349C180.128 180.944 180.722 180.535 181.311 180.115C188.83 174.747 195.187 168.017 200.163 160.275C208.302 148.488 212.705 134.388 212.596 119.942C213.007 111.043 212.163 100.366 208.177 89.5699C208.052 89.238 207.927 88.9062 207.802 88.5743C201.143 71.3376 189.788 61.2414 181.785 55.1328C175.574 50.3828 168.534 46.4989 159.103 42.6149C157.659 40.9815 156.122 39.3999 154.502 37.8805C127.276 12.347 84.7413 12.4455 57.6302 38.1035C57.5833 38.1502 52.727 42.7497 50.8512 44.6269C50.8095 44.6684 50.7678 44.7099 50.7261 44.7514C45.6301 49.8695 36.1883 60.4272 30.2013 73.6555C30.0971 73.8837 29.998 74.1118 29.899 74.34C27.7418 79.2455 26.0431 84.5399 24.8551 89.9692C23.0262 96.6326 22.2498 102.814 21.9788 107.854C21.5099 110.509 21.1608 113.335 20.9836 116.322C20.9732 116.509 20.9628 116.701 20.9523 116.887C20.7856 120.232 20.7439 124.588 20.7439 124.775C20.7439 124.966 20.7439 125.163 20.7439 125.355C20.7439 149.411 32.5148 171.698 52.232 184.979C52.8156 185.373 53.4044 185.756 54.0036 186.13C59.282 189.459 73.5749 197.299 92.2708 198.202C92.5365 198.217 96.0745 198.383 100.759 198.383L100.749 198.373Z" fill="#FFEA4B"/>
</g>
<g opacity="0.55">
<path d="M101.509 210.668C113.207 210.668 124.9 207.883 135.358 202.604C136.181 202.189 136.994 201.759 137.802 201.308C145.831 196.853 157.128 188.722 165.35 175.292C165.548 174.97 165.746 174.644 165.939 174.317C168.294 170.324 170.123 166.331 171.541 162.494C172.817 160.187 173.969 157.827 174.98 155.431C175.068 155.224 175.152 155.017 175.24 154.809C176.413 151.952 177.345 149.141 178.085 146.445C178.44 145.299 178.757 144.142 179.054 142.981C179.169 142.53 179.279 142.073 179.383 141.617C180.242 137.899 180.805 134.098 181.071 130.261C183.385 117.09 182.394 103.327 177.846 91.0633C177.799 90.9389 177.752 90.8196 177.71 90.6952C171.963 75.4549 162.349 65.2913 155.299 59.442C132.976 40.9348 102.557 38.4924 78.2071 50.8236C71.6104 53.0171 62.8044 56.8596 54.2328 63.4296C51.6119 65.229 49.0899 67.2203 46.6878 69.3982C46.2709 69.7767 45.8593 70.1553 45.4529 70.5442C39.2209 76.4661 33.4006 84.4933 29.1539 92.8057C22.5103 103.503 18.6804 116.115 18.6804 129.613C18.6804 150.832 28.1534 169.852 43.1185 182.712C47.657 188.297 53.5398 193.991 61.0588 198.808C61.4131 199.037 61.7622 199.254 62.1218 199.477C73.2101 206.307 86.4765 210.274 99.4823 210.642C100.019 210.657 100.556 210.668 101.092 210.668C101.233 210.668 101.379 210.668 101.52 210.668H101.509Z" fill="#FFEA4B"/>
</g>
<g opacity="0.55">
<path d="M133.842 208.801C151.344 208.801 168.388 202.62 181.816 191.16C182.223 190.812 182.629 190.46 183.03 190.102C191.758 182.303 198.126 172.362 202.398 162.81C204.139 160.332 205.733 157.749 207.156 155.068C207.453 154.514 207.739 153.953 208.021 153.393C215.727 137.92 216.472 122.628 215.743 112.521C215.727 112.324 215.712 112.127 215.696 111.93C214.826 101.139 211.465 85.7274 200.7 71.4569C196.073 64.2645 189.684 56.9996 180.873 50.9377C180.414 50.6214 179.951 50.3103 179.487 50.0095C166.549 41.5519 150.766 37.3049 135.04 38.0568C134.561 38.0776 134.076 38.1087 133.597 38.1398C128.318 38.4976 117.829 39.8355 106.908 44.7151C106.616 44.8447 106.324 44.9795 106.032 45.1144C97.7732 48.9413 89.7488 54.6972 83.2199 61.3814C67.6608 69.1337 55.2438 82.4969 48.8659 99.2513C47.6831 102.352 46.7295 105.51 45.9948 108.694C45.6978 109.488 45.4112 110.291 45.1403 111.1C40.9196 123.649 40.4663 136.546 43.1654 148.581C47.6779 172.523 64.2791 191.896 86.1222 200.654C95.6733 205.399 106.376 208.023 117.506 208.023C118.918 208.023 120.335 207.982 121.758 207.893C122.482 207.982 123.154 208.059 123.78 208.127L123.967 208.147C127.26 208.588 130.559 208.806 133.842 208.806V208.801ZM122.487 207.925C122.722 207.961 122.956 207.997 123.191 208.028C123.321 208.049 123.446 208.065 123.571 208.08C123.139 208.023 122.774 207.966 122.482 207.919L122.487 207.925Z" fill="#FFEA4B"/>
</g>
<g opacity="0.55">
<path d="M112.4 192.985C118.804 192.985 125.218 192.119 131.439 190.387C133.159 190.558 134.847 190.667 136.499 190.719C136.739 190.724 136.978 190.734 137.213 190.74C146.597 190.932 156.638 189.464 165.491 186.586C165.872 186.462 166.257 186.332 166.637 186.202C177.215 182.562 187.428 176.22 195.39 168.349C195.614 168.131 195.833 167.908 196.052 167.685C208.667 154.871 216.139 137.93 217.092 119.973C217.129 119.299 217.155 118.624 217.171 117.956C217.327 111.437 216.587 104.577 215.06 98.0742C213.481 89.404 210.569 81.3405 206.39 74.0548C206.202 73.7281 206.015 73.4066 205.822 73.0799C195.598 55.9158 179.862 46.7322 173.573 43.5794C173.302 43.4446 173.031 43.3098 172.76 43.1801C168.946 41.3289 164.928 39.8095 160.718 38.6221C158.024 36.9731 155.205 35.407 152.392 34.1055C152.22 34.0277 152.053 33.9499 151.881 33.8721C140.225 28.5829 126.119 26.0005 113.166 26.7887C112.681 26.8198 112.196 26.8509 111.712 26.8924C110.675 26.9754 109.643 27.0842 108.617 27.2087C100.754 27.971 93.2504 30.0141 86.3359 33.1409C86.2994 33.1513 86.2629 33.1617 86.2264 33.1721C65.5453 38.9799 48.5324 53.6705 39.5545 73.4844C39.3356 73.9666 39.122 74.4489 38.9188 74.9312C35.5162 82.9117 33.6768 90.9648 32.7702 101.854C31.9 112.262 32.2908 120.133 34.0624 128.166C34.0989 128.337 34.1354 128.503 34.1771 128.669C36.6521 139.496 41.0812 146.969 43.2124 150.562C44.8485 153.326 45.8177 154.856 46.9953 156.551C54.1287 166.808 63.1171 173.913 67.8536 177.242C67.9057 177.278 67.9578 177.314 68.0151 177.356C68.0464 177.377 68.0777 177.397 68.1089 177.423C80.9585 187.779 96.6686 192.995 112.405 192.995L112.4 192.985ZM61.4184 171.273C61.4184 171.273 61.4393 171.294 61.4497 171.304C61.4393 171.294 61.4289 171.284 61.4184 171.273Z" fill="#FFEA4B"/>
</g>
<g opacity="0.55">
<path d="M104.756 204.201C113.77 204.201 122.602 202.485 130.819 199.228C138.354 200.271 146.061 200.1 153.621 198.674C157.863 198.238 162.099 197.413 166.283 196.184C184.87 190.734 200.981 177.625 210.485 160.212C210.642 159.922 210.798 159.632 210.954 159.341C216.191 149.416 218.015 140.222 219.015 133.325C219.401 130.681 219.672 128.124 219.833 125.729C220.328 118.21 219.703 111.406 218.395 105.344C217.817 100.916 216.801 96.1763 215.076 91.1619C214.972 90.8611 214.867 90.5604 214.758 90.2596C207.677 70.5753 193.691 58.3737 185.99 52.8563C168.888 40.6029 147.488 36.7916 127.646 41.7541C117.334 41.6711 107.429 43.8491 98.4298 47.8627C92.203 46.4937 85.7001 45.9544 79.0722 46.3485C69.5679 46.9085 60.5587 49.3405 52.4144 53.2816C50.549 54.1268 48.7096 55.0602 46.8963 56.0817C20.8273 70.7672 6.94084 100.252 12.2714 129.587L12.313 129.82C12.9696 133.434 13.4542 135.949 14.0534 138.402C16.5233 149.665 21.2858 158.32 25.5429 164.631C26.8456 166.648 28.2108 168.572 29.6177 170.366C29.7063 170.48 29.8001 170.594 29.8886 170.713C31.0141 172.134 32.1553 173.461 33.4267 174.867C35.9018 177.698 38.4602 180.301 41.0655 182.65C47.5372 188.468 54.8009 192.876 62.4762 195.884C69.99 199.327 77.9883 201.396 86.0909 202.07C88.4097 202.635 90.7545 203.086 93.1253 203.423C93.4432 203.47 93.761 203.512 94.0737 203.553C97.3095 203.968 100.65 204.181 104.297 204.207C104.448 204.207 104.604 204.207 104.756 204.207V204.201Z" fill="#FFEA4B"/>
</g>
<g opacity="0.55">
<path d="M115.229 181.836C123.66 181.836 132.205 180.322 140.485 177.148C154.648 176.101 168.107 170.812 179.117 162.09C193.196 153.798 204.358 140.658 209.938 124.344C220.328 93.9932 208.688 60.6398 181.972 43.1594C176.256 36.7501 170.832 32.135 168.07 29.9311L166.481 28.6658C158.264 22.1269 149.01 17.7036 139.386 15.3442C136.926 14.7116 134.347 14.1826 131.643 13.7782C124.311 12.684 116.995 12.7618 109.925 13.8974C105.839 14.2604 101.765 14.9812 97.7472 16.0702C78.5511 21.2609 62.4501 34.2869 53.4252 51.9281C47.954 62.6207 45.4372 74.2104 45.7551 85.6704C44.145 90.9856 43.155 96.4926 42.8215 102.103C42.7746 102.897 42.7433 103.685 42.7225 104.478C42.3004 121.196 47.8446 133.58 50.8251 140.233C62.5074 166.337 88.2533 181.836 115.229 181.836Z" fill="#FFEA4B"/>
</g>
<g opacity="0.55">
<path d="M111.285 212C114.26 212 117.167 211.969 120.049 211.84C128.386 212.317 136.817 211.388 144.919 208.993C145.321 208.873 145.717 208.754 146.113 208.63C149.875 207.447 152.595 206.25 154.215 205.534C154.314 205.492 154.418 205.446 154.528 205.394C155.825 204.875 157.164 204.326 158.524 203.729C163.527 202.013 168.388 199.716 173.021 196.822C178.523 193.389 183.53 189.433 188.34 184.735C188.522 184.558 188.705 184.377 188.887 184.196C199.626 173.472 203.935 167.374 207.406 161.016C223.903 130.826 215.868 93.5887 189.361 72.6547C188.767 71.6591 188.147 70.6686 187.496 69.6834C184.124 63.4971 180.696 58.9286 178.846 56.6418C178.737 56.507 178.627 56.3721 178.518 56.2373C171.598 47.7901 163.615 41.8319 160.505 39.6643C160.359 39.5606 160.208 39.4569 160.062 39.3584C154.267 35.3811 147.118 31.6475 140.443 29.117C140.329 29.0755 140.214 29.0288 140.1 28.9873C137.453 27.9969 127.98 24.6885 117.355 23.6255C117.152 23.6048 116.954 23.584 116.751 23.5685C110.446 22.9877 102.89 23.247 99.3521 23.5581C99.1958 23.5736 99.0447 23.584 98.8883 23.5996C88.9099 24.5485 74.9193 27.5665 61.7102 36.2419C52.9094 40.9711 36.5062 51.9852 27.3146 71.9339C27.2208 72.1362 27.127 72.3384 27.0384 72.5406C22.5885 82.4398 21.093 91.7997 20.6189 97.9082C20.5876 98.3386 20.5563 98.769 20.5303 99.1994C20.5094 99.5728 20.4886 99.9617 20.473 100.356C15.1633 113.849 14.0326 129.006 17.9562 143.811C19.436 149.395 21.5047 154.436 23.9016 158.947C24.3497 159.995 24.8812 161.172 25.5117 162.447C25.6055 162.639 25.7045 162.831 25.7983 163.023C33.8487 178.989 46.3179 188.837 51.3045 192.326C51.4139 192.404 51.5233 192.477 51.6328 192.555C59.3029 197.865 70.8393 203.221 73.2883 204.264C73.3873 204.305 73.4863 204.346 73.5853 204.388C76.1385 205.461 78.7804 206.416 81.4847 207.24C86.3567 209.045 92.2395 210.657 99.0134 211.44C99.1958 211.461 99.3729 211.482 99.5553 211.503C102.729 211.845 105.282 211.907 107.752 211.969H107.981C108.497 211.99 109.013 211.995 109.523 211.995C110.112 211.995 110.696 211.995 111.279 211.995L111.285 212ZM154.163 205.539C154.132 205.555 154.101 205.565 154.069 205.575C154.101 205.565 154.132 205.55 154.163 205.539ZM154.366 205.456C154.366 205.456 154.33 205.472 154.309 205.477C154.351 205.461 154.387 205.446 154.429 205.43C154.408 205.441 154.387 205.446 154.366 205.456ZM154.804 205.28C154.762 205.295 154.721 205.316 154.674 205.332C154.715 205.316 154.757 205.295 154.799 205.28H154.804Z" fill="#FFEA4B"/>
</g>
<g opacity="0.55">
<path d="M124.202 206.296C132.351 206.296 141.376 205.015 149.072 202.765C149.14 202.744 149.213 202.723 149.281 202.703C151.031 202.184 152.928 201.541 154.825 200.836C159.848 199.508 165.121 197.662 170.228 195.116C170.347 195.059 170.462 194.997 170.582 194.94C177.965 191.206 185.907 185.533 191.826 179.772C192.066 179.539 192.305 179.3 192.54 179.067C202.753 168.831 209.74 155.794 212.741 141.373C212.814 141.026 212.882 140.684 212.95 140.336C215.597 126.584 213.601 111.131 213.513 110.478C213.497 110.343 213.476 110.208 213.455 110.074C212.851 105.702 211.85 101.357 210.496 97.1201C210.131 94.9006 209.756 93.0131 209.417 91.5767C209.391 91.4626 209.365 91.3486 209.334 91.2345C206.833 80.853 201.778 68.89 196.13 60.0072C196.036 59.862 195.942 59.7168 195.848 59.5716C191.508 52.8563 185.088 45.4566 179.086 40.2607C178.971 40.1622 178.856 40.0636 178.742 39.9651C169.962 32.4616 158.436 26.3583 147.123 23.2262C146.847 23.1484 146.571 23.0758 146.3 23.0032C131.804 19.1763 118.47 20.4468 113.41 21.1727C113.155 21.209 112.895 21.2453 112.639 21.2868C101.483 23.0084 92.0519 27.1102 86.7631 29.8067C86.242 29.9259 85.7261 30.0504 85.2155 30.18L85.0436 30.2215C80.5415 31.3623 68.8748 34.8366 57.797 42.3919C57.6875 42.4697 57.5729 42.5475 57.4635 42.6201C52.8624 45.7937 41.2895 54.6505 33.2026 68.2418C32.9994 68.5841 32.7961 68.9315 32.5981 69.2789C25.2459 82.1287 21.6193 98.0327 22.6458 112.91C22.6666 113.195 22.6875 113.475 22.7083 113.76C23.245 120.382 24.8186 130.432 29.2529 140.73C29.3467 140.953 29.4457 141.176 29.5447 141.399C32.8066 148.763 38.3664 157.583 44.1085 164.724C47.3444 169.614 51.2576 174.177 55.8325 178.279C56.0618 178.486 56.4787 178.854 56.9007 179.228L57.4426 179.71C61.3923 183.231 65.0085 186.15 68.1922 188.391C68.2496 188.432 68.3017 188.468 68.359 188.51C75.1433 193.255 81.9484 196.48 86.4661 198.357C86.5703 198.399 86.6797 198.445 86.7839 198.487C91.1244 200.265 106.579 206.078 123.222 206.296C123.332 206.296 123.441 206.296 123.556 206.296C123.769 206.296 123.978 206.296 124.191 206.296H124.202Z" fill="#FFEA4B"/>
</g>
<g opacity="0.55">
<path d="M91.0098 199.996C95.4962 199.996 101.04 199.845 105.782 199.254C105.996 199.228 106.204 199.202 106.418 199.171C107.934 198.969 109.987 198.777 112.374 198.559C117.308 198.098 123.446 197.527 130.627 196.34C130.845 196.304 131.069 196.267 131.288 196.226C133.565 195.827 135.686 195.417 137.63 195.007C138.333 194.919 139.172 194.8 140.105 194.649C140.397 194.603 140.688 194.551 140.985 194.499C150.938 192.752 161.437 188.551 169.785 182.972C170.389 182.567 170.983 182.158 171.572 181.738C179.091 176.37 185.443 169.645 190.419 161.903C198.563 150.111 202.966 136.012 202.852 121.559C203.263 112.661 202.419 101.984 198.433 91.1878C198.308 90.8559 198.183 90.524 198.058 90.1921C191.399 72.9554 180.045 62.8592 172.041 56.7506C165.83 52.0007 158.79 48.1167 149.359 44.2328C147.916 42.5993 146.378 41.0177 144.758 39.4984C117.532 13.9648 74.9974 14.0633 47.8863 39.7214C47.8394 39.768 42.9831 44.3676 41.1072 46.2448C41.0656 46.2862 41.0239 46.3277 40.9822 46.3692C35.8862 51.4873 26.4444 62.0451 20.4574 75.2734C20.3531 75.5015 20.2541 75.7297 20.1551 75.9579C17.9979 80.8634 16.2992 86.1578 15.1112 91.5871C13.2823 98.2505 12.5059 104.432 12.2349 109.472C11.766 112.127 11.4168 114.953 11.2397 117.94C11.2293 118.127 11.2188 118.313 11.2084 118.5C11.0417 121.845 11 126.2 11 126.387C11 126.579 11 126.776 11 126.968C11 151.024 22.7709 173.311 42.4881 186.591C43.0717 186.985 43.6605 187.369 44.2597 187.742C49.5381 191.071 63.831 198.912 82.5269 199.814C82.7926 199.83 86.3307 199.996 91.0151 199.996H91.0098Z" fill="#FFEA4B"/>
</g>
<g opacity="0.55">
<path d="M96.1997 176.272C119.84 176.272 143.137 165.356 158.024 144.817L163.438 137.349C188.043 103.405 180.336 56.0351 146.227 31.549C112.113 7.0629 64.5136 14.7271 39.9088 48.6768L34.4949 56.144C9.89011 90.0884 17.5967 137.458 51.7057 161.944C65.1805 171.615 80.7604 176.272 96.1945 176.272H96.1997Z" fill="#FFEA4B"/>
</g>
<g opacity="0.55">
<path d="M94.3602 187.924C95.814 187.924 97.273 187.882 98.7424 187.799C140.735 185.43 172.843 149.629 170.462 107.844L170.186 103.037C167.805 61.2466 131.835 29.2829 89.8426 31.6631C47.8498 34.0329 15.7416 69.8338 18.1229 111.619L18.3991 116.426C20.697 156.754 54.2798 187.924 94.3602 187.924Z" fill="#FFEA4B"/>
</g>
<g opacity="0.55">
<path d="M108.085 172.839C108.815 172.839 109.659 172.839 110.717 172.824H110.857C118.559 172.761 126.307 171.455 133.795 168.981C137.062 168.027 140.412 166.808 143.778 165.258C144.133 165.097 144.482 164.931 144.831 164.765C172.692 153.067 190.195 124.914 187.85 94.605C187.037 84.094 183.9 74.2 178.93 65.4572C177.846 63.0096 176.658 60.6242 175.397 58.3789C175.282 58.1767 175.167 57.9693 175.048 57.767C170.176 49.2887 161.203 37.4138 146.123 28.9821C146.076 28.9562 146.029 28.9303 145.982 28.9043C142.919 27.2035 140.303 26.0419 138.093 25.0878C123.253 18.6837 107.408 17.7554 92.8492 21.4164C85.7783 22.7491 78.7127 25.1189 71.7616 28.5102C71.5428 28.6191 71.3239 28.7229 71.1051 28.8317C66.9105 30.2733 61.4758 32.5757 55.744 36.2678C55.2855 36.5634 54.8322 36.8641 54.3841 37.1649C38.4342 47.9612 27.4866 65.0319 24.3393 84.0006C21.166 103.135 26.1005 123.011 37.8714 138.532C38.3196 139.123 38.7781 139.709 39.2471 140.284C45.4999 148.006 53.1127 153.928 54.5716 155.032C54.7071 155.136 54.8374 155.234 54.9728 155.333C62.3824 160.866 69.8806 164.33 73.6896 165.906C73.7365 165.927 73.7782 165.942 73.8251 165.963C83.642 169.992 94.6886 172.419 104.928 172.787C105.084 172.793 105.24 172.798 105.397 172.803C106.261 172.829 107.064 172.839 108.085 172.839ZM37.3973 76.9016C37.3973 76.9016 37.3921 76.9327 37.3868 76.9483C37.3868 76.9327 37.3921 76.9172 37.3973 76.9016Z" fill="#FFEA4B"/>
</g>
<g opacity="0.55">
<path d="M107.929 172.99C111.608 172.99 115.271 172.72 118.887 172.175C119.387 172.098 119.893 172.02 120.393 171.932C129.402 170.371 146.686 165.611 161.203 151.293C161.552 150.946 161.901 150.598 162.245 150.246C167.143 145.205 176.017 134.445 180.409 119.003C180.477 118.759 180.545 118.521 180.612 118.277C184.625 103.576 183.76 86.2304 178.299 71.8717C178.153 71.4931 178.007 71.1146 177.856 70.736C171.661 55.2676 159.103 41.1422 144.258 32.9543C143.929 32.7728 143.601 32.5965 143.273 32.4201C128.391 24.5122 113.661 23.2469 103.917 23.584C103.766 23.584 103.614 23.5944 103.458 23.5996C102.312 23.6462 101.228 23.7085 100.212 23.7759C98.9457 23.8536 97.6326 23.9625 96.2934 24.1129C92.5105 24.507 90.0563 24.9841 89.0037 25.1863C88.8161 25.2226 88.6337 25.2589 88.4461 25.2952C79.39 27.1205 62.0958 32.4253 48.053 47.4219C47.7143 47.7797 47.3809 48.1427 47.0526 48.5109C35.7871 61.0547 29.2425 77.2439 28.6224 94.0917C28.5964 94.7969 28.5808 95.5022 28.5756 96.2074C28.4922 109.031 32.0198 122.228 38.5071 133.362C38.7468 133.777 38.9917 134.186 39.2418 134.596C49.1994 150.915 63.8935 159.881 72.2931 163.951C73.8563 164.817 75.4507 165.616 77.0765 166.362C77.5819 166.596 78.0925 166.819 78.6032 167.042C87.7323 170.962 97.8566 172.99 107.929 172.99Z" fill="#FFEA4B"/>
</g>
<g opacity="0.55">
<path d="M95.5015 182.728C103.375 182.728 115.208 182.469 116.49 182.407C116.527 182.407 116.563 182.407 116.599 182.407C129.386 181.795 140.662 179.259 150.115 174.862C150.438 174.711 150.761 174.561 151.078 174.405C158.728 170.703 173.021 161.991 182.785 145.221C183.098 144.682 183.405 144.142 183.702 143.598C193.618 125.469 195.416 103.099 188.502 83.7569C188.314 83.2332 188.121 82.7147 187.923 82.1961C184.411 73.054 179.268 65.0579 170.884 55.7758C163.548 42.3712 152.079 31.6942 137.932 25.2641C126.427 20.0319 113.666 17.9214 101.025 19.1556C100.264 19.2282 99.5085 19.3163 98.7529 19.4149C85.7888 21.1105 73.872 26.2131 63.2162 34.6085C62.8514 34.8211 62.4919 35.0389 62.1323 35.2618C58.3494 37.5901 52.9251 41.3445 47.5633 46.5041C31.181 59.2397 21.3328 78.504 20.5356 99.0595C17.1122 119.817 22.5365 140.559 36.0686 156.671C36.6365 157.345 37.2149 158.009 37.8089 158.667C50.7887 172.99 69.0834 181.499 89.3268 182.629C89.4936 182.64 89.6655 182.65 89.8323 182.655C91.088 182.718 93.1098 182.738 95.4963 182.738L95.5015 182.728ZM56.6924 40.3126C56.6924 40.3126 56.6716 40.3333 56.6559 40.3437C56.6664 40.3333 56.6768 40.3229 56.6924 40.3126Z" fill="#FFEA4B"/>
</g>
<g opacity="0.55">
<path d="M96.8823 189.64C100.702 189.64 105.501 189.5 109.867 188.956C110.076 188.93 110.284 188.904 110.493 188.873C111.123 188.79 112.535 188.66 113.781 188.541C117.35 188.209 122.237 187.753 127.985 186.804C128.204 186.768 128.417 186.731 128.636 186.695C130.152 186.43 131.596 186.156 132.966 185.876C133.409 185.813 133.883 185.741 134.389 185.663C134.701 185.611 135.009 185.559 135.321 185.507C145.222 183.781 155.252 179.772 163.579 174.229C164.209 173.809 164.835 173.378 165.45 172.938C172.906 167.612 179.19 160.975 184.093 153.357C191.92 141.793 196.182 128.057 196.151 113.973C196.458 105.609 195.562 95.5851 191.763 85.2815C191.638 84.9392 191.508 84.6022 191.378 84.2651C184.062 65.3327 170.806 55.1535 166.309 51.7311C161.51 48.0649 156.352 45.0106 150.042 42.1327C149.703 41.806 149.364 41.4793 149.02 41.1578C121.779 15.6294 79.2338 15.7435 52.1331 41.4171C51.7631 41.7645 48.5012 44.8602 47.0214 46.3433C46.9849 46.3796 46.9484 46.4159 46.912 46.4522C42.3474 51.031 33.8645 60.5517 28.3203 72.8103C28.2213 73.0332 28.1171 73.2614 28.0181 73.4844C26.0537 77.9491 24.4905 82.7509 23.365 87.672C21.8539 93.2931 21.1244 98.5201 20.8169 102.923C20.447 105.256 20.1917 107.6 20.051 109.965C20.0405 110.156 20.0301 110.354 20.0197 110.545C19.8842 113.273 19.853 116.561 19.8478 116.929C19.8478 117.121 19.8478 117.307 19.8478 117.499C19.8478 141.306 31.5457 163.412 51.143 176.625C51.7423 177.029 52.3467 177.423 52.9616 177.812C58.068 181.032 71.9024 188.614 89.999 189.49C90.8744 189.531 93.4954 189.646 96.8823 189.646V189.64Z" fill="#FFEA4B"/>
</g>
<g opacity="0.55">
<path d="M97.4658 198.176C108.95 198.176 120.429 195.448 130.694 190.268C131.471 189.879 132.237 189.469 132.997 189.054C140.881 184.704 152.001 176.708 160.197 163.324C160.385 163.013 160.577 162.701 160.76 162.385C162.761 158.994 164.376 155.613 165.674 152.325C166.643 150.479 167.539 148.592 168.347 146.668C168.435 146.455 168.529 146.237 168.612 146.02C169.764 143.209 170.681 140.45 171.416 137.801C171.692 136.867 171.952 135.934 172.187 134.995C172.307 134.528 172.416 134.062 172.526 133.59C173.286 130.302 173.802 126.952 174.089 123.571C174.156 123.141 174.224 122.711 174.287 122.28C176.1 109.752 174.886 97.6438 170.676 86.2875C170.624 86.1526 170.577 86.0178 170.525 85.883C164.871 70.9227 155.471 60.9769 148.577 55.2624C126.719 37.1545 97.1063 34.4373 73.0278 45.9077C66.8063 48.1012 59.2768 51.617 51.8568 57.2433C49.4547 58.9286 47.136 60.7798 44.9162 62.7866C44.4837 63.1807 44.0512 63.58 43.6292 63.9845C37.8037 69.5278 32.4888 76.715 28.4922 84.2962C22.0935 94.854 18.4096 107.232 18.4096 120.465C18.4096 141.016 27.2937 159.502 41.4511 172.331C45.6822 177.278 51.0283 182.246 57.7136 186.534C58.0575 186.757 58.4066 186.975 58.7558 187.188C69.792 193.991 82.4747 197.782 95.4337 198.155C95.9652 198.171 96.5019 198.181 97.0333 198.181C97.174 198.181 97.3199 198.181 97.4658 198.181V198.176ZM58.3545 162.992C58.3545 162.992 58.3545 162.992 58.3597 162.997C58.3597 162.997 58.3545 162.997 58.3545 162.992Z" fill="#FFEA4B"/>
</g>
<g opacity="0.55">
<path d="M119.919 196.879C137.176 196.879 153.991 190.781 167.242 179.477C167.659 179.119 168.07 178.761 168.482 178.393C176.376 171.335 182.228 162.676 186.303 154.135C187.579 152.206 188.767 150.215 189.856 148.166C190.153 147.606 190.445 147.046 190.726 146.481C198.225 131.417 198.97 116.727 198.271 107.056C198.256 106.864 198.245 106.672 198.23 106.475C197.401 96.1815 194.186 81.4805 183.9 67.6507C179.398 60.8473 173.239 53.992 164.835 48.2101C164.371 47.8886 163.902 47.5775 163.428 47.2663C150.667 38.928 135.149 34.7433 119.721 35.4796C119.252 35.5004 118.778 35.5315 118.309 35.5626C113.213 35.91 103.073 37.196 92.4376 41.9408C92.1145 42.086 91.7914 42.2312 91.4684 42.3816C84.3975 45.6692 77.6809 50.2377 71.8815 55.6462C57.8543 63.5748 46.7139 76.212 40.7894 91.7686C39.7889 94.3925 38.9552 97.0578 38.2779 99.7439C38.158 100.086 38.0382 100.434 37.9183 100.781C33.7915 113.045 33.26 125.646 35.7559 137.448C40.1745 161.198 56.4943 180.467 78.03 189.376C87.3624 193.861 97.7629 196.33 108.565 196.33C109.284 196.33 110.008 196.319 110.732 196.299C113.796 196.687 116.87 196.879 119.924 196.879H119.919Z" fill="#FFEA4B"/>
</g>
<g opacity="0.55">
<path d="M105.032 185.891C110.091 185.891 115.156 185.352 120.127 184.273C120.445 184.289 120.763 184.299 121.081 184.31C121.31 184.315 121.544 184.325 121.774 184.33C130.658 184.527 140.172 183.122 148.567 180.394C148.958 180.27 149.343 180.14 149.729 180.006C160.213 176.396 169.925 170.371 177.814 162.577C178.049 162.344 178.283 162.11 178.513 161.877C190.935 149.25 198.292 132.568 199.23 114.891C199.267 114.217 199.293 113.537 199.308 112.863C199.454 106.812 198.798 100.449 197.438 94.3821C195.916 86.2615 193.087 78.3899 188.986 71.2494C188.809 70.9383 188.627 70.6323 188.444 70.3264C178.81 54.1216 164.725 45.3632 157.191 41.5882C156.92 41.4533 156.649 41.3185 156.372 41.1837C153.454 39.768 150.438 38.5494 147.327 37.5331C145.56 36.5271 143.731 35.5678 141.882 34.7121C141.704 34.6292 141.527 34.5514 141.35 34.4684C129.991 29.3192 116.808 26.9079 104.235 27.6702C103.755 27.7013 103.276 27.7324 102.796 27.7739C101.864 27.8517 100.936 27.945 100.014 28.0539C92.8179 28.7799 85.9294 30.5845 79.5203 33.3017C59.6937 39.3273 43.4572 53.603 34.8127 72.6702C34.5939 73.1525 34.3803 73.6399 34.1718 74.1274C28.0232 88.5587 26.1839 108.627 29.5969 124.064C29.6333 124.225 29.6698 124.386 29.7063 124.546C31.827 133.839 35.9851 142.939 42.066 151.604C48.6783 161.027 56.7549 167.545 61.2621 170.755C74.0126 180.83 89.5091 185.902 105.027 185.902L105.032 185.891ZM54.0505 164.185C54.0505 164.185 54.0714 164.205 54.0818 164.221C54.0714 164.21 54.061 164.2 54.0505 164.185Z" fill="#FFEA4B"/>
</g>
<g opacity="0.55">
<path d="M99.7221 193.685C106.819 193.685 113.807 192.622 120.466 190.579C125.895 190.895 131.366 190.579 136.775 189.635C140.746 189.174 144.706 188.375 148.619 187.219C166.935 181.826 182.765 168.966 192.06 151.942C192.217 151.656 192.373 151.366 192.524 151.076C197.745 141.187 199.501 132.086 200.371 126.107C201.731 116.737 201.528 107.807 199.772 99.3654C199.183 95.4762 198.225 91.2708 196.698 86.8268C196.594 86.5208 196.484 86.2149 196.375 85.9089C189.492 66.7743 176.074 55.0498 168.691 49.7606C152.355 38.062 132.101 34.064 113.025 38.062C106.116 38.2798 99.4042 39.5036 93.0524 41.6141C88.9777 41.137 84.8196 41.0126 80.6041 41.2563C71.2145 41.8112 62.3042 44.1913 54.2433 48.0494C52.4509 48.8687 50.6792 49.771 48.9389 50.751C22.8699 65.4313 8.97824 94.911 14.3035 124.246L14.3296 124.386C14.7881 126.906 15.2206 129.229 15.8407 131.733C18.6024 143.754 23.9068 152.502 27.1739 157.236C28.2629 158.869 29.3937 160.446 30.5713 161.944C30.6546 162.048 30.738 162.152 30.8214 162.261C31.8948 163.619 32.9577 164.859 34.0989 166.119C36.3395 168.67 38.6686 171.035 41.0655 173.192C47.4069 178.896 54.5143 183.241 62.0229 186.244C68.8332 189.283 76.0239 191.196 83.3189 191.974C85.054 192.358 86.8048 192.674 88.566 192.923C88.9308 192.975 89.2955 193.027 89.6603 193.073C92.745 193.462 95.8818 193.664 99.2531 193.69C99.4094 193.69 99.571 193.69 99.7273 193.69L99.7221 193.685Z" fill="#FFEA4B"/>
</g>
<g opacity="0.55">
<path d="M107.007 178.16C114.437 178.16 121.956 176.982 129.303 174.53C141.803 173.036 153.647 168.229 163.594 160.684C177.08 152.356 187.735 139.522 193.149 123.696C203.216 94.2628 192.566 62.0036 167.544 44.1447C164.261 40.6548 160.718 37.362 157.097 34.4788L156.096 33.6803C147.874 27.1206 138.599 22.6869 128.964 20.3171C126.547 19.7001 124.087 19.2074 121.586 18.8341C114.51 17.7762 107.444 17.8125 100.603 18.8393C96.778 19.223 92.969 19.923 89.2069 20.9394C70.0056 26.1301 53.9046 39.1614 44.8849 56.8077C39.9609 66.4424 37.4285 76.798 37.2044 87.1275C36.1519 91.3486 35.4849 95.6733 35.2192 100.065C35.1723 100.874 35.1358 101.678 35.1149 102.487C34.7033 118.92 40.2318 131.272 42.5922 136.546C54.2746 162.655 80.0205 178.16 106.996 178.16H107.007Z" fill="#FFEA4B"/>
</g>
<g opacity="0.55">
<path d="M104.266 199.099C106.329 199.099 108.393 199.078 110.482 199C118.309 199.306 126.198 198.357 133.795 196.107C134.243 195.977 134.686 195.837 135.129 195.697C138.667 194.572 141.324 193.415 142.658 192.824C143.388 192.529 144.143 192.223 144.914 191.891C149.625 190.211 154.205 188.007 158.582 185.274C163.735 182.054 168.409 178.372 172.869 174.011C173.047 173.84 173.224 173.664 173.401 173.487C181.425 165.476 186.058 159.585 189.934 152.486C205.718 123.566 199.017 88.1854 175.126 66.8573C172.468 62.2422 169.821 58.6641 167.956 56.3514C167.846 56.2166 167.737 56.0818 167.633 55.9521C161.135 48.0234 153.715 42.4749 150.823 40.4577C150.672 40.3488 150.516 40.2451 150.365 40.1362C144.909 36.3923 138.453 33.0165 132.185 30.6415C132.075 30.6 131.961 30.5586 131.851 30.5171C128.709 29.3451 120.346 26.5087 110.654 25.5338C110.446 25.513 110.242 25.4923 110.034 25.4716C103.766 24.896 97.0177 25.1967 94.0216 25.4612C93.8913 25.4716 93.7611 25.4819 93.6308 25.4975C84.3558 26.379 71.3969 29.174 58.8444 37.1597C49.6215 42.2312 35.0212 52.7267 26.3923 71.4361C26.2881 71.6591 26.1891 71.8821 26.0901 72.1051C22.0154 81.1849 20.4834 89.7514 19.9311 95.6681C15.6948 108.279 15.0331 122.151 18.6232 135.721C20.0145 140.979 21.9216 145.734 24.1257 150.012C24.4904 150.832 24.9021 151.729 25.3762 152.693C25.47 152.885 25.5638 153.072 25.6576 153.264C33.1662 168.157 44.291 177.377 50.252 181.546C50.3406 181.608 50.4344 181.675 50.5229 181.738C58.5734 187.312 69.2761 191.938 69.3856 191.984C69.4846 192.026 69.5888 192.072 69.6878 192.114C71.9127 193.052 74.2211 193.892 76.5763 194.634C81.2294 196.314 86.8413 197.823 93.2765 198.565C93.4589 198.585 93.6464 198.606 93.834 198.627C96.9344 198.959 99.399 199.021 101.379 199.068H101.473C101.968 199.083 102.463 199.088 102.963 199.088C103.401 199.088 103.839 199.088 104.276 199.088L104.266 199.099ZM142.22 193.006C142.22 193.006 142.194 193.016 142.179 193.021C142.283 192.98 142.387 192.938 142.491 192.892C142.397 192.928 142.304 192.969 142.22 193.001V193.006Z" fill="#FFEA4B"/>
</g>
<g opacity="0.55">
<path d="M113.202 195.137C120.846 195.137 129.313 193.934 136.556 191.818C136.634 191.797 136.707 191.772 136.786 191.751C138.182 191.336 139.62 190.859 141.048 190.351C145.524 189.106 150.213 187.411 154.84 185.103C154.96 185.041 155.085 184.979 155.205 184.921C162.271 181.349 169.571 176.132 175.235 170.62C175.475 170.386 175.714 170.148 175.954 169.909C186 159.844 192.863 147.077 195.796 132.983C195.869 132.631 195.942 132.273 196.01 131.915C198.396 119.501 196.917 106.801 196.599 104.38C196.578 104.24 196.562 104.1 196.541 103.96C196.026 100.252 195.223 96.56 194.145 92.9405C193.884 91.4885 193.618 90.2129 193.368 89.1499C193.342 89.041 193.316 88.9321 193.29 88.8232C191.008 79.3388 186.558 68.8174 181.384 60.6761C181.29 60.5309 181.196 60.3857 181.102 60.2405C176.944 53.8053 171.254 47.2508 165.491 42.2571C165.371 42.1534 165.251 42.0497 165.132 41.946C156.602 34.6551 145.873 28.9718 134.925 25.9382C134.654 25.8656 134.383 25.7878 134.112 25.7204C120.705 22.1787 108.653 23.0914 102.661 23.947C102.411 23.9833 102.161 24.0196 101.911 24.0559C92.8804 25.4508 85.1738 28.3754 79.7704 30.9215C74.2627 32.3994 64.5135 35.687 54.9311 42.226C54.8373 42.2882 54.7435 42.3556 54.6445 42.423C50.2832 45.4306 39.2991 53.8364 31.5143 66.9247C31.3059 67.2773 31.0975 67.6299 30.8995 67.9825C23.6567 80.656 20.2176 95.694 21.2285 110.322C21.2493 110.608 21.2702 110.893 21.291 111.178C21.7964 117.375 23.2815 126.828 27.5178 136.649C27.6115 136.862 27.7053 137.075 27.7991 137.287C30.7067 143.847 35.2504 151.184 40.1693 157.438C43.2957 162.022 47.0265 166.305 51.3462 170.179C51.5337 170.35 51.8933 170.666 52.2372 170.972L52.5446 171.247C57.5833 175.733 60.8348 178.02 61.903 178.771C61.9655 178.813 62.0228 178.854 62.0854 178.901C68.3851 183.304 74.617 186.265 78.7387 187.976C78.8429 188.017 78.9523 188.064 79.0565 188.105C84.064 190.154 97.3303 194.945 112.29 195.137C112.379 195.137 112.462 195.137 112.545 195.137C112.764 195.137 112.983 195.137 113.202 195.137Z" fill="#FFEA4B"/>
</g>
<g opacity="0.55">
<path d="M90.1188 190.771C93.9382 190.771 98.7372 190.631 103.104 190.086C103.312 190.06 103.521 190.034 103.729 190.003C104.36 189.92 105.772 189.785 107.017 189.671C110.586 189.34 115.469 188.883 121.211 187.934C121.43 187.898 121.649 187.862 121.867 187.825C123.384 187.561 124.832 187.286 126.197 187.006C126.64 186.944 127.115 186.871 127.62 186.793C127.99 186.731 128.36 186.669 128.73 186.607C134.467 185.59 145.758 182.764 156.966 175.25C157.524 174.877 158.082 174.493 158.629 174.099C166.106 168.769 172.411 162.115 177.325 154.482C185.151 142.919 189.408 129.182 189.377 115.098C189.684 106.739 188.788 96.7156 184.989 86.4119C184.864 86.0697 184.734 85.7326 184.604 85.3955C177.293 66.4839 164.053 56.2995 159.561 52.8771C154.757 49.2005 149.588 46.1411 143.268 43.2579C142.934 42.9364 142.601 42.6149 142.262 42.2934C115.036 16.7598 72.5015 16.8584 45.3904 42.5112C45.3539 42.5423 41.8211 45.8922 40.2683 47.4426C40.2266 47.4841 40.1849 47.5256 40.1433 47.5723C35.5787 52.1511 27.0957 61.6717 21.5464 73.9355C21.4422 74.1637 21.3379 74.397 21.2389 74.6252C19.2797 79.0847 17.7165 83.8814 16.5962 88.7972C15.0851 94.4235 14.3557 99.6506 14.0482 104.053C13.6783 106.387 13.4229 108.73 13.2875 111.095C13.277 111.287 13.2666 111.484 13.2562 111.676C13.1207 114.403 13.0895 117.691 13.0843 118.059C13.0843 118.251 13.0843 118.438 13.0843 118.63C13.0843 142.452 24.7926 164.563 44.4108 177.776C44.984 178.16 45.5623 178.538 46.1459 178.911C51.2576 182.142 65.1024 189.744 83.2355 190.62C84.1109 190.662 86.7319 190.776 90.1188 190.776V190.771Z" fill="#FFEA4B"/>
</g>
<g opacity="0.55">
<path d="M139.698 176.562C165.871 176.562 191.346 163.127 205.509 139.019C226.743 102.886 214.518 56.4707 178.21 35.3396L170.222 30.6934C133.914 9.56752 87.2737 21.7276 66.0403 57.8604C44.8068 93.9932 57.031 140.409 93.339 161.54L101.327 166.186C113.41 173.218 126.64 176.562 139.698 176.562Z" fill="#FFEA4B"/>
</g>
<g opacity="0.55">
<path d="M119.856 171.211C123.702 171.211 127.599 170.921 131.518 170.319L136.301 169.588C177.872 163.23 206.395 124.541 200.007 83.171C193.613 41.8008 154.736 13.4152 113.166 19.7727L108.382 20.5038C66.8115 26.8613 38.2883 65.5505 44.6766 106.921C50.4604 144.391 82.902 171.206 119.851 171.206L119.856 171.211Z" fill="#FFEA4B"/>
</g>
<g opacity="0.55">
<path d="M134.269 187.328C138.276 187.328 142.324 186.985 146.384 186.285C156.831 184.476 166.439 180.426 174.719 174.654C177.054 173.353 179.32 171.952 181.441 170.495C181.644 170.355 181.853 170.21 182.056 170.07C190.065 164.433 201.08 154.415 208.068 138.672C208.099 138.604 208.125 138.542 208.156 138.475C209.553 135.301 210.459 132.62 211.199 130.349C216.191 115.036 215.602 99.2513 210.548 85.183C208.542 78.3018 205.488 71.5191 201.429 64.9542C201.304 64.752 201.179 64.5497 201.049 64.3475C199.183 60.282 196.312 55.0446 191.982 49.6465C191.69 49.2835 191.399 48.9257 191.096 48.5679C178.768 33.8047 160.645 24.5952 141.366 23.2988C121.914 21.9921 102.515 28.7851 88.1231 41.9304C87.576 42.4282 87.0393 42.9364 86.513 43.4498C79.3796 50.3932 74.1846 58.5086 73.2154 60.0642C73.132 60.1939 73.0538 60.3287 72.9705 60.4583C68.1454 68.3248 65.3942 76.0875 64.1801 80.013C64.1644 80.0597 64.154 80.1063 64.1384 80.153C61.0433 90.2648 59.6728 101.44 60.2825 111.619C60.2929 111.774 60.3033 111.93 60.3137 112.086C60.4127 113.553 60.5378 114.829 60.7931 117.307L60.814 117.484C61.6112 125.112 63.659 132.667 66.8479 139.849C68.1141 142.991 69.6513 146.186 71.5219 149.369C71.7199 149.712 71.9231 150.049 72.1316 150.386C84.559 173.285 108.549 187.333 134.269 187.333V187.328Z" fill="#FFEA4B"/>
</g>
<g opacity="0.55">
<path d="M134.071 182.36C145.821 182.36 157.972 179.679 168.237 174.649C168.597 174.473 168.956 174.291 169.311 174.11C184.203 166.497 197.136 152.704 203.915 137.204C204.066 136.862 204.212 136.52 204.357 136.172C210.84 120.678 210.699 105.967 209.438 96.3526C209.417 96.1918 209.396 96.0311 209.37 95.8703C209.209 94.7036 209.042 93.6043 208.87 92.5775C208.677 91.39 208.453 90.1611 208.193 88.9113C207.432 85.1778 206.723 82.7769 206.416 81.7553C206.358 81.5531 206.296 81.356 206.233 81.1538C203.539 72.3747 196.594 55.7862 180.295 43.315C179.893 43.009 179.482 42.7031 179.075 42.4023C165.46 32.4461 148.655 27.5095 131.757 28.4895C131.038 28.531 130.314 28.5829 129.595 28.6503C116.75 29.7963 103.88 34.5514 93.3494 42.0497C92.9742 42.3193 92.599 42.589 92.2291 42.8638C76.8368 54.2875 69.2709 69.7145 65.9986 78.4314C65.2795 80.07 64.6282 81.7346 64.0394 83.4199C63.857 83.9384 63.685 84.457 63.5131 84.9755C59.3498 97.8305 58.8964 112.174 62.2313 125.366C62.3563 125.858 62.4866 126.356 62.6221 126.844C65.045 135.612 71.4489 152.263 87.1435 165.273C87.5238 165.59 87.9094 165.901 88.3002 166.212C93.8183 170.594 105.449 178.372 121.341 181.24C121.55 181.276 121.758 181.312 121.972 181.349C125.89 182.018 129.954 182.349 134.071 182.349V182.36Z" fill="#FFEA4B"/>
</g>
<g opacity="0.55">
<path d="M126.098 192.679C136.859 192.679 147.608 190.418 157.31 185.907C157.826 185.668 158.342 185.419 158.848 185.17C167.654 180.815 175.157 174.96 183.635 165.771C196.349 157.22 205.931 144.832 211.012 130.204C215.138 118.319 216.035 105.484 213.596 93.0961C213.445 92.3183 213.278 91.5457 213.101 90.7782C210.162 78.1359 203.93 66.8418 194.53 57.1033C194.28 56.7611 194.025 56.424 193.769 56.087C191.081 52.5608 186.803 47.5412 181.123 42.7187C166.815 27.7066 146.613 19.7882 125.973 20.9757C104.886 19.5653 84.6528 26.9287 69.8337 41.8734C69.2032 42.5113 68.5831 43.1594 67.9787 43.818C54.9103 58.0419 48.1573 76.9691 48.9649 97.1045C48.9701 97.2653 48.9806 97.426 48.9858 97.592C49.2359 102.933 51.5286 122.327 51.7683 123.981C51.7735 124.023 51.7787 124.064 51.7891 124.111C53.6233 136.712 57.2395 147.632 62.5335 156.572C62.7107 156.873 62.893 157.169 63.0702 157.464C67.4993 164.693 77.5715 178.02 95.2773 186.099C95.8662 186.368 96.455 186.628 97.049 186.877C106.204 190.755 116.157 192.684 126.098 192.684V192.679ZM188.22 51.197C188.22 51.197 188.246 51.2178 188.257 51.2281C188.246 51.2178 188.231 51.2074 188.22 51.197ZM188.163 51.1504C188.163 51.1504 188.199 51.1815 188.215 51.1918C188.199 51.1763 188.178 51.1607 188.163 51.1504Z" fill="#FFEA4B"/>
</g>
<g opacity="0.55">
<path d="M120.982 196.682C123.264 196.682 125.551 196.573 127.839 196.35C136.233 195.858 146.175 194.007 156.117 189.262C156.44 189.106 156.763 188.951 157.081 188.79C175.313 179.741 184.234 165.642 187.23 160.855C190.445 155.742 193.014 150.334 195.286 143.805C195.578 143.448 195.864 143.085 196.151 142.722C219.088 113.304 214.93 71.182 186.672 46.7737C186.636 46.7426 182.957 43.569 181.243 42.1638C181.196 42.1275 181.154 42.0912 181.107 42.0549C176.09 37.9739 165.762 30.4808 152.965 26.156C152.725 26.0731 152.485 25.9953 152.246 25.9175C147.598 24.4033 142.648 23.3092 137.624 22.6713C131.856 21.712 126.557 21.4942 122.123 21.6083C119.767 21.4631 117.412 21.4372 115.052 21.5253C114.843 21.5305 114.635 21.5409 114.427 21.5513C111.701 21.6757 108.403 21.9609 108.038 21.992C107.835 22.0076 107.637 22.0283 107.434 22.0491C83.621 24.3307 62.6377 38.0413 51.294 58.716C50.9553 59.3331 50.6271 59.9553 50.304 60.588C47.5684 65.9602 41.2895 80.4019 42.1493 98.432C42.2379 100.278 42.7694 109.991 44.5775 118.049C44.6244 118.251 44.6713 118.459 44.7182 118.661C44.8641 119.278 45.1298 120.662 45.3643 121.886C46.0365 125.392 46.9587 130.188 48.4594 135.789C48.5167 136.001 48.5741 136.214 48.6314 136.426C49.043 137.899 49.4547 139.304 49.8663 140.637C49.9705 141.073 50.0852 141.534 50.2154 142.032C50.304 142.364 50.3926 142.701 50.4864 143.033C52.0444 148.623 55.9472 159.554 64.5343 169.961C64.9825 170.506 65.441 171.04 65.9048 171.569C71.9439 178.455 79.1972 184.05 87.2893 188.183C97.6065 193.747 109.205 196.693 120.976 196.693L120.982 196.682Z" fill="#FFEA4B"/>
</g>
<g opacity="0.55">
<path d="M121.284 175.582C132.555 175.582 143.231 173.202 153.069 168.483C153.204 168.421 153.335 168.354 153.47 168.291C167.883 161.27 176.934 151.018 181.988 143.655C198.037 120.268 197.928 90.6537 184.151 67.884C181.363 61.931 177.121 54.8061 170.78 47.9923C168.873 45.7833 166.82 43.678 164.611 41.6815C164.168 41.2822 163.72 40.8881 163.266 40.4992C157.159 35.2515 149.458 30.6726 141.48 27.4317C130.304 22.101 117.574 19.6378 104.344 20.9031C83.7879 22.8684 66.1497 33.4365 54.6758 48.6872C50.1321 53.3542 45.6666 59.1257 42.0191 66.1624C41.8263 66.5306 41.6387 66.904 41.4563 67.2721C35.7194 78.8359 33.1453 91.7427 34.0051 104.598C34.0416 105.137 34.0833 105.681 34.1354 106.221C35.1775 117.733 39.0178 128.99 45.2445 138.775C45.75 139.574 46.2762 140.362 46.8129 141.135C51.9142 148.478 60.9495 158.657 75.0391 165.45C75.3883 165.616 75.7374 165.782 76.0865 165.942C79.6454 167.586 83.1678 168.852 86.5547 169.821C88.4879 170.604 90.4523 171.304 92.448 171.921C92.6877 171.994 92.9222 172.067 93.1619 172.139C96.0798 173.01 98.9196 173.653 101.64 174.125C102.593 174.312 103.552 174.473 104.516 174.623C104.995 174.696 105.475 174.763 105.959 174.825C109.32 175.261 112.723 175.453 116.13 175.416C116.563 175.442 117.001 175.468 117.438 175.489C118.731 175.551 120.012 175.582 121.289 175.582H121.284ZM65.6547 64.5134C65.6547 64.5134 65.6287 64.5497 65.6183 64.5705C65.6287 64.5497 65.6443 64.5342 65.6547 64.5134Z" fill="#FFEA4B"/>
</g>
<g opacity="0.55">
<path d="M121.555 198.912C126.656 198.912 131.215 198.425 134.983 197.787C135.165 197.756 135.353 197.725 135.535 197.693C145.748 195.889 160.145 191.3 172.994 179.793C179.372 174.68 185.641 167.923 190.622 159.046C190.898 158.553 191.169 158.06 191.43 157.563C198.548 144.127 201.252 128.347 199.037 113.138C198.97 112.661 198.891 112.184 198.813 111.707C197.98 106.693 195.713 96.7726 189.945 86.6972C189.783 86.4171 189.622 86.1371 189.46 85.8623C185.495 79.1522 180.274 72.9192 174.292 67.6766C165.001 54.5157 151.266 44.6788 135.102 40.3074C132.409 39.5814 129.694 39.011 126.969 38.6013C126.599 38.5132 126.234 38.425 125.864 38.3369C113.009 35.3811 100.165 36.133 88.4618 39.8822C65.4202 46.6545 47.9332 64.5238 41.128 86.5105C37.2878 96.8401 35.8548 108.155 37.319 119.605C36.6938 140.056 44.7599 159.818 59.5738 174.001C59.949 174.359 60.3241 174.716 60.7097 175.064C68.5309 182.225 77.7695 187.208 86.7214 190.439C88.7692 191.518 90.8743 192.508 93.0263 193.389C93.6099 193.628 94.1935 193.861 94.7823 194.084C104.396 197.735 113.629 198.912 121.555 198.912Z" fill="#FFEA4B"/>
</g>
<g opacity="0.55">
<path d="M124.056 199.565C125.098 199.565 126.14 199.545 127.187 199.498C127.891 199.467 128.589 199.431 129.287 199.379C135.342 198.943 141.626 197.688 147.556 195.759C155.533 193.478 163.136 189.92 169.889 185.176C170.191 184.963 170.493 184.75 170.79 184.533C186.052 173.446 193.457 158.678 196.515 150.863C196.63 150.567 196.745 150.277 196.854 149.981C197.985 146.963 198.912 143.862 199.631 140.689C200.47 138.843 201.252 136.94 201.929 135.026C201.992 134.845 202.06 134.663 202.122 134.482C206.192 122.737 207.343 109.446 205.379 97.0579C205.306 96.5963 205.228 96.14 205.144 95.6837C204.978 94.7503 204.795 93.8273 204.592 92.9094C203.175 85.8519 200.715 79.2041 197.386 73.1163C189.465 54.0646 173.646 39.3429 153.762 32.6017C153.251 32.4306 152.741 32.2594 152.23 32.0987C137.202 27.385 116.948 27.4784 101.827 32.3372C101.676 32.3839 101.53 32.4358 101.379 32.4824C92.3906 35.4382 83.7617 40.3592 75.7216 47.116C66.7958 54.6091 60.9703 63.3467 58.1617 68.1641C46.4116 86.189 43.9261 108.16 50.2519 127.767C50.2675 128.083 50.2832 128.394 50.304 128.705C50.3196 128.944 50.3353 129.182 50.3561 129.421C51.0179 138.231 53.321 147.518 56.8538 155.571C57.0154 155.94 57.1769 156.303 57.3436 156.671C61.9603 166.736 68.9374 175.8 77.5141 182.878C77.7434 183.065 77.9727 183.252 78.2019 183.438C91.2026 193.898 107.382 199.565 124.061 199.565H124.056ZM64.0341 60.3806C64.0341 60.3806 64.0133 60.4013 64.0029 60.4169C64.0133 60.4065 64.0237 60.391 64.0341 60.3806Z" fill="#FFEA4B"/>
</g>
<g opacity="0.55">
<path d="M120.336 201.8C128.266 201.8 135.764 200.711 142.804 198.549C146.644 197.59 150.761 196.242 155.059 194.297C155.346 194.167 155.633 194.038 155.914 193.903C174.391 185.259 184.838 170.853 189.424 163.033C199.569 145.729 201.632 125.278 195.812 106.755C194.937 99.9358 193.066 93.402 190.351 87.3142C190.44 83.228 190.169 79.09 189.518 74.9364C188.064 65.7009 184.838 57.1085 180.217 49.4961C179.227 47.7953 178.153 46.1307 177.007 44.4973C159.838 20.0786 129.032 9.12676 100.207 17.1903L100.087 17.2214C97.5961 17.9162 95.293 18.5748 92.8336 19.4304C81.0783 23.3144 72.835 29.4022 68.4164 33.0891C66.8792 34.3233 65.415 35.5989 64.0238 36.9057C63.9196 37.0042 63.8206 37.1027 63.7164 37.1961C62.4606 38.3939 61.3247 39.5607 60.1731 40.8104C57.8439 43.2683 55.7076 45.7937 53.7848 48.3657C48.6836 55.195 45.0153 62.657 42.7278 70.3835C40.3413 77.4202 39.1168 84.7266 39.0334 92.0279C38.8146 93.8013 38.6635 95.5748 38.5801 97.3586C38.5644 97.6957 38.5488 98.0379 38.5384 98.375C38.4394 101.471 38.5384 104.603 38.8354 107.953C39.4815 115.155 41.2323 122.145 43.9731 128.7C44.1763 134.108 45.01 139.501 46.4742 144.765C47.308 148.612 48.4699 152.419 49.9706 156.147C57.104 173.83 71.4959 188.328 89.4623 195.925C89.7697 196.055 90.0824 196.184 90.395 196.309C100.78 200.525 110.034 201.396 116.099 201.686C117.522 201.754 118.934 201.79 120.336 201.79V201.8Z" fill="#FFEA4B"/>
</g>
<g opacity="0.55">
<path d="M134.06 196.205C158.858 196.205 182.228 183.117 194.942 161.348C198.094 157.796 201.023 154 203.55 150.173L203.56 150.163L203.592 150.116L204.326 149.001C210.193 140.093 213.763 130.318 215.164 120.388C215.514 118.08 215.748 115.741 215.873 113.387C216.253 106.283 215.54 99.298 213.862 92.6242C213.111 88.8751 212.054 85.1674 210.678 81.5427C203.654 63.02 189.09 48.319 170.582 41.0593C160.468 37.0975 149.859 35.573 139.5 36.3405C135.144 35.6923 130.72 35.4485 126.265 35.6145C125.499 35.6404 124.738 35.6819 123.973 35.7389C107.476 36.8953 95.6369 43.5587 90.5773 46.4056C58.6984 64.3475 46.2554 103.296 60.8765 135.918C63.5652 148.161 69.5054 159.435 78.004 168.572C87.6177 181.126 101.468 190.455 117.813 194.307C123.238 195.583 128.688 196.2 134.071 196.2L134.06 196.205Z" fill="#FFEA4B"/>
</g>
<g opacity="0.55">
<path d="M116.24 199.477C138.271 199.477 159.514 189.148 172.948 171.019C177.304 167.944 180.628 164.988 182.764 162.919C182.895 162.795 183.025 162.665 183.15 162.541C190.455 155.343 195.291 147.466 197.031 144.412C197.125 144.251 197.214 144.091 197.307 143.925C200.533 138.164 203.284 131.448 205.061 125.018C205.092 124.894 205.129 124.774 205.16 124.65C206.03 121.43 208.062 112.889 208.114 103.213C208.114 102.995 208.114 102.777 208.114 102.56C208.088 96.3215 207.15 89.6892 206.598 86.7542C206.572 86.6038 206.541 86.4586 206.515 86.3082C204.748 77.2076 200.71 64.6482 191.529 52.9912C185.578 44.3417 173.677 30.8697 154.121 24.1078C153.903 24.0352 153.689 23.9574 153.47 23.8848C144.112 20.7527 135.488 20.0267 129.527 20.0267C129.444 20.0267 129.366 20.0267 129.282 20.0267C116.24 17.0295 102.275 17.7088 89.0193 22.5832C83.9233 24.4604 79.3691 26.7939 75.3204 29.3711C74.544 29.8015 73.6999 30.2941 72.7985 30.8438C72.6057 30.963 72.4129 31.0823 72.2201 31.2016C58.0575 40.0533 49.9028 51.9385 46.3022 58.2337C46.2345 58.3478 46.1719 58.4619 46.1042 58.5812C41.3 67.0958 37.6994 78.1306 37.6629 78.2395C37.6316 78.3381 37.6004 78.4314 37.5691 78.5299C36.8396 80.8323 36.2196 83.1969 35.7037 85.6082C34.4688 90.3685 33.4944 96.0674 33.3693 102.503C33.3693 102.658 33.3641 102.814 33.3641 102.969C33.3224 106.112 33.4996 108.565 33.6403 110.53L33.6507 110.659C33.6872 111.162 33.7289 111.66 33.7757 112.163C34.005 114.642 34.2551 117.115 34.5886 119.615C35.0315 127.393 36.7302 135.109 39.7055 142.41C39.8722 142.815 40.039 143.214 40.2109 143.619C41.6908 147.067 43.1185 149.613 43.8428 150.899C44.2075 151.594 44.5879 152.31 44.9891 153.041C47.1203 157.537 49.7517 161.861 52.8989 165.927C56.6089 170.729 60.7462 175.012 65.54 179.015C65.7328 179.176 65.9256 179.337 66.1184 179.492C74.8984 186.674 81.2345 190.703 88.7066 193.867C97.6742 197.657 107.027 199.462 116.235 199.467L116.24 199.477ZM43.6187 150.469C43.6708 150.567 43.7229 150.666 43.775 150.77C43.7542 150.728 43.7333 150.687 43.7073 150.645C43.676 150.588 43.6448 150.531 43.6135 150.469H43.6187ZM43.5353 150.313C43.5353 150.313 43.5353 150.303 43.5301 150.298C43.5301 150.298 43.5301 150.308 43.5353 150.313Z" fill="#FFEA4B"/>
</g>
<g opacity="0.55">
<path d="M116.521 198.228C126.646 198.228 135.498 196.335 137.468 195.884C137.609 195.853 137.755 195.816 137.895 195.785C141.553 194.924 145.164 193.773 148.676 192.358C150.104 191.963 151.355 191.58 152.391 191.227C152.501 191.191 152.61 191.155 152.72 191.113C161.984 187.945 172.083 182.531 179.732 176.625C179.873 176.516 180.013 176.407 180.154 176.298C186.193 171.564 192.201 165.299 196.646 159.118C196.74 158.989 196.833 158.859 196.922 158.729C203.399 149.572 208.062 138.397 210.042 127.258C210.089 126.999 210.131 126.74 210.178 126.481C212.444 112.858 210.381 100.999 208.948 95.1444C208.891 94.9007 208.828 94.6569 208.766 94.4184C206.51 85.603 202.846 78.2395 199.777 73.1266C197.776 67.8166 193.556 58.4775 186.11 49.6154C186.021 49.5117 185.938 49.4132 185.849 49.3095C182.426 45.2803 172.963 35.2152 159.145 28.7592C158.78 28.5881 158.415 28.4221 158.045 28.2562C144.664 22.2877 129.282 20.3223 114.734 22.7232C114.463 22.7699 114.187 22.8166 113.916 22.8632C107.773 23.9522 98.4767 26.3272 89.0714 31.4505C88.8526 31.5698 88.6389 31.689 88.4201 31.8083C82.136 35.3137 75.2319 40.52 69.448 45.9907C65.1753 49.5169 61.2569 53.6083 57.8022 58.2441C57.6459 58.4567 57.3541 58.8457 57.0779 59.2294L56.8278 59.5664C52.8208 64.9853 50.8303 68.4493 50.179 69.5901C50.1477 69.6419 50.1216 69.6938 50.0904 69.7405C46.2866 76.4039 43.9157 82.865 42.5974 87.1172C42.5662 87.2261 42.5297 87.335 42.4984 87.4439C40.9248 92.5983 37.4024 106.195 38.6425 121.025C38.653 121.129 38.6582 121.233 38.6686 121.331C39.346 129.073 41.3938 137.619 44.2857 144.78C44.3118 144.848 44.343 144.915 44.3691 144.983C44.9162 146.326 45.5311 147.7 46.1772 149.064C47.8498 153.368 49.9862 157.848 52.7322 162.204C52.8156 162.333 52.8937 162.463 52.9771 162.587C57.229 169.24 63.1431 175.971 69.1979 181.053C69.448 181.266 69.6981 181.473 69.9535 181.681C80.9844 190.683 94.4228 196.262 108.815 197.818C109.153 197.854 109.492 197.891 109.826 197.922C112.082 198.134 114.338 198.222 116.526 198.222L116.521 198.228Z" fill="#FFEA4B"/>
</g>
<g opacity="0.55">
<path d="M119.21 190.092C121.492 190.092 123.78 189.983 126.067 189.76C134.462 189.262 144.404 187.416 154.346 182.671C154.663 182.521 154.981 182.365 155.299 182.209C173.562 173.15 182.483 159.02 185.469 154.254C188.679 149.152 191.242 143.743 193.514 137.225C193.806 136.862 194.098 136.499 194.384 136.126C217.322 106.698 213.148 64.5705 184.885 40.1726C184.734 40.0429 181.154 36.9524 179.466 35.573C179.419 35.5367 179.378 35.5004 179.331 35.4641C174.313 31.3831 163.985 23.89 151.188 19.5653C150.948 19.4823 150.708 19.4045 150.469 19.3267C145.821 17.8126 140.871 16.7184 135.848 16.0806C130.079 15.1213 124.78 14.8983 120.346 15.0176C117.991 14.8724 115.635 14.8464 113.275 14.9346C113.067 14.9398 112.858 14.9501 112.645 14.9605C109.919 15.085 106.621 15.3702 106.256 15.4013C106.058 15.4168 105.855 15.4376 105.657 15.4583C81.8443 17.74 60.8557 31.4505 49.5172 52.1304C49.1942 52.7216 48.8815 53.3127 48.5741 53.909C45.8229 59.2916 39.5128 73.7593 40.3777 91.8464C40.4663 93.6925 40.9978 103.405 42.8059 111.463C42.8528 111.666 42.8997 111.873 42.9466 112.075C43.0925 112.692 43.3582 114.077 43.5927 115.301C44.2649 118.801 45.1872 123.603 46.6878 129.198C46.7452 129.41 46.8025 129.623 46.8598 129.836C47.2715 131.313 47.6831 132.719 48.0947 134.046C48.2094 134.523 48.3396 135.037 48.4855 135.586C48.5533 135.84 48.621 136.089 48.6887 136.343C51.3722 146.009 56.3536 155.587 62.7211 163.313C63.1848 163.873 63.6538 164.428 64.1332 164.973C70.1723 171.859 77.4256 177.454 85.5178 181.587C95.8349 187.151 107.434 190.097 119.205 190.097L119.21 190.092Z" fill="#FFEA4B"/>
</g>
<path d="M174.907 155.156C160.886 155.156 149.52 144.557 149.52 131.484C149.52 118.41 160.886 107.812 174.907 107.812C188.927 107.812 200.293 118.41 200.293 131.484C200.293 144.557 188.927 155.156 174.907 155.156Z" fill="#FFDB27" fill-opacity="0.8"/>
<path d="M51.8985 157.375C37.878 157.375 26.5121 146.777 26.5121 133.703C26.5121 120.629 37.878 110.031 51.8985 110.031C65.919 110.031 77.2849 120.629 77.2849 133.703C77.2849 146.777 65.919 157.375 51.8985 157.375Z" fill="#FFDB27" fill-opacity="0.8"/>
<ellipse cx="33.6829" cy="32.1585" rx="33.6829" ry="32.1585" transform="matrix(-1 0 0 1 196.563 59.7763)" fill="white"/>
<path d="M167.208 65.8748C155.076 65.8748 145.24 75.6912 145.24 87.8005C145.24 99.9101 155.075 109.727 167.208 109.727C179.339 109.727 189.174 99.91 189.174 87.8005C189.174 75.6913 179.339 65.8749 167.208 65.8748Z" fill="#2E2C2C"/>
<path d="M167.208 65.8748C155.076 65.8748 145.24 75.6912 145.24 87.8005C145.24 99.9101 155.075 109.727 167.208 109.727C179.339 109.727 189.174 99.91 189.174 87.8005C189.174 75.6913 179.339 65.8749 167.208 65.8748Z" stroke="black"/>
<ellipse cx="33.6829" cy="32.1585" rx="33.6829" ry="32.1585" transform="matrix(-1 0 0 1 105.766 59.7763)" fill="white"/>
<path d="M77.6361 65.8748C65.5042 65.8748 55.6686 75.6912 55.6683 87.8005C55.6683 99.9101 65.504 109.727 77.6361 109.727C89.7681 109.727 99.6029 99.91 99.6029 87.8005C99.6027 75.6913 89.7679 65.8749 77.6361 65.8748Z" fill="#2E2C2C"/>
<path d="M77.6361 65.8748C65.5042 65.8748 55.6686 75.6912 55.6683 87.8005C55.6683 99.9101 65.504 109.727 77.6361 109.727C89.7681 109.727 99.6029 99.91 99.6029 87.8005C99.6027 75.6913 89.7679 65.8749 77.6361 65.8748Z" stroke="black"/>
<path d="M145.677 130.64C135.044 141.295 118.968 143.896 104.887 139.772C100.76 138.564 96.7539 136.81 93.0159 134.679C91.273 133.686 90.5392 131.148 91.6476 129.417C92.756 127.686 95.0111 126.978 96.8762 128.039C98.3592 128.886 99.8804 129.671 101.44 130.371C101.646 130.463 101.86 130.555 102.067 130.648C102.013 130.624 101.532 130.432 101.937 130.594C102.304 130.74 102.678 130.894 103.045 131.04C103.894 131.371 104.75 131.671 105.621 131.955C107.242 132.479 108.893 132.917 110.559 133.263C111.339 133.425 112.119 133.556 112.906 133.679C113.051 133.702 113.694 133.802 112.906 133.679C113.128 133.71 113.357 133.733 113.579 133.756C114.03 133.802 114.481 133.848 114.932 133.879C116.621 134.01 118.311 134.033 120 133.948C120.726 133.91 121.452 133.856 122.179 133.771C122.377 133.748 122.599 133.74 122.798 133.694C122.668 133.717 121.98 133.817 122.714 133.702C123.126 133.633 123.539 133.571 123.944 133.494C125.481 133.209 127.002 132.825 128.493 132.348C129.188 132.125 129.876 131.879 130.557 131.617C130.748 131.54 130.947 131.463 131.138 131.386C131.008 131.44 130.427 131.702 131.084 131.409C131.466 131.24 131.841 131.063 132.215 130.886C133.805 130.117 135.334 129.224 136.779 128.209C137.115 127.97 137.452 127.724 137.788 127.478C137.146 127.955 138.033 127.27 138.231 127.109C138.95 126.509 139.63 125.87 140.295 125.201C141.694 123.777 144.278 123.67 145.677 125.201C147.076 126.732 147.19 129.124 145.677 130.64Z" fill="#2E2C2C"/>
<path d="M145.677 130.64C135.044 141.295 118.968 143.896 104.887 139.772C100.76 138.564 96.7539 136.81 93.0159 134.679C91.273 133.686 90.5392 131.148 91.6476 129.417C92.756 127.686 95.0111 126.978 96.8762 128.039C98.3592 128.886 99.8804 129.671 101.44 130.371C101.646 130.463 101.86 130.555 102.067 130.648C102.013 130.624 101.532 130.432 101.937 130.594C102.304 130.74 102.678 130.894 103.045 131.04C103.894 131.371 104.75 131.671 105.621 131.955C107.242 132.479 108.893 132.917 110.559 133.263C111.339 133.425 112.119 133.556 112.906 133.679C113.051 133.702 113.694 133.802 112.906 133.679C113.128 133.71 113.357 133.733 113.579 133.756C114.03 133.802 114.481 133.848 114.932 133.879C116.621 134.01 118.311 134.033 120 133.948C120.726 133.91 121.452 133.856 122.179 133.771C122.377 133.748 122.599 133.74 122.798 133.694C122.668 133.717 121.98 133.817 122.714 133.702C123.126 133.633 123.539 133.571 123.944 133.494C125.481 133.209 127.002 132.825 128.493 132.348C129.188 132.125 129.876 131.879 130.557 131.617C130.748 131.54 130.947 131.463 131.138 131.386C131.008 131.44 130.427 131.702 131.084 131.409C131.466 131.24 131.841 131.063 132.215 130.886C133.805 130.117 135.334 129.224 136.779 128.209C137.115 127.97 137.452 127.724 137.788 127.478C137.146 127.955 138.033 127.27 138.231 127.109C138.95 126.509 139.63 125.87 140.295 125.201C141.694 123.777 144.278 123.67 145.677 125.201C147.076 126.732 147.19 129.124 145.677 130.64Z" fill="black" fill-opacity="0.2"/>
</svg>
