<svg width="462" height="466" viewBox="0 0 462 466" fill="none" xmlns="http://www.w3.org/2000/svg">
<circle cx="231" cy="233" r="220" fill="#FF6D6D"/>
<path d="M303.17 177.792C288.085 177.792 275.857 166.75 275.857 153.128C275.857 139.507 288.085 128.464 303.17 128.464C318.255 128.464 330.483 139.507 330.483 153.128C330.483 166.75 318.255 177.792 303.17 177.792Z" fill="#FF5555"/>
<path d="M168.041 181.446C152.957 181.446 140.728 170.404 140.728 156.782C140.728 143.161 152.957 132.118 168.041 132.118C183.126 132.118 195.355 143.161 195.355 156.782C195.355 170.404 183.126 181.446 168.041 181.446Z" fill="#FF5555"/>
<g clip-path="url(#clip0_1211_1961)">
<path d="M264.73 151.244C253.083 162.197 235.475 164.87 220.052 160.631C215.53 159.389 211.143 157.586 207.049 155.395C205.14 154.375 204.336 151.766 205.55 149.986C206.764 148.207 209.234 147.479 211.277 148.571C212.901 149.44 214.568 150.247 216.276 150.967C216.502 151.062 216.736 151.157 216.962 151.251C216.904 151.228 216.376 151.03 216.82 151.196C217.222 151.346 217.632 151.505 218.034 151.655C218.963 151.995 219.901 152.303 220.856 152.596C222.631 153.134 224.439 153.584 226.265 153.94C227.119 154.106 227.973 154.241 228.835 154.367C228.994 154.391 229.697 154.494 228.835 154.367C229.078 154.399 229.329 154.423 229.572 154.446C230.066 154.494 230.56 154.541 231.054 154.573C232.904 154.707 234.755 154.731 236.605 154.644C237.401 154.605 238.196 154.549 238.991 154.462C239.209 154.439 239.452 154.431 239.67 154.383C239.527 154.407 238.774 154.51 239.577 154.391C240.03 154.32 240.482 154.257 240.926 154.178C242.608 153.885 244.275 153.49 245.907 152.999C246.669 152.77 247.423 152.517 248.168 152.248C248.377 152.169 248.595 152.09 248.804 152.011C248.662 152.066 248.026 152.335 248.746 152.034C249.164 151.86 249.575 151.679 249.985 151.497C251.727 150.706 253.401 149.788 254.984 148.745C255.352 148.499 255.72 148.246 256.089 147.993C255.386 148.484 256.357 147.78 256.575 147.614C257.362 146.997 258.107 146.34 258.835 145.652C260.367 144.189 263.198 144.079 264.73 145.652C266.262 147.226 266.388 149.686 264.73 151.244Z" fill="#2A2A2A"/>
<path d="M264.73 151.244C253.083 162.197 235.475 164.87 220.052 160.631C215.53 159.389 211.143 157.586 207.049 155.395C205.14 154.375 204.336 151.766 205.55 149.986C206.764 148.207 209.234 147.479 211.277 148.571C212.901 149.44 214.568 150.247 216.276 150.967C216.502 151.062 216.736 151.157 216.962 151.251C216.904 151.228 216.376 151.03 216.82 151.196C217.222 151.346 217.632 151.505 218.034 151.655C218.963 151.995 219.901 152.303 220.856 152.596C222.631 153.134 224.439 153.584 226.265 153.94C227.119 154.106 227.973 154.241 228.835 154.367C228.994 154.391 229.697 154.494 228.835 154.367C229.078 154.399 229.329 154.423 229.572 154.446C230.066 154.494 230.56 154.541 231.054 154.573C232.904 154.707 234.755 154.731 236.605 154.644C237.401 154.605 238.196 154.549 238.991 154.462C239.209 154.439 239.452 154.431 239.67 154.383C239.527 154.407 238.774 154.51 239.577 154.391C240.03 154.32 240.482 154.257 240.926 154.178C242.608 153.885 244.275 153.49 245.907 152.999C246.669 152.77 247.423 152.517 248.168 152.248C248.377 152.169 248.595 152.09 248.804 152.011C248.662 152.066 248.026 152.335 248.746 152.034C249.164 151.86 249.575 151.679 249.985 151.497C251.727 150.706 253.401 149.788 254.984 148.745C255.352 148.499 255.72 148.246 256.089 147.993C255.386 148.484 256.357 147.78 256.575 147.614C257.362 146.997 258.107 146.34 258.835 145.652C260.367 144.189 263.198 144.079 264.73 145.652C266.262 147.226 266.388 149.686 264.73 151.244Z" fill="black" fill-opacity="0.2"/>
</g>
<ellipse cx="36.7832" cy="34.0589" rx="36.7832" ry="34.0589" transform="matrix(-1 0 0 1 323.73 76.3962)" fill="white"/>
<path d="M289.586 83.7039C276.527 83.704 265.94 93.3464 265.94 105.241C265.94 117.136 276.527 126.778 289.586 126.778C302.646 126.778 313.233 117.136 313.233 105.241C313.233 93.3464 302.646 83.7039 289.586 83.7039Z" fill="#2E2C2C"/>
<path d="M289.586 83.7039C276.527 83.704 265.94 93.3464 265.94 105.241C265.94 117.136 276.527 126.778 289.586 126.778C302.646 126.778 313.233 117.136 313.233 105.241C313.233 93.3464 302.646 83.7039 289.586 83.7039Z" stroke="black"/>
<ellipse cx="35.7322" cy="34.0589" rx="35.7322" ry="34.0589" transform="matrix(-1 0 0 1 224.941 76.3962)" fill="white"/>
<path d="M192.188 83.7039C179.324 83.7039 168.895 93.6437 168.895 105.905C168.895 118.167 179.324 128.107 192.188 128.107C205.052 128.107 215.48 118.167 215.48 105.905C215.48 93.6438 205.052 83.7041 192.188 83.7039Z" fill="#2E2C2C"/>
<path d="M192.188 83.7039C179.324 83.7039 168.895 93.6437 168.895 105.905C168.895 118.167 179.324 128.107 192.188 128.107C205.052 128.107 215.48 118.167 215.48 105.905C215.48 93.6438 205.052 83.7041 192.188 83.7039Z" stroke="black"/>
<g clip-path="url(#clip1_1211_1961)">
<path d="M199.345 185.339C192.15 174.725 183.813 165.016 174.405 156.518C172.891 155.155 172.372 152.871 173.64 151.067C174.768 149.453 177.331 148.818 178.845 150.182C188.729 159.121 197.594 169.213 205.148 180.382C206.297 182.086 206.206 184.481 204.562 185.885C203.066 187.163 200.49 187.074 199.328 185.353L199.345 185.339Z" fill="#FFB3B3"/>
<path d="M178.339 186.394C177.178 183.825 175.42 181.666 173.627 179.552C171.462 177.006 169.249 174.487 167.068 171.956C162.583 166.771 158.098 161.586 153.614 156.401C152.269 154.85 152.687 152.19 154.199 150.898C155.843 149.494 158.089 149.88 159.433 151.43C164.038 156.753 168.655 162.093 173.26 167.416C177.492 172.308 182.427 177.052 185.16 183.112C187.204 187.64 180.401 190.893 178.356 186.38L178.339 186.394Z" fill="#FFB3B3"/>
<path d="M156.6 187.044C149.275 176.385 140.722 166.733 131.061 158.366C129.529 157.032 129.046 154.689 130.296 152.915C131.443 151.272 133.955 150.695 135.502 152.03C145.642 160.807 154.717 170.889 162.404 182.072C163.57 183.761 163.448 186.168 161.819 187.574C160.306 188.866 157.763 188.749 156.585 187.042L156.6 187.044Z" fill="#FFB3B3"/>
</g>
<g clip-path="url(#clip2_1211_1961)">
<path d="M372.678 185.338C365.483 174.724 357.146 165.015 347.738 156.517C346.224 155.154 345.705 152.87 346.973 151.066C348.101 149.453 350.665 148.818 352.179 150.181C362.063 159.12 370.927 169.213 378.481 180.382C379.63 182.085 379.54 184.48 377.896 185.884C376.4 187.162 373.824 187.073 372.662 185.352L372.678 185.338Z" fill="#FFB3B3"/>
<path d="M351.673 186.393C350.512 183.824 348.754 181.666 346.961 179.551C344.796 177.005 342.583 174.487 340.401 171.955C335.917 166.77 331.432 161.585 326.947 156.4C325.603 154.849 326.02 152.189 327.533 150.898C329.177 149.494 331.422 149.879 332.767 151.43C337.371 156.753 341.989 162.092 346.594 167.415C350.825 172.308 355.761 177.051 358.493 183.111C360.537 187.64 353.735 190.892 351.689 186.379L351.673 186.393Z" fill="#FFB3B3"/>
<path d="M329.933 187.043C322.608 176.384 314.056 166.732 304.395 158.366C302.863 157.032 302.38 154.689 303.63 152.915C304.776 151.271 307.289 150.694 308.835 152.03C318.976 160.806 328.051 170.888 335.738 182.071C336.903 183.761 336.781 186.168 335.152 187.573C333.64 188.865 331.097 188.748 329.918 187.041L329.933 187.043Z" fill="#FFB3B3"/>
</g>
<defs>
<clipPath id="clip0_1211_1961">
<rect width="60.955" height="18.0312" fill="white" transform="matrix(-1 0 0 1 265.928 144.514)"/>
</clipPath>
<clipPath id="clip1_1211_1961">
<rect width="78.8846" height="40.5947" fill="white" transform="matrix(-0.994874 -0.101117 -0.105823 0.994385 209.154 152.713)"/>
</clipPath>
<clipPath id="clip2_1211_1961">
<rect width="78.8846" height="40.5947" fill="white" transform="matrix(-0.994874 -0.101117 -0.105823 0.994385 382.487 152.712)"/>
</clipPath>
</defs>
</svg>
